<?xml version="1.0" encoding="UTF-8" standalone="no"?>
<svg
   xmlns:dc="http://purl.org/dc/elements/1.1/"
   xmlns:cc="http://creativecommons.org/ns#"
   xmlns:rdf="http://www.w3.org/1999/02/22-rdf-syntax-ns#"
   xmlns:svg="http://www.w3.org/2000/svg"
   xmlns="http://www.w3.org/2000/svg"
   version="1.1"
   id="svg2"
   xml:space="preserve"
   width="566.92932"
   height="359.05466"
   viewBox="0 0 566.92932 359.05466"><metadata
     id="metadata8"><rdf:RDF><cc:Work
         rdf:about=""><dc:format>image/svg+xml</dc:format><dc:type
           rdf:resource="http://purl.org/dc/dcmitype/StillImage" /></cc:Work></rdf:RDF></metadata><defs
     id="defs6"><clipPath
       clipPathUnits="userSpaceOnUse"
       id="clipPath58"><path
         d="M -0.00426,-0.00269 V 269.29404 H 425.20111 V -0.00269 H -0.00426"
         clip-rule="evenodd"
         id="path56" /></clipPath><clipPath
       clipPathUnits="userSpaceOnUse"
       id="clipPath70"><path
         d="M -0.00426,-0.00269 V 269.29404 H 425.20111 V -0.00269 H -0.00426"
         clip-rule="evenodd"
         id="path68" /></clipPath><clipPath
       clipPathUnits="userSpaceOnUse"
       id="clipPath86"><path
         d="M -0.00426,-0.00269 V 269.29404 H 425.20111 V -0.00269 H -0.00426"
         clip-rule="evenodd"
         id="path84" /></clipPath><clipPath
       clipPathUnits="userSpaceOnUse"
       id="clipPath98"><path
         d="M -0.00426,-0.00269 V 269.29404 H 425.20111 V -0.00269 H -0.00426"
         clip-rule="evenodd"
         id="path96" /></clipPath><clipPath
       clipPathUnits="userSpaceOnUse"
       id="clipPath110"><path
         d="M -0.00426,-0.00269 V 269.29404 H 425.20111 V -0.00269 H -0.00426"
         clip-rule="evenodd"
         id="path108" /></clipPath><clipPath
       clipPathUnits="userSpaceOnUse"
       id="clipPath122"><path
         d="M -0.00426,-0.00269 V 269.29404 H 425.20111 V -0.00269 H -0.00426"
         clip-rule="evenodd"
         id="path120" /></clipPath><clipPath
       clipPathUnits="userSpaceOnUse"
       id="clipPath136"><path
         d="M -0.00426,-0.00269 V 269.29404 H 425.20111 V -0.00269 H -0.00426"
         clip-rule="evenodd"
         id="path134" /></clipPath><clipPath
       clipPathUnits="userSpaceOnUse"
       id="clipPath148"><path
         d="M -0.00426,-0.00269 V 269.29404 H 425.20111 V -0.00269 H -0.00426"
         clip-rule="evenodd"
         id="path146" /></clipPath><clipPath
       clipPathUnits="userSpaceOnUse"
       id="clipPath160"><path
         d="M -0.00426,-0.00269 V 269.29404 H 425.20111 V -0.00269 H -0.00426"
         clip-rule="evenodd"
         id="path158" /></clipPath><clipPath
       clipPathUnits="userSpaceOnUse"
       id="clipPath172"><path
         d="M -0.00426,-0.00269 V 269.29404 H 425.20111 V -0.00269 H -0.00426"
         clip-rule="evenodd"
         id="path170" /></clipPath><clipPath
       clipPathUnits="userSpaceOnUse"
       id="clipPath188"><path
         d="M -0.00426,-0.00269 V 269.29404 H 425.20111 V -0.00269 H -0.00426"
         clip-rule="evenodd"
         id="path186" /></clipPath><clipPath
       clipPathUnits="userSpaceOnUse"
       id="clipPath200"><path
         d="M -0.00426,-0.00269 V 269.29404 H 425.20111 V -0.00269 H -0.00426"
         clip-rule="evenodd"
         id="path198" /></clipPath><clipPath
       clipPathUnits="userSpaceOnUse"
       id="clipPath212"><path
         d="M -0.00426,-0.00269 V 269.29404 H 425.20111 V -0.00269 H -0.00426"
         clip-rule="evenodd"
         id="path210" /></clipPath></defs><g
     id="g10"
     transform="matrix(1.3333333,0,0,-1.3333333,0,359.05467)"><path
       d="m 76.14417,180.29196 v -56.69292 h 4.25196 v 56.69292 h -4.25196 m 0,-56.69292 V 66.90613 h 4.25196 v 56.69291 h -4.25196 m 0,-56.69291 V 10.21321 h 4.25196 v 56.69292 h -4.25196 m 0,170.07873 v -56.6929 h 4.25196 v 56.6929 h -4.25196"
       style="fill:none;stroke:#000000;stroke-width:0.99213;stroke-linecap:round;stroke-linejoin:round;stroke-miterlimit:10;stroke-dasharray:none;stroke-opacity:1"
       id="path12" /><path
       d="m 78.27016,0 v 7.08661 m 0,7.65355 v 7.08661 m 0,7.65355 v 7.08661 m 0,7.65354 v 7.08661 m 0,7.65355 v 7.08661 m 0,7.65355 v 7.08661 m 0,7.65355 v 7.08661 m 0,7.65355 v 7.08661 m 0,7.65354 v 7.08661 m 0,7.65357 v 7.08661 m 0,7.65353 v 7.08661 m 0,7.65356 v 7.08661 m 0,7.65354 v 7.08661 m 0,7.65353 v 7.08664 m 0,7.65353 v 7.08661 m 0,7.65354 v 7.08664 m 0,7.65353 v 7.08661 m 0,7.65353 v 7.08661 m 0,7.65357 v 0.008 m 0,-254.55968 v 0.28346 m 0,14.4567 v 0.28346 m 0,14.4567 v 0.28346 m 0,14.4567 v 0.28346 m 0,14.45669 v 0.28347 m 0,14.45669 v 0.28347 m 0,14.45669 v 0.28346 m 0,14.4567 v 0.28346 m 0,14.45671 v 0.28345 m 0,14.45669 v 0.28348 m 0,14.4567 v 0.28345 m 0,14.45669 v 0.28348 m 0,14.45669 v 0.28345 m 0,14.4567 v 0.28348 m 0,14.45669 v 0.28345 m 0,14.45669 v 0.28348 m 0,14.45667 v 0.28347 m 0,14.4567 v 0.28345 m 0,3.69354 v 0"
       style="fill:none;stroke:#000000;stroke-width:0.3685;stroke-linecap:round;stroke-linejoin:round;stroke-miterlimit:10;stroke-dasharray:none;stroke-opacity:1"
       id="path14" /><path
       d="m 76.14417,12.33919 h 216.8504 V 8.08722 H 76.14417 v 4.25197"
       style="fill:none;stroke:#000000;stroke-width:0.99213;stroke-linecap:round;stroke-linejoin:round;stroke-miterlimit:10;stroke-dasharray:none;stroke-opacity:1"
       id="path16" /><path
       d="m 58.96063,10.21321 h 7.08661 m 7.65355,0 h 7.08661 m 7.65355,0 h 7.08661 m 7.65355,0 h 7.08661 m 7.65354,0 h 7.08661 m 7.65357,0 h 7.08661 m 7.65353,0 h 7.08661 m 7.65356,0 h 7.08661 m 7.65354,0 h 7.08661 m 7.65353,0 h 7.08664 m 7.65353,0 h 7.08661 m 7.65354,0 h 7.08664 m 7.65353,0 h 7.08661 m 7.65353,0 h 7.08661 m 7.65357,0 h 7.0866 m 7.65354,0 h 7.08661 m 7.65356,0 h 7.08661 m 7.65353,0 h 7.08661 m -261.63778,0 h 0.28346 m 14.45669,0 h 0.28347 m 14.45669,0 h 0.28347 m 14.45669,0 h 0.28346 m 14.4567,0 h 0.28346 m 14.45671,0 h 0.28345 m 14.45669,0 h 0.28348 m 14.4567,0 h 0.28345 m 14.45669,0 h 0.28348 m 14.45669,0 h 0.28345 m 14.4567,0 h 0.28348 m 14.45669,0 h 0.28345 m 14.45669,0 h 0.28348 m 14.45667,0 h 0.28347 m 14.4567,0 h 0.28345 m 14.45669,0 h 0.28348 m 14.4567,0 h 0.28344 m 14.4567,0 h 0.28348 m 14.45669,0 h 0.28345 m -268.54874,0 v 0 m 269.29132,0 v 0"
       style="fill:none;stroke:#000000;stroke-width:0.3685;stroke-linecap:round;stroke-linejoin:round;stroke-miterlimit:10;stroke-dasharray:none;stroke-opacity:1"
       id="path18" /><path
       d="m 76.14417,69.0321 h 216.8504 V 64.78014 H 76.14417 v 4.25196"
       style="fill:none;stroke:#000000;stroke-width:0.99213;stroke-linecap:round;stroke-linejoin:round;stroke-miterlimit:10;stroke-dasharray:none;stroke-opacity:1"
       id="path20" /><path
       d="m 58.96063,66.90613 h 7.08661 m 7.65355,0 h 7.08661 m 7.65355,0 h 7.08661 m 7.65355,0 h 7.08661 m 7.65354,0 h 7.08661 m 7.65357,0 h 7.08661 m 7.65353,0 h 7.08661 m 7.65356,0 h 7.08661 m 7.65354,0 h 7.08661 m 7.65353,0 h 7.08664 m 7.65353,0 h 7.08661 m 7.65354,0 h 7.08664 m 7.65353,0 h 7.08661 m 7.65353,0 h 7.08661 m 7.65357,0 h 7.0866 m 7.65354,0 h 7.08661 m 7.65356,0 h 7.08661 m 7.65353,0 h 7.08661 m -261.63778,0 h 0.28346 m 14.45669,0 h 0.28347 m 14.45669,0 h 0.28347 m 14.45669,0 h 0.28346 m 14.4567,0 h 0.28346 m 14.45671,0 h 0.28345 m 14.45669,0 h 0.28348 m 14.4567,0 h 0.28345 m 14.45669,0 h 0.28348 m 14.45669,0 h 0.28345 m 14.4567,0 h 0.28348 m 14.45669,0 h 0.28345 m 14.45669,0 h 0.28348 m 14.45667,0 h 0.28347 m 14.4567,0 h 0.28345 m 14.45669,0 h 0.28348 m 14.4567,0 h 0.28344 m 14.4567,0 h 0.28348 m 14.45669,0 h 0.28345 m -268.54874,0 v 0 m 269.29132,0 v 0"
       style="fill:none;stroke:#000000;stroke-width:0.3685;stroke-linecap:round;stroke-linejoin:round;stroke-miterlimit:10;stroke-dasharray:none;stroke-opacity:1"
       id="path22" /><path
       d="m 76.14417,125.72502 h 216.8504 v -4.25197 H 76.14417 v 4.25197"
       style="fill:none;stroke:#000000;stroke-width:0.99213;stroke-linecap:round;stroke-linejoin:round;stroke-miterlimit:10;stroke-dasharray:none;stroke-opacity:1"
       id="path24" /><path
       d="m 58.96063,123.59904 h 7.08661 m 7.65355,0 h 7.08661 m 7.65355,0 h 7.08661 m 7.65355,0 h 7.08661 m 7.65354,0 h 7.08661 m 7.65357,0 h 7.08661 m 7.65353,0 h 7.08661 m 7.65356,0 h 7.08661 m 7.65354,0 h 7.08661 m 7.65353,0 h 7.08664 m 7.65353,0 h 7.08661 m 7.65354,0 h 7.08664 m 7.65353,0 h 7.08661 m 7.65353,0 h 7.08661 m 7.65357,0 h 7.0866 m 7.65354,0 h 7.08661 m 7.65356,0 h 7.08661 m 7.65353,0 h 7.08661 m -261.63778,0 h 0.28346 m 14.45669,0 h 0.28347 m 14.45669,0 h 0.28347 m 14.45669,0 h 0.28346 m 14.4567,0 h 0.28346 m 14.45671,0 h 0.28345 m 14.45669,0 h 0.28348 m 14.4567,0 h 0.28345 m 14.45669,0 h 0.28348 m 14.45669,0 h 0.28345 m 14.4567,0 h 0.28348 m 14.45669,0 h 0.28345 m 14.45669,0 h 0.28348 m 14.45667,0 h 0.28347 m 14.4567,0 h 0.28345 m 14.45669,0 h 0.28348 m 14.4567,0 h 0.28344 m 14.4567,0 h 0.28348 m 14.45669,0 h 0.28345 m -268.54874,0 v 0 m 269.29132,0 v 0"
       style="fill:none;stroke:#000000;stroke-width:0.3685;stroke-linecap:round;stroke-linejoin:round;stroke-miterlimit:10;stroke-dasharray:none;stroke-opacity:1"
       id="path26" /><path
       d="m 76.14417,182.41794 h 216.8504 v -4.25199 H 76.14417 v 4.25199"
       style="fill:none;stroke:#000000;stroke-width:0.99213;stroke-linecap:round;stroke-linejoin:round;stroke-miterlimit:10;stroke-dasharray:none;stroke-opacity:1"
       id="path28" /><path
       d="m 58.96063,180.29196 h 7.08661 m 7.65355,0 h 7.08661 m 7.65355,0 h 7.08661 m 7.65355,0 h 7.08661 m 7.65354,0 h 7.08661 m 7.65357,0 h 7.08661 m 7.65353,0 h 7.08661 m 7.65356,0 h 7.08661 m 7.65354,0 h 7.08661 m 7.65353,0 h 7.08664 m 7.65353,0 h 7.08661 m 7.65354,0 h 7.08664 m 7.65353,0 h 7.08661 m 7.65353,0 h 7.08661 m 7.65357,0 h 7.0866 m 7.65354,0 h 7.08661 m 7.65356,0 h 7.08661 m 7.65353,0 h 7.08661 m -261.63778,0 h 0.28346 m 14.45669,0 h 0.28347 m 14.45669,0 h 0.28347 m 14.45669,0 h 0.28346 m 14.4567,0 h 0.28346 m 14.45671,0 h 0.28345 m 14.45669,0 h 0.28348 m 14.4567,0 h 0.28345 m 14.45669,0 h 0.28348 m 14.45669,0 h 0.28345 m 14.4567,0 h 0.28348 m 14.45669,0 h 0.28345 m 14.45669,0 h 0.28348 m 14.45667,0 h 0.28347 m 14.4567,0 h 0.28345 m 14.45669,0 h 0.28348 m 14.4567,0 h 0.28344 m 14.4567,0 h 0.28348 m 14.45669,0 h 0.28345 m -268.54874,0 v 0 m 269.29132,0 v 0"
       style="fill:none;stroke:#000000;stroke-width:0.3685;stroke-linecap:round;stroke-linejoin:round;stroke-miterlimit:10;stroke-dasharray:none;stroke-opacity:1"
       id="path30" /><path
       d="m 76.14417,239.11084 h 216.8504 v -4.25195 H 76.14417 v 4.25195"
       style="fill:none;stroke:#000000;stroke-width:0.99213;stroke-linecap:round;stroke-linejoin:round;stroke-miterlimit:10;stroke-dasharray:none;stroke-opacity:1"
       id="path32" /><path
       d="m 58.96063,236.98486 h 7.08661 m 7.65355,0 h 7.08661 m 7.65355,0 h 7.08661 m 7.65355,0 h 7.08661 m 7.65354,0 h 7.08661 m 7.65357,0 h 7.08661 m 7.65353,0 h 7.08661 m 7.65356,0 h 7.08661 m 7.65354,0 h 7.08661 m 7.65353,0 h 7.08664 m 7.65353,0 h 7.08661 m 7.65354,0 h 7.08664 m 7.65353,0 h 7.08661 m 7.65353,0 h 7.08661 m 7.65357,0 h 7.0866 m 7.65354,0 h 7.08661 m 7.65356,0 h 7.08661 m 7.65353,0 h 7.08661 m -261.63778,0 h 0.28346 m 14.45669,0 h 0.28347 m 14.45669,0 h 0.28347 m 14.45669,0 h 0.28346 m 14.4567,0 h 0.28346 m 14.45671,0 h 0.28345 m 14.45669,0 h 0.28348 m 14.4567,0 h 0.28345 m 14.45669,0 h 0.28348 m 14.45669,0 h 0.28345 m 14.4567,0 h 0.28348 m 14.45669,0 h 0.28345 m 14.45669,0 h 0.28348 m 14.45667,0 h 0.28347 m 14.4567,0 h 0.28345 m 14.45669,0 h 0.28348 m 14.4567,0 h 0.28344 m 14.4567,0 h 0.28348 m 14.45669,0 h 0.28345 m -268.54874,0 v 0 m 269.29132,0 v 0"
       style="fill:none;stroke:#000000;stroke-width:0.3685;stroke-linecap:round;stroke-linejoin:round;stroke-miterlimit:10;stroke-dasharray:none;stroke-opacity:1"
       id="path34" /><path
       d="m 288.74258,180.29196 v -56.69292 h 4.25199 v 56.69292 h -4.25199 m 0,-56.69292 V 66.90613 h 4.25199 v 56.69291 h -4.25199 m 0,-56.69291 V 10.21321 h 4.25199 v 56.69292 h -4.25199 m 0,170.07873 v -56.6929 h 4.25199 v 56.6929 h -4.25199"
       style="fill:none;stroke:#000000;stroke-width:0.99213;stroke-linecap:round;stroke-linejoin:round;stroke-miterlimit:10;stroke-dasharray:none;stroke-opacity:1"
       id="path36" /><path
       d="m 290.86856,0 v 7.08661 m 0,7.65355 v 7.08661 m 0,7.65355 v 7.08661 m 0,7.65354 v 7.08661 m 0,7.65355 v 7.08661 m 0,7.65355 v 7.08661 m 0,7.65355 v 7.08661 m 0,7.65355 v 7.08661 m 0,7.65354 v 7.08661 m 0,7.65357 v 7.08661 m 0,7.65353 v 7.08661 m 0,7.65356 v 7.08661 m 0,7.65354 v 7.08661 m 0,7.65353 v 7.08664 m 0,7.65353 v 7.08661 m 0,7.65354 v 7.08664 m 0,7.65353 v 7.08661 m 0,7.65353 v 7.08661 m 0,7.65357 v 0.008 m 0,-254.55968 v 0.28346 m 0,14.4567 v 0.28346 m 0,14.4567 v 0.28346 m 0,14.4567 v 0.28346 m 0,14.45669 v 0.28347 m 0,14.45669 v 0.28347 m 0,14.45669 v 0.28346 m 0,14.4567 v 0.28346 m 0,14.45671 v 0.28345 m 0,14.45669 v 0.28348 m 0,14.4567 v 0.28345 m 0,14.45669 v 0.28348 m 0,14.45669 v 0.28345 m 0,14.4567 v 0.28348 m 0,14.45669 v 0.28345 m 0,14.45669 v 0.28348 m 0,14.45667 v 0.28347 m 0,14.4567 v 0.28345 m 0,3.69354 v 0 M 149.13629,0 v 7.08661 m 0,7.65355 v 7.08661 m 0,7.65355 v 7.08661 m 0,7.65354 v 7.08661 m 0,7.65355 v 7.08661 m 0,7.65355 v 7.08661 m 0,7.65355 v 7.08661 m 0,7.65355 v 7.08661 m 0,7.65354 v 7.08661 m 0,7.65357 v 7.08661 m 0,7.65353 v 7.08661 m 0,7.65356 v 7.08661"
       style="fill:none;stroke:#000000;stroke-width:0.3685;stroke-linecap:round;stroke-linejoin:round;stroke-miterlimit:10;stroke-dasharray:none;stroke-opacity:1"
       id="path38" /><path
       d="m 149.13629,176.8819 v 7.08661 m 0,7.65353 v 7.08664 m 0,7.65353 v 7.08661 m 0,7.65354 v 7.08664 m 0,7.65353 v 7.08661 m 0,7.65353 v 7.08661 m 0,7.65357 v 0.71713 m 0,-255.26833 v 0.28346 m 0,14.4567 v 0.28346 m 0,14.4567 v 0.28346 m 0,14.4567 v 0.28346 m 0,14.45669 v 0.28347 m 0,14.45669 v 0.28347 m 0,14.45669 v 0.28346 m 0,14.4567 v 0.28346 m 0,14.45671 v 0.28345 m 0,14.45669 v 0.28348 m 0,14.4567 v 0.28345 m 0,14.45669 v 0.28348 m 0,14.45669 v 0.28345 m 0,14.4567 v 0.28348 m 0,14.45669 v 0.28345 m 0,14.45669 v 0.28348 m 0,14.45667 v 0.28347 m 0,14.4567 v 0.28345 m 0,4.40219 v 0 M 220.00244,0 v 7.08661 m 0,7.65355 v 7.08661 m 0,7.65355 v 7.08661 m 0,7.65354 v 7.08661 m 0,7.65355 v 7.08661 m 0,7.65355 v 7.08661 m 0,7.65355 v 7.08661 m 0,7.65355 v 7.08661 m 0,7.65354 v 7.08661 m 0,7.65357 v 7.08661 m 0,7.65353 v 7.08661 m 0,7.65356 v 7.08661 m 0,7.65354 v 7.08661 m 0,7.65353 v 7.08664 m 0,7.65353 v 7.08661 m 0,7.65354 v 7.08664 m 0,7.65353 v 7.08661 m 0,7.65353 v 7.08661 m 0,7.65357 v 0.71713 m 0,-255.26833 v 0.28346 m 0,14.4567 v 0.28346 m 0,14.4567 v 0.28346 m 0,14.4567 v 0.28346 m 0,14.45669 v 0.28347"
       style="fill:none;stroke:#000000;stroke-width:0.3685;stroke-linecap:round;stroke-linejoin:round;stroke-miterlimit:10;stroke-dasharray:none;stroke-opacity:1"
       id="path40" /><path
       d="m 220.00244,84.47244 v 0.28347 m 0,14.45669 v 0.28346 m 0,14.4567 v 0.28346 m 0,14.45671 v 0.28345 m 0,14.45669 v 0.28348 m 0,14.4567 v 0.28345 m 0,14.45669 v 0.28348 m 0,14.45669 v 0.28345 m 0,14.4567 v 0.28348 m 0,14.45669 v 0.28345 m 0,14.45669 v 0.28348 m 0,14.45667 v 0.28347 m 0,14.4567 v 0.28345 m 0,4.40219 v 0"
       style="fill:none;stroke:#000000;stroke-width:0.3685;stroke-linecap:round;stroke-linejoin:round;stroke-miterlimit:10;stroke-dasharray:none;stroke-opacity:1"
       id="path42" /><path
       d="M 382.71109,236.98486 V 10.21321"
       style="fill:none;stroke:#000000;stroke-width:0.99213;stroke-linecap:round;stroke-linejoin:round;stroke-miterlimit:10;stroke-dasharray:none;stroke-opacity:1"
       id="path44" /><path
       d="m 382.71109,10.21321 -6.01318,-6.0132 m 6.01318,6.0132 6.01318,-6.0132 m -12.02636,0 h 12.02636 m -6.01318,62.70612 6.01318,-6.0132 m -6.01318,6.0132 6.01318,6.01318 m 0,-12.02638 v 12.02638 m 2.2313,-14.07355 v 15.87403"
       style="fill:none;stroke:#000000;stroke-width:0.28346;stroke-linecap:round;stroke-linejoin:round;stroke-miterlimit:10;stroke-dasharray:none;stroke-opacity:1"
       id="path46" /><path
       d="m 381.57724,10.21321 v 1.12537 m 0,2.83465 v 4.25197 m 0,2.83464 v 4.25197 m 0,2.83464 v 4.25198 m 0,2.83464 v 4.25197 m 0,2.83464 v 4.25197 m 0,2.83466 v 4.25197 m 0,2.83464 v 4.25197 m 0,2.83464 v 4.25196 m 0,2.83466 v 4.25197 m 0,2.83464 v 4.25197 m 0,2.83464 v 4.25197 m 0,2.83465 v 4.25197 m 0,2.83464 v 4.25197 m 0,2.83464 v 4.25197 m 0,2.83465 v 4.25197 m 0,2.83464 v 4.25197 m 0,2.83464 v 4.25199 m 0,2.83465 v 4.25195 m 0,2.83466 v 4.25195 m 0,2.83466 v 4.25195 m 0,2.83466 v 4.25198 m 0,2.83463 v 4.25198 m 0,2.83463 v 4.25198 m 0,2.83465 v 4.25196 m 0,2.83465 v 4.25196 m 0,2.83465 v 4.25196 m 0,2.83465 v 4.25199 m 0,2.83462 v 4.25198 m 0,2.83463 v 4.25198 m 0,2.83466 v 4.25195 m 0,2.83466 v 4.25195 m 0,2.83466 v 3.12658 m 0,-226.77165 v 0 m 0,226.77165 v 0"
       style="fill:none;stroke:#000000;stroke-width:0.3685;stroke-linecap:round;stroke-linejoin:round;stroke-miterlimit:10;stroke-dasharray:none;stroke-opacity:1"
       id="path48" /><path
       d="M 149.13629,239.11084 V 8.08722 h 70.86615 v 231.02362 z"
       style="fill:#dedede;fill-opacity:1;fill-rule:nonzero;stroke:none"
       id="path50" /><g
       id="g52"><g
         id="g54"
         clip-path="url(#clipPath58)"><text
           transform="matrix(1,0,0,-1,150.91704,224.97128)"
           style="font-style:italic;font-variant:normal;font-weight:normal;font-stretch:normal;font-size:11.0078px;font-family:'Palatino Linotype';-inkscape-font-specification:PalatinoLinotype-Italic;writing-mode:lr-tb;fill:#000000;fill-opacity:1;fill-rule:nonzero;stroke:none"
           id="text62"><tspan
             x="0"
             y="0"
             id="tspan60">W</tspan></text></g></g><g
       id="g64"><g
         id="g66"
         clip-path="url(#clipPath70)"><text
           transform="matrix(1,0,0,-1,162.23953,220.42404)"
           style="font-style:italic;font-variant:normal;font-weight:normal;font-stretch:normal;font-size:6.6047px;font-family:'Palatino Linotype';-inkscape-font-specification:PalatinoLinotype-Italic;writing-mode:lr-tb;fill:#000000;fill-opacity:1;fill-rule:nonzero;stroke:none"
           id="text74"><tspan
             x="0"
             y="0"
             id="tspan72">3</tspan></text></g></g><path
       d="m 61.97095,10.21321 -0.4252,2.97638 h 0.85038 l -0.42518,-2.97638 m 0,56.69292 -0.4252,-2.97638 h 0.85038 l -0.42518,2.97638 -0.4252,2.97638 h 0.85038 l -0.42518,-2.97638 m 0,56.69291 -0.4252,-2.97637 h 0.85038 l -0.42518,2.97637 -0.4252,2.97637 h 0.85038 l -0.42518,-2.97637 m 0,56.69292 -0.4252,-2.97638 h 0.85038 l -0.42518,2.97638 -0.4252,2.97638 h 0.85038 l -0.42518,-2.97638 m 0,56.6929 -0.4252,-2.97638 h 0.85038 l -0.42518,2.97638"
       style="fill:none;stroke:#000000;stroke-width:0.56693;stroke-linecap:round;stroke-linejoin:round;stroke-miterlimit:10;stroke-dasharray:none;stroke-opacity:1"
       id="path76" /><path
       d="m 61.97095,10.21321 h -2.12599 m 2.12599,0 h 2.12597 m -2.12597,56.69292 h -2.12599 m 2.12599,0 h 2.12597 m -2.12597,0 h -2.12599 m 2.12599,0 h 2.12597 m -2.12597,56.69291 h -2.12599 m 2.12599,0 h 2.12597 m -2.12597,0 h -2.12599 m 2.12599,0 h 2.12597 m -2.12597,56.69292 h -2.12599 m 2.12599,0 h 2.12597 m -2.12597,0 h -2.12599 m 2.12599,0 h 2.12597 m -2.12597,56.6929 h -2.12599 m 2.12599,0 h 2.12597 M 61.97095,10.21321 H 73.30952 M 61.97095,66.90613 h 11.33857 m -11.33857,56.69291 h 11.33857 m -11.33857,56.69292 h 11.33857 m -11.33857,56.6929 H 73.30952 M 61.97095,10.21321 v 0 m 0,226.77165 v 0"
       style="fill:none;stroke:#000000;stroke-width:0.28346;stroke-linecap:round;stroke-linejoin:round;stroke-miterlimit:10;stroke-dasharray:none;stroke-opacity:1"
       id="path78" /><g
       id="g80"><g
         id="g82"
         clip-path="url(#clipPath86)"><text
           transform="matrix(0,1,1,0,58.93525,29.73909)"
           style="font-variant:normal;font-weight:normal;font-stretch:normal;font-size:10.0916px;font-family:'Palatino Linotype';-inkscape-font-specification:PalatinoLinotype-Roman;writing-mode:lr-tb;fill:#000000;fill-opacity:1;fill-rule:nonzero;stroke:none"
           id="text90"><tspan
             x="0 5.045805 7.5687075 12.614512"
             y="0"
             id="tspan88">4.00</tspan></text></g></g><g
       id="g92"><g
         id="g94"
         clip-path="url(#clipPath98)"><text
           transform="matrix(0,1,1,0,58.93525,86.43201)"
           style="font-variant:normal;font-weight:normal;font-stretch:normal;font-size:10.0916px;font-family:'Palatino Linotype';-inkscape-font-specification:PalatinoLinotype-Roman;writing-mode:lr-tb;fill:#000000;fill-opacity:1;fill-rule:nonzero;stroke:none"
           id="text102"><tspan
             x="0 5.045805 7.5687075 12.614512"
             y="0"
             id="tspan100">4.00</tspan></text></g></g><g
       id="g104"><g
         id="g106"
         clip-path="url(#clipPath110)"><text
           transform="matrix(0,1,1,0,58.93525,143.12492)"
           style="font-variant:normal;font-weight:normal;font-stretch:normal;font-size:10.0916px;font-family:'Palatino Linotype';-inkscape-font-specification:PalatinoLinotype-Roman;writing-mode:lr-tb;fill:#000000;fill-opacity:1;fill-rule:nonzero;stroke:none"
           id="text114"><tspan
             x="0 5.045805 7.5687075 12.614512"
             y="0"
             id="tspan112">4.00</tspan></text></g></g><g
       id="g116"><g
         id="g118"
         clip-path="url(#clipPath122)"><text
           transform="matrix(0,1,1,0,58.93525,199.81782)"
           style="font-variant:normal;font-weight:normal;font-stretch:normal;font-size:10.0916px;font-family:'Palatino Linotype';-inkscape-font-specification:PalatinoLinotype-Roman;writing-mode:lr-tb;fill:#000000;fill-opacity:1;fill-rule:nonzero;stroke:none"
           id="text126"><tspan
             x="0 5.045805 7.5687075 12.614512"
             y="0"
             id="tspan124">4.00</tspan></text></g></g><path
       d="m 61.97095,10.21321 v 56.69292 56.69291 56.69292 56.6929"
       style="fill:none;stroke:#000000;stroke-width:0.28346;stroke-linecap:round;stroke-linejoin:round;stroke-miterlimit:10;stroke-dasharray:none;stroke-opacity:1"
       id="path128" /><g
       id="g130"><g
         id="g132"
         clip-path="url(#clipPath136)"><text
           transform="matrix(1,0,0,-1,115.49355,33.54321)"
           style="font-style:italic;font-variant:normal;font-weight:normal;font-stretch:normal;font-size:11.0078px;font-family:'Palatino Linotype';-inkscape-font-specification:PalatinoLinotype-Italic;writing-mode:lr-tb;fill:#000000;fill-opacity:1;fill-rule:nonzero;stroke:none"
           id="text140"><tspan
             x="0 8.5640993"
             y="0"
             id="tspan138">UG</tspan></text></g></g><g
       id="g142"><g
         id="g144"
         clip-path="url(#clipPath148)"><text
           transform="matrix(1,0,0,-1,115.49355,90.23612)"
           style="font-style:italic;font-variant:normal;font-weight:normal;font-stretch:normal;font-size:11.0078px;font-family:'Palatino Linotype';-inkscape-font-specification:PalatinoLinotype-Italic;writing-mode:lr-tb;fill:#000000;fill-opacity:1;fill-rule:nonzero;stroke:none"
           id="text152"><tspan
             x="0 6.72579"
             y="0"
             id="tspan150">EG</tspan></text></g></g><g
       id="g154"><g
         id="g156"
         clip-path="url(#clipPath160)"><text
           transform="matrix(1,0,0,-1,115.49355,146.92903)"
           style="font-style:italic;font-variant:normal;font-weight:normal;font-stretch:normal;font-size:11.0078px;font-family:'Palatino Linotype';-inkscape-font-specification:PalatinoLinotype-Italic;writing-mode:lr-tb;fill:#000000;fill-opacity:1;fill-rule:nonzero;stroke:none"
           id="text164"><tspan
             x="0 5.5039201 8.2558804 16.819979"
             y="0"
             id="tspan162">1.OG</tspan></text></g></g><g
       id="g166"><g
         id="g168"
         clip-path="url(#clipPath172)"><text
           transform="matrix(1,0,0,-1,115.49355,203.62195)"
           style="font-style:italic;font-variant:normal;font-weight:normal;font-stretch:normal;font-size:11.0078px;font-family:'Palatino Linotype';-inkscape-font-specification:PalatinoLinotype-Italic;writing-mode:lr-tb;fill:#000000;fill-opacity:1;fill-rule:nonzero;stroke:none"
           id="text176"><tspan
             x="0 5.5039201 8.2558804 16.819979"
             y="0"
             id="tspan174">2.OG</tspan></text></g></g><path
       d="m 78.27016,255.41006 2.97638,0.42521 v -0.85041 l -2.97638,0.4252 m 70.86613,0 -2.97638,0.42521 v -0.85041 l 2.97638,0.4252 2.97638,0.42521 v -0.85041 l -2.97638,0.4252 m 70.86615,0 -2.97638,0.42521 v -0.85041 l 2.97638,0.4252 2.97638,0.42521 v -0.85041 l -2.97638,0.4252 m 70.86612,0 -2.97638,0.42521 v -0.85041 l 2.97638,0.4252"
       style="fill:none;stroke:#000000;stroke-width:0.56693;stroke-linecap:round;stroke-linejoin:round;stroke-miterlimit:10;stroke-dasharray:none;stroke-opacity:1"
       id="path178" /><path
       d="m 78.27016,255.41006 v 2.12598 m 0,-2.12598 v -2.12597 m 70.86613,2.12597 v 2.12598 m 0,-2.12598 v -2.12597 m 0,2.12597 v 2.12598 m 0,-2.12598 v -2.12597 m 70.86615,2.12597 v 2.12598 m 0,-2.12598 v -2.12597 m 0,2.12597 v 2.12598 m 0,-2.12598 v -2.12597 m 70.86612,2.12597 v 2.12598 m 0,-2.12598 v -2.12597 m -212.5984,2.12597 V 241.9455 m 70.86613,13.46456 V 241.9455 m 70.86615,13.46456 V 241.9455 m 70.86612,13.46456 v -15.59054 m -212.5984,15.59054 v 0 m 212.5984,0 v 0"
       style="fill:none;stroke:#000000;stroke-width:0.28346;stroke-linecap:round;stroke-linejoin:round;stroke-miterlimit:10;stroke-dasharray:none;stroke-opacity:1"
       id="path180" /><g
       id="g182"><g
         id="g184"
         clip-path="url(#clipPath188)"><text
           transform="matrix(1,0,0,-1,104.88265,258.44573)"
           style="font-variant:normal;font-weight:normal;font-stretch:normal;font-size:10.0916px;font-family:'Palatino Linotype';-inkscape-font-specification:PalatinoLinotype-Roman;writing-mode:lr-tb;fill:#000000;fill-opacity:1;fill-rule:nonzero;stroke:none"
           id="text192"><tspan
             x="0 5.045805 7.5687075 12.614512"
             y="0"
             id="tspan190">5.00</tspan></text></g></g><g
       id="g194"><g
         id="g196"
         clip-path="url(#clipPath200)"><text
           transform="matrix(1,0,0,-1,175.74879,258.44573)"
           style="font-variant:normal;font-weight:normal;font-stretch:normal;font-size:10.0916px;font-family:'Palatino Linotype';-inkscape-font-specification:PalatinoLinotype-Roman;writing-mode:lr-tb;fill:#000000;fill-opacity:1;fill-rule:nonzero;stroke:none"
           id="text204"><tspan
             x="0 5.045805 7.5687075 12.614512"
             y="0"
             id="tspan202">5.00</tspan></text></g></g><g
       id="g206"><g
         id="g208"
         clip-path="url(#clipPath212)"><text
           transform="matrix(1,0,0,-1,246.61493,258.44573)"
           style="font-variant:normal;font-weight:normal;font-stretch:normal;font-size:10.0916px;font-family:'Palatino Linotype';-inkscape-font-specification:PalatinoLinotype-Roman;writing-mode:lr-tb;fill:#000000;fill-opacity:1;fill-rule:nonzero;stroke:none"
           id="text216"><tspan
             x="0 5.045805 7.5687075 12.614512"
             y="0"
             id="tspan214">5.00</tspan></text></g></g><path
       d="m 78.27016,255.41006 h 22.09449 48.77164 70.86615 70.86612"
       style="fill:none;stroke:#000000;stroke-width:0.28346;stroke-linecap:round;stroke-linejoin:round;stroke-miterlimit:10;stroke-dasharray:none;stroke-opacity:1"
       id="path218" /><path
       d="m 149.13629,239.11084 h 70.86615 V 8.08722 h -70.86615 v 231.02362"
       style="fill:none;stroke:#000000;stroke-width:0.99213;stroke-linecap:round;stroke-linejoin:round;stroke-miterlimit:10;stroke-dasharray:none;stroke-opacity:1"
       id="path220" /></g></svg>
