<?xml version="1.0" encoding="UTF-8" standalone="no"?>
<svg
   xmlns:dc="http://purl.org/dc/elements/1.1/"
   xmlns:cc="http://creativecommons.org/ns#"
   xmlns:rdf="http://www.w3.org/1999/02/22-rdf-syntax-ns#"
   xmlns:svg="http://www.w3.org/2000/svg"
   xmlns="http://www.w3.org/2000/svg"
   version="1.1"
   id="svg2"
   xml:space="preserve"
   width="566.92932"
   height="359.05466"
   viewBox="0 0 566.92932 359.05466"><metadata
     id="metadata8"><rdf:RDF><cc:Work
         rdf:about=""><dc:format>image/svg+xml</dc:format><dc:type
           rdf:resource="http://purl.org/dc/dcmitype/StillImage" /></cc:Work></rdf:RDF></metadata><defs
     id="defs6"><clipPath
       clipPathUnits="userSpaceOnUse"
       id="clipPath84"><path
         d="M -0.00426,-0.00269 V 269.29404 H 425.20111 V -0.00269 H -0.00426"
         clip-rule="evenodd"
         id="path82" /></clipPath><clipPath
       clipPathUnits="userSpaceOnUse"
       id="clipPath96"><path
         d="M -0.00426,-0.00269 V 269.29404 H 425.20111 V -0.00269 H -0.00426"
         clip-rule="evenodd"
         id="path94" /></clipPath><clipPath
       clipPathUnits="userSpaceOnUse"
       id="clipPath108"><path
         d="M -0.00426,-0.00269 V 269.29404 H 425.20111 V -0.00269 H -0.00426"
         clip-rule="evenodd"
         id="path106" /></clipPath><clipPath
       clipPathUnits="userSpaceOnUse"
       id="clipPath120"><path
         d="M -0.00426,-0.00269 V 269.29404 H 425.20111 V -0.00269 H -0.00426"
         clip-rule="evenodd"
         id="path118" /></clipPath><clipPath
       clipPathUnits="userSpaceOnUse"
       id="clipPath132"><path
         d="M -0.00426,-0.00269 V 269.29404 H 425.20111 V -0.00269 H -0.00426"
         clip-rule="evenodd"
         id="path130" /></clipPath><clipPath
       clipPathUnits="userSpaceOnUse"
       id="clipPath150"><path
         d="M -0.00426,-0.00269 V 269.29404 H 425.20111 V -0.00269 H -0.00426"
         clip-rule="evenodd"
         id="path148" /></clipPath><clipPath
       clipPathUnits="userSpaceOnUse"
       id="clipPath162"><path
         d="M -0.00426,-0.00269 V 269.29404 H 425.20111 V -0.00269 H -0.00426"
         clip-rule="evenodd"
         id="path160" /></clipPath><clipPath
       clipPathUnits="userSpaceOnUse"
       id="clipPath174"><path
         d="M -0.00426,-0.00269 V 269.29404 H 425.20111 V -0.00269 H -0.00426"
         clip-rule="evenodd"
         id="path172" /></clipPath><clipPath
       clipPathUnits="userSpaceOnUse"
       id="clipPath192"><path
         d="M -0.00426,-0.00269 V 269.29404 H 425.20111 V -0.00269 H -0.00426"
         clip-rule="evenodd"
         id="path190" /></clipPath><clipPath
       clipPathUnits="userSpaceOnUse"
       id="clipPath210"><path
         d="M -0.00426,-0.00269 V 269.29404 H 425.20111 V -0.00269 H -0.00426"
         clip-rule="evenodd"
         id="path208" /></clipPath><clipPath
       clipPathUnits="userSpaceOnUse"
       id="clipPath224"><path
         d="M -0.00426,-0.00269 V 269.29404 H 425.20111 V -0.00269 H -0.00426"
         clip-rule="evenodd"
         id="path222" /></clipPath><clipPath
       clipPathUnits="userSpaceOnUse"
       id="clipPath236"><path
         d="M -0.00426,-0.00269 V 269.29404 H 425.20111 V -0.00269 H -0.00426"
         clip-rule="evenodd"
         id="path234" /></clipPath><clipPath
       clipPathUnits="userSpaceOnUse"
       id="clipPath248"><path
         d="M -0.00426,-0.00269 V 269.29404 H 425.20111 V -0.00269 H -0.00426"
         clip-rule="evenodd"
         id="path246" /></clipPath><clipPath
       clipPathUnits="userSpaceOnUse"
       id="clipPath260"><path
         d="M -0.00426,-0.00269 V 269.29404 H 425.20111 V -0.00269 H -0.00426"
         clip-rule="evenodd"
         id="path258" /></clipPath><clipPath
       clipPathUnits="userSpaceOnUse"
       id="clipPath272"><path
         d="M -0.00426,-0.00269 V 269.29404 H 425.20111 V -0.00269 H -0.00426"
         clip-rule="evenodd"
         id="path270" /></clipPath><clipPath
       clipPathUnits="userSpaceOnUse"
       id="clipPath284"><path
         d="M -0.00426,-0.00269 V 269.29404 H 425.20111 V -0.00269 H -0.00426"
         clip-rule="evenodd"
         id="path282" /></clipPath><clipPath
       clipPathUnits="userSpaceOnUse"
       id="clipPath296"><path
         d="M -0.00426,-0.00269 V 269.29404 H 425.20111 V -0.00269 H -0.00426"
         clip-rule="evenodd"
         id="path294" /></clipPath><clipPath
       clipPathUnits="userSpaceOnUse"
       id="clipPath308"><path
         d="M -0.00426,-0.00269 V 269.29404 H 425.20111 V -0.00269 H -0.00426"
         clip-rule="evenodd"
         id="path306" /></clipPath><clipPath
       clipPathUnits="userSpaceOnUse"
       id="clipPath320"><path
         d="M -0.00426,-0.00269 V 269.29404 H 425.20111 V -0.00269 H -0.00426"
         clip-rule="evenodd"
         id="path318" /></clipPath><clipPath
       clipPathUnits="userSpaceOnUse"
       id="clipPath332"><path
         d="M -0.00426,-0.00269 V 269.29404 H 425.20111 V -0.00269 H -0.00426"
         clip-rule="evenodd"
         id="path330" /></clipPath><clipPath
       clipPathUnits="userSpaceOnUse"
       id="clipPath344"><path
         d="M -0.00426,-0.00269 V 269.29404 H 425.20111 V -0.00269 H -0.00426"
         clip-rule="evenodd"
         id="path342" /></clipPath><clipPath
       clipPathUnits="userSpaceOnUse"
       id="clipPath356"><path
         d="M -0.00426,-0.00269 V 269.29404 H 425.20111 V -0.00269 H -0.00426"
         clip-rule="evenodd"
         id="path354" /></clipPath><clipPath
       clipPathUnits="userSpaceOnUse"
       id="clipPath368"><path
         d="M -0.00426,-0.00269 V 269.29404 H 425.20111 V -0.00269 H -0.00426"
         clip-rule="evenodd"
         id="path366" /></clipPath></defs><g
     id="g10"
     transform="matrix(1.3333333,0,0,-1.3333333,0,359.05467)"><path
       d="m 44.22047,239.95633 h 7.08661 m 7.65355,0 h 7.08661 m 7.65355,0 h 7.08661 m 7.65355,0 h 7.08661 m 7.65355,0 h 7.08661 m 7.65354,0 h 7.08661 m 7.65357,0 h 7.08661 m 7.65353,0 h 7.08661 m 7.65356,0 h 7.08661 m 7.65354,0 h 7.08661 m 7.65353,0 h 7.08664 m 7.65353,0 h 7.08661 m 7.65354,0 h 7.08664 m 7.65353,0 h 7.08661 m 7.65353,0 h 7.08661 m 7.65357,0 h 7.0866 m 7.65354,0 h 7.08661 m 7.65356,0 h 7.08661 m 7.65353,0 h 7.08661 m 7.65357,0 h 7.08661 m 7.65353,0 h 7.08661 m 7.65356,0 h 7.08661 m 7.65354,0 h 7.08661 m -320.59842,0 h 0.28346 m 14.45669,0 h 0.28347 m 14.45669,0 h 0.28347 m 14.45669,0 h 0.28346 m 14.4567,0 h 0.28346 m 14.45671,0 h 0.28345 m 14.45669,0 h 0.28348 m 14.4567,0 h 0.28345 m 14.45669,0 h 0.28348 m 14.45669,0 h 0.28345 m 14.4567,0 h 0.28348 m 14.45669,0 h 0.28345 m 14.45669,0 h 0.28348 m 14.45667,0 h 0.28347 m 14.4567,0 h 0.28345 m 14.45669,0 h 0.28348 m 14.4567,0 h 0.28344 m 14.4567,0 h 0.28348 m 14.45669,0 h 0.28345 m 14.45669,0 h 0.28348 m 14.4567,0 h 0.28345 m 14.45669,0 h 0.28348 m 14.45669,0 h 0.28345 m -337.03937,0 v 0 m 340.15747,0 v 0 M 44.22047,169.09018 h 7.08661 m 7.65355,0 h 7.08661"
       style="fill:none;stroke:#000000;stroke-width:0.3685;stroke-linecap:round;stroke-linejoin:round;stroke-miterlimit:10;stroke-dasharray:none;stroke-opacity:1"
       id="path12" /><path
       d="m 73.70079,169.09018 h 7.08661 m 7.65355,0 h 7.08661 m 7.65355,0 h 7.08661 m 7.65354,0 h 7.08661 m 7.65357,0 h 7.08661 m 7.65353,0 h 7.08661 m 7.65356,0 h 7.08661 m 7.65354,0 h 7.08661 m 7.65353,0 h 7.08664 m 7.65353,0 h 7.08661 m 7.65354,0 h 7.08664 m 7.65353,0 h 7.08661 m 7.65353,0 h 7.08661 m 7.65357,0 h 7.0866 m 7.65354,0 h 7.08661 m 7.65356,0 h 7.08661 m 7.65353,0 h 7.08661 m 7.65357,0 h 7.08661 m 7.65353,0 h 7.08661 m 7.65356,0 h 7.08661 m 7.65354,0 h 7.08661 m -320.59842,0 h 0.28346 m 14.45669,0 h 0.28347 m 14.45669,0 h 0.28347 m 14.45669,0 h 0.28346 m 14.4567,0 h 0.28346 m 14.45671,0 h 0.28345 m 14.45669,0 h 0.28348 m 14.4567,0 h 0.28345 m 14.45669,0 h 0.28348 m 14.45669,0 h 0.28345 m 14.4567,0 h 0.28348 m 14.45669,0 h 0.28345 m 14.45669,0 h 0.28348 m 14.45667,0 h 0.28347 m 14.4567,0 h 0.28345 m 14.45669,0 h 0.28348 m 14.4567,0 h 0.28344 m 14.4567,0 h 0.28348 m 14.45669,0 h 0.28345 m 14.45669,0 h 0.28348 m 14.4567,0 h 0.28345 m 14.45669,0 h 0.28348 m 14.45669,0 h 0.28345 m -337.03937,0 v 0 m 340.15747,0 v 0 M 44.22047,98.22403 h 7.08661 m 7.65355,0 h 7.08661 m 7.65355,0 h 7.08661 m 7.65355,0 h 7.08661"
       style="fill:none;stroke:#000000;stroke-width:0.3685;stroke-linecap:round;stroke-linejoin:round;stroke-miterlimit:10;stroke-dasharray:none;stroke-opacity:1"
       id="path14" /><path
       d="m 103.18111,98.22403 h 7.08661 m 7.65354,0 h 7.08661 m 7.65357,0 h 7.08661 m 7.65353,0 h 7.08661 m 7.65356,0 h 7.08661 m 7.65354,0 h 7.08661 m 7.65353,0 h 7.08664 m 7.65353,0 h 7.08661 m 7.65354,0 h 7.08664 m 7.65353,0 h 7.08661 m 7.65353,0 h 7.08661 m 7.65357,0 h 7.0866 m 7.65354,0 h 7.08661 m 7.65356,0 h 7.08661 m 7.65353,0 h 7.08661 m 7.65357,0 h 7.08661 m 7.65353,0 h 7.08661 m 7.65356,0 h 7.08661 m 7.65354,0 h 7.08661 m -320.59842,0 h 0.28346 m 14.45669,0 h 0.28347 m 14.45669,0 h 0.28347 m 14.45669,0 h 0.28346 m 14.4567,0 h 0.28346 m 14.45671,0 h 0.28345 m 14.45669,0 h 0.28348 m 14.4567,0 h 0.28345 m 14.45669,0 h 0.28348 m 14.45669,0 h 0.28345 m 14.4567,0 h 0.28348 m 14.45669,0 h 0.28345 m 14.45669,0 h 0.28348 m 14.45667,0 h 0.28347 m 14.4567,0 h 0.28345 m 14.45669,0 h 0.28348 m 14.4567,0 h 0.28344 m 14.4567,0 h 0.28348 m 14.45669,0 h 0.28345 m 14.45669,0 h 0.28348 m 14.4567,0 h 0.28345 m 14.45669,0 h 0.28348 m 14.45669,0 h 0.28345 m -337.03937,0 v 0 m 340.15747,0 v 0 M 44.22047,27.35789 h 7.08661 m 7.65355,0 h 7.08661 m 7.65355,0 h 7.08661 m 7.65355,0 h 7.08661 m 7.65355,0 h 7.08661 m 7.65354,0 h 7.08661"
       style="fill:none;stroke:#000000;stroke-width:0.3685;stroke-linecap:round;stroke-linejoin:round;stroke-miterlimit:10;stroke-dasharray:none;stroke-opacity:1"
       id="path16" /><path
       d="m 132.66144,27.35789 h 7.08661 m 7.65353,0 h 7.08661 m 7.65356,0 h 7.08661 m 7.65354,0 h 7.08661 m 7.65353,0 h 7.08664 m 7.65353,0 h 7.08661 m 7.65354,0 h 7.08664 m 7.65353,0 h 7.08661 m 7.65353,0 h 7.08661 m 7.65357,0 h 7.0866 m 7.65354,0 h 7.08661 m 7.65356,0 h 7.08661 m 7.65353,0 h 7.08661 m 7.65357,0 h 7.08661 m 7.65353,0 h 7.08661 m 7.65356,0 h 7.08661 m 7.65354,0 h 7.08661 m -320.59842,0 h 0.28346 m 14.45669,0 h 0.28347 m 14.45669,0 h 0.28347 m 14.45669,0 h 0.28346 m 14.4567,0 h 0.28346 m 14.45671,0 h 0.28345 m 14.45669,0 h 0.28348 m 14.4567,0 h 0.28345 m 14.45669,0 h 0.28348 m 14.45669,0 h 0.28345 m 14.4567,0 h 0.28348 m 14.45669,0 h 0.28345 m 14.45669,0 h 0.28348 m 14.45667,0 h 0.28347 m 14.4567,0 h 0.28345 m 14.45669,0 h 0.28348 m 14.4567,0 h 0.28344 m 14.4567,0 h 0.28348 m 14.45669,0 h 0.28345 m 14.45669,0 h 0.28348 m 14.4567,0 h 0.28345 m 14.45669,0 h 0.28348 m 14.45669,0 h 0.28345 m -337.03937,0 v 0 m 340.15747,0 v 0 M 70.86615,0 v 7.08661 m 0,7.65355 v 7.08661 m 0,7.65355 v 7.08661 m 0,7.65354 v 7.08661 m 0,7.65355 v 7.08661 m 0,7.65355 v 7.08661 m 0,7.65355 v 7.08661 m 0,7.65355 v 7.08661"
       style="fill:none;stroke:#000000;stroke-width:0.3685;stroke-linecap:round;stroke-linejoin:round;stroke-miterlimit:10;stroke-dasharray:none;stroke-opacity:1"
       id="path18" /><path
       d="m 70.86615,117.92126 v 7.08661 m 0,7.65357 v 7.08661 m 0,7.65353 v 7.08661 m 0,7.65356 v 7.08661 m 0,7.65354 v 7.08661 m 0,7.65353 v 7.08664 m 0,7.65353 v 7.08661 m 0,7.65354 v 7.08664 m 0,7.65353 v 7.08661 m 0,7.65353 v 7.08661 m 0,7.65357 v 0.85394 m 0,-255.40514 v 0.28346 m 0,14.4567 v 0.28346 m 0,14.4567 v 0.28346 m 0,14.4567 v 0.28346 m 0,14.45669 v 0.28347 m 0,14.45669 v 0.28347 m 0,14.45669 v 0.28346 m 0,14.4567 v 0.28346 m 0,14.45671 v 0.28345 m 0,14.45669 v 0.28348 m 0,14.4567 v 0.28345 m 0,14.45669 v 0.28348 m 0,14.45669 v 0.28345 m 0,14.4567 v 0.28348 m 0,14.45669 v 0.28345 m 0,14.45669 v 0.28348 m 0,14.45667 v 0.28347 m 0,14.4567 v 0.28345 m 0,4.539 v 0 M 127.55905,0 v 7.08661 m 0,7.65355 v 7.08661 m 0,7.65355 v 7.08661 m 0,7.65354 v 7.08661 m 0,7.65355 v 7.08661 m 0,7.65355 v 7.08661 m 0,7.65355 v 7.08661 m 0,7.65355 v 7.08661 m 0,7.65354 v 7.08661 m 0,7.65357 v 7.08661 m 0,7.65353 v 7.08661 m 0,7.65356 v 7.08661 m 0,7.65354 v 7.08661 m 0,7.65353 v 7.08664 m 0,7.65353 v 7.08661 m 0,7.65354 v 7.08664 m 0,7.65353 v 7.08661 m 0,7.65353 v 7.08661 m 0,7.65357 v 0.85394 m 0,-255.40514 v 0.28346"
       style="fill:none;stroke:#000000;stroke-width:0.3685;stroke-linecap:round;stroke-linejoin:round;stroke-miterlimit:10;stroke-dasharray:none;stroke-opacity:1"
       id="path20" /><path
       d="m 127.55905,25.51181 v 0.28346 m 0,14.4567 v 0.28346 m 0,14.4567 v 0.28346 m 0,14.45669 v 0.28347 m 0,14.45669 v 0.28347 m 0,14.45669 v 0.28346 m 0,14.4567 v 0.28346 m 0,14.45671 v 0.28345 m 0,14.45669 v 0.28348 m 0,14.4567 v 0.28345 m 0,14.45669 v 0.28348 m 0,14.45669 v 0.28345 m 0,14.4567 v 0.28348 m 0,14.45669 v 0.28345 m 0,14.45669 v 0.28348 m 0,14.45667 v 0.28347 m 0,14.4567 v 0.28345 m 0,4.539 v 0 M 184.25198,0 v 7.08661 m 0,7.65355 v 7.08661 m 0,7.65355 v 7.08661 m 0,7.65354 v 7.08661 m 0,7.65355 v 7.08661 m 0,7.65355 v 7.08661 m 0,7.65355 v 7.08661 m 0,7.65355 v 7.08661 m 0,7.65354 v 7.08661 m 0,7.65357 v 7.08661 m 0,7.65353 v 7.08661 m 0,7.65356 v 7.08661 m 0,7.65354 v 7.08661 m 0,7.65353 v 7.08664 m 0,7.65353 v 7.08661 m 0,7.65354 v 7.08664 m 0,7.65353 v 7.08661 m 0,7.65353 v 7.08661 m 0,7.65357 v 0.85394 m 0,-255.40514 v 0.28346 m 0,14.4567 v 0.28346 m 0,14.4567 v 0.28346 m 0,14.4567 v 0.28346 m 0,14.45669 v 0.28347 m 0,14.45669 v 0.28347 m 0,14.45669 v 0.28346 m 0,14.4567 v 0.28346 m 0,14.45671 v 0.28345 m 0,14.45669 v 0.28348 m 0,14.4567 v 0.28345 m 0,14.45669 v 0.28348 m 0,14.45669 v 0.28345"
       style="fill:none;stroke:#000000;stroke-width:0.3685;stroke-linecap:round;stroke-linejoin:round;stroke-miterlimit:10;stroke-dasharray:none;stroke-opacity:1"
       id="path22" /><path
       d="m 184.25198,202.39371 v 0.28348 m 0,14.45669 v 0.28345 m 0,14.45669 v 0.28348 m 0,14.45667 v 0.28347 m 0,14.4567 v 0.28345 m 0,4.539 v 0 M 240.94489,0 v 7.08661 m 0,7.65355 v 7.08661 m 0,7.65355 v 7.08661 m 0,7.65354 v 7.08661 m 0,7.65355 v 7.08661 m 0,7.65355 v 7.08661 m 0,7.65355 v 7.08661 m 0,7.65355 v 7.08661 m 0,7.65354 v 7.08661 m 0,7.65357 v 7.08661 m 0,7.65353 v 7.08661 m 0,7.65356 v 7.08661 m 0,7.65354 v 7.08661 m 0,7.65353 v 7.08664 m 0,7.65353 v 7.08661 m 0,7.65354 v 7.08664 m 0,7.65353 v 7.08661 m 0,7.65353 v 7.08661 m 0,7.65357 v 0.85394 m 0,-255.40514 v 0.28346 m 0,14.4567 v 0.28346 m 0,14.4567 v 0.28346 m 0,14.4567 v 0.28346 m 0,14.45669 v 0.28347 m 0,14.45669 v 0.28347 m 0,14.45669 v 0.28346 m 0,14.4567 v 0.28346 m 0,14.45671 v 0.28345 m 0,14.45669 v 0.28348 m 0,14.4567 v 0.28345 m 0,14.45669 v 0.28348 m 0,14.45669 v 0.28345 m 0,14.4567 v 0.28348 m 0,14.45669 v 0.28345 m 0,14.45669 v 0.28348 m 0,14.45667 v 0.28347 m 0,14.4567 v 0.28345 m 0,4.539 v 0 M 297.63779,0 v 7.08661 m 0,7.65355 v 7.08661 m 0,7.65355 v 7.08661 m 0,7.65354 v 7.08661 m 0,7.65355 v 7.08661 m 0,7.65355 v 7.08661"
       style="fill:none;stroke:#000000;stroke-width:0.3685;stroke-linecap:round;stroke-linejoin:round;stroke-miterlimit:10;stroke-dasharray:none;stroke-opacity:1"
       id="path24" /><path
       d="m 297.63779,88.44095 v 7.08661 m 0,7.65355 v 7.08661 m 0,7.65354 v 7.08661 m 0,7.65357 v 7.08661 m 0,7.65353 v 7.08661 m 0,7.65356 v 7.08661 m 0,7.65354 v 7.08661 m 0,7.65353 v 7.08664 m 0,7.65353 v 7.08661 m 0,7.65354 v 7.08664 m 0,7.65353 v 7.08661 m 0,7.65353 v 7.08661 m 0,7.65357 v 0.85394 m 0,-255.40514 v 0.28346 m 0,14.4567 v 0.28346 m 0,14.4567 v 0.28346 m 0,14.4567 v 0.28346 m 0,14.45669 v 0.28347 m 0,14.45669 v 0.28347 m 0,14.45669 v 0.28346 m 0,14.4567 v 0.28346 m 0,14.45671 v 0.28345 m 0,14.45669 v 0.28348 m 0,14.4567 v 0.28345 m 0,14.45669 v 0.28348 m 0,14.45669 v 0.28345 m 0,14.4567 v 0.28348 m 0,14.45669 v 0.28345 m 0,14.45669 v 0.28348 m 0,14.45667 v 0.28347 m 0,14.4567 v 0.28345 m 0,4.539 v 0 M 354.33069,0 v 7.08661 m 0,7.65355 v 7.08661 m 0,7.65355 v 7.08661 m 0,7.65354 v 7.08661 m 0,7.65355 v 7.08661 m 0,7.65355 v 7.08661 m 0,7.65355 v 7.08661 m 0,7.65355 v 7.08661 m 0,7.65354 v 7.08661 m 0,7.65357 v 7.08661 m 0,7.65353 v 7.08661 m 0,7.65356 v 7.08661 m 0,7.65354 v 7.08661 m 0,7.65353 v 7.08664 m 0,7.65353 v 7.08661 m 0,7.65354 v 7.08664 m 0,7.65353 v 7.08661 m 0,7.65353 v 7.08661"
       style="fill:none;stroke:#000000;stroke-width:0.3685;stroke-linecap:round;stroke-linejoin:round;stroke-miterlimit:10;stroke-dasharray:none;stroke-opacity:1"
       id="path26" /><path
       d="m 354.33069,265.32285 v 0.85394 m 0,-255.40514 v 0.28346 m 0,14.4567 v 0.28346 m 0,14.4567 v 0.28346 m 0,14.4567 v 0.28346 m 0,14.45669 v 0.28347 m 0,14.45669 v 0.28347 m 0,14.45669 v 0.28346 m 0,14.4567 v 0.28346 m 0,14.45671 v 0.28345 m 0,14.45669 v 0.28348 m 0,14.4567 v 0.28345 m 0,14.45669 v 0.28348 m 0,14.45669 v 0.28345 m 0,14.4567 v 0.28348 m 0,14.45669 v 0.28345 m 0,14.45669 v 0.28348 m 0,14.45667 v 0.28347 m 0,14.4567 v 0.28345 m 0,4.539 v 0"
       style="fill:none;stroke:#000000;stroke-width:0.3685;stroke-linecap:round;stroke-linejoin:round;stroke-miterlimit:10;stroke-dasharray:none;stroke-opacity:1"
       id="path28" /><path
       d="M 68.74016,25.2319 H 356.4567 V 242.08231 H 68.74016 V 25.2319"
       style="fill:none;stroke:#000000;stroke-width:0.70866;stroke-linecap:round;stroke-linejoin:round;stroke-miterlimit:10;stroke-dasharray:none;stroke-opacity:1"
       id="path30" /><path
       d="m 70.86615,27.35789 h 14.17322 m -5.95275,0 h -0.4252 m 6.37795,0 v 0 l -5.95275,0.85039 v -1.70077 l 5.95275,0.85038"
       style="fill:none;stroke:#000000;stroke-width:0.28346;stroke-linecap:round;stroke-linejoin:round;stroke-miterlimit:10;stroke-dasharray:none;stroke-opacity:1"
       id="path32" /><path
       d="m 79.08662,26.50751 5.95275,0.85038 -5.95275,0.85039 z"
       style="fill:#000000;fill-opacity:1;fill-rule:nonzero;stroke:none"
       id="path34" /><path
       d="m 70.86615,27.35789 v 14.17322 m 0,-5.95274 v -0.4252 m 0,6.37794 v 0 l -0.8504,-5.95274 h 1.70079 l -0.85039,5.95274"
       style="fill:none;stroke:#000000;stroke-width:0.28346;stroke-linecap:round;stroke-linejoin:round;stroke-miterlimit:10;stroke-dasharray:none;stroke-opacity:1"
       id="path36" /><path
       d="m 71.71654,35.57837 -0.85039,5.95274 -0.8504,-5.95274 z"
       style="fill:#000000;fill-opacity:1;fill-rule:nonzero;stroke:none"
       id="path38" /><path
       d="M 125.43307,169.09018 V 98.22403 h 4.25199 v 70.86615 z"
       style="fill:#dedede;fill-opacity:1;fill-rule:nonzero;stroke:none"
       id="path40" /><path
       d="m 127.55905,237.83032 h 56.69293 v 4.25199 h -56.69293 z"
       style="fill:#dedede;fill-opacity:1;fill-rule:nonzero;stroke:none"
       id="path42" /><path
       d="m 352.20471,242.08231 v -42.51969 h 4.25199 v 42.51969 z"
       style="fill:#dedede;fill-opacity:1;fill-rule:nonzero;stroke:none"
       id="path44" /><path
       d="m 255.1181,25.2319 h 42.51969 v 4.25197 H 255.1181 Z"
       style="fill:#dedede;fill-opacity:1;fill-rule:nonzero;stroke:none"
       id="path46" /><path
       d="m 72.99213,239.95633 -0.03231,0.36917 -0.0959,0.35794 -0.15661,0.33588 -0.21257,0.30356 -0.26204,0.26202 -0.30356,0.21259 -0.33586,0.15661 -0.35796,0.0959 -0.36917,0.0323 -0.36917,-0.0323 -0.35796,-0.0959 -0.33587,-0.15661 -0.30356,-0.21259 -0.26204,-0.26202 -0.21256,-0.30356 -0.15661,-0.33588 -0.09592,-0.35794 -0.0323,-0.36917 0.0323,-0.3692 0.09592,-0.35794 0.15661,-0.33588 0.21256,-0.30356 0.26204,-0.26202 0.30356,-0.21256 0.33587,-0.15661 0.35796,-0.0959 0.36917,-0.0323 0.36917,0.0323 0.35796,0.0959 0.33586,0.15661 0.30356,0.21256 0.26204,0.26202 0.21257,0.30356 0.15661,0.33588 0.0959,0.35794 z"
       style="fill:#dedede;fill-opacity:1;fill-rule:nonzero;stroke:none"
       id="path48" /><path
       d="m 72.99213,169.09018 -0.03231,0.36917 -0.0959,0.35794 -0.15661,0.33588 -0.21257,0.30356 -0.26204,0.26205 -0.30356,0.21256 -0.33586,0.15661 -0.35796,0.0959 -0.36917,0.0323 -0.36917,-0.0323 -0.35796,-0.0959 -0.33587,-0.15661 -0.30356,-0.21256 -0.26204,-0.26205 -0.21256,-0.30356 -0.15661,-0.33588 -0.09592,-0.35794 -0.0323,-0.36917 0.0323,-0.36917 0.09592,-0.35797 0.15661,-0.33585 0.21256,-0.30356 0.26204,-0.26205 0.30356,-0.21256 0.33587,-0.15661 0.35796,-0.0959 0.36917,-0.0323 0.36917,0.0323 0.35796,0.0959 0.33586,0.15661 0.30356,0.21256 0.26204,0.26205 0.21257,0.30356 0.15661,0.33585 0.0959,0.35797 z"
       style="fill:#dedede;fill-opacity:1;fill-rule:nonzero;stroke:none"
       id="path50" /><path
       d="m 72.99213,98.22403 -0.03231,0.36917 -0.0959,0.35796 -0.15661,0.33586 -0.21257,0.30357 -0.26204,0.26204 -0.30356,0.21256 -0.33586,0.15661 -0.35796,0.0959 -0.36917,0.0323 -0.36917,-0.0323 -0.35796,-0.0959 -0.33587,-0.15661 -0.30356,-0.21256 -0.26204,-0.26204 -0.21256,-0.30357 -0.15661,-0.33586 -0.09592,-0.35796 -0.0323,-0.36917 0.0323,-0.36917 0.09592,-0.35796 0.15661,-0.33586 0.21256,-0.30357 0.26204,-0.26204 0.30356,-0.21256 0.33587,-0.15661 0.35796,-0.09592 0.36917,-0.03229 0.36917,0.03229 0.35796,0.09592 0.33586,0.15661 0.30356,0.21256 0.26204,0.26204 0.21257,0.30357 0.15661,0.33586 0.0959,0.35796 z"
       style="fill:#dedede;fill-opacity:1;fill-rule:nonzero;stroke:none"
       id="path52" /><path
       d="m 72.99213,27.35789 -0.03231,0.36918 -0.0959,0.35795 -0.15661,0.33586 -0.21257,0.30356 -0.26204,0.26204 -0.30356,0.21257 -0.33586,0.15662 -0.35796,0.0959 -0.36917,0.0323 -0.36917,-0.0323 -0.35796,-0.0959 -0.33587,-0.15662 -0.30356,-0.21257 -0.26204,-0.26204 -0.21256,-0.30356 -0.15661,-0.33586 -0.09592,-0.35795 -0.0323,-0.36918 0.0323,-0.36918 0.09592,-0.35796 0.15661,-0.33586 0.21256,-0.30356 0.26204,-0.26204 0.30356,-0.21255 0.33587,-0.15662 0.35796,-0.09591 0.36917,-0.03231 0.36917,0.03231 0.35796,0.09591 0.33586,0.15662 0.30356,0.21255 0.26204,0.26204 0.21257,0.30356 0.15661,0.33586 0.0959,0.35796 z"
       style="fill:#dedede;fill-opacity:1;fill-rule:nonzero;stroke:none"
       id="path54" /><path
       d="m 129.68506,27.35789 -0.0323,0.36918 -0.0959,0.35795 -0.15661,0.33586 -0.21256,0.30356 -0.26202,0.26204 -0.30359,0.21257 -0.33585,0.15662 -0.35795,0.0959 -0.36919,0.0323 -0.36917,-0.0323 -0.35796,-0.0959 -0.33586,-0.15662 -0.30356,-0.21257 -0.26203,-0.26204 -0.21257,-0.30356 -0.15662,-0.33586 -0.0959,-0.35795 -0.0323,-0.36918 0.0323,-0.36918 0.0959,-0.35796 0.15662,-0.33586 0.21257,-0.30356 0.26203,-0.26204 0.30356,-0.21255 0.33586,-0.15662 0.35796,-0.09591 0.36917,-0.03231 0.36919,0.03231 0.35795,0.09591 0.33585,0.15662 0.30359,0.21255 0.26202,0.26204 0.21256,0.30356 0.15661,0.33586 0.0959,0.35796 z"
       style="fill:#dedede;fill-opacity:1;fill-rule:nonzero;stroke:none"
       id="path56" /><path
       d="m 186.37796,27.35789 -0.0323,0.36918 -0.0959,0.35795 -0.15662,0.33586 -0.21256,0.30356 -0.26205,0.26204 -0.30356,0.21257 -0.33587,0.15662 -0.35795,0.0959 -0.36917,0.0323 -0.36917,-0.0323 -0.35797,-0.0959 -0.33584,-0.15662 -0.30359,-0.21257 -0.26203,-0.26204 -0.21255,-0.30356 -0.15662,-0.33586 -0.0959,-0.35795 -0.0323,-0.36918 0.0323,-0.36918 0.0959,-0.35796 0.15662,-0.33586 0.21255,-0.30356 0.26203,-0.26204 0.30359,-0.21255 0.33584,-0.15662 0.35797,-0.09591 0.36917,-0.03231 0.36917,0.03231 0.35795,0.09591 0.33587,0.15662 0.30356,0.21255 0.26205,0.26204 0.21256,0.30356 0.15662,0.33586 0.0959,0.35796 z"
       style="fill:#dedede;fill-opacity:1;fill-rule:nonzero;stroke:none"
       id="path58" /><path
       d="m 299.76376,98.22403 -0.0323,0.36917 -0.0959,0.35796 -0.15662,0.33586 -0.21255,0.30357 -0.26206,0.26204 -0.30355,0.21256 -0.33585,0.15661 -0.35797,0.0959 -0.36917,0.0323 -0.36917,-0.0323 -0.35794,-0.0959 -0.33588,-0.15661 -0.30356,-0.21256 -0.26205,-0.26204 -0.21256,-0.30357 -0.15662,-0.33586 -0.0959,-0.35796 -0.0323,-0.36917 0.0323,-0.36917 0.0959,-0.35796 0.15662,-0.33586 0.21256,-0.30357 0.26205,-0.26204 0.30356,-0.21256 0.33588,-0.15661 0.35794,-0.09592 0.36917,-0.03229 0.36917,0.03229 0.35797,0.09592 0.33585,0.15661 0.30355,0.21256 0.26206,0.26204 0.21255,0.30357 0.15662,0.33586 0.0959,0.35796 z"
       style="fill:#dedede;fill-opacity:1;fill-rule:nonzero;stroke:none"
       id="path60" /><path
       d="m 356.4567,27.35789 -0.0323,0.36918 -0.0959,0.35795 -0.15662,0.33586 -0.21255,0.30356 -0.26202,0.26204 -0.30356,0.21257 -0.33588,0.15662 -0.35794,0.0959 -0.3692,0.0323 -0.36917,-0.0323 -0.35794,-0.0959 -0.33588,-0.15662 -0.30356,-0.21257 -0.26202,-0.26204 -0.21259,-0.30356 -0.15661,-0.33586 -0.0959,-0.35795 -0.0323,-0.36918 0.0323,-0.36918 0.0959,-0.35796 0.15661,-0.33586 0.21259,-0.30356 0.26202,-0.26204 0.30356,-0.21255 0.33588,-0.15662 0.35794,-0.09591 0.36917,-0.03231 0.3692,0.03231 0.35794,0.09591 0.33588,0.15662 0.30356,0.21255 0.26202,0.26204 0.21255,0.30356 0.15662,0.33586 0.0959,0.35796 z"
       style="fill:#dedede;fill-opacity:1;fill-rule:nonzero;stroke:none"
       id="path62" /><path
       d="m 356.4567,98.22403 -0.0323,0.36917 -0.0959,0.35796 -0.15662,0.33586 -0.21255,0.30357 -0.26202,0.26204 -0.30356,0.21256 -0.33588,0.15661 -0.35794,0.0959 -0.3692,0.0323 -0.36917,-0.0323 -0.35794,-0.0959 -0.33588,-0.15661 -0.30356,-0.21256 -0.26202,-0.26204 -0.21259,-0.30357 -0.15661,-0.33586 -0.0959,-0.35796 -0.0323,-0.36917 0.0323,-0.36917 0.0959,-0.35796 0.15661,-0.33586 0.21259,-0.30357 0.26202,-0.26204 0.30356,-0.21256 0.33588,-0.15661 0.35794,-0.09592 0.36917,-0.03229 0.3692,0.03229 0.35794,0.09592 0.33588,0.15661 0.30356,0.21256 0.26202,0.26204 0.21255,0.30357 0.15662,0.33586 0.0959,0.35796 z"
       style="fill:#dedede;fill-opacity:1;fill-rule:nonzero;stroke:none"
       id="path64" /><path
       d="m 299.76376,169.09018 -0.0323,0.36917 -0.0959,0.35794 -0.15662,0.33588 -0.21255,0.30356 -0.26206,0.26205 -0.30355,0.21256 -0.33585,0.15661 -0.35797,0.0959 -0.36917,0.0323 -0.36917,-0.0323 -0.35794,-0.0959 -0.33588,-0.15661 -0.30356,-0.21256 -0.26205,-0.26205 -0.21256,-0.30356 -0.15662,-0.33588 -0.0959,-0.35794 -0.0323,-0.36917 0.0323,-0.36917 0.0959,-0.35797 0.15662,-0.33585 0.21256,-0.30356 0.26205,-0.26205 0.30356,-0.21256 0.33588,-0.15661 0.35794,-0.0959 0.36917,-0.0323 0.36917,0.0323 0.35797,0.0959 0.33585,0.15661 0.30355,0.21256 0.26206,0.26205 0.21255,0.30356 0.15662,0.33585 0.0959,0.35797 z"
       style="fill:#dedede;fill-opacity:1;fill-rule:nonzero;stroke:none"
       id="path66" /><path
       d="m 356.4567,169.09018 -0.0323,0.36917 -0.0959,0.35794 -0.15662,0.33588 -0.21255,0.30356 -0.26202,0.26205 -0.30356,0.21256 -0.33588,0.15661 -0.35794,0.0959 -0.3692,0.0323 -0.36917,-0.0323 -0.35794,-0.0959 -0.33588,-0.15661 -0.30356,-0.21256 -0.26202,-0.26205 -0.21259,-0.30356 -0.15661,-0.33588 -0.0959,-0.35794 -0.0323,-0.36917 0.0323,-0.36917 0.0959,-0.35797 0.15661,-0.33585 0.21259,-0.30356 0.26202,-0.26205 0.30356,-0.21256 0.33588,-0.15661 0.35794,-0.0959 0.36917,-0.0323 0.3692,0.0323 0.35794,0.0959 0.33588,0.15661 0.30356,0.21256 0.26202,0.26205 0.21255,0.30356 0.15662,0.33585 0.0959,0.35797 z"
       style="fill:#dedede;fill-opacity:1;fill-rule:nonzero;stroke:none"
       id="path68" /><path
       d="m 299.76376,239.95633 -0.0323,0.36917 -0.0959,0.35794 -0.15662,0.33588 -0.21255,0.30356 -0.26206,0.26202 -0.30355,0.21259 -0.33585,0.15661 -0.35797,0.0959 -0.36917,0.0323 -0.36917,-0.0323 -0.35794,-0.0959 -0.33588,-0.15661 -0.30356,-0.21259 -0.26205,-0.26202 -0.21256,-0.30356 -0.15662,-0.33588 -0.0959,-0.35794 -0.0323,-0.36917 0.0323,-0.3692 0.0959,-0.35794 0.15662,-0.33588 0.21256,-0.30356 0.26205,-0.26202 0.30356,-0.21256 0.33588,-0.15661 0.35794,-0.0959 0.36917,-0.0323 0.36917,0.0323 0.35797,0.0959 0.33585,0.15661 0.30355,0.21256 0.26206,0.26202 0.21255,0.30356 0.15662,0.33588 0.0959,0.35794 z"
       style="fill:#dedede;fill-opacity:1;fill-rule:nonzero;stroke:none"
       id="path70" /><path
       d="m 243.07086,239.95633 -0.0323,0.36917 -0.0959,0.35794 -0.15662,0.33588 -0.21255,0.30356 -0.26206,0.26202 -0.30356,0.21259 -0.33584,0.15661 -0.35797,0.0959 -0.36917,0.0323 -0.36918,-0.0323 -0.35797,-0.0959 -0.33584,-0.15661 -0.30356,-0.21259 -0.26206,-0.26202 -0.21255,-0.30356 -0.15662,-0.33588 -0.0959,-0.35794 -0.0323,-0.36917 0.0323,-0.3692 0.0959,-0.35794 0.15662,-0.33588 0.21255,-0.30356 0.26206,-0.26202 0.30356,-0.21256 0.33584,-0.15661 0.35797,-0.0959 0.36918,-0.0323 0.36917,0.0323 0.35797,0.0959 0.33584,0.15661 0.30356,0.21256 0.26206,0.26202 0.21255,0.30356 0.15662,0.33588 0.0959,0.35794 z"
       style="fill:#dedede;fill-opacity:1;fill-rule:nonzero;stroke:none"
       id="path72" /><path
       d="m 70.86615,256.25552 2.97638,0.42521 v -0.85041 l -2.97638,0.4252 m 56.6929,0 -2.97638,0.42521 v -0.85041 l 2.97638,0.4252 2.97638,0.42521 v -0.85041 l -2.97638,0.4252 m 56.69293,0 -2.97638,0.42521 v -0.85041 l 2.97638,0.4252 2.97638,0.42521 v -0.85041 l -2.97638,0.4252 m 56.69291,0 -2.97638,0.42521 v -0.85041 l 2.97638,0.4252 2.97637,0.42521 v -0.85041 l -2.97637,0.4252 m 56.6929,0 -2.97638,0.42521 v -0.85041 l 2.97638,0.4252 2.97638,0.42521 v -0.85041 l -2.97638,0.4252 m 56.6929,0 -2.97638,0.42521 v -0.85041 l 2.97638,0.4252"
       style="fill:none;stroke:#000000;stroke-width:0.56693;stroke-linecap:round;stroke-linejoin:round;stroke-miterlimit:10;stroke-dasharray:none;stroke-opacity:1"
       id="path74" /><path
       d="m 70.86615,256.25552 v 2.12598 m 0,-2.12598 v -2.12597 m 56.6929,2.12597 v 2.12598 m 0,-2.12598 v -2.12597 m 0,2.12597 v 2.12598 m 0,-2.12598 v -2.12597 m 56.69293,2.12597 v 2.12598 m 0,-2.12598 v -2.12597 m 0,2.12597 v 2.12598 m 0,-2.12598 v -2.12597 m 56.69291,2.12597 v 2.12598 m 0,-2.12598 v -2.12597 m 0,2.12597 v 2.12598 m 0,-2.12598 v -2.12597 m 56.6929,2.12597 v 2.12598 m 0,-2.12598 v -2.12597 m 0,2.12597 v 2.12598 m 0,-2.12598 v -2.12597 m 56.6929,2.12597 v 2.12598 m 0,-2.12598 v -2.12597 m -283.46454,2.12597 v -11.33859 m 56.6929,11.33859 v -11.33859 m 56.69293,11.33859 v -11.33859 m 56.69291,11.33859 v -11.33859 m 56.6929,11.33859 v -11.33859 m 56.6929,11.33859 V 244.91693 M 70.86615,256.25552 v 0 m 283.46454,0 v 0"
       style="fill:none;stroke:#000000;stroke-width:0.28346;stroke-linecap:round;stroke-linejoin:round;stroke-miterlimit:10;stroke-dasharray:none;stroke-opacity:1"
       id="path76" /><g
       id="g78"><g
         id="g80"
         clip-path="url(#clipPath84)"><text
           transform="matrix(1,0,0,-1,90.39203,259.29121)"
           style="font-variant:normal;font-weight:normal;font-stretch:normal;font-size:10.0916px;font-family:'Palatino Linotype';-inkscape-font-specification:PalatinoLinotype-Roman;writing-mode:lr-tb;fill:#000000;fill-opacity:1;fill-rule:nonzero;stroke:none"
           id="text88"><tspan
             x="0 5.045805 7.5687075 12.614512"
             y="0"
             id="tspan86">4.00</tspan></text></g></g><g
       id="g90"><g
         id="g92"
         clip-path="url(#clipPath96)"><text
           transform="matrix(1,0,0,-1,147.08494,259.29121)"
           style="font-variant:normal;font-weight:normal;font-stretch:normal;font-size:10.0916px;font-family:'Palatino Linotype';-inkscape-font-specification:PalatinoLinotype-Roman;writing-mode:lr-tb;fill:#000000;fill-opacity:1;fill-rule:nonzero;stroke:none"
           id="text100"><tspan
             x="0 5.045805 7.5687075 12.614512"
             y="0"
             id="tspan98">4.00</tspan></text></g></g><g
       id="g102"><g
         id="g104"
         clip-path="url(#clipPath108)"><text
           transform="matrix(1,0,0,-1,203.77785,259.29121)"
           style="font-variant:normal;font-weight:normal;font-stretch:normal;font-size:10.0916px;font-family:'Palatino Linotype';-inkscape-font-specification:PalatinoLinotype-Roman;writing-mode:lr-tb;fill:#000000;fill-opacity:1;fill-rule:nonzero;stroke:none"
           id="text112"><tspan
             x="0 5.045805 7.5687075 12.614512"
             y="0"
             id="tspan110">4.00</tspan></text></g></g><g
       id="g114"><g
         id="g116"
         clip-path="url(#clipPath120)"><text
           transform="matrix(1,0,0,-1,260.47077,259.29121)"
           style="font-variant:normal;font-weight:normal;font-stretch:normal;font-size:10.0916px;font-family:'Palatino Linotype';-inkscape-font-specification:PalatinoLinotype-Roman;writing-mode:lr-tb;fill:#000000;fill-opacity:1;fill-rule:nonzero;stroke:none"
           id="text124"><tspan
             x="0 5.045805 7.5687075 12.614512"
             y="0"
             id="tspan122">4.00</tspan></text></g></g><g
       id="g126"><g
         id="g128"
         clip-path="url(#clipPath132)"><text
           transform="matrix(1,0,0,-1,317.16368,259.29121)"
           style="font-variant:normal;font-weight:normal;font-stretch:normal;font-size:10.0916px;font-family:'Palatino Linotype';-inkscape-font-specification:PalatinoLinotype-Roman;writing-mode:lr-tb;fill:#000000;fill-opacity:1;fill-rule:nonzero;stroke:none"
           id="text136"><tspan
             x="0 5.045805 7.5687075 12.614512"
             y="0"
             id="tspan134">4.00</tspan></text></g></g><path
       d="m 70.86615,256.25552 h 15.14998 41.54292 56.69293 56.69291 56.6929 56.6929"
       style="fill:none;stroke:#000000;stroke-width:0.28346;stroke-linecap:round;stroke-linejoin:round;stroke-miterlimit:10;stroke-dasharray:none;stroke-opacity:1"
       id="path138" /><path
       d="m 54.56693,27.35789 -0.42519,2.97637 h 0.85039 l -0.4252,-2.97637 m 0,70.86614 -0.42519,-2.97638 h 0.85039 l -0.4252,2.97638 -0.42519,2.97638 h 0.85039 l -0.4252,-2.97638 m 0,70.86615 -0.42519,-2.97638 h 0.85039 l -0.4252,2.97638 -0.42519,2.97638 h 0.85039 l -0.4252,-2.97638 m 0,70.86615 -0.42519,-2.97638 h 0.85039 l -0.4252,2.97638"
       style="fill:none;stroke:#000000;stroke-width:0.56693;stroke-linecap:round;stroke-linejoin:round;stroke-miterlimit:10;stroke-dasharray:none;stroke-opacity:1"
       id="path140" /><path
       d="m 54.56693,27.35789 h -2.12598 m 2.12598,0 h 2.12599 m -2.12599,70.86614 h -2.12598 m 2.12598,0 h 2.12599 m -2.12599,0 h -2.12598 m 2.12598,0 h 2.12599 m -2.12599,70.86615 h -2.12598 m 2.12598,0 h 2.12599 m -2.12599,0 h -2.12598 m 2.12598,0 h 2.12599 m -2.12599,70.86615 h -2.12598 m 2.12598,0 h 2.12599 M 54.56693,27.35789 H 65.90552 M 54.56693,98.22403 H 65.90552 M 54.56693,169.09018 H 65.90552 M 54.56693,239.95633 H 65.90552 M 54.56693,27.35789 v 0 m 0,212.59844 v 0"
       style="fill:none;stroke:#000000;stroke-width:0.28346;stroke-linecap:round;stroke-linejoin:round;stroke-miterlimit:10;stroke-dasharray:none;stroke-opacity:1"
       id="path142" /><g
       id="g144"><g
         id="g146"
         clip-path="url(#clipPath150)"><text
           transform="matrix(0,1,1,0,51.53124,53.97039)"
           style="font-variant:normal;font-weight:normal;font-stretch:normal;font-size:10.0916px;font-family:'Palatino Linotype';-inkscape-font-specification:PalatinoLinotype-Roman;writing-mode:lr-tb;fill:#000000;fill-opacity:1;fill-rule:nonzero;stroke:none"
           id="text154"><tspan
             x="0 5.045805 7.5687075 12.614512"
             y="0"
             id="tspan152">5.00</tspan></text></g></g><g
       id="g156"><g
         id="g158"
         clip-path="url(#clipPath162)"><text
           transform="matrix(0,1,1,0,51.53124,124.83652)"
           style="font-variant:normal;font-weight:normal;font-stretch:normal;font-size:10.0916px;font-family:'Palatino Linotype';-inkscape-font-specification:PalatinoLinotype-Roman;writing-mode:lr-tb;fill:#000000;fill-opacity:1;fill-rule:nonzero;stroke:none"
           id="text166"><tspan
             x="0 5.045805 7.5687075 12.614512"
             y="0"
             id="tspan164">5.00</tspan></text></g></g><g
       id="g168"><g
         id="g170"
         clip-path="url(#clipPath174)"><text
           transform="matrix(0,1,1,0,51.53124,195.70266)"
           style="font-variant:normal;font-weight:normal;font-stretch:normal;font-size:10.0916px;font-family:'Palatino Linotype';-inkscape-font-specification:PalatinoLinotype-Roman;writing-mode:lr-tb;fill:#000000;fill-opacity:1;fill-rule:nonzero;stroke:none"
           id="text178"><tspan
             x="0 5.045805 7.5687075 12.614512"
             y="0"
             id="tspan176">5.00</tspan></text></g></g><path
       d="m 54.56693,27.35789 v 70.86614 70.86615 70.86615"
       style="fill:none;stroke:#000000;stroke-width:0.28346;stroke-linecap:round;stroke-linejoin:round;stroke-miterlimit:10;stroke-dasharray:none;stroke-opacity:1"
       id="path180" /><path
       d="m 255.1181,41.53111 2.97638,0.4252 v -0.85038 l -2.97638,0.42518 m 42.51969,0 -2.97638,0.4252 v -0.85038 l 2.97638,0.42518"
       style="fill:none;stroke:#000000;stroke-width:0.56693;stroke-linecap:round;stroke-linejoin:round;stroke-miterlimit:10;stroke-dasharray:none;stroke-opacity:1"
       id="path182" /><path
       d="m 255.1181,41.53111 v 2.12599 m 0,-2.12599 v -2.12597 m 42.51969,2.12597 v 2.12599 m 0,-2.12599 v -2.12597 m -42.51969,2.12597 v -0.07696 -9.13564 m 42.51969,9.2126 v -9.2126 m -42.51969,9.2126 v 0 m 42.51969,0 v 0"
       style="fill:none;stroke:#000000;stroke-width:0.28346;stroke-linecap:round;stroke-linejoin:round;stroke-miterlimit:10;stroke-dasharray:none;stroke-opacity:1"
       id="path184" /><g
       id="g186"><g
         id="g188"
         clip-path="url(#clipPath192)"><text
           transform="matrix(1,0,0,-1,267.55738,44.5668)"
           style="font-variant:normal;font-weight:normal;font-stretch:normal;font-size:10.0916px;font-family:'Palatino Linotype';-inkscape-font-specification:PalatinoLinotype-Roman;writing-mode:lr-tb;fill:#000000;fill-opacity:1;fill-rule:nonzero;stroke:none"
           id="text196"><tspan
             x="0 5.045805 7.5687075 12.614512"
             y="0"
             id="tspan194">3.00</tspan></text></g></g><path
       d="m 255.1181,41.53111 h 42.51969"
       style="fill:none;stroke:#000000;stroke-width:0.28346;stroke-linecap:round;stroke-linejoin:round;stroke-miterlimit:10;stroke-dasharray:none;stroke-opacity:1"
       id="path198" /><path
       d="m 338.03149,199.56262 -0.4252,2.97638 h 0.85041 l -0.42521,-2.97638 m 0,42.51969 -0.4252,-2.97638 h 0.85041 l -0.42521,2.97638"
       style="fill:none;stroke:#000000;stroke-width:0.56693;stroke-linecap:round;stroke-linejoin:round;stroke-miterlimit:10;stroke-dasharray:none;stroke-opacity:1"
       id="path200" /><path
       d="m 338.03149,199.56262 h -2.12597 m 2.12597,0 h 2.12598 m -2.12598,42.51969 h -2.12597 m 2.12597,0 h 2.12598 m -2.12598,-42.51969 h 11.3386 m -11.3386,42.51969 h 11.3386 m -11.3386,-42.51969 v 0 m 0,42.51969 v 0"
       style="fill:none;stroke:#000000;stroke-width:0.28346;stroke-linecap:round;stroke-linejoin:round;stroke-miterlimit:10;stroke-dasharray:none;stroke-opacity:1"
       id="path202" /><g
       id="g204"><g
         id="g206"
         clip-path="url(#clipPath210)"><text
           transform="matrix(0,1,1,0,334.99581,212.00188)"
           style="font-variant:normal;font-weight:normal;font-stretch:normal;font-size:10.0916px;font-family:'Palatino Linotype';-inkscape-font-specification:PalatinoLinotype-Roman;writing-mode:lr-tb;fill:#000000;fill-opacity:1;fill-rule:nonzero;stroke:none"
           id="text214"><tspan
             x="0 5.045805 7.5687075 12.614512"
             y="0"
             id="tspan212">3.00</tspan></text></g></g><path
       d="m 338.03149,199.56262 v 42.51969"
       style="fill:none;stroke:#000000;stroke-width:0.28346;stroke-linecap:round;stroke-linejoin:round;stroke-miterlimit:10;stroke-dasharray:none;stroke-opacity:1"
       id="path216" /><g
       id="g218"><g
         id="g220"
         clip-path="url(#clipPath224)"><text
           transform="matrix(1,0,0,-1,65.14961,17.22403)"
           style="font-style:italic;font-variant:normal;font-weight:normal;font-stretch:normal;font-size:11.0078px;font-family:'Palatino Linotype';-inkscape-font-specification:PalatinoLinotype-Italic;writing-mode:lr-tb;fill:#000000;fill-opacity:1;fill-rule:nonzero;stroke:none"
           id="text228"><tspan
             x="0"
             y="0"
             id="tspan226">z</tspan></text></g></g><g
       id="g230"><g
         id="g232"
         clip-path="url(#clipPath236)"><text
           transform="matrix(1,0,0,-1,61.65354,45.52558)"
           style="font-style:italic;font-variant:normal;font-weight:normal;font-stretch:normal;font-size:11.0078px;font-family:'Palatino Linotype';-inkscape-font-specification:PalatinoLinotype-Italic;writing-mode:lr-tb;fill:#000000;fill-opacity:1;fill-rule:nonzero;stroke:none"
           id="text240"><tspan
             x="0"
             y="0"
             id="tspan238">y</tspan></text></g></g><g
       id="g242"><g
         id="g244"
         clip-path="url(#clipPath248)"><text
           transform="matrix(1,0,0,-1,87.45922,18.83038)"
           style="font-style:italic;font-variant:normal;font-weight:normal;font-stretch:normal;font-size:11.0078px;font-family:'Palatino Linotype';-inkscape-font-specification:PalatinoLinotype-Italic;writing-mode:lr-tb;fill:#000000;fill-opacity:1;fill-rule:nonzero;stroke:none"
           id="text252"><tspan
             x="0"
             y="0"
             id="tspan250">x</tspan></text></g></g><g
       id="g254"><g
         id="g256"
         clip-path="url(#clipPath260)"><text
           transform="matrix(1,0,0,-1,74.50187,5.55657)"
           style="font-variant:normal;font-weight:normal;font-stretch:normal;font-size:11.1008px;font-family:'Palatino Linotype';-inkscape-font-specification:PalatinoLinotype-Roman;writing-mode:lr-tb;fill:#000000;fill-opacity:1;fill-rule:nonzero;stroke:none"
           id="text264"><tspan
             x="0 3.6965563 13.498536"
             y="0"
             id="tspan262">[m]</tspan></text></g></g><g
       id="g266"><g
         id="g268"
         clip-path="url(#clipPath272)"><text
           transform="matrix(1,0,0,-1,216.19457,139.27828)"
           style="font-style:italic;font-variant:normal;font-weight:normal;font-stretch:normal;font-size:11.0078px;font-family:'Palatino Linotype';-inkscape-font-specification:PalatinoLinotype-Italic;writing-mode:lr-tb;fill:#000000;fill-opacity:1;fill-rule:nonzero;stroke:none"
           id="text276"><tspan
             x="0"
             y="0"
             id="tspan274">M</tspan></text></g></g><g
       id="g278"><g
         id="g280"
         clip-path="url(#clipPath284)"><text
           transform="matrix(1,0,0,-1,134.22047,129.56458)"
           style="font-style:italic;font-variant:normal;font-weight:normal;font-stretch:normal;font-size:11.0078px;font-family:'Palatino Linotype';-inkscape-font-specification:PalatinoLinotype-Italic;writing-mode:lr-tb;fill:#000000;fill-opacity:1;fill-rule:nonzero;stroke:none"
           id="text288"><tspan
             x="0"
             y="0"
             id="tspan286">W</tspan></text></g></g><g
       id="g290"><g
         id="g292"
         clip-path="url(#clipPath296)"><text
           transform="matrix(1,0,0,-1,145.54297,125.01733)"
           style="font-style:italic;font-variant:normal;font-weight:normal;font-stretch:normal;font-size:6.6047px;font-family:'Palatino Linotype';-inkscape-font-specification:PalatinoLinotype-Italic;writing-mode:lr-tb;fill:#000000;fill-opacity:1;fill-rule:nonzero;stroke:none"
           id="text300"><tspan
             x="0"
             y="0"
             id="tspan298">3</tspan></text></g></g><g
       id="g302"><g
         id="g304"
         clip-path="url(#clipPath308)"><text
           transform="matrix(1,0,0,-1,148.44516,226.07543)"
           style="font-style:italic;font-variant:normal;font-weight:normal;font-stretch:normal;font-size:11.0078px;font-family:'Palatino Linotype';-inkscape-font-specification:PalatinoLinotype-Italic;writing-mode:lr-tb;fill:#000000;fill-opacity:1;fill-rule:nonzero;stroke:none"
           id="text312"><tspan
             x="0"
             y="0"
             id="tspan310">W</tspan></text></g></g><g
       id="g314"><g
         id="g316"
         clip-path="url(#clipPath320)"><text
           transform="matrix(1,0,0,-1,159.76766,221.52817)"
           style="font-style:italic;font-variant:normal;font-weight:normal;font-stretch:normal;font-size:6.6047px;font-family:'Palatino Linotype';-inkscape-font-specification:PalatinoLinotype-Italic;writing-mode:lr-tb;fill:#000000;fill-opacity:1;fill-rule:nonzero;stroke:none"
           id="text324"><tspan
             x="0"
             y="0"
             id="tspan322">1</tspan></text></g></g><g
       id="g326"><g
         id="g328"
         clip-path="url(#clipPath332)"><text
           transform="matrix(1,0,0,-1,360.99212,216.72993)"
           style="font-style:italic;font-variant:normal;font-weight:normal;font-stretch:normal;font-size:11.0078px;font-family:'Palatino Linotype';-inkscape-font-specification:PalatinoLinotype-Italic;writing-mode:lr-tb;fill:#000000;fill-opacity:1;fill-rule:nonzero;stroke:none"
           id="text336"><tspan
             x="0"
             y="0"
             id="tspan334">W</tspan></text></g></g><g
       id="g338"><g
         id="g340"
         clip-path="url(#clipPath344)"><text
           transform="matrix(1,0,0,-1,372.31464,212.1827)"
           style="font-style:italic;font-variant:normal;font-weight:normal;font-stretch:normal;font-size:6.6047px;font-family:'Palatino Linotype';-inkscape-font-specification:PalatinoLinotype-Italic;writing-mode:lr-tb;fill:#000000;fill-opacity:1;fill-rule:nonzero;stroke:none"
           id="text348"><tspan
             x="0"
             y="0"
             id="tspan346">4</tspan></text></g></g><g
       id="g350"><g
         id="g352"
         clip-path="url(#clipPath356)"><text
           transform="matrix(1,0,0,-1,268.78677,13.26475)"
           style="font-style:italic;font-variant:normal;font-weight:normal;font-stretch:normal;font-size:11.0078px;font-family:'Palatino Linotype';-inkscape-font-specification:PalatinoLinotype-Italic;writing-mode:lr-tb;fill:#000000;fill-opacity:1;fill-rule:nonzero;stroke:none"
           id="text360"><tspan
             x="0"
             y="0"
             id="tspan358">W</tspan></text></g></g><g
       id="g362"><g
         id="g364"
         clip-path="url(#clipPath368)"><text
           transform="matrix(1,0,0,-1,280.10928,8.71751)"
           style="font-style:italic;font-variant:normal;font-weight:normal;font-stretch:normal;font-size:6.6047px;font-family:'Palatino Linotype';-inkscape-font-specification:PalatinoLinotype-Italic;writing-mode:lr-tb;fill:#000000;fill-opacity:1;fill-rule:nonzero;stroke:none"
           id="text372"><tspan
             x="0"
             y="0"
             id="tspan370">2</tspan></text></g></g><path
       d="m 127.55905,237.83032 h 56.69293 v 4.25199 h -56.69293 v -4.25199 M 255.1181,25.2319 h 42.51969 v 4.25197 H 255.1181 V 25.2319 m 97.08661,216.85041 v -42.51969 h 4.25199 v 42.51969 h -4.25199 M 125.43307,169.09018 V 98.22403 h 4.25199 v 70.86615 h -4.25199"
       style="fill:none;stroke:#000000;stroke-width:0.99213;stroke-linecap:round;stroke-linejoin:round;stroke-miterlimit:10;stroke-dasharray:none;stroke-opacity:1"
       id="path374" /><path
       d="m 72.99213,239.95633 c 0,1.17413 -0.95183,2.12598 -2.12598,2.12598 m 0,0 c -1.17415,0 -2.12599,-0.95185 -2.12599,-2.12598 m 0,0 c 0,-1.17416 0.95184,-2.12601 2.12599,-2.12601 m 0,0 c 1.17415,0 2.12598,0.95185 2.12598,2.12601"
       style="fill:none;stroke:#000000;stroke-width:0.99213;stroke-linecap:round;stroke-linejoin:round;stroke-miterlimit:10;stroke-dasharray:none;stroke-opacity:1"
       id="path376" /><path
       d="m 243.07086,239.95633 c 0,1.17413 -0.95184,2.12598 -2.12597,2.12598 m 0,0 c -1.17417,0 -2.12598,-0.95185 -2.12598,-2.12598 m 0,0 c 0,-1.17416 0.95181,-2.12601 2.12598,-2.12601 m 0,0 c 1.17413,0 2.12597,0.95185 2.12597,2.12601"
       style="fill:none;stroke:#000000;stroke-width:0.99213;stroke-linecap:round;stroke-linejoin:round;stroke-miterlimit:10;stroke-dasharray:none;stroke-opacity:1"
       id="path378" /><path
       d="m 299.76376,239.95633 c 0,1.17413 -0.95181,2.12598 -2.12597,2.12598 m 0,0 c -1.17414,0 -2.12598,-0.95185 -2.12598,-2.12598 m 0,0 c 0,-1.17416 0.95184,-2.12601 2.12598,-2.12601 m 0,0 c 1.17416,0 2.12597,0.95185 2.12597,2.12601"
       style="fill:none;stroke:#000000;stroke-width:0.99213;stroke-linecap:round;stroke-linejoin:round;stroke-miterlimit:10;stroke-dasharray:none;stroke-opacity:1"
       id="path380" /><path
       d="m 299.76376,169.09018 c 0,1.17413 -0.95181,2.12598 -2.12597,2.12598 m 0,0 c -1.17414,0 -2.12598,-0.95185 -2.12598,-2.12598 m 0,0 c 0,-1.17416 0.95184,-2.12598 2.12598,-2.12598 m 0,0 c 1.17416,0 2.12597,0.95182 2.12597,2.12598"
       style="fill:none;stroke:#000000;stroke-width:0.99213;stroke-linecap:round;stroke-linejoin:round;stroke-miterlimit:10;stroke-dasharray:none;stroke-opacity:1"
       id="path382" /><path
       d="m 299.76376,98.22403 c 0,1.17415 -0.95181,2.12599 -2.12597,2.12599 m 0,0 c -1.17414,0 -2.12598,-0.95184 -2.12598,-2.12599 m 0,0 c 0,-1.17415 0.95184,-2.12598 2.12598,-2.12598 m 0,0 c 1.17416,0 2.12597,0.95183 2.12597,2.12598"
       style="fill:none;stroke:#000000;stroke-width:0.99213;stroke-linecap:round;stroke-linejoin:round;stroke-miterlimit:10;stroke-dasharray:none;stroke-opacity:1"
       id="path384" /><path
       d="m 356.4567,169.09018 c 0,1.17413 -0.95185,2.12598 -2.12601,2.12598 m 0,0 c -1.17413,0 -2.12598,-0.95185 -2.12598,-2.12598 m 0,0 c 0,-1.17416 0.95185,-2.12598 2.12598,-2.12598 m 0,0 c 1.17416,0 2.12601,0.95182 2.12601,2.12598"
       style="fill:none;stroke:#000000;stroke-width:0.99213;stroke-linecap:round;stroke-linejoin:round;stroke-miterlimit:10;stroke-dasharray:none;stroke-opacity:1"
       id="path386" /><path
       d="m 356.4567,98.22403 c 0,1.17415 -0.95185,2.12599 -2.12601,2.12599 m 0,0 c -1.17413,0 -2.12598,-0.95184 -2.12598,-2.12599 m 0,0 c 0,-1.17415 0.95185,-2.12598 2.12598,-2.12598 m 0,0 c 1.17416,0 2.12601,0.95183 2.12601,2.12598"
       style="fill:none;stroke:#000000;stroke-width:0.99213;stroke-linecap:round;stroke-linejoin:round;stroke-miterlimit:10;stroke-dasharray:none;stroke-opacity:1"
       id="path388" /><path
       d="m 356.4567,27.35789 c 0,1.17415 -0.95185,2.12598 -2.12601,2.12598 m 0,0 c -1.17413,0 -2.12598,-0.95183 -2.12598,-2.12598 m 0,0 c 0,-1.17414 0.95185,-2.12599 2.12598,-2.12599 m 0,0 c 1.17416,0 2.12601,0.95185 2.12601,2.12599"
       style="fill:none;stroke:#000000;stroke-width:0.99213;stroke-linecap:round;stroke-linejoin:round;stroke-miterlimit:10;stroke-dasharray:none;stroke-opacity:1"
       id="path390" /><path
       d="m 186.37796,27.35789 c 0,1.17415 -0.95184,2.12598 -2.12598,2.12598 m 0,0 c -1.17416,0 -2.126,-0.95183 -2.126,-2.12598 m 0,0 c 0,-1.17414 0.95184,-2.12599 2.126,-2.12599 m 0,0 c 1.17414,0 2.12598,0.95185 2.12598,2.12599"
       style="fill:none;stroke:#000000;stroke-width:0.99213;stroke-linecap:round;stroke-linejoin:round;stroke-miterlimit:10;stroke-dasharray:none;stroke-opacity:1"
       id="path392" /><path
       d="m 129.68506,27.35789 c 0,1.17415 -0.95184,2.12598 -2.12601,2.12598 m 0,0 c -1.17415,0 -2.12598,-0.95183 -2.12598,-2.12598 m 0,0 c 0,-1.17414 0.95183,-2.12599 2.12598,-2.12599 m 0,0 c 1.17417,0 2.12601,0.95185 2.12601,2.12599"
       style="fill:none;stroke:#000000;stroke-width:0.99213;stroke-linecap:round;stroke-linejoin:round;stroke-miterlimit:10;stroke-dasharray:none;stroke-opacity:1"
       id="path394" /><path
       d="m 72.99213,27.35789 c 0,1.17415 -0.95183,2.12598 -2.12598,2.12598 m 0,0 c -1.17415,0 -2.12599,-0.95183 -2.12599,-2.12598 m 0,0 c 0,-1.17414 0.95184,-2.12599 2.12599,-2.12599 m 0,0 c 1.17415,0 2.12598,0.95185 2.12598,2.12599"
       style="fill:none;stroke:#000000;stroke-width:0.99213;stroke-linecap:round;stroke-linejoin:round;stroke-miterlimit:10;stroke-dasharray:none;stroke-opacity:1"
       id="path396" /><path
       d="m 72.99213,98.22403 c 0,1.17415 -0.95183,2.12599 -2.12598,2.12599 m 0,0 c -1.17415,0 -2.12599,-0.95184 -2.12599,-2.12599 m 0,0 c 0,-1.17415 0.95184,-2.12598 2.12599,-2.12598 m 0,0 c 1.17415,0 2.12598,0.95183 2.12598,2.12598"
       style="fill:none;stroke:#000000;stroke-width:0.99213;stroke-linecap:round;stroke-linejoin:round;stroke-miterlimit:10;stroke-dasharray:none;stroke-opacity:1"
       id="path398" /><path
       d="m 72.99213,169.09018 c 0,1.17413 -0.95183,2.12598 -2.12598,2.12598 m 0,0 c -1.17415,0 -2.12599,-0.95185 -2.12599,-2.12598 m 0,0 c 0,-1.17416 0.95184,-2.12598 2.12599,-2.12598 m 0,0 c 1.17415,0 2.12598,0.95182 2.12598,2.12598"
       style="fill:none;stroke:#000000;stroke-width:0.99213;stroke-linecap:round;stroke-linejoin:round;stroke-miterlimit:10;stroke-dasharray:none;stroke-opacity:1"
       id="path400" /><path
       d="m 70.86615,27.35789 v 0"
       style="fill:none;stroke:#000000;stroke-width:0.28346;stroke-linecap:round;stroke-linejoin:round;stroke-miterlimit:10;stroke-dasharray:none;stroke-opacity:1"
       id="path402" /><path
       d="m 69.44882,27.35789 c 0,-0.78277 0.63455,-1.41732 1.41733,-1.41732 m 0,0 c 0.78276,0 1.41731,0.63455 1.41731,1.41732 m 0,0 c 0,0.78277 -0.63455,1.41732 -1.41731,1.41732 m 0,0 c -0.78278,0 -1.41733,-0.63455 -1.41733,-1.41732"
       style="fill:none;stroke:#000000;stroke-width:0.28346;stroke-linecap:round;stroke-linejoin:round;stroke-miterlimit:10;stroke-dasharray:none;stroke-opacity:1"
       id="path404" /><path
       d="m 211.18109,133.6571 c 0,-0.78277 0.63458,-1.41732 1.41733,-1.41732 m 0,0 c 0.78278,0 1.41733,0.63455 1.41733,1.41732 m 0,0 c 0,0.78278 -0.63455,1.41733 -1.41733,1.41733 m 0,0 c -0.78275,0 -1.41733,-0.63455 -1.41733,-1.41733"
       style="fill:none;stroke:#000000;stroke-width:0.28346;stroke-linecap:round;stroke-linejoin:round;stroke-miterlimit:10;stroke-dasharray:none;stroke-opacity:1"
       id="path406" /></g></svg>
