<?xml version="1.0" encoding="UTF-8" standalone="no"?>
<svg
   xmlns:dc="http://purl.org/dc/elements/1.1/"
   xmlns:cc="http://creativecommons.org/ns#"
   xmlns:rdf="http://www.w3.org/1999/02/22-rdf-syntax-ns#"
   xmlns:svg="http://www.w3.org/2000/svg"
   xmlns="http://www.w3.org/2000/svg"
   version="1.1"
   id="svg2"
   xml:space="preserve"
   width="566.92932"
   height="264.56668"
   viewBox="0 0 566.92932 264.56668"><metadata
     id="metadata8"><rdf:RDF><cc:Work
         rdf:about=""><dc:format>image/svg+xml</dc:format><dc:type
           rdf:resource="http://purl.org/dc/dcmitype/StillImage" /></cc:Work></rdf:RDF></metadata><defs
     id="defs6"><clipPath
       clipPathUnits="userSpaceOnUse"
       id="clipPath48"><path
         d="M 149.17197,198.42719 V -0.00198 H 256.64359 V 198.42719 H 149.17197"
         clip-rule="evenodd"
         id="path46" /></clipPath><clipPath
       clipPathUnits="userSpaceOnUse"
       id="clipPath60"><path
         d="M 149.17197,198.42719 V -0.00198 H 256.64359 V 198.42719 H 149.17197"
         clip-rule="evenodd"
         id="path58" /></clipPath><clipPath
       clipPathUnits="userSpaceOnUse"
       id="clipPath72"><path
         d="M 149.17197,198.42719 V -0.00198 H 256.64359 V 198.42719 H 149.17197"
         clip-rule="evenodd"
         id="path70" /></clipPath><clipPath
       clipPathUnits="userSpaceOnUse"
       id="clipPath84"><path
         d="M 149.17197,198.42719 V -0.00198 H 256.64359 V 198.42719 H 149.17197"
         clip-rule="evenodd"
         id="path82" /></clipPath><clipPath
       clipPathUnits="userSpaceOnUse"
       id="clipPath96"><path
         d="M 149.17197,198.42719 V -0.00198 H 256.64359 V 198.42719 H 149.17197"
         clip-rule="evenodd"
         id="path94" /></clipPath><clipPath
       clipPathUnits="userSpaceOnUse"
       id="clipPath108"><path
         d="M 149.17197,198.42719 V -0.00198 H 256.64359 V 198.42719 H 149.17197"
         clip-rule="evenodd"
         id="path106" /></clipPath><clipPath
       clipPathUnits="userSpaceOnUse"
       id="clipPath120"><path
         d="M 149.17197,198.42719 V -0.00198 H 256.64359 V 198.42719 H 149.17197"
         clip-rule="evenodd"
         id="path118" /></clipPath><clipPath
       clipPathUnits="userSpaceOnUse"
       id="clipPath132"><path
         d="M 149.17197,198.42719 V -0.00198 H 256.64359 V 198.42719 H 149.17197"
         clip-rule="evenodd"
         id="path130" /></clipPath><clipPath
       clipPathUnits="userSpaceOnUse"
       id="clipPath144"><path
         d="M 149.17197,198.42719 V -0.00198 H 256.64359 V 198.42719 H 149.17197"
         clip-rule="evenodd"
         id="path142" /></clipPath><clipPath
       clipPathUnits="userSpaceOnUse"
       id="clipPath156"><path
         d="M 149.17197,198.42719 V -0.00198 H 256.64359 V 198.42719 H 149.17197"
         clip-rule="evenodd"
         id="path154" /></clipPath><clipPath
       clipPathUnits="userSpaceOnUse"
       id="clipPath168"><path
         d="M 149.17197,198.42719 V -0.00198 H 256.64359 V 198.42719 H 149.17197"
         clip-rule="evenodd"
         id="path166" /></clipPath><clipPath
       clipPathUnits="userSpaceOnUse"
       id="clipPath180"><path
         d="M 149.17197,198.42719 V -0.00198 H 256.64359 V 198.42719 H 149.17197"
         clip-rule="evenodd"
         id="path178" /></clipPath><clipPath
       clipPathUnits="userSpaceOnUse"
       id="clipPath192"><path
         d="M 149.17197,198.42719 V -0.00198 H 256.64359 V 198.42719 H 149.17197"
         clip-rule="evenodd"
         id="path190" /></clipPath><clipPath
       clipPathUnits="userSpaceOnUse"
       id="clipPath204"><path
         d="M 149.17197,198.42719 V -0.00198 H 256.64359 V 198.42719 H 149.17197"
         clip-rule="evenodd"
         id="path202" /></clipPath><clipPath
       clipPathUnits="userSpaceOnUse"
       id="clipPath216"><path
         d="M 149.17197,198.42719 V -0.00198 H 256.64359 V 198.42719 H 149.17197"
         clip-rule="evenodd"
         id="path214" /></clipPath></defs><g
     id="g10"
     transform="matrix(1.3333333,0,0,-1.3333333,0,264.56667)"><path
       d="m 213.54984,11.8181 5.66928,5.6693 m 14.37469,-5.6693 0.2796,0.27962 m -28.34646,1.71949 3.67019,3.67019 m 14.37467,-5.6693 5.66928,5.6693"
       style="fill:none;stroke:#000000;stroke-width:0.3685;stroke-linecap:round;stroke-linejoin:round;stroke-miterlimit:10;stroke-dasharray:none;stroke-opacity:1"
       id="path12" /><path
       d="m 205.52695,17.4874 h 28.34646 m -14.17321,0 v 55.84251"
       style="fill:none;stroke:#000000;stroke-width:0.99213;stroke-linecap:round;stroke-linejoin:round;stroke-miterlimit:10;stroke-dasharray:none;stroke-opacity:1"
       id="path14" /><path
       d="m 218.56635,17.4874 v 0.9378 m 0,2.83464 v 4.25197 m 0,2.83464 v 4.25198 m 0,2.83464 v 4.25197 m 0,2.83464 v 4.25197 m 0,2.83466 v 4.25197 m 0,2.83464 v 4.25197 m 0,2.83464 v 4.25196 m 0,2.83466 v 1.61337 m 0,-54.99212 v 0 m 0,54.99212 v 0"
       style="fill:none;stroke:#000000;stroke-width:0.3685;stroke-linecap:round;stroke-linejoin:round;stroke-miterlimit:10;stroke-dasharray:none;stroke-opacity:1"
       id="path16" /><path
       d="M 219.7002,130.87323 V 73.32991"
       style="fill:none;stroke:#000000;stroke-width:0.99213;stroke-linecap:round;stroke-linejoin:round;stroke-miterlimit:10;stroke-dasharray:none;stroke-opacity:1"
       id="path18" /><path
       d="m 218.56635,74.1803 v 0.93782 m 0,2.83464 v 4.25197 m 0,2.83464 v 4.25197 m 0,2.83465 v 4.25197 m 0,2.83464 v 4.25197 m 0,2.83464 v 4.25197 m 0,2.83465 v 4.25197 m 0,2.83464 v 4.25197 m 0,2.83464 v 3.31418 m 0,-56.69293 v 0 m 0,56.69293 v 0"
       style="fill:none;stroke:#000000;stroke-width:0.3685;stroke-linecap:round;stroke-linejoin:round;stroke-miterlimit:10;stroke-dasharray:none;stroke-opacity:1"
       id="path20" /><path
       d="m 219.7002,187.56613 v -56.6929"
       style="fill:none;stroke:#000000;stroke-width:0.99213;stroke-linecap:round;stroke-linejoin:round;stroke-miterlimit:10;stroke-dasharray:none;stroke-opacity:1"
       id="path22" /><path
       d="m 218.56635,131.7236 v 0.0874 m 0,2.83465 v 4.25195 m 0,2.83466 v 4.25195 m 0,2.83466 v 4.25195 m 0,2.83466 v 4.25198 m 0,2.83463 v 4.25198 m 0,2.83463 v 4.25198 m 0,2.83465 v 4.25196 m 0,2.83465 v 3.31415 m 0,-55.84253 v 0 m 0,55.84253 v 0"
       style="fill:none;stroke:#000000;stroke-width:0.3685;stroke-linecap:round;stroke-linejoin:round;stroke-miterlimit:10;stroke-dasharray:none;stroke-opacity:1"
       id="path24" /><path
       d="m 173.63721,17.4874 v 0 h 14.17321 m -5.95275,0 h -0.42521 m 6.37796,0 v 0 l -5.95275,0.85038 v -1.70077 l 5.95275,0.85039"
       style="fill:none;stroke:#000000;stroke-width:0.28346;stroke-linecap:round;stroke-linejoin:round;stroke-miterlimit:10;stroke-dasharray:none;stroke-opacity:1"
       id="path26" /><path
       d="m 181.85767,16.63701 5.95275,0.85039 -5.95275,0.85038 z"
       style="fill:#000000;fill-opacity:1;fill-rule:nonzero;stroke:none"
       id="path28" /><path
       d="m 172.21988,17.4874 c 0,-0.78278 0.63455,-1.41733 1.41733,-1.41733 m 0,0 c 0.78274,0 1.41732,0.63455 1.41732,1.41733 m 0,0 c 0,0.78276 -0.63458,1.41731 -1.41732,1.41731 m 0,0 c -0.78278,0 -1.41733,-0.63455 -1.41733,-1.41731"
       style="fill:none;stroke:#000000;stroke-width:0.28346;stroke-linecap:round;stroke-linejoin:round;stroke-miterlimit:10;stroke-dasharray:none;stroke-opacity:1"
       id="path30" /><path
       d="m 173.63721,17.4874 v 14.17321 m 0,-5.95275 v -0.42519 m 0,6.37794 v 0 l -0.85041,-5.95275 h 1.70078 l -0.85037,5.95275"
       style="fill:none;stroke:#000000;stroke-width:0.28346;stroke-linecap:round;stroke-linejoin:round;stroke-miterlimit:10;stroke-dasharray:none;stroke-opacity:1"
       id="path32" /><path
       d="m 174.48758,25.70786 -0.85037,5.95275 -0.85041,-5.95275 z"
       style="fill:#000000;fill-opacity:1;fill-rule:nonzero;stroke:none"
       id="path34" /><path
       d="m 224.60992,76.16455 -0.5668,0.80951 -0.69879,0.69878 -0.80951,0.56681 -0.89563,0.41765 -0.95453,0.25577 -0.98446,0.08614 -0.98447,-0.08614 -0.95456,-0.25577 -0.89563,-0.41765 -0.80951,-0.56681 -0.69876,-0.69878 -0.56683,-0.80951 -0.41764,-0.89563 -0.25577,-0.95454 -0.0862,-0.98447 0.0862,-0.98447 0.25577,-0.95454 0.41764,-0.89563 0.56683,-0.80951 0.69876,-0.69878 0.80951,-0.56681 0.89563,-0.41765 0.95456,-0.25577 0.98447,-0.08614 0.98446,0.08614 0.95453,0.25577 0.89563,0.41765 0.80951,0.56681 0.69879,0.69878 0.5668,0.80951 0.41767,0.89563 0.25577,0.95454 0.0861,0.98447 -0.0861,0.98447 -0.25577,0.95454 z"
       style="fill:#dedede;fill-opacity:1;fill-rule:nonzero;stroke:none"
       id="path36" /><path
       d="m 224.60992,133.70786 -0.5668,0.8095 -0.69879,0.6988 -0.80951,0.5668 -0.89563,0.41766 -0.95453,0.25577 -0.98446,0.0861 -0.98447,-0.0861 -0.95456,-0.25577 -0.89563,-0.41766 -0.80951,-0.5668 -0.69876,-0.6988 -0.56683,-0.8095 -0.41764,-0.89563 -0.25577,-0.95453 -0.0862,-0.98447 0.0862,-0.98447 0.25577,-0.95456 0.41764,-0.89563 0.56683,-0.80951 0.69876,-0.69877 0.80951,-0.56682 0.89563,-0.41765 0.95456,-0.25577 0.98447,-0.0861 0.98446,0.0861 0.95453,0.25577 0.89563,0.41765 0.80951,0.56682 0.69879,0.69877 0.5668,0.80951 0.41767,0.89563 0.25577,0.95456 0.0861,0.98447 -0.0861,0.98447 -0.25577,0.95453 z"
       style="fill:#dedede;fill-opacity:1;fill-rule:nonzero;stroke:none"
       id="path38" /><path
       d="m 224.60992,190.40079 -0.5668,0.80951 -0.69879,0.69876 -0.80951,0.56683 -0.89563,0.41763 -0.95453,0.25577 -0.98446,0.0861 -0.98447,-0.0861 -0.95456,-0.25577 -0.89563,-0.41763 -0.80951,-0.56683 -0.69876,-0.69876 -0.56683,-0.80951 -0.41764,-0.89563 -0.25577,-0.95456 -0.0862,-0.98447 0.0862,-0.98446 0.25577,-0.95456 0.41764,-0.89563 0.56683,-0.80948 0.69876,-0.69879 0.80951,-0.56684 0.89563,-0.41763 0.95456,-0.25577 0.98447,-0.0861 0.98446,0.0861 0.95453,0.25577 0.89563,0.41763 0.80951,0.56684 0.69879,0.69879 0.5668,0.80948 0.41767,0.89563 0.25577,0.95456 0.0861,0.98446 -0.0861,0.98447 -0.25577,0.95456 z"
       style="fill:#dedede;fill-opacity:1;fill-rule:nonzero;stroke:none"
       id="path40" /><g
       id="g42"><g
         id="g44"
         clip-path="url(#clipPath48)"><text
           transform="matrix(1,0,0,-1,195.50768,98.37281)"
           style="font-style:italic;font-variant:normal;font-weight:normal;font-stretch:normal;font-size:11.0078px;font-family:'Palatino Linotype';-inkscape-font-specification:PalatinoLinotype-Italic;writing-mode:lr-tb;fill:#000000;fill-opacity:1;fill-rule:nonzero;stroke:none"
           id="text52"><tspan
             x="0"
             y="0"
             id="tspan50">k</tspan></text></g></g><g
       id="g54"><g
         id="g56"
         clip-path="url(#clipPath60)"><text
           transform="matrix(1,0,0,-1,201.80473,93.82558)"
           style="font-style:italic;font-variant:normal;font-weight:normal;font-stretch:normal;font-size:6.6047px;font-family:'Palatino Linotype';-inkscape-font-specification:PalatinoLinotype-Italic;writing-mode:lr-tb;fill:#000000;fill-opacity:1;fill-rule:nonzero;stroke:none"
           id="text64"><tspan
             x="0"
             y="0"
             id="tspan62">2</tspan></text></g></g><g
       id="g66"><g
         id="g68"
         clip-path="url(#clipPath72)"><text
           transform="matrix(1,0,0,-1,195.50768,41.67991)"
           style="font-style:italic;font-variant:normal;font-weight:normal;font-stretch:normal;font-size:11.0078px;font-family:'Palatino Linotype';-inkscape-font-specification:PalatinoLinotype-Italic;writing-mode:lr-tb;fill:#000000;fill-opacity:1;fill-rule:nonzero;stroke:none"
           id="text76"><tspan
             x="0"
             y="0"
             id="tspan74">k</tspan></text></g></g><g
       id="g78"><g
         id="g80"
         clip-path="url(#clipPath84)"><text
           transform="matrix(1,0,0,-1,201.80473,37.13266)"
           style="font-style:italic;font-variant:normal;font-weight:normal;font-stretch:normal;font-size:6.6047px;font-family:'Palatino Linotype';-inkscape-font-specification:PalatinoLinotype-Italic;writing-mode:lr-tb;fill:#000000;fill-opacity:1;fill-rule:nonzero;stroke:none"
           id="text88"><tspan
             x="0"
             y="0"
             id="tspan86">1</tspan></text></g></g><g
       id="g90"><g
         id="g92"
         clip-path="url(#clipPath96)"><text
           transform="matrix(1,0,0,-1,195.59864,155.39999)"
           style="font-style:italic;font-variant:normal;font-weight:normal;font-stretch:normal;font-size:11.0078px;font-family:'Palatino Linotype';-inkscape-font-specification:PalatinoLinotype-Italic;writing-mode:lr-tb;fill:#000000;fill-opacity:1;fill-rule:nonzero;stroke:none"
           id="text100"><tspan
             x="0"
             y="0"
             id="tspan98">k</tspan></text></g></g><g
       id="g102"><g
         id="g104"
         clip-path="url(#clipPath108)"><text
           transform="matrix(1,0,0,-1,201.89567,150.85274)"
           style="font-style:italic;font-variant:normal;font-weight:normal;font-stretch:normal;font-size:6.6047px;font-family:'Palatino Linotype';-inkscape-font-specification:PalatinoLinotype-Italic;writing-mode:lr-tb;fill:#000000;fill-opacity:1;fill-rule:nonzero;stroke:none"
           id="text112"><tspan
             x="0"
             y="0"
             id="tspan110">3</tspan></text></g></g><g
       id="g114"><g
         id="g116"
         clip-path="url(#clipPath120)"><text
           transform="matrix(1,0,0,-1,197.31633,74.3661)"
           style="font-style:italic;font-variant:normal;font-weight:normal;font-stretch:normal;font-size:11.0078px;font-family:'Palatino Linotype';-inkscape-font-specification:PalatinoLinotype-Italic;writing-mode:lr-tb;fill:#000000;fill-opacity:1;fill-rule:nonzero;stroke:none"
           id="text124"><tspan
             x="0"
             y="0"
             id="tspan122">m</tspan></text></g></g><g
       id="g126"><g
         id="g128"
         clip-path="url(#clipPath132)"><text
           transform="matrix(1,0,0,-1,207.31199,69.81886)"
           style="font-style:italic;font-variant:normal;font-weight:normal;font-stretch:normal;font-size:6.6047px;font-family:'Palatino Linotype';-inkscape-font-specification:PalatinoLinotype-Italic;writing-mode:lr-tb;fill:#000000;fill-opacity:1;fill-rule:nonzero;stroke:none"
           id="text136"><tspan
             x="0"
             y="0"
             id="tspan134">1</tspan></text></g></g><g
       id="g138"><g
         id="g140"
         clip-path="url(#clipPath144)"><text
           transform="matrix(1,0,0,-1,197.31633,131.9094)"
           style="font-style:italic;font-variant:normal;font-weight:normal;font-stretch:normal;font-size:11.0078px;font-family:'Palatino Linotype';-inkscape-font-specification:PalatinoLinotype-Italic;writing-mode:lr-tb;fill:#000000;fill-opacity:1;fill-rule:nonzero;stroke:none"
           id="text148"><tspan
             x="0"
             y="0"
             id="tspan146">m</tspan></text></g></g><g
       id="g150"><g
         id="g152"
         clip-path="url(#clipPath156)"><text
           transform="matrix(1,0,0,-1,207.31199,127.36217)"
           style="font-style:italic;font-variant:normal;font-weight:normal;font-stretch:normal;font-size:6.6047px;font-family:'Palatino Linotype';-inkscape-font-specification:PalatinoLinotype-Italic;writing-mode:lr-tb;fill:#000000;fill-opacity:1;fill-rule:nonzero;stroke:none"
           id="text160"><tspan
             x="0"
             y="0"
             id="tspan158">2</tspan></text></g></g><g
       id="g162"><g
         id="g164"
         clip-path="url(#clipPath168)"><text
           transform="matrix(1,0,0,-1,197.31633,188.60232)"
           style="font-style:italic;font-variant:normal;font-weight:normal;font-stretch:normal;font-size:11.0078px;font-family:'Palatino Linotype';-inkscape-font-specification:PalatinoLinotype-Italic;writing-mode:lr-tb;fill:#000000;fill-opacity:1;fill-rule:nonzero;stroke:none"
           id="text172"><tspan
             x="0"
             y="0"
             id="tspan170">m</tspan></text></g></g><g
       id="g174"><g
         id="g176"
         clip-path="url(#clipPath180)"><text
           transform="matrix(1,0,0,-1,207.31199,184.05508)"
           style="font-style:italic;font-variant:normal;font-weight:normal;font-stretch:normal;font-size:6.6047px;font-family:'Palatino Linotype';-inkscape-font-specification:PalatinoLinotype-Italic;writing-mode:lr-tb;fill:#000000;fill-opacity:1;fill-rule:nonzero;stroke:none"
           id="text184"><tspan
             x="0"
             y="0"
             id="tspan182">3</tspan></text></g></g><g
       id="g186"><g
         id="g188"
         clip-path="url(#clipPath192)"><text
           transform="matrix(1,0,0,-1,190.23026,8.95988)"
           style="font-style:italic;font-variant:normal;font-weight:normal;font-stretch:normal;font-size:11.0078px;font-family:'Palatino Linotype';-inkscape-font-specification:PalatinoLinotype-Italic;writing-mode:lr-tb;fill:#000000;fill-opacity:1;fill-rule:nonzero;stroke:none"
           id="text196"><tspan
             x="0"
             y="0"
             id="tspan194">x</tspan></text></g></g><g
       id="g198"><g
         id="g200"
         clip-path="url(#clipPath204)"><text
           transform="matrix(1,0,0,-1,166.4884,33.85112)"
           style="font-style:italic;font-variant:normal;font-weight:normal;font-stretch:normal;font-size:11.0078px;font-family:'Palatino Linotype';-inkscape-font-specification:PalatinoLinotype-Italic;writing-mode:lr-tb;fill:#000000;fill-opacity:1;fill-rule:nonzero;stroke:none"
           id="text208"><tspan
             x="0"
             y="0"
             id="tspan206">z</tspan></text></g></g><g
       id="g210"><g
         id="g212"
         clip-path="url(#clipPath216)"><text
           transform="matrix(1,0,0,-1,167.40097,7.35353)"
           style="font-style:italic;font-variant:normal;font-weight:normal;font-stretch:normal;font-size:11.0078px;font-family:'Palatino Linotype';-inkscape-font-specification:PalatinoLinotype-Italic;writing-mode:lr-tb;fill:#000000;fill-opacity:1;fill-rule:nonzero;stroke:none"
           id="text220"><tspan
             x="0"
             y="0"
             id="tspan218">y</tspan></text></g></g><path
       d="m 205.12186,102.1925 14.57834,-0.0909 m 1.27557,-0.008 v 0 m -2.55115,0.0159 v 0 m 1.28354,1.26761 v 0 m -0.0159,-2.55114 v 0"
       style="fill:none;stroke:#000000;stroke-width:0.3685;stroke-linecap:round;stroke-linejoin:round;stroke-miterlimit:10;stroke-dasharray:none;stroke-opacity:1"
       id="path222" /><path
       d="m 220.97577,102.09361 c 0.004,0.70447 -0.56314,1.27913 -1.26761,1.28353 m 0,0 c -0.7045,0.004 -1.27914,-0.56314 -1.28354,-1.26761 m 0,0 c -0.004,-0.70449 0.56314,-1.27913 1.26761,-1.28353 m 0,0 c 0.70447,-0.004 1.27914,0.56313 1.28354,1.26761 m 0,0 c 0,0 0,0 0,0"
       style="fill:none;stroke:#000000;stroke-width:0.3685;stroke-linecap:round;stroke-linejoin:round;stroke-miterlimit:10;stroke-dasharray:none;stroke-opacity:1"
       id="path224" /><path
       d="m 218.59924,101.47063 0.008,1.27556 -0.18256,-0.63666 0.17462,-0.6389 z"
       style="fill:#000000;fill-opacity:1;fill-rule:nonzero;stroke:none"
       id="path226" /><path
       d="m 218.60718,102.74619 -0.008,-1.27556 0.45633,-0.46207 -0.44839,1.73763 z"
       style="fill:#000000;fill-opacity:1;fill-rule:nonzero;stroke:none"
       id="path228" /><path
       d="m 218.60718,102.74619 0.44839,-1.73763 0.0137,2.19397 -0.46206,-0.45634 z"
       style="fill:#000000;fill-opacity:1;fill-rule:nonzero;stroke:none"
       id="path230" /><path
       d="m 219.06924,103.20253 -0.0137,-2.19397 0.63666,-0.18256 -0.62299,2.37653 z"
       style="fill:#000000;fill-opacity:1;fill-rule:nonzero;stroke:none"
       id="path232" /><path
       d="m 219.06924,103.20253 0.62299,-2.37653 0.0159,2.55114 -0.63892,-0.17461 z"
       style="fill:#000000;fill-opacity:1;fill-rule:nonzero;stroke:none"
       id="path234" /><path
       d="m 219.70816,103.37714 -0.0159,-2.55114 0.63889,0.17461 -0.62296,2.37653 z"
       style="fill:#000000;fill-opacity:1;fill-rule:nonzero;stroke:none"
       id="path236" /><path
       d="m 219.70816,103.37714 0.62296,-2.37653 0.0137,2.19395 z"
       style="fill:#000000;fill-opacity:1;fill-rule:nonzero;stroke:none"
       id="path238" /><path
       d="m 220.34482,103.19456 -0.0137,-2.19395 0.46206,0.45633 z"
       style="fill:#000000;fill-opacity:1;fill-rule:nonzero;stroke:none"
       id="path240" /><path
       d="m 220.34482,103.19456 0.44836,-1.73762 0.008,1.27556 -0.45633,0.46206 z"
       style="fill:#000000;fill-opacity:1;fill-rule:nonzero;stroke:none"
       id="path242" /><path
       d="m 220.80115,102.7325 -0.008,-1.27556 0.18259,0.63667 -0.17462,0.63889 z"
       style="fill:#000000;fill-opacity:1;fill-rule:nonzero;stroke:none"
       id="path244" /><path
       d="m 205.12186,45.49959 14.57834,-0.09094 m 1.27557,-0.008 v 0 m -2.55115,0.01591 v 0 m 1.28354,1.26761 v 0 m -0.0159,-2.55113 v 0"
       style="fill:none;stroke:#000000;stroke-width:0.3685;stroke-linecap:round;stroke-linejoin:round;stroke-miterlimit:10;stroke-dasharray:none;stroke-opacity:1"
       id="path246" /><path
       d="m 220.97577,45.4007 c 0.004,0.70446 -0.56314,1.27912 -1.26761,1.28352 m 0,0 c -0.7045,0.0044 -1.27914,-0.56314 -1.28354,-1.26761 m 0,0 c -0.004,-0.70448 0.56314,-1.27913 1.26761,-1.28352 m 0,0 c 0.70447,-0.0044 1.27914,0.56312 1.28354,1.26761 m 0,0 c 0,0 0,0 0,0"
       style="fill:none;stroke:#000000;stroke-width:0.3685;stroke-linecap:round;stroke-linejoin:round;stroke-miterlimit:10;stroke-dasharray:none;stroke-opacity:1"
       id="path248" /><path
       d="m 218.59924,44.77773 0.008,1.27554 -0.18256,-0.63666 0.17462,-0.63888 z"
       style="fill:#000000;fill-opacity:1;fill-rule:nonzero;stroke:none"
       id="path250" /><path
       d="m 218.60718,46.05327 -0.008,-1.27554 0.45633,-0.46209 -0.44839,1.73763 z"
       style="fill:#000000;fill-opacity:1;fill-rule:nonzero;stroke:none"
       id="path252" /><path
       d="m 218.60718,46.05327 0.44839,-1.73763 0.0137,2.19397 -0.46206,-0.45634 z"
       style="fill:#000000;fill-opacity:1;fill-rule:nonzero;stroke:none"
       id="path254" /><path
       d="m 219.06924,46.50961 -0.0137,-2.19397 0.63666,-0.18255 -0.62299,2.37652 z"
       style="fill:#000000;fill-opacity:1;fill-rule:nonzero;stroke:none"
       id="path256" /><path
       d="m 219.06924,46.50961 0.62299,-2.37652 0.0159,2.55113 -0.63892,-0.17461 z"
       style="fill:#000000;fill-opacity:1;fill-rule:nonzero;stroke:none"
       id="path258" /><path
       d="m 219.70816,46.68422 -0.0159,-2.55113 0.63889,0.1746 -0.62296,2.37653 z"
       style="fill:#000000;fill-opacity:1;fill-rule:nonzero;stroke:none"
       id="path260" /><path
       d="m 219.70816,46.68422 0.62296,-2.37653 0.0137,2.19397 z"
       style="fill:#000000;fill-opacity:1;fill-rule:nonzero;stroke:none"
       id="path262" /><path
       d="m 220.34482,46.50166 -0.0137,-2.19397 0.46206,0.45635 z"
       style="fill:#000000;fill-opacity:1;fill-rule:nonzero;stroke:none"
       id="path264" /><path
       d="m 220.34482,46.50166 0.44836,-1.73762 0.008,1.27556 -0.45633,0.46206 z"
       style="fill:#000000;fill-opacity:1;fill-rule:nonzero;stroke:none"
       id="path266" /><path
       d="m 220.80115,46.0396 -0.008,-1.27556 0.18259,0.63666 -0.17462,0.6389 z"
       style="fill:#000000;fill-opacity:1;fill-rule:nonzero;stroke:none"
       id="path268" /><path
       d="m 205.2128,159.21967 h 14.4874 m 1.27557,0 v 0 m -2.55115,0 v 0 m 1.27558,1.2756 v 0 m 0,-2.55118 v 0"
       style="fill:none;stroke:#000000;stroke-width:0.3685;stroke-linecap:round;stroke-linejoin:round;stroke-miterlimit:10;stroke-dasharray:none;stroke-opacity:1"
       id="path270" /><path
       d="m 220.97577,159.21967 c 0,0.70449 -0.57111,1.2756 -1.27557,1.2756 m 0,0 c -0.7045,0 -1.27561,-0.57111 -1.27561,-1.2756 m 0,0 c 0,-0.70447 0.57111,-1.27558 1.27561,-1.27558 m 0,0 c 0.70446,0 1.27557,0.57111 1.27557,1.27558 m 0,0 c 0,0 0,0 0,0"
       style="fill:none;stroke:#000000;stroke-width:0.3685;stroke-linecap:round;stroke-linejoin:round;stroke-miterlimit:10;stroke-dasharray:none;stroke-opacity:1"
       id="path272" /><path
       d="m 218.60318,158.58188 v 1.2756 l -0.17856,-0.63781 z"
       style="fill:#000000;fill-opacity:1;fill-rule:nonzero;stroke:none"
       id="path274" /><path
       d="m 218.60318,159.85748 v -1.2756 l 0.45923,-0.4592 z"
       style="fill:#000000;fill-opacity:1;fill-rule:nonzero;stroke:none"
       id="path276" /><path
       d="m 218.60318,159.85748 0.45923,-1.7348 v 2.194 z"
       style="fill:#000000;fill-opacity:1;fill-rule:nonzero;stroke:none"
       id="path278" /><path
       d="m 219.06241,160.31668 v -2.194 l 0.63779,-0.17859 z"
       style="fill:#000000;fill-opacity:1;fill-rule:nonzero;stroke:none"
       id="path280" /><path
       d="m 219.06241,160.31668 0.63779,-2.37259 v 2.55118 z"
       style="fill:#000000;fill-opacity:1;fill-rule:nonzero;stroke:none"
       id="path282" /><path
       d="m 219.7002,160.49527 v -2.55118 l 0.63778,0.17859 z"
       style="fill:#000000;fill-opacity:1;fill-rule:nonzero;stroke:none"
       id="path284" /><path
       d="m 219.7002,160.49527 0.63778,-2.37259 v 2.194 z"
       style="fill:#000000;fill-opacity:1;fill-rule:nonzero;stroke:none"
       id="path286" /><path
       d="m 220.33798,160.31668 v -2.194 l 0.45923,0.4592 z"
       style="fill:#000000;fill-opacity:1;fill-rule:nonzero;stroke:none"
       id="path288" /><path
       d="m 220.33798,160.31668 0.45923,-1.7348 v 1.2756 z"
       style="fill:#000000;fill-opacity:1;fill-rule:nonzero;stroke:none"
       id="path290" /><path
       d="m 220.79721,159.85748 v -1.2756 l 0.17856,0.63779 z"
       style="fill:#000000;fill-opacity:1;fill-rule:nonzero;stroke:none"
       id="path292" /><path
       d="m 225.36948,73.32991 c 0,3.13106 -2.53824,5.6693 -5.66928,5.6693 m 0,0 c -3.13108,0 -5.66932,-2.53824 -5.66932,-5.6693 m 0,0 c 0,-3.13106 2.53824,-5.6693 5.66932,-5.6693 m 0,0 c 3.13104,0 5.66928,2.53824 5.66928,5.6693"
       style="fill:none;stroke:#000000;stroke-width:0.99213;stroke-linecap:round;stroke-linejoin:round;stroke-miterlimit:10;stroke-dasharray:none;stroke-opacity:1"
       id="path294" /><path
       d="m 225.36948,130.87323 c 0,3.13104 -2.53824,5.66928 -5.66928,5.66928 m 0,0 c -3.13108,0 -5.66932,-2.53824 -5.66932,-5.66928 m 0,0 c 0,-3.13107 2.53824,-5.66931 5.66932,-5.66931 m 0,0 c 3.13104,0 5.66928,2.53824 5.66928,5.66931"
       style="fill:none;stroke:#000000;stroke-width:0.99213;stroke-linecap:round;stroke-linejoin:round;stroke-miterlimit:10;stroke-dasharray:none;stroke-opacity:1"
       id="path296" /><path
       d="m 225.36948,187.56613 c 0,3.13107 -2.53824,5.66928 -5.66928,5.66928 m 0,0 c -3.13108,0 -5.66932,-2.53821 -5.66932,-5.66928 m 0,0 c 0,-3.13107 2.53824,-5.66928 5.66932,-5.66928 m 0,0 c 3.13104,0 5.66928,2.53821 5.66928,5.66928"
       style="fill:none;stroke:#000000;stroke-width:0.99213;stroke-linecap:round;stroke-linejoin:round;stroke-miterlimit:10;stroke-dasharray:none;stroke-opacity:1"
       id="path298" /></g></svg>
