<?xml version="1.0" encoding="utf-8" standalone="no"?>
<!DOCTYPE svg PUBLIC "-//W3C//DTD SVG 1.1//EN"
  "http://www.w3.org/Graphics/SVG/1.1/DTD/svg11.dtd">
<svg xmlns:xlink="http://www.w3.org/1999/xlink" width="414.755356pt" height="138.628525pt" viewBox="0 0 414.755356 138.628525" xmlns="http://www.w3.org/2000/svg" version="1.1">
 <metadata>
  <rdf:RDF xmlns:dc="http://purl.org/dc/elements/1.1/" xmlns:cc="http://creativecommons.org/ns#" xmlns:rdf="http://www.w3.org/1999/02/22-rdf-syntax-ns#">
   <cc:Work>
    <dc:type rdf:resource="http://purl.org/dc/dcmitype/StillImage"/>
    <dc:date>2023-09-04T15:08:24.761262</dc:date>
    <dc:format>image/svg+xml</dc:format>
    <dc:creator>
     <cc:Agent>
      <dc:title>Matplotlib v3.7.2, https://matplotlib.org/</dc:title>
     </cc:Agent>
    </dc:creator>
   </cc:Work>
  </rdf:RDF>
 </metadata>
 <defs>
  <style type="text/css">*{stroke-linejoin: round; stroke-linecap: butt}</style>
 </defs>
 <g id="figure_1">
  <g id="patch_1">
   <path d="M 0 138.628525 
L 414.755356 138.628525 
L 414.755356 0 
L 0 0 
z
" style="fill: #ffffff"/>
  </g>
  <g id="axes_1">
   <g id="patch_2">
    <path d="M 15.753184 117.283911 
L 407.555356 117.283911 
L 407.555356 17.328237 
L 15.753184 17.328237 
z
" style="fill: #ffffff"/>
   </g>
   <g id="matplotlib.axis_1">
    <g id="xtick_1">
     <g id="line2d_1">
      <defs>
       <path id="m430c083a98" d="M 0 0 
L 0 3.5 
" style="stroke: #000000; stroke-width: 0.8"/>
      </defs>
      <g>
       <use xlink:href="#m430c083a98" x="33.562374" y="100.553228" style="stroke: #000000; stroke-width: 0.8"/>
      </g>
     </g>
     <g id="text_1">
      <!-- $\mathdefault{0}$ -->
      <g transform="translate(31.071714 114.681466) scale(0.1 -0.1)">
       <defs>
        <path id="URWPalladioL-Roma-30" d="M 1683 4416 
C 691 4416 186 3628 186 2076 
C 186 1326 320 679 544 365 
C 768 51 1126 -128 1523 -128 
C 2490 -128 2976 704 2976 2345 
C 2976 3749 2560 4416 1683 4416 
z
M 1568 4191 
C 2189 4191 2438 3563 2438 2025 
C 2438 660 2195 96 1606 96 
C 986 96 723 743 723 2307 
C 723 3660 960 4191 1568 4191 
z
" transform="scale(0.015625)"/>
       </defs>
       <use xlink:href="#URWPalladioL-Roma-30" transform="scale(0.996264)"/>
      </g>
     </g>
    </g>
    <g id="xtick_2">
     <g id="line2d_2">
      <g>
       <use xlink:href="#m430c083a98" x="84.39418" y="100.553228" style="stroke: #000000; stroke-width: 0.8"/>
      </g>
     </g>
     <g id="text_2">
      <!-- $\mathdefault{20}$ -->
      <g transform="translate(79.41286 114.681466) scale(0.1 -0.1)">
       <defs>
        <path id="URWPalladioL-Roma-32" d="M 102 166 
L 102 0 
C 1299 0 1299 0 1530 0 
C 1760 19 1760 19 2995 0 
C 2982 134 2982 198 2982 287 
C 2982 370 2982 434 2995 574 
C 2259 542 1965 536 781 510 
L 1946 1741 
C 2566 2398 2758 2749 2758 3228 
C 2758 3961 2259 4416 1446 4416 
C 986 4416 672 4287 358 3967 
L 250 3100 
L 435 3100 
L 518 3394 
C 621 3763 851 3923 1280 3923 
C 1830 3923 2182 3578 2182 3036 
C 2182 2558 1914 2086 1190 1320 
L 102 166 
z
" transform="scale(0.015625)"/>
       </defs>
       <use xlink:href="#URWPalladioL-Roma-32" transform="scale(0.996264)"/>
       <use xlink:href="#URWPalladioL-Roma-30" transform="translate(49.8132 0) scale(0.996264)"/>
      </g>
     </g>
    </g>
    <g id="xtick_3">
     <g id="line2d_3">
      <g>
       <use xlink:href="#m430c083a98" x="135.225985" y="100.553228" style="stroke: #000000; stroke-width: 0.8"/>
      </g>
     </g>
     <g id="text_3">
      <!-- $\mathdefault{40}$ -->
      <g transform="translate(130.244665 114.681466) scale(0.1 -0.1)">
       <defs>
        <path id="URWPalladioL-Roma-34" d="M 1792 1152 
L 1792 684 
C 1792 310 1722 223 1408 210 
L 1011 192 
L 1011 0 
C 1862 0 1862 0 2016 0 
C 2170 19 2170 19 3021 0 
L 3021 192 
L 2714 210 
C 2400 229 2330 310 2330 684 
L 2330 1152 
C 2707 1152 2842 1145 3021 1127 
L 3021 1580 
C 2720 1555 2598 1555 2502 1561 
L 2483 1561 
L 2330 1561 
L 2330 2445 
C 2330 3576 2342 4122 2374 4383 
L 2298 4416 
L 1824 4243 
L 13 1299 
L 83 1152 
L 1792 1152 
z
M 1792 1561 
L 416 1561 
L 1792 3798 
L 1792 1561 
z
" transform="scale(0.015625)"/>
       </defs>
       <use xlink:href="#URWPalladioL-Roma-34" transform="scale(0.996264)"/>
       <use xlink:href="#URWPalladioL-Roma-30" transform="translate(49.8132 0) scale(0.996264)"/>
      </g>
     </g>
    </g>
    <g id="xtick_4">
     <g id="line2d_4">
      <g>
       <use xlink:href="#m430c083a98" x="186.057791" y="100.553228" style="stroke: #000000; stroke-width: 0.8"/>
      </g>
     </g>
     <g id="text_4">
      <!-- $\mathdefault{60}$ -->
      <g transform="translate(181.076471 114.681466) scale(0.1 -0.1)">
       <defs>
        <path id="URWPalladioL-Roma-36" d="M 2662 4287 
L 2426 4396 
C 1811 4193 1549 4066 1222 3788 
C 563 3237 205 2463 205 1585 
C 205 526 717 -128 1542 -128 
C 2374 -128 2995 532 2995 1405 
C 2995 2143 2554 2624 1875 2624 
C 1555 2624 1363 2540 986 2239 
C 915 2182 909 2175 838 2124 
C 973 3275 1510 3895 2662 4237 
L 2662 4287 
z
M 1632 2239 
C 2118 2239 2445 1816 2445 1180 
C 2445 513 2118 83 1626 83 
C 1082 83 787 551 787 1411 
C 787 1636 813 1758 883 1867 
C 1024 2085 1325 2239 1632 2239 
z
" transform="scale(0.015625)"/>
       </defs>
       <use xlink:href="#URWPalladioL-Roma-36" transform="scale(0.996264)"/>
       <use xlink:href="#URWPalladioL-Roma-30" transform="translate(49.8132 0) scale(0.996264)"/>
      </g>
     </g>
    </g>
    <g id="xtick_5">
     <g id="line2d_5">
      <g>
       <use xlink:href="#m430c083a98" x="236.889597" y="100.553228" style="stroke: #000000; stroke-width: 0.8"/>
      </g>
     </g>
     <g id="text_5">
      <!-- $\mathdefault{80}$ -->
      <g transform="translate(231.908277 114.681466) scale(0.1 -0.1)">
       <defs>
        <path id="URWPalladioL-Roma-38" d="M 1075 2211 
C 813 2089 704 2019 563 1884 
C 320 1640 192 1352 192 1019 
C 192 358 723 -128 1446 -128 
C 2278 -128 2970 525 2970 1320 
C 2970 1833 2733 2108 2003 2442 
C 2586 2839 2790 3108 2790 3493 
C 2790 4044 2336 4416 1658 4416 
C 896 4416 339 3929 339 3256 
C 339 2820 512 2576 1075 2211 
z
M 1818 1890 
C 2221 1711 2464 1397 2464 1051 
C 2464 512 2061 89 1542 89 
C 998 89 646 474 646 1070 
C 646 1538 832 1833 1306 2121 
L 1818 1890 
z
M 1427 2711 
C 1024 2910 819 3166 819 3486 
C 819 3910 1126 4198 1581 4198 
C 2048 4198 2355 3890 2355 3422 
C 2355 3057 2195 2807 1779 2538 
L 1427 2711 
z
" transform="scale(0.015625)"/>
       </defs>
       <use xlink:href="#URWPalladioL-Roma-38" transform="scale(0.996264)"/>
       <use xlink:href="#URWPalladioL-Roma-30" transform="translate(49.8132 0) scale(0.996264)"/>
      </g>
     </g>
    </g>
    <g id="xtick_6">
     <g id="line2d_6">
      <g>
       <use xlink:href="#m430c083a98" x="287.721402" y="100.553228" style="stroke: #000000; stroke-width: 0.8"/>
      </g>
     </g>
     <g id="text_6">
      <!-- $\mathdefault{100}$ -->
      <g transform="translate(280.249422 114.681466) scale(0.1 -0.1)">
       <defs>
        <path id="URWPalladioL-Roma-31" d="M 429 3571 
L 493 3571 
L 1318 3942 
C 1325 3949 1331 3949 1338 3949 
C 1376 3949 1389 3891 1389 3737 
L 1389 633 
C 1389 300 1318 230 973 211 
L 614 192 
L 614 0 
C 1600 0 1600 0 1670 0 
C 1754 0 1894 0 2112 -7 
C 2189 6 2413 6 2675 0 
L 2675 192 
L 2342 211 
C 1990 229 1926 299 1926 628 
L 1926 4383 
L 1837 4416 
C 1421 4199 966 4009 384 3807 
L 429 3571 
z
" transform="scale(0.015625)"/>
       </defs>
       <use xlink:href="#URWPalladioL-Roma-31" transform="scale(0.996264)"/>
       <use xlink:href="#URWPalladioL-Roma-30" transform="translate(49.8132 0) scale(0.996264)"/>
       <use xlink:href="#URWPalladioL-Roma-30" transform="translate(99.626401 0) scale(0.996264)"/>
      </g>
     </g>
    </g>
    <g id="xtick_7">
     <g id="line2d_7">
      <g>
       <use xlink:href="#m430c083a98" x="338.553208" y="100.553228" style="stroke: #000000; stroke-width: 0.8"/>
      </g>
     </g>
     <g id="text_7">
      <!-- $\mathdefault{120}$ -->
      <g transform="translate(331.081228 114.681466) scale(0.1 -0.1)">
       <use xlink:href="#URWPalladioL-Roma-31" transform="scale(0.996264)"/>
       <use xlink:href="#URWPalladioL-Roma-32" transform="translate(49.8132 0) scale(0.996264)"/>
       <use xlink:href="#URWPalladioL-Roma-30" transform="translate(99.626401 0) scale(0.996264)"/>
      </g>
     </g>
    </g>
    <g id="xtick_8">
     <g id="line2d_8">
      <g>
       <use xlink:href="#m430c083a98" x="389.385014" y="100.553228" style="stroke: #000000; stroke-width: 0.8"/>
      </g>
     </g>
     <g id="text_8">
      <!-- $\mathdefault{140}$ -->
      <g transform="translate(381.913033 114.681466) scale(0.1 -0.1)">
       <use xlink:href="#URWPalladioL-Roma-31" transform="scale(0.996264)"/>
       <use xlink:href="#URWPalladioL-Roma-34" transform="translate(49.8132 0) scale(0.996264)"/>
       <use xlink:href="#URWPalladioL-Roma-30" transform="translate(99.626401 0) scale(0.996264)"/>
      </g>
     </g>
    </g>
    <g id="text_9">
     <!-- $\omega_{n}$ -->
     <g transform="translate(205.758654 128.619114) scale(0.1 -0.1)">
      <defs>
       <path id="PazoMath-Italic-77" d="M 1440 3072 
C 1274 2951 986 2741 819 2588 
C 352 2163 96 1610 96 1127 
C 96 758 115 440 326 192 
C 467 25 614 -64 851 -64 
C 1037 -64 1280 38 1459 140 
C 1709 281 1837 409 2061 593 
C 2125 198 2387 -64 2752 -64 
C 3034 -64 3296 64 3603 351 
C 3878 612 4160 1012 4346 1413 
C 4506 1750 4614 2182 4614 2449 
C 4614 2817 4454 3072 4218 3072 
C 4128 3072 4064 3046 4006 2995 
L 3686 2697 
L 3757 2576 
C 3814 2614 3866 2633 3930 2633 
C 4109 2633 4198 2487 4198 2233 
C 4198 1285 3584 256 3021 256 
C 2707 256 2509 516 2509 936 
C 2509 1031 2509 1114 2547 1279 
L 2669 1768 
C 2694 1876 2733 1965 2771 2073 
L 2701 2162 
L 2285 1997 
L 2112 1222 
C 2035 1006 1971 739 1786 580 
C 1606 428 1421 326 1203 326 
C 1018 326 858 409 755 536 
C 621 682 582 911 582 1101 
C 582 1686 736 2201 1286 2716 
C 1357 2779 1478 2887 1542 2957 
L 1440 3072 
z
" transform="scale(0.015625)"/>
       <path id="URWPalladioL-Ital-6e" d="M 154 2471 
L 198 2343 
L 403 2477 
C 640 2624 659 2637 704 2637 
C 774 2637 819 2573 819 2477 
C 819 2152 557 919 294 6 
L 339 -64 
C 499 -20 646 19 787 44 
C 909 849 1043 1264 1338 1705 
C 1683 2241 2163 2637 2451 2637 
C 2522 2637 2560 2579 2560 2484 
C 2560 2369 2541 2235 2490 2030 
L 2157 677 
C 2099 440 2074 293 2074 191 
C 2074 32 2144 -64 2266 -64 
C 2432 -64 2662 70 3290 536 
L 3226 651 
L 3059 542 
C 2874 421 2733 351 2669 351 
C 2624 351 2586 408 2586 479 
C 2586 511 2592 581 2598 606 
L 3021 2369 
C 3066 2554 3091 2733 3091 2841 
C 3091 2988 3021 3072 2893 3072 
C 2624 3072 2182 2829 1805 2477 
C 1562 2254 1382 2037 1050 1571 
L 1293 2599 
C 1318 2714 1331 2790 1331 2860 
C 1331 2995 1280 3072 1184 3072 
C 1050 3072 800 2931 333 2599 
L 154 2471 
z
" transform="scale(0.015625)"/>
      </defs>
      <use xlink:href="#PazoMath-Italic-77" transform="scale(0.996264)"/>
      <use xlink:href="#URWPalladioL-Ital-6e" transform="translate(75.814724 -14.943915) scale(0.757155)"/>
     </g>
    </g>
   </g>
   <g id="matplotlib.axis_2">
    <g id="ytick_1">
     <g id="line2d_9">
      <defs>
       <path id="md47184dd0f" d="M 0 0 
L -3.5 0 
" style="stroke: #000000; stroke-width: 0.8"/>
      </defs>
      <g>
       <use xlink:href="#md47184dd0f" x="33.562374" y="100.553228" style="stroke: #000000; stroke-width: 0.8"/>
      </g>
     </g>
     <g id="text_10">
      <!-- $\mathdefault{0}$ -->
      <g transform="translate(21.581054 104.117347) scale(0.1 -0.1)">
       <use xlink:href="#URWPalladioL-Roma-30" transform="scale(0.996264)"/>
      </g>
     </g>
    </g>
    <g id="ytick_2">
     <g id="line2d_10">
      <g>
       <use xlink:href="#md47184dd0f" x="33.562374" y="68.135011" style="stroke: #000000; stroke-width: 0.8"/>
      </g>
     </g>
     <g id="text_11">
      <!-- $\mathdefault{1}$ -->
      <g transform="translate(21.581054 71.699129) scale(0.1 -0.1)">
       <use xlink:href="#URWPalladioL-Roma-31" transform="scale(0.996264)"/>
      </g>
     </g>
    </g>
    <g id="ytick_3">
     <g id="line2d_11">
      <g>
       <use xlink:href="#md47184dd0f" x="33.562374" y="35.716793" style="stroke: #000000; stroke-width: 0.8"/>
      </g>
     </g>
     <g id="text_12">
      <!-- $\mathdefault{2}$ -->
      <g transform="translate(21.581054 39.280912) scale(0.1 -0.1)">
       <use xlink:href="#URWPalladioL-Roma-32" transform="scale(0.996264)"/>
      </g>
     </g>
    </g>
    <g id="text_13">
     <!-- $f{\left(\omega_{n} \right)}$ -->
     <g transform="translate(14.771643 79.89771) rotate(-90) scale(0.1 -0.1)">
      <defs>
       <path id="URWPalladioL-Ital-66" d="M 1830 2470 
C 1856 2591 1901 2739 1939 2828 
L 1914 2873 
L 1869 2860 
C 1715 2822 1645 2816 1331 2816 
L 1229 2816 
L 1363 3532 
C 1466 4083 1645 4326 1939 4326 
C 2131 4326 2304 4230 2400 4076 
L 2464 4102 
C 2496 4204 2560 4403 2611 4531 
L 2643 4627 
C 2541 4672 2342 4710 2195 4710 
C 2125 4710 2022 4691 1971 4665 
C 1818 4595 1293 4204 1146 4051 
C 1005 3910 928 3718 858 3353 
L 762 2848 
C 499 2719 371 2668 211 2611 
L 179 2470 
L 698 2470 
L 640 2112 
C 448 864 211 -327 70 -768 
C -45 -1146 -237 -1344 -467 -1344 
C -615 -1344 -685 -1300 -800 -1159 
L -890 -1184 
C -915 -1332 -1005 -1639 -1037 -1697 
C -979 -1729 -883 -1748 -813 -1748 
C -551 -1748 -205 -1549 45 -1248 
C 435 -788 576 -340 1043 1907 
C 1062 1984 1114 2227 1165 2470 
L 1830 2470 
z
" transform="scale(0.015625)"/>
       <path id="CMR10-28" d="M 2118 -1536 
C 2118 -1517 2118 -1504 2010 -1396 
C 1210 -589 1005 620 1005 1600 
C 1005 2713 1248 3827 2035 4627 
C 2118 4704 2118 4716 2118 4736 
C 2118 4780 2093 4800 2054 4800 
C 1990 4800 1414 4365 1037 3552 
C 710 2848 634 2137 634 1600 
C 634 1100 704 326 1056 -397 
C 1440 -1184 1990 -1600 2054 -1600 
C 2093 -1600 2118 -1581 2118 -1536 
z
" transform="scale(0.015625)"/>
       <path id="CMR10-29" d="M 1850 1600 
C 1850 2099 1779 2873 1427 3597 
C 1043 4384 493 4800 429 4800 
C 390 4800 365 4774 365 4736 
C 365 4716 365 4704 486 4589 
C 1114 3955 1478 2937 1478 1600 
C 1478 505 1242 -621 448 -1428 
C 365 -1504 365 -1517 365 -1536 
C 365 -1575 390 -1600 429 -1600 
C 493 -1600 1069 -1165 1446 -352 
C 1773 352 1850 1062 1850 1600 
z
" transform="scale(0.015625)"/>
      </defs>
      <use xlink:href="#URWPalladioL-Ital-66" transform="scale(0.996264)"/>
      <use xlink:href="#CMR10-28" transform="translate(43.636321 -1.04608) scale(1.038107)"/>
      <use xlink:href="#PazoMath-Italic-77" transform="translate(86.376026 0) scale(0.996264)"/>
      <use xlink:href="#URWPalladioL-Ital-6e" transform="translate(162.19075 -14.943915) scale(0.757155)"/>
      <use xlink:href="#CMR10-29" transform="translate(206.9785 -1.04608) scale(1.038107)"/>
     </g>
    </g>
    <g id="text_14">
     <!-- $\times\mathdefault{10^{28}}\mathdefault{}$ -->
     <g transform="translate(15.753184 14.328237) scale(0.1 -0.1)">
      <defs>
       <path id="CMSY10-2" d="M 2490 1775 
L 1210 3046 
C 1133 3123 1120 3136 1069 3136 
C 1005 3136 941 3078 941 3008 
C 941 2963 954 2950 1024 2880 
L 2304 1596 
L 1024 313 
C 954 243 941 230 941 185 
C 941 115 1005 57 1069 57 
C 1120 57 1133 70 1210 147 
L 2483 1418 
L 3808 95 
C 3821 89 3866 57 3904 57 
C 3981 57 4032 115 4032 185 
C 4032 198 4032 223 4013 255 
C 4006 268 2989 1271 2669 1596 
L 3840 2765 
C 3872 2803 3968 2886 4000 2925 
C 4006 2937 4032 2963 4032 3008 
C 4032 3078 3981 3136 3904 3136 
C 3853 3136 3827 3110 3757 3040 
L 2490 1775 
z
" transform="scale(0.015625)"/>
      </defs>
      <use xlink:href="#CMSY10-2" transform="scale(1.038107)"/>
      <use xlink:href="#URWPalladioL-Roma-31" transform="translate(81.941696 0) scale(0.996264)"/>
      <use xlink:href="#URWPalladioL-Roma-30" transform="translate(131.754897 0) scale(0.996264)"/>
      <use xlink:href="#URWPalladioL-Roma-32" transform="translate(181.568097 36.164371) scale(0.757155)"/>
      <use xlink:href="#URWPalladioL-Roma-38" transform="translate(219.425856 36.164371) scale(0.757155)"/>
     </g>
    </g>
   </g>
   <g id="line2d_12">
    <path d="M 33.562374 98.234418 
L 38.630358 98.258125 
L 43.706545 98.328989 
L 48.407829 98.435616 
L 54.03866 98.612873 
L 59.131648 98.81664 
L 64.266576 99.059966 
L 69.898416 99.365082 
L 75.67883 99.712515 
L 81.30016 100.075258 
L 87.930804 100.521888 
L 92.92952 100.862363 
L 98.106062 101.209123 
L 103.691467 101.566027 
L 109.728453 101.917728 
L 115.656683 102.213239 
L 122.770229 102.479807 
L 128.833549 102.610949 
L 132.068244 102.638084 
L 132.899321 102.63978 
L 133.095096 102.639853 
L 133.271423 102.639812 
L 133.705724 102.639275 
L 135.42826 102.630906 
L 141.11935 102.527936 
L 147.58663 102.255849 
L 153.131692 101.875585 
L 159.249053 101.282073 
L 165.451924 100.477225 
L 170.956836 99.578582 
L 177.130484 98.351094 
L 182.914011 96.979308 
L 188.606544 95.410439 
L 194.075733 93.692274 
L 201.116871 91.168922 
L 208.212805 88.267046 
L 214.6165 85.33971 
L 220.804709 82.237962 
L 227.134139 78.797867 
L 233.08312 75.331408 
L 240.55794 70.683198 
L 247.633503 66.021714 
L 253.083987 62.288779 
L 258.001716 58.83931 
L 264.093755 54.495089 
L 270.599906 49.822894 
L 276.737275 45.447544 
L 282.063277 41.729913 
L 287.337522 38.17294 
L 293.713497 34.116567 
L 298.922873 31.070068 
L 303.867453 28.463643 
L 308.273406 26.424476 
L 312.700868 24.692092 
L 317.835948 23.145925 
L 322.852949 22.191671 
L 327.942959 21.871677 
L 333.430327 22.364962 
L 338.796881 23.806501 
L 343.348794 25.867069 
L 348.634824 29.339756 
L 353.058595 33.232344 
L 358.18047 38.980541 
L 363.357692 46.280892 
L 367.929862 54.095388 
L 372.256611 62.776495 
L 376.782543 73.305245 
L 380.713883 83.743268 
L 385.56459 98.405294 
L 389.746166 112.740471 
" clip-path="url(#p2d655df342)" style="fill: none; stroke: #1f77b4; stroke-width: 1.5; stroke-linecap: square"/>
   </g>
   <g id="patch_3">
    <path d="M 33.562374 117.283911 
L 33.562374 17.328237 
" style="fill: none; stroke: #000000; stroke-width: 0.8; stroke-linejoin: miter; stroke-linecap: square"/>
   </g>
   <g id="patch_4">
    <path d="M 407.555356 117.283911 
L 407.555356 17.328237 
" style="fill: none"/>
   </g>
   <g id="patch_5">
    <path d="M 15.753184 100.553228 
L 407.555356 100.553228 
" style="fill: none; stroke: #000000; stroke-width: 0.8; stroke-linejoin: miter; stroke-linecap: square"/>
   </g>
   <g id="patch_6">
    <path d="M 15.753184 17.328237 
L 407.555356 17.328237 
" style="fill: none"/>
   </g>
  </g>
 </g>
 <defs>
  <clipPath id="p2d655df342">
   <rect x="15.753184" y="17.328237" width="391.802171" height="99.955674"/>
  </clipPath>
 </defs>
</svg>
