<?xml version="1.0" encoding="utf-8" standalone="no"?>
<!DOCTYPE svg PUBLIC "-//W3C//DTD SVG 1.1//EN"
  "http://www.w3.org/Graphics/SVG/1.1/DTD/svg11.dtd">
<svg xmlns:xlink="http://www.w3.org/1999/xlink" width="415.807089pt" height="136.8pt" viewBox="0 0 415.807089 136.8" xmlns="http://www.w3.org/2000/svg" version="1.1">
 <metadata>
  <rdf:RDF xmlns:dc="http://purl.org/dc/elements/1.1/" xmlns:cc="http://creativecommons.org/ns#" xmlns:rdf="http://www.w3.org/1999/02/22-rdf-syntax-ns#">
   <cc:Work>
    <dc:type rdf:resource="http://purl.org/dc/dcmitype/StillImage"/>
    <dc:date>2023-09-04T15:05:25.313309</dc:date>
    <dc:format>image/svg+xml</dc:format>
    <dc:creator>
     <cc:Agent>
      <dc:title>Matplotlib v3.7.2, https://matplotlib.org/</dc:title>
     </cc:Agent>
    </dc:creator>
   </cc:Work>
  </rdf:RDF>
 </metadata>
 <defs>
  <style type="text/css">*{stroke-linejoin: round; stroke-linecap: butt}</style>
 </defs>
 <g id="figure_1">
  <g id="patch_1">
   <path d="M 0 136.8 
L 415.807089 136.8 
L 415.807089 0 
L 0 0 
z
" style="fill: #ffffff"/>
  </g>
  <g id="axes_1">
   <g id="patch_2">
    <path d="M 39.943049 129.6 
L 408.607089 129.6 
L 408.607089 7.2 
L 39.943049 7.2 
z
" style="fill: #ffffff"/>
   </g>
   <g id="matplotlib.axis_1">
    <g id="xtick_1">
     <g id="line2d_1">
      <defs>
       <path id="m284e2e3911" d="M 0 0 
L 0 3.5 
" style="stroke: #000000; stroke-width: 0.8"/>
      </defs>
      <g>
       <use xlink:href="#m284e2e3911" x="56.700505" y="68.4" style="stroke: #000000; stroke-width: 0.8"/>
      </g>
     </g>
     <g id="text_1">
      <!-- $\mathdefault{0.00}$ -->
      <g transform="translate(47.983195 82.528237) scale(0.1 -0.1)">
       <defs>
        <path id="URWPalladioL-Roma-30" d="M 1683 4416 
C 691 4416 186 3628 186 2076 
C 186 1326 320 679 544 365 
C 768 51 1126 -128 1523 -128 
C 2490 -128 2976 704 2976 2345 
C 2976 3749 2560 4416 1683 4416 
z
M 1568 4191 
C 2189 4191 2438 3563 2438 2025 
C 2438 660 2195 96 1606 96 
C 986 96 723 743 723 2307 
C 723 3660 960 4191 1568 4191 
z
" transform="scale(0.015625)"/>
        <path id="URWPalladioL-Roma-2e" d="M 794 678 
C 602 678 429 499 429 307 
C 429 115 602 -64 787 -64 
C 992 -64 1171 108 1171 307 
C 1171 499 992 678 794 678 
z
" transform="scale(0.015625)"/>
       </defs>
       <use xlink:href="#URWPalladioL-Roma-30" transform="scale(0.996264)"/>
       <use xlink:href="#URWPalladioL-Roma-2e" transform="translate(49.8132 0) scale(0.996264)"/>
       <use xlink:href="#URWPalladioL-Roma-30" transform="translate(74.719801 0) scale(0.996264)"/>
       <use xlink:href="#URWPalladioL-Roma-30" transform="translate(124.533001 0) scale(0.996264)"/>
      </g>
     </g>
    </g>
    <g id="xtick_2">
     <g id="line2d_2">
      <g>
       <use xlink:href="#m284e2e3911" x="98.594146" y="68.4" style="stroke: #000000; stroke-width: 0.8"/>
      </g>
     </g>
     <g id="text_2">
      <!-- $\mathdefault{0.25}$ -->
      <g transform="translate(89.876836 82.528237) scale(0.1 -0.1)">
       <defs>
        <path id="URWPalladioL-Roma-32" d="M 102 166 
L 102 0 
C 1299 0 1299 0 1530 0 
C 1760 19 1760 19 2995 0 
C 2982 134 2982 198 2982 287 
C 2982 370 2982 434 2995 574 
C 2259 542 1965 536 781 510 
L 1946 1741 
C 2566 2398 2758 2749 2758 3228 
C 2758 3961 2259 4416 1446 4416 
C 986 4416 672 4287 358 3967 
L 250 3100 
L 435 3100 
L 518 3394 
C 621 3763 851 3923 1280 3923 
C 1830 3923 2182 3578 2182 3036 
C 2182 2558 1914 2086 1190 1320 
L 102 166 
z
" transform="scale(0.015625)"/>
        <path id="URWPalladioL-Roma-35" d="M 813 3891 
C 1638 3865 1997 3859 2765 3859 
L 2797 3891 
C 2784 4006 2784 4057 2784 4140 
C 2784 4230 2784 4281 2797 4396 
L 2765 4428 
C 2285 4403 1997 4396 1651 4396 
C 1299 4396 1018 4403 538 4428 
L 506 4396 
C 512 4006 518 3724 518 3520 
C 518 2976 499 2360 480 2076 
L 608 2038 
C 909 2341 1082 2432 1395 2432 
C 2010 2432 2394 1992 2394 1295 
C 2394 579 1984 160 1286 160 
C 941 160 621 276 531 443 
L 237 973 
L 83 882 
C 230 514 307 308 397 25 
C 576 -71 832 -128 1107 -128 
C 1536 -128 1990 57 2342 366 
C 2733 715 2938 1153 2938 1631 
C 2938 2360 2419 2873 1690 2873 
C 1382 2873 1152 2790 755 2553 
L 813 3891 
z
" transform="scale(0.015625)"/>
       </defs>
       <use xlink:href="#URWPalladioL-Roma-30" transform="scale(0.996264)"/>
       <use xlink:href="#URWPalladioL-Roma-2e" transform="translate(49.8132 0) scale(0.996264)"/>
       <use xlink:href="#URWPalladioL-Roma-32" transform="translate(74.719801 0) scale(0.996264)"/>
       <use xlink:href="#URWPalladioL-Roma-35" transform="translate(124.533001 0) scale(0.996264)"/>
      </g>
     </g>
    </g>
    <g id="xtick_3">
     <g id="line2d_3">
      <g>
       <use xlink:href="#m284e2e3911" x="140.487787" y="68.4" style="stroke: #000000; stroke-width: 0.8"/>
      </g>
     </g>
     <g id="text_3">
      <!-- $\mathdefault{0.50}$ -->
      <g transform="translate(131.770477 82.528237) scale(0.1 -0.1)">
       <use xlink:href="#URWPalladioL-Roma-30" transform="scale(0.996264)"/>
       <use xlink:href="#URWPalladioL-Roma-2e" transform="translate(49.8132 0) scale(0.996264)"/>
       <use xlink:href="#URWPalladioL-Roma-35" transform="translate(74.719801 0) scale(0.996264)"/>
       <use xlink:href="#URWPalladioL-Roma-30" transform="translate(124.533001 0) scale(0.996264)"/>
      </g>
     </g>
    </g>
    <g id="xtick_4">
     <g id="line2d_4">
      <g>
       <use xlink:href="#m284e2e3911" x="182.381428" y="68.4" style="stroke: #000000; stroke-width: 0.8"/>
      </g>
     </g>
     <g id="text_4">
      <!-- $\mathdefault{0.75}$ -->
      <g transform="translate(173.664118 82.528237) scale(0.1 -0.1)">
       <defs>
        <path id="URWPalladioL-Roma-37" d="M 358 83 
L 416 0 
C 666 0 666 0 710 0 
C 755 19 755 19 1005 0 
C 1274 700 1587 1369 2010 2141 
L 3181 4255 
L 3181 4448 
C 2490 4422 2266 4416 1747 4416 
C 1280 4416 966 4422 346 4448 
L 282 4416 
C 301 3807 301 3807 301 3743 
C 301 3672 301 3672 282 3087 
L 474 3087 
L 518 3447 
C 570 3846 614 3897 909 3897 
L 2618 3897 
C 2362 3370 2163 2996 1920 2604 
L 358 83 
z
" transform="scale(0.015625)"/>
       </defs>
       <use xlink:href="#URWPalladioL-Roma-30" transform="scale(0.996264)"/>
       <use xlink:href="#URWPalladioL-Roma-2e" transform="translate(49.8132 0) scale(0.996264)"/>
       <use xlink:href="#URWPalladioL-Roma-37" transform="translate(74.719801 0) scale(0.996264)"/>
       <use xlink:href="#URWPalladioL-Roma-35" transform="translate(124.533001 0) scale(0.996264)"/>
      </g>
     </g>
    </g>
    <g id="xtick_5">
     <g id="line2d_5">
      <g>
       <use xlink:href="#m284e2e3911" x="224.275069" y="68.4" style="stroke: #000000; stroke-width: 0.8"/>
      </g>
     </g>
     <g id="text_5">
      <!-- $\mathdefault{1.00}$ -->
      <g transform="translate(215.557759 82.528237) scale(0.1 -0.1)">
       <defs>
        <path id="URWPalladioL-Roma-31" d="M 429 3571 
L 493 3571 
L 1318 3942 
C 1325 3949 1331 3949 1338 3949 
C 1376 3949 1389 3891 1389 3737 
L 1389 633 
C 1389 300 1318 230 973 211 
L 614 192 
L 614 0 
C 1600 0 1600 0 1670 0 
C 1754 0 1894 0 2112 -7 
C 2189 6 2413 6 2675 0 
L 2675 192 
L 2342 211 
C 1990 229 1926 299 1926 628 
L 1926 4383 
L 1837 4416 
C 1421 4199 966 4009 384 3807 
L 429 3571 
z
" transform="scale(0.015625)"/>
       </defs>
       <use xlink:href="#URWPalladioL-Roma-31" transform="scale(0.996264)"/>
       <use xlink:href="#URWPalladioL-Roma-2e" transform="translate(49.8132 0) scale(0.996264)"/>
       <use xlink:href="#URWPalladioL-Roma-30" transform="translate(74.719801 0) scale(0.996264)"/>
       <use xlink:href="#URWPalladioL-Roma-30" transform="translate(124.533001 0) scale(0.996264)"/>
      </g>
     </g>
    </g>
    <g id="xtick_6">
     <g id="line2d_6">
      <g>
       <use xlink:href="#m284e2e3911" x="266.16871" y="68.4" style="stroke: #000000; stroke-width: 0.8"/>
      </g>
     </g>
     <g id="text_6">
      <!-- $\mathdefault{1.25}$ -->
      <g transform="translate(257.4514 82.528237) scale(0.1 -0.1)">
       <use xlink:href="#URWPalladioL-Roma-31" transform="scale(0.996264)"/>
       <use xlink:href="#URWPalladioL-Roma-2e" transform="translate(49.8132 0) scale(0.996264)"/>
       <use xlink:href="#URWPalladioL-Roma-32" transform="translate(74.719801 0) scale(0.996264)"/>
       <use xlink:href="#URWPalladioL-Roma-35" transform="translate(124.533001 0) scale(0.996264)"/>
      </g>
     </g>
    </g>
    <g id="xtick_7">
     <g id="line2d_7">
      <g>
       <use xlink:href="#m284e2e3911" x="308.062351" y="68.4" style="stroke: #000000; stroke-width: 0.8"/>
      </g>
     </g>
     <g id="text_7">
      <!-- $\mathdefault{1.50}$ -->
      <g transform="translate(299.345041 82.528237) scale(0.1 -0.1)">
       <use xlink:href="#URWPalladioL-Roma-31" transform="scale(0.996264)"/>
       <use xlink:href="#URWPalladioL-Roma-2e" transform="translate(49.8132 0) scale(0.996264)"/>
       <use xlink:href="#URWPalladioL-Roma-35" transform="translate(74.719801 0) scale(0.996264)"/>
       <use xlink:href="#URWPalladioL-Roma-30" transform="translate(124.533001 0) scale(0.996264)"/>
      </g>
     </g>
    </g>
    <g id="xtick_8">
     <g id="line2d_8">
      <g>
       <use xlink:href="#m284e2e3911" x="349.955992" y="68.4" style="stroke: #000000; stroke-width: 0.8"/>
      </g>
     </g>
     <g id="text_8">
      <!-- $\mathdefault{1.75}$ -->
      <g transform="translate(341.238682 82.528237) scale(0.1 -0.1)">
       <use xlink:href="#URWPalladioL-Roma-31" transform="scale(0.996264)"/>
       <use xlink:href="#URWPalladioL-Roma-2e" transform="translate(49.8132 0) scale(0.996264)"/>
       <use xlink:href="#URWPalladioL-Roma-37" transform="translate(74.719801 0) scale(0.996264)"/>
       <use xlink:href="#URWPalladioL-Roma-35" transform="translate(124.533001 0) scale(0.996264)"/>
      </g>
     </g>
    </g>
    <g id="xtick_9">
     <g id="line2d_9">
      <g>
       <use xlink:href="#m284e2e3911" x="391.849633" y="68.4" style="stroke: #000000; stroke-width: 0.8"/>
      </g>
     </g>
     <g id="text_9">
      <!-- $\mathdefault{2.00}$ -->
      <g transform="translate(383.132323 82.528237) scale(0.1 -0.1)">
       <use xlink:href="#URWPalladioL-Roma-32" transform="scale(0.996264)"/>
       <use xlink:href="#URWPalladioL-Roma-2e" transform="translate(49.8132 0) scale(0.996264)"/>
       <use xlink:href="#URWPalladioL-Roma-30" transform="translate(74.719801 0) scale(0.996264)"/>
       <use xlink:href="#URWPalladioL-Roma-30" transform="translate(124.533001 0) scale(0.996264)"/>
      </g>
     </g>
    </g>
    <g id="text_10">
     <!-- $t [s]$ -->
     <g transform="translate(217.423603 96.909291) scale(0.1 -0.1)">
      <defs>
       <path id="URWPalladioL-Ital-74" d="M 800 2489 
L 442 678 
C 435 633 429 620 410 544 
C 371 364 358 268 358 192 
C 358 32 429 -64 550 -64 
C 774 -64 998 64 1498 467 
L 1594 544 
L 1696 627 
L 1632 742 
L 1344 544 
C 1158 416 1030 352 960 352 
C 902 352 870 403 870 480 
C 870 646 960 1164 1146 2092 
L 1229 2489 
L 1914 2489 
L 1984 2809 
C 1741 2784 1523 2771 1280 2771 
C 1382 3373 1453 3686 1568 4032 
L 1498 4128 
C 1370 4051 1197 3974 998 3897 
L 838 2809 
C 557 2675 390 2604 275 2572 
L 262 2489 
L 800 2489 
z
" transform="scale(0.015625)"/>
       <path id="CMR10-5b" d="M 1632 -1601 
L 1632 -1344 
L 1011 -1344 
L 1011 4544 
L 1632 4544 
L 1632 4800 
L 755 4800 
L 755 -1601 
L 1632 -1601 
z
" transform="scale(0.015625)"/>
       <path id="URWPalladioL-Ital-73" d="M 198 948 
C 166 624 128 401 58 108 
C 301 -7 518 -64 742 -64 
C 1056 -64 1350 51 1677 306 
C 2003 560 2138 795 2138 1113 
C 2138 1456 1933 1640 1459 1729 
L 1184 1780 
C 800 1850 678 1958 678 2218 
C 678 2555 966 2815 1331 2815 
C 1594 2815 1837 2701 1939 2530 
L 1939 2180 
L 2086 2180 
C 2112 2403 2138 2574 2208 2899 
C 1958 3020 1779 3072 1568 3072 
C 1235 3072 845 2879 538 2574 
C 371 2403 301 2244 301 2015 
C 301 1659 499 1456 922 1373 
L 1325 1297 
C 1606 1246 1709 1132 1709 884 
C 1709 471 1414 192 960 192 
C 736 192 538 261 358 414 
L 358 948 
L 198 948 
z
" transform="scale(0.015625)"/>
       <path id="CMR10-5d" d="M 1018 4800 
L 141 4800 
L 141 4544 
L 762 4544 
L 762 -1344 
L 141 -1344 
L 141 -1601 
L 1018 -1601 
L 1018 4800 
z
" transform="scale(0.015625)"/>
      </defs>
      <use xlink:href="#URWPalladioL-Ital-74" transform="scale(0.996264)"/>
      <use xlink:href="#CMR10-5b" transform="translate(35.665282 0) scale(1.038107)"/>
      <use xlink:href="#URWPalladioL-Ital-73" transform="translate(66.947981 0) scale(0.996264)"/>
      <use xlink:href="#CMR10-5d" transform="translate(108.193259 0) scale(1.038107)"/>
     </g>
    </g>
   </g>
   <g id="matplotlib.axis_2">
    <g id="ytick_1">
     <g id="line2d_10">
      <defs>
       <path id="m94f8735b39" d="M 0 0 
L -3.5 0 
" style="stroke: #000000; stroke-width: 0.8"/>
      </defs>
      <g>
       <use xlink:href="#m94f8735b39" x="56.700505" y="115.218056" style="stroke: #000000; stroke-width: 0.8"/>
      </g>
     </g>
     <g id="text_11">
      <!-- $\mathdefault{−1000}$ -->
      <g transform="translate(21.581054 118.782175) scale(0.1 -0.1)">
       <defs>
        <path id="CMSY10-0" d="M 4218 1472 
C 4326 1472 4442 1472 4442 1600 
C 4442 1728 4326 1728 4218 1728 
L 755 1728 
C 646 1728 531 1728 531 1600 
C 531 1472 646 1472 755 1472 
L 4218 1472 
z
" transform="scale(0.015625)"/>
       </defs>
       <use xlink:href="#CMSY10-0" transform="scale(1.038107)"/>
       <use xlink:href="#URWPalladioL-Roma-31" transform="translate(81.941696 0) scale(0.996264)"/>
       <use xlink:href="#URWPalladioL-Roma-30" transform="translate(131.754897 0) scale(0.996264)"/>
       <use xlink:href="#URWPalladioL-Roma-30" transform="translate(181.568097 0) scale(0.996264)"/>
       <use xlink:href="#URWPalladioL-Roma-30" transform="translate(231.381298 0) scale(0.996264)"/>
      </g>
     </g>
    </g>
    <g id="ytick_2">
     <g id="line2d_11">
      <g>
       <use xlink:href="#m94f8735b39" x="56.700505" y="91.809028" style="stroke: #000000; stroke-width: 0.8"/>
      </g>
     </g>
     <g id="text_12">
      <!-- $\mathdefault{−500}$ -->
      <g transform="translate(26.562374 95.373147) scale(0.1 -0.1)">
       <use xlink:href="#CMSY10-0" transform="scale(1.038107)"/>
       <use xlink:href="#URWPalladioL-Roma-35" transform="translate(81.941696 0) scale(0.996264)"/>
       <use xlink:href="#URWPalladioL-Roma-30" transform="translate(131.754897 0) scale(0.996264)"/>
       <use xlink:href="#URWPalladioL-Roma-30" transform="translate(181.568097 0) scale(0.996264)"/>
      </g>
     </g>
    </g>
    <g id="ytick_3">
     <g id="line2d_12">
      <g>
       <use xlink:href="#m94f8735b39" x="56.700505" y="68.4" style="stroke: #000000; stroke-width: 0.8"/>
      </g>
     </g>
     <g id="text_13">
      <!-- $\mathdefault{0}$ -->
      <g transform="translate(44.719185 71.964119) scale(0.1 -0.1)">
       <use xlink:href="#URWPalladioL-Roma-30" transform="scale(0.996264)"/>
      </g>
     </g>
    </g>
    <g id="ytick_4">
     <g id="line2d_13">
      <g>
       <use xlink:href="#m94f8735b39" x="56.700505" y="44.990972" style="stroke: #000000; stroke-width: 0.8"/>
      </g>
     </g>
     <g id="text_14">
      <!-- $\mathdefault{500}$ -->
      <g transform="translate(34.756545 48.55509) scale(0.1 -0.1)">
       <use xlink:href="#URWPalladioL-Roma-35" transform="scale(0.996264)"/>
       <use xlink:href="#URWPalladioL-Roma-30" transform="translate(49.8132 0) scale(0.996264)"/>
       <use xlink:href="#URWPalladioL-Roma-30" transform="translate(99.626401 0) scale(0.996264)"/>
      </g>
     </g>
    </g>
    <g id="ytick_5">
     <g id="line2d_14">
      <g>
       <use xlink:href="#m94f8735b39" x="56.700505" y="21.581944" style="stroke: #000000; stroke-width: 0.8"/>
      </g>
     </g>
     <g id="text_15">
      <!-- $\mathdefault{1000}$ -->
      <g transform="translate(29.775225 25.146062) scale(0.1 -0.1)">
       <use xlink:href="#URWPalladioL-Roma-31" transform="scale(0.996264)"/>
       <use xlink:href="#URWPalladioL-Roma-30" transform="translate(49.8132 0) scale(0.996264)"/>
       <use xlink:href="#URWPalladioL-Roma-30" transform="translate(99.626401 0) scale(0.996264)"/>
       <use xlink:href="#URWPalladioL-Roma-30" transform="translate(149.439601 0) scale(0.996264)"/>
      </g>
     </g>
    </g>
    <g id="text_16">
     <!-- $F(t)$ [N] -->
     <g transform="translate(14.771643 86.041205) rotate(-90) scale(0.1 -0.1)">
      <defs>
       <path id="URWPalladioL-Ital-46" d="M 1830 4121 
L 2509 4147 
C 2906 4147 3162 4089 3168 3993 
L 3219 3423 
L 3373 3423 
C 3392 3827 3437 4153 3507 4396 
C 3366 4409 3187 4416 3078 4416 
L 2816 4409 
L 1760 4396 
L 1574 4396 
C 1414 4396 1158 4403 915 4409 
L 602 4416 
L 582 4237 
L 941 4224 
C 1094 4218 1165 4161 1165 4053 
C 1165 3964 1139 3761 1107 3570 
L 627 813 
C 518 229 518 223 256 197 
L 26 178 
L 0 0 
L 218 6 
C 474 -7 678 0 813 0 
C 928 0 1114 -7 1363 -13 
L 1696 0 
L 1715 178 
L 1306 197 
C 1133 203 1075 254 1075 380 
C 1075 418 1082 487 1088 512 
L 1318 1920 
L 2067 1920 
C 2240 1920 2438 1913 2746 1900 
L 2912 1894 
L 3034 2182 
L 3008 2227 
C 2490 2201 2106 2188 1606 2188 
L 1370 2188 
L 1664 3923 
C 1683 4025 1690 4057 1722 4128 
L 1830 4121 
z
" transform="scale(0.015625)"/>
       <path id="CMR10-28" d="M 2118 -1536 
C 2118 -1517 2118 -1504 2010 -1396 
C 1210 -589 1005 620 1005 1600 
C 1005 2713 1248 3827 2035 4627 
C 2118 4704 2118 4716 2118 4736 
C 2118 4780 2093 4800 2054 4800 
C 1990 4800 1414 4365 1037 3552 
C 710 2848 634 2137 634 1600 
C 634 1100 704 326 1056 -397 
C 1440 -1184 1990 -1600 2054 -1600 
C 2093 -1600 2118 -1581 2118 -1536 
z
" transform="scale(0.015625)"/>
       <path id="CMR10-29" d="M 1850 1600 
C 1850 2099 1779 2873 1427 3597 
C 1043 4384 493 4800 429 4800 
C 390 4800 365 4774 365 4736 
C 365 4716 365 4704 486 4589 
C 1114 3955 1478 2937 1478 1600 
C 1478 505 1242 -621 448 -1428 
C 365 -1504 365 -1517 365 -1536 
C 365 -1575 390 -1600 429 -1600 
C 493 -1600 1069 -1165 1446 -352 
C 1773 352 1850 1062 1850 1600 
z
" transform="scale(0.015625)"/>
       <path id="URWPalladioL-Roma-5b" d="M 563 -1178 
C 1018 -1166 1030 -1166 1184 -1166 
C 1338 -1166 1370 -1166 1805 -1178 
L 1843 -1140 
L 1843 -974 
L 1818 -942 
L 1574 -942 
C 1402 -942 1261 -903 1184 -839 
C 1126 -782 1107 -692 1107 -481 
C 1107 -474 1107 -340 1101 -148 
L 1101 89 
L 1101 3379 
L 1101 3615 
C 1107 3795 1107 3935 1107 3942 
C 1107 4153 1126 4249 1184 4307 
C 1261 4371 1402 4409 1574 4409 
L 1818 4409 
L 1843 4441 
L 1843 4608 
L 1805 4646 
C 1357 4633 1338 4633 1184 4633 
C 1037 4633 1005 4633 563 4646 
L 506 4563 
C 544 4403 557 4191 557 3699 
C 557 3603 557 3526 563 3462 
L 563 3379 
L 563 89 
L 563 6 
C 557 -97 557 -103 557 -212 
L 557 -282 
C 557 -718 544 -897 506 -1095 
L 563 -1178 
z
" transform="scale(0.015625)"/>
       <path id="URWPalladioL-Roma-4e" d="M 877 4396 
C 518 4403 461 4403 109 4416 
L 109 4223 
L 390 4204 
C 685 4185 717 4128 717 3633 
L 717 782 
C 717 287 685 230 390 211 
L 109 192 
L 109 0 
C 742 0 742 0 851 0 
C 947 19 947 19 1619 0 
L 1619 192 
L 1338 211 
C 1043 230 1011 287 1011 782 
L 1011 3722 
L 4038 -7 
L 4614 -109 
C 4614 -84 4614 -77 4608 -33 
C 4602 38 4595 89 4595 128 
L 4595 3633 
C 4595 4128 4627 4185 4922 4204 
L 5203 4223 
L 5203 4416 
C 4531 4396 4531 4396 4435 4396 
C 4326 4396 4326 4396 3693 4416 
L 3693 4223 
L 3974 4204 
C 4269 4185 4301 4128 4301 3633 
L 4301 642 
L 1222 4416 
L 877 4396 
z
" transform="scale(0.015625)"/>
       <path id="URWPalladioL-Roma-5d" d="M 1568 4646 
C 1114 4633 1094 4633 947 4633 
C 794 4633 762 4633 326 4646 
L 288 4608 
L 288 4441 
L 314 4409 
L 557 4409 
C 730 4409 864 4371 941 4307 
C 1005 4249 1024 4159 1024 3942 
C 1024 3923 1024 3795 1030 3615 
L 1030 3379 
L 1030 89 
L 1030 -148 
C 1024 -334 1024 -449 1024 -468 
C 1024 -686 1005 -782 941 -839 
C 864 -903 730 -942 557 -942 
L 314 -942 
L 288 -974 
L 288 -1140 
L 326 -1178 
C 774 -1166 787 -1166 947 -1166 
C 1094 -1166 1126 -1166 1568 -1178 
L 1626 -1095 
C 1587 -942 1581 -743 1574 -250 
C 1574 -161 1574 -78 1568 6 
L 1568 89 
L 1568 3379 
L 1568 3462 
C 1574 3532 1574 3615 1574 3705 
C 1574 4198 1587 4409 1626 4563 
L 1568 4646 
z
" transform="scale(0.015625)"/>
      </defs>
      <use xlink:href="#URWPalladioL-Ital-46" transform="scale(0.996264)"/>
      <use xlink:href="#CMR10-28" transform="translate(58.879133 0) scale(1.038107)"/>
      <use xlink:href="#URWPalladioL-Ital-74" transform="translate(101.618838 0) scale(0.996264)"/>
      <use xlink:href="#CMR10-29" transform="translate(137.284119 0) scale(1.038107)"/>
      <use xlink:href="#URWPalladioL-Roma-5b" transform="translate(203.685125 0) scale(0.996264)"/>
      <use xlink:href="#URWPalladioL-Roma-4e" transform="translate(236.860355 0) scale(0.996264)"/>
      <use xlink:href="#URWPalladioL-Roma-5d" transform="translate(319.649261 0) scale(0.996264)"/>
     </g>
    </g>
   </g>
   <g id="line2d_15">
    <path d="M 56.700505 68.4 
L 60.058713 46.565468 
L 62.073638 35.101086 
L 63.416921 28.574557 
L 64.760204 23.112028 
L 66.103487 18.80178 
L 67.44677 15.676496 
L 68.118411 14.553137 
L 68.790053 13.713163 
L 69.461695 13.145496 
L 70.133336 12.83612 
L 70.804978 12.768332 
L 71.476619 12.923027 
L 72.148261 13.279017 
L 72.819902 13.813369 
L 74.163185 15.31893 
L 75.506468 17.235599 
L 79.536318 23.430861 
L 80.879601 25.057652 
L 82.222884 26.248844 
L 82.894525 26.657535 
L 83.566167 26.934577 
L 84.237808 27.07817 
L 84.90945 27.089246 
L 85.581091 26.971381 
L 86.924375 26.375489 
L 88.267658 25.365805 
L 89.610941 24.047381 
L 94.984073 18.294677 
L 96.327356 17.370661 
L 97.670639 16.844337 
L 98.342281 16.745452 
L 99.013922 16.759615 
L 100.357205 17.123547 
L 101.700488 17.905809 
L 103.043771 19.040932 
L 105.058696 21.189136 
L 108.416904 24.901172 
L 109.760187 26.040268 
L 111.10347 26.801934 
L 111.775111 27.012644 
L 112.446753 27.098748 
L 113.118394 27.054778 
L 113.790036 26.877805 
L 114.461678 26.567573 
L 115.804961 25.560103 
L 117.148244 24.08572 
L 118.491527 22.24106 
L 123.193018 15.103982 
L 124.536301 13.664369 
L 125.207942 13.172376 
L 125.879584 12.864622 
L 126.551225 12.763636 
L 127.222867 12.890119 
L 127.894508 13.262602 
L 128.56615 13.897143 
L 129.237791 14.807045 
L 129.909433 16.002616 
L 130.581074 17.490974 
L 131.924358 21.357668 
L 133.267641 26.39549 
L 134.610924 32.536793 
L 135.954207 39.660009 
L 137.969131 51.801959 
L 141.998981 78.469913 
L 144.013905 91.254028 
L 146.02883 102.568586 
L 147.372113 108.968779 
L 148.715396 114.29098 
L 150.058679 118.45374 
L 150.730321 120.090119 
L 151.401962 121.4314 
L 152.073604 122.483043 
L 152.745245 123.253784 
L 153.416887 123.755455 
L 154.088528 124.002769 
L 154.76017 124.013058 
L 155.431811 123.805978 
L 156.103453 123.403188 
L 156.775094 122.827997 
L 158.118378 121.259693 
L 160.133302 118.250197 
L 162.819868 114.069881 
L 164.163151 112.306483 
L 165.506434 110.941415 
L 166.849718 110.060745 
L 167.521359 109.817004 
L 168.193001 109.706733 
L 168.864642 109.728328 
L 169.536284 109.877572 
L 170.879567 110.529995 
L 172.22285 111.584533 
L 173.566133 112.933026 
L 178.267624 118.07115 
L 179.610907 119.125958 
L 180.95419 119.808466 
L 182.297473 120.061635 
L 182.969114 120.019163 
L 184.312398 119.600528 
L 185.655681 118.7699 
L 186.998964 117.596851 
L 189.013888 115.418346 
L 191.700454 112.400685 
L 193.043737 111.148297 
L 194.387021 110.233232 
L 195.730304 109.753893 
L 196.401945 109.699891 
L 197.073587 109.77694 
L 197.745228 109.98731 
L 198.41687 110.330576 
L 199.760153 111.400237 
L 201.103436 112.927046 
L 202.446719 114.809173 
L 207.14821 121.90413 
L 208.491493 123.274611 
L 209.163134 123.722743 
L 209.834776 123.980852 
L 210.506417 124.026832 
L 211.178059 123.840495 
L 211.849701 123.403899 
L 212.521342 122.701652 
L 213.192984 121.721178 
L 213.864625 120.452949 
L 214.536267 118.890671 
L 215.87955 114.875799 
L 217.222833 109.695204 
L 218.566116 103.423452 
L 219.909399 96.188548 
L 221.924324 83.926145 
L 228.640739 40.611452 
L 229.984022 33.376548 
L 231.327305 27.104796 
L 232.670588 21.924201 
L 234.013871 17.909329 
L 234.685513 16.347051 
L 235.357154 15.078822 
L 236.028796 14.098348 
L 236.700437 13.396101 
L 237.372079 12.959505 
L 238.043721 12.773168 
L 238.715362 12.819148 
L 239.387004 13.077257 
L 240.058645 13.525389 
L 241.401928 14.89587 
L 242.745211 16.729302 
L 247.446702 23.872954 
L 248.789985 25.399763 
L 250.133268 26.469424 
L 250.80491 26.81269 
L 251.476551 27.02306 
L 252.148193 27.100109 
L 252.819834 27.046107 
L 253.491476 26.865903 
L 254.834759 26.158201 
L 256.178042 25.06051 
L 258.192967 22.931098 
L 261.551174 19.203149 
L 262.894457 18.0301 
L 264.237741 17.199472 
L 265.581024 16.780837 
L 266.252665 16.738365 
L 267.595948 16.991534 
L 268.939231 17.674042 
L 270.282514 18.72885 
L 271.625797 20.067173 
L 276.327288 25.215467 
L 277.670571 26.270005 
L 279.013854 26.922428 
L 279.685496 27.071672 
L 280.357137 27.093267 
L 281.028779 26.982996 
L 281.700421 26.739255 
L 282.372062 26.363155 
L 283.715345 25.232225 
L 285.058628 23.654586 
L 287.073553 20.695089 
L 290.43176 15.540307 
L 291.775044 13.972003 
L 292.446685 13.396812 
L 293.118327 12.994022 
L 293.789968 12.786942 
L 294.46161 12.797231 
L 295.133251 13.044545 
L 295.804893 13.546216 
L 296.476534 14.316957 
L 297.148176 15.3686 
L 297.819817 16.709881 
L 298.491459 18.34626 
L 299.834742 22.50902 
L 301.178025 27.831221 
L 302.521308 34.231414 
L 303.864591 41.575246 
L 305.879516 53.95285 
L 312.595931 97.139991 
L 313.939214 104.263207 
L 315.282497 110.40451 
L 316.62578 115.442332 
L 317.969064 119.309026 
L 318.640705 120.797384 
L 319.312347 121.992955 
L 319.983988 122.902857 
L 320.65563 123.537398 
L 321.327271 123.909881 
L 321.998913 124.036364 
L 322.670554 123.935378 
L 323.342196 123.627624 
L 324.013837 123.135631 
L 325.35712 121.696018 
L 326.700404 119.819336 
L 331.401894 112.71428 
L 332.745177 111.239897 
L 334.08846 110.232427 
L 334.760102 109.922195 
L 335.431744 109.745222 
L 336.103385 109.701252 
L 336.775027 109.787356 
L 337.446668 109.998066 
L 338.789951 110.759732 
L 340.133234 111.898828 
L 342.148159 114.060971 
L 344.834725 117.088111 
L 346.178008 118.365388 
L 347.521291 119.334301 
L 348.864574 119.913468 
L 350.207857 120.054548 
L 351.55114 119.745796 
L 352.894424 119.012929 
L 354.237707 117.917238 
L 356.252631 115.802235 
L 359.610839 112.062304 
L 360.954122 110.883596 
L 362.297405 110.069342 
L 362.969047 109.828619 
L 363.640688 109.710754 
L 364.31233 109.72183 
L 364.983971 109.865423 
L 365.655613 110.142465 
L 366.998896 111.086909 
L 368.342179 112.507351 
L 369.685462 114.312411 
L 372.372028 118.516984 
L 374.386953 121.48107 
L 375.730236 122.986631 
L 376.401877 123.520983 
L 377.073519 123.876973 
L 377.74516 124.031668 
L 378.416802 123.96388 
L 379.088443 123.654504 
L 379.760085 123.086837 
L 380.431727 122.246863 
L 381.103368 121.123504 
L 381.77501 119.708829 
L 383.118293 115.990494 
L 384.461576 111.096505 
L 385.804859 105.087557 
L 387.148142 98.0787 
L 389.163067 86.062359 
L 391.849633 68.4 
L 391.849633 68.4 
" clip-path="url(#p328fab376d)" style="fill: none; stroke: #1f77b4; stroke-width: 1.5; stroke-linecap: square"/>
   </g>
   <g id="patch_3">
    <path d="M 56.700505 129.6 
L 56.700505 7.2 
" style="fill: none; stroke: #000000; stroke-width: 0.8; stroke-linejoin: miter; stroke-linecap: square"/>
   </g>
   <g id="patch_4">
    <path d="M 408.607089 129.6 
L 408.607089 7.2 
" style="fill: none"/>
   </g>
   <g id="patch_5">
    <path d="M 39.943049 68.4 
L 408.607089 68.4 
" style="fill: none; stroke: #000000; stroke-width: 0.8; stroke-linejoin: miter; stroke-linecap: square"/>
   </g>
   <g id="patch_6">
    <path d="M 39.943049 7.2 
L 408.607089 7.2 
" style="fill: none"/>
   </g>
  </g>
 </g>
 <defs>
  <clipPath id="p328fab376d">
   <rect x="39.943049" y="7.2" width="368.66404" height="122.4"/>
  </clipPath>
 </defs>
</svg>
