<?xml version="1.0" encoding="utf-8" standalone="no"?>
<!DOCTYPE svg PUBLIC "-//W3C//DTD SVG 1.1//EN"
  "http://www.w3.org/Graphics/SVG/1.1/DTD/svg11.dtd">
<svg xmlns:xlink="http://www.w3.org/1999/xlink" width="383.681004pt" height="187.439415pt" viewBox="0 0 383.681004 187.439415" xmlns="http://www.w3.org/2000/svg" version="1.1">
 <metadata>
  <rdf:RDF xmlns:dc="http://purl.org/dc/elements/1.1/" xmlns:cc="http://creativecommons.org/ns#" xmlns:rdf="http://www.w3.org/1999/02/22-rdf-syntax-ns#">
   <cc:Work>
    <dc:type rdf:resource="http://purl.org/dc/dcmitype/StillImage"/>
    <dc:date>2023-08-10T16:02:13.666223</dc:date>
    <dc:format>image/svg+xml</dc:format>
    <dc:creator>
     <cc:Agent>
      <dc:title>Matplotlib v3.7.1, https://matplotlib.org/</dc:title>
     </cc:Agent>
    </dc:creator>
   </cc:Work>
  </rdf:RDF>
 </metadata>
 <defs>
  <style type="text/css">*{stroke-linejoin: round; stroke-linecap: butt}</style>
 </defs>
 <g id="figure_1">
  <g id="patch_1">
   <path d="M -0 187.439415 
L 383.681004 187.439415 
L 383.681004 0 
L -0 0 
z
" style="fill: #ffffff"/>
  </g>
  <g id="axes_1">
   <g id="patch_2">
    <path d="M 38.543694 149.364119 
L 367.763694 149.364119 
L 367.763694 10.764119 
L 38.543694 10.764119 
z
" style="fill: #ffffff"/>
   </g>
   <g id="matplotlib.axis_1">
    <g id="xtick_1">
     <g id="line2d_1">
      <path d="M 38.543694 149.364119 
L 38.543694 10.764119 
" clip-path="url(#p59d1484d95)" style="fill: none; stroke: #b0b0b0; stroke-width: 0.8; stroke-linecap: square"/>
     </g>
     <g id="line2d_2">
      <defs>
       <path id="m082dbe8ebe" d="M 0 0 
L 0 3.5 
" style="stroke: #000000; stroke-width: 0.8"/>
      </defs>
      <g>
       <use xlink:href="#m082dbe8ebe" x="38.543694" y="149.364119" style="stroke: #000000; stroke-width: 0.8"/>
      </g>
     </g>
     <g id="text_1">
      <!-- $\mathdefault{0.00}$ -->
      <g transform="translate(29.826384 163.492356) scale(0.1 -0.1)">
       <defs>
        <path id="URWPalladioL-Roma-30" d="M 1683 4416 
C 691 4416 186 3628 186 2076 
C 186 1326 320 679 544 365 
C 768 51 1126 -128 1523 -128 
C 2490 -128 2976 704 2976 2345 
C 2976 3749 2560 4416 1683 4416 
z
M 1568 4191 
C 2189 4191 2438 3563 2438 2025 
C 2438 660 2195 96 1606 96 
C 986 96 723 743 723 2307 
C 723 3660 960 4191 1568 4191 
z
" transform="scale(0.015625)"/>
        <path id="URWPalladioL-Roma-2e" d="M 794 678 
C 602 678 429 499 429 307 
C 429 115 602 -64 787 -64 
C 992 -64 1171 108 1171 307 
C 1171 499 992 678 794 678 
z
" transform="scale(0.015625)"/>
       </defs>
       <use xlink:href="#URWPalladioL-Roma-30" transform="scale(0.996264)"/>
       <use xlink:href="#URWPalladioL-Roma-2e" transform="translate(49.8132 0) scale(0.996264)"/>
       <use xlink:href="#URWPalladioL-Roma-30" transform="translate(74.719801 0) scale(0.996264)"/>
       <use xlink:href="#URWPalladioL-Roma-30" transform="translate(124.533001 0) scale(0.996264)"/>
      </g>
     </g>
    </g>
    <g id="xtick_2">
     <g id="line2d_3">
      <path d="M 79.696194 149.364119 
L 79.696194 10.764119 
" clip-path="url(#p59d1484d95)" style="fill: none; stroke: #b0b0b0; stroke-width: 0.8; stroke-linecap: square"/>
     </g>
     <g id="line2d_4">
      <g>
       <use xlink:href="#m082dbe8ebe" x="79.696194" y="149.364119" style="stroke: #000000; stroke-width: 0.8"/>
      </g>
     </g>
     <g id="text_2">
      <!-- $\mathdefault{0.25}$ -->
      <g transform="translate(70.978884 163.492356) scale(0.1 -0.1)">
       <defs>
        <path id="URWPalladioL-Roma-32" d="M 102 166 
L 102 0 
C 1299 0 1299 0 1530 0 
C 1760 19 1760 19 2995 0 
C 2982 134 2982 198 2982 287 
C 2982 370 2982 434 2995 574 
C 2259 542 1965 536 781 510 
L 1946 1741 
C 2566 2398 2758 2749 2758 3228 
C 2758 3961 2259 4416 1446 4416 
C 986 4416 672 4287 358 3967 
L 250 3100 
L 435 3100 
L 518 3394 
C 621 3763 851 3923 1280 3923 
C 1830 3923 2182 3578 2182 3036 
C 2182 2558 1914 2086 1190 1320 
L 102 166 
z
" transform="scale(0.015625)"/>
        <path id="URWPalladioL-Roma-35" d="M 813 3891 
C 1638 3865 1997 3859 2765 3859 
L 2797 3891 
C 2784 4006 2784 4057 2784 4140 
C 2784 4230 2784 4281 2797 4396 
L 2765 4428 
C 2285 4403 1997 4396 1651 4396 
C 1299 4396 1018 4403 538 4428 
L 506 4396 
C 512 4006 518 3724 518 3520 
C 518 2976 499 2360 480 2076 
L 608 2038 
C 909 2341 1082 2432 1395 2432 
C 2010 2432 2394 1992 2394 1295 
C 2394 579 1984 160 1286 160 
C 941 160 621 276 531 443 
L 237 973 
L 83 882 
C 230 514 307 308 397 25 
C 576 -71 832 -128 1107 -128 
C 1536 -128 1990 57 2342 366 
C 2733 715 2938 1153 2938 1631 
C 2938 2360 2419 2873 1690 2873 
C 1382 2873 1152 2790 755 2553 
L 813 3891 
z
" transform="scale(0.015625)"/>
       </defs>
       <use xlink:href="#URWPalladioL-Roma-30" transform="scale(0.996264)"/>
       <use xlink:href="#URWPalladioL-Roma-2e" transform="translate(49.8132 0) scale(0.996264)"/>
       <use xlink:href="#URWPalladioL-Roma-32" transform="translate(74.719801 0) scale(0.996264)"/>
       <use xlink:href="#URWPalladioL-Roma-35" transform="translate(124.533001 0) scale(0.996264)"/>
      </g>
     </g>
    </g>
    <g id="xtick_3">
     <g id="line2d_5">
      <path d="M 120.848694 149.364119 
L 120.848694 10.764119 
" clip-path="url(#p59d1484d95)" style="fill: none; stroke: #b0b0b0; stroke-width: 0.8; stroke-linecap: square"/>
     </g>
     <g id="line2d_6">
      <g>
       <use xlink:href="#m082dbe8ebe" x="120.848694" y="149.364119" style="stroke: #000000; stroke-width: 0.8"/>
      </g>
     </g>
     <g id="text_3">
      <!-- $\mathdefault{0.50}$ -->
      <g transform="translate(112.131384 163.492356) scale(0.1 -0.1)">
       <use xlink:href="#URWPalladioL-Roma-30" transform="scale(0.996264)"/>
       <use xlink:href="#URWPalladioL-Roma-2e" transform="translate(49.8132 0) scale(0.996264)"/>
       <use xlink:href="#URWPalladioL-Roma-35" transform="translate(74.719801 0) scale(0.996264)"/>
       <use xlink:href="#URWPalladioL-Roma-30" transform="translate(124.533001 0) scale(0.996264)"/>
      </g>
     </g>
    </g>
    <g id="xtick_4">
     <g id="line2d_7">
      <path d="M 162.001194 149.364119 
L 162.001194 10.764119 
" clip-path="url(#p59d1484d95)" style="fill: none; stroke: #b0b0b0; stroke-width: 0.8; stroke-linecap: square"/>
     </g>
     <g id="line2d_8">
      <g>
       <use xlink:href="#m082dbe8ebe" x="162.001194" y="149.364119" style="stroke: #000000; stroke-width: 0.8"/>
      </g>
     </g>
     <g id="text_4">
      <!-- $\mathdefault{0.75}$ -->
      <g transform="translate(153.283884 163.492356) scale(0.1 -0.1)">
       <defs>
        <path id="URWPalladioL-Roma-37" d="M 358 83 
L 416 0 
C 666 0 666 0 710 0 
C 755 19 755 19 1005 0 
C 1274 700 1587 1369 2010 2141 
L 3181 4255 
L 3181 4448 
C 2490 4422 2266 4416 1747 4416 
C 1280 4416 966 4422 346 4448 
L 282 4416 
C 301 3807 301 3807 301 3743 
C 301 3672 301 3672 282 3087 
L 474 3087 
L 518 3447 
C 570 3846 614 3897 909 3897 
L 2618 3897 
C 2362 3370 2163 2996 1920 2604 
L 358 83 
z
" transform="scale(0.015625)"/>
       </defs>
       <use xlink:href="#URWPalladioL-Roma-30" transform="scale(0.996264)"/>
       <use xlink:href="#URWPalladioL-Roma-2e" transform="translate(49.8132 0) scale(0.996264)"/>
       <use xlink:href="#URWPalladioL-Roma-37" transform="translate(74.719801 0) scale(0.996264)"/>
       <use xlink:href="#URWPalladioL-Roma-35" transform="translate(124.533001 0) scale(0.996264)"/>
      </g>
     </g>
    </g>
    <g id="xtick_5">
     <g id="line2d_9">
      <path d="M 203.153694 149.364119 
L 203.153694 10.764119 
" clip-path="url(#p59d1484d95)" style="fill: none; stroke: #b0b0b0; stroke-width: 0.8; stroke-linecap: square"/>
     </g>
     <g id="line2d_10">
      <g>
       <use xlink:href="#m082dbe8ebe" x="203.153694" y="149.364119" style="stroke: #000000; stroke-width: 0.8"/>
      </g>
     </g>
     <g id="text_5">
      <!-- $\mathdefault{1.00}$ -->
      <g transform="translate(194.436384 163.492356) scale(0.1 -0.1)">
       <defs>
        <path id="URWPalladioL-Roma-31" d="M 429 3571 
L 493 3571 
L 1318 3942 
C 1325 3949 1331 3949 1338 3949 
C 1376 3949 1389 3891 1389 3737 
L 1389 633 
C 1389 300 1318 230 973 211 
L 614 192 
L 614 0 
C 1600 0 1600 0 1670 0 
C 1754 0 1894 0 2112 -7 
C 2189 6 2413 6 2675 0 
L 2675 192 
L 2342 211 
C 1990 229 1926 299 1926 628 
L 1926 4383 
L 1837 4416 
C 1421 4199 966 4009 384 3807 
L 429 3571 
z
" transform="scale(0.015625)"/>
       </defs>
       <use xlink:href="#URWPalladioL-Roma-31" transform="scale(0.996264)"/>
       <use xlink:href="#URWPalladioL-Roma-2e" transform="translate(49.8132 0) scale(0.996264)"/>
       <use xlink:href="#URWPalladioL-Roma-30" transform="translate(74.719801 0) scale(0.996264)"/>
       <use xlink:href="#URWPalladioL-Roma-30" transform="translate(124.533001 0) scale(0.996264)"/>
      </g>
     </g>
    </g>
    <g id="xtick_6">
     <g id="line2d_11">
      <path d="M 244.306194 149.364119 
L 244.306194 10.764119 
" clip-path="url(#p59d1484d95)" style="fill: none; stroke: #b0b0b0; stroke-width: 0.8; stroke-linecap: square"/>
     </g>
     <g id="line2d_12">
      <g>
       <use xlink:href="#m082dbe8ebe" x="244.306194" y="149.364119" style="stroke: #000000; stroke-width: 0.8"/>
      </g>
     </g>
     <g id="text_6">
      <!-- $\mathdefault{1.25}$ -->
      <g transform="translate(235.588884 163.492356) scale(0.1 -0.1)">
       <use xlink:href="#URWPalladioL-Roma-31" transform="scale(0.996264)"/>
       <use xlink:href="#URWPalladioL-Roma-2e" transform="translate(49.8132 0) scale(0.996264)"/>
       <use xlink:href="#URWPalladioL-Roma-32" transform="translate(74.719801 0) scale(0.996264)"/>
       <use xlink:href="#URWPalladioL-Roma-35" transform="translate(124.533001 0) scale(0.996264)"/>
      </g>
     </g>
    </g>
    <g id="xtick_7">
     <g id="line2d_13">
      <path d="M 285.458694 149.364119 
L 285.458694 10.764119 
" clip-path="url(#p59d1484d95)" style="fill: none; stroke: #b0b0b0; stroke-width: 0.8; stroke-linecap: square"/>
     </g>
     <g id="line2d_14">
      <g>
       <use xlink:href="#m082dbe8ebe" x="285.458694" y="149.364119" style="stroke: #000000; stroke-width: 0.8"/>
      </g>
     </g>
     <g id="text_7">
      <!-- $\mathdefault{1.50}$ -->
      <g transform="translate(276.741384 163.492356) scale(0.1 -0.1)">
       <use xlink:href="#URWPalladioL-Roma-31" transform="scale(0.996264)"/>
       <use xlink:href="#URWPalladioL-Roma-2e" transform="translate(49.8132 0) scale(0.996264)"/>
       <use xlink:href="#URWPalladioL-Roma-35" transform="translate(74.719801 0) scale(0.996264)"/>
       <use xlink:href="#URWPalladioL-Roma-30" transform="translate(124.533001 0) scale(0.996264)"/>
      </g>
     </g>
    </g>
    <g id="xtick_8">
     <g id="line2d_15">
      <path d="M 326.611194 149.364119 
L 326.611194 10.764119 
" clip-path="url(#p59d1484d95)" style="fill: none; stroke: #b0b0b0; stroke-width: 0.8; stroke-linecap: square"/>
     </g>
     <g id="line2d_16">
      <g>
       <use xlink:href="#m082dbe8ebe" x="326.611194" y="149.364119" style="stroke: #000000; stroke-width: 0.8"/>
      </g>
     </g>
     <g id="text_8">
      <!-- $\mathdefault{1.75}$ -->
      <g transform="translate(317.893884 163.492356) scale(0.1 -0.1)">
       <use xlink:href="#URWPalladioL-Roma-31" transform="scale(0.996264)"/>
       <use xlink:href="#URWPalladioL-Roma-2e" transform="translate(49.8132 0) scale(0.996264)"/>
       <use xlink:href="#URWPalladioL-Roma-37" transform="translate(74.719801 0) scale(0.996264)"/>
       <use xlink:href="#URWPalladioL-Roma-35" transform="translate(124.533001 0) scale(0.996264)"/>
      </g>
     </g>
    </g>
    <g id="xtick_9">
     <g id="line2d_17">
      <path d="M 367.763694 149.364119 
L 367.763694 10.764119 
" clip-path="url(#p59d1484d95)" style="fill: none; stroke: #b0b0b0; stroke-width: 0.8; stroke-linecap: square"/>
     </g>
     <g id="line2d_18">
      <g>
       <use xlink:href="#m082dbe8ebe" x="367.763694" y="149.364119" style="stroke: #000000; stroke-width: 0.8"/>
      </g>
     </g>
     <g id="text_9">
      <!-- $\mathdefault{2.00}$ -->
      <g transform="translate(359.046384 163.492356) scale(0.1 -0.1)">
       <use xlink:href="#URWPalladioL-Roma-32" transform="scale(0.996264)"/>
       <use xlink:href="#URWPalladioL-Roma-2e" transform="translate(49.8132 0) scale(0.996264)"/>
       <use xlink:href="#URWPalladioL-Roma-30" transform="translate(74.719801 0) scale(0.996264)"/>
       <use xlink:href="#URWPalladioL-Roma-30" transform="translate(124.533001 0) scale(0.996264)"/>
      </g>
     </g>
    </g>
    <g id="text_10">
     <!-- $\omega / \omega_n$ -->
     <g transform="translate(190.184673 177.430004) scale(0.1 -0.1)">
      <defs>
       <path id="PazoMath-Italic-77" d="M 1440 3072 
C 1274 2951 986 2741 819 2588 
C 352 2163 96 1610 96 1127 
C 96 758 115 440 326 192 
C 467 25 614 -64 851 -64 
C 1037 -64 1280 38 1459 140 
C 1709 281 1837 409 2061 593 
C 2125 198 2387 -64 2752 -64 
C 3034 -64 3296 64 3603 351 
C 3878 612 4160 1012 4346 1413 
C 4506 1750 4614 2182 4614 2449 
C 4614 2817 4454 3072 4218 3072 
C 4128 3072 4064 3046 4006 2995 
L 3686 2697 
L 3757 2576 
C 3814 2614 3866 2633 3930 2633 
C 4109 2633 4198 2487 4198 2233 
C 4198 1285 3584 256 3021 256 
C 2707 256 2509 516 2509 936 
C 2509 1031 2509 1114 2547 1279 
L 2669 1768 
C 2694 1876 2733 1965 2771 2073 
L 2701 2162 
L 2285 1997 
L 2112 1222 
C 2035 1006 1971 739 1786 580 
C 1606 428 1421 326 1203 326 
C 1018 326 858 409 755 536 
C 621 682 582 911 582 1101 
C 582 1686 736 2201 1286 2716 
C 1357 2779 1478 2887 1542 2957 
L 1440 3072 
z
" transform="scale(0.015625)"/>
       <path id="URWPalladioL-Roma-2f" d="M 3322 4646 
L 2938 4646 
L 557 -762 
L 941 -762 
L 3322 4646 
z
" transform="scale(0.015625)"/>
       <path id="URWPalladioL-Ital-6e" d="M 154 2471 
L 198 2343 
L 403 2477 
C 640 2624 659 2637 704 2637 
C 774 2637 819 2573 819 2477 
C 819 2152 557 919 294 6 
L 339 -64 
C 499 -20 646 19 787 44 
C 909 849 1043 1264 1338 1705 
C 1683 2241 2163 2637 2451 2637 
C 2522 2637 2560 2579 2560 2484 
C 2560 2369 2541 2235 2490 2030 
L 2157 677 
C 2099 440 2074 293 2074 191 
C 2074 32 2144 -64 2266 -64 
C 2432 -64 2662 70 3290 536 
L 3226 651 
L 3059 542 
C 2874 421 2733 351 2669 351 
C 2624 351 2586 408 2586 479 
C 2586 511 2592 581 2598 606 
L 3021 2369 
C 3066 2554 3091 2733 3091 2841 
C 3091 2988 3021 3072 2893 3072 
C 2624 3072 2182 2829 1805 2477 
C 1562 2254 1382 2037 1050 1571 
L 1293 2599 
C 1318 2714 1331 2790 1331 2860 
C 1331 2995 1280 3072 1184 3072 
C 1050 3072 800 2931 333 2599 
L 154 2471 
z
" transform="scale(0.015625)"/>
      </defs>
      <use xlink:href="#PazoMath-Italic-77" transform="scale(0.996264)"/>
      <use xlink:href="#URWPalladioL-Roma-2f" transform="translate(78.604221 0) scale(0.996264)"/>
      <use xlink:href="#PazoMath-Italic-77" transform="translate(141.468425 0) scale(0.996264)"/>
      <use xlink:href="#URWPalladioL-Ital-6e" transform="translate(217.28315 -14.943915) scale(0.757155)"/>
     </g>
    </g>
   </g>
   <g id="matplotlib.axis_2">
    <g id="ytick_1">
     <g id="line2d_19">
      <path d="M 38.543694 149.364119 
L 367.763694 149.364119 
" clip-path="url(#p59d1484d95)" style="fill: none; stroke: #b0b0b0; stroke-width: 0.8; stroke-linecap: square"/>
     </g>
     <g id="line2d_20">
      <defs>
       <path id="mb9b956079c" d="M 0 0 
L -3.5 0 
" style="stroke: #000000; stroke-width: 0.8"/>
      </defs>
      <g>
       <use xlink:href="#mb9b956079c" x="38.543694" y="149.364119" style="stroke: #000000; stroke-width: 0.8"/>
      </g>
     </g>
     <g id="text_11">
      <!-- $\mathdefault{0}$ -->
      <g transform="translate(26.562374 152.928237) scale(0.1 -0.1)">
       <use xlink:href="#URWPalladioL-Roma-30" transform="scale(0.996264)"/>
      </g>
     </g>
    </g>
    <g id="ytick_2">
     <g id="line2d_21">
      <path d="M 38.543694 121.644119 
L 367.763694 121.644119 
" clip-path="url(#p59d1484d95)" style="fill: none; stroke: #b0b0b0; stroke-width: 0.8; stroke-linecap: square"/>
     </g>
     <g id="line2d_22">
      <g>
       <use xlink:href="#mb9b956079c" x="38.543694" y="121.644119" style="stroke: #000000; stroke-width: 0.8"/>
      </g>
     </g>
     <g id="text_12">
      <!-- $\mathdefault{2}$ -->
      <g transform="translate(26.562374 125.208237) scale(0.1 -0.1)">
       <use xlink:href="#URWPalladioL-Roma-32" transform="scale(0.996264)"/>
      </g>
     </g>
    </g>
    <g id="ytick_3">
     <g id="line2d_23">
      <path d="M 38.543694 93.924119 
L 367.763694 93.924119 
" clip-path="url(#p59d1484d95)" style="fill: none; stroke: #b0b0b0; stroke-width: 0.8; stroke-linecap: square"/>
     </g>
     <g id="line2d_24">
      <g>
       <use xlink:href="#mb9b956079c" x="38.543694" y="93.924119" style="stroke: #000000; stroke-width: 0.8"/>
      </g>
     </g>
     <g id="text_13">
      <!-- $\mathdefault{4}$ -->
      <g transform="translate(26.562374 97.488237) scale(0.1 -0.1)">
       <defs>
        <path id="URWPalladioL-Roma-34" d="M 1792 1152 
L 1792 684 
C 1792 310 1722 223 1408 210 
L 1011 192 
L 1011 0 
C 1862 0 1862 0 2016 0 
C 2170 19 2170 19 3021 0 
L 3021 192 
L 2714 210 
C 2400 229 2330 310 2330 684 
L 2330 1152 
C 2707 1152 2842 1145 3021 1127 
L 3021 1580 
C 2720 1555 2598 1555 2502 1561 
L 2483 1561 
L 2330 1561 
L 2330 2445 
C 2330 3576 2342 4122 2374 4383 
L 2298 4416 
L 1824 4243 
L 13 1299 
L 83 1152 
L 1792 1152 
z
M 1792 1561 
L 416 1561 
L 1792 3798 
L 1792 1561 
z
" transform="scale(0.015625)"/>
       </defs>
       <use xlink:href="#URWPalladioL-Roma-34" transform="scale(0.996264)"/>
      </g>
     </g>
    </g>
    <g id="ytick_4">
     <g id="line2d_25">
      <path d="M 38.543694 66.204119 
L 367.763694 66.204119 
" clip-path="url(#p59d1484d95)" style="fill: none; stroke: #b0b0b0; stroke-width: 0.8; stroke-linecap: square"/>
     </g>
     <g id="line2d_26">
      <g>
       <use xlink:href="#mb9b956079c" x="38.543694" y="66.204119" style="stroke: #000000; stroke-width: 0.8"/>
      </g>
     </g>
     <g id="text_14">
      <!-- $\mathdefault{6}$ -->
      <g transform="translate(26.562374 69.768237) scale(0.1 -0.1)">
       <defs>
        <path id="URWPalladioL-Roma-36" d="M 2662 4287 
L 2426 4396 
C 1811 4193 1549 4066 1222 3788 
C 563 3237 205 2463 205 1585 
C 205 526 717 -128 1542 -128 
C 2374 -128 2995 532 2995 1405 
C 2995 2143 2554 2624 1875 2624 
C 1555 2624 1363 2540 986 2239 
C 915 2182 909 2175 838 2124 
C 973 3275 1510 3895 2662 4237 
L 2662 4287 
z
M 1632 2239 
C 2118 2239 2445 1816 2445 1180 
C 2445 513 2118 83 1626 83 
C 1082 83 787 551 787 1411 
C 787 1636 813 1758 883 1867 
C 1024 2085 1325 2239 1632 2239 
z
" transform="scale(0.015625)"/>
       </defs>
       <use xlink:href="#URWPalladioL-Roma-36" transform="scale(0.996264)"/>
      </g>
     </g>
    </g>
    <g id="ytick_5">
     <g id="line2d_27">
      <path d="M 38.543694 38.484119 
L 367.763694 38.484119 
" clip-path="url(#p59d1484d95)" style="fill: none; stroke: #b0b0b0; stroke-width: 0.8; stroke-linecap: square"/>
     </g>
     <g id="line2d_28">
      <g>
       <use xlink:href="#mb9b956079c" x="38.543694" y="38.484119" style="stroke: #000000; stroke-width: 0.8"/>
      </g>
     </g>
     <g id="text_15">
      <!-- $\mathdefault{8}$ -->
      <g transform="translate(26.562374 42.048237) scale(0.1 -0.1)">
       <defs>
        <path id="URWPalladioL-Roma-38" d="M 1075 2211 
C 813 2089 704 2019 563 1884 
C 320 1640 192 1352 192 1019 
C 192 358 723 -128 1446 -128 
C 2278 -128 2970 525 2970 1320 
C 2970 1833 2733 2108 2003 2442 
C 2586 2839 2790 3108 2790 3493 
C 2790 4044 2336 4416 1658 4416 
C 896 4416 339 3929 339 3256 
C 339 2820 512 2576 1075 2211 
z
M 1818 1890 
C 2221 1711 2464 1397 2464 1051 
C 2464 512 2061 89 1542 89 
C 998 89 646 474 646 1070 
C 646 1538 832 1833 1306 2121 
L 1818 1890 
z
M 1427 2711 
C 1024 2910 819 3166 819 3486 
C 819 3910 1126 4198 1581 4198 
C 2048 4198 2355 3890 2355 3422 
C 2355 3057 2195 2807 1779 2538 
L 1427 2711 
z
" transform="scale(0.015625)"/>
       </defs>
       <use xlink:href="#URWPalladioL-Roma-38" transform="scale(0.996264)"/>
      </g>
     </g>
    </g>
    <g id="ytick_6">
     <g id="line2d_29">
      <path d="M 38.543694 10.764119 
L 367.763694 10.764119 
" clip-path="url(#p59d1484d95)" style="fill: none; stroke: #b0b0b0; stroke-width: 0.8; stroke-linecap: square"/>
     </g>
     <g id="line2d_30">
      <g>
       <use xlink:href="#mb9b956079c" x="38.543694" y="10.764119" style="stroke: #000000; stroke-width: 0.8"/>
      </g>
     </g>
     <g id="text_16">
      <!-- $\mathdefault{10}$ -->
      <g transform="translate(21.581054 14.328237) scale(0.1 -0.1)">
       <use xlink:href="#URWPalladioL-Roma-31" transform="scale(0.996264)"/>
       <use xlink:href="#URWPalladioL-Roma-30" transform="translate(49.8132 0) scale(0.996264)"/>
      </g>
     </g>
    </g>
    <g id="text_17">
     <!-- $V(\omega)$ -->
     <g transform="translate(14.771643 92.080094) rotate(-90) scale(0.1 -0.1)">
      <defs>
       <path id="URWPalladioL-Ital-56" d="M 1984 601 
L 1530 3981 
L 1523 4025 
C 1510 4147 1606 4217 1798 4224 
L 2067 4237 
L 2067 4416 
L 1805 4409 
C 1568 4403 1389 4396 1274 4396 
C 1158 4396 979 4403 742 4409 
L 480 4416 
L 480 4237 
L 640 4224 
C 922 4205 973 4153 1018 3917 
L 1581 -64 
L 1894 -64 
L 4314 3897 
C 4474 4153 4525 4198 4710 4224 
L 4826 4237 
L 4826 4416 
L 4634 4409 
C 4461 4403 4314 4396 4211 4396 
C 4147 4396 3974 4403 3712 4409 
L 3418 4416 
L 3418 4237 
L 3584 4224 
C 3827 4205 3949 4141 3949 4019 
C 3949 3949 3923 3878 3846 3750 
L 1984 601 
z
" transform="scale(0.015625)"/>
       <path id="CMR10-28" d="M 2118 -1536 
C 2118 -1517 2118 -1504 2010 -1396 
C 1210 -589 1005 620 1005 1600 
C 1005 2713 1248 3827 2035 4627 
C 2118 4704 2118 4716 2118 4736 
C 2118 4780 2093 4800 2054 4800 
C 1990 4800 1414 4365 1037 3552 
C 710 2848 634 2137 634 1600 
C 634 1100 704 326 1056 -397 
C 1440 -1184 1990 -1600 2054 -1600 
C 2093 -1600 2118 -1581 2118 -1536 
z
" transform="scale(0.015625)"/>
       <path id="CMR10-29" d="M 1850 1600 
C 1850 2099 1779 2873 1427 3597 
C 1043 4384 493 4800 429 4800 
C 390 4800 365 4774 365 4736 
C 365 4716 365 4704 486 4589 
C 1114 3955 1478 2937 1478 1600 
C 1478 505 1242 -621 448 -1428 
C 365 -1504 365 -1517 365 -1536 
C 365 -1575 390 -1600 429 -1600 
C 493 -1600 1069 -1165 1446 -352 
C 1773 352 1850 1062 1850 1600 
z
" transform="scale(0.015625)"/>
      </defs>
      <use xlink:href="#URWPalladioL-Ital-56" transform="scale(0.996264)"/>
      <use xlink:href="#CMR10-28" transform="translate(78.605163 0) scale(1.038107)"/>
      <use xlink:href="#PazoMath-Italic-77" transform="translate(121.344868 0) scale(0.996264)"/>
      <use xlink:href="#CMR10-29" transform="translate(199.949089 0) scale(1.038107)"/>
     </g>
    </g>
   </g>
   <g id="line2d_31">
    <path d="M 38.543694 135.504119 
L 53.373424 135.390707 
L 67.544054 135.060152 
L 80.726036 134.530003 
L 92.58982 133.829494 
L 102.805856 133.011976 
L 112.033244 132.053953 
L 119.942433 131.01805 
L 126.862973 129.90134 
L 133.124415 128.673353 
L 138.726757 127.349986 
L 143.67 125.957519 
L 147.954145 124.535237 
L 151.908739 122.999668 
L 155.533784 121.357911 
L 158.82928 119.62371 
L 161.795226 117.819333 
L 164.431622 115.977377 
L 167.068018 113.860375 
L 169.374865 111.73188 
L 171.681712 109.286428 
L 173.659009 106.881774 
L 175.636307 104.127577 
L 177.613604 100.942737 
L 179.261352 97.882667 
L 180.909099 94.366032 
L 182.556847 90.283312 
L 184.204595 85.486893 
L 185.522793 81.001467 
L 186.840991 75.788479 
L 188.15919 69.65608 
L 189.477388 62.338457 
L 190.795586 53.456378 
L 191.784235 45.440828 
L 192.772883 35.896305 
L 193.761532 24.339996 
L 194.750181 10.061885 
L 195.38275 -1 
M 210.573253 -1 
L 211.557208 16.996404 
L 212.545856 31.275641 
L 213.534505 42.833202 
L 214.852703 55.202185 
L 216.170901 65.063528 
L 217.489099 73.109019 
L 218.807298 79.797423 
L 220.125496 85.444978 
L 221.443694 90.27675 
L 223.091442 95.415804 
L 224.73919 99.76805 
L 226.386937 103.500923 
L 228.034685 106.737504 
L 230.011982 110.094938 
L 231.98928 112.989669 
L 233.966577 115.510807 
L 236.273424 118.069265 
L 238.580271 120.292157 
L 241.216667 122.500027 
L 243.853063 124.419268 
L 246.819009 126.298571 
L 250.114505 128.105089 
L 253.73955 129.816903 
L 257.694145 131.42105 
L 261.978289 132.911498 
L 266.591982 134.28731 
L 271.864775 135.628728 
L 277.796667 136.905993 
L 284.717208 138.155122 
L 292.296847 139.294008 
L 301.194685 140.398614 
L 311.410721 141.434281 
L 323.274505 142.406165 
L 337.115586 143.311507 
L 353.593063 144.159592 
L 367.763694 144.744119 
L 367.763694 144.744119 
" clip-path="url(#p59d1484d95)" style="fill: none; stroke: #1f77b4; stroke-width: 1.5; stroke-linecap: square"/>
   </g>
   <g id="line2d_32">
    <path d="M 38.543694 135.504119 
L 53.373424 135.39073 
L 67.544054 135.060246 
L 80.726036 134.530226 
L 92.58982 133.829915 
L 102.805856 133.01267 
L 112.033244 132.055029 
L 119.942433 131.019622 
L 126.862973 129.90355 
L 133.124415 128.676397 
L 138.726757 127.354099 
L 143.67 125.962963 
L 147.954145 124.542275 
L 151.908739 123.008712 
L 155.533784 121.369456 
L 158.82928 119.638323 
L 161.795226 117.837639 
L 164.431622 116.000015 
L 167.068018 113.888746 
L 169.374865 111.766881 
L 171.681712 109.3302 
L 173.659009 106.935453 
L 175.636307 104.194278 
L 177.613604 101.026884 
L 179.261352 97.986164 
L 180.909099 94.495127 
L 182.556847 90.446966 
L 184.204595 85.698317 
L 185.522793 81.265125 
L 186.840991 76.122745 
L 188.15919 70.088105 
L 189.477388 62.909689 
L 190.795586 54.23259 
L 191.784235 46.438954 
L 192.772883 37.208378 
L 193.761532 26.110726 
L 194.750181 12.529089 
L 195.552751 -1 
M 210.387709 -1 
L 211.227658 14.369194 
L 212.216307 28.938775 
L 213.204955 40.766596 
L 214.523154 53.44671 
L 215.841352 63.56376 
L 217.15955 71.817869 
L 218.477748 78.676915 
L 219.795946 84.464963 
L 221.114145 89.413337 
L 222.761892 94.671864 
L 224.40964 99.120965 
L 226.057388 102.933305 
L 227.705135 106.23581 
L 229.682433 109.658457 
L 231.65973 112.60663 
L 233.637027 115.172084 
L 235.943874 117.773278 
L 238.250721 120.031389 
L 240.887117 122.272405 
L 243.523514 124.218919 
L 246.48946 126.123493 
L 249.784955 127.952926 
L 253.41 129.685171 
L 257.364595 131.307299 
L 261.648739 132.813422 
L 266.262433 134.202798 
L 271.535226 135.556588 
L 277.467117 136.844834 
L 284.058108 138.049003 
L 291.637748 139.205571 
L 300.206036 140.288247 
L 310.092523 141.313749 
L 321.626757 142.28452 
L 335.138289 143.195287 
L 351.286217 144.053563 
L 367.763694 144.744529 
L 367.763694 144.744529 
" clip-path="url(#p59d1484d95)" style="fill: none; stroke: #ff7f0e; stroke-width: 1.5; stroke-linecap: square"/>
   </g>
   <g id="line2d_33">
    <path d="M 38.543694 135.504119 
L 53.373424 135.391284 
L 67.544054 135.062515 
L 80.726036 134.535579 
L 92.58982 133.840002 
L 103.135406 132.999278 
L 112.362793 132.042402 
L 120.271982 131.009547 
L 127.522072 129.839607 
L 133.783514 128.608099 
L 139.385856 127.28359 
L 144.329099 125.893188 
L 148.942793 124.358407 
L 152.897388 122.814539 
L 156.522433 121.168752 
L 159.817928 119.436452 
L 162.783874 117.641608 
L 165.74982 115.573061 
L 168.386217 113.453523 
L 170.693063 111.335186 
L 172.99991 108.919083 
L 175.306757 106.142138 
L 177.284054 103.413928 
L 179.261352 100.296834 
L 181.238649 96.709631 
L 182.886397 93.288112 
L 184.534145 89.396561 
L 186.181892 84.947198 
L 187.82964 79.83613 
L 189.477388 73.94462 
L 191.125135 67.146776 
L 192.772883 59.331711 
L 194.420631 50.455453 
L 196.727478 36.554283 
L 199.363874 20.768925 
L 200.352523 16.003885 
L 201.011622 13.52094 
L 201.670721 11.740279 
L 202.32982 10.763078 
L 202.65937 10.597457 
L 202.988919 10.653064 
L 203.318469 10.93043 
L 203.648018 11.426906 
L 204.307117 13.051357 
L 204.966217 15.447992 
L 205.954865 20.238739 
L 207.273063 28.152329 
L 212.216307 59.771819 
L 213.864054 68.527123 
L 215.511802 76.139628 
L 217.15955 82.717392 
L 218.807298 88.399788 
L 220.455045 93.323444 
L 222.102793 97.609556 
L 223.750541 101.360893 
L 225.727838 105.275654 
L 227.705135 108.661641 
L 229.682433 111.612957 
L 231.65973 114.204071 
L 233.966577 116.850174 
L 236.273424 119.160468 
L 238.90982 121.463397 
L 241.546217 123.470382 
L 244.512163 125.438861 
L 247.807658 127.332964 
L 251.103154 128.976064 
L 254.728199 130.547791 
L 259.012343 132.147779 
L 263.626036 133.620864 
L 268.898829 135.053067 
L 274.501172 136.343033 
L 281.092163 137.621909 
L 288.342253 138.797415 
L 296.580991 139.907724 
L 306.137928 140.967594 
L 317.342613 141.977077 
L 330.195045 142.907096 
L 345.354325 143.777661 
L 363.47955 144.590227 
L 367.763694 144.754351 
L 367.763694 144.754351 
" clip-path="url(#p59d1484d95)" style="fill: none; stroke: #2ca02c; stroke-width: 1.5; stroke-linecap: square"/>
   </g>
   <g id="line2d_34">
    <path d="M 38.543694 135.504119 
L 53.373424 135.393012 
L 67.544054 135.069599 
L 80.726036 134.55227 
L 92.58982 133.871399 
L 103.135406 133.051717 
L 112.362793 132.123444 
L 120.601532 131.081181 
L 127.851622 129.950766 
L 134.442613 128.702052 
L 140.374505 127.349705 
L 145.647298 125.918462 
L 150.260991 124.445548 
L 154.545135 122.850468 
L 158.49973 121.140642 
L 162.124775 119.330522 
L 165.420271 117.443239 
L 168.386217 115.511843 
L 171.352163 113.322431 
L 174.318108 110.834157 
L 176.954505 108.33624 
L 179.590901 105.53842 
L 182.227298 102.418688 
L 184.863694 98.97348 
L 188.15919 94.267064 
L 194.750181 84.684985 
L 196.397928 82.717089 
L 197.716126 81.428444 
L 199.034325 80.464094 
L 200.022973 79.988156 
L 201.011622 79.745143 
L 202.000271 79.747006 
L 202.988919 79.998158 
L 203.977568 80.495015 
L 204.966217 81.226227 
L 206.284415 82.533448 
L 207.602613 84.166914 
L 209.250361 86.564849 
L 211.557208 90.346463 
L 218.807298 102.552409 
L 221.443694 106.469485 
L 224.08009 109.995028 
L 226.716487 113.13829 
L 229.352883 115.929262 
L 231.98928 118.405512 
L 234.955226 120.862643 
L 237.921172 123.020247 
L 241.216667 125.119909 
L 244.512163 126.955647 
L 248.137208 128.720488 
L 252.091802 130.393497 
L 256.375946 131.961802 
L 260.98964 133.419076 
L 266.262433 134.846757 
L 272.194325 136.210629 
L 278.785316 137.488652 
L 286.035406 138.668791 
L 294.603694 139.828124 
L 304.160631 140.891705 
L 315.365316 141.90744 
L 328.217748 142.845103 
L 343.377027 143.72407 
L 361.502253 144.545239 
L 367.763694 144.784646 
L 367.763694 144.784646 
" clip-path="url(#p59d1484d95)" style="fill: none; stroke: #d62728; stroke-width: 1.5; stroke-linecap: square"/>
   </g>
   <g id="line2d_35">
    <path d="M 38.543694 135.504119 
L 53.702973 135.395204 
L 68.532703 135.068859 
L 82.373784 134.543553 
L 94.896667 133.849642 
L 106.101352 133.012312 
L 116.317388 132.026763 
L 125.215226 130.953588 
L 133.453964 129.740069 
L 141.033604 128.397473 
L 147.954145 126.947825 
L 154.545135 125.340838 
L 161.136126 123.496385 
L 168.056667 121.315762 
L 185.852343 115.52902 
L 189.477388 114.701408 
L 192.443334 114.239643 
L 195.40928 114.015848 
L 198.045676 114.040664 
L 200.682072 114.286141 
L 203.318469 114.749202 
L 206.284415 115.510722 
L 209.57991 116.611323 
L 213.534505 118.195874 
L 219.136847 120.714633 
L 230.011982 125.63084 
L 235.614325 127.902363 
L 241.216667 129.932084 
L 246.819009 131.722299 
L 252.750901 133.378337 
L 259.012343 134.891862 
L 265.932883 136.326696 
L 273.512523 137.660792 
L 281.751262 138.8828 
L 290.978649 140.026999 
L 301.524235 141.107772 
L 313.717568 142.126593 
L 327.888199 143.077904 
L 344.365676 143.953844 
L 363.809099 144.759627 
L 367.763694 144.900113 
L 367.763694 144.900113 
" clip-path="url(#p59d1484d95)" style="fill: none; stroke: #9467bd; stroke-width: 1.5; stroke-linecap: square"/>
   </g>
   <g id="line2d_36">
    <path d="M 38.543694 135.504119 
L 59.305316 135.394341 
L 80.726036 135.058305 
L 105.442253 134.436829 
L 143.67 133.44979 
L 156.851982 133.362893 
L 168.056667 133.509035 
L 178.602253 133.869643 
L 189.477388 134.471233 
L 201.670721 135.380409 
L 218.477748 136.881279 
L 251.762253 139.883389 
L 269.887478 141.26164 
L 288.012703 142.41537 
L 307.456126 143.429061 
L 329.206397 144.337742 
L 354.252163 145.156827 
L 367.763694 145.520046 
L 367.763694 145.520046 
" clip-path="url(#p59d1484d95)" style="fill: none; stroke: #8c564b; stroke-width: 1.5; stroke-linecap: square"/>
   </g>
   <g id="line2d_37">
    <path d="M 38.543694 135.504119 
L 101.817208 135.613147 
L 122.908379 135.892487 
L 141.033604 136.353177 
L 158.49973 137.020408 
L 177.943154 137.992829 
L 207.932163 139.75143 
L 244.182613 141.81759 
L 269.887478 143.052546 
L 295.921892 144.079629 
L 324.263154 144.971599 
L 356.559009 145.759096 
L 367.763694 145.986643 
L 367.763694 145.986643 
" clip-path="url(#p59d1484d95)" style="fill: none; stroke: #e377c2; stroke-width: 1.5; stroke-linecap: square"/>
   </g>
   <g id="patch_3">
    <path d="M 38.543694 149.364119 
L 38.543694 10.764119 
" style="fill: none; stroke: #000000; stroke-width: 0.8; stroke-linejoin: miter; stroke-linecap: square"/>
   </g>
   <g id="patch_4">
    <path d="M 367.763694 149.364119 
L 367.763694 10.764119 
" style="fill: none; stroke: #000000; stroke-width: 0.8; stroke-linejoin: miter; stroke-linecap: square"/>
   </g>
   <g id="patch_5">
    <path d="M 38.543694 149.364119 
L 367.763694 149.364119 
" style="fill: none; stroke: #000000; stroke-width: 0.8; stroke-linejoin: miter; stroke-linecap: square"/>
   </g>
   <g id="patch_6">
    <path d="M 38.543694 10.764119 
L 367.763694 10.764119 
" style="fill: none; stroke: #000000; stroke-width: 0.8; stroke-linejoin: miter; stroke-linecap: square"/>
   </g>
   <g id="legend_1">
    <g id="patch_7">
     <path d="M 45.543694 123.327657 
L 113.877748 123.327657 
Q 115.877748 123.327657 115.877748 121.327657 
L 115.877748 17.764119 
Q 115.877748 15.764119 113.877748 15.764119 
L 45.543694 15.764119 
Q 43.543694 15.764119 43.543694 17.764119 
L 43.543694 121.327657 
Q 43.543694 123.327657 45.543694 123.327657 
z
" style="fill: #ffffff; opacity: 0.8; stroke: #cccccc; stroke-linejoin: miter"/>
    </g>
    <g id="line2d_38">
     <path d="M 47.543694 23.392356 
L 57.543694 23.392356 
L 67.543694 23.392356 
" style="fill: none; stroke: #1f77b4; stroke-width: 1.5; stroke-linecap: square"/>
    </g>
    <g id="text_18">
     <!-- $\zeta = 0.0$ -->
     <g transform="translate(75.543694 26.892356) scale(0.1 -0.1)">
      <defs>
       <path id="PazoMath-Italic-7a" d="M 774 3700 
L 909 3700 
L 1101 4070 
C 1210 4096 1267 4102 1350 4102 
C 1440 4102 1510 4096 1638 4070 
C 1856 4025 2022 4006 2157 4006 
L 2182 4006 
L 1971 3834 
C 1510 3445 1114 2954 768 2469 
C 416 1978 186 1448 186 874 
C 186 262 454 -64 966 -64 
C 1114 -66 1638 0 1830 0 
C 2048 0 2157 -119 2157 -342 
C 2157 -388 2150 -428 2144 -480 
C 1990 -947 1670 -1204 1389 -1204 
C 1165 -1204 992 -1026 992 -796 
C 992 -763 998 -711 1005 -651 
L 941 -625 
L 634 -849 
C 627 -895 627 -934 627 -967 
C 627 -1248 864 -1472 1152 -1472 
C 1510 -1472 1952 -1164 2240 -789 
C 2470 -494 2515 -165 2515 63 
C 2515 121 2496 172 2458 210 
C 2368 312 2182 325 2048 325 
C 1862 326 1421 262 1210 262 
C 851 262 672 517 672 1021 
C 672 1984 1350 3062 2099 3713 
C 2349 3923 2637 4096 2931 4211 
L 3123 4281 
L 3162 4486 
L 3104 4544 
L 2957 4396 
C 2893 4332 2829 4307 2739 4307 
C 2522 4307 2189 4358 1882 4441 
L 1766 4473 
C 1587 4518 1459 4544 1370 4544 
C 1261 4544 1133 4524 979 4479 
L 774 3700 
z
" transform="scale(0.015625)"/>
       <path id="CMR10-3d" d="M 4397 2111 
C 4493 2111 4614 2111 4614 2239 
C 4614 2368 4493 2368 4403 2368 
L 570 2368 
C 480 2368 358 2368 358 2239 
C 358 2111 480 2111 576 2111 
L 4397 2111 
z
M 4403 832 
C 4493 832 4614 832 4614 960 
C 4614 1088 4493 1088 4397 1088 
L 576 1088 
C 480 1088 358 1088 358 960 
C 358 832 480 832 570 832 
L 4403 832 
z
" transform="scale(0.015625)"/>
      </defs>
      <use xlink:href="#PazoMath-Italic-7a" transform="scale(0.996264)"/>
      <use xlink:href="#CMR10-3d" transform="translate(79.380029 0) scale(1.038107)"/>
      <use xlink:href="#URWPalladioL-Roma-30" transform="translate(188.995658 0) scale(0.996264)"/>
      <use xlink:href="#URWPalladioL-Roma-2e" transform="translate(238.808858 0) scale(0.996264)"/>
      <use xlink:href="#URWPalladioL-Roma-30" transform="translate(263.715459 0) scale(0.996264)"/>
     </g>
    </g>
    <g id="line2d_39">
     <path d="M 47.543694 38.330004 
L 57.543694 38.330004 
L 67.543694 38.330004 
" style="fill: none; stroke: #ff7f0e; stroke-width: 1.5; stroke-linecap: square"/>
    </g>
    <g id="text_19">
     <!-- $\zeta = 0.01$ -->
     <g transform="translate(75.543694 41.830004) scale(0.1 -0.1)">
      <use xlink:href="#PazoMath-Italic-7a" transform="scale(0.996264)"/>
      <use xlink:href="#CMR10-3d" transform="translate(79.380029 0) scale(1.038107)"/>
      <use xlink:href="#URWPalladioL-Roma-30" transform="translate(188.995658 0) scale(0.996264)"/>
      <use xlink:href="#URWPalladioL-Roma-2e" transform="translate(238.808858 0) scale(0.996264)"/>
      <use xlink:href="#URWPalladioL-Roma-30" transform="translate(263.715459 0) scale(0.996264)"/>
      <use xlink:href="#URWPalladioL-Roma-31" transform="translate(313.528659 0) scale(0.996264)"/>
     </g>
    </g>
    <g id="line2d_40">
     <path d="M 47.543694 53.267653 
L 57.543694 53.267653 
L 67.543694 53.267653 
" style="fill: none; stroke: #2ca02c; stroke-width: 1.5; stroke-linecap: square"/>
    </g>
    <g id="text_20">
     <!-- $\zeta = 0.05$ -->
     <g transform="translate(75.543694 56.767653) scale(0.1 -0.1)">
      <use xlink:href="#PazoMath-Italic-7a" transform="scale(0.996264)"/>
      <use xlink:href="#CMR10-3d" transform="translate(79.380029 0) scale(1.038107)"/>
      <use xlink:href="#URWPalladioL-Roma-30" transform="translate(188.995658 0) scale(0.996264)"/>
      <use xlink:href="#URWPalladioL-Roma-2e" transform="translate(238.808858 0) scale(0.996264)"/>
      <use xlink:href="#URWPalladioL-Roma-30" transform="translate(263.715459 0) scale(0.996264)"/>
      <use xlink:href="#URWPalladioL-Roma-35" transform="translate(313.528659 0) scale(0.996264)"/>
     </g>
    </g>
    <g id="line2d_41">
     <path d="M 47.543694 68.205301 
L 57.543694 68.205301 
L 67.543694 68.205301 
" style="fill: none; stroke: #d62728; stroke-width: 1.5; stroke-linecap: square"/>
    </g>
    <g id="text_21">
     <!-- $\zeta = 0.1$ -->
     <g transform="translate(75.543694 71.705301) scale(0.1 -0.1)">
      <use xlink:href="#PazoMath-Italic-7a" transform="scale(0.996264)"/>
      <use xlink:href="#CMR10-3d" transform="translate(79.380029 0) scale(1.038107)"/>
      <use xlink:href="#URWPalladioL-Roma-30" transform="translate(188.995658 0) scale(0.996264)"/>
      <use xlink:href="#URWPalladioL-Roma-2e" transform="translate(238.808858 0) scale(0.996264)"/>
      <use xlink:href="#URWPalladioL-Roma-31" transform="translate(263.715459 0) scale(0.996264)"/>
     </g>
    </g>
    <g id="line2d_42">
     <path d="M 47.543694 83.14295 
L 57.543694 83.14295 
L 67.543694 83.14295 
" style="fill: none; stroke: #9467bd; stroke-width: 1.5; stroke-linecap: square"/>
    </g>
    <g id="text_22">
     <!-- $\zeta = 0.2$ -->
     <g transform="translate(75.543694 86.64295) scale(0.1 -0.1)">
      <use xlink:href="#PazoMath-Italic-7a" transform="scale(0.996264)"/>
      <use xlink:href="#CMR10-3d" transform="translate(79.380029 0) scale(1.038107)"/>
      <use xlink:href="#URWPalladioL-Roma-30" transform="translate(188.995658 0) scale(0.996264)"/>
      <use xlink:href="#URWPalladioL-Roma-2e" transform="translate(238.808858 0) scale(0.996264)"/>
      <use xlink:href="#URWPalladioL-Roma-32" transform="translate(263.715459 0) scale(0.996264)"/>
     </g>
    </g>
    <g id="line2d_43">
     <path d="M 47.543694 98.080598 
L 57.543694 98.080598 
L 67.543694 98.080598 
" style="fill: none; stroke: #8c564b; stroke-width: 1.5; stroke-linecap: square"/>
    </g>
    <g id="text_23">
     <!-- $\zeta = 0.5$ -->
     <g transform="translate(75.543694 101.580598) scale(0.1 -0.1)">
      <use xlink:href="#PazoMath-Italic-7a" transform="scale(0.996264)"/>
      <use xlink:href="#CMR10-3d" transform="translate(79.380029 0) scale(1.038107)"/>
      <use xlink:href="#URWPalladioL-Roma-30" transform="translate(188.995658 0) scale(0.996264)"/>
      <use xlink:href="#URWPalladioL-Roma-2e" transform="translate(238.808858 0) scale(0.996264)"/>
      <use xlink:href="#URWPalladioL-Roma-35" transform="translate(263.715459 0) scale(0.996264)"/>
     </g>
    </g>
    <g id="line2d_44">
     <path d="M 47.543694 113.018246 
L 57.543694 113.018246 
L 67.543694 113.018246 
" style="fill: none; stroke: #e377c2; stroke-width: 1.5; stroke-linecap: square"/>
    </g>
    <g id="text_24">
     <!-- $\zeta = 0.7$ -->
     <g transform="translate(75.543694 116.518246) scale(0.1 -0.1)">
      <use xlink:href="#PazoMath-Italic-7a" transform="scale(0.996264)"/>
      <use xlink:href="#CMR10-3d" transform="translate(79.380029 0) scale(1.038107)"/>
      <use xlink:href="#URWPalladioL-Roma-30" transform="translate(188.995658 0) scale(0.996264)"/>
      <use xlink:href="#URWPalladioL-Roma-2e" transform="translate(238.808858 0) scale(0.996264)"/>
      <use xlink:href="#URWPalladioL-Roma-37" transform="translate(263.715459 0) scale(0.996264)"/>
     </g>
    </g>
   </g>
  </g>
 </g>
 <defs>
  <clipPath id="p59d1484d95">
   <rect x="38.543694" y="10.764119" width="329.22" height="138.6"/>
  </clipPath>
 </defs>
</svg>
