<?xml version="1.0" encoding="utf-8" standalone="no"?>
<!DOCTYPE svg PUBLIC "-//W3C//DTD SVG 1.1//EN"
  "http://www.w3.org/Graphics/SVG/1.1/DTD/svg11.dtd">
<svg xmlns:xlink="http://www.w3.org/1999/xlink" width="415.693877pt" height="208.098345pt" viewBox="0 0 415.693877 208.098345" xmlns="http://www.w3.org/2000/svg" version="1.1">
 <metadata>
  <rdf:RDF xmlns:dc="http://purl.org/dc/elements/1.1/" xmlns:cc="http://creativecommons.org/ns#" xmlns:rdf="http://www.w3.org/1999/02/22-rdf-syntax-ns#">
   <cc:Work>
    <dc:type rdf:resource="http://purl.org/dc/dcmitype/StillImage"/>
    <dc:date>2023-09-04T15:04:24.076426</dc:date>
    <dc:format>image/svg+xml</dc:format>
    <dc:creator>
     <cc:Agent>
      <dc:title>Matplotlib v3.7.2, https://matplotlib.org/</dc:title>
     </cc:Agent>
    </dc:creator>
   </cc:Work>
  </rdf:RDF>
 </metadata>
 <defs>
  <style type="text/css">*{stroke-linejoin: round; stroke-linecap: butt}</style>
 </defs>
 <g id="figure_1">
  <g id="patch_1">
   <path d="M 0 208.098345 
L 415.693877 208.098345 
L 415.693877 0 
L 0 0 
z
" style="fill: #ffffff"/>
  </g>
  <g id="axes_1">
   <g id="patch_2">
    <path d="M 37.339177 199.686368 
L 408.493877 199.686368 
L 408.493877 7.2 
L 37.339177 7.2 
z
" style="fill: #ffffff"/>
   </g>
   <g id="matplotlib.axis_1">
    <g id="xtick_1">
     <g id="line2d_1">
      <defs>
       <path id="m9424bf2b36" d="M 0 0 
L 0 3.5 
" style="stroke: #000000; stroke-width: 0.8"/>
      </defs>
      <g>
       <use xlink:href="#m9424bf2b36" x="54.209845" y="108.142398" style="stroke: #000000; stroke-width: 0.8"/>
      </g>
     </g>
     <g id="text_1">
      <!-- $\mathdefault{0}$ -->
      <g transform="translate(51.719185 122.270635) scale(0.1 -0.1)">
       <defs>
        <path id="URWPalladioL-Roma-30" d="M 1683 4416 
C 691 4416 186 3628 186 2076 
C 186 1326 320 679 544 365 
C 768 51 1126 -128 1523 -128 
C 2490 -128 2976 704 2976 2345 
C 2976 3749 2560 4416 1683 4416 
z
M 1568 4191 
C 2189 4191 2438 3563 2438 2025 
C 2438 660 2195 96 1606 96 
C 986 96 723 743 723 2307 
C 723 3660 960 4191 1568 4191 
z
" transform="scale(0.015625)"/>
       </defs>
       <use xlink:href="#URWPalladioL-Roma-30" transform="scale(0.996264)"/>
      </g>
     </g>
    </g>
    <g id="xtick_2">
     <g id="line2d_2">
      <g>
       <use xlink:href="#m9424bf2b36" x="121.692518" y="108.142398" style="stroke: #000000; stroke-width: 0.8"/>
      </g>
     </g>
     <g id="text_2">
      <!-- $\mathdefault{2}$ -->
      <g transform="translate(119.201858 122.270635) scale(0.1 -0.1)">
       <defs>
        <path id="URWPalladioL-Roma-32" d="M 102 166 
L 102 0 
C 1299 0 1299 0 1530 0 
C 1760 19 1760 19 2995 0 
C 2982 134 2982 198 2982 287 
C 2982 370 2982 434 2995 574 
C 2259 542 1965 536 781 510 
L 1946 1741 
C 2566 2398 2758 2749 2758 3228 
C 2758 3961 2259 4416 1446 4416 
C 986 4416 672 4287 358 3967 
L 250 3100 
L 435 3100 
L 518 3394 
C 621 3763 851 3923 1280 3923 
C 1830 3923 2182 3578 2182 3036 
C 2182 2558 1914 2086 1190 1320 
L 102 166 
z
" transform="scale(0.015625)"/>
       </defs>
       <use xlink:href="#URWPalladioL-Roma-32" transform="scale(0.996264)"/>
      </g>
     </g>
    </g>
    <g id="xtick_3">
     <g id="line2d_3">
      <g>
       <use xlink:href="#m9424bf2b36" x="189.175191" y="108.142398" style="stroke: #000000; stroke-width: 0.8"/>
      </g>
     </g>
     <g id="text_3">
      <!-- $\mathdefault{4}$ -->
      <g transform="translate(186.684531 122.270635) scale(0.1 -0.1)">
       <defs>
        <path id="URWPalladioL-Roma-34" d="M 1792 1152 
L 1792 684 
C 1792 310 1722 223 1408 210 
L 1011 192 
L 1011 0 
C 1862 0 1862 0 2016 0 
C 2170 19 2170 19 3021 0 
L 3021 192 
L 2714 210 
C 2400 229 2330 310 2330 684 
L 2330 1152 
C 2707 1152 2842 1145 3021 1127 
L 3021 1580 
C 2720 1555 2598 1555 2502 1561 
L 2483 1561 
L 2330 1561 
L 2330 2445 
C 2330 3576 2342 4122 2374 4383 
L 2298 4416 
L 1824 4243 
L 13 1299 
L 83 1152 
L 1792 1152 
z
M 1792 1561 
L 416 1561 
L 1792 3798 
L 1792 1561 
z
" transform="scale(0.015625)"/>
       </defs>
       <use xlink:href="#URWPalladioL-Roma-34" transform="scale(0.996264)"/>
      </g>
     </g>
    </g>
    <g id="xtick_4">
     <g id="line2d_4">
      <g>
       <use xlink:href="#m9424bf2b36" x="256.657864" y="108.142398" style="stroke: #000000; stroke-width: 0.8"/>
      </g>
     </g>
     <g id="text_4">
      <!-- $\mathdefault{6}$ -->
      <g transform="translate(254.167204 122.270635) scale(0.1 -0.1)">
       <defs>
        <path id="URWPalladioL-Roma-36" d="M 2662 4287 
L 2426 4396 
C 1811 4193 1549 4066 1222 3788 
C 563 3237 205 2463 205 1585 
C 205 526 717 -128 1542 -128 
C 2374 -128 2995 532 2995 1405 
C 2995 2143 2554 2624 1875 2624 
C 1555 2624 1363 2540 986 2239 
C 915 2182 909 2175 838 2124 
C 973 3275 1510 3895 2662 4237 
L 2662 4287 
z
M 1632 2239 
C 2118 2239 2445 1816 2445 1180 
C 2445 513 2118 83 1626 83 
C 1082 83 787 551 787 1411 
C 787 1636 813 1758 883 1867 
C 1024 2085 1325 2239 1632 2239 
z
" transform="scale(0.015625)"/>
       </defs>
       <use xlink:href="#URWPalladioL-Roma-36" transform="scale(0.996264)"/>
      </g>
     </g>
    </g>
    <g id="xtick_5">
     <g id="line2d_5">
      <g>
       <use xlink:href="#m9424bf2b36" x="324.140536" y="108.142398" style="stroke: #000000; stroke-width: 0.8"/>
      </g>
     </g>
     <g id="text_5">
      <!-- $\mathdefault{8}$ -->
      <g transform="translate(321.649876 122.270635) scale(0.1 -0.1)">
       <defs>
        <path id="URWPalladioL-Roma-38" d="M 1075 2211 
C 813 2089 704 2019 563 1884 
C 320 1640 192 1352 192 1019 
C 192 358 723 -128 1446 -128 
C 2278 -128 2970 525 2970 1320 
C 2970 1833 2733 2108 2003 2442 
C 2586 2839 2790 3108 2790 3493 
C 2790 4044 2336 4416 1658 4416 
C 896 4416 339 3929 339 3256 
C 339 2820 512 2576 1075 2211 
z
M 1818 1890 
C 2221 1711 2464 1397 2464 1051 
C 2464 512 2061 89 1542 89 
C 998 89 646 474 646 1070 
C 646 1538 832 1833 1306 2121 
L 1818 1890 
z
M 1427 2711 
C 1024 2910 819 3166 819 3486 
C 819 3910 1126 4198 1581 4198 
C 2048 4198 2355 3890 2355 3422 
C 2355 3057 2195 2807 1779 2538 
L 1427 2711 
z
" transform="scale(0.015625)"/>
       </defs>
       <use xlink:href="#URWPalladioL-Roma-38" transform="scale(0.996264)"/>
      </g>
     </g>
    </g>
    <g id="xtick_6">
     <g id="line2d_6">
      <g>
       <use xlink:href="#m9424bf2b36" x="391.623209" y="108.142398" style="stroke: #000000; stroke-width: 0.8"/>
      </g>
     </g>
     <g id="text_6">
      <!-- $\mathdefault{10}$ -->
      <g transform="translate(386.641889 122.270635) scale(0.1 -0.1)">
       <defs>
        <path id="URWPalladioL-Roma-31" d="M 429 3571 
L 493 3571 
L 1318 3942 
C 1325 3949 1331 3949 1338 3949 
C 1376 3949 1389 3891 1389 3737 
L 1389 633 
C 1389 300 1318 230 973 211 
L 614 192 
L 614 0 
C 1600 0 1600 0 1670 0 
C 1754 0 1894 0 2112 -7 
C 2189 6 2413 6 2675 0 
L 2675 192 
L 2342 211 
C 1990 229 1926 299 1926 628 
L 1926 4383 
L 1837 4416 
C 1421 4199 966 4009 384 3807 
L 429 3571 
z
" transform="scale(0.015625)"/>
       </defs>
       <use xlink:href="#URWPalladioL-Roma-31" transform="scale(0.996264)"/>
       <use xlink:href="#URWPalladioL-Roma-30" transform="translate(49.8132 0) scale(0.996264)"/>
      </g>
     </g>
    </g>
    <g id="text_7">
     <!-- $t [s]$ -->
     <g transform="translate(216.065061 136.651689) scale(0.1 -0.1)">
      <defs>
       <path id="URWPalladioL-Ital-74" d="M 800 2489 
L 442 678 
C 435 633 429 620 410 544 
C 371 364 358 268 358 192 
C 358 32 429 -64 550 -64 
C 774 -64 998 64 1498 467 
L 1594 544 
L 1696 627 
L 1632 742 
L 1344 544 
C 1158 416 1030 352 960 352 
C 902 352 870 403 870 480 
C 870 646 960 1164 1146 2092 
L 1229 2489 
L 1914 2489 
L 1984 2809 
C 1741 2784 1523 2771 1280 2771 
C 1382 3373 1453 3686 1568 4032 
L 1498 4128 
C 1370 4051 1197 3974 998 3897 
L 838 2809 
C 557 2675 390 2604 275 2572 
L 262 2489 
L 800 2489 
z
" transform="scale(0.015625)"/>
       <path id="CMR10-5b" d="M 1632 -1601 
L 1632 -1344 
L 1011 -1344 
L 1011 4544 
L 1632 4544 
L 1632 4800 
L 755 4800 
L 755 -1601 
L 1632 -1601 
z
" transform="scale(0.015625)"/>
       <path id="URWPalladioL-Ital-73" d="M 198 948 
C 166 624 128 401 58 108 
C 301 -7 518 -64 742 -64 
C 1056 -64 1350 51 1677 306 
C 2003 560 2138 795 2138 1113 
C 2138 1456 1933 1640 1459 1729 
L 1184 1780 
C 800 1850 678 1958 678 2218 
C 678 2555 966 2815 1331 2815 
C 1594 2815 1837 2701 1939 2530 
L 1939 2180 
L 2086 2180 
C 2112 2403 2138 2574 2208 2899 
C 1958 3020 1779 3072 1568 3072 
C 1235 3072 845 2879 538 2574 
C 371 2403 301 2244 301 2015 
C 301 1659 499 1456 922 1373 
L 1325 1297 
C 1606 1246 1709 1132 1709 884 
C 1709 471 1414 192 960 192 
C 736 192 538 261 358 414 
L 358 948 
L 198 948 
z
" transform="scale(0.015625)"/>
       <path id="CMR10-5d" d="M 1018 4800 
L 141 4800 
L 141 4544 
L 762 4544 
L 762 -1344 
L 141 -1344 
L 141 -1601 
L 1018 -1601 
L 1018 4800 
z
" transform="scale(0.015625)"/>
      </defs>
      <use xlink:href="#URWPalladioL-Ital-74" transform="scale(0.996264)"/>
      <use xlink:href="#CMR10-5b" transform="translate(35.665282 0) scale(1.038107)"/>
      <use xlink:href="#URWPalladioL-Ital-73" transform="translate(66.947981 0) scale(0.996264)"/>
      <use xlink:href="#CMR10-5d" transform="translate(108.193259 0) scale(1.038107)"/>
     </g>
    </g>
   </g>
   <g id="matplotlib.axis_2">
    <g id="ytick_1">
     <g id="line2d_7">
      <defs>
       <path id="mfe446b4508" d="M 0 0 
L -3.5 0 
" style="stroke: #000000; stroke-width: 0.8"/>
      </defs>
      <g>
       <use xlink:href="#mfe446b4508" x="54.209845" y="194.524815" style="stroke: #000000; stroke-width: 0.8"/>
      </g>
     </g>
     <g id="text_8">
      <!-- $\mathdefault{−0.15}$ -->
      <g transform="translate(21.581054 198.088934) scale(0.1 -0.1)">
       <defs>
        <path id="CMSY10-0" d="M 4218 1472 
C 4326 1472 4442 1472 4442 1600 
C 4442 1728 4326 1728 4218 1728 
L 755 1728 
C 646 1728 531 1728 531 1600 
C 531 1472 646 1472 755 1472 
L 4218 1472 
z
" transform="scale(0.015625)"/>
        <path id="URWPalladioL-Roma-2e" d="M 794 678 
C 602 678 429 499 429 307 
C 429 115 602 -64 787 -64 
C 992 -64 1171 108 1171 307 
C 1171 499 992 678 794 678 
z
" transform="scale(0.015625)"/>
        <path id="URWPalladioL-Roma-35" d="M 813 3891 
C 1638 3865 1997 3859 2765 3859 
L 2797 3891 
C 2784 4006 2784 4057 2784 4140 
C 2784 4230 2784 4281 2797 4396 
L 2765 4428 
C 2285 4403 1997 4396 1651 4396 
C 1299 4396 1018 4403 538 4428 
L 506 4396 
C 512 4006 518 3724 518 3520 
C 518 2976 499 2360 480 2076 
L 608 2038 
C 909 2341 1082 2432 1395 2432 
C 2010 2432 2394 1992 2394 1295 
C 2394 579 1984 160 1286 160 
C 941 160 621 276 531 443 
L 237 973 
L 83 882 
C 230 514 307 308 397 25 
C 576 -71 832 -128 1107 -128 
C 1536 -128 1990 57 2342 366 
C 2733 715 2938 1153 2938 1631 
C 2938 2360 2419 2873 1690 2873 
C 1382 2873 1152 2790 755 2553 
L 813 3891 
z
" transform="scale(0.015625)"/>
       </defs>
       <use xlink:href="#CMSY10-0" transform="scale(1.038107)"/>
       <use xlink:href="#URWPalladioL-Roma-30" transform="translate(81.941696 0) scale(0.996264)"/>
       <use xlink:href="#URWPalladioL-Roma-2e" transform="translate(131.754897 0) scale(0.996264)"/>
       <use xlink:href="#URWPalladioL-Roma-31" transform="translate(156.661497 0) scale(0.996264)"/>
       <use xlink:href="#URWPalladioL-Roma-35" transform="translate(206.474698 0) scale(0.996264)"/>
      </g>
     </g>
    </g>
    <g id="ytick_2">
     <g id="line2d_8">
      <g>
       <use xlink:href="#mfe446b4508" x="54.209845" y="165.730676" style="stroke: #000000; stroke-width: 0.8"/>
      </g>
     </g>
     <g id="text_9">
      <!-- $\mathdefault{−0.10}$ -->
      <g transform="translate(21.581054 169.294795) scale(0.1 -0.1)">
       <use xlink:href="#CMSY10-0" transform="scale(1.038107)"/>
       <use xlink:href="#URWPalladioL-Roma-30" transform="translate(81.941696 0) scale(0.996264)"/>
       <use xlink:href="#URWPalladioL-Roma-2e" transform="translate(131.754897 0) scale(0.996264)"/>
       <use xlink:href="#URWPalladioL-Roma-31" transform="translate(156.661497 0) scale(0.996264)"/>
       <use xlink:href="#URWPalladioL-Roma-30" transform="translate(206.474698 0) scale(0.996264)"/>
      </g>
     </g>
    </g>
    <g id="ytick_3">
     <g id="line2d_9">
      <g>
       <use xlink:href="#mfe446b4508" x="54.209845" y="136.936537" style="stroke: #000000; stroke-width: 0.8"/>
      </g>
     </g>
     <g id="text_10">
      <!-- $\mathdefault{−0.05}$ -->
      <g transform="translate(21.581054 140.500656) scale(0.1 -0.1)">
       <use xlink:href="#CMSY10-0" transform="scale(1.038107)"/>
       <use xlink:href="#URWPalladioL-Roma-30" transform="translate(81.941696 0) scale(0.996264)"/>
       <use xlink:href="#URWPalladioL-Roma-2e" transform="translate(131.754897 0) scale(0.996264)"/>
       <use xlink:href="#URWPalladioL-Roma-30" transform="translate(156.661497 0) scale(0.996264)"/>
       <use xlink:href="#URWPalladioL-Roma-35" transform="translate(206.474698 0) scale(0.996264)"/>
      </g>
     </g>
    </g>
    <g id="ytick_4">
     <g id="line2d_10">
      <g>
       <use xlink:href="#mfe446b4508" x="54.209845" y="108.142398" style="stroke: #000000; stroke-width: 0.8"/>
      </g>
     </g>
     <g id="text_11">
      <!-- $\mathdefault{0.00}$ -->
      <g transform="translate(29.775225 111.706517) scale(0.1 -0.1)">
       <use xlink:href="#URWPalladioL-Roma-30" transform="scale(0.996264)"/>
       <use xlink:href="#URWPalladioL-Roma-2e" transform="translate(49.8132 0) scale(0.996264)"/>
       <use xlink:href="#URWPalladioL-Roma-30" transform="translate(74.719801 0) scale(0.996264)"/>
       <use xlink:href="#URWPalladioL-Roma-30" transform="translate(124.533001 0) scale(0.996264)"/>
      </g>
     </g>
    </g>
    <g id="ytick_5">
     <g id="line2d_11">
      <g>
       <use xlink:href="#mfe446b4508" x="54.209845" y="79.348259" style="stroke: #000000; stroke-width: 0.8"/>
      </g>
     </g>
     <g id="text_12">
      <!-- $\mathdefault{0.05}$ -->
      <g transform="translate(29.775225 82.912378) scale(0.1 -0.1)">
       <use xlink:href="#URWPalladioL-Roma-30" transform="scale(0.996264)"/>
       <use xlink:href="#URWPalladioL-Roma-2e" transform="translate(49.8132 0) scale(0.996264)"/>
       <use xlink:href="#URWPalladioL-Roma-30" transform="translate(74.719801 0) scale(0.996264)"/>
       <use xlink:href="#URWPalladioL-Roma-35" transform="translate(124.533001 0) scale(0.996264)"/>
      </g>
     </g>
    </g>
    <g id="ytick_6">
     <g id="line2d_12">
      <g>
       <use xlink:href="#mfe446b4508" x="54.209845" y="50.55412" style="stroke: #000000; stroke-width: 0.8"/>
      </g>
     </g>
     <g id="text_13">
      <!-- $\mathdefault{0.10}$ -->
      <g transform="translate(29.775225 54.118239) scale(0.1 -0.1)">
       <use xlink:href="#URWPalladioL-Roma-30" transform="scale(0.996264)"/>
       <use xlink:href="#URWPalladioL-Roma-2e" transform="translate(49.8132 0) scale(0.996264)"/>
       <use xlink:href="#URWPalladioL-Roma-31" transform="translate(74.719801 0) scale(0.996264)"/>
       <use xlink:href="#URWPalladioL-Roma-30" transform="translate(124.533001 0) scale(0.996264)"/>
      </g>
     </g>
    </g>
    <g id="ytick_7">
     <g id="line2d_13">
      <g>
       <use xlink:href="#mfe446b4508" x="54.209845" y="21.759981" style="stroke: #000000; stroke-width: 0.8"/>
      </g>
     </g>
     <g id="text_14">
      <!-- $\mathdefault{0.15}$ -->
      <g transform="translate(29.775225 25.3241) scale(0.1 -0.1)">
       <use xlink:href="#URWPalladioL-Roma-30" transform="scale(0.996264)"/>
       <use xlink:href="#URWPalladioL-Roma-2e" transform="translate(49.8132 0) scale(0.996264)"/>
       <use xlink:href="#URWPalladioL-Roma-31" transform="translate(74.719801 0) scale(0.996264)"/>
       <use xlink:href="#URWPalladioL-Roma-35" transform="translate(124.533001 0) scale(0.996264)"/>
      </g>
     </g>
    </g>
    <g id="text_15">
     <!-- $u(t)$ [m] -->
     <g transform="translate(14.771643 121.293626) rotate(-90) scale(0.1 -0.1)">
      <defs>
       <path id="URWPalladioL-Ital-75" d="M 2131 613 
C 2086 459 2061 287 2061 191 
C 2061 32 2131 -64 2253 -64 
C 2419 -64 2650 70 3277 536 
L 3213 651 
L 3046 542 
C 2893 440 2726 370 2656 370 
C 2605 370 2573 415 2573 479 
C 2573 530 2586 600 2605 696 
L 2611 734 
C 2758 1430 2957 2279 3149 3014 
L 3104 3072 
L 2669 2963 
L 2605 2637 
C 2509 2139 2349 1705 2150 1405 
C 1773 823 1274 370 1018 370 
C 966 370 934 427 934 536 
C 934 625 947 708 979 868 
L 1344 2599 
C 1363 2701 1376 2790 1376 2873 
C 1376 2995 1318 3072 1229 3072 
C 1101 3072 858 2937 384 2599 
L 205 2471 
L 250 2343 
L 454 2477 
C 634 2592 704 2624 762 2624 
C 819 2624 870 2567 870 2496 
C 870 2471 864 2407 858 2382 
L 454 485 
C 442 427 429 274 429 185 
C 429 51 525 -64 653 -64 
C 1056 -64 1830 652 2368 1536 
L 2131 613 
z
" transform="scale(0.015625)"/>
       <path id="CMR10-28" d="M 2118 -1536 
C 2118 -1517 2118 -1504 2010 -1396 
C 1210 -589 1005 620 1005 1600 
C 1005 2713 1248 3827 2035 4627 
C 2118 4704 2118 4716 2118 4736 
C 2118 4780 2093 4800 2054 4800 
C 1990 4800 1414 4365 1037 3552 
C 710 2848 634 2137 634 1600 
C 634 1100 704 326 1056 -397 
C 1440 -1184 1990 -1600 2054 -1600 
C 2093 -1600 2118 -1581 2118 -1536 
z
" transform="scale(0.015625)"/>
       <path id="CMR10-29" d="M 1850 1600 
C 1850 2099 1779 2873 1427 3597 
C 1043 4384 493 4800 429 4800 
C 390 4800 365 4774 365 4736 
C 365 4716 365 4704 486 4589 
C 1114 3955 1478 2937 1478 1600 
C 1478 505 1242 -621 448 -1428 
C 365 -1504 365 -1517 365 -1536 
C 365 -1575 390 -1600 429 -1600 
C 493 -1600 1069 -1165 1446 -352 
C 1773 352 1850 1062 1850 1600 
z
" transform="scale(0.015625)"/>
       <path id="URWPalladioL-Roma-5b" d="M 563 -1178 
C 1018 -1166 1030 -1166 1184 -1166 
C 1338 -1166 1370 -1166 1805 -1178 
L 1843 -1140 
L 1843 -974 
L 1818 -942 
L 1574 -942 
C 1402 -942 1261 -903 1184 -839 
C 1126 -782 1107 -692 1107 -481 
C 1107 -474 1107 -340 1101 -148 
L 1101 89 
L 1101 3379 
L 1101 3615 
C 1107 3795 1107 3935 1107 3942 
C 1107 4153 1126 4249 1184 4307 
C 1261 4371 1402 4409 1574 4409 
L 1818 4409 
L 1843 4441 
L 1843 4608 
L 1805 4646 
C 1357 4633 1338 4633 1184 4633 
C 1037 4633 1005 4633 563 4646 
L 506 4563 
C 544 4403 557 4191 557 3699 
C 557 3603 557 3526 563 3462 
L 563 3379 
L 563 89 
L 563 6 
C 557 -97 557 -103 557 -212 
L 557 -282 
C 557 -718 544 -897 506 -1095 
L 563 -1178 
z
" transform="scale(0.015625)"/>
       <path id="URWPalladioL-Roma-6d" d="M 115 2579 
L 352 2579 
C 608 2579 634 2534 634 2112 
L 634 672 
C 634 268 614 224 397 211 
L 102 192 
L 102 0 
C 717 0 736 0 915 0 
C 1094 19 1261 12 1677 0 
L 1677 192 
L 1408 211 
C 1190 223 1171 268 1171 670 
L 1171 2023 
C 1171 2311 1594 2624 1978 2624 
C 2323 2624 2560 2298 2560 1813 
L 2560 670 
C 2560 268 2541 223 2323 211 
L 2029 192 
L 2029 0 
C 2669 0 2669 0 2829 0 
C 2989 19 2989 19 3629 0 
L 3629 192 
L 3334 211 
C 3117 223 3098 268 3098 670 
L 3098 2023 
C 3098 2311 3520 2624 3904 2624 
C 4250 2624 4486 2298 4486 1813 
L 4486 0 
C 4877 0 4883 0 4992 0 
C 5075 19 5075 19 5562 0 
L 5562 192 
L 5261 211 
C 5043 223 5024 268 5024 670 
L 5024 1985 
C 5024 2617 4653 3014 4064 3014 
C 3840 3014 3654 2956 3539 2854 
L 3053 2419 
C 2848 2841 2586 3014 2144 3014 
C 1907 3014 1728 2956 1613 2854 
L 1171 2445 
L 1171 2988 
L 1114 3008 
C 787 2873 454 2783 115 2745 
L 115 2579 
z
" transform="scale(0.015625)"/>
       <path id="URWPalladioL-Roma-5d" d="M 1568 4646 
C 1114 4633 1094 4633 947 4633 
C 794 4633 762 4633 326 4646 
L 288 4608 
L 288 4441 
L 314 4409 
L 557 4409 
C 730 4409 864 4371 941 4307 
C 1005 4249 1024 4159 1024 3942 
C 1024 3923 1024 3795 1030 3615 
L 1030 3379 
L 1030 89 
L 1030 -148 
C 1024 -334 1024 -449 1024 -468 
C 1024 -686 1005 -782 941 -839 
C 864 -903 730 -942 557 -942 
L 314 -942 
L 288 -974 
L 288 -1140 
L 326 -1178 
C 774 -1166 787 -1166 947 -1166 
C 1094 -1166 1126 -1166 1568 -1178 
L 1626 -1095 
C 1587 -942 1581 -743 1574 -250 
C 1574 -161 1574 -78 1568 6 
L 1568 89 
L 1568 3379 
L 1568 3462 
C 1574 3532 1574 3615 1574 3705 
C 1574 4198 1587 4409 1626 4563 
L 1568 4646 
z
" transform="scale(0.015625)"/>
      </defs>
      <use xlink:href="#URWPalladioL-Ital-75" transform="scale(0.996264)"/>
      <use xlink:href="#CMR10-28" transform="translate(57.88296 0) scale(1.038107)"/>
      <use xlink:href="#URWPalladioL-Ital-74" transform="translate(100.622665 0) scale(0.996264)"/>
      <use xlink:href="#CMR10-29" transform="translate(136.287947 0) scale(1.038107)"/>
      <use xlink:href="#URWPalladioL-Roma-5b" transform="translate(202.688952 0) scale(0.996264)"/>
      <use xlink:href="#URWPalladioL-Roma-6d" transform="translate(235.864182 0) scale(0.996264)"/>
      <use xlink:href="#URWPalladioL-Roma-5d" transform="translate(323.833856 0) scale(0.996264)"/>
     </g>
    </g>
   </g>
   <g id="line2d_14">
    <path d="M 54.209845 108.142398 
L 54.886024 104.046418 
L 55.562203 104.334239 
L 56.238383 117.747534 
L 56.914562 122.628067 
L 58.26692 82.558286 
L 58.943099 101.060178 
L 59.619278 137.529467 
L 60.295457 134.630587 
L 60.971636 87.587127 
L 61.647815 64.372248 
L 62.323994 107.072371 
L 63.000173 158.195318 
L 63.676352 137.864602 
L 64.352532 68.56669 
L 65.028711 52.70451 
L 65.70489 120.712053 
L 66.381069 175.831853 
L 67.057248 132.221055 
L 67.733427 48.575175 
L 68.409606 49.363343 
L 69.085785 139.024451 
L 69.761964 187.336835 
L 70.438143 119.23137 
L 71.114322 31.356564 
L 71.790502 54.507948 
L 72.466681 158.386592 
L 73.14286 190.936988 
L 74.495218 19.90219 
L 75.171397 66.726365 
L 75.847576 175.217209 
L 76.523755 186.427825 
L 77.199934 83.006459 
L 77.876113 15.94938 
L 78.552292 83.397348 
L 79.228471 186.632838 
L 79.904651 175.109285 
L 80.58083 66.638324 
L 81.257009 19.74338 
L 82.609367 190.93289 
L 83.285546 159.448804 
L 83.961725 55.353291 
L 84.637904 30.08923 
L 85.314083 117.013262 
L 85.990262 187.835588 
L 86.666441 142.551518 
L 87.34262 50.814568 
L 88.0188 44.665216 
L 88.694979 128.006921 
L 89.371158 178.43757 
L 90.047337 127.547593 
L 90.723516 53.33652 
L 91.399695 60.523213 
L 92.075874 132.606828 
L 92.752053 164.922537 
L 94.104411 61.914539 
L 94.78059 74.671744 
L 95.45677 130.469691 
L 96.132949 150.088871 
L 97.485307 74.49559 
L 98.161486 84.629106 
L 98.837665 122.514048 
L 99.513844 136.794886 
L 100.190023 114.492467 
L 100.866202 88.424059 
L 101.542381 88.84676 
L 102.21856 110.669256 
L 102.894739 127.429115 
L 103.570919 122.03369 
L 104.247098 100.969447 
L 104.923277 86.93354 
L 105.599456 97.454849 
L 106.275635 123.501449 
L 106.951814 133.351467 
L 107.627993 109.833555 
L 108.304172 79.652368 
L 108.980351 85.478678 
L 109.65653 125.422496 
L 110.332709 146.055944 
L 111.008888 113.545154 
L 111.685068 68.704887 
L 112.361247 76.951417 
L 113.037426 132.499505 
L 113.713605 157.656926 
L 114.389784 111.676888 
L 115.065963 56.3574 
L 115.742142 73.305704 
L 116.418321 143.135522 
L 117.0945 166.028508 
L 118.446858 44.987256 
L 119.123038 74.983167 
L 119.799217 155.181944 
L 120.475396 169.776476 
L 121.151575 94.580548 
L 121.827754 36.638295 
L 122.503933 81.41759 
L 123.180112 166.369631 
L 123.856291 168.447225 
L 124.53247 82.886931 
L 125.208649 32.66654 
L 125.884828 91.204592 
L 126.561007 174.73417 
L 127.237187 162.550064 
L 127.913366 71.940569 
L 128.589545 33.535463 
L 129.941903 178.957427 
L 130.618082 153.400935 
L 131.294261 63.629035 
L 131.97044 38.788738 
L 133.322798 178.568025 
L 133.998977 142.827899 
L 134.675156 59.232912 
L 135.351336 47.193984 
L 136.027515 121.091672 
L 136.703694 173.972998 
L 137.379873 132.801564 
L 138.056052 59.229684 
L 138.732231 57.019916 
L 139.40841 125.502367 
L 140.084589 166.325815 
L 140.760768 125.063313 
L 141.436947 63.258115 
L 142.113126 66.387265 
L 142.789306 125.731381 
L 143.465485 157.26566 
L 144.141664 120.819865 
L 144.817843 70.23923 
L 145.494022 73.624105 
L 146.170201 122.097441 
L 146.84638 148.58431 
L 147.522559 120.556056 
L 148.198738 78.621467 
L 148.874917 77.559933 
L 149.551096 115.60923 
L 150.227275 141.886597 
L 150.903455 123.992576 
L 151.579634 86.696829 
L 152.255813 77.708405 
L 153.608171 138.307339 
L 154.28435 130.187038 
L 154.960529 92.925263 
L 155.636708 74.312317 
L 156.312887 100.102486 
L 156.989066 138.333128 
L 157.665245 137.750445 
L 158.341424 96.207056 
L 159.017604 68.251545 
L 159.693783 94.189284 
L 160.369962 141.754953 
L 161.046141 145.131752 
L 161.72232 96.056516 
L 162.398499 60.839764 
L 163.074678 91.060604 
L 163.750857 147.751867 
L 164.427036 150.913732 
L 165.103215 92.651414 
L 165.779394 53.554585 
L 166.455574 91.2002 
L 167.131753 155.081787 
L 167.807932 154.064997 
L 168.484111 86.757156 
L 169.16029 47.755074 
L 169.836469 94.45916 
L 170.512648 162.337359 
L 171.188827 154.104654 
L 171.865006 79.547785 
L 172.541185 44.439441 
L 173.217364 100.124414 
L 173.893543 168.215595 
L 174.569723 151.154994 
L 175.245902 72.363448 
L 175.922081 44.084871 
L 177.274439 171.750784 
L 177.950618 145.879784 
L 178.626797 66.453072 
L 179.302976 46.593606 
L 180.655334 172.470215 
L 181.331513 139.326973 
L 182.007692 62.750546 
L 182.683872 51.3483 
L 183.360051 119.877233 
L 184.03623 170.449086 
L 184.712409 132.710942 
L 185.388588 61.723414 
L 186.064767 57.359365 
L 186.740946 123.60615 
L 187.417125 166.261051 
L 188.093304 127.178293 
L 188.769483 63.317185 
L 189.445662 63.471204 
L 190.121842 124.794796 
L 190.798021 160.840283 
L 191.4742 123.601337 
L 192.150379 66.999298 
L 192.826558 68.585587 
L 193.502737 123.478701 
L 194.178916 155.28619 
L 194.855095 122.435461 
L 195.531274 71.88818 
L 196.207453 71.859948 
L 196.883632 120.151796 
L 197.559811 150.650422 
L 198.235991 123.662462 
L 198.91217 76.93811 
L 199.588349 72.845757 
L 200.264528 115.64575 
L 200.940707 147.746516 
L 201.616886 126.824694 
L 202.293065 81.142266 
L 202.969244 71.545417 
L 204.321602 147.015711 
L 204.997781 131.137825 
L 205.67396 83.715421 
L 206.35014 68.382503 
L 207.702498 148.469984 
L 208.378677 135.65637 
L 209.054856 84.223986 
L 209.731035 64.096459 
L 211.083393 151.717746 
L 211.759572 139.458102 
L 212.435751 82.642925 
L 213.11193 59.586031 
L 214.464289 156.062114 
L 215.140468 141.812201 
L 215.816647 79.333808 
L 216.492826 55.733582 
L 217.845184 160.648951 
L 218.521363 142.301256 
L 219.197542 74.953165 
L 219.873721 53.243828 
L 221.226079 164.634217 
L 221.902259 140.877689 
L 222.578438 70.312548 
L 223.254617 52.525748 
L 224.606975 167.338578 
L 225.283154 137.848469 
L 225.959333 66.219164 
L 226.635512 53.636567 
L 227.311691 117.969583 
L 227.98787 168.361669 
L 228.664049 133.795604 
L 229.340228 63.32767 
L 230.016408 56.294096 
L 230.692587 122.050535 
L 231.368766 167.637605 
L 232.044945 129.451198 
L 232.721124 62.029666 
L 233.397303 59.9507 
L 234.073482 125.005592 
L 234.749661 165.425362 
L 235.42584 125.553031 
L 236.102019 62.398762 
L 236.778198 63.911295 
L 237.454378 126.452051 
L 238.130557 162.240012 
L 238.806736 122.708467 
L 239.482915 64.197714 
L 240.159094 67.470795 
L 240.835273 126.309447 
L 241.511452 158.741322 
L 242.187631 121.291217 
L 242.86381 66.942281 
L 243.539989 70.044468 
L 244.216168 124.794704 
L 244.892347 155.602982 
L 245.568527 121.387782 
L 246.244706 70.006366 
L 246.920885 71.267672 
L 247.597064 122.36289 
L 248.273243 153.387758 
L 248.949422 122.800221 
L 249.625601 72.746421 
L 250.30178 71.048626 
L 250.977959 119.608011 
L 251.654138 152.451186 
L 252.330317 125.10106 
L 253.006496 74.620972 
L 253.682676 69.567549 
L 254.358855 117.144702 
L 255.035034 152.889631 
L 255.711213 127.726861 
L 256.387392 75.283598 
L 257.063571 67.225822 
L 257.73975 115.493808 
L 258.415929 154.539412 
L 259.092108 130.090716 
L 259.768287 74.633985 
L 260.444466 64.557772 
L 261.120646 114.992661 
L 261.796825 157.023815 
L 262.473004 131.691747 
L 263.149183 72.820383 
L 263.825362 62.123726 
L 264.501541 115.744946 
L 265.17772 159.83624 
L 265.853899 132.201663 
L 266.530078 70.196185 
L 267.206257 60.405242 
L 267.882436 117.616807 
L 268.558615 162.441841 
L 269.234795 131.513938 
L 269.910974 67.241581 
L 270.587153 59.721637 
L 271.263332 120.276907 
L 271.939511 164.377748 
L 272.61569 129.749001 
L 273.291869 64.466989 
L 273.968048 60.181792 
L 274.644227 123.27021 
L 275.320406 165.333541 
L 275.996585 127.217334 
L 276.672764 62.317197 
L 277.348944 61.677791 
L 278.025123 126.109723 
L 278.701302 165.198441 
L 279.377481 124.350011 
L 280.05366 61.09381 
L 280.729839 63.918868 
L 281.406018 128.368153 
L 282.082197 164.06871 
L 282.758376 121.611561 
L 283.434555 60.909084 
L 284.110734 66.496774 
L 284.786914 129.752622 
L 285.463093 162.216488 
L 286.139272 119.412353 
L 286.815451 61.677584 
L 287.49163 68.968514 
L 288.167809 130.1498 
L 288.843988 160.028293 
L 289.520167 118.036626 
L 290.196346 63.144759 
L 290.872525 70.940092 
L 291.548704 129.635075 
L 292.224883 157.926482 
L 292.901063 117.598414 
L 293.577242 64.944768 
L 294.253421 72.135801 
L 294.9296 128.446405 
L 295.605779 156.289228 
L 296.281958 118.031638 
L 296.958137 66.675016 
L 297.634316 72.441246 
L 298.310495 126.929973 
L 298.986674 155.383821 
L 299.662853 119.113975 
L 300.339032 67.972614 
L 301.015212 71.913899 
L 301.691391 125.469457 
L 302.36757 155.324708 
L 303.043749 120.517925 
L 303.719928 68.578552 
L 304.396107 70.761348 
L 305.072286 124.413007 
L 305.748465 156.062375 
L 306.424644 121.877903 
L 307.100823 68.378604 
L 307.777002 69.293344 
L 308.453182 124.011497 
L 309.129361 157.403115 
L 309.80554 122.859971 
L 310.481719 67.41493 
L 311.157898 67.858176 
L 311.834077 124.378697 
L 312.510256 159.054035 
L 313.186435 123.221222 
L 313.862614 65.868157 
L 314.538793 66.776088 
L 315.214972 125.479244 
L 315.891151 160.683388 
L 316.567331 122.848556 
L 317.24351 64.015157 
L 317.919689 66.282184 
L 318.595868 127.144838 
L 319.272047 161.984123 
L 319.948226 121.771053 
L 320.624405 62.17186 
L 321.300584 66.488711 
L 321.976763 129.113837 
L 322.652942 162.728769 
L 323.329121 120.14539 
L 324.0053 60.6326 
L 324.68148 67.372389 
L 325.357659 131.085447 
L 326.033838 162.806106 
L 326.710017 118.218729 
L 327.386196 59.617376 
L 328.062375 68.787499 
L 328.738554 132.777595 
L 329.414733 162.234069 
L 330.090912 116.277379 
L 330.767091 59.236221 
L 331.44327 70.500644 
L 332.11945 133.977595 
L 332.795629 161.148054 
L 333.471808 114.591587 
L 334.147987 59.476111 
L 334.824166 72.239377 
L 335.500345 134.576757 
L 336.176524 159.768377 
L 337.528882 60.211361 
L 338.205061 73.744858 
L 338.88124 134.58361 
L 339.557419 158.354221 
L 340.909778 61.234081 
L 341.585957 74.818573 
L 342.262136 134.114711 
L 342.938315 157.153439 
L 344.290673 62.297757 
L 344.966852 75.35493 
L 345.643031 133.36617 
L 346.31921 156.35769 
L 347.671569 63.165122 
L 348.347748 75.354637 
L 349.023927 132.572396 
L 349.700106 156.070839 
L 350.376285 113.615394 
L 351.052464 63.651203 
L 351.728643 74.917654 
L 352.404822 131.960479 
L 353.081001 156.29556 
L 353.75718 114.297666 
L 354.433359 63.65395 
L 355.109538 74.218348 
L 355.785718 131.708886 
L 356.461897 156.93942 
L 357.138076 114.810681 
L 357.814255 63.167624 
L 358.490434 73.468573 
L 359.166613 131.917779 
L 359.842792 157.838071 
L 360.518971 114.982299 
L 361.19515 62.277598 
L 361.871329 72.876255 
L 362.547508 132.595677 
L 363.223687 158.790158 
L 363.899867 114.714295 
L 364.576046 61.138724 
L 365.252225 72.607392 
L 365.928404 133.663838 
L 366.604583 159.596767 
L 367.280762 113.995625 
L 367.956941 59.942343 
L 368.63312 72.758236 
L 369.309299 134.976411 
L 369.985478 160.097862 
L 371.337837 58.878708 
L 372.014016 73.342116 
L 372.690195 136.351623 
L 373.366374 160.199198 
L 374.718732 58.102066 
L 375.394911 74.292369 
L 376.07109 137.607542 
L 376.747269 159.885384 
L 378.099627 57.70462 
L 378.775806 75.479797 
L 379.451986 138.595555 
L 380.128165 159.21759 
L 381.480523 57.703611 
L 382.156702 76.740495 
L 382.832881 139.225531 
L 383.50906 158.317321 
L 384.861418 58.043014 
L 385.537597 77.908251 
L 386.213776 139.478591 
L 386.889955 157.340141 
L 388.242314 58.608616 
L 388.918493 78.845269 
L 389.594672 139.405948 
L 390.270851 156.444848 
L 391.623209 59.25281 
L 391.623209 59.25281 
" clip-path="url(#pe7fd1549ea)" style="fill: none; stroke: #1f77b4; stroke-width: 1.5; stroke-linecap: square"/>
   </g>
   <g id="patch_3">
    <path d="M 54.209845 199.686368 
L 54.209845 7.2 
" style="fill: none; stroke: #000000; stroke-width: 0.8; stroke-linejoin: miter; stroke-linecap: square"/>
   </g>
   <g id="patch_4">
    <path d="M 408.493877 199.686368 
L 408.493877 7.2 
" style="fill: none"/>
   </g>
   <g id="patch_5">
    <path d="M 37.339177 108.142398 
L 408.493877 108.142398 
" style="fill: none; stroke: #000000; stroke-width: 0.8; stroke-linejoin: miter; stroke-linecap: square"/>
   </g>
   <g id="patch_6">
    <path d="M 37.339177 7.2 
L 408.493877 7.2 
" style="fill: none"/>
   </g>
  </g>
 </g>
 <defs>
  <clipPath id="pe7fd1549ea">
   <rect x="37.339177" y="7.2" width="371.1547" height="192.486368"/>
  </clipPath>
 </defs>
</svg>
