<?xml version="1.0" encoding="utf-8" standalone="no"?>
<!DOCTYPE svg PUBLIC "-//W3C//DTD SVG 1.1//EN"
  "http://www.w3.org/Graphics/SVG/1.1/DTD/svg11.dtd">
<svg xmlns:xlink="http://www.w3.org/1999/xlink" width="420.675197pt" height="208.002885pt" viewBox="0 0 420.675197 208.002885" xmlns="http://www.w3.org/2000/svg" version="1.1">
 <metadata>
  <rdf:RDF xmlns:dc="http://purl.org/dc/elements/1.1/" xmlns:cc="http://creativecommons.org/ns#" xmlns:rdf="http://www.w3.org/1999/02/22-rdf-syntax-ns#">
   <cc:Work>
    <dc:type rdf:resource="http://purl.org/dc/dcmitype/StillImage"/>
    <dc:date>2023-09-04T15:04:41.779258</dc:date>
    <dc:format>image/svg+xml</dc:format>
    <dc:creator>
     <cc:Agent>
      <dc:title>Matplotlib v3.7.2, https://matplotlib.org/</dc:title>
     </cc:Agent>
    </dc:creator>
   </cc:Work>
  </rdf:RDF>
 </metadata>
 <defs>
  <style type="text/css">*{stroke-linejoin: round; stroke-linecap: butt}</style>
 </defs>
 <g id="figure_1">
  <g id="patch_1">
   <path d="M 0 208.002885 
L 420.675197 208.002885 
L 420.675197 0 
L 0 0 
z
" style="fill: #ffffff"/>
  </g>
  <g id="axes_1">
   <g id="patch_2">
    <path d="M 42.320497 197.823188 
L 413.475197 197.823188 
L 413.475197 7.773826 
L 42.320497 7.773826 
z
" style="fill: #ffffff"/>
   </g>
   <g id="matplotlib.axis_1">
    <g id="xtick_1">
     <g id="line2d_1">
      <defs>
       <path id="m25ad27f841" d="M 0 0 
L 0 3.5 
" style="stroke: #000000; stroke-width: 0.8"/>
      </defs>
      <g>
       <use xlink:href="#m25ad27f841" x="59.191165" y="102.596737" style="stroke: #000000; stroke-width: 0.8"/>
      </g>
     </g>
     <g id="text_1">
      <!-- $\mathdefault{0}$ -->
      <g transform="translate(56.700505 116.724974) scale(0.1 -0.1)">
       <defs>
        <path id="URWPalladioL-Roma-30" d="M 1683 4416 
C 691 4416 186 3628 186 2076 
C 186 1326 320 679 544 365 
C 768 51 1126 -128 1523 -128 
C 2490 -128 2976 704 2976 2345 
C 2976 3749 2560 4416 1683 4416 
z
M 1568 4191 
C 2189 4191 2438 3563 2438 2025 
C 2438 660 2195 96 1606 96 
C 986 96 723 743 723 2307 
C 723 3660 960 4191 1568 4191 
z
" transform="scale(0.015625)"/>
       </defs>
       <use xlink:href="#URWPalladioL-Roma-30" transform="scale(0.996264)"/>
      </g>
     </g>
    </g>
    <g id="xtick_2">
     <g id="line2d_2">
      <g>
       <use xlink:href="#m25ad27f841" x="115.426726" y="102.596737" style="stroke: #000000; stroke-width: 0.8"/>
      </g>
     </g>
     <g id="text_2">
      <!-- $\mathdefault{1}$ -->
      <g transform="translate(112.936066 116.724974) scale(0.1 -0.1)">
       <defs>
        <path id="URWPalladioL-Roma-31" d="M 429 3571 
L 493 3571 
L 1318 3942 
C 1325 3949 1331 3949 1338 3949 
C 1376 3949 1389 3891 1389 3737 
L 1389 633 
C 1389 300 1318 230 973 211 
L 614 192 
L 614 0 
C 1600 0 1600 0 1670 0 
C 1754 0 1894 0 2112 -7 
C 2189 6 2413 6 2675 0 
L 2675 192 
L 2342 211 
C 1990 229 1926 299 1926 628 
L 1926 4383 
L 1837 4416 
C 1421 4199 966 4009 384 3807 
L 429 3571 
z
" transform="scale(0.015625)"/>
       </defs>
       <use xlink:href="#URWPalladioL-Roma-31" transform="scale(0.996264)"/>
      </g>
     </g>
    </g>
    <g id="xtick_3">
     <g id="line2d_3">
      <g>
       <use xlink:href="#m25ad27f841" x="171.662287" y="102.596737" style="stroke: #000000; stroke-width: 0.8"/>
      </g>
     </g>
     <g id="text_3">
      <!-- $\mathdefault{2}$ -->
      <g transform="translate(169.171627 116.724974) scale(0.1 -0.1)">
       <defs>
        <path id="URWPalladioL-Roma-32" d="M 102 166 
L 102 0 
C 1299 0 1299 0 1530 0 
C 1760 19 1760 19 2995 0 
C 2982 134 2982 198 2982 287 
C 2982 370 2982 434 2995 574 
C 2259 542 1965 536 781 510 
L 1946 1741 
C 2566 2398 2758 2749 2758 3228 
C 2758 3961 2259 4416 1446 4416 
C 986 4416 672 4287 358 3967 
L 250 3100 
L 435 3100 
L 518 3394 
C 621 3763 851 3923 1280 3923 
C 1830 3923 2182 3578 2182 3036 
C 2182 2558 1914 2086 1190 1320 
L 102 166 
z
" transform="scale(0.015625)"/>
       </defs>
       <use xlink:href="#URWPalladioL-Roma-32" transform="scale(0.996264)"/>
      </g>
     </g>
    </g>
    <g id="xtick_4">
     <g id="line2d_4">
      <g>
       <use xlink:href="#m25ad27f841" x="227.897847" y="102.596737" style="stroke: #000000; stroke-width: 0.8"/>
      </g>
     </g>
     <g id="text_4">
      <!-- $\mathdefault{3}$ -->
      <g transform="translate(225.407187 116.724974) scale(0.1 -0.1)">
       <defs>
        <path id="URWPalladioL-Roma-33" d="M 275 3196 
L 474 3196 
L 589 3553 
C 659 3770 1062 3987 1395 3987 
C 1811 3987 2150 3649 2150 3247 
C 2150 2769 1773 2368 1318 2368 
C 1267 2368 1197 2374 1114 2380 
L 1018 2387 
L 941 2047 
L 986 2008 
C 1229 2118 1350 2150 1523 2150 
C 2054 2150 2362 1808 2362 1222 
C 2362 565 1971 134 1376 134 
C 1082 134 819 231 627 411 
C 474 553 390 701 269 1048 
L 96 984 
C 230 591 282 359 320 38 
C 659 -77 941 -128 1178 -128 
C 1690 -128 2278 160 2630 591 
C 2848 855 2957 1139 2957 1441 
C 2957 1750 2829 2021 2598 2182 
C 2438 2297 2291 2348 1971 2406 
C 2483 2801 2675 3094 2675 3470 
C 2675 4038 2202 4416 1491 4416 
C 1056 4416 768 4294 461 3987 
L 275 3196 
z
" transform="scale(0.015625)"/>
       </defs>
       <use xlink:href="#URWPalladioL-Roma-33" transform="scale(0.996264)"/>
      </g>
     </g>
    </g>
    <g id="xtick_5">
     <g id="line2d_5">
      <g>
       <use xlink:href="#m25ad27f841" x="284.133408" y="102.596737" style="stroke: #000000; stroke-width: 0.8"/>
      </g>
     </g>
     <g id="text_5">
      <!-- $\mathdefault{4}$ -->
      <g transform="translate(281.642748 116.724974) scale(0.1 -0.1)">
       <defs>
        <path id="URWPalladioL-Roma-34" d="M 1792 1152 
L 1792 684 
C 1792 310 1722 223 1408 210 
L 1011 192 
L 1011 0 
C 1862 0 1862 0 2016 0 
C 2170 19 2170 19 3021 0 
L 3021 192 
L 2714 210 
C 2400 229 2330 310 2330 684 
L 2330 1152 
C 2707 1152 2842 1145 3021 1127 
L 3021 1580 
C 2720 1555 2598 1555 2502 1561 
L 2483 1561 
L 2330 1561 
L 2330 2445 
C 2330 3576 2342 4122 2374 4383 
L 2298 4416 
L 1824 4243 
L 13 1299 
L 83 1152 
L 1792 1152 
z
M 1792 1561 
L 416 1561 
L 1792 3798 
L 1792 1561 
z
" transform="scale(0.015625)"/>
       </defs>
       <use xlink:href="#URWPalladioL-Roma-34" transform="scale(0.996264)"/>
      </g>
     </g>
    </g>
    <g id="xtick_6">
     <g id="line2d_6">
      <g>
       <use xlink:href="#m25ad27f841" x="340.368968" y="102.596737" style="stroke: #000000; stroke-width: 0.8"/>
      </g>
     </g>
     <g id="text_6">
      <!-- $\mathdefault{5}$ -->
      <g transform="translate(337.878308 116.724974) scale(0.1 -0.1)">
       <defs>
        <path id="URWPalladioL-Roma-35" d="M 813 3891 
C 1638 3865 1997 3859 2765 3859 
L 2797 3891 
C 2784 4006 2784 4057 2784 4140 
C 2784 4230 2784 4281 2797 4396 
L 2765 4428 
C 2285 4403 1997 4396 1651 4396 
C 1299 4396 1018 4403 538 4428 
L 506 4396 
C 512 4006 518 3724 518 3520 
C 518 2976 499 2360 480 2076 
L 608 2038 
C 909 2341 1082 2432 1395 2432 
C 2010 2432 2394 1992 2394 1295 
C 2394 579 1984 160 1286 160 
C 941 160 621 276 531 443 
L 237 973 
L 83 882 
C 230 514 307 308 397 25 
C 576 -71 832 -128 1107 -128 
C 1536 -128 1990 57 2342 366 
C 2733 715 2938 1153 2938 1631 
C 2938 2360 2419 2873 1690 2873 
C 1382 2873 1152 2790 755 2553 
L 813 3891 
z
" transform="scale(0.015625)"/>
       </defs>
       <use xlink:href="#URWPalladioL-Roma-35" transform="scale(0.996264)"/>
      </g>
     </g>
    </g>
    <g id="xtick_7">
     <g id="line2d_7">
      <g>
       <use xlink:href="#m25ad27f841" x="396.604529" y="102.596737" style="stroke: #000000; stroke-width: 0.8"/>
      </g>
     </g>
     <g id="text_7">
      <!-- $\mathdefault{6}$ -->
      <g transform="translate(394.113869 116.724974) scale(0.1 -0.1)">
       <defs>
        <path id="URWPalladioL-Roma-36" d="M 2662 4287 
L 2426 4396 
C 1811 4193 1549 4066 1222 3788 
C 563 3237 205 2463 205 1585 
C 205 526 717 -128 1542 -128 
C 2374 -128 2995 532 2995 1405 
C 2995 2143 2554 2624 1875 2624 
C 1555 2624 1363 2540 986 2239 
C 915 2182 909 2175 838 2124 
C 973 3275 1510 3895 2662 4237 
L 2662 4287 
z
M 1632 2239 
C 2118 2239 2445 1816 2445 1180 
C 2445 513 2118 83 1626 83 
C 1082 83 787 551 787 1411 
C 787 1636 813 1758 883 1867 
C 1024 2085 1325 2239 1632 2239 
z
" transform="scale(0.015625)"/>
       </defs>
       <use xlink:href="#URWPalladioL-Roma-36" transform="scale(0.996264)"/>
      </g>
     </g>
    </g>
    <g id="text_8">
     <!-- $t [s]$ -->
     <g transform="translate(221.046381 131.106028) scale(0.1 -0.1)">
      <defs>
       <path id="URWPalladioL-Ital-74" d="M 800 2489 
L 442 678 
C 435 633 429 620 410 544 
C 371 364 358 268 358 192 
C 358 32 429 -64 550 -64 
C 774 -64 998 64 1498 467 
L 1594 544 
L 1696 627 
L 1632 742 
L 1344 544 
C 1158 416 1030 352 960 352 
C 902 352 870 403 870 480 
C 870 646 960 1164 1146 2092 
L 1229 2489 
L 1914 2489 
L 1984 2809 
C 1741 2784 1523 2771 1280 2771 
C 1382 3373 1453 3686 1568 4032 
L 1498 4128 
C 1370 4051 1197 3974 998 3897 
L 838 2809 
C 557 2675 390 2604 275 2572 
L 262 2489 
L 800 2489 
z
" transform="scale(0.015625)"/>
       <path id="CMR10-5b" d="M 1632 -1601 
L 1632 -1344 
L 1011 -1344 
L 1011 4544 
L 1632 4544 
L 1632 4800 
L 755 4800 
L 755 -1601 
L 1632 -1601 
z
" transform="scale(0.015625)"/>
       <path id="URWPalladioL-Ital-73" d="M 198 948 
C 166 624 128 401 58 108 
C 301 -7 518 -64 742 -64 
C 1056 -64 1350 51 1677 306 
C 2003 560 2138 795 2138 1113 
C 2138 1456 1933 1640 1459 1729 
L 1184 1780 
C 800 1850 678 1958 678 2218 
C 678 2555 966 2815 1331 2815 
C 1594 2815 1837 2701 1939 2530 
L 1939 2180 
L 2086 2180 
C 2112 2403 2138 2574 2208 2899 
C 1958 3020 1779 3072 1568 3072 
C 1235 3072 845 2879 538 2574 
C 371 2403 301 2244 301 2015 
C 301 1659 499 1456 922 1373 
L 1325 1297 
C 1606 1246 1709 1132 1709 884 
C 1709 471 1414 192 960 192 
C 736 192 538 261 358 414 
L 358 948 
L 198 948 
z
" transform="scale(0.015625)"/>
       <path id="CMR10-5d" d="M 1018 4800 
L 141 4800 
L 141 4544 
L 762 4544 
L 762 -1344 
L 141 -1344 
L 141 -1601 
L 1018 -1601 
L 1018 4800 
z
" transform="scale(0.015625)"/>
      </defs>
      <use xlink:href="#URWPalladioL-Ital-74" transform="scale(0.996264)"/>
      <use xlink:href="#CMR10-5b" transform="translate(35.665282 0) scale(1.038107)"/>
      <use xlink:href="#URWPalladioL-Ital-73" transform="translate(66.947981 0) scale(0.996264)"/>
      <use xlink:href="#CMR10-5d" transform="translate(108.193259 0) scale(1.038107)"/>
     </g>
    </g>
   </g>
   <g id="matplotlib.axis_2">
    <g id="ytick_1">
     <g id="line2d_8">
      <defs>
       <path id="m8aa4a7ac37" d="M 0 0 
L -3.5 0 
" style="stroke: #000000; stroke-width: 0.8"/>
      </defs>
      <g>
       <use xlink:href="#m8aa4a7ac37" x="59.191165" y="194.429355" style="stroke: #000000; stroke-width: 0.8"/>
      </g>
     </g>
     <g id="text_9">
      <!-- $\mathdefault{−0.020}$ -->
      <g transform="translate(21.581054 197.993474) scale(0.1 -0.1)">
       <defs>
        <path id="CMSY10-0" d="M 4218 1472 
C 4326 1472 4442 1472 4442 1600 
C 4442 1728 4326 1728 4218 1728 
L 755 1728 
C 646 1728 531 1728 531 1600 
C 531 1472 646 1472 755 1472 
L 4218 1472 
z
" transform="scale(0.015625)"/>
        <path id="URWPalladioL-Roma-2e" d="M 794 678 
C 602 678 429 499 429 307 
C 429 115 602 -64 787 -64 
C 992 -64 1171 108 1171 307 
C 1171 499 992 678 794 678 
z
" transform="scale(0.015625)"/>
       </defs>
       <use xlink:href="#CMSY10-0" transform="scale(1.038107)"/>
       <use xlink:href="#URWPalladioL-Roma-30" transform="translate(81.941696 0) scale(0.996264)"/>
       <use xlink:href="#URWPalladioL-Roma-2e" transform="translate(131.754897 0) scale(0.996264)"/>
       <use xlink:href="#URWPalladioL-Roma-30" transform="translate(156.661497 0) scale(0.996264)"/>
       <use xlink:href="#URWPalladioL-Roma-32" transform="translate(206.474698 0) scale(0.996264)"/>
       <use xlink:href="#URWPalladioL-Roma-30" transform="translate(256.287898 0) scale(0.996264)"/>
      </g>
     </g>
    </g>
    <g id="ytick_2">
     <g id="line2d_9">
      <g>
       <use xlink:href="#m8aa4a7ac37" x="59.191165" y="171.471201" style="stroke: #000000; stroke-width: 0.8"/>
      </g>
     </g>
     <g id="text_10">
      <!-- $\mathdefault{−0.015}$ -->
      <g transform="translate(21.581054 175.035319) scale(0.1 -0.1)">
       <use xlink:href="#CMSY10-0" transform="scale(1.038107)"/>
       <use xlink:href="#URWPalladioL-Roma-30" transform="translate(81.941696 0) scale(0.996264)"/>
       <use xlink:href="#URWPalladioL-Roma-2e" transform="translate(131.754897 0) scale(0.996264)"/>
       <use xlink:href="#URWPalladioL-Roma-30" transform="translate(156.661497 0) scale(0.996264)"/>
       <use xlink:href="#URWPalladioL-Roma-31" transform="translate(206.474698 0) scale(0.996264)"/>
       <use xlink:href="#URWPalladioL-Roma-35" transform="translate(256.287898 0) scale(0.996264)"/>
      </g>
     </g>
    </g>
    <g id="ytick_3">
     <g id="line2d_10">
      <g>
       <use xlink:href="#m8aa4a7ac37" x="59.191165" y="148.513046" style="stroke: #000000; stroke-width: 0.8"/>
      </g>
     </g>
     <g id="text_11">
      <!-- $\mathdefault{−0.010}$ -->
      <g transform="translate(21.581054 152.077165) scale(0.1 -0.1)">
       <use xlink:href="#CMSY10-0" transform="scale(1.038107)"/>
       <use xlink:href="#URWPalladioL-Roma-30" transform="translate(81.941696 0) scale(0.996264)"/>
       <use xlink:href="#URWPalladioL-Roma-2e" transform="translate(131.754897 0) scale(0.996264)"/>
       <use xlink:href="#URWPalladioL-Roma-30" transform="translate(156.661497 0) scale(0.996264)"/>
       <use xlink:href="#URWPalladioL-Roma-31" transform="translate(206.474698 0) scale(0.996264)"/>
       <use xlink:href="#URWPalladioL-Roma-30" transform="translate(256.287898 0) scale(0.996264)"/>
      </g>
     </g>
    </g>
    <g id="ytick_4">
     <g id="line2d_11">
      <g>
       <use xlink:href="#m8aa4a7ac37" x="59.191165" y="125.554891" style="stroke: #000000; stroke-width: 0.8"/>
      </g>
     </g>
     <g id="text_12">
      <!-- $\mathdefault{−0.005}$ -->
      <g transform="translate(21.581054 129.11901) scale(0.1 -0.1)">
       <use xlink:href="#CMSY10-0" transform="scale(1.038107)"/>
       <use xlink:href="#URWPalladioL-Roma-30" transform="translate(81.941696 0) scale(0.996264)"/>
       <use xlink:href="#URWPalladioL-Roma-2e" transform="translate(131.754897 0) scale(0.996264)"/>
       <use xlink:href="#URWPalladioL-Roma-30" transform="translate(156.661497 0) scale(0.996264)"/>
       <use xlink:href="#URWPalladioL-Roma-30" transform="translate(206.474698 0) scale(0.996264)"/>
       <use xlink:href="#URWPalladioL-Roma-35" transform="translate(256.287898 0) scale(0.996264)"/>
      </g>
     </g>
    </g>
    <g id="ytick_5">
     <g id="line2d_12">
      <g>
       <use xlink:href="#m8aa4a7ac37" x="59.191165" y="102.596737" style="stroke: #000000; stroke-width: 0.8"/>
      </g>
     </g>
     <g id="text_13">
      <!-- $\mathdefault{0.000}$ -->
      <g transform="translate(29.775225 106.160856) scale(0.1 -0.1)">
       <use xlink:href="#URWPalladioL-Roma-30" transform="scale(0.996264)"/>
       <use xlink:href="#URWPalladioL-Roma-2e" transform="translate(49.8132 0) scale(0.996264)"/>
       <use xlink:href="#URWPalladioL-Roma-30" transform="translate(74.719801 0) scale(0.996264)"/>
       <use xlink:href="#URWPalladioL-Roma-30" transform="translate(124.533001 0) scale(0.996264)"/>
       <use xlink:href="#URWPalladioL-Roma-30" transform="translate(174.346202 0) scale(0.996264)"/>
      </g>
     </g>
    </g>
    <g id="ytick_6">
     <g id="line2d_13">
      <g>
       <use xlink:href="#m8aa4a7ac37" x="59.191165" y="79.638582" style="stroke: #000000; stroke-width: 0.8"/>
      </g>
     </g>
     <g id="text_14">
      <!-- $\mathdefault{0.005}$ -->
      <g transform="translate(29.775225 83.202701) scale(0.1 -0.1)">
       <use xlink:href="#URWPalladioL-Roma-30" transform="scale(0.996264)"/>
       <use xlink:href="#URWPalladioL-Roma-2e" transform="translate(49.8132 0) scale(0.996264)"/>
       <use xlink:href="#URWPalladioL-Roma-30" transform="translate(74.719801 0) scale(0.996264)"/>
       <use xlink:href="#URWPalladioL-Roma-30" transform="translate(124.533001 0) scale(0.996264)"/>
       <use xlink:href="#URWPalladioL-Roma-35" transform="translate(174.346202 0) scale(0.996264)"/>
      </g>
     </g>
    </g>
    <g id="ytick_7">
     <g id="line2d_14">
      <g>
       <use xlink:href="#m8aa4a7ac37" x="59.191165" y="56.680428" style="stroke: #000000; stroke-width: 0.8"/>
      </g>
     </g>
     <g id="text_15">
      <!-- $\mathdefault{0.010}$ -->
      <g transform="translate(29.775225 60.244546) scale(0.1 -0.1)">
       <use xlink:href="#URWPalladioL-Roma-30" transform="scale(0.996264)"/>
       <use xlink:href="#URWPalladioL-Roma-2e" transform="translate(49.8132 0) scale(0.996264)"/>
       <use xlink:href="#URWPalladioL-Roma-30" transform="translate(74.719801 0) scale(0.996264)"/>
       <use xlink:href="#URWPalladioL-Roma-31" transform="translate(124.533001 0) scale(0.996264)"/>
       <use xlink:href="#URWPalladioL-Roma-30" transform="translate(174.346202 0) scale(0.996264)"/>
      </g>
     </g>
    </g>
    <g id="ytick_8">
     <g id="line2d_15">
      <g>
       <use xlink:href="#m8aa4a7ac37" x="59.191165" y="33.722273" style="stroke: #000000; stroke-width: 0.8"/>
      </g>
     </g>
     <g id="text_16">
      <!-- $\mathdefault{0.015}$ -->
      <g transform="translate(29.775225 37.286392) scale(0.1 -0.1)">
       <use xlink:href="#URWPalladioL-Roma-30" transform="scale(0.996264)"/>
       <use xlink:href="#URWPalladioL-Roma-2e" transform="translate(49.8132 0) scale(0.996264)"/>
       <use xlink:href="#URWPalladioL-Roma-30" transform="translate(74.719801 0) scale(0.996264)"/>
       <use xlink:href="#URWPalladioL-Roma-31" transform="translate(124.533001 0) scale(0.996264)"/>
       <use xlink:href="#URWPalladioL-Roma-35" transform="translate(174.346202 0) scale(0.996264)"/>
      </g>
     </g>
    </g>
    <g id="ytick_9">
     <g id="line2d_16">
      <g>
       <use xlink:href="#m8aa4a7ac37" x="59.191165" y="10.764119" style="stroke: #000000; stroke-width: 0.8"/>
      </g>
     </g>
     <g id="text_17">
      <!-- $\mathdefault{0.020}$ -->
      <g transform="translate(29.775225 14.328237) scale(0.1 -0.1)">
       <use xlink:href="#URWPalladioL-Roma-30" transform="scale(0.996264)"/>
       <use xlink:href="#URWPalladioL-Roma-2e" transform="translate(49.8132 0) scale(0.996264)"/>
       <use xlink:href="#URWPalladioL-Roma-30" transform="translate(74.719801 0) scale(0.996264)"/>
       <use xlink:href="#URWPalladioL-Roma-32" transform="translate(124.533001 0) scale(0.996264)"/>
       <use xlink:href="#URWPalladioL-Roma-30" transform="translate(174.346202 0) scale(0.996264)"/>
      </g>
     </g>
    </g>
    <g id="text_18">
     <!-- $u(t)$ [m] -->
     <g transform="translate(14.771643 120.648949) rotate(-90) scale(0.1 -0.1)">
      <defs>
       <path id="URWPalladioL-Ital-75" d="M 2131 613 
C 2086 459 2061 287 2061 191 
C 2061 32 2131 -64 2253 -64 
C 2419 -64 2650 70 3277 536 
L 3213 651 
L 3046 542 
C 2893 440 2726 370 2656 370 
C 2605 370 2573 415 2573 479 
C 2573 530 2586 600 2605 696 
L 2611 734 
C 2758 1430 2957 2279 3149 3014 
L 3104 3072 
L 2669 2963 
L 2605 2637 
C 2509 2139 2349 1705 2150 1405 
C 1773 823 1274 370 1018 370 
C 966 370 934 427 934 536 
C 934 625 947 708 979 868 
L 1344 2599 
C 1363 2701 1376 2790 1376 2873 
C 1376 2995 1318 3072 1229 3072 
C 1101 3072 858 2937 384 2599 
L 205 2471 
L 250 2343 
L 454 2477 
C 634 2592 704 2624 762 2624 
C 819 2624 870 2567 870 2496 
C 870 2471 864 2407 858 2382 
L 454 485 
C 442 427 429 274 429 185 
C 429 51 525 -64 653 -64 
C 1056 -64 1830 652 2368 1536 
L 2131 613 
z
" transform="scale(0.015625)"/>
       <path id="CMR10-28" d="M 2118 -1536 
C 2118 -1517 2118 -1504 2010 -1396 
C 1210 -589 1005 620 1005 1600 
C 1005 2713 1248 3827 2035 4627 
C 2118 4704 2118 4716 2118 4736 
C 2118 4780 2093 4800 2054 4800 
C 1990 4800 1414 4365 1037 3552 
C 710 2848 634 2137 634 1600 
C 634 1100 704 326 1056 -397 
C 1440 -1184 1990 -1600 2054 -1600 
C 2093 -1600 2118 -1581 2118 -1536 
z
" transform="scale(0.015625)"/>
       <path id="CMR10-29" d="M 1850 1600 
C 1850 2099 1779 2873 1427 3597 
C 1043 4384 493 4800 429 4800 
C 390 4800 365 4774 365 4736 
C 365 4716 365 4704 486 4589 
C 1114 3955 1478 2937 1478 1600 
C 1478 505 1242 -621 448 -1428 
C 365 -1504 365 -1517 365 -1536 
C 365 -1575 390 -1600 429 -1600 
C 493 -1600 1069 -1165 1446 -352 
C 1773 352 1850 1062 1850 1600 
z
" transform="scale(0.015625)"/>
       <path id="URWPalladioL-Roma-5b" d="M 563 -1178 
C 1018 -1166 1030 -1166 1184 -1166 
C 1338 -1166 1370 -1166 1805 -1178 
L 1843 -1140 
L 1843 -974 
L 1818 -942 
L 1574 -942 
C 1402 -942 1261 -903 1184 -839 
C 1126 -782 1107 -692 1107 -481 
C 1107 -474 1107 -340 1101 -148 
L 1101 89 
L 1101 3379 
L 1101 3615 
C 1107 3795 1107 3935 1107 3942 
C 1107 4153 1126 4249 1184 4307 
C 1261 4371 1402 4409 1574 4409 
L 1818 4409 
L 1843 4441 
L 1843 4608 
L 1805 4646 
C 1357 4633 1338 4633 1184 4633 
C 1037 4633 1005 4633 563 4646 
L 506 4563 
C 544 4403 557 4191 557 3699 
C 557 3603 557 3526 563 3462 
L 563 3379 
L 563 89 
L 563 6 
C 557 -97 557 -103 557 -212 
L 557 -282 
C 557 -718 544 -897 506 -1095 
L 563 -1178 
z
" transform="scale(0.015625)"/>
       <path id="URWPalladioL-Roma-6d" d="M 115 2579 
L 352 2579 
C 608 2579 634 2534 634 2112 
L 634 672 
C 634 268 614 224 397 211 
L 102 192 
L 102 0 
C 717 0 736 0 915 0 
C 1094 19 1261 12 1677 0 
L 1677 192 
L 1408 211 
C 1190 223 1171 268 1171 670 
L 1171 2023 
C 1171 2311 1594 2624 1978 2624 
C 2323 2624 2560 2298 2560 1813 
L 2560 670 
C 2560 268 2541 223 2323 211 
L 2029 192 
L 2029 0 
C 2669 0 2669 0 2829 0 
C 2989 19 2989 19 3629 0 
L 3629 192 
L 3334 211 
C 3117 223 3098 268 3098 670 
L 3098 2023 
C 3098 2311 3520 2624 3904 2624 
C 4250 2624 4486 2298 4486 1813 
L 4486 0 
C 4877 0 4883 0 4992 0 
C 5075 19 5075 19 5562 0 
L 5562 192 
L 5261 211 
C 5043 223 5024 268 5024 670 
L 5024 1985 
C 5024 2617 4653 3014 4064 3014 
C 3840 3014 3654 2956 3539 2854 
L 3053 2419 
C 2848 2841 2586 3014 2144 3014 
C 1907 3014 1728 2956 1613 2854 
L 1171 2445 
L 1171 2988 
L 1114 3008 
C 787 2873 454 2783 115 2745 
L 115 2579 
z
" transform="scale(0.015625)"/>
       <path id="URWPalladioL-Roma-5d" d="M 1568 4646 
C 1114 4633 1094 4633 947 4633 
C 794 4633 762 4633 326 4646 
L 288 4608 
L 288 4441 
L 314 4409 
L 557 4409 
C 730 4409 864 4371 941 4307 
C 1005 4249 1024 4159 1024 3942 
C 1024 3923 1024 3795 1030 3615 
L 1030 3379 
L 1030 89 
L 1030 -148 
C 1024 -334 1024 -449 1024 -468 
C 1024 -686 1005 -782 941 -839 
C 864 -903 730 -942 557 -942 
L 314 -942 
L 288 -974 
L 288 -1140 
L 326 -1178 
C 774 -1166 787 -1166 947 -1166 
C 1094 -1166 1126 -1166 1568 -1178 
L 1626 -1095 
C 1587 -942 1581 -743 1574 -250 
C 1574 -161 1574 -78 1568 6 
L 1568 89 
L 1568 3379 
L 1568 3462 
C 1574 3532 1574 3615 1574 3705 
C 1574 4198 1587 4409 1626 4563 
L 1568 4646 
z
" transform="scale(0.015625)"/>
      </defs>
      <use xlink:href="#URWPalladioL-Ital-75" transform="scale(0.996264)"/>
      <use xlink:href="#CMR10-28" transform="translate(57.88296 0) scale(1.038107)"/>
      <use xlink:href="#URWPalladioL-Ital-74" transform="translate(100.622665 0) scale(0.996264)"/>
      <use xlink:href="#CMR10-29" transform="translate(136.287947 0) scale(1.038107)"/>
      <use xlink:href="#URWPalladioL-Roma-5b" transform="translate(202.688952 0) scale(0.996264)"/>
      <use xlink:href="#URWPalladioL-Roma-6d" transform="translate(235.864182 0) scale(0.996264)"/>
      <use xlink:href="#URWPalladioL-Roma-5d" transform="translate(323.833856 0) scale(0.996264)"/>
     </g>
    </g>
   </g>
   <g id="line2d_17">
    <path d="M 59.191165 145.90153 
L 59.867344 144.481756 
L 60.543524 140.315532 
L 61.219703 133.676042 
L 61.895882 124.998645 
L 63.24824 103.902397 
L 64.600598 82.469308 
L 65.276777 73.391543 
L 65.952956 66.228798 
L 66.629135 61.450741 
L 67.305314 59.370677 
L 67.981493 60.124996 
L 68.657673 63.664238 
L 69.333852 69.756331 
L 70.010031 78.001807 
L 71.362389 98.684504 
L 72.714747 120.376498 
L 73.390926 129.821622 
L 74.067105 137.481578 
L 74.743284 142.854093 
L 75.419463 145.586886 
L 76.095642 145.500763 
L 76.771822 142.601372 
L 77.448001 137.07883 
L 78.12418 129.295256 
L 79.476538 109.101317 
L 81.505075 77.451155 
L 82.181254 69.321842 
L 82.857433 63.374404 
L 83.533612 59.99882 
L 84.209792 59.416433 
L 84.885971 61.66543 
L 85.56215 66.598341 
L 86.238329 73.89171 
L 87.590687 93.523462 
L 89.619224 125.571581 
L 90.295403 134.140691 
L 90.971582 140.641426 
L 91.647761 144.647526 
L 92.323941 145.896306 
L 93.00012 144.305881 
L 93.676299 139.980538 
L 94.352478 133.203894 
L 95.704836 114.205715 
L 97.733373 81.876171 
L 98.409552 72.898423 
L 99.085731 65.868029 
L 99.76191 61.24598 
L 100.43809 59.335349 
L 101.114269 60.261419 
L 101.790448 63.963466 
L 102.466627 70.198743 
L 103.142806 78.558394 
L 104.495164 99.354858 
L 105.847522 120.987679 
L 106.523701 130.34142 
L 107.19988 137.875909 
L 107.87606 143.097101 
L 108.552239 145.662636 
L 109.228418 145.404289 
L 109.904597 142.338999 
L 110.580776 136.667762 
L 111.256955 128.762447 
L 112.609313 108.43553 
L 114.63785 76.906569 
L 115.314029 68.895382 
L 115.990209 63.094032 
L 116.666388 59.882923 
L 117.342567 59.472608 
L 118.018746 61.889994 
L 118.694925 66.97657 
L 119.371104 74.398802 
L 120.723462 94.18226 
L 122.751999 126.138975 
L 123.428178 134.59773 
L 124.104358 140.958141 
L 124.780537 144.80315 
L 125.456716 145.880634 
L 126.132895 144.119942 
L 126.809074 139.636523 
L 127.485253 132.724362 
L 128.837611 113.556301 
L 130.866148 81.288034 
L 131.542328 72.412469 
L 132.218507 65.516122 
L 132.894686 61.051196 
L 133.570865 59.31046 
L 134.247044 60.408057 
L 134.923223 64.272015 
L 135.599402 70.648972 
L 136.275581 79.120781 
L 137.627939 100.025995 
L 138.980297 121.594423 
L 139.656477 130.854524 
L 140.332656 138.261729 
L 141.008835 143.330338 
L 141.685014 145.727996 
L 142.361193 145.297486 
L 143.037372 142.067037 
L 143.713551 136.248474 
L 144.38973 128.223326 
L 145.742088 107.768335 
L 147.094446 85.979148 
L 147.770626 76.368181 
L 148.446805 68.477053 
L 149.122984 62.823192 
L 149.799163 59.77733 
L 150.475342 59.539188 
L 151.151521 62.12438 
L 151.8277 67.363393 
L 152.503879 74.912698 
L 153.856237 94.843088 
L 155.884775 126.700688 
L 156.560954 135.047047 
L 157.237133 141.265601 
L 157.913312 144.948591 
L 158.589491 145.85452 
L 159.26567 143.923984 
L 159.941849 139.283572 
L 160.618028 132.23756 
L 161.970386 112.904243 
L 163.998924 80.705037 
L 164.675103 71.933797 
L 165.351282 65.173162 
L 166.027461 60.866435 
L 166.70364 59.296014 
L 167.379819 60.564873 
L 168.055998 64.589811 
L 168.732177 71.106909 
L 169.408356 79.688832 
L 170.760714 100.697752 
L 172.113073 122.196583 
L 172.789252 131.36081 
L 173.465431 138.638943 
L 174.14161 143.553746 
L 174.817789 145.782949 
L 175.493968 145.18038 
L 176.170147 141.785552 
L 176.846326 135.821066 
L 177.522505 127.678021 
L 178.874864 107.099891 
L 180.227222 85.360014 
L 180.903401 75.836122 
L 181.57958 68.066956 
L 182.255759 62.561948 
L 182.931938 59.682069 
L 183.608117 59.616156 
L 184.284296 62.368531 
L 184.960475 67.758717 
L 185.636654 75.433273 
L 186.989013 95.505787 
L 189.01755 127.256586 
L 189.693729 135.488535 
L 190.369908 141.56373 
L 191.046087 145.083813 
L 191.722266 145.817968 
L 192.398445 143.718056 
L 193.074624 138.921769 
L 193.750803 131.743607 
L 195.103162 112.249698 
L 197.131699 80.127322 
L 197.807878 71.462523 
L 198.484057 64.839231 
L 199.160236 60.691743 
L 199.836415 59.292016 
L 200.512594 60.731831 
L 201.188773 64.916777 
L 201.864952 71.572444 
L 202.541132 80.26241 
L 203.89349 101.369968 
L 205.245848 122.794014 
L 205.922027 131.860156 
L 206.598206 139.007462 
L 207.274385 143.767273 
L 207.950564 145.827482 
L 208.626743 145.053001 
L 209.302922 141.494611 
L 209.979101 135.385642 
L 210.655281 127.126665 
L 212.007639 106.430361 
L 213.359997 84.745039 
L 214.036176 75.31052 
L 214.712355 67.66519 
L 215.388534 62.310364 
L 216.064713 59.597163 
L 216.740892 59.703495 
L 217.417071 62.622388 
L 218.09325 68.162446 
L 218.76943 75.960403 
L 220.121788 96.170197 
L 222.150325 127.806533 
L 222.826504 135.922087 
L 223.502683 141.852458 
L 224.178862 145.208785 
L 224.855041 145.770989 
L 225.53122 143.502205 
L 226.2074 138.551202 
L 226.883579 131.242622 
L 228.235937 111.592824 
L 230.264474 79.555029 
L 230.940653 70.998761 
L 231.616832 64.51441 
L 232.293011 60.527162 
L 232.96919 59.298466 
L 233.645369 60.908889 
L 234.321549 65.252835 
L 234.997728 72.045464 
L 236.350086 91.063814 
L 238.378623 123.386572 
L 239.054802 132.352442 
L 239.730981 139.367195 
L 240.40716 143.970866 
L 241.083339 145.861585 
L 241.759518 144.915378 
L 242.435698 141.194286 
L 243.111877 134.942307 
L 243.788056 126.569391 
L 245.140414 105.759907 
L 246.492772 84.134371 
L 247.168951 74.791501 
L 247.84513 67.271853 
L 248.521309 62.068499 
L 249.197488 59.52263 
L 249.873668 59.801182 
L 250.549847 62.885889 
L 251.226026 68.574484 
L 251.902205 76.493958 
L 253.254563 96.836157 
L 255.2831 128.350399 
L 255.959279 136.347599 
L 256.635458 142.131714 
L 257.311637 145.323475 
L 257.987817 145.713592 
L 258.663996 143.276486 
L 259.340175 138.17196 
L 260.016354 130.734725 
L 261.368712 110.93378 
L 263.397249 78.988295 
L 264.073428 70.542623 
L 264.749607 64.198777 
L 265.425786 60.372731 
L 266.101966 59.315363 
L 266.778145 61.096006 
L 267.454324 65.597902 
L 268.130503 72.525855 
L 269.482861 91.713546 
L 271.511398 123.974113 
L 272.187577 132.837548 
L 272.863756 139.718057 
L 273.539936 144.164476 
L 274.216115 145.88525 
L 274.892294 144.767544 
L 275.568473 140.884648 
L 276.244652 134.491168 
L 276.920831 126.006333 
L 278.273189 105.088689 
L 279.625547 83.528158 
L 280.301726 74.27919 
L 280.977905 66.887038 
L 281.654085 61.836413 
L 282.330264 59.458491 
L 283.006443 59.909195 
L 283.682622 63.158972 
L 284.358801 68.99473 
L 285.03498 77.033812 
L 286.387338 97.503508 
L 287.739696 119.287181 
L 288.415875 128.88805 
L 289.092054 136.764967 
L 289.768234 142.401432 
L 290.444413 145.427856 
L 291.120592 145.645793 
L 291.796771 143.040951 
L 292.47295 137.784135 
L 293.149129 130.220039 
L 294.501487 110.272724 
L 296.530024 78.427257 
L 297.206204 70.094218 
L 297.882383 63.892408 
L 298.558562 60.228487 
L 299.234741 59.342702 
L 299.91092 61.293136 
L 300.587099 65.951896 
L 301.263278 73.013502 
L 302.615636 92.365904 
L 304.644173 124.556497 
L 305.320353 133.315358 
L 305.996532 140.059962 
L 306.672711 144.348058 
L 307.34889 145.89847 
L 308.025069 144.609535 
L 308.701248 140.565772 
L 309.377427 134.032334 
L 310.053606 125.437626 
L 311.405964 104.416869 
L 312.758322 82.926545 
L 313.434502 73.773712 
L 314.110681 66.510839 
L 314.78686 61.614161 
L 315.463039 59.40476 
L 316.139218 60.027508 
L 316.815397 63.44157 
L 317.491576 69.423084 
L 318.167755 77.579833 
L 319.520113 98.172087 
L 320.872472 119.905834 
L 321.548651 129.419358 
L 322.22483 137.174091 
L 322.901009 142.661546 
L 323.577188 145.521903 
L 324.253367 145.567606 
L 324.929546 142.795659 
L 325.605725 137.38782 
L 326.281904 129.698688 
L 327.634262 109.609816 
L 329.6628 77.872051 
L 330.338979 69.653656 
L 331.015158 63.595378 
L 331.691337 60.094466 
L 332.367516 59.380478 
L 333.043695 61.500232 
L 333.719874 66.314732 
L 334.396053 73.508286 
L 335.748411 93.02073 
L 337.776949 125.133583 
L 338.453128 133.785756 
L 339.129307 140.392828 
L 339.805486 144.521566 
L 340.481665 145.901242 
L 341.157844 144.44139 
L 341.834023 140.237735 
L 342.510202 133.565915 
L 343.186381 124.863409 
L 345.214919 92.713104 
L 346.567277 73.275189 
L 347.243456 66.143347 
L 347.919635 61.401798 
L 348.595814 59.36145 
L 349.271993 60.156091 
L 349.948172 63.733615 
L 350.624351 69.859441 
L 351.30053 78.131891 
L 352.652889 98.841733 
L 354.005247 120.520312 
L 354.681426 129.944195 
L 355.357605 137.574873 
L 356.033784 142.911993 
L 356.709963 145.605594 
L 357.386142 145.479053 
L 358.062321 142.540667 
L 358.7385 136.98311 
L 359.414679 129.170798 
L 360.767038 108.945216 
L 362.795575 77.32281 
L 363.471754 69.221042 
L 364.147933 63.307758 
L 364.824112 59.970699 
L 365.500291 59.42868 
L 366.17647 61.717242 
L 366.852649 66.686321 
L 367.528828 74.010089 
L 368.881187 93.677867 
L 370.909724 125.705231 
L 371.585903 134.248629 
L 372.262082 140.716575 
L 372.938261 144.684958 
L 373.61444 145.893566 
L 374.290619 144.263149 
L 374.966798 139.900617 
L 375.642977 133.092024 
L 376.995336 114.053566 
L 379.023873 81.737702 
L 379.700052 72.783739 
L 380.376231 65.78465 
L 381.05241 61.199373 
L 381.728589 59.328571 
L 382.404768 60.294914 
L 383.080947 64.035037 
L 383.757126 70.303697 
L 384.433306 78.689851 
L 385.785664 99.512286 
L 387.138022 121.130464 
L 387.814201 130.462433 
L 388.49038 137.967215 
L 389.166559 143.152713 
L 389.842738 145.678907 
L 390.518917 145.380152 
L 391.195096 142.276038 
L 391.871276 136.570104 
L 392.547455 128.636497 
L 393.899813 108.279084 
L 395.92835 76.779667 
L 396.604529 68.796481 
L 396.604529 68.796481 
" clip-path="url(#p5c2a169b7a)" style="fill: none; stroke: #808080; stroke-width: 1.5; stroke-linecap: square"/>
   </g>
   <g id="line2d_18">
    <path d="M 59.191165 59.291944 
L 59.867344 60.062059 
L 60.543524 62.345014 
L 61.219703 66.05961 
L 61.895882 71.073729 
L 63.24824 84.247308 
L 67.305314 130.351217 
L 67.981493 136.098803 
L 68.657673 140.654814 
L 69.333852 143.857205 
L 70.010031 145.592077 
L 70.68621 145.797725 
L 71.362389 144.466835 
L 72.038568 141.646742 
L 72.714747 137.43775 
L 73.390926 131.98956 
L 74.743284 118.187878 
L 78.12418 79.007446 
L 78.800359 72.608537 
L 79.476538 67.276225 
L 80.152717 63.200165 
L 80.828896 60.525331 
L 81.505075 59.346859 
L 82.181254 59.706665 
L 82.857433 61.59195 
L 83.533612 64.935661 
L 84.209792 69.618871 
L 85.56215 82.295796 
L 87.590687 106.001187 
L 88.943045 121.683705 
L 90.295403 134.674888 
L 90.971582 139.566362 
L 91.647761 143.14293 
L 92.323941 145.277384 
L 93.00012 145.893806 
L 93.676299 144.970272 
L 94.352478 142.53963 
L 95.028657 138.688332 
L 95.704836 133.553356 
L 97.057194 120.20208 
L 101.114269 74.219402 
L 101.790448 68.582421 
L 102.466627 64.155235 
L 103.142806 61.095305 
L 103.818985 59.511466 
L 104.495164 59.460049 
L 105.171343 60.942883 
L 105.847522 63.907228 
L 106.523701 68.247651 
L 107.19988 73.809776 
L 108.552239 87.771393 
L 111.933134 126.867692 
L 112.609313 133.169616 
L 113.285492 138.384148 
L 113.961671 142.325821 
L 114.63785 144.854443 
L 115.314029 145.880076 
L 115.990209 145.366241 
L 116.666388 143.331215 
L 117.342567 139.847377 
L 118.018746 135.038639 
L 119.371104 122.171631 
L 121.399641 98.377562 
L 122.751999 82.779038 
L 124.104358 69.974885 
L 124.780537 65.207801 
L 125.456716 61.770536 
L 126.132895 59.785346 
L 126.809074 59.322837 
L 127.485253 60.399459 
L 128.161432 62.976921 
L 128.837611 66.963549 
L 129.51379 72.21755 
L 130.866148 85.741759 
L 134.923223 131.586804 
L 135.599402 137.111168 
L 136.275581 141.407951 
L 136.95176 144.324327 
L 137.627939 145.756569 
L 138.304118 145.653737 
L 138.980297 144.019488 
L 139.656477 140.911947 
L 140.332656 136.441642 
L 141.008835 130.767568 
L 142.361193 116.650994 
L 145.742088 77.652776 
L 146.418267 71.450085 
L 147.094446 66.355193 
L 147.770626 62.549312 
L 148.446805 60.167805 
L 149.122984 59.295377 
L 149.799163 59.963057 
L 150.475342 62.147098 
L 151.151521 65.76982 
L 151.8277 70.702372 
L 153.180058 83.754872 
L 157.237133 129.930467 
L 157.913312 135.750653 
L 158.589491 140.391646 
L 159.26567 143.688381 
L 159.941849 145.5236 
L 160.618028 145.832031 
L 161.294207 144.602704 
L 161.970386 141.879342 
L 162.646565 137.758807 
L 163.322745 132.387656 
L 164.675103 118.695337 
L 168.055998 79.466578 
L 169.408356 67.594502 
L 170.084535 63.429656 
L 170.760714 60.657873 
L 171.436894 59.377739 
L 172.113073 59.634783 
L 172.789252 61.419865 
L 173.465431 64.669492 
L 174.14161 69.268085 
L 174.817789 75.052086 
L 176.170147 89.31858 
L 179.551043 128.204806 
L 180.227222 134.306051 
L 180.903401 139.279486 
L 181.57958 142.948217 
L 182.255759 145.181759 
L 182.931938 145.900671 
L 183.608117 145.079384 
L 184.284296 142.747107 
L 184.960475 138.986793 
L 185.636654 133.932188 
L 186.989013 120.698851 
L 191.046087 74.633527 
L 191.722266 68.922584 
L 192.398445 64.409336 
L 193.074624 61.254308 
L 193.750803 59.569714 
L 194.426982 59.415471 
L 195.103162 60.797065 
L 195.779341 63.665356 
L 196.45552 67.918328 
L 197.131699 73.404713 
L 198.484057 87.260257 
L 201.864952 126.414196 
L 202.541132 132.781029 
L 203.217311 138.07429 
L 203.89349 142.105714 
L 204.569669 144.731914 
L 205.245848 145.859483 
L 205.922027 145.448318 
L 206.598206 143.513041 
L 207.274385 140.122487 
L 207.950564 135.397246 
L 209.302922 122.656454 
L 211.33146 98.920563 
L 212.683818 83.265423 
L 214.036176 70.336071 
L 214.712355 65.485868 
L 215.388534 61.955596 
L 216.064713 59.870815 
L 216.740892 59.305675 
L 217.417071 60.280278 
L 218.09325 62.759958 
L 218.76943 66.656522 
L 219.445609 71.831378 
L 220.797967 85.240831 
L 224.855041 131.179452 
L 225.53122 136.779115 
L 226.2074 141.163006 
L 226.883579 144.175204 
L 227.559758 145.708571 
L 228.235937 145.708571 
L 228.912116 144.175204 
L 229.588295 141.163006 
L 230.264474 136.779115 
L 230.940653 131.179452 
L 232.293011 117.165626 
L 235.673907 78.100473 
L 236.350086 71.831378 
L 237.026265 66.656522 
L 237.702444 62.759958 
L 238.378623 60.280278 
L 239.054802 59.305675 
L 239.730981 59.870815 
L 240.40716 61.955596 
L 241.083339 65.485868 
L 241.759518 70.336071 
L 243.111877 83.265423 
L 245.140414 107.087166 
L 246.492772 122.656454 
L 247.84513 135.397246 
L 248.521309 140.122487 
L 249.197488 143.513041 
L 249.873668 145.448318 
L 250.549847 145.859483 
L 251.226026 144.731914 
L 251.902205 142.105714 
L 252.578384 138.07429 
L 253.254563 132.781029 
L 254.606921 119.200244 
L 258.663996 73.404713 
L 259.340175 67.918328 
L 260.016354 63.665356 
L 260.692533 60.797065 
L 261.368712 59.415471 
L 262.044891 59.569714 
L 262.72107 61.254308 
L 263.397249 64.409336 
L 264.073428 68.922584 
L 264.749607 74.633527 
L 266.101966 88.800636 
L 269.482861 127.763067 
L 270.15904 133.932188 
L 270.835219 138.986793 
L 271.511398 142.747107 
L 272.187577 145.079384 
L 272.863756 145.900671 
L 273.539936 145.181759 
L 274.216115 142.948217 
L 274.892294 139.279486 
L 275.568473 134.306051 
L 276.920831 121.192752 
L 280.977905 75.052086 
L 281.654085 69.268085 
L 282.330264 64.669492 
L 283.006443 61.419865 
L 283.682622 59.634783 
L 284.358801 59.377739 
L 285.03498 60.657873 
L 285.711159 63.429656 
L 286.387338 67.594502 
L 287.063517 73.004279 
L 288.415875 86.751552 
L 291.796771 125.956925 
L 293.149129 137.758807 
L 293.825308 141.879342 
L 294.501487 144.602704 
L 295.177666 145.832031 
L 295.853845 145.5236 
L 296.530024 143.688381 
L 297.206204 140.391646 
L 297.882383 135.750653 
L 298.558562 129.930467 
L 299.91092 115.615128 
L 303.291815 76.769317 
L 303.967994 70.702372 
L 304.644173 65.76982 
L 305.320353 62.147098 
L 305.996532 59.963057 
L 306.672711 59.295377 
L 307.34889 60.167805 
L 308.025069 62.549312 
L 308.701248 66.355193 
L 309.377427 71.450085 
L 310.729785 84.742654 
L 314.78686 130.767568 
L 315.463039 136.441642 
L 316.139218 140.911947 
L 316.815397 144.019488 
L 317.491576 145.653737 
L 318.167755 145.756569 
L 318.843934 144.324327 
L 319.520113 141.407951 
L 320.196292 137.111168 
L 320.872472 131.586804 
L 322.22483 117.677948 
L 325.605725 78.552053 
L 326.281904 72.21755 
L 326.958083 66.963549 
L 327.634262 62.976921 
L 328.310441 60.399459 
L 328.986621 59.322837 
L 329.6628 59.785346 
L 330.338979 61.770536 
L 331.015158 65.207801 
L 331.691337 69.974885 
L 333.043695 82.779038 
L 335.072232 106.544489 
L 336.42459 122.171631 
L 337.776949 135.038639 
L 338.453128 139.847377 
L 339.129307 143.331215 
L 339.805486 145.366241 
L 340.481665 145.880076 
L 341.157844 144.854443 
L 341.834023 142.325821 
L 342.510202 138.384148 
L 343.186381 133.169616 
L 344.53874 119.702518 
L 348.595814 73.809776 
L 349.271993 68.247651 
L 349.948172 63.907228 
L 350.624351 60.942883 
L 351.30053 59.460049 
L 351.976709 59.511466 
L 352.652889 61.095305 
L 353.329068 64.155235 
L 354.005247 68.582421 
L 354.681426 74.219402 
L 356.033784 88.28488 
L 359.414679 127.317339 
L 360.090858 133.553356 
L 360.767038 138.688332 
L 361.443217 142.53963 
L 362.119396 144.970272 
L 362.795575 145.893806 
L 363.471754 145.277384 
L 364.147933 143.14293 
L 364.824112 139.566362 
L 365.500291 134.674888 
L 366.852649 121.683705 
L 368.881187 97.835231 
L 370.233545 82.295796 
L 371.585903 69.618871 
L 372.262082 64.935661 
L 372.938261 61.59195 
L 373.61444 59.706665 
L 374.290619 59.346859 
L 374.966798 60.525331 
L 375.642977 63.200165 
L 376.319157 67.276225 
L 376.995336 72.608537 
L 378.347694 86.245359 
L 382.404768 131.98956 
L 383.080947 137.43775 
L 383.757126 141.646742 
L 384.433306 144.466835 
L 385.109485 145.797725 
L 385.785664 145.592077 
L 386.461843 143.857205 
L 387.138022 140.654814 
L 387.814201 136.098803 
L 388.49038 130.351217 
L 389.842738 116.134134 
L 393.223634 77.209034 
L 393.899813 71.073729 
L 394.575992 66.05961 
L 395.252171 62.345014 
L 395.92835 60.062059 
L 396.604529 59.291944 
L 396.604529 59.291944 
" clip-path="url(#p5c2a169b7a)" style="fill: none; stroke: #cccccc; stroke-width: 1.5; stroke-linecap: square"/>
   </g>
   <g id="line2d_19">
    <path d="M 59.191165 102.596737 
L 59.867344 101.947079 
L 60.543524 100.063809 
L 61.219703 97.138915 
L 63.924419 82.208336 
L 64.600598 79.880798 
L 65.276777 78.965105 
L 65.952956 79.766195 
L 66.629135 82.470487 
L 67.305314 87.125157 
L 67.981493 93.627062 
L 69.333852 111.016799 
L 71.362389 140.554602 
L 72.038568 148.815539 
L 72.714747 155.217511 
L 73.390926 159.214445 
L 74.067105 160.380791 
L 74.743284 158.445235 
L 75.419463 153.315423 
L 76.095642 145.091813 
L 76.771822 134.069481 
L 78.12418 105.705964 
L 80.152717 58.618522 
L 80.828896 45.157887 
L 81.505075 34.201277 
L 82.181254 26.43177 
L 82.857433 22.369617 
L 83.533612 22.337744 
L 84.209792 26.438567 
L 84.885971 34.543705 
L 85.56215 46.2974 
L 86.914508 78.305796 
L 89.619224 151.617328 
L 90.295403 166.218842 
L 90.971582 177.611052 
L 91.647761 185.19372 
L 92.323941 188.576952 
L 93.00012 187.60295 
L 93.676299 182.354073 
L 94.352478 173.146788 
L 95.028657 160.511898 
L 96.381015 127.950515 
L 98.409552 74.670071 
L 99.085731 59.484401 
L 99.76191 46.934123 
L 100.43809 37.604297 
L 101.114269 31.884084 
L 101.790448 29.949151 
L 102.466627 31.757241 
L 103.142806 37.056963 
L 103.818985 45.408997 
L 105.171343 68.774168 
L 107.87606 120.896136 
L 108.552239 130.837292 
L 109.228418 138.481863 
L 109.904597 143.565703 
L 110.580776 145.999965 
L 111.256955 145.868229 
L 111.933134 143.412371 
L 112.609313 139.008409 
L 113.961671 126.331375 
L 115.990209 105.863537 
L 116.666388 100.617401 
L 117.342567 96.723249 
L 118.018746 94.331896 
L 118.694925 93.455865 
L 119.371104 93.973697 
L 120.047283 95.644276 
L 121.399641 101.027085 
L 122.751999 106.321276 
L 123.428178 107.90323 
L 124.104358 108.33629 
L 124.780537 107.414214 
L 125.456716 105.054434 
L 126.132895 101.308551 
L 126.809074 96.362623 
L 130.189969 67.516152 
L 130.866148 64.433055 
L 131.542328 63.346681 
L 132.218507 64.561969 
L 132.894686 68.242614 
L 133.570865 74.391671 
L 134.247044 82.842664 
L 135.599402 105.163403 
L 138.304118 154.145621 
L 138.980297 163.017174 
L 139.656477 169.169735 
L 140.332656 172.106634 
L 141.008835 171.501168 
L 141.685014 167.222795 
L 142.361193 159.351743 
L 143.037372 148.180882 
L 144.38973 118.094141 
L 147.094446 49.737604 
L 147.770626 36.320756 
L 148.446805 26.048121 
L 149.122984 19.521832 
L 149.799163 17.143651 
L 150.475342 19.089549 
L 151.151521 25.297463 
L 151.8277 35.469028 
L 152.503879 49.085279 
L 153.856237 83.65693 
L 155.884775 139.719079 
L 156.560954 155.588407 
L 157.237133 168.599331 
L 157.913312 178.102507 
L 158.589491 183.649429 
L 159.26567 185.015628 
L 159.941849 182.210436 
L 160.618028 175.472855 
L 161.294207 165.253932 
L 162.646565 137.046717 
L 165.351282 73.437593 
L 166.027461 61.002754 
L 166.70364 51.299372 
L 167.379819 44.719688 
L 168.055998 41.459653 
L 168.732177 41.514451 
L 169.408356 44.686597 
L 170.084535 50.605772 
L 170.760714 58.758889 
L 172.113073 79.234629 
L 173.465431 100.711698 
L 174.817789 118.238298 
L 175.493968 124.399416 
L 176.170147 128.507395 
L 176.846326 130.517983 
L 177.522505 130.538629 
L 178.198684 128.812921 
L 178.874864 125.695907 
L 180.227222 117.069329 
L 181.57958 108.418436 
L 182.255759 105.146971 
L 182.931938 102.986004 
L 183.608117 102.098803 
L 184.284296 102.518901 
L 184.960475 104.148774 
L 185.636654 106.768724 
L 188.341371 119.723972 
L 189.01755 121.412767 
L 189.693729 121.692434 
L 190.369908 120.306037 
L 191.046087 117.120603 
L 191.722266 112.143815 
L 192.398445 105.530655 
L 193.750803 88.716584 
L 195.779341 62.280809 
L 196.45552 55.587059 
L 197.131699 50.935299 
L 197.807878 48.795164 
L 198.484057 49.502751 
L 199.160236 53.231618 
L 199.836415 59.973581 
L 200.512594 69.530845 
L 201.864952 95.389903 
L 204.569669 154.538688 
L 205.245848 166.05676 
L 205.922027 174.711737 
L 206.598206 179.923766 
L 207.274385 181.293022 
L 207.950564 178.627991 
L 208.626743 171.961647 
L 209.302922 161.554329 
L 209.979101 147.882963 
L 211.33146 113.583058 
L 213.359997 58.481998 
L 214.036176 43.049854 
L 214.712355 30.554322 
L 215.388534 21.669222 
L 216.064713 16.87124 
L 216.740892 16.412433 
L 217.417071 20.305929 
L 218.09325 28.325668 
L 218.76943 40.020188 
L 220.121788 71.673933 
L 222.826504 142.575246 
L 223.502683 156.421347 
L 224.178862 167.175229 
L 224.855041 174.353703 
L 225.53122 177.684583 
L 226.2074 177.117472 
L 226.883579 172.821088 
L 227.559758 165.167531 
L 228.235937 154.704658 
L 229.588295 128.188439 
L 231.616832 86.480854 
L 232.293011 75.096051 
L 232.96919 65.951625 
L 233.645369 59.409684 
L 234.321549 55.654587 
L 234.997728 54.689558 
L 235.673907 56.345112 
L 236.350086 60.298455 
L 237.026265 66.102264 
L 238.378623 81.070112 
L 239.730981 96.641273 
L 240.40716 103.329724 
L 241.083339 108.750717 
L 241.759518 112.654712 
L 242.435698 114.931245 
L 243.111877 115.610993 
L 243.788056 114.857365 
L 244.464235 112.948385 
L 245.816593 107.185162 
L 247.168951 101.700147 
L 247.84513 100.072362 
L 248.521309 99.594249 
L 249.197488 100.438935 
L 249.873668 102.652763 
L 250.549847 106.148636 
L 251.902205 116.002935 
L 253.254563 127.020449 
L 253.930742 131.742479 
L 254.606921 135.268007 
L 255.2831 137.149413 
L 255.959279 137.029164 
L 256.635458 134.671589 
L 257.311637 129.986995 
L 257.987817 123.046233 
L 258.663996 114.084462 
L 260.016354 91.803344 
L 262.044891 56.841419 
L 262.72107 47.639572 
L 263.397249 40.800895 
L 264.073428 36.86847 
L 264.749607 36.235567 
L 265.425786 39.115037 
L 266.101966 45.519262 
L 266.778145 55.252187 
L 267.454324 67.914213 
L 268.806682 99.527706 
L 270.835219 150.098995 
L 271.511398 164.124483 
L 272.187577 175.320195 
L 272.863756 183.021991 
L 273.539936 186.749499 
L 274.216115 186.23673 
L 274.892294 181.450293 
L 275.568473 172.593963 
L 276.244652 160.099237 
L 277.59701 126.909056 
L 280.301726 53.498226 
L 280.977905 39.342387 
L 281.654085 28.507762 
L 282.330264 21.531246 
L 283.006443 18.732323 
L 283.682622 20.197019 
L 284.358801 25.775732 
L 285.03498 35.094948 
L 285.711159 47.582004 
L 287.063517 78.999442 
L 289.092054 128.768324 
L 289.768234 142.53775 
L 290.444413 153.692287 
L 291.120592 161.744393 
L 291.796771 166.401139 
L 292.47295 167.575054 
L 293.149129 165.382109 
L 293.825308 160.127255 
L 294.501487 152.278691 
L 295.853845 131.271981 
L 297.882383 97.046324 
L 298.558562 87.562217 
L 299.234741 79.884062 
L 299.91092 74.311527 
L 300.587099 70.98429 
L 301.263278 69.880911 
L 301.939457 70.828758 
L 302.615636 73.524039 
L 303.291815 77.560321 
L 305.996532 97.426282 
L 306.672711 101.046698 
L 307.34889 103.469538 
L 308.025069 104.56211 
L 308.701248 104.324228 
L 309.377427 102.885682 
L 310.053606 100.493665 
L 312.082143 91.325156 
L 312.758322 89.04039 
L 313.434502 87.827969 
L 314.110681 88.005638 
L 314.78686 89.784992 
L 315.463039 93.249665 
L 316.139218 98.342718 
L 316.815397 104.864322 
L 318.167755 120.739666 
L 319.520113 136.983301 
L 320.196292 143.771763 
L 320.872472 148.895901 
L 321.548651 151.853965 
L 322.22483 152.255302 
L 322.901009 149.852964 
L 323.577188 144.56775 
L 324.253367 136.501818 
L 324.929546 125.94068 
L 326.281904 99.319501 
L 328.310441 56.330049 
L 328.986621 44.437773 
L 329.6628 35.06066 
L 330.338979 28.827456 
L 331.015158 26.206442 
L 331.691337 27.472614 
L 332.367516 32.685978 
L 333.043695 41.682533 
L 333.719874 54.078695 
L 335.072232 86.556958 
L 337.776949 157.575485 
L 338.453128 171.036397 
L 339.129307 181.127306 
L 339.805486 187.29107 
L 340.481665 189.184581 
L 341.157844 186.699096 
L 341.834023 179.96682 
L 342.510202 169.353326 
L 343.186381 155.436288 
L 344.53874 120.850392 
L 346.567277 66.352763 
L 347.243456 51.318004 
L 347.919635 39.200832 
L 348.595814 30.574488 
L 349.271993 25.807005 
L 349.948172 25.044107 
L 350.624351 28.205587 
L 351.30053 34.995202 
L 351.976709 44.923258 
L 353.329068 71.479656 
L 355.357605 115.843821 
L 356.033784 128.600136 
L 356.709963 139.221966 
L 357.386142 147.250701 
L 358.062321 152.404579 
L 358.7385 154.588454 
L 359.414679 153.891401 
L 360.090858 150.572612 
L 360.767038 145.03681 
L 362.119396 129.455355 
L 364.147933 103.853952 
L 364.824112 96.940325 
L 365.500291 91.506832 
L 366.17647 87.762989 
L 366.852649 85.773289 
L 367.528828 85.459408 
L 368.205008 86.612767 
L 368.881187 88.916361 
L 371.585903 101.270763 
L 372.262082 103.055499 
L 372.938261 103.680171 
L 373.61444 103.003494 
L 374.290619 101.013272 
L 374.966798 97.829211 
L 376.319157 88.963308 
L 377.671515 79.482784 
L 378.347694 75.708039 
L 379.023873 73.20581 
L 379.700052 72.374789 
L 380.376231 73.513187 
L 381.05241 76.790515 
L 381.728589 82.227784 
L 382.404768 89.687737 
L 383.757126 109.353702 
L 385.785664 142.507627 
L 386.461843 151.843685 
L 387.138022 159.188541 
L 387.814201 163.964499 
L 388.49038 165.721696 
L 389.166559 164.172459 
L 389.842738 159.216305 
L 390.518917 150.953714 
L 391.195096 139.687527 
L 392.547455 110.287068 
L 395.252171 46.203986 
L 395.92835 34.244989 
L 396.604529 25.491688 
L 396.604529 25.491688 
" clip-path="url(#p5c2a169b7a)" style="fill: none; stroke: #1f77b4; stroke-width: 1.5; stroke-linecap: square"/>
   </g>
   <g id="patch_3">
    <path d="M 59.191165 197.823188 
L 59.191165 7.773826 
" style="fill: none; stroke: #000000; stroke-width: 0.8; stroke-linejoin: miter; stroke-linecap: square"/>
   </g>
   <g id="patch_4">
    <path d="M 413.475197 197.823188 
L 413.475197 7.773826 
" style="fill: none"/>
   </g>
   <g id="patch_5">
    <path d="M 42.320497 102.596737 
L 413.475197 102.596737 
" style="fill: none; stroke: #000000; stroke-width: 0.8; stroke-linejoin: miter; stroke-linecap: square"/>
   </g>
   <g id="patch_6">
    <path d="M 42.320497 7.773826 
L 413.475197 7.773826 
" style="fill: none"/>
   </g>
   <g id="legend_1">
    <g id="patch_7">
     <path d="M 295.044288 60.586771 
L 406.475197 60.586771 
Q 408.475197 60.586771 408.475197 58.586771 
L 408.475197 14.773826 
Q 408.475197 12.773826 406.475197 12.773826 
L 295.044288 12.773826 
Q 293.044288 12.773826 293.044288 14.773826 
L 293.044288 58.586771 
Q 293.044288 60.586771 295.044288 60.586771 
z
" style="fill: #ffffff; opacity: 0.8; stroke: #cccccc; stroke-linejoin: miter"/>
    </g>
    <g id="line2d_20">
     <path d="M 297.044288 20.402063 
L 307.044288 20.402063 
L 317.044288 20.402063 
" style="fill: none; stroke: #808080; stroke-width: 1.5; stroke-linecap: square"/>
    </g>
    <g id="text_19">
     <!-- Transienter Anteil -->
     <g transform="translate(325.044288 23.902063) scale(0.1 -0.1)">
      <defs>
       <path id="URWPalladioL-Roma-54" d="M 1632 4096 
C 1651 3880 1658 3734 1658 3462 
L 1658 781 
C 1658 280 1626 230 1331 211 
L 1024 192 
L 1024 0 
C 1402 -7 1626 0 1958 0 
C 2291 19 2522 12 2899 0 
L 2899 192 
L 2592 211 
C 2298 230 2266 280 2266 781 
L 2266 3462 
C 2266 3747 2272 3887 2291 4096 
L 3283 4096 
C 3462 4096 3533 4039 3539 3887 
L 3565 3386 
L 3763 3386 
C 3763 3801 3776 4051 3808 4416 
C 3347 4409 3136 4409 2957 4403 
C 2707 4390 2522 4390 2426 4390 
L 1414 4390 
C 1350 4390 1005 4396 550 4403 
L 115 4416 
C 147 4051 160 3801 160 3385 
L 358 3385 
L 384 3891 
C 390 4038 461 4096 640 4096 
L 1632 4096 
z
" transform="scale(0.015625)"/>
       <path id="URWPalladioL-Roma-72" d="M 147 2579 
L 384 2579 
C 640 2579 666 2534 666 2112 
L 666 672 
C 666 268 646 224 429 211 
L 134 192 
L 134 0 
C 595 -7 762 0 922 0 
C 1050 19 1050 19 1837 0 
L 1837 192 
L 1504 211 
C 1216 230 1203 249 1203 669 
L 1203 1763 
C 1203 2145 1459 2463 1773 2463 
C 1965 2463 2099 2374 2202 2171 
L 2336 2171 
L 2394 2937 
C 2323 2982 2208 3008 2093 3008 
C 1901 3008 1696 2905 1562 2745 
L 1203 2324 
L 1203 2982 
L 1146 3008 
C 819 2873 486 2783 147 2745 
L 147 2579 
z
" transform="scale(0.015625)"/>
       <path id="URWPalladioL-Roma-61" d="M 2074 544 
L 2042 0 
C 2458 0 2458 0 2541 0 
C 2573 19 2733 12 3014 0 
L 3014 192 
L 2765 204 
C 2611 211 2586 262 2586 576 
L 2586 1751 
C 2586 2688 2317 3027 1574 3027 
C 1299 3027 1043 2956 800 2809 
L 461 2604 
L 461 2187 
L 627 2142 
L 710 2341 
C 845 2642 909 2688 1203 2688 
C 1805 2688 2054 2450 2074 1866 
L 1440 1751 
C 570 1590 205 1289 205 730 
C 205 224 506 -64 1011 -64 
C 1126 -64 1235 -45 1280 -13 
L 2074 544 
z
M 2074 806 
C 1888 544 1485 300 1235 300 
C 979 300 755 537 755 812 
C 755 1049 883 1273 1075 1395 
C 1235 1491 1587 1580 2074 1651 
L 2074 806 
z
" transform="scale(0.015625)"/>
       <path id="URWPalladioL-Roma-6e" d="M 2624 0 
C 3014 0 3021 0 3130 0 
C 3219 19 3219 19 3661 0 
L 3661 192 
L 3398 211 
C 3181 223 3162 262 3162 670 
L 3162 1902 
C 3162 2649 2810 3014 2093 3014 
C 1856 3014 1722 2969 1587 2854 
L 1101 2432 
L 1101 2988 
L 1043 3008 
C 717 2873 384 2784 45 2746 
L 45 2568 
L 282 2568 
C 538 2568 563 2523 563 2103 
L 563 669 
C 563 268 544 223 326 211 
L 38 192 
L 38 0 
C 474 -7 646 0 832 0 
C 1018 19 1190 12 1626 0 
L 1626 192 
L 1338 211 
C 1120 223 1101 268 1101 670 
L 1101 2023 
C 1101 2311 1523 2624 1914 2624 
C 2342 2624 2624 2304 2624 1813 
L 2624 0 
z
" transform="scale(0.015625)"/>
       <path id="URWPalladioL-Roma-73" d="M 262 917 
C 262 474 243 282 192 25 
C 525 -84 774 -128 1069 -128 
C 1907 -128 2502 320 2502 949 
C 2502 1148 2445 1295 2323 1423 
C 2157 1584 1946 1661 1382 1770 
C 858 1872 685 2001 685 2296 
C 685 2617 909 2796 1299 2796 
C 1728 2796 2054 2572 2054 2270 
L 2054 2123 
L 2234 2123 
C 2240 2495 2246 2649 2266 2847 
C 1926 2963 1696 3008 1434 3008 
C 691 3008 237 2655 237 2078 
C 237 1770 378 1552 672 1417 
C 845 1340 1184 1237 1619 1141 
C 1907 1077 2029 942 2029 698 
C 2029 352 1709 108 1254 108 
C 787 108 454 333 454 654 
L 454 917 
L 262 917 
z
" transform="scale(0.015625)"/>
       <path id="URWPalladioL-Roma-69" d="M 1203 2982 
L 1146 3008 
C 819 2873 486 2784 147 2746 
L 147 2568 
L 384 2568 
C 640 2568 666 2523 666 2103 
L 666 669 
C 666 268 646 223 429 211 
L 134 192 
L 134 0 
C 774 0 774 0 934 0 
C 1094 19 1094 19 1734 0 
L 1734 192 
L 1440 211 
C 1222 224 1203 268 1203 671 
L 1203 2982 
z
M 909 4416 
C 717 4416 550 4249 550 4057 
C 550 3871 717 3705 902 3705 
C 1088 3705 1261 3871 1261 4057 
C 1261 4236 1088 4416 909 4416 
z
" transform="scale(0.015625)"/>
       <path id="URWPalladioL-Roma-65" d="M 2797 447 
L 2714 511 
C 2304 268 2157 211 1882 211 
C 1466 211 1120 396 941 710 
C 819 921 774 1100 762 1472 
L 1696 1472 
C 2138 1472 2413 1491 2854 1561 
C 2861 1651 2867 1708 2867 1786 
C 2867 2526 2394 3008 1677 3008 
C 1440 3008 1165 2924 902 2771 
C 378 2468 166 2069 166 1401 
C 166 998 262 652 435 409 
C 691 70 1120 -128 1600 -128 
C 1837 -128 2074 -77 2336 38 
C 2509 108 2643 192 2669 230 
L 2797 447 
z
M 2298 1708 
C 1965 1696 1811 1689 1581 1689 
C 1286 1689 1120 1696 774 1728 
C 774 2030 800 2172 883 2339 
C 1018 2623 1293 2796 1600 2796 
C 1811 2796 1978 2713 2093 2539 
C 2234 2326 2278 2140 2298 1708 
z
" transform="scale(0.015625)"/>
       <path id="URWPalladioL-Roma-74" d="M 627 2457 
L 627 614 
C 627 140 838 -64 1331 -64 
C 1478 -64 1632 -32 1670 12 
L 1978 352 
L 1894 460 
C 1734 371 1638 339 1517 339 
C 1267 339 1165 467 1165 780 
L 1165 2457 
L 1984 2457 
L 2042 2803 
L 1165 2764 
L 1165 3008 
C 1165 3277 1184 3507 1235 3917 
L 1158 3987 
C 1005 3891 813 3808 614 3744 
C 634 3552 640 3430 640 3238 
L 640 2790 
L 141 2566 
L 141 2432 
L 627 2457 
z
" transform="scale(0.015625)"/>
       <path id="URWPalladioL-Roma-41" d="M 2611 4480 
L 2406 4480 
C 2291 4205 2195 3969 2157 3874 
L 1818 3103 
L 678 523 
C 602 338 474 223 333 210 
L 96 191 
L 96 0 
C 691 0 691 0 794 0 
C 877 19 877 19 1568 0 
L 1568 191 
L 1331 210 
C 1107 229 1024 273 1024 375 
C 1024 457 1114 730 1248 1047 
L 1427 1472 
L 3270 1472 
L 3565 742 
C 3674 476 3699 394 3699 337 
C 3699 267 3597 223 3437 210 
L 3136 191 
L 3136 0 
C 3923 0 3923 0 4026 0 
C 4147 19 4147 19 4838 0 
L 4838 191 
L 4621 210 
C 4454 235 4384 343 4160 857 
L 2611 4480 
z
M 1536 1728 
L 2349 3630 
L 3155 1728 
L 1536 1728 
z
" transform="scale(0.015625)"/>
       <path id="URWPalladioL-Roma-6c" d="M 147 4249 
L 506 4249 
C 621 4249 666 4179 666 3987 
L 666 672 
C 666 268 646 224 429 211 
L 134 192 
L 134 0 
C 774 0 774 0 934 0 
C 1094 19 1094 19 1734 0 
L 1734 192 
L 1440 211 
C 1222 224 1203 268 1203 672 
L 1203 4614 
L 1146 4665 
C 864 4557 653 4505 147 4429 
L 147 4249 
z
" transform="scale(0.015625)"/>
      </defs>
      <use xlink:href="#URWPalladioL-Roma-54" transform="scale(0.996264)"/>
      <use xlink:href="#URWPalladioL-Roma-72" transform="translate(52.104474 0) scale(0.996264)"/>
      <use xlink:href="#URWPalladioL-Roma-61" transform="translate(91.45637 0) scale(0.996264)"/>
      <use xlink:href="#URWPalladioL-Roma-6e" transform="translate(141.269571 0) scale(0.996264)"/>
      <use xlink:href="#URWPalladioL-Roma-73" transform="translate(199.251631 0) scale(0.996264)"/>
      <use xlink:href="#URWPalladioL-Roma-69" transform="translate(241.493098 0) scale(0.996264)"/>
      <use xlink:href="#URWPalladioL-Roma-65" transform="translate(270.483459 0) scale(0.996264)"/>
      <use xlink:href="#URWPalladioL-Roma-6e" transform="translate(318.203754 0) scale(0.996264)"/>
      <use xlink:href="#URWPalladioL-Roma-74" transform="translate(376.185815 0) scale(0.996264)"/>
      <use xlink:href="#URWPalladioL-Roma-65" transform="translate(408.662903 0) scale(0.996264)"/>
      <use xlink:href="#URWPalladioL-Roma-72" transform="translate(456.383198 0) scale(0.996264)"/>
      <use xlink:href="#URWPalladioL-Roma-41" transform="translate(520.641695 0) scale(0.996264)"/>
      <use xlink:href="#URWPalladioL-Roma-6e" transform="translate(598.150065 0) scale(0.996264)"/>
      <use xlink:href="#URWPalladioL-Roma-74" transform="translate(656.132125 0) scale(0.996264)"/>
      <use xlink:href="#URWPalladioL-Roma-65" transform="translate(688.609213 0) scale(0.996264)"/>
      <use xlink:href="#URWPalladioL-Roma-69" transform="translate(736.329508 0) scale(0.996264)"/>
      <use xlink:href="#URWPalladioL-Roma-6c" transform="translate(765.31987 0) scale(0.996264)"/>
     </g>
    </g>
    <g id="line2d_21">
     <path d="M 297.044288 35.339711 
L 307.044288 35.339711 
L 317.044288 35.339711 
" style="fill: none; stroke: #cccccc; stroke-width: 1.5; stroke-linecap: square"/>
    </g>
    <g id="text_20">
     <!-- Stationärer Anteil -->
     <g transform="translate(325.044288 38.839711) scale(0.1 -0.1)">
      <defs>
       <path id="URWPalladioL-Roma-53" d="M 2861 3371 
C 2861 3711 2886 3929 2950 4275 
C 2438 4479 2150 4544 1798 4544 
C 845 4544 154 3942 154 3102 
C 154 2788 237 2557 422 2384 
C 640 2185 934 2083 1555 1999 
C 2048 1929 2272 1858 2438 1711 
C 2605 1576 2682 1390 2682 1147 
C 2682 570 2202 153 1536 153 
C 1024 153 525 403 493 666 
L 442 1095 
L 237 1095 
C 243 980 243 877 243 839 
C 243 544 230 403 192 115 
C 557 -45 928 -128 1299 -128 
C 2413 -128 3219 544 3219 1474 
C 3219 1775 3136 1986 2957 2153 
C 2733 2365 2464 2448 1747 2544 
C 966 2647 691 2858 691 3352 
C 691 3890 1094 4275 1658 4275 
C 1907 4275 2144 4224 2317 4127 
C 2528 4018 2598 3922 2618 3736 
L 2656 3371 
L 2861 3371 
z
" transform="scale(0.015625)"/>
       <path id="URWPalladioL-Roma-6f" d="M 1786 3008 
C 851 3008 205 2347 205 1391 
C 205 487 774 -128 1600 -128 
C 2586 -128 3290 557 3290 1520 
C 3290 2386 2662 3008 1786 3008 
z
M 1670 2796 
C 2259 2796 2694 2155 2694 1282 
C 2694 545 2368 83 1850 83 
C 1222 83 800 699 800 1609 
C 800 2379 1107 2796 1670 2796 
z
" transform="scale(0.015625)"/>
       <path id="URWPalladioL-Roma-a8" d="M 435 4077 
C 237 4077 109 3949 109 3757 
C 109 3565 237 3437 429 3437 
C 621 3437 749 3565 749 3757 
C 749 3942 621 4077 435 4077 
z
M 1709 4077 
C 1510 4077 1382 3949 1382 3757 
C 1382 3565 1510 3437 1702 3437 
C 1894 3437 2022 3565 2022 3757 
C 2022 3942 1894 4077 1709 4077 
z
" transform="scale(0.015625)"/>
      </defs>
      <use xlink:href="#URWPalladioL-Roma-53" transform="scale(0.996264)"/>
      <use xlink:href="#URWPalladioL-Roma-74" transform="translate(52.303815 0) scale(0.996264)"/>
      <use xlink:href="#URWPalladioL-Roma-61" transform="translate(84.780903 0) scale(0.996264)"/>
      <use xlink:href="#URWPalladioL-Roma-74" transform="translate(134.594103 0) scale(0.996264)"/>
      <use xlink:href="#URWPalladioL-Roma-69" transform="translate(167.071191 0) scale(0.996264)"/>
      <use xlink:href="#URWPalladioL-Roma-6f" transform="translate(196.061553 0) scale(0.996264)"/>
      <use xlink:href="#URWPalladioL-Roma-6e" transform="translate(250.457133 0) scale(0.996264)"/>
      <use xlink:href="#URWPalladioL-Roma-a8" transform="translate(316.758186 0.249309) scale(0.996264)"/>
      <use xlink:href="#URWPalladioL-Roma-61" transform="translate(308.439193 0) scale(0.996264)"/>
      <use xlink:href="#URWPalladioL-Roma-72" transform="translate(358.252394 0) scale(0.996264)"/>
      <use xlink:href="#URWPalladioL-Roma-65" transform="translate(395.811711 0) scale(0.996264)"/>
      <use xlink:href="#URWPalladioL-Roma-72" transform="translate(443.532006 0) scale(0.996264)"/>
      <use xlink:href="#URWPalladioL-Roma-41" transform="translate(507.790503 0) scale(0.996264)"/>
      <use xlink:href="#URWPalladioL-Roma-6e" transform="translate(585.298873 0) scale(0.996264)"/>
      <use xlink:href="#URWPalladioL-Roma-74" transform="translate(643.280934 0) scale(0.996264)"/>
      <use xlink:href="#URWPalladioL-Roma-65" transform="translate(675.758022 0) scale(0.996264)"/>
      <use xlink:href="#URWPalladioL-Roma-69" transform="translate(723.478317 0) scale(0.996264)"/>
      <use xlink:href="#URWPalladioL-Roma-6c" transform="translate(752.468678 0) scale(0.996264)"/>
     </g>
    </g>
    <g id="line2d_22">
     <path d="M 297.044288 50.27736 
L 307.044288 50.27736 
L 317.044288 50.27736 
" style="fill: none; stroke: #1f77b4; stroke-width: 1.5; stroke-linecap: square"/>
    </g>
    <g id="text_21">
     <!-- Gesamtantwort -->
     <g transform="translate(325.044288 53.77736) scale(0.1 -0.1)">
      <defs>
       <path id="URWPalladioL-Roma-47" d="M 4102 3307 
L 4301 3307 
C 4301 3634 4339 3935 4429 4281 
C 3718 4486 3392 4544 2880 4544 
C 1229 4544 141 3608 141 2185 
C 141 1538 358 961 762 570 
C 1203 128 1894 -128 2637 -128 
C 3091 -128 3533 -45 4403 198 
L 4403 1275 
C 4403 1474 4410 1486 4474 1512 
L 4659 1576 
L 4634 1736 
C 4064 1724 4045 1724 3846 1724 
C 3661 1724 3622 1724 3066 1736 
L 3066 1544 
L 3597 1499 
C 3757 1486 3814 1429 3814 1275 
L 3814 627 
C 3814 474 3802 397 3776 352 
C 3706 230 3322 140 2899 140 
C 1632 140 826 986 826 2320 
C 826 3557 1517 4275 2714 4275 
C 3046 4275 3328 4236 3571 4159 
C 3942 4038 4102 3890 4102 3647 
L 4102 3307 
z
" transform="scale(0.015625)"/>
       <path id="URWPalladioL-Roma-77" d="M 2643 3008 
C 2118 1775 2022 1556 1626 651 
L 1088 2434 
C 1069 2492 1062 2544 1062 2595 
C 1062 2692 1146 2744 1306 2750 
L 1562 2763 
L 1562 2943 
C 928 2924 928 2924 800 2924 
C 672 2924 672 2924 38 2943 
L 38 2763 
L 218 2750 
C 397 2738 480 2608 640 2105 
L 1293 -64 
L 1594 -64 
L 2221 1420 
C 2253 1497 2323 1652 2426 1872 
L 2554 2143 
L 3424 -64 
L 3718 -64 
C 3763 70 3814 219 3866 361 
C 3994 742 4134 1142 4160 1181 
L 4595 2189 
C 4787 2621 4864 2731 5005 2750 
L 5171 2763 
L 5171 2943 
C 4646 2924 4646 2924 4544 2924 
C 4442 2924 4442 2924 3917 2943 
L 3917 2763 
L 4134 2750 
C 4294 2744 4384 2666 4384 2550 
C 4384 2479 4371 2402 4339 2318 
L 4019 1413 
C 3968 1271 3917 1142 3712 613 
L 2976 2486 
C 2886 2705 2842 2834 2790 3008 
L 2643 3008 
z
" transform="scale(0.015625)"/>
      </defs>
      <use xlink:href="#URWPalladioL-Roma-47" transform="scale(0.996264)"/>
      <use xlink:href="#URWPalladioL-Roma-65" transform="translate(76.013746 0) scale(0.996264)"/>
      <use xlink:href="#URWPalladioL-Roma-73" transform="translate(123.734041 0) scale(0.996264)"/>
      <use xlink:href="#URWPalladioL-Roma-61" transform="translate(165.975507 0) scale(0.996264)"/>
      <use xlink:href="#URWPalladioL-Roma-6d" transform="translate(215.788708 0) scale(0.996264)"/>
      <use xlink:href="#URWPalladioL-Roma-74" transform="translate(303.758382 0) scale(0.996264)"/>
      <use xlink:href="#URWPalladioL-Roma-61" transform="translate(336.23547 0) scale(0.996264)"/>
      <use xlink:href="#URWPalladioL-Roma-6e" transform="translate(386.048671 0) scale(0.996264)"/>
      <use xlink:href="#URWPalladioL-Roma-74" transform="translate(444.030731 0) scale(0.996264)"/>
      <use xlink:href="#URWPalladioL-Roma-77" transform="translate(476.507819 0) scale(0.996264)"/>
      <use xlink:href="#URWPalladioL-Roma-6f" transform="translate(559.595912 0) scale(0.996264)"/>
      <use xlink:href="#URWPalladioL-Roma-72" transform="translate(613.991492 0) scale(0.996264)"/>
      <use xlink:href="#URWPalladioL-Roma-74" transform="translate(653.343389 0) scale(0.996264)"/>
     </g>
    </g>
   </g>
  </g>
 </g>
 <defs>
  <clipPath id="p5c2a169b7a">
   <rect x="42.320497" y="7.773826" width="371.1547" height="190.049363"/>
  </clipPath>
 </defs>
</svg>
