<?xml version="1.0" encoding="UTF-8" standalone="no"?>
<svg
   xmlns:dc="http://purl.org/dc/elements/1.1/"
   xmlns:cc="http://creativecommons.org/ns#"
   xmlns:rdf="http://www.w3.org/1999/02/22-rdf-syntax-ns#"
   xmlns:svg="http://www.w3.org/2000/svg"
   xmlns="http://www.w3.org/2000/svg"
   version="1.1"
   id="svg2"
   xml:space="preserve"
   width="566.92932"
   height="151.18134"
   viewBox="0 0 566.92932 151.18134"><metadata
     id="metadata8"><rdf:RDF><cc:Work
         rdf:about=""><dc:format>image/svg+xml</dc:format><dc:type
           rdf:resource="http://purl.org/dc/dcmitype/StillImage" /></cc:Work></rdf:RDF></metadata><defs
     id="defs6"><clipPath
       clipPathUnits="userSpaceOnUse"
       id="clipPath62"><path
         d="M -0.00426,-0.00113 V 113.38696 H 425.20111 V -0.00113 H -0.00426"
         clip-rule="evenodd"
         id="path60" /></clipPath><clipPath
       clipPathUnits="userSpaceOnUse"
       id="clipPath74"><path
         d="M -0.00426,-0.00113 V 113.38696 H 425.20111 V -0.00113 H -0.00426"
         clip-rule="evenodd"
         id="path72" /></clipPath><clipPath
       clipPathUnits="userSpaceOnUse"
       id="clipPath86"><path
         d="M -0.00426,-0.00113 V 113.38696 H 425.20111 V -0.00113 H -0.00426"
         clip-rule="evenodd"
         id="path84" /></clipPath><clipPath
       clipPathUnits="userSpaceOnUse"
       id="clipPath98"><path
         d="M -0.00426,-0.00113 V 113.38696 H 425.20111 V -0.00113 H -0.00426"
         clip-rule="evenodd"
         id="path96" /></clipPath><clipPath
       clipPathUnits="userSpaceOnUse"
       id="clipPath110"><path
         d="M -0.00426,-0.00113 V 113.38696 H 425.20111 V -0.00113 H -0.00426"
         clip-rule="evenodd"
         id="path108" /></clipPath><clipPath
       clipPathUnits="userSpaceOnUse"
       id="clipPath122"><path
         d="M -0.00426,-0.00113 V 113.38696 H 425.20111 V -0.00113 H -0.00426"
         clip-rule="evenodd"
         id="path120" /></clipPath><clipPath
       clipPathUnits="userSpaceOnUse"
       id="clipPath134"><path
         d="M -0.00426,-0.00113 V 113.38696 H 425.20111 V -0.00113 H -0.00426"
         clip-rule="evenodd"
         id="path132" /></clipPath><clipPath
       clipPathUnits="userSpaceOnUse"
       id="clipPath146"><path
         d="M -0.00426,-0.00113 V 113.38696 H 425.20111 V -0.00113 H -0.00426"
         clip-rule="evenodd"
         id="path144" /></clipPath><clipPath
       clipPathUnits="userSpaceOnUse"
       id="clipPath158"><path
         d="M -0.00426,-0.00113 V 113.38696 H 425.20111 V -0.00113 H -0.00426"
         clip-rule="evenodd"
         id="path156" /></clipPath><clipPath
       clipPathUnits="userSpaceOnUse"
       id="clipPath170"><path
         d="M -0.00426,-0.00113 V 113.38696 H 425.20111 V -0.00113 H -0.00426"
         clip-rule="evenodd"
         id="path168" /></clipPath><clipPath
       clipPathUnits="userSpaceOnUse"
       id="clipPath182"><path
         d="M -0.00426,-0.00113 V 113.38696 H 425.20111 V -0.00113 H -0.00426"
         clip-rule="evenodd"
         id="path180" /></clipPath><clipPath
       clipPathUnits="userSpaceOnUse"
       id="clipPath194"><path
         d="M -0.00426,-0.00113 V 113.38696 H 425.20111 V -0.00113 H -0.00426"
         clip-rule="evenodd"
         id="path192" /></clipPath><clipPath
       clipPathUnits="userSpaceOnUse"
       id="clipPath206"><path
         d="M -0.00426,-0.00113 V 113.38696 H 425.20111 V -0.00113 H -0.00426"
         clip-rule="evenodd"
         id="path204" /></clipPath><clipPath
       clipPathUnits="userSpaceOnUse"
       id="clipPath218"><path
         d="M -0.00426,-0.00113 V 113.38696 H 425.20111 V -0.00113 H -0.00426"
         clip-rule="evenodd"
         id="path216" /></clipPath><clipPath
       clipPathUnits="userSpaceOnUse"
       id="clipPath230"><path
         d="M -0.00426,-0.00113 V 113.38696 H 425.20111 V -0.00113 H -0.00426"
         clip-rule="evenodd"
         id="path228" /></clipPath><clipPath
       clipPathUnits="userSpaceOnUse"
       id="clipPath242"><path
         d="M -0.00426,-0.00113 V 113.38696 H 425.20111 V -0.00113 H -0.00426"
         clip-rule="evenodd"
         id="path240" /></clipPath><clipPath
       clipPathUnits="userSpaceOnUse"
       id="clipPath254"><path
         d="M -0.00426,-0.00113 V 113.38696 H 425.20111 V -0.00113 H -0.00426"
         clip-rule="evenodd"
         id="path252" /></clipPath><clipPath
       clipPathUnits="userSpaceOnUse"
       id="clipPath266"><path
         d="M -0.00426,-0.00113 V 113.38696 H 425.20111 V -0.00113 H -0.00426"
         clip-rule="evenodd"
         id="path264" /></clipPath><clipPath
       clipPathUnits="userSpaceOnUse"
       id="clipPath282"><path
         d="M -0.00426,-0.00113 V 113.38696 H 425.20111 V -0.00113 H -0.00426"
         clip-rule="evenodd"
         id="path280" /></clipPath></defs><g
     id="g10"
     transform="matrix(1.3333333,0,0,-1.3333333,0,151.18133)"><path
       d="m 49.93056,103.50804 5.42219,5.42218 m 12.67389,-7.37007 7.37009,7.37007 m 12.67389,-7.37007 7.37008,7.37007 m -37.43605,-7.37007 7.37009,7.37007 m 12.67389,-7.37007 7.37009,7.37007 m 12.67389,-7.37007 7.37007,7.37007 m 45.94821,-4.16173 4.16171,4.16173 m 12.67392,-7.37007 7.37006,7.37007 m 12.67389,-7.37007 7.37008,7.37007 m -37.43603,-7.37007 7.37008,7.37007 m 12.67389,-7.37007 7.37009,7.37007 m 12.67389,-7.37007 7.37009,7.37007 M 151.41089,4.54863 l 7.27704,7.27705 m 12.67389,-7.37008 7.37008,7.37008 m 12.67389,-7.37008 7.37009,7.37008 m -37.43604,-7.37008 7.37009,7.37008 m 12.67389,-7.37008 7.37006,7.37008 m 12.67392,-7.37008 6.67599,6.67601 m 100.91339,90.8914 6.9072,6.90721 m 12.67389,-7.37007 7.37008,7.37007 m 12.67389,-7.37007 7.37009,7.37007 m -37.43604,-7.37007 7.37009,7.37007 m 12.67389,-7.37007 7.37006,7.37007 m 12.67392,-7.37007 7.04583,7.04585"
       style="fill:none;stroke:#000000;stroke-width:0.3685;stroke-linecap:round;stroke-linejoin:round;stroke-miterlimit:10;stroke-dasharray:none;stroke-opacity:1"
       id="path12" /><path
       d="M 78.27702,54.34537 V 25.9989 m 0,4.96063 v 0.35434 m 0,-5.31497 v 0 l 0.70867,4.96063 h -1.41732 l 0.70865,-4.96063"
       style="fill:none;stroke:#000000;stroke-width:0.28346;stroke-linecap:round;stroke-linejoin:round;stroke-miterlimit:10;stroke-dasharray:none;stroke-opacity:1"
       id="path14" /><path
       d="m 77.56837,30.95953 0.70865,-4.96063 0.70867,4.96063 z"
       style="fill:#000000;fill-opacity:1;fill-rule:nonzero;stroke:none"
       id="path16" /><path
       d="m 61.26915,87.38692 v 14.17323 m 0,-14.17323 2.15378,-0.7672 1.85921,-0.74379 1.27003,-0.69696 0.32201,-0.32359 0.06427,-0.3031 -0.19077,-0.25942 -0.40916,-0.24109 -1.34549,-0.4335 -3.90366,-0.71649 -3.81377,-0.59988 -1.23313,-0.28779 -0.33613,-0.14636 -0.10649,-0.15011 0.14434,-0.15512 0.37306,-0.16004 1.30078,-0.33308 3.89923,-0.70653 3.87517,-0.73781 1.27072,-0.37219 0.35352,-0.18544 0.12178,-0.18445 -0.13187,-0.18311 -0.36337,-0.18179 -1.28876,-0.36011 -3.89797,-0.70938 -3.89161,-0.70083 -1.28086,-0.34944 -0.35823,-0.17487 -0.12593,-0.17511 0.12845,-0.17545 0.3607,-0.17578 1.28536,-0.35246 3.89732,-0.70795 3.89606,-0.7108 1.28377,-0.35601 0.35966,-0.17809 0.12728,-0.1781 -0.12728,-0.17812 -0.35966,-0.17808 -1.28377,-0.35602 -3.89606,-0.7108 -3.89732,-0.70795 -1.28536,-0.35246 -0.3607,-0.17578 -0.12845,-0.17545 0.12593,-0.17511 0.35823,-0.17486 1.28086,-0.34944 3.89161,-0.70084"
       style="fill:none;stroke:#000000;stroke-width:0.28346;stroke-linecap:round;stroke-linejoin:round;stroke-miterlimit:10;stroke-dasharray:none;stroke-opacity:1"
       id="path18" /><path
       d="m 61.25648,68.97879 3.89797,-0.70938 1.28876,-0.36011 0.36337,-0.18179 0.13187,-0.18311 -0.12178,-0.18445 -0.35352,-0.18544 -1.27072,-0.37219 -3.87517,-0.73781 -3.89923,-0.70652 -1.30078,-0.33309 -0.37306,-0.16003 -0.14434,-0.15511 0.10649,-0.15013 0.33613,-0.14636 1.23313,-0.28777 3.81377,-0.5999 3.90366,-0.71649 1.34549,-0.4335 0.40916,-0.24109 0.19077,-0.25941 -0.06427,-0.3031 -0.32201,-0.3236 -1.27003,-0.69696 -1.85921,-0.74379 -2.15378,-0.76719 M 95.2849,87.38692 v 14.17323 m 0,-14.17323 2.15377,-0.7672 1.85921,-0.74379 1.27004,-0.69696 0.322,-0.32359 0.0643,-0.3031 -0.19076,-0.25942 -0.40917,-0.24109 -1.34549,-0.4335 -3.90365,-0.71649 -3.81377,-0.59988 -1.23312,-0.28779 -0.33614,-0.14636 -0.10649,-0.15011 0.14433,-0.15512 0.37307,-0.16004 1.30078,-0.33308 3.89923,-0.70653 3.87517,-0.73781 1.27072,-0.37219 0.35351,-0.18544 0.12178,-0.18445 -0.13186,-0.18311 -0.36338,-0.18179 -1.28875,-0.36011"
       style="fill:none;stroke:#000000;stroke-width:0.28346;stroke-linecap:round;stroke-linejoin:round;stroke-miterlimit:10;stroke-dasharray:none;stroke-opacity:1"
       id="path20" /><path
       d="m 99.1702,78.15797 -3.89797,-0.70938 -3.89161,-0.70083 -1.28086,-0.34944 -0.35823,-0.17487 -0.12593,-0.17511 0.12845,-0.17545 0.3607,-0.17578 1.28536,-0.35246 3.89732,-0.70795 3.89606,-0.7108 1.28376,-0.35601 0.35967,-0.17809 0.12727,-0.1781 -0.12727,-0.17812 -0.35967,-0.17808 -1.28376,-0.35602 -3.89606,-0.7108 -3.89732,-0.70795 -1.28536,-0.35246 -0.3607,-0.17578 -0.12845,-0.17545 0.12593,-0.17511 0.35823,-0.17486 1.28086,-0.34944 3.89161,-0.70084 3.89797,-0.70938 1.28875,-0.36011 0.36338,-0.18179 0.13186,-0.18311 -0.12178,-0.18445 -0.35351,-0.18544 -1.27072,-0.37219 -3.87517,-0.73781 -3.89923,-0.70652 -1.30078,-0.33309 -0.37307,-0.16003 -0.14433,-0.15511 0.10649,-0.15013 0.33614,-0.14636 1.23312,-0.28777 3.81377,-0.5999 3.90365,-0.71649 1.34549,-0.4335 0.40917,-0.24109 0.19076,-0.25941 -0.0643,-0.3031 -0.322,-0.3236 -1.27004,-0.69696 -1.85921,-0.74379 -2.15377,-0.76719"
       style="fill:none;stroke:#000000;stroke-width:0.28346;stroke-linecap:round;stroke-linejoin:round;stroke-miterlimit:10;stroke-dasharray:none;stroke-opacity:1"
       id="path22" /><path
       d="m 49.93056,101.56015 h 56.69291 M 49.93056,54.34537 h 56.69291 v 4.6951 H 49.93056 v -4.6951 m 101.48033,47.21478 h 56.6929"
       style="fill:none;stroke:#000000;stroke-width:0.85039;stroke-linecap:round;stroke-linejoin:round;stroke-miterlimit:10;stroke-dasharray:none;stroke-opacity:1"
       id="path24" /><path
       d="m 179.75732,87.38692 v 14.17323 m 0,-14.17323 2.15381,-0.7672 1.85919,-0.74379 1.27002,-0.69696 0.32203,-0.32359 0.0643,-0.3031 -0.19077,-0.25942 -0.40915,-0.24109 -1.34552,-0.4335 -3.90362,-0.71649 -3.81379,-0.59988 -1.23312,-0.28779 -0.33612,-0.14636 -0.10651,-0.15011 0.14432,-0.15512 0.37308,-0.16004 1.30078,-0.33308 3.89923,-0.70653 3.87515,-0.73781 1.27072,-0.37219 0.35355,-0.18544 0.12177,-0.18445 -0.13187,-0.18311 -0.36337,-0.18179 -1.28876,-0.36011 -3.89795,-0.70938 -3.89163,-0.70083 -1.28086,-0.34944 -0.35821,-0.17487 -0.12595,-0.17511 0.12845,-0.17545 0.36069,-0.17578 1.28537,-0.35246 3.89731,-0.70795 3.89605,-0.7108 1.28379,-0.35601 0.35968,-0.17809 0.12726,-0.1781 -0.12726,-0.17812 -0.35968,-0.17808 -1.28379,-0.35602 -3.89605,-0.7108 -3.89731,-0.70795 -1.28537,-0.35246 -0.36069,-0.17578 -0.12845,-0.17545 0.12595,-0.17511 0.35821,-0.17486 1.28086,-0.34944 3.89163,-0.70084"
       style="fill:none;stroke:#000000;stroke-width:0.28346;stroke-linecap:round;stroke-linejoin:round;stroke-miterlimit:10;stroke-dasharray:none;stroke-opacity:1"
       id="path26" /><path
       d="m 179.74469,68.97879 3.89795,-0.70938 1.28876,-0.36011 0.36337,-0.18179 0.13187,-0.18311 -0.12177,-0.18445 -0.35355,-0.18544 -1.27072,-0.37219 -3.87515,-0.73781 -3.89923,-0.70652 -1.30078,-0.33309 -0.37308,-0.16003 -0.14432,-0.15511 0.10651,-0.15013 0.33612,-0.14636 1.23312,-0.28777 3.81379,-0.5999 3.90362,-0.71649 1.34552,-0.4335 0.40915,-0.24109 0.19077,-0.25941 -0.0643,-0.3031 -0.32203,-0.3236 -1.27002,-0.69696 -1.85919,-0.74379 -2.15381,-0.76719"
       style="fill:none;stroke:#000000;stroke-width:0.28346;stroke-linecap:round;stroke-linejoin:round;stroke-miterlimit:10;stroke-dasharray:none;stroke-opacity:1"
       id="path28" /><path
       d="m 168.41876,54.34537 h 22.67716 v 4.6951 h -22.67716 v -4.6951"
       style="fill:none;stroke:#000000;stroke-width:0.85039;stroke-linecap:round;stroke-linejoin:round;stroke-miterlimit:10;stroke-dasharray:none;stroke-opacity:1"
       id="path30" /><path
       d="m 179.75732,40.17213 v 14.17324 m 0,-14.17324 2.15381,-0.76719 1.85919,-0.74379 1.27002,-0.69696 0.32203,-0.3236 0.0643,-0.3031 -0.19077,-0.25941 -0.40915,-0.24109 -1.34552,-0.4335 -3.90362,-0.71649 -3.81379,-0.59989 -1.23312,-0.28778 -0.33612,-0.14636 -0.10651,-0.15012 0.14432,-0.15512 0.37308,-0.16003 1.30078,-0.33309 3.89923,-0.70652 3.87515,-0.73781 1.27072,-0.37219 0.35355,-0.18544 0.12177,-0.18445 -0.13187,-0.18311 -0.36337,-0.18179 -1.28876,-0.36011 -3.89795,-0.70938 -3.89163,-0.70084 -1.28086,-0.34944 -0.35821,-0.17486 -0.12595,-0.17511 0.12845,-0.17545 0.36069,-0.17578 1.28537,-0.35246 3.89731,-0.70795 3.89605,-0.7108 1.28379,-0.35602 0.35968,-0.17808 0.12726,-0.17812 -0.12726,-0.1781 -0.35968,-0.17808 -1.28379,-0.35602 -3.89605,-0.7108 -3.89731,-0.70795 -1.28537,-0.35246 -0.36069,-0.17578 -0.12845,-0.17545 0.12595,-0.17511 0.35821,-0.17486 1.28086,-0.34945 3.89163,-0.70083"
       style="fill:none;stroke:#000000;stroke-width:0.28346;stroke-linecap:round;stroke-linejoin:round;stroke-miterlimit:10;stroke-dasharray:none;stroke-opacity:1"
       id="path32" /><path
       d="m 179.74469,21.76401 3.89795,-0.70938 1.28876,-0.36011 0.36337,-0.18179 0.13187,-0.18311 -0.12177,-0.18445 -0.35355,-0.18544 -1.27072,-0.37219 -3.87515,-0.73781 -3.89923,-0.70653 -1.30078,-0.33308 -0.37308,-0.16003 -0.14432,-0.15513 0.10651,-0.15011 0.33612,-0.14636 1.23312,-0.28777 3.81379,-0.5999 3.90362,-0.71649 1.34552,-0.4335 0.40915,-0.24109 0.19077,-0.25942 -0.0643,-0.3031 -0.32203,-0.32359 -1.27002,-0.69696 -1.85919,-0.74379 -2.15381,-0.7672"
       style="fill:none;stroke:#000000;stroke-width:0.28346;stroke-linecap:round;stroke-linejoin:round;stroke-miterlimit:10;stroke-dasharray:none;stroke-opacity:1"
       id="path34" /><path
       d="m 208.10379,11.82568 h -56.6929"
       style="fill:none;stroke:#000000;stroke-width:0.85039;stroke-linecap:round;stroke-linejoin:round;stroke-miterlimit:10;stroke-dasharray:none;stroke-opacity:1"
       id="path36" /><path
       d="M 210.37152,56.69292 V 28.34645 m 0,4.96063 v 0.35434 m 0,-5.31497 v 0 l 0.70865,4.96063 h -1.41733 l 0.70868,-4.96063"
       style="fill:none;stroke:#000000;stroke-width:0.28346;stroke-linecap:round;stroke-linejoin:round;stroke-miterlimit:10;stroke-dasharray:none;stroke-opacity:1"
       id="path38" /><path
       d="m 209.66284,33.30708 0.70868,-4.96063 0.70865,4.96063 z"
       style="fill:#000000;fill-opacity:1;fill-rule:nonzero;stroke:none"
       id="path40" /><path
       d="m 210.37152,56.69292 h -19.2756"
       style="fill:none;stroke:#000000;stroke-width:0.28346;stroke-linecap:round;stroke-linejoin:round;stroke-miterlimit:10;stroke-dasharray:none;stroke-opacity:1"
       id="path42" /><path
       d="m 309.01718,101.56015 h 56.6929"
       style="fill:none;stroke:#000000;stroke-width:0.85039;stroke-linecap:round;stroke-linejoin:round;stroke-miterlimit:10;stroke-dasharray:none;stroke-opacity:1"
       id="path44" /><path
       d="m 337.36362,87.38692 v 14.17323 m 0,-14.17323 2.15381,-0.7672 1.85919,-0.74379 1.27002,-0.69696 0.32202,-0.32359 0.0643,-0.3031 -0.19077,-0.25942 -0.40918,-0.24109 -1.34549,-0.4335 -3.90365,-0.71649 -3.81375,-0.59988 -1.23313,-0.28779 -0.33612,-0.14636 -0.1065,-0.15011 0.14431,-0.15512 0.37308,-0.16004 1.30078,-0.33308 3.89923,-0.70653 3.87516,-0.73781 1.27072,-0.37219 0.35351,-0.18544 0.1218,-0.18445 -0.13187,-0.18311 -0.36337,-0.18179 -1.28876,-0.36011 -3.89798,-0.70938 -3.8916,-0.70083 -1.28085,-0.34944 -0.35825,-0.17487 -0.12591,-0.17511 0.12844,-0.17545 0.36069,-0.17578 1.28537,-0.35246 3.89731,-0.70795 3.89606,-0.7108 1.28378,-0.35601 0.35965,-0.17809 0.12729,-0.1781 -0.12729,-0.17812 -0.35965,-0.17808 -1.28378,-0.35602 -3.89606,-0.7108 -3.89731,-0.70795 -1.28537,-0.35246 -0.36069,-0.17578 -0.12844,-0.17545 0.12591,-0.17511 0.35825,-0.17486 1.28085,-0.34944 3.8916,-0.70084"
       style="fill:none;stroke:#000000;stroke-width:0.28346;stroke-linecap:round;stroke-linejoin:round;stroke-miterlimit:10;stroke-dasharray:none;stroke-opacity:1"
       id="path46" /><path
       d="m 337.35095,68.97879 3.89798,-0.70938 1.28876,-0.36011 0.36337,-0.18179 0.13187,-0.18311 -0.1218,-0.18445 -0.35351,-0.18544 -1.27072,-0.37219 -3.87516,-0.73781 -3.89923,-0.70652 -1.30078,-0.33309 -0.37308,-0.16003 -0.14431,-0.15511 0.1065,-0.15013 0.33612,-0.14636 1.23313,-0.28777 3.81375,-0.5999 3.90365,-0.71649 1.34549,-0.4335 0.40918,-0.24109 0.19077,-0.25941 -0.0643,-0.3031 -0.32202,-0.3236 -1.27002,-0.69696 -1.85919,-0.74379 -2.15381,-0.76719 V 30.694 m 0,4.96063 v 0.35434 m 0,-5.31497 v 0 l 0.70868,4.96063 h -1.41733 l 0.70865,-4.96063"
       style="fill:none;stroke:#000000;stroke-width:0.28346;stroke-linecap:round;stroke-linejoin:round;stroke-miterlimit:10;stroke-dasharray:none;stroke-opacity:1"
       id="path48" /><path
       d="m 336.65497,35.65463 0.70865,-4.96063 0.70868,4.96063 z"
       style="fill:#000000;fill-opacity:1;fill-rule:nonzero;stroke:none"
       id="path50" /><path
       d="m 280.67072,59.04047 -6.01319,-6.0132 m 6.01319,6.0132 6.01318,-6.0132 m -12.02637,0 h 12.02637 m 107.37265,6.0132 -6.01322,-6.0132 m 6.01322,6.0132 6.01318,-6.0132 m -12.0264,0 h 12.0264"
       style="fill:none;stroke:#000000;stroke-width:0.28346;stroke-linecap:round;stroke-linejoin:round;stroke-miterlimit:10;stroke-dasharray:none;stroke-opacity:1"
       id="path52" /><path
       d="M 280.67072,59.04047 H 394.05655"
       style="fill:none;stroke:#000000;stroke-width:0.85039;stroke-linecap:round;stroke-linejoin:round;stroke-miterlimit:10;stroke-dasharray:none;stroke-opacity:1"
       id="path54" /><g
       id="g56"><g
         id="g58"
         clip-path="url(#clipPath62)"><text
           transform="matrix(1,0,0,-1,90.68546,37.62574)"
           style="font-style:italic;font-variant:normal;font-weight:normal;font-stretch:normal;font-size:11.0078px;font-family:'Palatino Linotype';-inkscape-font-specification:PalatinoLinotype-Italic;writing-mode:lr-tb;fill:#000000;fill-opacity:1;fill-rule:nonzero;stroke:none"
           id="text66"><tspan
             x="0 6.1203589 8.8723192 14.376239"
             y="0"
             id="tspan64">F = </tspan></text></g></g><g
       id="g68"><g
         id="g70"
         clip-path="url(#clipPath74)"><text
           transform="matrix(1,0,0,-1,108.26207,37.62574)"
           style="font-variant:normal;font-weight:normal;font-stretch:normal;font-size:11.1008px;font-family:'Palatino Linotype';-inkscape-font-specification:PalatinoLinotype-Roman;writing-mode:lr-tb;fill:#000000;fill-opacity:1;fill-rule:nonzero;stroke:none"
           id="text78"><tspan
             x="0 5.550385 8.3255777"
             y="0"
             id="tspan76">1.0</tspan></text></g></g><g
       id="g80"><g
         id="g82"
         clip-path="url(#clipPath86)"><text
           transform="matrix(1,0,0,-1,105.88433,73.07675)"
           style="font-style:italic;font-variant:normal;font-weight:normal;font-stretch:normal;font-size:11.0078px;font-family:'Palatino Linotype';-inkscape-font-specification:PalatinoLinotype-Italic;writing-mode:lr-tb;fill:#000000;fill-opacity:1;fill-rule:nonzero;stroke:none"
           id="text90"><tspan
             x="0"
             y="0"
             id="tspan88">k</tspan></text></g></g><g
       id="g92"><g
         id="g94"
         clip-path="url(#clipPath98)"><text
           transform="matrix(1,0,0,-1,112.18136,68.5295)"
           style="font-style:italic;font-variant:normal;font-weight:normal;font-stretch:normal;font-size:6.6047px;font-family:'Palatino Linotype';-inkscape-font-specification:PalatinoLinotype-Italic;writing-mode:lr-tb;fill:#000000;fill-opacity:1;fill-rule:nonzero;stroke:none"
           id="text102"><tspan
             x="0"
             y="0"
             id="tspan100">2</tspan></text></g></g><g
       id="g104"><g
         id="g106"
         clip-path="url(#clipPath110)"><text
           transform="matrix(1,0,0,-1,42.49648,73.07675)"
           style="font-style:italic;font-variant:normal;font-weight:normal;font-stretch:normal;font-size:11.0078px;font-family:'Palatino Linotype';-inkscape-font-specification:PalatinoLinotype-Italic;writing-mode:lr-tb;fill:#000000;fill-opacity:1;fill-rule:nonzero;stroke:none"
           id="text114"><tspan
             x="0"
             y="0"
             id="tspan112">k</tspan></text></g></g><g
       id="g116"><g
         id="g118"
         clip-path="url(#clipPath122)"><text
           transform="matrix(1,0,0,-1,48.79352,68.5295)"
           style="font-style:italic;font-variant:normal;font-weight:normal;font-stretch:normal;font-size:6.6047px;font-family:'Palatino Linotype';-inkscape-font-specification:PalatinoLinotype-Italic;writing-mode:lr-tb;fill:#000000;fill-opacity:1;fill-rule:nonzero;stroke:none"
           id="text126"><tspan
             x="0"
             y="0"
             id="tspan124">1</tspan></text></g></g><g
       id="g128"><g
         id="g130"
         clip-path="url(#clipPath134)"><text
           transform="matrix(1,0,0,-1,190.35678,25.86197)"
           style="font-style:italic;font-variant:normal;font-weight:normal;font-stretch:normal;font-size:11.0078px;font-family:'Palatino Linotype';-inkscape-font-specification:PalatinoLinotype-Italic;writing-mode:lr-tb;fill:#000000;fill-opacity:1;fill-rule:nonzero;stroke:none"
           id="text138"><tspan
             x="0"
             y="0"
             id="tspan136">k</tspan></text></g></g><g
       id="g140"><g
         id="g142"
         clip-path="url(#clipPath146)"><text
           transform="matrix(1,0,0,-1,196.6538,21.31472)"
           style="font-style:italic;font-variant:normal;font-weight:normal;font-stretch:normal;font-size:6.6047px;font-family:'Palatino Linotype';-inkscape-font-specification:PalatinoLinotype-Italic;writing-mode:lr-tb;fill:#000000;fill-opacity:1;fill-rule:nonzero;stroke:none"
           id="text150"><tspan
             x="0"
             y="0"
             id="tspan148">2</tspan></text></g></g><g
       id="g152"><g
         id="g154"
         clip-path="url(#clipPath158)"><text
           transform="matrix(1,0,0,-1,190.35678,73.07675)"
           style="font-style:italic;font-variant:normal;font-weight:normal;font-stretch:normal;font-size:11.0078px;font-family:'Palatino Linotype';-inkscape-font-specification:PalatinoLinotype-Italic;writing-mode:lr-tb;fill:#000000;fill-opacity:1;fill-rule:nonzero;stroke:none"
           id="text162"><tspan
             x="0"
             y="0"
             id="tspan160">k</tspan></text></g></g><g
       id="g164"><g
         id="g166"
         clip-path="url(#clipPath170)"><text
           transform="matrix(1,0,0,-1,196.6538,68.5295)"
           style="font-style:italic;font-variant:normal;font-weight:normal;font-stretch:normal;font-size:6.6047px;font-family:'Palatino Linotype';-inkscape-font-specification:PalatinoLinotype-Italic;writing-mode:lr-tb;fill:#000000;fill-opacity:1;fill-rule:nonzero;stroke:none"
           id="text174"><tspan
             x="0"
             y="0"
             id="tspan172">1</tspan></text></g></g><g
       id="g176"><g
         id="g178"
         clip-path="url(#clipPath182)"><text
           transform="matrix(1,0,0,-1,222.77994,37.37487)"
           style="font-style:italic;font-variant:normal;font-weight:normal;font-stretch:normal;font-size:11.0078px;font-family:'Palatino Linotype';-inkscape-font-specification:PalatinoLinotype-Italic;writing-mode:lr-tb;fill:#000000;fill-opacity:1;fill-rule:nonzero;stroke:none"
           id="text186"><tspan
             x="0 6.1203589 8.8723192 14.376239"
             y="0"
             id="tspan184">F = </tspan></text></g></g><g
       id="g188"><g
         id="g190"
         clip-path="url(#clipPath194)"><text
           transform="matrix(1,0,0,-1,240.35655,37.37487)"
           style="font-variant:normal;font-weight:normal;font-stretch:normal;font-size:11.1008px;font-family:'Palatino Linotype';-inkscape-font-specification:PalatinoLinotype-Roman;writing-mode:lr-tb;fill:#000000;fill-opacity:1;fill-rule:nonzero;stroke:none"
           id="text198"><tspan
             x="0 5.550385 8.3255777"
             y="0"
             id="tspan196">1.0</tspan></text></g></g><g
       id="g200"><g
         id="g202"
         clip-path="url(#clipPath206)"><text
           transform="matrix(1,0,0,-1,347.96307,73.07675)"
           style="font-style:italic;font-variant:normal;font-weight:normal;font-stretch:normal;font-size:11.0078px;font-family:'Palatino Linotype';-inkscape-font-specification:PalatinoLinotype-Italic;writing-mode:lr-tb;fill:#000000;fill-opacity:1;fill-rule:nonzero;stroke:none"
           id="text210"><tspan
             x="0"
             y="0"
             id="tspan208">k</tspan></text></g></g><g
       id="g212"><g
         id="g214"
         clip-path="url(#clipPath218)"><text
           transform="matrix(1,0,0,-1,354.2601,68.5295)"
           style="font-style:italic;font-variant:normal;font-weight:normal;font-stretch:normal;font-size:6.6047px;font-family:'Palatino Linotype';-inkscape-font-specification:PalatinoLinotype-Italic;writing-mode:lr-tb;fill:#000000;fill-opacity:1;fill-rule:nonzero;stroke:none"
           id="text222"><tspan
             x="0"
             y="0"
             id="tspan220">1</tspan></text></g></g><g
       id="g224"><g
         id="g226"
         clip-path="url(#clipPath230)"><text
           transform="matrix(1,0,0,-1,349.77205,42.32084)"
           style="font-style:italic;font-variant:normal;font-weight:normal;font-stretch:normal;font-size:11.0078px;font-family:'Palatino Linotype';-inkscape-font-specification:PalatinoLinotype-Italic;writing-mode:lr-tb;fill:#000000;fill-opacity:1;fill-rule:nonzero;stroke:none"
           id="text234"><tspan
             x="0 6.1203589 8.8723192 14.376239"
             y="0"
             id="tspan232">F = </tspan></text></g></g><g
       id="g236"><g
         id="g238"
         clip-path="url(#clipPath242)"><text
           transform="matrix(1,0,0,-1,367.34869,42.32084)"
           style="font-variant:normal;font-weight:normal;font-stretch:normal;font-size:11.1008px;font-family:'Palatino Linotype';-inkscape-font-specification:PalatinoLinotype-Roman;writing-mode:lr-tb;fill:#000000;fill-opacity:1;fill-rule:nonzero;stroke:none"
           id="text246"><tspan
             x="0 5.550385 8.3255777"
             y="0"
             id="tspan244">1.0</tspan></text></g></g><g
       id="g248"><g
         id="g250"
         clip-path="url(#clipPath254)"><text
           transform="matrix(1,0,0,-1,290.82558,72.68783)"
           style="font-style:italic;font-variant:normal;font-weight:normal;font-stretch:normal;font-size:11.0078px;font-family:'Palatino Linotype';-inkscape-font-specification:PalatinoLinotype-Italic;writing-mode:lr-tb;fill:#000000;fill-opacity:1;fill-rule:nonzero;stroke:none"
           id="text258"><tspan
             x="0"
             y="0"
             id="tspan256">k</tspan></text></g></g><g
       id="g260"><g
         id="g262"
         clip-path="url(#clipPath266)"><text
           transform="matrix(1,0,0,-1,297.12263,68.14059)"
           style="font-style:italic;font-variant:normal;font-weight:normal;font-stretch:normal;font-size:6.6047px;font-family:'Palatino Linotype';-inkscape-font-specification:PalatinoLinotype-Italic;writing-mode:lr-tb;fill:#000000;fill-opacity:1;fill-rule:nonzero;stroke:none"
           id="text270"><tspan
             x="0"
             y="0"
             id="tspan268">2</tspan></text></g></g><path
       d="m 33.48962,40.17213 -0.4252,2.97638 h 0.85039 l -0.42519,-2.97638 m 0,14.17324 -0.4252,-2.97638 h 0.85039 l -0.42519,2.97638"
       style="fill:none;stroke:#000000;stroke-width:0.56693;stroke-linecap:round;stroke-linejoin:round;stroke-miterlimit:10;stroke-dasharray:none;stroke-opacity:1"
       id="path272" /><path
       d="m 33.48962,40.17213 h -2.12599 m 2.12599,0 h 2.12598 m -2.12598,14.17324 h -2.12599 m 2.12599,0 H 35.6156 M 33.48962,40.17213 H 44.8282 M 33.48962,54.34537 H 44.8282 M 33.48962,40.17213 v 0 m 0,14.17324 v 0"
       style="fill:none;stroke:#000000;stroke-width:0.28346;stroke-linecap:round;stroke-linejoin:round;stroke-miterlimit:10;stroke-dasharray:none;stroke-opacity:1"
       id="path274" /><g
       id="g276"><g
         id="g278"
         clip-path="url(#clipPath282)"><text
           transform="matrix(0,1,1,0,30.4674,44.41207)"
           style="font-style:italic;font-variant:normal;font-weight:normal;font-stretch:normal;font-size:11.0078px;font-family:'Palatino Linotype';-inkscape-font-specification:PalatinoLinotype-Italic;writing-mode:lr-tb;fill:#000000;fill-opacity:1;fill-rule:nonzero;stroke:none"
           id="text286"><tspan
             x="0"
             y="0"
             id="tspan284">u</tspan></text></g></g><path
       d="m 33.48962,40.17213 v 14.17324 m 266.95014,22.16215 h 9.33072 V 59.04047 m 0,-1.06301 v 0 m 0,2.12599 v 0 m 1.06299,-1.06298 v 0 m -2.12598,0 v 0"
       style="fill:none;stroke:#000000;stroke-width:0.28346;stroke-linecap:round;stroke-linejoin:round;stroke-miterlimit:10;stroke-dasharray:none;stroke-opacity:1"
       id="path288" /><path
       d="m 309.77048,57.97746 c 0.58706,0 1.06299,0.47592 1.06299,1.06301 m 0,0 c 0,0.58706 -0.47593,1.06298 -1.06299,1.06298 m 0,0 c -0.58707,0 -1.06299,-0.47592 -1.06299,-1.06298 m 0,0 c 0,-0.58709 0.47592,-1.06301 1.06299,-1.06301 m 0,0 c 0,0 0,0 0,0"
       style="fill:none;stroke:#000000;stroke-width:0.28346;stroke-linecap:round;stroke-linejoin:round;stroke-miterlimit:10;stroke-dasharray:none;stroke-opacity:1"
       id="path290" /><path
       d="m 309.23898,59.95464 h 1.06299 l -0.53149,0.14881 z"
       style="fill:#000000;fill-opacity:1;fill-rule:nonzero;stroke:none"
       id="path292" /><path
       d="m 310.30197,59.95464 h -1.06299 l -0.38269,-0.38269 z"
       style="fill:#000000;fill-opacity:1;fill-rule:nonzero;stroke:none"
       id="path294" /><path
       d="m 310.30197,59.95464 -1.44568,-0.38269 h 1.82834 z"
       style="fill:#000000;fill-opacity:1;fill-rule:nonzero;stroke:none"
       id="path296" /><path
       d="m 310.68463,59.57195 h -1.82834 l -0.1488,-0.53148 z"
       style="fill:#000000;fill-opacity:1;fill-rule:nonzero;stroke:none"
       id="path298" /><path
       d="m 310.68463,59.57195 -1.97714,-0.53148 h 2.12598 z"
       style="fill:#000000;fill-opacity:1;fill-rule:nonzero;stroke:none"
       id="path300" /><path
       d="m 310.83347,59.04047 h -2.12598 l 0.1488,-0.5315 z"
       style="fill:#000000;fill-opacity:1;fill-rule:nonzero;stroke:none"
       id="path302" /><path
       d="m 310.83347,59.04047 -1.97718,-0.5315 h 1.82834 z"
       style="fill:#000000;fill-opacity:1;fill-rule:nonzero;stroke:none"
       id="path304" /><path
       d="m 310.68463,58.50897 h -1.82834 l 0.38269,-0.38269 z"
       style="fill:#000000;fill-opacity:1;fill-rule:nonzero;stroke:none"
       id="path306" /><path
       d="m 310.68463,58.50897 -1.44565,-0.38269 h 1.06299 z"
       style="fill:#000000;fill-opacity:1;fill-rule:nonzero;stroke:none"
       id="path308" /><path
       d="m 310.30197,58.12628 h -1.06299 l 0.5315,-0.14882 z"
       style="fill:#000000;fill-opacity:1;fill-rule:nonzero;stroke:none"
       id="path310" /></g></svg>
