<?xml version="1.0" encoding="UTF-8" standalone="no"?>
<svg
   xmlns:dc="http://purl.org/dc/elements/1.1/"
   xmlns:cc="http://creativecommons.org/ns#"
   xmlns:rdf="http://www.w3.org/1999/02/22-rdf-syntax-ns#"
   xmlns:svg="http://www.w3.org/2000/svg"
   xmlns="http://www.w3.org/2000/svg"
   version="1.1"
   id="svg2"
   xml:space="preserve"
   width="566.92896"
   height="336"
   viewBox="0 0 566.92896 336"><metadata
     id="metadata8"><rdf:RDF><cc:Work
         rdf:about=""><dc:format>image/svg+xml</dc:format><dc:type
           rdf:resource="http://purl.org/dc/dcmitype/StillImage" /></cc:Work></rdf:RDF></metadata><defs
     id="defs6"><clipPath
       clipPathUnits="userSpaceOnUse"
       id="clipPath22"><path
         d="M 53.14959,50.4 H 382.67705 V 221.76 H 53.14959 Z"
         id="path20" /></clipPath><clipPath
       clipPathUnits="userSpaceOnUse"
       id="clipPath42"><path
         d="M 53.14959,50.4 H 382.67705 V 221.76 H 53.14959 Z"
         id="path40" /></clipPath><clipPath
       clipPathUnits="userSpaceOnUse"
       id="clipPath62"><path
         d="M 53.14959,50.4 H 382.67705 V 221.76 H 53.14959 Z"
         id="path60" /></clipPath><clipPath
       clipPathUnits="userSpaceOnUse"
       id="clipPath82"><path
         d="M 53.14959,50.4 H 382.67705 V 221.76 H 53.14959 Z"
         id="path80" /></clipPath><clipPath
       clipPathUnits="userSpaceOnUse"
       id="clipPath108"><path
         d="M 53.14959,50.4 H 382.67705 V 221.76 H 53.14959 Z"
         id="path106" /></clipPath><clipPath
       clipPathUnits="userSpaceOnUse"
       id="clipPath128"><path
         d="M 53.14959,50.4 H 382.67705 V 221.76 H 53.14959 Z"
         id="path126" /></clipPath><clipPath
       clipPathUnits="userSpaceOnUse"
       id="clipPath148"><path
         d="M 53.14959,50.4 H 382.67705 V 221.76 H 53.14959 Z"
         id="path146" /></clipPath><clipPath
       clipPathUnits="userSpaceOnUse"
       id="clipPath168"><path
         d="M 53.14959,50.4 H 382.67705 V 221.76 H 53.14959 Z"
         id="path166" /></clipPath><clipPath
       clipPathUnits="userSpaceOnUse"
       id="clipPath194"><path
         d="M 53.14959,50.4 H 382.67705 V 221.76 H 53.14959 Z"
         id="path192" /></clipPath><clipPath
       clipPathUnits="userSpaceOnUse"
       id="clipPath204"><path
         d="M 53.14959,50.4 H 382.67705 V 221.76 H 53.14959 Z"
         id="path202" /></clipPath><clipPath
       clipPathUnits="userSpaceOnUse"
       id="clipPath214"><path
         d="M 53.14959,50.4 H 382.67705 V 221.76 H 53.14959 Z"
         id="path212" /></clipPath></defs><g
     id="g10"
     transform="matrix(1.3333333,0,0,-1.3333333,0,336)"><path
       d="M 0,0 H 425.19672 V 252 H 0 Z"
       style="fill:#ffffff;fill-opacity:1;fill-rule:nonzero;stroke:none"
       id="path12" /><path
       d="M 53.14959,50.4 H 382.67705 V 221.76 H 53.14959 Z"
       style="fill:#ffffff;fill-opacity:1;fill-rule:nonzero;stroke:none"
       id="path14" /><g
       id="g16"><g
         id="g18"
         clip-path="url(#clipPath22)"><path
           d="M 128.04219,50.4 V 221.76"
           style="fill:none;stroke:#b0b0b0;stroke-width:0.8;stroke-linecap:square;stroke-linejoin:round;stroke-miterlimit:10;stroke-dasharray:none;stroke-opacity:1"
           id="path24" /></g></g><g
       id="g26"><path
         d="M 128.04219,50.4 V 46.9"
         style="fill:#000000;fill-opacity:1;fill-rule:nonzero;stroke:#000000;stroke-width:0.8;stroke-linecap:butt;stroke-linejoin:round;stroke-miterlimit:10;stroke-dasharray:none;stroke-opacity:1"
         id="path28" /><g
         id="g30"
         transform="translate(120.08907,35.80625)"><text
           transform="scale(1,-1)"
           style="font-variant:normal;font-weight:normal;font-size:10px;font-family:'DejaVu Sans';-inkscape-font-specification:DejaVuSans;writing-mode:lr-tb;fill:#000000;fill-opacity:1;fill-rule:nonzero;stroke:none"
           id="text34"><tspan
             x="0 6.3600001 9.54"
             y="0"
             id="tspan32">0.0</tspan></text></g></g><g
       id="g36"><g
         id="g38"
         clip-path="url(#clipPath42)"><path
           d="M 187.95628,50.4 V 221.76"
           style="fill:none;stroke:#b0b0b0;stroke-width:0.8;stroke-linecap:square;stroke-linejoin:round;stroke-miterlimit:10;stroke-dasharray:none;stroke-opacity:1"
           id="path44" /></g></g><g
       id="g46"><path
         d="M 187.95628,50.4 V 46.9"
         style="fill:#000000;fill-opacity:1;fill-rule:nonzero;stroke:#000000;stroke-width:0.8;stroke-linecap:butt;stroke-linejoin:round;stroke-miterlimit:10;stroke-dasharray:none;stroke-opacity:1"
         id="path48" /><g
         id="g50"
         transform="translate(180.00315,35.80625)"><text
           transform="scale(1,-1)"
           style="font-variant:normal;font-weight:normal;font-size:10px;font-family:'DejaVu Sans';-inkscape-font-specification:DejaVuSans;writing-mode:lr-tb;fill:#000000;fill-opacity:1;fill-rule:nonzero;stroke:none"
           id="text54"><tspan
             x="0 6.3600001 9.54"
             y="0"
             id="tspan52">0.5</tspan></text></g></g><g
       id="g56"><g
         id="g58"
         clip-path="url(#clipPath62)"><path
           d="M 247.87036,50.4 V 221.76"
           style="fill:none;stroke:#b0b0b0;stroke-width:0.8;stroke-linecap:square;stroke-linejoin:round;stroke-miterlimit:10;stroke-dasharray:none;stroke-opacity:1"
           id="path64" /></g></g><g
       id="g66"><path
         d="M 247.87036,50.4 V 46.9"
         style="fill:#000000;fill-opacity:1;fill-rule:nonzero;stroke:#000000;stroke-width:0.8;stroke-linecap:butt;stroke-linejoin:round;stroke-miterlimit:10;stroke-dasharray:none;stroke-opacity:1"
         id="path68" /><g
         id="g70"
         transform="translate(239.91724,35.80625)"><text
           transform="scale(1,-1)"
           style="font-variant:normal;font-weight:normal;font-size:10px;font-family:'DejaVu Sans';-inkscape-font-specification:DejaVuSans;writing-mode:lr-tb;fill:#000000;fill-opacity:1;fill-rule:nonzero;stroke:none"
           id="text74"><tspan
             x="0 6.3600001 9.54"
             y="0"
             id="tspan72">1.0</tspan></text></g></g><g
       id="g76"><g
         id="g78"
         clip-path="url(#clipPath82)"><path
           d="M 307.78444,50.4 V 221.76"
           style="fill:none;stroke:#b0b0b0;stroke-width:0.8;stroke-linecap:square;stroke-linejoin:round;stroke-miterlimit:10;stroke-dasharray:none;stroke-opacity:1"
           id="path84" /></g></g><g
       id="g86"><path
         d="M 307.78444,50.4 V 46.9"
         style="fill:#000000;fill-opacity:1;fill-rule:nonzero;stroke:#000000;stroke-width:0.8;stroke-linecap:butt;stroke-linejoin:round;stroke-miterlimit:10;stroke-dasharray:none;stroke-opacity:1"
         id="path88" /><g
         id="g90"
         transform="translate(299.83132,35.80625)"><text
           transform="scale(1,-1)"
           style="font-variant:normal;font-weight:normal;font-size:10px;font-family:'DejaVu Sans';-inkscape-font-specification:DejaVuSans;writing-mode:lr-tb;fill:#000000;fill-opacity:1;fill-rule:nonzero;stroke:none"
           id="text94"><tspan
             x="0 6.3600001 9.54"
             y="0"
             id="tspan92">1.5</tspan></text></g><g
         id="g96"
         transform="translate(208.05394,22.134375)"><text
           transform="scale(1,-1)"
           style="font-variant:normal;font-weight:normal;font-size:10px;font-family:'DejaVu Sans';-inkscape-font-specification:DejaVuSans;writing-mode:lr-tb;fill:#000000;fill-opacity:1;fill-rule:nonzero;stroke:none"
           id="text100"><tspan
             x="0 6.8499999 13 15.78"
             y="0"
             id="tspan98">Zeit</tspan></text></g></g><g
       id="g102"><g
         id="g104"
         clip-path="url(#clipPath108)"><path
           d="M 53.14959,84.672 H 382.67705"
           style="fill:none;stroke:#b0b0b0;stroke-width:0.8;stroke-linecap:square;stroke-linejoin:round;stroke-miterlimit:10;stroke-dasharray:none;stroke-opacity:1"
           id="path110" /></g></g><g
       id="g112"><path
         d="m 53.14959,84.672 h -3.5"
         style="fill:#000000;fill-opacity:1;fill-rule:nonzero;stroke:#000000;stroke-width:0.8;stroke-linecap:butt;stroke-linejoin:round;stroke-miterlimit:10;stroke-dasharray:none;stroke-opacity:1"
         id="path114" /><g
         id="g116"
         transform="translate(30.24334,80.875125)"><text
           transform="scale(1,-1)"
           style="font-variant:normal;font-weight:normal;font-size:10px;font-family:'DejaVu Sans';-inkscape-font-specification:DejaVuSans;writing-mode:lr-tb;fill:#000000;fill-opacity:1;fill-rule:nonzero;stroke:none"
           id="text120"><tspan
             x="0 6.3600001 9.54"
             y="0"
             id="tspan118">0.0</tspan></text></g></g><g
       id="g122"><g
         id="g124"
         clip-path="url(#clipPath128)"><path
           d="M 53.14959,118.944 H 382.67705"
           style="fill:none;stroke:#b0b0b0;stroke-width:0.8;stroke-linecap:square;stroke-linejoin:round;stroke-miterlimit:10;stroke-dasharray:none;stroke-opacity:1"
           id="path130" /></g></g><g
       id="g132"><path
         d="m 53.14959,118.944 h -3.5"
         style="fill:#000000;fill-opacity:1;fill-rule:nonzero;stroke:#000000;stroke-width:0.8;stroke-linecap:butt;stroke-linejoin:round;stroke-miterlimit:10;stroke-dasharray:none;stroke-opacity:1"
         id="path134" /><g
         id="g136"
         transform="translate(30.24334,115.14713)"><text
           transform="scale(1,-1)"
           style="font-variant:normal;font-weight:normal;font-size:10px;font-family:'DejaVu Sans';-inkscape-font-specification:DejaVuSans;writing-mode:lr-tb;fill:#000000;fill-opacity:1;fill-rule:nonzero;stroke:none"
           id="text140"><tspan
             x="0 6.3600001 9.54"
             y="0"
             id="tspan138">0.5</tspan></text></g></g><g
       id="g142"><g
         id="g144"
         clip-path="url(#clipPath148)"><path
           d="M 53.14959,153.216 H 382.67705"
           style="fill:none;stroke:#b0b0b0;stroke-width:0.8;stroke-linecap:square;stroke-linejoin:round;stroke-miterlimit:10;stroke-dasharray:none;stroke-opacity:1"
           id="path150" /></g></g><g
       id="g152"><path
         d="m 53.14959,153.216 h -3.5"
         style="fill:#000000;fill-opacity:1;fill-rule:nonzero;stroke:#000000;stroke-width:0.8;stroke-linecap:butt;stroke-linejoin:round;stroke-miterlimit:10;stroke-dasharray:none;stroke-opacity:1"
         id="path154" /><g
         id="g156"
         transform="translate(30.24334,149.41912)"><text
           transform="scale(1,-1)"
           style="font-variant:normal;font-weight:normal;font-size:10px;font-family:'DejaVu Sans';-inkscape-font-specification:DejaVuSans;writing-mode:lr-tb;fill:#000000;fill-opacity:1;fill-rule:nonzero;stroke:none"
           id="text160"><tspan
             x="0 6.3600001 9.54"
             y="0"
             id="tspan158">1.0</tspan></text></g></g><g
       id="g162"><g
         id="g164"
         clip-path="url(#clipPath168)"><path
           d="M 53.14959,187.488 H 382.67705"
           style="fill:none;stroke:#b0b0b0;stroke-width:0.8;stroke-linecap:square;stroke-linejoin:round;stroke-miterlimit:10;stroke-dasharray:none;stroke-opacity:1"
           id="path170" /></g></g><g
       id="g172"><path
         d="m 53.14959,187.488 h -3.5"
         style="fill:#000000;fill-opacity:1;fill-rule:nonzero;stroke:#000000;stroke-width:0.8;stroke-linecap:butt;stroke-linejoin:round;stroke-miterlimit:10;stroke-dasharray:none;stroke-opacity:1"
         id="path174" /><g
         id="g176"
         transform="translate(30.24334,183.69112)"><text
           transform="scale(1,-1)"
           style="font-variant:normal;font-weight:normal;font-size:10px;font-family:'DejaVu Sans';-inkscape-font-specification:DejaVuSans;writing-mode:lr-tb;fill:#000000;fill-opacity:1;fill-rule:nonzero;stroke:none"
           id="text180"><tspan
             x="0 6.3600001 9.54"
             y="0"
             id="tspan178">1.5</tspan></text></g><g
         id="g182"
         transform="rotate(90,-48.277705,72.44292)"><text
           transform="scale(1,-1)"
           style="font-variant:normal;font-weight:normal;font-size:10px;font-family:'DejaVu Sans';-inkscape-font-specification:DejaVuSans;writing-mode:lr-tb;fill:#000000;fill-opacity:1;fill-rule:nonzero;stroke:none"
           id="text186"><tspan
             x="0 6.3499999 9.1300001 15.48 21.82 27.950001"
             y="0"
             id="tspan184">Signal</tspan></text></g></g><g
       id="g188"><g
         id="g190"
         clip-path="url(#clipPath194)"><path
           d="m 68.128111,84.672 h 89.661219 l 0.29987,68.544 h 119.64824 l 0.29987,-68.544 h 89.66122 v 0"
           style="fill:none;stroke:#1f77b4;stroke-width:1.5;stroke-linecap:square;stroke-linejoin:round;stroke-miterlimit:10;stroke-dasharray:none;stroke-opacity:1"
           id="path196" /></g></g><g
       id="g198"><g
         id="g200"
         clip-path="url(#clipPath204)"><path
           d="m 68.128111,88.382222 1.199481,-0.118959 1.199481,-0.340425 1.499352,-0.686024 1.799221,-1.09325 4.797925,-3.111401 1.499351,-0.683545 1.499352,-0.429104 1.199481,-0.138227 1.199481,0.04852 1.499351,0.310581 1.499352,0.552163 1.799222,0.897657 5.697535,3.038853 1.499351,0.47745 1.499352,0.233548 1.499351,-0.03223 1.49935,-0.294992 1.49935,-0.530111 1.79923,-0.874988 5.9974,-3.184568 1.49935,-0.451958 1.49935,-0.190993 1.19949,0.05394 1.19948,0.240198 1.49935,0.546468 1.49935,0.778961 2.09909,1.350678 3.59844,2.354619 1.49936,0.725811 1.19948,0.381099 1.19948,0.165369 1.19948,-0.07434 1.19948,-0.32516 1.19948,-0.572848 1.19948,-0.802371 1.49935,-1.27369 2.0991,-2.10736 2.69883,-2.715832 1.49935,-1.197474 1.19948,-0.652031 0.89961,-0.255829 0.89961,-0.01983 0.89961,0.245275 0.89961,0.535504 0.89961,0.846185 0.89962,1.172054 0.89961,1.50736 1.19948,2.536251 1.19948,3.127919 1.49935,4.694731 1.49935,5.470692 1.79922,7.384612 2.99871,13.45448 3.29857,14.67265 1.79922,7.1702 1.49935,5.23607 1.49935,4.42297 1.19949,2.8937 1.19948,2.29576 0.89961,1.32772 0.89961,0.99671 0.89961,0.67825 0.89961,0.37785 0.89961,0.1005 0.89961,-0.14954 0.89961,-0.36866 1.19948,-0.77391 1.49935,-1.30142 2.69884,-2.76836 2.09909,-2.04275 1.49935,-1.18475 1.19948,-0.71372 1.19948,-0.4751 1.19948,-0.22438 1.19949,0.0236 1.19948,0.2552 1.49935,0.60009 1.79922,1.02809 5.99741,3.7802 1.49935,0.56698 1.49935,0.29424 1.19948,0.0259 1.49935,-0.22421 1.49935,-0.48033 1.79922,-0.8393 3.59845,-2.04541 2.09909,-1.05402 1.49935,-0.54704 1.49935,-0.31514 1.49935,-0.0537 1.49936,0.21276 1.49935,0.45931 1.79922,0.81444 2.69883,1.51984 2.69883,1.45814 1.79923,0.70656 1.49935,0.3316 1.19948,0.0669 1.19948,-0.11952 1.49935,-0.40704 1.49935,-0.66496 1.79922,-1.05986 5.69754,-3.59638 1.49935,-0.5423 1.19948,-0.19955 1.19948,0.0373 1.19948,0.28738 1.19949,0.53648 1.19948,0.76969 1.49935,1.24144 2.09909,2.0853 2.9987,3.01187 1.49936,1.16877 1.19948,0.61947 0.89961,0.22617 0.89961,-0.0139 0.89961,-0.28262 0.89961,-0.57585 0.89961,-0.88888 0.89961,-1.21635 0.89961,-1.55245 1.19948,-2.59618 1.19948,-3.18578 1.49935,-4.76112 1.49936,-5.5271 2.09909,-8.73899 3.89831,-17.64012 2.69883,-11.63387 1.79923,-6.809331 1.49935,-4.859426 1.19948,-3.271966 1.19948,-2.68586 1.19948,-2.085082 0.89961,-1.172054 0.89961,-0.846185 0.89961,-0.535504 0.89961,-0.245275 0.89962,0.01983 0.89961,0.255829 0.89961,0.459529 1.19948,0.869414 1.49935,1.378063 5.09779,5.006496 1.49936,1.035256 1.19948,0.572848 1.19948,0.32516 1.19948,0.07434 1.19948,-0.165369 1.19948,-0.381099 1.49935,-0.725811 2.0991,-1.323853 3.89831,-2.55295 1.49935,-0.737083 1.49935,-0.494017 1.19948,-0.194096 1.19948,-0.0072 1.49936,0.246127 1.49935,0.498821 1.79922,0.854733 6.29727,3.324678 1.49936,0.44088 1.49935,0.191858 1.49935,-0.07513 1.49935,-0.335086 1.49935,-0.563629 2.09909,-1.068684 4.79793,-2.617905 1.49935,-0.552163 1.49935,-0.310581 1.19948,-0.04852 1.19948,0.138227 1.49936,0.429104 1.49935,0.683545 1.79922,1.074928 5.39766,3.434494 1.49935,0.577335 1.19949,0.233142 0.59974,0.03016 v 0"
           style="fill:none;stroke:#008000;stroke-width:0.5;stroke-linecap:square;stroke-linejoin:round;stroke-miterlimit:10;stroke-dasharray:none;stroke-opacity:1"
           id="path206" /></g></g><g
       id="g208"><g
         id="g210"
         clip-path="url(#clipPath214)"><path
           d="m 68.128111,85.313996 0.59974,-0.172778 1.799222,-1.068587 0.599741,0.11138 0.899611,0.590805 0.59974,0.361347 0.599741,0.103259 0.59974,-0.203998 1.499352,-0.872942 0.59974,0.0035 0.599741,0.275685 1.199481,0.69264 0.599741,0.04398 0.59974,-0.229548 1.199481,-0.690524 0.599741,-0.08767 0.59974,0.184097 1.499352,0.777697 0.59974,-0.0067 0.599741,-0.251595 1.199481,-0.627225 0.599741,-0.03679 0.59974,0.213306 1.199481,0.635584 0.599741,0.07805 0.599741,-0.174234 1.499351,-0.726024 0.599741,0.0096 0.59974,0.240147 1.199481,0.593666 0.599741,0.03188 0.59974,-0.206874 1.199482,-0.610318 0.59974,-0.07232 0.599741,0.171817 1.499351,0.706045 0.599741,-0.01264 0.899611,-0.40533 0.899609,-0.417946 0.59974,-0.02845 0.59974,0.208653 1.19948,0.609446 0.59974,0.06954 0.59975,-0.176107 1.49935,-0.713781 0.59974,0.01618 0.89961,0.417703 0.89961,0.427338 0.59974,0.02605 0.59974,-0.218794 1.19948,-0.632901 0.59974,-0.06941 0.59974,0.187753 1.49935,0.750978 0.59974,-0.02067 0.59975,-0.264951 1.19948,-0.638661 0.59974,-0.02445 0.59974,0.239237 1.19948,0.68582 0.59974,0.07217 0.59974,-0.209078 1.49935,-0.826107 0.59974,0.02688 0.59974,0.298423 1.19948,0.71426 0.59974,0.02354 0.59974,-0.274762 1.19949,-0.781582 0.59974,-0.0788 0.59974,0.245424 1.49935,0.959683 0.59974,-0.03625 0.59974,-0.356204 1.19948,-0.84812 0.59974,-0.02335 0.59974,0.336379 1.19948,0.951811 0.59974,0.09188 0.59974,-0.309381 1.49935,-1.201512 0.29987,-0.03158 0.59975,0.273703 1.49935,1.369523 0.29987,0.0758 0.29987,-0.05171 0.59974,-0.452953 1.19948,-1.281863 0.29987,-0.129773 0.29987,0.01112 0.29987,0.154992 0.59974,0.653415 0.89961,1.128121 0.29987,0.197573 0.29987,0.04152 0.29987,-0.126501 0.59974,-0.688147 0.89961,-1.365599 0.29987,-0.286334 0.29987,-0.112343 0.29987,0.08595 0.29987,0.281375 0.59975,1.000247 0.89961,1.537726 0.29987,0.213309 0.29987,-0.02554 0.29987,-0.275184 0.59974,-1.168371 0.89961,-2.074011 0.29987,-0.370981 0.29987,-0.07241 0.29987,0.261107 0.29987,0.584728 0.59974,1.868491 0.59974,1.978945 0.29987,0.658679 0.29987,0.258458 0.29987,-0.22951 0.29987,-0.746958 0.59974,-2.813188 0.89961,-4.863451 0.29987,-0.758141 0.29987,0.135134 0.29987,1.255495 0.29987,2.532972 0.59975,9.067518 0.59974,13.671372 1.49935,38.61763 0.59974,10.09392 0.29987,3.06838 0.29987,1.75228 0.29987,0.55943 0.29987,-0.43155 0.29987,-1.16538 1.19948,-6.4678 0.29987,-0.94686 0.29987,-0.43666 0.29987,0.0709 0.29987,0.5122 0.59974,1.85868 0.59974,1.97944 0.29987,0.70077 0.29987,0.3944 0.29987,0.0592 0.29987,-0.25835 0.59974,-1.2055 0.89962,-2.04149 0.29987,-0.37022 0.29987,-0.12604 0.29987,0.12122 0.59974,0.83474 0.89961,1.6539 0.29987,0.3524 0.29987,0.16606 0.29987,-0.0345 0.29987,-0.22124 0.59974,-0.82961 0.89961,-1.26112 0.29987,-0.19181 0.29987,-0.0256 0.29987,0.13802 0.59974,0.64845 0.89961,1.13011 0.29987,0.20878 0.29987,0.0695 0.29987,-0.0751 0.59974,-0.50674 0.89961,-1.01995 0.59975,-0.32244 0.29987,0.0255 0.59974,0.39103 1.19948,1.14927 0.59974,0.14284 0.59974,-0.29353 1.49935,-1.21205 0.59974,0.01 0.59974,0.37614 1.19948,0.92113 0.59974,0.0533 0.59974,-0.30276 1.19948,-0.88741 0.59974,-0.10732 0.59975,0.23582 1.49935,0.96618 0.59974,-0.0122 0.59974,-0.30966 1.19948,-0.75495 0.59974,-0.0402 0.59974,0.25609 1.19948,0.74555 0.59974,0.0873 0.59974,-0.20462 1.49935,-0.82903 0.59974,0.0144 0.59975,0.27273 1.19948,0.66045 0.59974,0.0319 0.59974,-0.23019 1.19948,-0.66446 0.59974,-0.075 0.59974,0.18765 1.49935,0.75078 0.59974,-0.0165 0.59974,-0.25277 1.19948,-0.60731 0.59974,-0.0263 0.59974,0.217 1.19949,0.62055 0.59974,0.0674 0.59974,-0.17998 1.49935,-0.7107 0.59974,0.0191 0.89961,0.41271 0.89961,0.41434 0.59974,0.0222 0.59974,-0.21316 1.19948,-0.60372 0.59974,-0.0628 0.59974,0.17967 1.49936,0.70004 0.59974,-0.0222 0.89961,-0.41434 0.89961,-0.41271 0.59974,-0.0191 0.59974,0.21766 1.19948,0.61059 0.59974,0.0608 0.59974,-0.1864 1.49935,-0.71685 0.59974,0.0263 0.89961,0.43256 0.89962,0.42752 0.59974,0.0165 0.59974,-0.23121 1.19948,-0.64268 0.59974,-0.061 0.59974,0.20135 1.49935,0.7648 0.59974,-0.0319 0.59974,-0.28063 1.19948,-0.65255 0.59974,-0.0144 0.59974,0.25659 1.19948,0.70728 0.59975,0.0639 0.59974,-0.22774 1.49935,-0.85533 0.59974,0.0402 0.59974,0.3216 1.19948,0.74301 0.59974,0.0122 0.59974,-0.30026 1.19948,-0.82202 0.59974,-0.0706 0.59974,0.27283 1.49935,1.0155 0.59974,-0.0533 0.59975,-0.39301 0.89961,-0.75209 0.59974,-0.20948 0.59974,0.19567 0.89961,0.80148 0.59974,0.45767 0.59974,0.0838 0.59974,-0.35458 1.19948,-1.16725 0.59974,-0.1722 0.59974,0.32244 1.49935,1.52669 0.29988,0.0751 0.29987,-0.0695 0.59973,-0.53167 1.19949,-1.45567 0.29987,-0.13802 0.29987,0.0256 0.29987,0.19181 0.59974,0.77716 0.89961,1.31357 0.29987,0.22124 0.29987,0.0345 0.29987,-0.16606 0.59974,-0.8496 0.89961,-1.65343 0.29987,-0.33801 0.29987,-0.12122 0.29987,0.12604 0.29987,0.37022 0.59974,1.28811 0.59974,1.44139 0.29987,0.51749 0.29987,0.25835 0.29987,-0.0592 0.29988,-0.3944 0.59973,-1.63263 0.89962,-2.90626 0.29987,-0.5122 0.29987,-0.0709 0.29987,0.43666 0.29987,0.94686 0.59974,3.07469 0.59974,3.39311 0.29987,1.16538 0.29987,0.43155 0.29987,-0.55943 0.29987,-1.75228 0.29987,-3.06838 0.59974,-10.09392 0.89961,-22.46833 1.19948,-29.820672 0.59974,-9.067518 0.29987,-2.532972 0.29987,-1.255495 0.29987,-0.135134 0.29987,0.758141 0.59975,3.092916 0.59973,3.359248 0.29987,1.224475 0.29988,0.746958 0.29987,0.22951 0.29987,-0.258458 0.29987,-0.658679 1.49935,-4.432164 0.29987,-0.261107 0.29987,0.07241 0.29987,0.370981 0.59974,1.32479 0.59974,1.417044 0.29987,0.500548 0.29987,0.275184 0.29987,0.02554 0.29987,-0.213309 0.59974,-0.949206 0.89961,-1.588767 0.29987,-0.281375 0.29987,-0.08595 0.29987,0.112343 0.59974,0.699681 0.89961,1.357414 0.29987,0.282985 0.29988,0.126501 0.29987,-0.04152 0.59974,-0.518254 1.19948,-1.460855 0.29987,-0.154992 0.29987,-0.01112 0.59974,0.378118 1.49935,1.486471 0.29987,0.05171 0.59974,-0.265201 1.49935,-1.370069 0.59974,-0.05218 0.59974,0.366065 1.19948,1.035456 0.59974,0.11475 0.59975,-0.281544 1.49935,-1.1039 0.59974,0.02335 0.59974,0.35798 1.19948,0.846344 0.59974,0.03625 0.59974,-0.29314 1.19948,-0.825754 0.59974,-0.0884 0.59974,0.232721 1.49935,0.904613 0.59974,-0.02354 0.59975,-0.302123 1.19948,-0.71056 0.59974,-0.02688 0.59974,0.253441 1.19948,0.708833 0.59974,0.07294 0.59974,-0.205876 1.49935,-0.791381 0.59974,0.02445 0.59974,0.270917 1.19948,0.632695 0.59974,0.02067 0.59974,-0.231583 1.19949,-0.642193 0.59974,-0.06327 0.59974,0.191666 1.49935,0.72776 0.59974,-0.02605 0.89961,-0.427338 0.89961,-0.417703 0.59974,-0.01618 0.59974,0.221327 1.19948,0.608149 0.59974,0.05717 0.59974,-0.186232 1.49936,-0.69817 0.59974,0.02845 0.89961,0.417946 0.89961,0.40533 0.59974,0.01264 0.59974,-0.220153 1.19948,-0.599292 0.59974,-0.05358 0.59974,0.188173 1.49935,0.696498 0.59974,-0.03188 0.89961,-0.424942 0.89961,-0.408871 0.59975,-0.0096 0.59974,0.227623 1.19948,0.613946 0.59974,0.05202 0.59974,-0.197663 1.49935,-0.722599 0.59974,0.03679 0.89961,0.449557 0.89961,0.429263 0.59974,0.0067 0.59974,-0.245078 1.19948,-0.655301 0.59974,-0.05242 0.59975,0.21649 1.49935,0.782262 0.59974,-0.04398 0.59974,-0.298449 1.19948,-0.669876 0.59974,-0.0035 0.59974,0.276337 1.19948,0.733219 0.59974,0.05517 0.59974,-0.249019 1.49935,-0.890661 0.59974,0.05502 0.59975,0.348568 0.89961,0.650099 0.59974,0.172778 v 0"
           style="fill:none;stroke:#ff0000;stroke-width:0.5;stroke-linecap:square;stroke-linejoin:round;stroke-miterlimit:10;stroke-dasharray:none;stroke-opacity:1"
           id="path216" /></g></g><g
       id="g218"><path
         d="M 53.14959,50.4 V 221.76"
         style="fill:none;stroke:#000000;stroke-width:0.8;stroke-linecap:square;stroke-linejoin:miter;stroke-miterlimit:10;stroke-dasharray:none;stroke-opacity:1"
         id="path220" /><path
         d="M 382.67705,50.4 V 221.76"
         style="fill:none;stroke:#000000;stroke-width:0.8;stroke-linecap:square;stroke-linejoin:miter;stroke-miterlimit:10;stroke-dasharray:none;stroke-opacity:1"
         id="path222" /><path
         d="M 53.14959,50.4 H 382.67705"
         style="fill:none;stroke:#000000;stroke-width:0.8;stroke-linecap:square;stroke-linejoin:miter;stroke-miterlimit:10;stroke-dasharray:none;stroke-opacity:1"
         id="path224" /><path
         d="M 53.14959,221.76 H 382.67705"
         style="fill:none;stroke:#000000;stroke-width:0.8;stroke-linecap:square;stroke-linejoin:miter;stroke-miterlimit:10;stroke-dasharray:none;stroke-opacity:1"
         id="path226" /><path
         d="m 254.3958,168.41625 h 121.28125 c 1.33333,0 2,0.66667 2,2 V 214.76 c 0,1.33333 -0.66667,2 -2,2 H 254.3958 c -1.33334,0 -2,-0.66667 -2,-2 v -44.34375 c 0,-1.33333 0.66666,-2 2,-2 z"
         style="fill:#ffffff;fill-opacity:0.8;fill-rule:nonzero;stroke:#cccccc;stroke-width:1;stroke-linecap:butt;stroke-linejoin:miter;stroke-miterlimit:10;stroke-dasharray:none;stroke-opacity:0.8"
         id="path228" /><path
         d="m 256.3958,208.26 h 10 10"
         style="fill:none;stroke:#1f77b4;stroke-width:1.5;stroke-linecap:square;stroke-linejoin:round;stroke-miterlimit:10;stroke-dasharray:none;stroke-opacity:1"
         id="path230" /><g
         id="g232"
         transform="translate(284.3958,204.76)"><text
           transform="matrix(1,0,0,-1,0,0.40625)"
           style="font-variant:normal;font-weight:normal;font-size:10px;font-family:'DejaVu Sans';-inkscape-font-specification:DejaVuSans;writing-mode:lr-tb;fill:#000000;fill-opacity:1;fill-rule:nonzero;stroke:none"
           id="text236"><tspan
             x="0 6.3476562 9.1259766 15.473633 21.811523 27.939453 30.717773"
             y="0"
             id="tspan234">Signal </tspan></text><text
           transform="matrix(1,0,0,-1,33.896484,0.40625)"
           style="font-style:italic;font-variant:normal;font-size:10px;font-family:'DejaVu Sans';-inkscape-font-specification:DejaVuSans-Oblique;writing-mode:lr-tb;fill:#000000;fill-opacity:1;fill-rule:nonzero;stroke:none"
           id="text240"><tspan
             x="0"
             y="0"
             id="tspan238">x</tspan></text><text
           transform="matrix(1,0,0,-1,39.814453,0.40625)"
           style="font-variant:normal;font-weight:normal;font-size:10px;font-family:'DejaVu Sans';-inkscape-font-specification:DejaVuSans;writing-mode:lr-tb;fill:#000000;fill-opacity:1;fill-rule:nonzero;stroke:none"
           id="text244"><tspan
             x="0"
             y="0"
             id="tspan242">(</tspan></text><text
           transform="matrix(1,0,0,-1,43.71582,0.40625)"
           style="font-style:italic;font-variant:normal;font-size:10px;font-family:'DejaVu Sans';-inkscape-font-specification:DejaVuSans-Oblique;writing-mode:lr-tb;fill:#000000;fill-opacity:1;fill-rule:nonzero;stroke:none"
           id="text248"><tspan
             x="0"
             y="0"
             id="tspan246">t</tspan></text><text
           transform="matrix(1,0,0,-1,47.636719,0.40625)"
           style="font-variant:normal;font-weight:normal;font-size:10px;font-family:'DejaVu Sans';-inkscape-font-specification:DejaVuSans;writing-mode:lr-tb;fill:#000000;fill-opacity:1;fill-rule:nonzero;stroke:none"
           id="text252"><tspan
             x="0"
             y="0"
             id="tspan250">)</tspan></text></g><path
         d="m 256.3958,192.66625 h 10 10"
         style="fill:none;stroke:#008000;stroke-width:0.5;stroke-linecap:square;stroke-linejoin:round;stroke-miterlimit:10;stroke-dasharray:none;stroke-opacity:1"
         id="path254" /><g
         id="g256"
         transform="translate(284.3958,189.16625)"><text
           transform="scale(1,-1)"
           style="font-variant:normal;font-weight:normal;font-size:10px;font-family:'DejaVu Sans';-inkscape-font-specification:DejaVuSans;writing-mode:lr-tb;fill:#000000;fill-opacity:1;fill-rule:nonzero;stroke:none"
           id="text260"><tspan
             x="0 6.3600001 9.54 15.89 21.389999 27.73 35.91 38.689999 45.029999 51.380001 57.720001 64.059998 70.410004 76.559998"
             y="0"
             id="tspan258">5 Schwingungen</tspan></text></g><path
         d="m 256.3958,177.99437 h 10 10"
         style="fill:none;stroke:#ff0000;stroke-width:0.5;stroke-linecap:square;stroke-linejoin:round;stroke-miterlimit:10;stroke-dasharray:none;stroke-opacity:1"
         id="path262" /><g
         id="g264"
         transform="translate(284.3958,174.49437)"><text
           transform="scale(1,-1)"
           style="font-variant:normal;font-weight:normal;font-size:10px;font-family:'DejaVu Sans';-inkscape-font-specification:DejaVuSans;writing-mode:lr-tb;fill:#000000;fill-opacity:1;fill-rule:nonzero;stroke:none"
           id="text268"><tspan
             x="0 6.3600001 12.72 15.9 22.25 27.75 34.09 42.27 45.049999 51.389999 57.740002 64.080002 70.419998 76.769997 82.919998"
             y="0"
             id="tspan266">25 Schwingungen</tspan></text></g></g></g></svg>
