<?xml version="1.0" encoding="UTF-8" standalone="no"?>
<svg
   xmlns:dc="http://purl.org/dc/elements/1.1/"
   xmlns:cc="http://creativecommons.org/ns#"
   xmlns:rdf="http://www.w3.org/1999/02/22-rdf-syntax-ns#"
   xmlns:svg="http://www.w3.org/2000/svg"
   xmlns="http://www.w3.org/2000/svg"
   version="1.1"
   id="svg2"
   xml:space="preserve"
   width="566.92932"
   height="321.26001"
   viewBox="0 0 566.92932 321.26001"><metadata
     id="metadata8"><rdf:RDF><cc:Work
         rdf:about=""><dc:format>image/svg+xml</dc:format><dc:type
           rdf:resource="http://purl.org/dc/dcmitype/StillImage" /></cc:Work></rdf:RDF></metadata><defs
     id="defs6"><clipPath
       clipPathUnits="userSpaceOnUse"
       id="clipPath56"><path
         d="M -0.00426,-0.00241 V 240.9473 H 425.20111 V -0.00241 H -0.00426"
         clip-rule="evenodd"
         id="path54" /></clipPath><clipPath
       clipPathUnits="userSpaceOnUse"
       id="clipPath68"><path
         d="M -0.00426,-0.00241 V 240.9473 H 425.20111 V -0.00241 H -0.00426"
         clip-rule="evenodd"
         id="path66" /></clipPath><clipPath
       clipPathUnits="userSpaceOnUse"
       id="clipPath80"><path
         d="M -0.00426,-0.00241 V 240.9473 H 425.20111 V -0.00241 H -0.00426"
         clip-rule="evenodd"
         id="path78" /></clipPath><clipPath
       clipPathUnits="userSpaceOnUse"
       id="clipPath92"><path
         d="M -0.00426,-0.00241 V 240.9473 H 425.20111 V -0.00241 H -0.00426"
         clip-rule="evenodd"
         id="path90" /></clipPath><clipPath
       clipPathUnits="userSpaceOnUse"
       id="clipPath104"><path
         d="M -0.00426,-0.00241 V 240.9473 H 425.20111 V -0.00241 H -0.00426"
         clip-rule="evenodd"
         id="path102" /></clipPath><clipPath
       clipPathUnits="userSpaceOnUse"
       id="clipPath116"><path
         d="M -0.00426,-0.00241 V 240.9473 H 425.20111 V -0.00241 H -0.00426"
         clip-rule="evenodd"
         id="path114" /></clipPath><clipPath
       clipPathUnits="userSpaceOnUse"
       id="clipPath130"><path
         d="M -0.00426,-0.00241 V 240.9473 H 425.20111 V -0.00241 H -0.00426"
         clip-rule="evenodd"
         id="path128" /></clipPath><clipPath
       clipPathUnits="userSpaceOnUse"
       id="clipPath142"><path
         d="M -0.00426,-0.00241 V 240.9473 H 425.20111 V -0.00241 H -0.00426"
         clip-rule="evenodd"
         id="path140" /></clipPath><clipPath
       clipPathUnits="userSpaceOnUse"
       id="clipPath150"><path
         d="M -0.00426,-0.00241 V 240.9473 H 425.20111 V -0.00241 H -0.00426"
         clip-rule="evenodd"
         id="path148" /></clipPath><clipPath
       clipPathUnits="userSpaceOnUse"
       id="clipPath162"><path
         d="M -0.00426,-0.00241 V 240.9473 H 425.20111 V -0.00241 H -0.00426"
         clip-rule="evenodd"
         id="path160" /></clipPath><clipPath
       clipPathUnits="userSpaceOnUse"
       id="clipPath174"><path
         d="M -0.00426,-0.00241 V 240.9473 H 425.20111 V -0.00241 H -0.00426"
         clip-rule="evenodd"
         id="path172" /></clipPath><clipPath
       clipPathUnits="userSpaceOnUse"
       id="clipPath186"><path
         d="M -0.00426,-0.00241 V 240.9473 H 425.20111 V -0.00241 H -0.00426"
         clip-rule="evenodd"
         id="path184" /></clipPath><clipPath
       clipPathUnits="userSpaceOnUse"
       id="clipPath198"><path
         d="M -0.00426,-0.00241 V 240.9473 H 425.20111 V -0.00241 H -0.00426"
         clip-rule="evenodd"
         id="path196" /></clipPath><clipPath
       clipPathUnits="userSpaceOnUse"
       id="clipPath210"><path
         d="M -0.00426,-0.00241 V 240.9473 H 425.20111 V -0.00241 H -0.00426"
         clip-rule="evenodd"
         id="path208" /></clipPath><clipPath
       clipPathUnits="userSpaceOnUse"
       id="clipPath224"><path
         d="M -0.00426,-0.00241 V 240.9473 H 425.20111 V -0.00241 H -0.00426"
         clip-rule="evenodd"
         id="path222" /></clipPath><clipPath
       clipPathUnits="userSpaceOnUse"
       id="clipPath236"><path
         d="M -0.00426,-0.00241 V 240.9473 H 425.20111 V -0.00241 H -0.00426"
         clip-rule="evenodd"
         id="path234" /></clipPath><clipPath
       clipPathUnits="userSpaceOnUse"
       id="clipPath244"><path
         d="M -0.00426,-0.00241 V 240.9473 H 425.20111 V -0.00241 H -0.00426"
         clip-rule="evenodd"
         id="path242" /></clipPath><clipPath
       clipPathUnits="userSpaceOnUse"
       id="clipPath256"><path
         d="M -0.00426,-0.00241 V 240.9473 H 425.20111 V -0.00241 H -0.00426"
         clip-rule="evenodd"
         id="path254" /></clipPath><clipPath
       clipPathUnits="userSpaceOnUse"
       id="clipPath268"><path
         d="M -0.00426,-0.00241 V 240.9473 H 425.20111 V -0.00241 H -0.00426"
         clip-rule="evenodd"
         id="path266" /></clipPath><clipPath
       clipPathUnits="userSpaceOnUse"
       id="clipPath280"><path
         d="M -0.00426,-0.00241 V 240.9473 H 425.20111 V -0.00241 H -0.00426"
         clip-rule="evenodd"
         id="path278" /></clipPath><clipPath
       clipPathUnits="userSpaceOnUse"
       id="clipPath292"><path
         d="M -0.00426,-0.00241 V 240.9473 H 425.20111 V -0.00241 H -0.00426"
         clip-rule="evenodd"
         id="path290" /></clipPath><clipPath
       clipPathUnits="userSpaceOnUse"
       id="clipPath304"><path
         d="M -0.00426,-0.00241 V 240.9473 H 425.20111 V -0.00241 H -0.00426"
         clip-rule="evenodd"
         id="path302" /></clipPath><clipPath
       clipPathUnits="userSpaceOnUse"
       id="clipPath316"><path
         d="M -0.00426,-0.00241 V 240.9473 H 425.20111 V -0.00241 H -0.00426"
         clip-rule="evenodd"
         id="path314" /></clipPath><clipPath
       clipPathUnits="userSpaceOnUse"
       id="clipPath328"><path
         d="M -0.00426,-0.00241 V 240.9473 H 425.20111 V -0.00241 H -0.00426"
         clip-rule="evenodd"
         id="path326" /></clipPath></defs><g
     id="g10"
     transform="matrix(1.3333333,0,0,-1.3333333,0,321.26)"><path
       d="m 153.56219,148.95853 c 0,31.31064 -25.38226,56.6929 -56.69291,56.6929 m 0,0 c -31.31063,0 -56.6929,-25.38226 -56.6929,-56.6929 m 0,0 c 0,-31.31064 25.38227,-56.69292 56.6929,-56.69292 m 0,0 c 31.31065,0 56.69291,25.38228 56.69291,56.69292"
       style="fill:none;stroke:#000000;stroke-width:0.28346;stroke-linecap:round;stroke-linejoin:round;stroke-miterlimit:10;stroke-dasharray:none;stroke-opacity:1"
       id="path12" /><path
       d="M 96.86928,233.99789 V 63.91916"
       style="fill:none;stroke:#000000;stroke-width:0.28346;stroke-linecap:round;stroke-linejoin:round;stroke-miterlimit:10;stroke-dasharray:none;stroke-opacity:1"
       id="path14" /><path
       d="m 136.49667,148.95853 c 0,1.25241 -1.01529,2.26773 -2.26773,2.26773 m 0,0 c -1.25241,0 -2.2677,-1.01532 -2.2677,-2.26773 m 0,0 c 0,-1.25241 1.01529,-2.26773 2.2677,-2.26773 m 0,0 c 1.25244,0 2.26773,1.01532 2.26773,2.26773"
       style="fill:none;stroke:#000000;stroke-width:0.28346;stroke-linecap:round;stroke-linejoin:round;stroke-miterlimit:10;stroke-dasharray:none;stroke-opacity:1"
       id="path16" /><path
       d="m 108.02077,138.15793 68.95405,28.41653"
       style="fill:none;stroke:#000000;stroke-width:0.28346;stroke-linecap:round;stroke-linejoin:round;stroke-miterlimit:10;stroke-dasharray:none;stroke-opacity:1"
       id="path18" /><path
       d="m 77.62082,202.28378 c 12.52832,-3.95016 25.96861,-3.95016 38.49693,0"
       style="fill:none;stroke:#000000;stroke-width:0.28346;stroke-linecap:round;stroke-linejoin:round;stroke-miterlimit:10;stroke-dasharray:none;stroke-opacity:1"
       id="path20" /><path
       d="m 116.11775,95.63327 c -12.52832,3.95015 -25.96861,3.95015 -38.49693,0"
       style="fill:none;stroke:#000000;stroke-width:0.28346;stroke-linecap:round;stroke-linejoin:round;stroke-miterlimit:10;stroke-dasharray:none;stroke-opacity:1"
       id="path22" /><path
       d="M 43.54402,168.207 C 32.91339,160.42715 30.60236,145.50253 38.38219,134.87192 m 0,0 c 1.44555,-1.97528 3.18657,-3.71628 5.16183,-5.16187"
       style="fill:none;stroke:#000000;stroke-width:0.28346;stroke-linecap:round;stroke-linejoin:round;stroke-miterlimit:10;stroke-dasharray:none;stroke-opacity:1"
       id="path24" /><path
       d="m 150.19455,129.71005 c 10.63061,7.77985 12.94165,22.70447 5.16183,33.33509 m 0,0 c -1.44555,1.97528 -3.18655,3.71627 -5.16183,5.16186"
       style="fill:none;stroke:#000000;stroke-width:0.28346;stroke-linecap:round;stroke-linejoin:round;stroke-miterlimit:10;stroke-dasharray:none;stroke-opacity:1"
       id="path26" /><path
       d="M 96.86928,148.95853 H 85.5307 m 4.96063,0 h 0.35433 m -5.31496,0 v 0 l 4.96063,-0.70865 v 1.4173 l -4.96063,-0.70865"
       style="fill:none;stroke:#000000;stroke-width:0.28346;stroke-linecap:round;stroke-linejoin:round;stroke-miterlimit:10;stroke-dasharray:none;stroke-opacity:1"
       id="path28" /><path
       d="m 90.49133,149.66718 -4.96063,-0.70865 4.96063,-0.70865 z"
       style="fill:#000000;fill-opacity:1;fill-rule:nonzero;stroke:none"
       id="path30" /><path
       d="m 96.86928,148.95853 h 11.33859 m -4.96063,0 h -0.35434 m 5.31497,0 v 0 l -4.96063,0.70865 v -1.4173 l 4.96063,0.70865"
       style="fill:none;stroke:#000000;stroke-width:0.28346;stroke-linecap:round;stroke-linejoin:round;stroke-miterlimit:10;stroke-dasharray:none;stroke-opacity:1"
       id="path32" /><path
       d="m 103.24724,148.24988 4.96063,0.70865 -4.96063,0.70865 z"
       style="fill:#000000;fill-opacity:1;fill-rule:nonzero;stroke:none"
       id="path34" /><path
       d="m 374.66455,148.95853 c 0,12.52426 -10.15292,22.67715 -22.67715,22.67715 m 0,0 c -12.52427,0 -22.67719,-10.15289 -22.67719,-22.67715 m 0,0 c 0,-12.52426 10.15292,-22.67717 22.67719,-22.67717 m 0,0 c 12.52423,0 22.67715,10.15291 22.67715,22.67717"
       style="fill:none;stroke:#000000;stroke-width:0.28346;stroke-linecap:round;stroke-linejoin:round;stroke-miterlimit:10;stroke-dasharray:none;stroke-opacity:1"
       id="path36" /><path
       d="M 11.82991,148.95853 H 403.01102 M 351.9874,233.99789 V 63.91916 m 0,85.03937 h 11.33856 m -4.96063,0 h -0.35431 m 5.31494,0 v 0 l -4.96063,0.70865 v -1.4173 l 4.96063,0.70865"
       style="fill:none;stroke:#000000;stroke-width:0.28346;stroke-linecap:round;stroke-linejoin:round;stroke-miterlimit:10;stroke-dasharray:none;stroke-opacity:1"
       id="path38" /><path
       d="m 358.36533,148.24988 4.96063,0.70865 -4.96063,0.70865 z"
       style="fill:#000000;fill-opacity:1;fill-rule:nonzero;stroke:none"
       id="path40" /><path
       d="m 351.9874,148.95853 h -11.3386 m 4.96064,0 h 0.35434 m -5.31498,0 v 0 l 4.96064,-0.70865 v 1.4173 l -4.96064,-0.70865"
       style="fill:none;stroke:#000000;stroke-width:0.28346;stroke-linecap:round;stroke-linejoin:round;stroke-miterlimit:10;stroke-dasharray:none;stroke-opacity:1"
       id="path42" /><path
       d="m 345.60944,149.66718 -4.96064,-0.70865 4.96064,-0.70865 z"
       style="fill:#000000;fill-opacity:1;fill-rule:nonzero;stroke:none"
       id="path44" /><path
       d="m 176.69333,148.95853 c 0,5.55081 -1.08829,11.04776 -3.20325,16.17984"
       style="fill:none;stroke:#000000;stroke-width:0.28346;stroke-linecap:round;stroke-linejoin:round;stroke-miterlimit:10;stroke-dasharray:none;stroke-opacity:1"
       id="path46" /><path
       d="m 178.81506,148.95853 h -4.24774 m 2.12601,-2.12174 v 4.24771 m 1.27133,-3.39731 -2.54694,2.54694 m 0.034,15.71268 -3.92731,-1.6185 m 2.77405,-1.15161 -1.61847,3.92727 m 2.46988,-2.65664 -3.32522,1.38437"
       style="fill:none;stroke:#000000;stroke-width:0.28346;stroke-linecap:round;stroke-linejoin:round;stroke-miterlimit:10;stroke-dasharray:none;stroke-opacity:1"
       id="path48" /><g
       id="g50"><g
         id="g52"
         clip-path="url(#clipPath56)"><text
           transform="matrix(1,0,0,-1,131.5879,136.33424)"
           style="font-style:italic;font-variant:normal;font-weight:normal;font-stretch:normal;font-size:11.0078px;font-family:'Palatino Linotype';-inkscape-font-specification:PalatinoLinotype-Italic;writing-mode:lr-tb;fill:#000000;fill-opacity:1;fill-rule:nonzero;stroke:none"
           id="text60"><tspan
             x="0"
             y="0"
             id="tspan58">S</tspan></text></g></g><g
       id="g62"><g
         id="g64"
         clip-path="url(#clipPath68)"><text
           transform="matrix(1,0,0,-1,179.3627,156.55567)"
           style="font-variant:normal;font-weight:normal;font-stretch:normal;font-size:11.1008px;font-family:'Palatino Linotype';-inkscape-font-specification:PalatinoLinotype-Roman;writing-mode:lr-tb;fill:#000000;fill-opacity:1;fill-rule:nonzero;stroke:none"
           id="text72"><tspan
             x="0"
             y="0"
             id="tspan70">ω</tspan></text></g></g><g
       id="g74"><g
         id="g76"
         clip-path="url(#clipPath80)"><text
           transform="matrix(1,0,0,-1,66.83466,208.55379)"
           style="font-variant:normal;font-weight:normal;font-stretch:normal;font-size:11.1008px;font-family:'Palatino Linotype';-inkscape-font-specification:PalatinoLinotype-Roman;writing-mode:lr-tb;fill:#000000;fill-opacity:1;fill-rule:nonzero;stroke:none"
           id="text84"><tspan
             x="0 6.7825704 12.921296 19.060022"
             y="0"
             id="tspan82">Ebbe</tspan></text></g></g><g
       id="g86"><g
         id="g88"
         clip-path="url(#clipPath92)"><text
           transform="matrix(1,0,0,-1,66.83466,82.74906)"
           style="font-variant:normal;font-weight:normal;font-stretch:normal;font-size:11.1008px;font-family:'Palatino Linotype';-inkscape-font-specification:PalatinoLinotype-Roman;writing-mode:lr-tb;fill:#000000;fill-opacity:1;fill-rule:nonzero;stroke:none"
           id="text96"><tspan
             x="0 6.7825704 12.921296 19.060022"
             y="0"
             id="tspan94">Ebbe</tspan></text></g></g><g
       id="g98"><g
         id="g100"
         clip-path="url(#clipPath104)"><text
           transform="matrix(1,0,0,-1,11.56195,152.02468)"
           style="font-variant:normal;font-weight:normal;font-stretch:normal;font-size:11.1008px;font-family:'Palatino Linotype';-inkscape-font-specification:PalatinoLinotype-Roman;writing-mode:lr-tb;fill:#000000;fill-opacity:1;fill-rule:nonzero;stroke:none"
           id="text108"><tspan
             x="0 6.1720281 9.4023523 16.096117"
             y="0"
             id="tspan106">Flut</tspan></text></g></g><g
       id="g110"><g
         id="g112"
         clip-path="url(#clipPath116)"><text
           transform="matrix(1,0,0,-1,161.08853,132.69732)"
           style="font-variant:normal;font-weight:normal;font-stretch:normal;font-size:11.1008px;font-family:'Palatino Linotype';-inkscape-font-specification:PalatinoLinotype-Roman;writing-mode:lr-tb;fill:#000000;fill-opacity:1;fill-rule:nonzero;stroke:none"
           id="text120"><tspan
             x="0 6.1720281 9.4023523 16.096117"
             y="0"
             id="tspan118">Flut</tspan></text></g></g><path
       d="m 150.17822,192.35162 h 23.26712 v -0.66131 h -23.26712 z"
       style="fill:#000000;fill-opacity:1;fill-rule:nonzero;stroke:none"
       id="path122" /><g
       id="g124"><g
         id="g126"
         clip-path="url(#clipPath130)"><text
           transform="matrix(1,0,0,-1,150.17821,193.46993)"
           style="font-variant:normal;font-weight:normal;font-stretch:normal;font-size:11.1008px;font-family:'Palatino Linotype';-inkscape-font-specification:PalatinoLinotype-Roman;writing-mode:lr-tb;fill:#000000;fill-opacity:1;fill-rule:nonzero;stroke:none"
           id="text134"><tspan
             x="0 6.7825704 11.167375 17.949945"
             y="0"
             id="tspan132">Erde</tspan></text></g></g><g
       id="g136"><g
         id="g138"
         clip-path="url(#clipPath142)" /></g><g
       id="g144"><g
         id="g146"
         clip-path="url(#clipPath150)"><text
           transform="matrix(1,0,0,-1,176.73743,193.46993)"
           style="font-style:italic;font-variant:normal;font-weight:normal;font-stretch:normal;font-size:11.0078px;font-family:'Palatino Linotype';-inkscape-font-specification:PalatinoLinotype-Italic;writing-mode:lr-tb;fill:#000000;fill-opacity:1;fill-rule:nonzero;stroke:none"
           id="text154"><tspan
             x="0"
             y="0"
             id="tspan152">m</tspan></text></g></g><g
       id="g156"><g
         id="g158"
         clip-path="url(#clipPath162)"><text
           transform="matrix(1,0,0,-1,185.52573,188.92267)"
           style="font-style:italic;font-variant:normal;font-weight:normal;font-stretch:normal;font-size:6.6047px;font-family:'Palatino Linotype';-inkscape-font-specification:PalatinoLinotype-Italic;writing-mode:lr-tb;fill:#000000;fill-opacity:1;fill-rule:nonzero;stroke:none"
           id="text166"><tspan
             x="0"
             y="0"
             id="tspan164">E</tspan></text></g></g><g
       id="g168"><g
         id="g170"
         clip-path="url(#clipPath174)"><text
           transform="matrix(1,0,0,-1,107.90359,154.55666)"
           style="font-style:italic;font-variant:normal;font-weight:normal;font-stretch:normal;font-size:11.0078px;font-family:'Palatino Linotype';-inkscape-font-specification:PalatinoLinotype-Italic;writing-mode:lr-tb;fill:#000000;fill-opacity:1;fill-rule:nonzero;stroke:none"
           id="text178"><tspan
             x="0"
             y="0"
             id="tspan176">F</tspan></text></g></g><g
       id="g180"><g
         id="g182"
         clip-path="url(#clipPath186)"><text
           transform="matrix(1,0,0,-1,79.45373,138.37322)"
           style="font-style:italic;font-variant:normal;font-weight:normal;font-stretch:normal;font-size:11.0078px;font-family:'Palatino Linotype';-inkscape-font-specification:PalatinoLinotype-Italic;writing-mode:lr-tb;fill:#000000;fill-opacity:1;fill-rule:nonzero;stroke:none"
           id="text190"><tspan
             x="0"
             y="0"
             id="tspan188">Z</tspan></text></g></g><g
       id="g192"><g
         id="g194"
         clip-path="url(#clipPath198)"><text
           transform="matrix(1,0,0,-1,113.64957,40.99031)"
           style="font-style:italic;font-variant:normal;font-weight:normal;font-stretch:normal;font-size:11.0078px;font-family:'Palatino Linotype';-inkscape-font-specification:PalatinoLinotype-Italic;writing-mode:lr-tb;fill:#000000;fill-opacity:1;fill-rule:nonzero;stroke:none"
           id="text202"><tspan
             x="0"
             y="0"
             id="tspan200">r</tspan></text></g></g><g
       id="g204"><g
         id="g206"
         clip-path="url(#clipPath210)"><text
           transform="matrix(1,0,0,-1,118.12218,36.44307)"
           style="font-style:italic;font-variant:normal;font-weight:normal;font-stretch:normal;font-size:6.6047px;font-family:'Palatino Linotype';-inkscape-font-specification:PalatinoLinotype-Italic;writing-mode:lr-tb;fill:#000000;fill-opacity:1;fill-rule:nonzero;stroke:none"
           id="text214"><tspan
             x="0"
             y="0"
             id="tspan212">2</tspan></text></g></g><path
       d="m 369.57977,192.35162 h 29.80554 v -0.66131 h -29.80554 z"
       style="fill:#000000;fill-opacity:1;fill-rule:nonzero;stroke:none"
       id="path216" /><g
       id="g218"><g
         id="g220"
         clip-path="url(#clipPath224)"><text
           transform="matrix(1,0,0,-1,369.57978,193.46993)"
           style="font-variant:normal;font-weight:normal;font-stretch:normal;font-size:11.1008px;font-family:'Palatino Linotype';-inkscape-font-specification:PalatinoLinotype-Roman;writing-mode:lr-tb;fill:#000000;fill-opacity:1;fill-rule:nonzero;stroke:none"
           id="text228"><tspan
             x="0 10.501328 16.562349 23.022997"
             y="0"
             id="tspan226">Mond</tspan></text></g></g><g
       id="g230"><g
         id="g232"
         clip-path="url(#clipPath236)" /></g><g
       id="g238"><g
         id="g240"
         clip-path="url(#clipPath244)"><text
           transform="matrix(1,0,0,-1,402.80645,193.46993)"
           style="font-style:italic;font-variant:normal;font-weight:normal;font-stretch:normal;font-size:11.0078px;font-family:'Palatino Linotype';-inkscape-font-specification:PalatinoLinotype-Italic;writing-mode:lr-tb;fill:#000000;fill-opacity:1;fill-rule:nonzero;stroke:none"
           id="text248"><tspan
             x="0"
             y="0"
             id="tspan246">m</tspan></text></g></g><g
       id="g250"><g
         id="g252"
         clip-path="url(#clipPath256)"><text
           transform="matrix(1,0,0,-1,411.59474,188.92267)"
           style="font-style:italic;font-variant:normal;font-weight:normal;font-stretch:normal;font-size:6.6047px;font-family:'Palatino Linotype';-inkscape-font-specification:PalatinoLinotype-Italic;writing-mode:lr-tb;fill:#000000;fill-opacity:1;fill-rule:nonzero;stroke:none"
           id="text260"><tspan
             x="0"
             y="0"
             id="tspan258">M</tspan></text></g></g><g
       id="g262"><g
         id="g264"
         clip-path="url(#clipPath268)"><text
           transform="matrix(1,0,0,-1,335.28379,154.55666)"
           style="font-style:italic;font-variant:normal;font-weight:normal;font-stretch:normal;font-size:11.0078px;font-family:'Palatino Linotype';-inkscape-font-specification:PalatinoLinotype-Italic;writing-mode:lr-tb;fill:#000000;fill-opacity:1;fill-rule:nonzero;stroke:none"
           id="text272"><tspan
             x="0"
             y="0"
             id="tspan270">F</tspan></text></g></g><g
       id="g274"><g
         id="g276"
         clip-path="url(#clipPath280)"><text
           transform="matrix(1,0,0,-1,362.55255,138.37322)"
           style="font-style:italic;font-variant:normal;font-weight:normal;font-stretch:normal;font-size:11.0078px;font-family:'Palatino Linotype';-inkscape-font-specification:PalatinoLinotype-Italic;writing-mode:lr-tb;fill:#000000;fill-opacity:1;fill-rule:nonzero;stroke:none"
           id="text284"><tspan
             x="0"
             y="0"
             id="tspan282">Z</tspan></text></g></g><g
       id="g286"><g
         id="g288"
         clip-path="url(#clipPath292)"><text
           transform="matrix(1,0,0,-1,237.80705,40.99031)"
           style="font-style:italic;font-variant:normal;font-weight:normal;font-stretch:normal;font-size:11.0078px;font-family:'Palatino Linotype';-inkscape-font-specification:PalatinoLinotype-Italic;writing-mode:lr-tb;fill:#000000;fill-opacity:1;fill-rule:nonzero;stroke:none"
           id="text296"><tspan
             x="0"
             y="0"
             id="tspan294">r</tspan></text></g></g><g
       id="g298"><g
         id="g300"
         clip-path="url(#clipPath304)"><text
           transform="matrix(1,0,0,-1,242.27966,36.44307)"
           style="font-style:italic;font-variant:normal;font-weight:normal;font-stretch:normal;font-size:6.6047px;font-family:'Palatino Linotype';-inkscape-font-specification:PalatinoLinotype-Italic;writing-mode:lr-tb;fill:#000000;fill-opacity:1;fill-rule:nonzero;stroke:none"
           id="text308"><tspan
             x="0"
             y="0"
             id="tspan306">1</tspan></text></g></g><g
       id="g310"><g
         id="g312"
         clip-path="url(#clipPath316)"><text
           transform="matrix(1,0,0,-1,220.39976,16.77491)"
           style="font-style:italic;font-variant:normal;font-weight:normal;font-stretch:normal;font-size:11.0078px;font-family:'Palatino Linotype';-inkscape-font-specification:PalatinoLinotype-Italic;writing-mode:lr-tb;fill:#000000;fill-opacity:1;fill-rule:nonzero;stroke:none"
           id="text320"><tspan
             x="0"
             y="0"
             id="tspan318">r</tspan></text></g></g><g
       id="g322"><g
         id="g324"
         clip-path="url(#clipPath328)"><text
           transform="matrix(1,0,0,-1,224.87236,12.22767)"
           style="font-style:italic;font-variant:normal;font-weight:normal;font-stretch:normal;font-size:6.6047px;font-family:'Palatino Linotype';-inkscape-font-specification:PalatinoLinotype-Italic;writing-mode:lr-tb;fill:#000000;fill-opacity:1;fill-rule:nonzero;stroke:none"
           id="text332"><tspan
             x="0 3.30235 5.8715782"
             y="0"
             id="tspan330">ges</tspan></text></g></g><path
       d="m 96.86928,34.58479 2.97638,0.42519 v -0.85039 l -2.97638,0.4252 m 37.35966,0 -2.97638,0.42519 v -0.85039 l 2.97638,0.4252 2.97638,0.42519 v -0.85039 l -2.97638,0.4252 m 217.75846,0 -2.97638,0.42519 v -0.85039 l 2.97638,0.4252"
       style="fill:none;stroke:#000000;stroke-width:0.56693;stroke-linecap:round;stroke-linejoin:round;stroke-miterlimit:10;stroke-dasharray:none;stroke-opacity:1"
       id="path334" /><path
       d="m 96.86928,34.58479 v 2.12598 m 0,-2.12598 V 32.4588 m 37.35966,2.12599 v 2.12598 m 0,-2.12598 V 32.4588 m 0,2.12599 v 2.12598 m 0,-2.12598 V 32.4588 m 217.75846,2.12599 v 2.12598 m 0,-2.12598 V 32.4588 M 96.86928,34.58479 V 45.92337 M 134.22894,34.58479 V 45.92337 M 351.9874,34.58479 V 45.92337 M 96.86928,34.58479 v 0 m 255.11812,0 v 0 m -255.11812,0 h 37.35966 217.75846"
       style="fill:none;stroke:#000000;stroke-width:0.28346;stroke-linecap:round;stroke-linejoin:round;stroke-miterlimit:10;stroke-dasharray:none;stroke-opacity:1"
       id="path336" /><path
       d="m 96.86928,9.07297 2.97638,0.4252 V 8.64778 l -2.97638,0.42519 m 255.11812,0 -2.97638,0.4252 V 8.64778 l 2.97638,0.42519"
       style="fill:none;stroke:#000000;stroke-width:0.56693;stroke-linecap:round;stroke-linejoin:round;stroke-miterlimit:10;stroke-dasharray:none;stroke-opacity:1"
       id="path338" /><path
       d="m 96.86928,9.07297 v 2.12599 m 0,-2.12599 V 6.94699 M 351.9874,9.07297 v 2.12599 m 0,-2.12599 V 6.94699 M 96.86928,9.07297 V 37.41943 M 351.9874,9.07297 V 37.41943 M 96.86928,9.07297 v 0 m 255.11812,0 v 0 m -255.11812,0 H 351.9874"
       style="fill:none;stroke:#000000;stroke-width:0.28346;stroke-linecap:round;stroke-linejoin:round;stroke-miterlimit:10;stroke-dasharray:none;stroke-opacity:1"
       id="path340" /></g></svg>
