<?xml version="1.0" encoding="UTF-8" standalone="no"?>
<svg
   xmlns:dc="http://purl.org/dc/elements/1.1/"
   xmlns:cc="http://creativecommons.org/ns#"
   xmlns:rdf="http://www.w3.org/1999/02/22-rdf-syntax-ns#"
   xmlns:svg="http://www.w3.org/2000/svg"
   xmlns="http://www.w3.org/2000/svg"
   version="1.1"
   id="svg2"
   xml:space="preserve"
   width="264.56668"
   height="170.07867"
   viewBox="0 0 264.56668 170.07867"><metadata
     id="metadata8"><rdf:RDF><cc:Work
         rdf:about=""><dc:format>image/svg+xml</dc:format><dc:type
           rdf:resource="http://purl.org/dc/dcmitype/StillImage" /></cc:Work></rdf:RDF></metadata><defs
     id="defs6"><clipPath
       clipPathUnits="userSpaceOnUse"
       id="clipPath56"><path
         d="M -0.00198,-0.00128 V 127.56033 H 198.42719 V -0.00128 H -0.00198"
         clip-rule="evenodd"
         id="path54" /></clipPath><clipPath
       clipPathUnits="userSpaceOnUse"
       id="clipPath68"><path
         d="M -0.00198,-0.00128 V 127.56033 H 198.42719 V -0.00128 H -0.00198"
         clip-rule="evenodd"
         id="path66" /></clipPath><clipPath
       clipPathUnits="userSpaceOnUse"
       id="clipPath80"><path
         d="M -0.00198,-0.00128 V 127.56033 H 198.42719 V -0.00128 H -0.00198"
         clip-rule="evenodd"
         id="path78" /></clipPath><clipPath
       clipPathUnits="userSpaceOnUse"
       id="clipPath92"><path
         d="M -0.00198,-0.00128 V 127.56033 H 198.42719 V -0.00128 H -0.00198"
         clip-rule="evenodd"
         id="path90" /></clipPath><clipPath
       clipPathUnits="userSpaceOnUse"
       id="clipPath104"><path
         d="M -0.00198,-0.00128 V 127.56033 H 198.42719 V -0.00128 H -0.00198"
         clip-rule="evenodd"
         id="path102" /></clipPath><clipPath
       clipPathUnits="userSpaceOnUse"
       id="clipPath116"><path
         d="M -0.00198,-0.00128 V 127.56033 H 198.42719 V -0.00128 H -0.00198"
         clip-rule="evenodd"
         id="path114" /></clipPath><clipPath
       clipPathUnits="userSpaceOnUse"
       id="clipPath128"><path
         d="M -0.00198,-0.00128 V 127.56033 H 198.42719 V -0.00128 H -0.00198"
         clip-rule="evenodd"
         id="path126" /></clipPath><clipPath
       clipPathUnits="userSpaceOnUse"
       id="clipPath140"><path
         d="M -0.00198,-0.00128 V 127.56033 H 198.42719 V -0.00128 H -0.00198"
         clip-rule="evenodd"
         id="path138" /></clipPath><clipPath
       clipPathUnits="userSpaceOnUse"
       id="clipPath152"><path
         d="M -0.00198,-0.00128 V 127.56033 H 198.42719 V -0.00128 H -0.00198"
         clip-rule="evenodd"
         id="path150" /></clipPath><clipPath
       clipPathUnits="userSpaceOnUse"
       id="clipPath164"><path
         d="M -0.00198,-0.00128 V 127.56033 H 198.42719 V -0.00128 H -0.00198"
         clip-rule="evenodd"
         id="path162" /></clipPath><clipPath
       clipPathUnits="userSpaceOnUse"
       id="clipPath176"><path
         d="M -0.00198,-0.00128 V 127.56033 H 198.42719 V -0.00128 H -0.00198"
         clip-rule="evenodd"
         id="path174" /></clipPath><clipPath
       clipPathUnits="userSpaceOnUse"
       id="clipPath188"><path
         d="M -0.00198,-0.00128 V 127.56033 H 198.42719 V -0.00128 H -0.00198"
         clip-rule="evenodd"
         id="path186" /></clipPath></defs><g
     id="g10"
     transform="matrix(1.3333333,0,0,-1.3333333,0,170.07867)"><path
       d="m 117.31425,40.39552 h 56.69292 v 34.01575 h -56.69292 z"
       style="fill:#dedede;fill-opacity:1;fill-rule:nonzero;stroke:none"
       id="path12" /><path
       d="m 23.87646,79.00674 2.20768,2.20768 m -2.20768,-22.25165 2.83465,2.83465 m -2.83465,-22.87861 2.83465,2.83464 m -0.02262,-20.06659 2.83466,2.83464 m 17.20932,-2.83464 2.83464,2.83464 m 17.20933,-2.83464 2.83464,2.83464 m 17.20934,-2.83464 2.83464,2.83464 m 17.20932,-2.83464 2.83466,2.83464 m 17.20932,-2.83464 2.83465,2.83464 m 17.20932,-2.83464 2.83466,2.83464 m 17.20932,-2.83464 2.83465,2.83464 m 17.20932,-2.83464 2.83463,2.83464 m -165.99845,44.46326 2.83465,2.83465 m -2.83465,-22.87863 2.83465,2.83466 m -2.83465,-22.87862 2.83465,2.83464 m 9.99937,-10.0446 2.83466,2.83464 m 17.20932,-2.83464 2.83464,2.83464 m 17.20933,-2.83464 2.83464,2.83464 m 17.20934,-2.83464 2.83464,2.83464 m 17.20932,-2.83464 2.83465,2.83464 m 17.20934,-2.83464 2.83462,2.83464 m 17.20935,-2.83464 2.83463,2.83464 m 17.20932,-2.83464 2.83466,2.83464"
       style="fill:none;stroke:#000000;stroke-width:0.3685;stroke-linecap:round;stroke-linejoin:round;stroke-miterlimit:10;stroke-dasharray:none;stroke-opacity:1"
       id="path14" /><path
       d="M 26.71111,81.21442 V 24.5215"
       style="fill:none;stroke:#000000;stroke-width:0.85039;stroke-linecap:round;stroke-linejoin:round;stroke-miterlimit:10;stroke-dasharray:none;stroke-opacity:1"
       id="path16" /><path
       d="m 133.18826,32.45851 c 0,4.38349 -3.55349,7.93701 -7.93699,7.93701 m 0,0 c -4.3835,0 -7.93702,-3.55352 -7.93702,-7.93701 m 0,0 c 0,-4.38348 3.55352,-7.93701 7.93702,-7.93701 m 0,0 c 4.3835,0 7.93699,3.55353 7.93699,7.93701"
       style="fill:none;stroke:#000000;stroke-width:0.28346;stroke-linecap:round;stroke-linejoin:round;stroke-miterlimit:10;stroke-dasharray:none;stroke-opacity:1"
       id="path18" /><path
       d="M 63.45598,68.74197 V 46.06482 H 91.80244 M 77.62921,68.74197 H 63.45598 m 14.17323,0 0.76721,2.1538 0.74378,1.85919 0.69696,1.27003 0.32359,0.32203 0.3031,0.06425 0.25943,-0.19077 0.24108,-0.40914 0.43351,-1.34551 0.71648,-3.90364 0.5999,-3.81377 0.28776,-1.23314 0.14638,-0.33612 0.15012,-0.10649 0.15512,0.14432 0.16002,0.37306 0.3331,1.3008 0.70652,3.89921 0.73781,3.87517 0.3722,1.27072 0.18544,0.35352 0.18443,0.12178 0.1831,-0.13187 0.18181,-0.36337 0.36009,-1.28876 0.70939,-3.89795 0.70083,-3.89163 0.34944,-1.28085 0.17487,-0.35823 0.17511,-0.12592 0.17544,0.12845 0.17579,0.36069 0.35246,1.28535 0.70795,3.89733 0.7108,3.89605 0.35601,1.28379 0.17809,0.35966 0.17811,0.12726 0.17811,-0.12726 0.17808,-0.35966 0.35603,-1.28379 0.71079,-3.89605 0.70795,-3.89733 0.35247,-1.28535 0.17577,-0.36069 0.17544,-0.12845 0.17511,0.12592 0.17487,0.35823"
       style="fill:none;stroke:#000000;stroke-width:0.28346;stroke-linecap:round;stroke-linejoin:round;stroke-miterlimit:10;stroke-dasharray:none;stroke-opacity:1"
       id="path20" /><path
       d="m 94.98706,63.55684 0.34944,1.28085 0.70085,3.89163 0.70937,3.89795 0.36011,1.28876 0.18179,0.36337 0.18311,0.13187 0.18444,-0.12178 0.18544,-0.35352 0.3722,-1.27072 0.7378,-3.87517 0.70653,-3.89921 0.3331,-1.3008 0.16002,-0.37306 0.15512,-0.14432 0.15012,0.10649 0.14636,0.33612 0.28778,1.23314 0.5999,3.81377 0.71648,3.90364 0.4335,1.34551 0.24109,0.40914 0.25941,0.19077 0.3031,-0.06425 0.32361,-0.32203 0.69695,-1.27003 0.74379,-1.85919 0.76719,-2.1538 h 11.33859 M 91.80244,48.89946 v -5.6693 M 84.9993,51.7341 H 96.33788 V 40.39552 H 84.9993 m 11.33858,5.6693 h 20.97637"
       style="fill:none;stroke:#000000;stroke-width:0.28346;stroke-linecap:round;stroke-linejoin:round;stroke-miterlimit:10;stroke-dasharray:none;stroke-opacity:1"
       id="path22" /><path
       d="m 117.31425,40.39552 h 56.69292 V 74.41127 H 117.31425 V 40.39552"
       style="fill:none;stroke:#000000;stroke-width:0.85039;stroke-linecap:round;stroke-linejoin:round;stroke-miterlimit:10;stroke-dasharray:none;stroke-opacity:1"
       id="path24" /><path
       d="m 158.13315,32.45851 c 0,-4.38348 3.55353,-7.93701 7.93701,-7.93701 m 0,0 c 4.38348,0 7.93701,3.55353 7.93701,7.93701 m 0,0 c 0,4.38349 -3.55353,7.93701 -7.93701,7.93701 m 0,0 c -4.38348,0 -7.93701,-3.55352 -7.93701,-7.93701"
       style="fill:none;stroke:#000000;stroke-width:0.28346;stroke-linecap:round;stroke-linejoin:round;stroke-miterlimit:10;stroke-dasharray:none;stroke-opacity:1"
       id="path26" /><path
       d="m 26.71111,57.4034 h 36.74487 m -4.96063,0 h -0.35433 m 5.31496,0 v 0 l -4.96063,0.70866 v -1.41731 l 4.96063,0.70865"
       style="fill:none;stroke:#000000;stroke-width:0.28346;stroke-linecap:round;stroke-linejoin:round;stroke-miterlimit:10;stroke-dasharray:none;stroke-opacity:1"
       id="path28" /><path
       d="m 58.49535,56.69475 4.96063,0.70865 -4.96063,0.70866 z"
       style="fill:#000000;fill-opacity:1;fill-rule:nonzero;stroke:none"
       id="path30" /><path
       d="M 26.71111,24.5215 H 193.38828"
       style="fill:none;stroke:#000000;stroke-width:0.85039;stroke-linecap:round;stroke-linejoin:round;stroke-miterlimit:10;stroke-dasharray:none;stroke-opacity:1"
       id="path32" /><path
       d="m 14.22006,11.29305 h 28.34645 m -5.95276,0 h -0.42518 m 6.37794,0 v 0 l -5.95276,0.85038 v -1.70077 l 5.95276,0.85039"
       style="fill:none;stroke:#000000;stroke-width:0.28346;stroke-linecap:round;stroke-linejoin:round;stroke-miterlimit:10;stroke-dasharray:none;stroke-opacity:1"
       id="path34" /><path
       d="m 36.61375,10.44266 5.95276,0.85039 -5.95276,0.85038 z"
       style="fill:#000000;fill-opacity:1;fill-rule:nonzero;stroke:none"
       id="path36" /><path
       d="m 14.22006,11.29305 v 0"
       style="fill:none;stroke:#000000;stroke-width:0.28346;stroke-linecap:round;stroke-linejoin:round;stroke-miterlimit:10;stroke-dasharray:none;stroke-opacity:1"
       id="path38" /><path
       d="m 11.38541,11.29305 c 0,-1.56554 1.26912,-2.83466 2.83465,-2.83466 m 0,0 c 1.56552,0 2.83464,1.26912 2.83464,2.83466 m 0,0 c 0,1.56552 -1.26912,2.83464 -2.83464,2.83464 m 0,0 c -1.56553,0 -2.83465,-1.26912 -2.83465,-2.83464"
       style="fill:none;stroke:#000000;stroke-width:0.28346;stroke-linecap:round;stroke-linejoin:round;stroke-miterlimit:10;stroke-dasharray:none;stroke-opacity:1"
       id="path40" /><path
       d="M 14.22006,11.29305 V 39.6395 m 0,-5.95276 v -0.42519 m 0,6.37795 v 0 l -0.8504,-5.95276 h 1.70077 l -0.85037,5.95276"
       style="fill:none;stroke:#000000;stroke-width:0.28346;stroke-linecap:round;stroke-linejoin:round;stroke-miterlimit:10;stroke-dasharray:none;stroke-opacity:1"
       id="path42" /><path
       d="m 15.07043,33.68674 -0.85037,5.95276 -0.8504,-5.95276 z"
       style="fill:#000000;fill-opacity:1;fill-rule:nonzero;stroke:none"
       id="path44" /><path
       d="m 63.45598,104.04486 2.97638,0.4252 v -0.85039 l -2.97638,0.42519 m 36.8504,0 -2.97638,0.4252 v -0.85039 l 2.97638,0.42519 2.97638,0.4252 v -0.85039 l -2.97638,0.42519 m 17.00787,0 -2.97637,0.4252 v -0.85039 l 2.97637,0.42519"
       style="fill:none;stroke:#000000;stroke-width:0.56693;stroke-linecap:round;stroke-linejoin:round;stroke-miterlimit:10;stroke-dasharray:none;stroke-opacity:1"
       id="path46" /><path
       d="m 63.45598,104.04486 v 2.12599 m 0,-2.12599 v -2.12598 m 36.8504,2.12598 v 2.12599 m 0,-2.12599 v -2.12598 m 0,2.12598 v 2.12599 m 0,-2.12599 v -2.12598 m 17.00787,2.12598 v 2.12599 m 0,-2.12599 v -2.12598 m -53.85827,2.12598 V 92.70628 m 36.8504,11.33858 V 92.70628 m 17.00787,11.33858 V 92.70628 m -53.85827,11.33858 v 0 m 53.85827,0 v 0 m -53.85827,0 h 36.8504 17.00787"
       style="fill:none;stroke:#000000;stroke-width:0.28346;stroke-linecap:round;stroke-linejoin:round;stroke-miterlimit:10;stroke-dasharray:none;stroke-opacity:1"
       id="path48" /><g
       id="g50"><g
         id="g52"
         clip-path="url(#clipPath56)"><text
           transform="matrix(1,0,0,-1,140.65874,53.50575)"
           style="font-style:italic;font-variant:normal;font-weight:normal;font-stretch:normal;font-size:11.0078px;font-family:'Palatino Linotype';-inkscape-font-specification:PalatinoLinotype-Italic;writing-mode:lr-tb;fill:#000000;fill-opacity:1;fill-rule:nonzero;stroke:none"
           id="text60"><tspan
             x="0"
             y="0"
             id="tspan58">m</tspan></text></g></g><g
       id="g62"><g
         id="g64"
         clip-path="url(#clipPath68)"><text
           transform="matrix(1,0,0,-1,88.45463,78.61044)"
           style="font-style:italic;font-variant:normal;font-weight:normal;font-stretch:normal;font-size:11.0078px;font-family:'Palatino Linotype';-inkscape-font-specification:PalatinoLinotype-Italic;writing-mode:lr-tb;fill:#000000;fill-opacity:1;fill-rule:nonzero;stroke:none"
           id="text72"><tspan
             x="0"
             y="0"
             id="tspan70">k</tspan></text></g></g><g
       id="g74"><g
         id="g76"
         clip-path="url(#clipPath80)"><text
           transform="matrix(1,0,0,-1,89.03928,28.87351)"
           style="font-style:italic;font-variant:normal;font-weight:normal;font-stretch:normal;font-size:11.0078px;font-family:'Palatino Linotype';-inkscape-font-specification:PalatinoLinotype-Italic;writing-mode:lr-tb;fill:#000000;fill-opacity:1;fill-rule:nonzero;stroke:none"
           id="text84"><tspan
             x="0"
             y="0"
             id="tspan82">c</tspan></text></g></g><g
       id="g86"><g
         id="g88"
         clip-path="url(#clipPath92)"><text
           transform="matrix(1,0,0,-1,35.15095,64.79703)"
           style="font-style:italic;font-variant:normal;font-weight:normal;font-stretch:normal;font-size:11.0078px;font-family:'Palatino Linotype';-inkscape-font-specification:PalatinoLinotype-Italic;writing-mode:lr-tb;fill:#000000;fill-opacity:1;fill-rule:nonzero;stroke:none"
           id="text96"><tspan
             x="0"
             y="0"
             id="tspan94">x</tspan></text></g></g><g
       id="g98"><g
         id="g100"
         clip-path="url(#clipPath104)"><text
           transform="matrix(1,0,0,-1,40.99464,60.24979)"
           style="font-style:italic;font-variant:normal;font-weight:normal;font-stretch:normal;font-size:6.6047px;font-family:'Palatino Linotype';-inkscape-font-specification:PalatinoLinotype-Italic;writing-mode:lr-tb;fill:#000000;fill-opacity:1;fill-rule:nonzero;stroke:none"
           id="text108"><tspan
             x="0"
             y="0"
             id="tspan106">g</tspan></text></g></g><g
       id="g110"><g
         id="g112"
         clip-path="url(#clipPath116)"><text
           transform="matrix(1,0,0,-1,44.77286,64.79703)"
           style="font-style:italic;font-variant:normal;font-weight:normal;font-stretch:normal;font-size:11.0078px;font-family:'Palatino Linotype';-inkscape-font-specification:PalatinoLinotype-Italic;writing-mode:lr-tb;fill:#000000;fill-opacity:1;fill-rule:nonzero;stroke:none"
           id="text120"><tspan
             x="0 3.6656108 7.3312216"
             y="0"
             id="tspan118">(t)</tspan></text></g></g><g
       id="g122"><g
         id="g124"
         clip-path="url(#clipPath128)"><text
           transform="matrix(1,0,0,-1,101.02939,110.90956)"
           style="font-style:italic;font-variant:normal;font-weight:normal;font-stretch:normal;font-size:11.0078px;font-family:'Palatino Linotype';-inkscape-font-specification:PalatinoLinotype-Italic;writing-mode:lr-tb;fill:#000000;fill-opacity:1;fill-rule:nonzero;stroke:none"
           id="text132"><tspan
             x="0 5.5039201 9.1695309 12.835141"
             y="0"
             id="tspan130">x(t)</tspan></text></g></g><g
       id="g134"><g
         id="g136"
         clip-path="url(#clipPath140)"><text
           transform="matrix(1,0,0,-1,79.58057,110.71468)"
           style="font-style:italic;font-variant:normal;font-weight:normal;font-stretch:normal;font-size:11.0078px;font-family:'Palatino Linotype';-inkscape-font-specification:PalatinoLinotype-Italic;writing-mode:lr-tb;fill:#000000;fill-opacity:1;fill-rule:nonzero;stroke:none"
           id="text144"><tspan
             x="0"
             y="0"
             id="tspan142">l</tspan></text></g></g><g
       id="g146"><g
         id="g148"
         clip-path="url(#clipPath152)"><text
           transform="matrix(1,0,0,-1,82.87559,106.16743)"
           style="font-style:italic;font-variant:normal;font-weight:normal;font-stretch:normal;font-size:6.6047px;font-family:'Palatino Linotype';-inkscape-font-specification:PalatinoLinotype-Italic;writing-mode:lr-tb;fill:#000000;fill-opacity:1;fill-rule:nonzero;stroke:none"
           id="text156"><tspan
             x="0"
             y="0"
             id="tspan154">0</tspan></text></g></g><g
       id="g158"><g
         id="g160"
         clip-path="url(#clipPath164)"><text
           transform="matrix(1,0,0,-1,45.49367,9.06209)"
           style="font-style:italic;font-variant:normal;font-weight:normal;font-stretch:normal;font-size:11.0078px;font-family:'Palatino Linotype';-inkscape-font-specification:PalatinoLinotype-Italic;writing-mode:lr-tb;fill:#000000;fill-opacity:1;fill-rule:nonzero;stroke:none"
           id="text168"><tspan
             x="0"
             y="0"
             id="tspan166">x</tspan></text></g></g><g
       id="g170"><g
         id="g172"
         clip-path="url(#clipPath176)"><text
           transform="matrix(1,0,0,-1,11.60752,41.14531)"
           style="font-style:italic;font-variant:normal;font-weight:normal;font-stretch:normal;font-size:11.0078px;font-family:'Palatino Linotype';-inkscape-font-specification:PalatinoLinotype-Italic;writing-mode:lr-tb;fill:#000000;fill-opacity:1;fill-rule:nonzero;stroke:none"
           id="text180"><tspan
             x="0"
             y="0"
             id="tspan178">z</tspan></text></g></g><g
       id="g182"><g
         id="g184"
         clip-path="url(#clipPath188)"><text
           transform="matrix(1,0,0,-1,5.03692,13.70833)"
           style="font-style:italic;font-variant:normal;font-weight:normal;font-stretch:normal;font-size:11.0078px;font-family:'Palatino Linotype';-inkscape-font-specification:PalatinoLinotype-Italic;writing-mode:lr-tb;fill:#000000;fill-opacity:1;fill-rule:nonzero;stroke:none"
           id="text192"><tspan
             x="0"
             y="0"
             id="tspan190">y</tspan></text></g></g></g></svg>
