<?xml version="1.0" encoding="UTF-8" standalone="no"?>
<svg
   xmlns:dc="http://purl.org/dc/elements/1.1/"
   xmlns:cc="http://creativecommons.org/ns#"
   xmlns:rdf="http://www.w3.org/1999/02/22-rdf-syntax-ns#"
   xmlns:svg="http://www.w3.org/2000/svg"
   xmlns="http://www.w3.org/2000/svg"
   version="1.1"
   id="svg2"
   xml:space="preserve"
   width="566.92896"
   height="336"
   viewBox="0 0 566.92896 336"><metadata
     id="metadata8"><rdf:RDF><cc:Work
         rdf:about=""><dc:format>image/svg+xml</dc:format><dc:type
           rdf:resource="http://purl.org/dc/dcmitype/StillImage" /></cc:Work></rdf:RDF></metadata><defs
     id="defs6"><clipPath
       clipPathUnits="userSpaceOnUse"
       id="clipPath22"><path
         d="M 53.14959,50.4 H 382.67705 V 221.76 H 53.14959 Z"
         id="path20" /></clipPath><clipPath
       clipPathUnits="userSpaceOnUse"
       id="clipPath42"><path
         d="M 53.14959,50.4 H 382.67705 V 221.76 H 53.14959 Z"
         id="path40" /></clipPath><clipPath
       clipPathUnits="userSpaceOnUse"
       id="clipPath62"><path
         d="M 53.14959,50.4 H 382.67705 V 221.76 H 53.14959 Z"
         id="path60" /></clipPath><clipPath
       clipPathUnits="userSpaceOnUse"
       id="clipPath82"><path
         d="M 53.14959,50.4 H 382.67705 V 221.76 H 53.14959 Z"
         id="path80" /></clipPath><clipPath
       clipPathUnits="userSpaceOnUse"
       id="clipPath102"><path
         d="M 53.14959,50.4 H 382.67705 V 221.76 H 53.14959 Z"
         id="path100" /></clipPath><clipPath
       clipPathUnits="userSpaceOnUse"
       id="clipPath122"><path
         d="M 53.14959,50.4 H 382.67705 V 221.76 H 53.14959 Z"
         id="path120" /></clipPath><clipPath
       clipPathUnits="userSpaceOnUse"
       id="clipPath142"><path
         d="M 53.14959,50.4 H 382.67705 V 221.76 H 53.14959 Z"
         id="path140" /></clipPath><clipPath
       clipPathUnits="userSpaceOnUse"
       id="clipPath162"><path
         d="M 53.14959,50.4 H 382.67705 V 221.76 H 53.14959 Z"
         id="path160" /></clipPath><clipPath
       clipPathUnits="userSpaceOnUse"
       id="clipPath182"><path
         d="M 53.14959,50.4 H 382.67705 V 221.76 H 53.14959 Z"
         id="path180" /></clipPath><clipPath
       clipPathUnits="userSpaceOnUse"
       id="clipPath224"><path
         d="M 53.14959,50.4 H 382.67705 V 221.76 H 53.14959 Z"
         id="path222" /></clipPath><clipPath
       clipPathUnits="userSpaceOnUse"
       id="clipPath246"><path
         d="M -1021,-463 H 1794 V 1233 H -1021 Z"
         id="path244" /></clipPath><clipPath
       clipPathUnits="userSpaceOnUse"
       id="clipPath256"><path
         d="M 53.14959,50.4 H 382.67705 V 221.76 H 53.14959 Z"
         id="path254" /></clipPath><clipPath
       clipPathUnits="userSpaceOnUse"
       id="clipPath278"><path
         d="M -1021,-463 H 1794 V 1233 H -1021 Z"
         id="path276" /></clipPath><clipPath
       clipPathUnits="userSpaceOnUse"
       id="clipPath288"><path
         d="M 53.14959,50.4 H 382.67705 V 221.76 H 53.14959 Z"
         id="path286" /></clipPath><clipPath
       clipPathUnits="userSpaceOnUse"
       id="clipPath310"><path
         d="M -1021,-463 H 1794 V 1233 H -1021 Z"
         id="path308" /></clipPath><clipPath
       clipPathUnits="userSpaceOnUse"
       id="clipPath320"><path
         d="M 53.14959,50.4 H 382.67705 V 221.76 H 53.14959 Z"
         id="path318" /></clipPath><clipPath
       clipPathUnits="userSpaceOnUse"
       id="clipPath340"><path
         d="M 53.14959,50.4 H 382.67705 V 221.76 H 53.14959 Z"
         id="path338" /></clipPath><clipPath
       clipPathUnits="userSpaceOnUse"
       id="clipPath360"><path
         d="M 53.14959,50.4 H 382.67705 V 221.76 H 53.14959 Z"
         id="path358" /></clipPath><clipPath
       clipPathUnits="userSpaceOnUse"
       id="clipPath380"><path
         d="M 53.14959,50.4 H 382.67705 V 221.76 H 53.14959 Z"
         id="path378" /></clipPath><clipPath
       clipPathUnits="userSpaceOnUse"
       id="clipPath400"><path
         d="M 53.14959,50.4 H 382.67705 V 221.76 H 53.14959 Z"
         id="path398" /></clipPath><clipPath
       clipPathUnits="userSpaceOnUse"
       id="clipPath450"><path
         d="M 53.14959,50.4 H 382.67705 V 221.76 H 53.14959 Z"
         id="path448" /></clipPath><clipPath
       clipPathUnits="userSpaceOnUse"
       id="clipPath460"><path
         d="M 53.14959,50.4 H 382.67705 V 221.76 H 53.14959 Z"
         id="path458" /></clipPath><clipPath
       clipPathUnits="userSpaceOnUse"
       id="clipPath470"><path
         d="M 53.14959,50.4 H 382.67705 V 221.76 H 53.14959 Z"
         id="path468" /></clipPath></defs><g
     id="g10"
     transform="matrix(1.3333333,0,0,-1.3333333,0,336)"><path
       d="M 0,0 H 425.19672 V 252 H 0 Z"
       style="fill:#ffffff;fill-opacity:1;fill-rule:nonzero;stroke:none"
       id="path12" /><path
       d="M 53.14959,50.4 H 382.67705 V 221.76 H 53.14959 Z"
       style="fill:#ffffff;fill-opacity:1;fill-rule:nonzero;stroke:none"
       id="path14" /><g
       id="g16"><g
         id="g18"
         clip-path="url(#clipPath22)"><path
           d="M 53.14959,50.4 V 221.76"
           style="fill:none;stroke:#b0b0b0;stroke-width:0.8;stroke-linecap:square;stroke-linejoin:round;stroke-miterlimit:10;stroke-dasharray:none;stroke-opacity:1"
           id="path24" /></g></g><g
       id="g26"><path
         d="M 53.14959,50.4 V 46.9"
         style="fill:#000000;fill-opacity:1;fill-rule:nonzero;stroke:#000000;stroke-width:0.8;stroke-linecap:butt;stroke-linejoin:round;stroke-miterlimit:10;stroke-dasharray:none;stroke-opacity:1"
         id="path28" /><g
         id="g30"
         transform="translate(45.196465,35.80625)"><text
           transform="scale(1,-1)"
           style="font-variant:normal;font-weight:normal;font-size:10px;font-family:'DejaVu Sans';-inkscape-font-specification:DejaVuSans;writing-mode:lr-tb;fill:#000000;fill-opacity:1;fill-rule:nonzero;stroke:none"
           id="text34"><tspan
             x="0 6.3600001 9.54"
             y="0"
             id="tspan32">0.0</tspan></text></g></g><g
       id="g36"><g
         id="g38"
         clip-path="url(#clipPath42)"><path
           d="M 94.340522,50.4 V 221.76"
           style="fill:none;stroke:#b0b0b0;stroke-width:0.8;stroke-linecap:square;stroke-linejoin:round;stroke-miterlimit:10;stroke-dasharray:none;stroke-opacity:1"
           id="path44" /></g></g><g
       id="g46"><path
         d="M 94.340522,50.4 V 46.9"
         style="fill:#000000;fill-opacity:1;fill-rule:nonzero;stroke:#000000;stroke-width:0.8;stroke-linecap:butt;stroke-linejoin:round;stroke-miterlimit:10;stroke-dasharray:none;stroke-opacity:1"
         id="path48" /><g
         id="g50"
         transform="translate(86.387397,35.80625)"><text
           transform="scale(1,-1)"
           style="font-variant:normal;font-weight:normal;font-size:10px;font-family:'DejaVu Sans';-inkscape-font-specification:DejaVuSans;writing-mode:lr-tb;fill:#000000;fill-opacity:1;fill-rule:nonzero;stroke:none"
           id="text54"><tspan
             x="0 6.3600001 9.54"
             y="0"
             id="tspan52">0.5</tspan></text></g></g><g
       id="g56"><g
         id="g58"
         clip-path="url(#clipPath62)"><path
           d="M 135.53145,50.4 V 221.76"
           style="fill:none;stroke:#b0b0b0;stroke-width:0.8;stroke-linecap:square;stroke-linejoin:round;stroke-miterlimit:10;stroke-dasharray:none;stroke-opacity:1"
           id="path64" /></g></g><g
       id="g66"><path
         d="M 135.53145,50.4 V 46.9"
         style="fill:#000000;fill-opacity:1;fill-rule:nonzero;stroke:#000000;stroke-width:0.8;stroke-linecap:butt;stroke-linejoin:round;stroke-miterlimit:10;stroke-dasharray:none;stroke-opacity:1"
         id="path68" /><g
         id="g70"
         transform="translate(127.57833,35.80625)"><text
           transform="scale(1,-1)"
           style="font-variant:normal;font-weight:normal;font-size:10px;font-family:'DejaVu Sans';-inkscape-font-specification:DejaVuSans;writing-mode:lr-tb;fill:#000000;fill-opacity:1;fill-rule:nonzero;stroke:none"
           id="text74"><tspan
             x="0 6.3600001 9.54"
             y="0"
             id="tspan72">1.0</tspan></text></g></g><g
       id="g76"><g
         id="g78"
         clip-path="url(#clipPath82)"><path
           d="M 176.72239,50.4 V 221.76"
           style="fill:none;stroke:#b0b0b0;stroke-width:0.8;stroke-linecap:square;stroke-linejoin:round;stroke-miterlimit:10;stroke-dasharray:none;stroke-opacity:1"
           id="path84" /></g></g><g
       id="g86"><path
         d="M 176.72239,50.4 V 46.9"
         style="fill:#000000;fill-opacity:1;fill-rule:nonzero;stroke:#000000;stroke-width:0.8;stroke-linecap:butt;stroke-linejoin:round;stroke-miterlimit:10;stroke-dasharray:none;stroke-opacity:1"
         id="path88" /><g
         id="g90"
         transform="translate(168.76926,35.80625)"><text
           transform="scale(1,-1)"
           style="font-variant:normal;font-weight:normal;font-size:10px;font-family:'DejaVu Sans';-inkscape-font-specification:DejaVuSans;writing-mode:lr-tb;fill:#000000;fill-opacity:1;fill-rule:nonzero;stroke:none"
           id="text94"><tspan
             x="0 6.3600001 9.54"
             y="0"
             id="tspan92">1.5</tspan></text></g></g><g
       id="g96"><g
         id="g98"
         clip-path="url(#clipPath102)"><path
           d="M 217.91332,50.4 V 221.76"
           style="fill:none;stroke:#b0b0b0;stroke-width:0.8;stroke-linecap:square;stroke-linejoin:round;stroke-miterlimit:10;stroke-dasharray:none;stroke-opacity:1"
           id="path104" /></g></g><g
       id="g106"><path
         d="M 217.91332,50.4 V 46.9"
         style="fill:#000000;fill-opacity:1;fill-rule:nonzero;stroke:#000000;stroke-width:0.8;stroke-linecap:butt;stroke-linejoin:round;stroke-miterlimit:10;stroke-dasharray:none;stroke-opacity:1"
         id="path108" /><g
         id="g110"
         transform="translate(209.96019,35.80625)"><text
           transform="scale(1,-1)"
           style="font-variant:normal;font-weight:normal;font-size:10px;font-family:'DejaVu Sans';-inkscape-font-specification:DejaVuSans;writing-mode:lr-tb;fill:#000000;fill-opacity:1;fill-rule:nonzero;stroke:none"
           id="text114"><tspan
             x="0 6.3600001 9.54"
             y="0"
             id="tspan112">2.0</tspan></text></g></g><g
       id="g116"><g
         id="g118"
         clip-path="url(#clipPath122)"><path
           d="M 259.10425,50.4 V 221.76"
           style="fill:none;stroke:#b0b0b0;stroke-width:0.8;stroke-linecap:square;stroke-linejoin:round;stroke-miterlimit:10;stroke-dasharray:none;stroke-opacity:1"
           id="path124" /></g></g><g
       id="g126"><path
         d="M 259.10425,50.4 V 46.9"
         style="fill:#000000;fill-opacity:1;fill-rule:nonzero;stroke:#000000;stroke-width:0.8;stroke-linecap:butt;stroke-linejoin:round;stroke-miterlimit:10;stroke-dasharray:none;stroke-opacity:1"
         id="path128" /><g
         id="g130"
         transform="translate(251.15113,35.80625)"><text
           transform="scale(1,-1)"
           style="font-variant:normal;font-weight:normal;font-size:10px;font-family:'DejaVu Sans';-inkscape-font-specification:DejaVuSans;writing-mode:lr-tb;fill:#000000;fill-opacity:1;fill-rule:nonzero;stroke:none"
           id="text134"><tspan
             x="0 6.3600001 9.54"
             y="0"
             id="tspan132">2.5</tspan></text></g></g><g
       id="g136"><g
         id="g138"
         clip-path="url(#clipPath142)"><path
           d="M 300.29518,50.4 V 221.76"
           style="fill:none;stroke:#b0b0b0;stroke-width:0.8;stroke-linecap:square;stroke-linejoin:round;stroke-miterlimit:10;stroke-dasharray:none;stroke-opacity:1"
           id="path144" /></g></g><g
       id="g146"><path
         d="M 300.29518,50.4 V 46.9"
         style="fill:#000000;fill-opacity:1;fill-rule:nonzero;stroke:#000000;stroke-width:0.8;stroke-linecap:butt;stroke-linejoin:round;stroke-miterlimit:10;stroke-dasharray:none;stroke-opacity:1"
         id="path148" /><g
         id="g150"
         transform="translate(292.34206,35.80625)"><text
           transform="scale(1,-1)"
           style="font-variant:normal;font-weight:normal;font-size:10px;font-family:'DejaVu Sans';-inkscape-font-specification:DejaVuSans;writing-mode:lr-tb;fill:#000000;fill-opacity:1;fill-rule:nonzero;stroke:none"
           id="text154"><tspan
             x="0 6.3600001 9.54"
             y="0"
             id="tspan152">3.0</tspan></text></g></g><g
       id="g156"><g
         id="g158"
         clip-path="url(#clipPath162)"><path
           d="M 341.48612,50.4 V 221.76"
           style="fill:none;stroke:#b0b0b0;stroke-width:0.8;stroke-linecap:square;stroke-linejoin:round;stroke-miterlimit:10;stroke-dasharray:none;stroke-opacity:1"
           id="path164" /></g></g><g
       id="g166"><path
         d="M 341.48612,50.4 V 46.9"
         style="fill:#000000;fill-opacity:1;fill-rule:nonzero;stroke:#000000;stroke-width:0.8;stroke-linecap:butt;stroke-linejoin:round;stroke-miterlimit:10;stroke-dasharray:none;stroke-opacity:1"
         id="path168" /><g
         id="g170"
         transform="translate(333.53299,35.80625)"><text
           transform="scale(1,-1)"
           style="font-variant:normal;font-weight:normal;font-size:10px;font-family:'DejaVu Sans';-inkscape-font-specification:DejaVuSans;writing-mode:lr-tb;fill:#000000;fill-opacity:1;fill-rule:nonzero;stroke:none"
           id="text174"><tspan
             x="0 6.3600001 9.54"
             y="0"
             id="tspan172">3.5</tspan></text></g></g><g
       id="g176"><g
         id="g178"
         clip-path="url(#clipPath182)"><path
           d="M 382.67705,50.4 V 221.76"
           style="fill:none;stroke:#b0b0b0;stroke-width:0.8;stroke-linecap:square;stroke-linejoin:round;stroke-miterlimit:10;stroke-dasharray:none;stroke-opacity:1"
           id="path184" /></g></g><g
       id="g186"><path
         d="M 382.67705,50.4 V 46.9"
         style="fill:#000000;fill-opacity:1;fill-rule:nonzero;stroke:#000000;stroke-width:0.8;stroke-linecap:butt;stroke-linejoin:round;stroke-miterlimit:10;stroke-dasharray:none;stroke-opacity:1"
         id="path188" /><g
         id="g190"
         transform="translate(374.72392,35.80625)"><text
           transform="scale(1,-1)"
           style="font-variant:normal;font-weight:normal;font-size:10px;font-family:'DejaVu Sans';-inkscape-font-specification:DejaVuSans;writing-mode:lr-tb;fill:#000000;fill-opacity:1;fill-rule:nonzero;stroke:none"
           id="text194"><tspan
             x="0 6.3600001 9.54"
             y="0"
             id="tspan192">4.0</tspan></text></g><g
         id="g196"
         transform="translate(201.41332,21.80625)"><text
           transform="matrix(1,0,0,-1,0,0.40625)"
           style="font-style:italic;font-variant:normal;font-size:10px;font-family:'DejaVu Sans';-inkscape-font-specification:DejaVuSans-Oblique;writing-mode:lr-tb;fill:#000000;fill-opacity:1;fill-rule:nonzero;stroke:none"
           id="text200"><tspan
             x="0"
             y="0"
             id="tspan198">t</tspan></text><text
           transform="matrix(1,0,0,-1,3.9208984,0.40625)"
           style="font-variant:normal;font-weight:normal;font-size:10px;font-family:'DejaVu Sans';-inkscape-font-specification:DejaVuSans;writing-mode:lr-tb;fill:#000000;fill-opacity:1;fill-rule:nonzero;stroke:none"
           id="text204"><tspan
             x="0"
             y="0"
             id="tspan202">/</tspan></text><text
           transform="matrix(1,0,0,-1,7.2900391,0.40625)"
           style="font-style:italic;font-variant:normal;font-size:10px;font-family:'DejaVu Sans';-inkscape-font-specification:DejaVuSans-Oblique;writing-mode:lr-tb;fill:#000000;fill-opacity:1;fill-rule:nonzero;stroke:none"
           id="text208"><tspan
             x="0"
             y="0"
             id="tspan206">T</tspan></text><text
           transform="matrix(1,0,0,-1,13.398438,-1.234375)"
           style="font-style:italic;font-variant:normal;font-size:7px;font-family:'DejaVu Sans';-inkscape-font-specification:DejaVuSans-Oblique;writing-mode:lr-tb;fill:#000000;fill-opacity:1;fill-rule:nonzero;stroke:none"
           id="text212"><tspan
             x="0"
             y="0"
             id="tspan210">n</tspan></text><text
           transform="matrix(1,0,0,-1,21.287109,0.40625)"
           style="font-variant:normal;font-weight:normal;font-size:10px;font-family:'DejaVu Sans';-inkscape-font-specification:DejaVuSans;writing-mode:lr-tb;fill:#000000;fill-opacity:1;fill-rule:nonzero;stroke:none"
           id="text216"><tspan
             x="0 3.9013672 7.5097656"
             y="0"
             id="tspan214">[-]</tspan></text></g></g><g
       id="g218"><g
         id="g220"
         clip-path="url(#clipPath224)"><path
           d="M 53.14959,62.867266 H 382.67705"
           style="fill:none;stroke:#b0b0b0;stroke-width:0.8;stroke-linecap:square;stroke-linejoin:round;stroke-miterlimit:10;stroke-dasharray:none;stroke-opacity:1"
           id="path226" /></g></g><g
       id="g228"><path
         d="m 53.14959,62.867266 h -3.5"
         style="fill:#000000;fill-opacity:1;fill-rule:nonzero;stroke:#000000;stroke-width:0.8;stroke-linecap:butt;stroke-linejoin:round;stroke-miterlimit:10;stroke-dasharray:none;stroke-opacity:1"
         id="path230" /><g
         id="g232"
         transform="translate(15.508965,59.070391)"><text
           transform="matrix(1,0,0,-1,8.3789063,0)"
           style="font-variant:normal;font-weight:normal;font-size:10px;font-family:'DejaVu Sans';-inkscape-font-specification:DejaVuSans;writing-mode:lr-tb;fill:#000000;fill-opacity:1;fill-rule:nonzero;stroke:none"
           id="text236"><tspan
             x="0 6.3600001 9.54 15.9"
             y="0"
             id="tspan234">0.75</tspan></text><g
           id="g238"
           transform="scale(0.01)"><g
             id="g240"><g
               id="g242"
               clip-path="url(#clipPath246)"><path
                 d="M 106,355 H 732 V 272 H 106 Z"
                 style="fill:#000000;fill-opacity:1;fill-rule:nonzero;stroke:none"
                 id="path248" /></g></g></g></g></g><g
       id="g250"><g
         id="g252"
         clip-path="url(#clipPath256)"><path
           d="M 53.14959,84.326277 H 382.67705"
           style="fill:none;stroke:#b0b0b0;stroke-width:0.8;stroke-linecap:square;stroke-linejoin:round;stroke-miterlimit:10;stroke-dasharray:none;stroke-opacity:1"
           id="path258" /></g></g><g
       id="g260"><path
         d="m 53.14959,84.326277 h -3.5"
         style="fill:#000000;fill-opacity:1;fill-rule:nonzero;stroke:#000000;stroke-width:0.8;stroke-linecap:butt;stroke-linejoin:round;stroke-miterlimit:10;stroke-dasharray:none;stroke-opacity:1"
         id="path262" /><g
         id="g264"
         transform="translate(15.508965,80.529402)"><text
           transform="matrix(1,0,0,-1,8.3789063,0)"
           style="font-variant:normal;font-weight:normal;font-size:10px;font-family:'DejaVu Sans';-inkscape-font-specification:DejaVuSans;writing-mode:lr-tb;fill:#000000;fill-opacity:1;fill-rule:nonzero;stroke:none"
           id="text268"><tspan
             x="0 6.3600001 9.54 15.9"
             y="0"
             id="tspan266">0.50</tspan></text><g
           id="g270"
           transform="scale(0.01)"><g
             id="g272"><g
               id="g274"
               clip-path="url(#clipPath278)"><path
                 d="M 106,355 H 732 V 272 H 106 Z"
                 style="fill:#000000;fill-opacity:1;fill-rule:nonzero;stroke:none"
                 id="path280" /></g></g></g></g></g><g
       id="g282"><g
         id="g284"
         clip-path="url(#clipPath288)"><path
           d="M 53.14959,105.78529 H 382.67705"
           style="fill:none;stroke:#b0b0b0;stroke-width:0.8;stroke-linecap:square;stroke-linejoin:round;stroke-miterlimit:10;stroke-dasharray:none;stroke-opacity:1"
           id="path290" /></g></g><g
       id="g292"><path
         d="m 53.14959,105.78529 h -3.5"
         style="fill:#000000;fill-opacity:1;fill-rule:nonzero;stroke:#000000;stroke-width:0.8;stroke-linecap:butt;stroke-linejoin:round;stroke-miterlimit:10;stroke-dasharray:none;stroke-opacity:1"
         id="path294" /><g
         id="g296"
         transform="translate(15.508965,101.98841)"><text
           transform="matrix(1,0,0,-1,8.3789063,0)"
           style="font-variant:normal;font-weight:normal;font-size:10px;font-family:'DejaVu Sans';-inkscape-font-specification:DejaVuSans;writing-mode:lr-tb;fill:#000000;fill-opacity:1;fill-rule:nonzero;stroke:none"
           id="text300"><tspan
             x="0 6.3600001 9.54 15.9"
             y="0"
             id="tspan298">0.25</tspan></text><g
           id="g302"
           transform="scale(0.01)"><g
             id="g304"><g
               id="g306"
               clip-path="url(#clipPath310)"><path
                 d="M 106,355 H 732 V 272 H 106 Z"
                 style="fill:#000000;fill-opacity:1;fill-rule:nonzero;stroke:none"
                 id="path312" /></g></g></g></g></g><g
       id="g314"><g
         id="g316"
         clip-path="url(#clipPath320)"><path
           d="M 53.14959,127.2443 H 382.67705"
           style="fill:none;stroke:#b0b0b0;stroke-width:0.8;stroke-linecap:square;stroke-linejoin:round;stroke-miterlimit:10;stroke-dasharray:none;stroke-opacity:1"
           id="path322" /></g></g><g
       id="g324"><path
         d="m 53.14959,127.2443 h -3.5"
         style="fill:#000000;fill-opacity:1;fill-rule:nonzero;stroke:#000000;stroke-width:0.8;stroke-linecap:butt;stroke-linejoin:round;stroke-miterlimit:10;stroke-dasharray:none;stroke-opacity:1"
         id="path326" /><g
         id="g328"
         transform="translate(23.883965,123.44742)"><text
           transform="scale(1,-1)"
           style="font-variant:normal;font-weight:normal;font-size:10px;font-family:'DejaVu Sans';-inkscape-font-specification:DejaVuSans;writing-mode:lr-tb;fill:#000000;fill-opacity:1;fill-rule:nonzero;stroke:none"
           id="text332"><tspan
             x="0 6.3600001 9.54 15.9"
             y="0"
             id="tspan330">0.00</tspan></text></g></g><g
       id="g334"><g
         id="g336"
         clip-path="url(#clipPath340)"><path
           d="M 53.14959,148.70331 H 382.67705"
           style="fill:none;stroke:#b0b0b0;stroke-width:0.8;stroke-linecap:square;stroke-linejoin:round;stroke-miterlimit:10;stroke-dasharray:none;stroke-opacity:1"
           id="path342" /></g></g><g
       id="g344"><path
         d="m 53.14959,148.70331 h -3.5"
         style="fill:#000000;fill-opacity:1;fill-rule:nonzero;stroke:#000000;stroke-width:0.8;stroke-linecap:butt;stroke-linejoin:round;stroke-miterlimit:10;stroke-dasharray:none;stroke-opacity:1"
         id="path346" /><g
         id="g348"
         transform="translate(23.883965,144.90644)"><text
           transform="scale(1,-1)"
           style="font-variant:normal;font-weight:normal;font-size:10px;font-family:'DejaVu Sans';-inkscape-font-specification:DejaVuSans;writing-mode:lr-tb;fill:#000000;fill-opacity:1;fill-rule:nonzero;stroke:none"
           id="text352"><tspan
             x="0 6.3600001 9.54 15.9"
             y="0"
             id="tspan350">0.25</tspan></text></g></g><g
       id="g354"><g
         id="g356"
         clip-path="url(#clipPath360)"><path
           d="M 53.14959,170.16232 H 382.67705"
           style="fill:none;stroke:#b0b0b0;stroke-width:0.8;stroke-linecap:square;stroke-linejoin:round;stroke-miterlimit:10;stroke-dasharray:none;stroke-opacity:1"
           id="path362" /></g></g><g
       id="g364"><path
         d="m 53.14959,170.16232 h -3.5"
         style="fill:#000000;fill-opacity:1;fill-rule:nonzero;stroke:#000000;stroke-width:0.8;stroke-linecap:butt;stroke-linejoin:round;stroke-miterlimit:10;stroke-dasharray:none;stroke-opacity:1"
         id="path366" /><g
         id="g368"
         transform="translate(23.883965,166.36545)"><text
           transform="scale(1,-1)"
           style="font-variant:normal;font-weight:normal;font-size:10px;font-family:'DejaVu Sans';-inkscape-font-specification:DejaVuSans;writing-mode:lr-tb;fill:#000000;fill-opacity:1;fill-rule:nonzero;stroke:none"
           id="text372"><tspan
             x="0 6.3600001 9.54 15.9"
             y="0"
             id="tspan370">0.50</tspan></text></g></g><g
       id="g374"><g
         id="g376"
         clip-path="url(#clipPath380)"><path
           d="M 53.14959,191.62133 H 382.67705"
           style="fill:none;stroke:#b0b0b0;stroke-width:0.8;stroke-linecap:square;stroke-linejoin:round;stroke-miterlimit:10;stroke-dasharray:none;stroke-opacity:1"
           id="path382" /></g></g><g
       id="g384"><path
         d="m 53.14959,191.62133 h -3.5"
         style="fill:#000000;fill-opacity:1;fill-rule:nonzero;stroke:#000000;stroke-width:0.8;stroke-linecap:butt;stroke-linejoin:round;stroke-miterlimit:10;stroke-dasharray:none;stroke-opacity:1"
         id="path386" /><g
         id="g388"
         transform="translate(23.883965,187.82446)"><text
           transform="scale(1,-1)"
           style="font-variant:normal;font-weight:normal;font-size:10px;font-family:'DejaVu Sans';-inkscape-font-specification:DejaVuSans;writing-mode:lr-tb;fill:#000000;fill-opacity:1;fill-rule:nonzero;stroke:none"
           id="text392"><tspan
             x="0 6.3600001 9.54 15.9"
             y="0"
             id="tspan390">0.75</tspan></text></g></g><g
       id="g394"><g
         id="g396"
         clip-path="url(#clipPath400)"><path
           d="M 53.14959,213.08034 H 382.67705"
           style="fill:none;stroke:#b0b0b0;stroke-width:0.8;stroke-linecap:square;stroke-linejoin:round;stroke-miterlimit:10;stroke-dasharray:none;stroke-opacity:1"
           id="path402" /></g></g><g
       id="g404"><path
         d="m 53.14959,213.08034 h -3.5"
         style="fill:#000000;fill-opacity:1;fill-rule:nonzero;stroke:#000000;stroke-width:0.8;stroke-linecap:butt;stroke-linejoin:round;stroke-miterlimit:10;stroke-dasharray:none;stroke-opacity:1"
         id="path406" /><g
         id="g408"
         transform="translate(23.883965,209.28347)"><text
           transform="scale(1,-1)"
           style="font-variant:normal;font-weight:normal;font-size:10px;font-family:'DejaVu Sans';-inkscape-font-specification:DejaVuSans;writing-mode:lr-tb;fill:#000000;fill-opacity:1;fill-rule:nonzero;stroke:none"
           id="text412"><tspan
             x="0 6.3600001 9.54 15.9"
             y="0"
             id="tspan410">1.00</tspan></text></g><g
         id="g414"
         transform="rotate(90,-51.32458,60.75542)"><text
           transform="matrix(1,0,0,-1,0,0.40625)"
           style="font-style:italic;font-variant:normal;font-size:10px;font-family:'DejaVu Sans';-inkscape-font-specification:DejaVuSans-Oblique;writing-mode:lr-tb;fill:#000000;fill-opacity:1;fill-rule:nonzero;stroke:none"
           id="text418"><tspan
             x="0"
             y="0"
             id="tspan416">u</tspan></text><text
           transform="matrix(1,0,0,-1,6.3378906,0.40625)"
           style="font-variant:normal;font-weight:normal;font-size:10px;font-family:'DejaVu Sans';-inkscape-font-specification:DejaVuSans;writing-mode:lr-tb;fill:#000000;fill-opacity:1;fill-rule:nonzero;stroke:none"
           id="text422"><tspan
             x="0"
             y="0"
             id="tspan420">(</tspan></text><text
           transform="matrix(1,0,0,-1,10.239258,0.40625)"
           style="font-style:italic;font-variant:normal;font-size:10px;font-family:'DejaVu Sans';-inkscape-font-specification:DejaVuSans-Oblique;writing-mode:lr-tb;fill:#000000;fill-opacity:1;fill-rule:nonzero;stroke:none"
           id="text426"><tspan
             x="0"
             y="0"
             id="tspan424">t</tspan></text><text
           transform="matrix(1,0,0,-1,14.160156,0.40625)"
           style="font-variant:normal;font-weight:normal;font-size:10px;font-family:'DejaVu Sans';-inkscape-font-specification:DejaVuSans;writing-mode:lr-tb;fill:#000000;fill-opacity:1;fill-rule:nonzero;stroke:none"
           id="text430"><tspan
             x="0 3.9013672"
             y="0"
             id="tspan428">)/</tspan></text><text
           transform="matrix(1,0,0,-1,21.430664,0.40625)"
           style="font-style:italic;font-variant:normal;font-size:10px;font-family:'DejaVu Sans';-inkscape-font-specification:DejaVuSans-Oblique;writing-mode:lr-tb;fill:#000000;fill-opacity:1;fill-rule:nonzero;stroke:none"
           id="text434"><tspan
             x="0"
             y="0"
             id="tspan432">u</tspan></text><text
           transform="matrix(1,0,0,-1,27.768555,-1.234375)"
           style="font-variant:normal;font-weight:normal;font-size:7px;font-family:'DejaVu Sans';-inkscape-font-specification:DejaVuSans;writing-mode:lr-tb;fill:#000000;fill-opacity:1;fill-rule:nonzero;stroke:none"
           id="text438"><tspan
             x="0"
             y="0"
             id="tspan436">0</tspan></text><text
           transform="matrix(1,0,0,-1,35.674316,0.40625)"
           style="font-variant:normal;font-weight:normal;font-size:10px;font-family:'DejaVu Sans';-inkscape-font-specification:DejaVuSans;writing-mode:lr-tb;fill:#000000;fill-opacity:1;fill-rule:nonzero;stroke:none"
           id="text442"><tspan
             x="0 3.9013672 7.5097656"
             y="0"
             id="tspan440">[-]</tspan></text></g></g><g
       id="g444"><g
         id="g446"
         clip-path="url(#clipPath450)"><path
           d="m 53.14959,213.08034 0.824643,0.25822 0.824644,-0.083 0.824643,-0.42091 0.824643,-0.75419 0.824643,-1.08159 0.824644,-1.40186 0.824643,-1.7138 1.649287,-4.32438 1.649286,-5.44427 1.649287,-6.45933 1.649286,-7.35549 2.47393,-12.42458 2.47393,-13.66416 9.89572,-56.76072 2.473929,-12.227948 1.649287,-7.256619 1.649287,-6.420709 1.649286,-5.498819 1.649287,-4.506889 1.649286,-3.461679 0.824644,-1.326958 0.824643,-1.053533 0.824643,-0.778359 0.824643,-0.502532 0.824644,-0.227144 0.824643,0.04672 0.824643,0.318007 0.824644,0.585658 0.824643,0.848659 0.824643,1.106013 0.824646,1.356755 1.64928,3.434689 1.64929,4.335843 1.64929,5.15335 1.64928,5.875866 2.47393,9.937394 2.47393,10.941435 5.77251,27.11735 3.29857,14.91823 2.47393,10.20777 1.64929,6.14801 1.64928,5.51944 1.64929,4.81541 1.64929,4.04823 1.64928,3.23102 0.82465,1.29717 0.82464,1.08032 0.82464,0.86113 0.82465,0.64047 0.82464,0.41922 0.82464,0.19826 0.82464,-0.0215 0.82465,-0.23933 0.82464,-0.45427 0.82464,-0.66553 0.82465,-0.87233 0.82464,-1.07388 1.64929,-2.7277 1.64928,-3.45281 1.64929,-4.1112 1.64929,-4.69369 2.47393,-7.94785 2.47393,-8.76101 4.94786,-18.64065 3.29857,-12.18356 2.47393,-8.47391 2.47393,-7.58979 1.64929,-4.44694 1.64928,-3.884223 1.64929,-3.270487 1.64929,-2.616237 1.64928,-1.932428 0.82465,-0.703614 0.82464,-0.526672 0.82464,-0.349206 0.82465,-0.171923 0.82464,0.0045 0.82464,0.179326 0.82465,0.35193 0.82464,0.521635 0.82464,0.687798 1.64929,1.856827 1.64929,2.463836 1.64928,3.021654 1.64929,3.522404 1.64929,3.95924 2.47393,6.60431 3.29857,9.65008 7.42179,22.15256 2.47393,6.601 2.47393,5.82799 1.64928,3.36349 1.64929,2.89211 1.64929,2.38366 1.64928,1.84675 1.64929,1.29028 0.82464,0.43283 0.82465,0.29049 0.82464,0.14825 0.82464,0.007 0.82465,-0.13369 0.82464,-0.27229 0.82464,-0.40861 1.64929,-1.21445 1.64929,-1.71967 1.64928,-2.18912 1.64929,-2.61609 1.64929,-2.99464 2.47393,-5.0835 2.47393,-5.6167 4.94786,-11.9846 4.12321,-9.73262 2.47393,-5.30801 2.47393,-4.69188 1.64929,-2.71117 1.64929,-2.33425 1.64928,-1.92736 1.64929,-1.49739 1.64928,-1.051447 1.64929,-0.59684 0.82464,-0.127215 0.82465,-0.0136 1.64929,0.30946 1.64928,0.747025 1.64929,1.165247 1.64928,1.55793 1.64929,1.91933 1.64929,2.24438 2.47393,3.88567 2.47393,4.37149 4.12321,7.91181 4.94786,9.54216 2.47393,4.4016 2.47393,3.9552 1.64929,2.3252 1.64929,2.03795 1.64928,1.72379 1.64929,1.38811 1.64929,1.03654 1.64928,0.67489 1.64929,0.30896 1.64929,-0.0554 1.64928,-0.41255 1.64929,-0.757 1.64929,-1.08357 1.64928,-1.38747 1.64929,-1.66434 1.64929,-1.9103 2.47393,-3.25102 3.29857,-4.85514 9.07107,-13.90757 2.47393,-3.31332 2.47393,-2.88783 1.64929,-1.64355 1.64929,-1.39225 1.64928,-1.12354 1.64929,-0.84191 1.64929,-0.55202 1.64928,-0.25853 1.64929,0.0339 1.64929,0.32065 1.64928,0.59739 1.64929,0.85995 1.64929,1.10445 1.64928,1.32739 2.47393,2.35435 2.47393,2.7057 3.29858,3.97354 8.24643,10.14138 2.47393,2.66507 2.47393,2.32569 1.64929,1.32542 1.64928,1.12441 1.64929,0.9093 1.64928,0.68371 1.64929,0.45135 1.64929,0.21596 1.64928,-0.0187 1.64929,-0.24895 1.64929,-0.4713 1.64928,-0.68238 1.64929,-0.87909 2.47393,-1.64914 2.47393,-1.98414 3.29857,-3.03036 5.77251,-5.78308 4.12321,-3.98016 2.47393,-2.14359 2.47393,-1.87292 2.47393,-1.5437 1.64929,-0.8232 1.64929,-0.64638 1.64928,-0.46252 1.64929,-0.27464 1.95765,-0.0754 v 0"
           style="fill:none;stroke:#1f77b4;stroke-width:1.5;stroke-linecap:square;stroke-linejoin:round;stroke-miterlimit:10;stroke-dasharray:none;stroke-opacity:1"
           id="path452" /></g></g><g
       id="g454"><g
         id="g456"
         clip-path="url(#clipPath460)"><path
           d="m 53.14959,213.08034 0.824643,0.64402 0.824644,0.24655 0.824643,-0.10486 0.824643,-0.41433 0.824643,-0.68569 0.824644,-0.92242 1.649286,-2.43231 1.649287,-3.03921 2.47393,-5.31784 3.298573,-7.82408 5.772503,-13.81642 3.298573,-7.30099 2.47393,-5.04274 2.47393,-4.63503 2.47393,-4.21843 2.47393,-3.80806 2.473929,-3.41412 2.47393,-3.04307 2.47393,-2.69868 2.47393,-2.38278 2.47393,-2.09571 2.473929,-1.83694 2.47393,-1.6052 3.29857,-1.8234 3.29858,-1.51126 3.29857,-1.24778 3.29857,-1.02676 4.12322,-1.02787 4.12322,-0.7992 4.94786,-0.72489 5.7725,-0.60453 6.59714,-0.4663 8.24644,-0.36187 11.545,-0.26726 18.14216,-0.16116 38.75823,-0.061 207.29383,-0.004 v 0"
           style="fill:none;stroke:#ff0000;stroke-width:1.5;stroke-linecap:butt;stroke-linejoin:round;stroke-miterlimit:10;stroke-dasharray:5.55, 2.4;stroke-dashoffset:0;stroke-opacity:1"
           id="path462" /></g></g><g
       id="g464"><g
         id="g466"
         clip-path="url(#clipPath470)"><path
           d="m 53.14959,213.08034 0.824643,0.60283 0.824644,0.16652 0.824643,-0.1733 0.824643,-0.43695 0.824643,-0.64041 1.649287,-1.71128 1.649287,-2.0733 3.298573,-4.62153 6.597146,-9.34451 4.123216,-5.41644 4.123217,-5.01098 4.123216,-4.61602 4.123217,-4.24607 4.123216,-3.9039 4.123217,-3.58872 4.123216,-3.2988 4.123216,-3.03226 4.12322,-2.78722 4.94786,-3.04899 4.94786,-2.75577 4.94786,-2.49074 4.94786,-2.2512 5.7725,-2.35426 5.7725,-2.09228 5.7725,-1.85947 6.59715,-1.87312 6.59715,-1.63687 7.42179,-1.59603 7.42179,-1.37142 8.24643,-1.29866 9.07108,-1.19714 9.89571,-1.07618 10.72037,-0.94469 12.36965,-0.86151 14.01893,-0.74617 16.49287,-0.64356 19.79144,-0.53414 23.91465,-0.41423 31.33645,-0.31084 45.35538,-0.20932 52.26089,-0.09 v 0"
           style="fill:none;stroke:#008000;stroke-width:1.5;stroke-linecap:butt;stroke-linejoin:round;stroke-miterlimit:10;stroke-dasharray:1.5, 2.475;stroke-dashoffset:0;stroke-opacity:1"
           id="path472" /></g></g><g
       id="g474"><path
         d="M 53.14959,50.4 V 221.76"
         style="fill:none;stroke:#000000;stroke-width:0.8;stroke-linecap:square;stroke-linejoin:miter;stroke-miterlimit:10;stroke-dasharray:none;stroke-opacity:1"
         id="path476" /><path
         d="M 382.67705,50.4 V 221.76"
         style="fill:none;stroke:#000000;stroke-width:0.8;stroke-linecap:square;stroke-linejoin:miter;stroke-miterlimit:10;stroke-dasharray:none;stroke-opacity:1"
         id="path478" /><path
         d="M 53.14959,50.4 H 382.67705"
         style="fill:none;stroke:#000000;stroke-width:0.8;stroke-linecap:square;stroke-linejoin:miter;stroke-miterlimit:10;stroke-dasharray:none;stroke-opacity:1"
         id="path480" /><path
         d="M 53.14959,221.76 H 382.67705"
         style="fill:none;stroke:#000000;stroke-width:0.8;stroke-linecap:square;stroke-linejoin:miter;stroke-miterlimit:10;stroke-dasharray:none;stroke-opacity:1"
         id="path482" /><path
         d="m 217.55205,168.02562 h 158.125 c 1.33333,0 2,0.66667 2,2 V 214.76 c 0,1.33333 -0.66667,2 -2,2 h -158.125 c -1.33334,0 -2,-0.66667 -2,-2 v -44.73438 c 0,-1.33333 0.66666,-2 2,-2 z"
         style="fill:#ffffff;fill-opacity:0.8;fill-rule:nonzero;stroke:#cccccc;stroke-width:1;stroke-linecap:butt;stroke-linejoin:miter;stroke-miterlimit:10;stroke-dasharray:none;stroke-opacity:0.8"
         id="path484" /><path
         d="m 219.55205,208.66625 h 10 10"
         style="fill:none;stroke:#1f77b4;stroke-width:1.5;stroke-linecap:square;stroke-linejoin:round;stroke-miterlimit:10;stroke-dasharray:none;stroke-opacity:1"
         id="path486" /><g
         id="g488"
         transform="translate(247.55205,205.16625)"><text
           transform="scale(1,-1)"
           style="font-variant:normal;font-weight:normal;font-size:10px;font-family:'DejaVu Sans';-inkscape-font-specification:DejaVuSans;writing-mode:lr-tb;fill:#000000;fill-opacity:1;fill-rule:nonzero;stroke:none"
           id="text492"><tspan
             x="0 7.3200002 13.66 17.58 23.73 27.84 33.630001 37.740002 40.52 44.439999 47.220001 52.43 57.93 64.269997 70.419998 73.599998 81.300003 87.43 97.169998 103.52 107.04 113.38 119.72"
             y="0"
             id="tspan490">Unterkritische Dämpfung</tspan></text></g><path
         d="m 219.55205,193.99437 h 10 10"
         style="fill:none;stroke:#ff0000;stroke-width:1.5;stroke-linecap:butt;stroke-linejoin:round;stroke-miterlimit:10;stroke-dasharray:5.55, 2.4;stroke-dashoffset:0;stroke-opacity:1"
         id="path494" /><g
         id="g496"
         transform="translate(247.55205,190.49437)"><text
           transform="scale(1,-1)"
           style="font-variant:normal;font-weight:normal;font-size:10px;font-family:'DejaVu Sans';-inkscape-font-specification:DejaVuSans;writing-mode:lr-tb;fill:#000000;fill-opacity:1;fill-rule:nonzero;stroke:none"
           id="text500"><tspan
             x="0 6.5599999 10.67 13.45 17.370001 20.15 25.360001 30.860001 37.200001 43.349998 46.529999 54.23 60.360001 70.099998 76.449997 79.970001 86.309998 92.650002"
             y="0"
             id="tspan498">Kritische Dämpfung</tspan></text></g><path
         d="m 219.55205,177.60375 h 10 10"
         style="fill:none;stroke:#008000;stroke-width:1.5;stroke-linecap:butt;stroke-linejoin:round;stroke-miterlimit:10;stroke-dasharray:1.5, 2.475;stroke-dashoffset:0;stroke-opacity:1"
         id="path502" /><g
         id="g504"
         transform="translate(247.55205,174.10375)"><text
           transform="scale(1,-1)"
           style="font-variant:normal;font-weight:normal;font-size:10px;font-family:'DejaVu Sans';-inkscape-font-specification:DejaVuSans;writing-mode:lr-tb;fill:#000000;fill-opacity:1;fill-rule:nonzero;stroke:none"
           id="text508"><tspan
             x="0 7.3200002 13.67 19.82 23.93 29.719999 33.830002 36.610001 40.529999 43.310001 48.52 54.02 60.360001 66.510002 69.690002 77.389999 83.519997 93.260002 99.610001 103.13 109.47 115.81"
             y="0"
             id="tspan506">Überkritische Dämpfung</tspan></text></g></g></g></svg>
