<?xml version="1.0" encoding="UTF-8" standalone="no"?>
<svg
   xmlns:dc="http://purl.org/dc/elements/1.1/"
   xmlns:cc="http://creativecommons.org/ns#"
   xmlns:rdf="http://www.w3.org/1999/02/22-rdf-syntax-ns#"
   xmlns:svg="http://www.w3.org/2000/svg"
   xmlns="http://www.w3.org/2000/svg"
   version="1.1"
   id="svg2"
   xml:space="preserve"
   width="566.92896"
   height="336"
   viewBox="0 0 566.92896 336"><metadata
     id="metadata8"><rdf:RDF><cc:Work
         rdf:about=""><dc:format>image/svg+xml</dc:format><dc:type
           rdf:resource="http://purl.org/dc/dcmitype/StillImage" /></cc:Work></rdf:RDF></metadata><defs
     id="defs6"><clipPath
       clipPathUnits="userSpaceOnUse"
       id="clipPath22"><path
         d="M 53.14959,50.4 H 382.67705 V 221.76 H 53.14959 Z"
         id="path20" /></clipPath><clipPath
       clipPathUnits="userSpaceOnUse"
       id="clipPath42"><path
         d="M 53.14959,50.4 H 382.67705 V 221.76 H 53.14959 Z"
         id="path40" /></clipPath><clipPath
       clipPathUnits="userSpaceOnUse"
       id="clipPath62"><path
         d="M 53.14959,50.4 H 382.67705 V 221.76 H 53.14959 Z"
         id="path60" /></clipPath><clipPath
       clipPathUnits="userSpaceOnUse"
       id="clipPath82"><path
         d="M 53.14959,50.4 H 382.67705 V 221.76 H 53.14959 Z"
         id="path80" /></clipPath><clipPath
       clipPathUnits="userSpaceOnUse"
       id="clipPath102"><path
         d="M 53.14959,50.4 H 382.67705 V 221.76 H 53.14959 Z"
         id="path100" /></clipPath><clipPath
       clipPathUnits="userSpaceOnUse"
       id="clipPath122"><path
         d="M 53.14959,50.4 H 382.67705 V 221.76 H 53.14959 Z"
         id="path120" /></clipPath><clipPath
       clipPathUnits="userSpaceOnUse"
       id="clipPath148"><path
         d="M 53.14959,50.4 H 382.67705 V 221.76 H 53.14959 Z"
         id="path146" /></clipPath><clipPath
       clipPathUnits="userSpaceOnUse"
       id="clipPath170"><path
         d="M -1021,-463 H 1794 V 1233 H -1021 Z"
         id="path168" /></clipPath><clipPath
       clipPathUnits="userSpaceOnUse"
       id="clipPath180"><path
         d="M 53.14959,50.4 H 382.67705 V 221.76 H 53.14959 Z"
         id="path178" /></clipPath><clipPath
       clipPathUnits="userSpaceOnUse"
       id="clipPath200"><path
         d="M 53.14959,50.4 H 382.67705 V 221.76 H 53.14959 Z"
         id="path198" /></clipPath><clipPath
       clipPathUnits="userSpaceOnUse"
       id="clipPath220"><path
         d="M 53.14959,50.4 H 382.67705 V 221.76 H 53.14959 Z"
         id="path218" /></clipPath><clipPath
       clipPathUnits="userSpaceOnUse"
       id="clipPath246"><path
         d="M 53.14959,50.4 H 382.67705 V 221.76 H 53.14959 Z"
         id="path244" /></clipPath></defs><g
     id="g10"
     transform="matrix(1.3333333,0,0,-1.3333333,0,336)"><path
       d="M 0,0 H 425.19672 V 252 H 0 Z"
       style="fill:#ffffff;fill-opacity:1;fill-rule:nonzero;stroke:none"
       id="path12" /><path
       d="M 53.14959,50.4 H 382.67705 V 221.76 H 53.14959 Z"
       style="fill:#ffffff;fill-opacity:1;fill-rule:nonzero;stroke:none"
       id="path14" /><g
       id="g16"><g
         id="g18"
         clip-path="url(#clipPath22)"><path
           d="M 53.14959,50.4 V 221.76"
           style="fill:none;stroke:#b0b0b0;stroke-width:0.8;stroke-linecap:square;stroke-linejoin:round;stroke-miterlimit:10;stroke-dasharray:none;stroke-opacity:1"
           id="path24" /></g></g><g
       id="g26"><path
         d="M 53.14959,50.4 V 46.9"
         style="fill:#000000;fill-opacity:1;fill-rule:nonzero;stroke:#000000;stroke-width:0.8;stroke-linecap:butt;stroke-linejoin:round;stroke-miterlimit:10;stroke-dasharray:none;stroke-opacity:1"
         id="path28" /><g
         id="g30"
         transform="translate(49.969903,35.80625)"><text
           transform="scale(1,-1)"
           style="font-variant:normal;font-weight:normal;font-size:10px;font-family:'DejaVu Sans';-inkscape-font-specification:DejaVuSans;writing-mode:lr-tb;fill:#000000;fill-opacity:1;fill-rule:nonzero;stroke:none"
           id="text34"><tspan
             x="0"
             y="0"
             id="tspan32">0</tspan></text></g></g><g
       id="g36"><g
         id="g38"
         clip-path="url(#clipPath42)"><path
           d="M 119.05508,50.4 V 221.76"
           style="fill:none;stroke:#b0b0b0;stroke-width:0.8;stroke-linecap:square;stroke-linejoin:round;stroke-miterlimit:10;stroke-dasharray:none;stroke-opacity:1"
           id="path44" /></g></g><g
       id="g46"><path
         d="M 119.05508,50.4 V 46.9"
         style="fill:#000000;fill-opacity:1;fill-rule:nonzero;stroke:#000000;stroke-width:0.8;stroke-linecap:butt;stroke-linejoin:round;stroke-miterlimit:10;stroke-dasharray:none;stroke-opacity:1"
         id="path48" /><g
         id="g50"
         transform="translate(115.87539,35.80625)"><text
           transform="scale(1,-1)"
           style="font-variant:normal;font-weight:normal;font-size:10px;font-family:'DejaVu Sans';-inkscape-font-specification:DejaVuSans;writing-mode:lr-tb;fill:#000000;fill-opacity:1;fill-rule:nonzero;stroke:none"
           id="text54"><tspan
             x="0"
             y="0"
             id="tspan52">2</tspan></text></g></g><g
       id="g56"><g
         id="g58"
         clip-path="url(#clipPath62)"><path
           d="M 184.96057,50.4 V 221.76"
           style="fill:none;stroke:#b0b0b0;stroke-width:0.8;stroke-linecap:square;stroke-linejoin:round;stroke-miterlimit:10;stroke-dasharray:none;stroke-opacity:1"
           id="path64" /></g></g><g
       id="g66"><path
         d="M 184.96057,50.4 V 46.9"
         style="fill:#000000;fill-opacity:1;fill-rule:nonzero;stroke:#000000;stroke-width:0.8;stroke-linecap:butt;stroke-linejoin:round;stroke-miterlimit:10;stroke-dasharray:none;stroke-opacity:1"
         id="path68" /><g
         id="g70"
         transform="translate(181.78089,35.80625)"><text
           transform="scale(1,-1)"
           style="font-variant:normal;font-weight:normal;font-size:10px;font-family:'DejaVu Sans';-inkscape-font-specification:DejaVuSans;writing-mode:lr-tb;fill:#000000;fill-opacity:1;fill-rule:nonzero;stroke:none"
           id="text74"><tspan
             x="0"
             y="0"
             id="tspan72">4</tspan></text></g></g><g
       id="g76"><g
         id="g78"
         clip-path="url(#clipPath82)"><path
           d="M 250.86606,50.4 V 221.76"
           style="fill:none;stroke:#b0b0b0;stroke-width:0.8;stroke-linecap:square;stroke-linejoin:round;stroke-miterlimit:10;stroke-dasharray:none;stroke-opacity:1"
           id="path84" /></g></g><g
       id="g86"><path
         d="M 250.86606,50.4 V 46.9"
         style="fill:#000000;fill-opacity:1;fill-rule:nonzero;stroke:#000000;stroke-width:0.8;stroke-linecap:butt;stroke-linejoin:round;stroke-miterlimit:10;stroke-dasharray:none;stroke-opacity:1"
         id="path88" /><g
         id="g90"
         transform="translate(247.68638,35.80625)"><text
           transform="scale(1,-1)"
           style="font-variant:normal;font-weight:normal;font-size:10px;font-family:'DejaVu Sans';-inkscape-font-specification:DejaVuSans;writing-mode:lr-tb;fill:#000000;fill-opacity:1;fill-rule:nonzero;stroke:none"
           id="text94"><tspan
             x="0"
             y="0"
             id="tspan92">6</tspan></text></g></g><g
       id="g96"><g
         id="g98"
         clip-path="url(#clipPath102)"><path
           d="M 316.77156,50.4 V 221.76"
           style="fill:none;stroke:#b0b0b0;stroke-width:0.8;stroke-linecap:square;stroke-linejoin:round;stroke-miterlimit:10;stroke-dasharray:none;stroke-opacity:1"
           id="path104" /></g></g><g
       id="g106"><path
         d="M 316.77156,50.4 V 46.9"
         style="fill:#000000;fill-opacity:1;fill-rule:nonzero;stroke:#000000;stroke-width:0.8;stroke-linecap:butt;stroke-linejoin:round;stroke-miterlimit:10;stroke-dasharray:none;stroke-opacity:1"
         id="path108" /><g
         id="g110"
         transform="translate(313.59187,35.80625)"><text
           transform="scale(1,-1)"
           style="font-variant:normal;font-weight:normal;font-size:10px;font-family:'DejaVu Sans';-inkscape-font-specification:DejaVuSans;writing-mode:lr-tb;fill:#000000;fill-opacity:1;fill-rule:nonzero;stroke:none"
           id="text114"><tspan
             x="0"
             y="0"
             id="tspan112">8</tspan></text></g></g><g
       id="g116"><g
         id="g118"
         clip-path="url(#clipPath122)"><path
           d="M 382.67705,50.4 V 221.76"
           style="fill:none;stroke:#b0b0b0;stroke-width:0.8;stroke-linecap:square;stroke-linejoin:round;stroke-miterlimit:10;stroke-dasharray:none;stroke-opacity:1"
           id="path124" /></g></g><g
       id="g126"><path
         d="M 382.67705,50.4 V 46.9"
         style="fill:#000000;fill-opacity:1;fill-rule:nonzero;stroke:#000000;stroke-width:0.8;stroke-linecap:butt;stroke-linejoin:round;stroke-miterlimit:10;stroke-dasharray:none;stroke-opacity:1"
         id="path128" /><g
         id="g130"
         transform="translate(376.31767,35.80625)"><text
           transform="scale(1,-1)"
           style="font-variant:normal;font-weight:normal;font-size:10px;font-family:'DejaVu Sans';-inkscape-font-specification:DejaVuSans;writing-mode:lr-tb;fill:#000000;fill-opacity:1;fill-rule:nonzero;stroke:none"
           id="text134"><tspan
             x="0 6.3600001"
             y="0"
             id="tspan132">10</tspan></text></g><g
         id="g136"
         transform="translate(199.94457,22.134375)"><text
           transform="scale(1,-1)"
           style="font-variant:normal;font-weight:normal;font-size:10px;font-family:'DejaVu Sans';-inkscape-font-specification:DejaVuSans;writing-mode:lr-tb;fill:#000000;fill-opacity:1;fill-rule:nonzero;stroke:none"
           id="text140"><tspan
             x="0 6.8499999 13 15.78 19.700001 22.879999 26.780001 31.99"
             y="0"
             id="tspan138">Zeit [s]</tspan></text></g></g><g
       id="g142"><g
         id="g144"
         clip-path="url(#clipPath148)"><path
           d="M 53.14959,87.900956 H 382.67705"
           style="fill:none;stroke:#b0b0b0;stroke-width:0.8;stroke-linecap:square;stroke-linejoin:round;stroke-miterlimit:10;stroke-dasharray:none;stroke-opacity:1"
           id="path150" /></g></g><g
       id="g152"><path
         d="m 53.14959,87.900956 h -3.5"
         style="fill:#000000;fill-opacity:1;fill-rule:nonzero;stroke:#000000;stroke-width:0.8;stroke-linecap:butt;stroke-linejoin:round;stroke-miterlimit:10;stroke-dasharray:none;stroke-opacity:1"
         id="path154" /><g
         id="g156"
         transform="translate(25.05584,84.104081)"><text
           transform="matrix(1,0,0,-1,8.3789063,0)"
           style="font-variant:normal;font-weight:normal;font-size:10px;font-family:'DejaVu Sans';-inkscape-font-specification:DejaVuSans;writing-mode:lr-tb;fill:#000000;fill-opacity:1;fill-rule:nonzero;stroke:none"
           id="text160"><tspan
             x="0 6.3600001"
             y="0"
             id="tspan158">10</tspan></text><g
           id="g162"
           transform="scale(0.01)"><g
             id="g164"><g
               id="g166"
               clip-path="url(#clipPath170)"><path
                 d="M 106,355 H 732 V 272 H 106 Z"
                 style="fill:#000000;fill-opacity:1;fill-rule:nonzero;stroke:none"
                 id="path172" /></g></g></g></g></g><g
       id="g174"><g
         id="g176"
         clip-path="url(#clipPath180)"><path
           d="M 53.14959,129.92427 H 382.67705"
           style="fill:none;stroke:#b0b0b0;stroke-width:0.8;stroke-linecap:square;stroke-linejoin:round;stroke-miterlimit:10;stroke-dasharray:none;stroke-opacity:1"
           id="path182" /></g></g><g
       id="g184"><path
         d="m 53.14959,129.92427 h -3.5"
         style="fill:#000000;fill-opacity:1;fill-rule:nonzero;stroke:#000000;stroke-width:0.8;stroke-linecap:butt;stroke-linejoin:round;stroke-miterlimit:10;stroke-dasharray:none;stroke-opacity:1"
         id="path186" /><g
         id="g188"
         transform="translate(39.790215,126.1274)"><text
           transform="scale(1,-1)"
           style="font-variant:normal;font-weight:normal;font-size:10px;font-family:'DejaVu Sans';-inkscape-font-specification:DejaVuSans;writing-mode:lr-tb;fill:#000000;fill-opacity:1;fill-rule:nonzero;stroke:none"
           id="text192"><tspan
             x="0"
             y="0"
             id="tspan190">0</tspan></text></g></g><g
       id="g194"><g
         id="g196"
         clip-path="url(#clipPath200)"><path
           d="M 53.14959,171.94759 H 382.67705"
           style="fill:none;stroke:#b0b0b0;stroke-width:0.8;stroke-linecap:square;stroke-linejoin:round;stroke-miterlimit:10;stroke-dasharray:none;stroke-opacity:1"
           id="path202" /></g></g><g
       id="g204"><path
         d="m 53.14959,171.94759 h -3.5"
         style="fill:#000000;fill-opacity:1;fill-rule:nonzero;stroke:#000000;stroke-width:0.8;stroke-linecap:butt;stroke-linejoin:round;stroke-miterlimit:10;stroke-dasharray:none;stroke-opacity:1"
         id="path206" /><g
         id="g208"
         transform="translate(33.43084,168.15072)"><text
           transform="scale(1,-1)"
           style="font-variant:normal;font-weight:normal;font-size:10px;font-family:'DejaVu Sans';-inkscape-font-specification:DejaVuSans;writing-mode:lr-tb;fill:#000000;fill-opacity:1;fill-rule:nonzero;stroke:none"
           id="text212"><tspan
             x="0 6.3600001"
             y="0"
             id="tspan210">10</tspan></text></g></g><g
       id="g214"><g
         id="g216"
         clip-path="url(#clipPath220)"><path
           d="M 53.14959,213.97091 H 382.67705"
           style="fill:none;stroke:#b0b0b0;stroke-width:0.8;stroke-linecap:square;stroke-linejoin:round;stroke-miterlimit:10;stroke-dasharray:none;stroke-opacity:1"
           id="path222" /></g></g><g
       id="g224"><path
         d="m 53.14959,213.97091 h -3.5"
         style="fill:#000000;fill-opacity:1;fill-rule:nonzero;stroke:#000000;stroke-width:0.8;stroke-linecap:butt;stroke-linejoin:round;stroke-miterlimit:10;stroke-dasharray:none;stroke-opacity:1"
         id="path226" /><g
         id="g228"
         transform="translate(33.43084,210.17403)"><text
           transform="scale(1,-1)"
           style="font-variant:normal;font-weight:normal;font-size:10px;font-family:'DejaVu Sans';-inkscape-font-specification:DejaVuSans;writing-mode:lr-tb;fill:#000000;fill-opacity:1;fill-rule:nonzero;stroke:none"
           id="text232"><tspan
             x="0 6.3600001"
             y="0"
             id="tspan230">20</tspan></text></g><g
         id="g234"
         transform="rotate(90,-41.617549,60.595264)"><text
           transform="scale(1,-1)"
           style="font-variant:normal;font-weight:normal;font-size:10px;font-family:'DejaVu Sans';-inkscape-font-specification:DejaVuSans;writing-mode:lr-tb;fill:#000000;fill-opacity:1;fill-rule:nonzero;stroke:none"
           id="text238"><tspan
             x="0 6.0743752 12.224375 16.334375 21.544374 27.044374 33.384377 36.164375 42.314377 48.664375 55.004375 61.344376"
             y="0"
             id="tspan236">Verschiebung</tspan></text></g></g><g
       id="g240"><g
         id="g242"
         clip-path="url(#clipPath246)"><path
           d="m 53.14959,213.97091 0.329857,-0.37754 0.329858,-1.20726 0.329857,-2.01671 0.659715,-6.34161 0.659714,-9.14665 0.989572,-18.04235 1.319429,-29.31681 2.309002,-52.162839 0.989572,-17.590972 0.659714,-8.952976 0.659715,-6.358703 0.659714,-3.564368 0.329858,-0.703031 0.329857,0.01858 0.329857,0.732813 0.329858,1.432636 0.659714,4.873222 0.659715,7.334593 0.989572,14.854099 1.319429,24.660216 2.309001,44.95413 0.989572,15.55821 0.659715,8.08889 0.659715,5.92055 0.659714,3.56105 0.329858,0.86245 0.329857,0.24503 0.329857,-0.36868 0.329857,-0.97259 0.329858,-1.56081 0.659714,-4.7952 0.659715,-6.82253 0.989572,-13.33957 1.319429,-21.51475 2.309001,-37.95092 0.989572,-12.676235 0.659715,-6.39937 0.659715,-4.491257 0.329857,-1.483148 0.329857,-0.96019 0.329858,-0.432877 0.329857,0.0935 0.329857,0.613697 0.329858,1.122603 0.659714,3.702167 0.659715,5.482653 0.989572,10.995349 1.319429,18.111078 2.309001,32.7279 0.989572,11.22301 0.659715,5.79167 0.659714,4.19547 0.659715,2.46501 0.329857,0.561 0.329858,0.11034 0.329857,-0.33692 0.329857,-0.77639 0.659715,-2.81858 0.659715,-4.37856 0.989572,-9.03251 1.319429,-15.21353 2.638863,-31.7144 0.98957,-9.13108 0.65971,-4.571069 0.65972,-3.168054 0.32985,-1.025051 0.32986,-0.642496 0.32986,-0.257352 0.32986,0.12652 0.32985,0.505308 0.32986,0.87529 0.65971,2.80747 0.65972,4.095024 0.98957,8.13546 1.31943,13.29759 2.309,23.8212 0.98957,8.09284 0.65972,4.14438 0.65971,2.96974 0.65972,1.70092 0.32985,0.35943 0.32986,0.0306 0.32986,-0.29534 0.32986,-0.61504 0.65971,-2.14897 0.65972,-3.27801 0.98957,-6.6915 1.31943,-11.17877 2.63886,-23.081 0.98957,-6.57477 0.65971,-3.26286 0.65972,-2.23153 0.32985,-0.70608 0.32986,-0.4263 0.32986,-0.14506 0.32986,0.13482 0.32985,0.41057 0.32986,0.6795 0.65972,2.12545 0.65971,3.05625 0.98957,6.01688 1.31943,9.76076 2.309,17.33429 0.98957,5.83352 0.65972,2.96378 0.65971,2.09962 0.65972,1.16955 0.32986,0.2258 0.32985,-0.0141 0.32986,-0.25155 0.32986,-0.48407 0.65971,-1.63503 0.65972,-2.45195 0.98957,-4.95493 1.31943,-8.21175 2.309,-14.94091 0.98957,-5.16057 0.65972,-2.67873 0.65971,-1.95631 0.65972,-1.17084 0.32985,-0.27998 0.32986,-0.0747 0.32986,0.12935 0.32985,0.33005 0.65972,1.23916 0.65971,1.95444 0.98958,4.06634 1.31942,6.89376 2.63886,14.47945 0.98958,4.20334 0.65971,2.11814 0.65971,1.48258 0.65972,0.80098 0.32986,0.13812 0.32985,-0.0369 0.32986,-0.2098 0.65972,-0.92139 0.65971,-1.54629 0.65972,-2.09764 0.98957,-3.9703 1.64928,-7.84095 1.64929,-7.65125 0.98957,-3.72232 0.65972,-1.91773 0.65971,-1.38597 0.65972,-0.80994 0.32985,-0.18157 0.32986,-0.0317 0.32986,0.11697 0.65971,0.66796 0.65972,1.21271 0.65971,1.69869 0.98957,3.28712 1.64929,6.63513 1.64929,6.61629 0.98957,3.28701 0.98957,2.42898 0.65972,1.04547 0.65971,0.5461 0.32986,0.0813 0.32985,-0.0463 0.65972,-0.46731 0.65971,-0.94121 0.65972,-1.36848 0.98957,-2.71326 1.31943,-4.42752 2.309,-7.91637 0.98957,-2.68392 0.65972,-1.3721 0.65971,-0.9808 0.65972,-0.55847 0.65971,-0.12242 0.65972,0.30983 0.65971,0.72125 0.65972,1.096 0.98957,2.23228 1.31943,3.72266 2.63886,7.6702 0.98957,2.17976 0.65971,1.07965 0.65972,0.73618 0.65971,0.37039 0.65972,-0.003 0.65971,-0.36846 0.65971,-0.71231 0.65972,-1.02118 0.98957,-2.0065 1.64929,-4.10952 1.97914,-4.90051 0.98957,-1.93447 0.98958,-1.36536 0.65971,-0.54039 0.65972,-0.22471 0.65971,0.0936 0.65971,0.40191 0.65972,0.68821 0.98957,1.49456 1.31943,2.61442 2.96872,6.30041 0.98957,1.56873 0.65971,0.76998 0.65972,0.51758 0.65971,0.24973 0.65972,-0.0227 0.65971,-0.28884 0.65972,-0.53826 0.98957,-1.21539 1.31943,-2.18332 3.29857,-5.92607 0.98957,-1.26444 0.65972,-0.59768 0.65971,-0.37727 0.65972,-0.1463 0.65971,0.0859 0.65972,0.31004 0.65971,0.51751 0.98957,1.10961 1.31943,1.9235 2.96872,4.5865 0.98957,1.12851 0.98957,0.75439 0.65972,0.26608 0.65971,0.0676 0.65971,-0.1296 0.65972,-0.31776 0.98957,-0.79203 0.98957,-1.09599 1.97915,-2.66702 1.64928,-2.13 0.98958,-1.0038 0.98957,-0.69339 0.65971,-0.26278 0.65972,-0.0939 0.65971,0.0755 0.65972,0.23841 0.98957,0.6339 0.98957,0.90488 1.64929,1.86543 1.97914,2.23949 1.31943,1.13265 0.98957,0.5356 0.98957,0.22065 0.98958,-0.10442 0.98957,-0.41067 0.98957,-0.67166 1.31943,-1.18348 3.29857,-3.13904 0.98957,-0.65179 0.98958,-0.40781 0.98957,-0.13509 0.98957,0.14147 0.98957,0.39737 1.31943,0.85164 1.97914,1.6544 1.97915,1.57371 1.31943,0.73424 0.98957,0.30497 0.98957,0.0696 0.98957,-0.16487 0.98958,-0.3779 1.31942,-0.76463 4.61801,-3.07164 0.98957,-0.35098 0.98957,-0.15597 0.98957,0.047 0.98958,0.23984 1.31942,0.57129 1.97915,1.18053 2.309,1.35097 1.31943,0.52664 1.31943,0.24755 0.98957,-0.0159 1.31943,-0.2775 1.31943,-0.51792 2.63886,-1.37828 1.97914,-0.90108 1.31943,-0.36147 1.31943,-0.10879 1.31943,0.15085 1.31943,0.3769 1.97914,0.83555 2.63886,1.1336 1.64929,0.44119 1.31943,0.11674 1.31943,-0.10617 1.64928,-0.40484 2.309,-0.86038 2.309,-0.81883 1.64929,-0.34726 1.31943,-0.0721 1.31943,0.11705 1.64929,0.37092 5.93743,1.66261 1.64929,0.073 1.64928,-0.17509 1.97914,-0.45823 4.28815,-1.0924 1.64929,-0.16678 1.64928,0.0496 1.97915,0.31028 5.93743,1.20782 1.64929,0.0476 1.97914,-0.17827 2.63886,-0.49871 3.29857,-0.58759 1.97914,-0.12153 1.97915,0.10339 2.63886,0.39541 3.62843,0.57215 v 0"
           style="fill:none;stroke:#1f77b4;stroke-width:1.5;stroke-linecap:square;stroke-linejoin:round;stroke-miterlimit:10;stroke-dasharray:none;stroke-opacity:1"
           id="path248" /></g></g><g
       id="g250"><path
         d="M 53.14959,50.4 V 221.76"
         style="fill:none;stroke:#000000;stroke-width:0.8;stroke-linecap:square;stroke-linejoin:miter;stroke-miterlimit:10;stroke-dasharray:none;stroke-opacity:1"
         id="path252" /><path
         d="M 382.67705,50.4 V 221.76"
         style="fill:none;stroke:#000000;stroke-width:0.8;stroke-linecap:square;stroke-linejoin:miter;stroke-miterlimit:10;stroke-dasharray:none;stroke-opacity:1"
         id="path254" /><path
         d="M 53.14959,50.4 H 382.67705"
         style="fill:none;stroke:#000000;stroke-width:0.8;stroke-linecap:square;stroke-linejoin:miter;stroke-miterlimit:10;stroke-dasharray:none;stroke-opacity:1"
         id="path256" /><path
         d="M 53.14959,221.76 H 382.67705"
         style="fill:none;stroke:#000000;stroke-width:0.8;stroke-linecap:square;stroke-linejoin:miter;stroke-miterlimit:10;stroke-dasharray:none;stroke-opacity:1"
         id="path258" /><path
         d="m 114.2892,192.95925 c -6.15971,0 -12.31942,0 -18.47913,0"
         style="fill:none;stroke:#000000;stroke-width:1;stroke-linecap:round;stroke-linejoin:round;stroke-miterlimit:10;stroke-dasharray:none;stroke-opacity:1"
         id="path260" /><path
         d="m 110.2892,194.95925 4,-2 -4,-2"
         style="fill:none;stroke:#000000;stroke-width:1;stroke-linecap:round;stroke-linejoin:round;stroke-miterlimit:10;stroke-dasharray:none;stroke-opacity:1"
         id="path262" /><path
         d="m 99.81007,190.95925 -4,2 4,2"
         style="fill:none;stroke:#000000;stroke-width:1;stroke-linecap:round;stroke-linejoin:round;stroke-miterlimit:10;stroke-dasharray:none;stroke-opacity:1"
         id="path264" /><path
         d="m 115.40723,192.95925 c -6.90506,0 -13.81013,0 -20.715194,0"
         style="fill:none;stroke:#000000;stroke-width:1;stroke-linecap:round;stroke-linejoin:round;stroke-miterlimit:10;stroke-dasharray:none;stroke-opacity:1"
         id="path266" /><path
         d="m 115.40723,182.95925 v 0 20 0"
         style="fill:none;stroke:#000000;stroke-width:1;stroke-linecap:round;stroke-linejoin:round;stroke-miterlimit:10;stroke-dasharray:none;stroke-opacity:1"
         id="path268" /><path
         d="m 94.692036,202.95925 v 0 -20 0"
         style="fill:none;stroke:#000000;stroke-width:1;stroke-linecap:round;stroke-linejoin:round;stroke-miterlimit:10;stroke-dasharray:none;stroke-opacity:1"
         id="path270" /><path
         d="m 95.550165,196.56625 h 19.000005 v 18 H 95.550165 Z"
         style="fill:#ffffff;fill-opacity:1;fill-rule:nonzero;stroke:none"
         id="path272" /><g
         id="g274"
         transform="translate(99.550165,202.64437)"><text
           transform="matrix(1,0,0,-1,0,0.703125)"
           style="font-style:italic;font-variant:normal;font-size:10px;font-family:'DejaVu Sans';-inkscape-font-specification:DejaVuSans-Oblique;writing-mode:lr-tb;fill:#000000;fill-opacity:1;fill-rule:nonzero;stroke:none"
           id="text278"><tspan
             x="0"
             y="0"
             id="tspan276">T</tspan></text><text
           transform="matrix(1,0,0,-1,6.1083984,-0.9375)"
           style="font-style:italic;font-variant:normal;font-size:7px;font-family:'DejaVu Sans';-inkscape-font-specification:DejaVuSans-Oblique;writing-mode:lr-tb;fill:#000000;fill-opacity:1;fill-rule:nonzero;stroke:none"
           id="text282"><tspan
             x="0"
             y="0"
             id="tspan280">d</tspan></text></g><g
         id="g284"
         transform="translate(99.283434,167.74526)"><text
           transform="matrix(1,0,0,-1,0,0.53125)"
           style="font-style:italic;font-variant:normal;font-size:10px;font-family:'DejaVu Sans';-inkscape-font-specification:DejaVuSans-Oblique;writing-mode:lr-tb;fill:#ff0000;fill-opacity:1;fill-rule:nonzero;stroke:none"
           id="text288"><tspan
             x="0"
             y="0"
             id="tspan286">u</tspan></text><text
           transform="matrix(1,0,0,-1,6.3378906,-1.109375)"
           style="font-variant:normal;font-weight:normal;font-size:7px;font-family:'DejaVu Sans';-inkscape-font-specification:DejaVuSans;writing-mode:lr-tb;fill:#ff0000;fill-opacity:1;fill-rule:nonzero;stroke:none"
           id="text292"><tspan
             x="0"
             y="0"
             id="tspan290">0</tspan></text></g><g
         id="g294"
         transform="translate(120.70272,159.3406)"><text
           transform="matrix(1,0,0,-1,0,0.53125)"
           style="font-style:italic;font-variant:normal;font-size:10px;font-family:'DejaVu Sans';-inkscape-font-specification:DejaVuSans-Oblique;writing-mode:lr-tb;fill:#0000ff;fill-opacity:1;fill-rule:nonzero;stroke:none"
           id="text298"><tspan
             x="0"
             y="0"
             id="tspan296">u</tspan></text><text
           transform="matrix(1,0,0,-1,6.3378906,-1.109375)"
           style="font-variant:normal;font-weight:normal;font-size:7px;font-family:'DejaVu Sans';-inkscape-font-specification:DejaVuSans;writing-mode:lr-tb;fill:#0000ff;fill-opacity:1;fill-rule:nonzero;stroke:none"
           id="text302"><tspan
             x="0"
             y="0"
             id="tspan300">1</tspan></text></g><path
         d="m 266.0208,199.08813 h 109.65625 c 1.33333,0 2,0.66666 2,2 V 214.76 c 0,1.33333 -0.66667,2 -2,2 H 266.0208 c -1.33333,0 -2,-0.66667 -2,-2 v -13.67187 c 0,-1.33334 0.66667,-2 2,-2 z"
         style="fill:#ffffff;fill-opacity:0.8;fill-rule:nonzero;stroke:#cccccc;stroke-width:1;stroke-linecap:butt;stroke-linejoin:miter;stroke-miterlimit:10;stroke-dasharray:none;stroke-opacity:0.8"
         id="path304" /><path
         d="m 268.0208,208.66625 h 10 10"
         style="fill:none;stroke:#1f77b4;stroke-width:1.5;stroke-linecap:square;stroke-linejoin:round;stroke-miterlimit:10;stroke-dasharray:none;stroke-opacity:1"
         id="path306" /><g
         id="g308"
         transform="translate(296.0208,205.16625)"><text
           transform="scale(1,-1)"
           style="font-variant:normal;font-weight:normal;font-size:10px;font-family:'DejaVu Sans';-inkscape-font-specification:DejaVuSans;writing-mode:lr-tb;fill:#000000;fill-opacity:1;fill-rule:nonzero;stroke:none"
           id="text312"><tspan
             x="0 7.75 13.9 19.110001 25.24 34.98 38.900002 45.029999 51.369999 55.290001 63.470001 69.589996 73.699997"
             y="0"
             id="tspan310">Gesamtantwort</tspan></text></g></g></g></svg>
