<?xml version="1.0" encoding="UTF-8" standalone="no"?>
<svg
   xmlns:dc="http://purl.org/dc/elements/1.1/"
   xmlns:cc="http://creativecommons.org/ns#"
   xmlns:rdf="http://www.w3.org/1999/02/22-rdf-syntax-ns#"
   xmlns:svg="http://www.w3.org/2000/svg"
   xmlns="http://www.w3.org/2000/svg"
   version="1.1"
   id="svg2"
   xml:space="preserve"
   width="566.92896"
   height="336"
   viewBox="0 0 566.92896 336"><metadata
     id="metadata8"><rdf:RDF><cc:Work
         rdf:about=""><dc:format>image/svg+xml</dc:format><dc:type
           rdf:resource="http://purl.org/dc/dcmitype/StillImage" /></cc:Work></rdf:RDF></metadata><defs
     id="defs6"><clipPath
       clipPathUnits="userSpaceOnUse"
       id="clipPath22"><path
         d="M 53.14959,50.4 H 382.67705 V 221.76 H 53.14959 Z"
         id="path20" /></clipPath><clipPath
       clipPathUnits="userSpaceOnUse"
       id="clipPath42"><path
         d="M 53.14959,50.4 H 382.67705 V 221.76 H 53.14959 Z"
         id="path40" /></clipPath><clipPath
       clipPathUnits="userSpaceOnUse"
       id="clipPath62"><path
         d="M 53.14959,50.4 H 382.67705 V 221.76 H 53.14959 Z"
         id="path60" /></clipPath><clipPath
       clipPathUnits="userSpaceOnUse"
       id="clipPath82"><path
         d="M 53.14959,50.4 H 382.67705 V 221.76 H 53.14959 Z"
         id="path80" /></clipPath><clipPath
       clipPathUnits="userSpaceOnUse"
       id="clipPath102"><path
         d="M 53.14959,50.4 H 382.67705 V 221.76 H 53.14959 Z"
         id="path100" /></clipPath><clipPath
       clipPathUnits="userSpaceOnUse"
       id="clipPath122"><path
         d="M 53.14959,50.4 H 382.67705 V 221.76 H 53.14959 Z"
         id="path120" /></clipPath><clipPath
       clipPathUnits="userSpaceOnUse"
       id="clipPath150"><path
         d="M -1016,-351 H 1660 V 1068 H -1016 Z"
         id="path148" /></clipPath><clipPath
       clipPathUnits="userSpaceOnUse"
       id="clipPath160"><path
         d="M 53.14959,50.4 H 382.67705 V 221.76 H 53.14959 Z"
         id="path158" /></clipPath><clipPath
       clipPathUnits="userSpaceOnUse"
       id="clipPath180"><path
         d="M 53.14959,50.4 H 382.67705 V 221.76 H 53.14959 Z"
         id="path178" /></clipPath><clipPath
       clipPathUnits="userSpaceOnUse"
       id="clipPath200"><path
         d="M 53.14959,50.4 H 382.67705 V 221.76 H 53.14959 Z"
         id="path198" /></clipPath><clipPath
       clipPathUnits="userSpaceOnUse"
       id="clipPath220"><path
         d="M 53.14959,50.4 H 382.67705 V 221.76 H 53.14959 Z"
         id="path218" /></clipPath><clipPath
       clipPathUnits="userSpaceOnUse"
       id="clipPath240"><path
         d="M 53.14959,50.4 H 382.67705 V 221.76 H 53.14959 Z"
         id="path238" /></clipPath><clipPath
       clipPathUnits="userSpaceOnUse"
       id="clipPath260"><path
         d="M 53.14959,50.4 H 382.67705 V 221.76 H 53.14959 Z"
         id="path258" /></clipPath><clipPath
       clipPathUnits="userSpaceOnUse"
       id="clipPath288"><path
         d="M -1016,-351 H 1660 V 1068 H -1016 Z"
         id="path286" /></clipPath><clipPath
       clipPathUnits="userSpaceOnUse"
       id="clipPath298"><path
         d="M 53.14959,50.4 H 382.67705 V 221.76 H 53.14959 Z"
         id="path296" /></clipPath><clipPath
       clipPathUnits="userSpaceOnUse"
       id="clipPath308"><path
         d="M 53.14959,50.4 H 382.67705 V 221.76 H 53.14959 Z"
         id="path306" /></clipPath></defs><g
     id="g10"
     transform="matrix(1.3333333,0,0,-1.3333333,0,336)"><path
       d="M 0,0 H 425.19672 V 252 H 0 Z"
       style="fill:#ffffff;fill-opacity:1;fill-rule:nonzero;stroke:none"
       id="path12" /><path
       d="M 53.14959,50.4 H 382.67705 V 221.76 H 53.14959 Z"
       style="fill:#ffffff;fill-opacity:1;fill-rule:nonzero;stroke:none"
       id="path14" /><g
       id="g16"><g
         id="g18"
         clip-path="url(#clipPath22)"><path
           d="M 53.14959,50.4 V 221.76"
           style="fill:none;stroke:#b0b0b0;stroke-width:0.8;stroke-linecap:square;stroke-linejoin:round;stroke-miterlimit:10;stroke-dasharray:none;stroke-opacity:1"
           id="path24" /></g></g><g
       id="g26"><path
         d="M 53.14959,50.4 V 46.9"
         style="fill:#000000;fill-opacity:1;fill-rule:nonzero;stroke:#000000;stroke-width:0.8;stroke-linecap:butt;stroke-linejoin:round;stroke-miterlimit:10;stroke-dasharray:none;stroke-opacity:1"
         id="path28" /><g
         id="g30"
         transform="translate(45.196465,35.80625)"><text
           transform="scale(1,-1)"
           style="font-variant:normal;font-weight:normal;font-size:10px;font-family:'DejaVu Sans';-inkscape-font-specification:DejaVuSans;writing-mode:lr-tb;fill:#000000;fill-opacity:1;fill-rule:nonzero;stroke:none"
           id="text34"><tspan
             x="0 6.3600001 9.54"
             y="0"
             id="tspan32">0.0</tspan></text></g></g><g
       id="g36"><g
         id="g38"
         clip-path="url(#clipPath42)"><path
           d="M 119.05508,50.4 V 221.76"
           style="fill:none;stroke:#b0b0b0;stroke-width:0.8;stroke-linecap:square;stroke-linejoin:round;stroke-miterlimit:10;stroke-dasharray:none;stroke-opacity:1"
           id="path44" /></g></g><g
       id="g46"><path
         d="M 119.05508,50.4 V 46.9"
         style="fill:#000000;fill-opacity:1;fill-rule:nonzero;stroke:#000000;stroke-width:0.8;stroke-linecap:butt;stroke-linejoin:round;stroke-miterlimit:10;stroke-dasharray:none;stroke-opacity:1"
         id="path48" /><g
         id="g50"
         transform="translate(111.10196,35.80625)"><text
           transform="scale(1,-1)"
           style="font-variant:normal;font-weight:normal;font-size:10px;font-family:'DejaVu Sans';-inkscape-font-specification:DejaVuSans;writing-mode:lr-tb;fill:#000000;fill-opacity:1;fill-rule:nonzero;stroke:none"
           id="text54"><tspan
             x="0 6.3600001 9.54"
             y="0"
             id="tspan52">0.2</tspan></text></g></g><g
       id="g56"><g
         id="g58"
         clip-path="url(#clipPath62)"><path
           d="M 184.96057,50.4 V 221.76"
           style="fill:none;stroke:#b0b0b0;stroke-width:0.8;stroke-linecap:square;stroke-linejoin:round;stroke-miterlimit:10;stroke-dasharray:none;stroke-opacity:1"
           id="path64" /></g></g><g
       id="g66"><path
         d="M 184.96057,50.4 V 46.9"
         style="fill:#000000;fill-opacity:1;fill-rule:nonzero;stroke:#000000;stroke-width:0.8;stroke-linecap:butt;stroke-linejoin:round;stroke-miterlimit:10;stroke-dasharray:none;stroke-opacity:1"
         id="path68" /><g
         id="g70"
         transform="translate(177.00745,35.80625)"><text
           transform="scale(1,-1)"
           style="font-variant:normal;font-weight:normal;font-size:10px;font-family:'DejaVu Sans';-inkscape-font-specification:DejaVuSans;writing-mode:lr-tb;fill:#000000;fill-opacity:1;fill-rule:nonzero;stroke:none"
           id="text74"><tspan
             x="0 6.3600001 9.54"
             y="0"
             id="tspan72">0.4</tspan></text></g></g><g
       id="g76"><g
         id="g78"
         clip-path="url(#clipPath82)"><path
           d="M 250.86606,50.4 V 221.76"
           style="fill:none;stroke:#b0b0b0;stroke-width:0.8;stroke-linecap:square;stroke-linejoin:round;stroke-miterlimit:10;stroke-dasharray:none;stroke-opacity:1"
           id="path84" /></g></g><g
       id="g86"><path
         d="M 250.86606,50.4 V 46.9"
         style="fill:#000000;fill-opacity:1;fill-rule:nonzero;stroke:#000000;stroke-width:0.8;stroke-linecap:butt;stroke-linejoin:round;stroke-miterlimit:10;stroke-dasharray:none;stroke-opacity:1"
         id="path88" /><g
         id="g90"
         transform="translate(242.91294,35.80625)"><text
           transform="scale(1,-1)"
           style="font-variant:normal;font-weight:normal;font-size:10px;font-family:'DejaVu Sans';-inkscape-font-specification:DejaVuSans;writing-mode:lr-tb;fill:#000000;fill-opacity:1;fill-rule:nonzero;stroke:none"
           id="text94"><tspan
             x="0 6.3600001 9.54"
             y="0"
             id="tspan92">0.6</tspan></text></g></g><g
       id="g96"><g
         id="g98"
         clip-path="url(#clipPath102)"><path
           d="M 316.77156,50.4 V 221.76"
           style="fill:none;stroke:#b0b0b0;stroke-width:0.8;stroke-linecap:square;stroke-linejoin:round;stroke-miterlimit:10;stroke-dasharray:none;stroke-opacity:1"
           id="path104" /></g></g><g
       id="g106"><path
         d="M 316.77156,50.4 V 46.9"
         style="fill:#000000;fill-opacity:1;fill-rule:nonzero;stroke:#000000;stroke-width:0.8;stroke-linecap:butt;stroke-linejoin:round;stroke-miterlimit:10;stroke-dasharray:none;stroke-opacity:1"
         id="path108" /><g
         id="g110"
         transform="translate(308.81843,35.80625)"><text
           transform="scale(1,-1)"
           style="font-variant:normal;font-weight:normal;font-size:10px;font-family:'DejaVu Sans';-inkscape-font-specification:DejaVuSans;writing-mode:lr-tb;fill:#000000;fill-opacity:1;fill-rule:nonzero;stroke:none"
           id="text114"><tspan
             x="0 6.3600001 9.54"
             y="0"
             id="tspan112">0.8</tspan></text></g></g><g
       id="g116"><g
         id="g118"
         clip-path="url(#clipPath122)"><path
           d="M 382.67705,50.4 V 221.76"
           style="fill:none;stroke:#b0b0b0;stroke-width:0.8;stroke-linecap:square;stroke-linejoin:round;stroke-miterlimit:10;stroke-dasharray:none;stroke-opacity:1"
           id="path124" /></g></g><g
       id="g126"><path
         d="M 382.67705,50.4 V 46.9"
         style="fill:#000000;fill-opacity:1;fill-rule:nonzero;stroke:#000000;stroke-width:0.8;stroke-linecap:butt;stroke-linejoin:round;stroke-miterlimit:10;stroke-dasharray:none;stroke-opacity:1"
         id="path128" /><g
         id="g130"
         transform="translate(374.72392,35.80625)"><text
           transform="scale(1,-1)"
           style="font-variant:normal;font-weight:normal;font-size:10px;font-family:'DejaVu Sans';-inkscape-font-specification:DejaVuSans;writing-mode:lr-tb;fill:#000000;fill-opacity:1;fill-rule:nonzero;stroke:none"
           id="text134"><tspan
             x="0 6.3600001 9.54"
             y="0"
             id="tspan132">1.0</tspan></text></g><g
         id="g136"
         transform="translate(174.41332,21.728125)"><text
           transform="matrix(1,0,0,-1,0,0.40625)"
           style="font-variant:normal;font-weight:normal;font-size:10px;font-family:'DejaVu Sans';-inkscape-font-specification:DejaVuSans;writing-mode:lr-tb;fill:#000000;fill-opacity:1;fill-rule:nonzero;stroke:none"
           id="text140"><tspan
             x="0 7.7001953 13.828125 23.569336 29.916992 33.4375 39.775391 46.113281 52.460938 57.670898 61.782227 67.910156 71.831055 77.983398"
             y="0"
             id="tspan138">Dämpfungsrate </tspan></text><g
           id="g142"
           transform="matrix(0.01,0,0,0.01,81.162109,0.40625)"><g
             id="g144"><g
               id="g146"
               clip-path="url(#clipPath150)"><path
                 d="m 307,62 c 43,0 75,-13 96,-37 22,-25 30,-57 22,-96 -8,-37 -26,-69 -54,-95 -32,-28 -75,-43 -127,-43 4,25 9,50 14,74 22,-2 41,5 58,19 12,12 20,23 22,35 3,18 1,33 -6,47 -8,14 -22,21 -40,21 C 96,-13 15,78 49,261 80,421 200,557 408,669 H 148 l 18,91 H 590 L 573,669 C 314,551 170,415 140,261 114,128 169,62 307,62 Z"
                 style="fill:#000000;fill-opacity:1;fill-rule:nonzero;stroke:none"
                 id="path152" /></g></g></g></g></g><g
       id="g154"><g
         id="g156"
         clip-path="url(#clipPath160)"><path
           d="M 53.14959,50.4 H 382.67705"
           style="fill:none;stroke:#b0b0b0;stroke-width:0.8;stroke-linecap:square;stroke-linejoin:round;stroke-miterlimit:10;stroke-dasharray:none;stroke-opacity:1"
           id="path162" /></g></g><g
       id="g164"><path
         d="m 53.14959,50.4 h -3.5"
         style="fill:#000000;fill-opacity:1;fill-rule:nonzero;stroke:#000000;stroke-width:0.8;stroke-linecap:butt;stroke-linejoin:round;stroke-miterlimit:10;stroke-dasharray:none;stroke-opacity:1"
         id="path166" /><g
         id="g168"
         transform="translate(39.790215,46.603125)"><text
           transform="scale(1,-1)"
           style="font-variant:normal;font-weight:normal;font-size:10px;font-family:'DejaVu Sans';-inkscape-font-specification:DejaVuSans;writing-mode:lr-tb;fill:#000000;fill-opacity:1;fill-rule:nonzero;stroke:none"
           id="text172"><tspan
             x="0"
             y="0"
             id="tspan170">0</tspan></text></g></g><g
       id="g174"><g
         id="g176"
         clip-path="url(#clipPath180)"><path
           d="M 53.14959,84.672 H 382.67705"
           style="fill:none;stroke:#b0b0b0;stroke-width:0.8;stroke-linecap:square;stroke-linejoin:round;stroke-miterlimit:10;stroke-dasharray:none;stroke-opacity:1"
           id="path182" /></g></g><g
       id="g184"><path
         d="m 53.14959,84.672 h -3.5"
         style="fill:#000000;fill-opacity:1;fill-rule:nonzero;stroke:#000000;stroke-width:0.8;stroke-linecap:butt;stroke-linejoin:round;stroke-miterlimit:10;stroke-dasharray:none;stroke-opacity:1"
         id="path186" /><g
         id="g188"
         transform="translate(39.790215,80.875125)"><text
           transform="scale(1,-1)"
           style="font-variant:normal;font-weight:normal;font-size:10px;font-family:'DejaVu Sans';-inkscape-font-specification:DejaVuSans;writing-mode:lr-tb;fill:#000000;fill-opacity:1;fill-rule:nonzero;stroke:none"
           id="text192"><tspan
             x="0"
             y="0"
             id="tspan190">2</tspan></text></g></g><g
       id="g194"><g
         id="g196"
         clip-path="url(#clipPath200)"><path
           d="M 53.14959,118.944 H 382.67705"
           style="fill:none;stroke:#b0b0b0;stroke-width:0.8;stroke-linecap:square;stroke-linejoin:round;stroke-miterlimit:10;stroke-dasharray:none;stroke-opacity:1"
           id="path202" /></g></g><g
       id="g204"><path
         d="m 53.14959,118.944 h -3.5"
         style="fill:#000000;fill-opacity:1;fill-rule:nonzero;stroke:#000000;stroke-width:0.8;stroke-linecap:butt;stroke-linejoin:round;stroke-miterlimit:10;stroke-dasharray:none;stroke-opacity:1"
         id="path206" /><g
         id="g208"
         transform="translate(39.790215,115.14713)"><text
           transform="scale(1,-1)"
           style="font-variant:normal;font-weight:normal;font-size:10px;font-family:'DejaVu Sans';-inkscape-font-specification:DejaVuSans;writing-mode:lr-tb;fill:#000000;fill-opacity:1;fill-rule:nonzero;stroke:none"
           id="text212"><tspan
             x="0"
             y="0"
             id="tspan210">4</tspan></text></g></g><g
       id="g214"><g
         id="g216"
         clip-path="url(#clipPath220)"><path
           d="M 53.14959,153.216 H 382.67705"
           style="fill:none;stroke:#b0b0b0;stroke-width:0.8;stroke-linecap:square;stroke-linejoin:round;stroke-miterlimit:10;stroke-dasharray:none;stroke-opacity:1"
           id="path222" /></g></g><g
       id="g224"><path
         d="m 53.14959,153.216 h -3.5"
         style="fill:#000000;fill-opacity:1;fill-rule:nonzero;stroke:#000000;stroke-width:0.8;stroke-linecap:butt;stroke-linejoin:round;stroke-miterlimit:10;stroke-dasharray:none;stroke-opacity:1"
         id="path226" /><g
         id="g228"
         transform="translate(39.790215,149.41912)"><text
           transform="scale(1,-1)"
           style="font-variant:normal;font-weight:normal;font-size:10px;font-family:'DejaVu Sans';-inkscape-font-specification:DejaVuSans;writing-mode:lr-tb;fill:#000000;fill-opacity:1;fill-rule:nonzero;stroke:none"
           id="text232"><tspan
             x="0"
             y="0"
             id="tspan230">6</tspan></text></g></g><g
       id="g234"><g
         id="g236"
         clip-path="url(#clipPath240)"><path
           d="M 53.14959,187.488 H 382.67705"
           style="fill:none;stroke:#b0b0b0;stroke-width:0.8;stroke-linecap:square;stroke-linejoin:round;stroke-miterlimit:10;stroke-dasharray:none;stroke-opacity:1"
           id="path242" /></g></g><g
       id="g244"><path
         d="m 53.14959,187.488 h -3.5"
         style="fill:#000000;fill-opacity:1;fill-rule:nonzero;stroke:#000000;stroke-width:0.8;stroke-linecap:butt;stroke-linejoin:round;stroke-miterlimit:10;stroke-dasharray:none;stroke-opacity:1"
         id="path246" /><g
         id="g248"
         transform="translate(39.790215,183.69112)"><text
           transform="scale(1,-1)"
           style="font-variant:normal;font-weight:normal;font-size:10px;font-family:'DejaVu Sans';-inkscape-font-specification:DejaVuSans;writing-mode:lr-tb;fill:#000000;fill-opacity:1;fill-rule:nonzero;stroke:none"
           id="text252"><tspan
             x="0"
             y="0"
             id="tspan250">8</tspan></text></g></g><g
       id="g254"><g
         id="g256"
         clip-path="url(#clipPath260)"><path
           d="M 53.14959,221.76 H 382.67705"
           style="fill:none;stroke:#b0b0b0;stroke-width:0.8;stroke-linecap:square;stroke-linejoin:round;stroke-miterlimit:10;stroke-dasharray:none;stroke-opacity:1"
           id="path262" /></g></g><g
       id="g264"><path
         d="m 53.14959,221.76 h -3.5"
         style="fill:#000000;fill-opacity:1;fill-rule:nonzero;stroke:#000000;stroke-width:0.8;stroke-linecap:butt;stroke-linejoin:round;stroke-miterlimit:10;stroke-dasharray:none;stroke-opacity:1"
         id="path266" /><g
         id="g268"
         transform="translate(33.43084,217.96312)"><text
           transform="scale(1,-1)"
           style="font-variant:normal;font-weight:normal;font-size:10px;font-family:'DejaVu Sans';-inkscape-font-specification:DejaVuSans;writing-mode:lr-tb;fill:#000000;fill-opacity:1;fill-rule:nonzero;stroke:none"
           id="text272"><tspan
             x="0 6.3600001"
             y="0"
             id="tspan270">10</tspan></text></g><g
         id="g274"
         transform="rotate(90,-17.07458,43.50542)"><text
           transform="matrix(1,0,0,-1,0,0.40625)"
           style="font-variant:normal;font-weight:normal;font-size:10px;font-family:'DejaVu Sans';-inkscape-font-specification:DejaVuSans;writing-mode:lr-tb;fill:#000000;fill-opacity:1;fill-rule:nonzero;stroke:none"
           id="text278"><tspan
             x="0 5.5712891 11.689453 18.037109 24.165039 28.276367 31.054688 34.975586 41.313477 51.054688 53.833008 59.042969 64.541016 70.878906 77.03125 82.241211 85.419922 93.120117 99.272461 105.06348 109.1748 115.32715 125.06836 131.2207 137.55859 141.47949"
             y="0"
             id="tspan276">Logarithmisches Dekrement </tspan></text><g
           id="g280"
           transform="matrix(0.01,0,0,0.01,144.6582,0.40625)"><g
             id="g282"><g
               id="g284"
               clip-path="url(#clipPath288)"><path
                 d="m 542,633 c -28,22 -81,34 -159,34 -83,0 -128,-19 -135,-57 -6,-30 32,-53 116,-68 64,-12 112,-37 144,-73 38,-44 48,-111 31,-201 C 521,182 486,113 432,63 377,12 311,-13 233,-13 155,-13 98,12 63,63 28,113 20,183 38,273 c 12,66 46,126 101,180 21,20 45,37 72,49 -46,26 -64,61 -55,107 17,88 97,133 241,133 72,0 125,-12 160,-34 z M 274,478 c -24,-10 -48,-27 -70,-50 -36,-37 -60,-89 -72,-155 -13,-66 -9,-118 12,-155 20,-38 55,-56 104,-56 47,0 88,18 124,56 35,38 59,88 71,150 12,64 7,112 -16,144 -26,33 -58,52 -98,56 -21,2 -39,5 -55,10 z"
                 style="fill:#000000;fill-opacity:1;fill-rule:nonzero;stroke:none"
                 id="path290" /></g></g></g></g></g><g
       id="g292"><g
         id="g294"
         clip-path="url(#clipPath298)"><path
           d="m 53.14959,50.4 42.221736,13.910036 22.100444,7.518561 18.14215,6.401018 15.83315,5.819728 14.18386,5.450801 12.86444,5.183715 11.54501,4.88683 10.88529,4.849641 9.89572,4.64859 9.236,4.57927 8.57629,4.49333 8.24644,4.57351 7.58671,4.45987 7.25686,4.52591 6.59715,4.36697 6.26729,4.403 5.93743,4.43166 5.60757,4.45019 5.27772,4.45544 5.27772,4.7501 4.94786,4.75809 4.618,4.74441 4.28815,4.70399 4.28814,5.03108 3.95829,4.97445 3.95829,5.33661 3.62843,5.25505 3.62843,5.65287 3.29857,5.53404 3.29857,5.96597 3.29858,6.46361 2.96871,6.30902 2.96872,6.84943 2.63886,6.6135 2.63886,7.18732 2.63886,7.85582 0.38404,1.20657 v 0"
           style="fill:none;stroke:#1f77b4;stroke-width:1.5;stroke-linecap:square;stroke-linejoin:round;stroke-miterlimit:10;stroke-dasharray:none;stroke-opacity:1"
           id="path300" /></g></g><g
       id="g302"><g
         id="g304"
         clip-path="url(#clipPath308)"><path
           d="m 53.14959,50.4 329.52746,107.66866 v 0"
           style="fill:none;stroke:#ff0000;stroke-width:1.5;stroke-linecap:butt;stroke-linejoin:round;stroke-miterlimit:10;stroke-dasharray:5.55, 2.4;stroke-dashoffset:0;stroke-opacity:1"
           id="path310" /></g></g><g
       id="g312"><path
         d="M 53.14959,50.4 V 221.76"
         style="fill:none;stroke:#000000;stroke-width:0.8;stroke-linecap:square;stroke-linejoin:miter;stroke-miterlimit:10;stroke-dasharray:none;stroke-opacity:1"
         id="path314" /><path
         d="M 382.67705,50.4 V 221.76"
         style="fill:none;stroke:#000000;stroke-width:0.8;stroke-linecap:square;stroke-linejoin:miter;stroke-miterlimit:10;stroke-dasharray:none;stroke-opacity:1"
         id="path316" /><path
         d="M 53.14959,50.4 H 382.67705"
         style="fill:none;stroke:#000000;stroke-width:0.8;stroke-linecap:square;stroke-linejoin:miter;stroke-miterlimit:10;stroke-dasharray:none;stroke-opacity:1"
         id="path318" /><path
         d="M 53.14959,221.76 H 382.67705"
         style="fill:none;stroke:#000000;stroke-width:0.8;stroke-linecap:square;stroke-linejoin:miter;stroke-miterlimit:10;stroke-dasharray:none;stroke-opacity:1"
         id="path320" /><path
         d="m 60.14959,184.41625 h 119.76562 c 1.33334,0 2,0.66667 2,2 V 214.76 c 0,1.33333 -0.66666,2 -2,2 H 60.14959 c -1.333333,0 -2,-0.66667 -2,-2 v -28.34375 c 0,-1.33333 0.666667,-2 2,-2 z"
         style="fill:#ffffff;fill-opacity:0.8;fill-rule:nonzero;stroke:#cccccc;stroke-width:1;stroke-linecap:butt;stroke-linejoin:miter;stroke-miterlimit:10;stroke-dasharray:none;stroke-opacity:0.8"
         id="path322" /><path
         d="m 62.14959,208.66625 h 10 10"
         style="fill:none;stroke:#1f77b4;stroke-width:1.5;stroke-linecap:square;stroke-linejoin:round;stroke-miterlimit:10;stroke-dasharray:none;stroke-opacity:1"
         id="path324" /><g
         id="g326"
         transform="translate(90.14959,205.16625)"><text
           transform="scale(1,-1)"
           style="font-variant:normal;font-weight:normal;font-size:10px;font-family:'DejaVu Sans';-inkscape-font-specification:DejaVuSans;writing-mode:lr-tb;fill:#000000;fill-opacity:1;fill-rule:nonzero;stroke:none"
           id="text330"><tspan
             x="0 6.3200002 12.24 18.370001 24.16 28.08 34.23 37.41 45.16 47.939999 54.09 56.869999 62.369999 68.709999 75.050003 81.389999"
             y="0"
             id="tspan328">Exakte Gleichung</tspan></text></g><path
         d="m 62.14959,193.99437 h 10 10"
         style="fill:none;stroke:#ff0000;stroke-width:1.5;stroke-linecap:butt;stroke-linejoin:round;stroke-miterlimit:10;stroke-dasharray:5.55, 2.4;stroke-dashoffset:0;stroke-opacity:1"
         id="path332" /><g
         id="g334"
         transform="translate(90.14959,190.49437)"><text
           transform="scale(1,-1)"
           style="font-variant:normal;font-weight:normal;font-size:10px;font-family:'DejaVu Sans';-inkscape-font-specification:DejaVuSans;writing-mode:lr-tb;fill:#000000;fill-opacity:1;fill-rule:nonzero;stroke:none"
           id="text338"><tspan
             x="0 7.48 13.61 19.950001 26.1 30.209999 36.549999 42.889999"
             y="0"
             id="tspan336">Näherung</tspan></text></g></g></g></svg>
