<?xml version="1.0" encoding="UTF-8" standalone="no"?>
<svg
   xmlns:dc="http://purl.org/dc/elements/1.1/"
   xmlns:cc="http://creativecommons.org/ns#"
   xmlns:rdf="http://www.w3.org/1999/02/22-rdf-syntax-ns#"
   xmlns:svg="http://www.w3.org/2000/svg"
   xmlns="http://www.w3.org/2000/svg"
   version="1.1"
   id="svg2"
   xml:space="preserve"
   width="566.92896"
   height="480"
   viewBox="0 0 566.92896 480"><metadata
     id="metadata8"><rdf:RDF><cc:Work
         rdf:about=""><dc:format>image/svg+xml</dc:format><dc:type
           rdf:resource="http://purl.org/dc/dcmitype/StillImage" /></cc:Work></rdf:RDF></metadata><defs
     id="defs6"><clipPath
       clipPathUnits="userSpaceOnUse"
       id="clipPath22"><path
         d="M 53.14959,242.64 H 382.67705 V 356.4 H 53.14959 Z"
         id="path20" /></clipPath><clipPath
       clipPathUnits="userSpaceOnUse"
       id="clipPath42"><path
         d="M 53.14959,242.64 H 382.67705 V 356.4 H 53.14959 Z"
         id="path40" /></clipPath><clipPath
       clipPathUnits="userSpaceOnUse"
       id="clipPath62"><path
         d="M 53.14959,242.64 H 382.67705 V 356.4 H 53.14959 Z"
         id="path60" /></clipPath><clipPath
       clipPathUnits="userSpaceOnUse"
       id="clipPath82"><path
         d="M 53.14959,242.64 H 382.67705 V 356.4 H 53.14959 Z"
         id="path80" /></clipPath><clipPath
       clipPathUnits="userSpaceOnUse"
       id="clipPath102"><path
         d="M 53.14959,242.64 H 382.67705 V 356.4 H 53.14959 Z"
         id="path100" /></clipPath><clipPath
       clipPathUnits="userSpaceOnUse"
       id="clipPath122"><path
         d="M 53.14959,242.64 H 382.67705 V 356.4 H 53.14959 Z"
         id="path120" /></clipPath><clipPath
       clipPathUnits="userSpaceOnUse"
       id="clipPath142"><path
         d="M 53.14959,242.64 H 382.67705 V 356.4 H 53.14959 Z"
         id="path140" /></clipPath><clipPath
       clipPathUnits="userSpaceOnUse"
       id="clipPath162"><path
         d="M 53.14959,242.64 H 382.67705 V 356.4 H 53.14959 Z"
         id="path160" /></clipPath><clipPath
       clipPathUnits="userSpaceOnUse"
       id="clipPath182"><path
         d="M 53.14959,242.64 H 382.67705 V 356.4 H 53.14959 Z"
         id="path180" /></clipPath><clipPath
       clipPathUnits="userSpaceOnUse"
       id="clipPath208"><path
         d="M 53.14959,242.64 H 382.67705 V 356.4 H 53.14959 Z"
         id="path206" /></clipPath><clipPath
       clipPathUnits="userSpaceOnUse"
       id="clipPath230"><path
         d="M -1021,-463 H 1794 V 1233 H -1021 Z"
         id="path228" /></clipPath><clipPath
       clipPathUnits="userSpaceOnUse"
       id="clipPath240"><path
         d="M 53.14959,242.64 H 382.67705 V 356.4 H 53.14959 Z"
         id="path238" /></clipPath><clipPath
       clipPathUnits="userSpaceOnUse"
       id="clipPath262"><path
         d="M -1021,-463 H 1794 V 1233 H -1021 Z"
         id="path260" /></clipPath><clipPath
       clipPathUnits="userSpaceOnUse"
       id="clipPath272"><path
         d="M 53.14959,242.64 H 382.67705 V 356.4 H 53.14959 Z"
         id="path270" /></clipPath><clipPath
       clipPathUnits="userSpaceOnUse"
       id="clipPath292"><path
         d="M 53.14959,242.64 H 382.67705 V 356.4 H 53.14959 Z"
         id="path290" /></clipPath><clipPath
       clipPathUnits="userSpaceOnUse"
       id="clipPath312"><path
         d="M 53.14959,242.64 H 382.67705 V 356.4 H 53.14959 Z"
         id="path310" /></clipPath><clipPath
       clipPathUnits="userSpaceOnUse"
       id="clipPath350"><path
         d="M 53.14959,242.64 H 382.67705 V 356.4 H 53.14959 Z"
         id="path348" /></clipPath><clipPath
       clipPathUnits="userSpaceOnUse"
       id="clipPath360"><path
         d="M 53.14959,242.64 H 382.67705 V 356.4 H 53.14959 Z"
         id="path358" /></clipPath><clipPath
       clipPathUnits="userSpaceOnUse"
       id="clipPath370"><path
         d="M 53.14959,242.64 H 382.67705 V 356.4 H 53.14959 Z"
         id="path368" /></clipPath><clipPath
       clipPathUnits="userSpaceOnUse"
       id="clipPath392"><path
         d="M 53.14959,72 H 382.67705 V 185.76 H 53.14959 Z"
         id="path390" /></clipPath><clipPath
       clipPathUnits="userSpaceOnUse"
       id="clipPath412"><path
         d="M 53.14959,72 H 382.67705 V 185.76 H 53.14959 Z"
         id="path410" /></clipPath><clipPath
       clipPathUnits="userSpaceOnUse"
       id="clipPath432"><path
         d="M 53.14959,72 H 382.67705 V 185.76 H 53.14959 Z"
         id="path430" /></clipPath><clipPath
       clipPathUnits="userSpaceOnUse"
       id="clipPath452"><path
         d="M 53.14959,72 H 382.67705 V 185.76 H 53.14959 Z"
         id="path450" /></clipPath><clipPath
       clipPathUnits="userSpaceOnUse"
       id="clipPath472"><path
         d="M 53.14959,72 H 382.67705 V 185.76 H 53.14959 Z"
         id="path470" /></clipPath><clipPath
       clipPathUnits="userSpaceOnUse"
       id="clipPath492"><path
         d="M 53.14959,72 H 382.67705 V 185.76 H 53.14959 Z"
         id="path490" /></clipPath><clipPath
       clipPathUnits="userSpaceOnUse"
       id="clipPath512"><path
         d="M 53.14959,72 H 382.67705 V 185.76 H 53.14959 Z"
         id="path510" /></clipPath><clipPath
       clipPathUnits="userSpaceOnUse"
       id="clipPath532"><path
         d="M 53.14959,72 H 382.67705 V 185.76 H 53.14959 Z"
         id="path530" /></clipPath><clipPath
       clipPathUnits="userSpaceOnUse"
       id="clipPath552"><path
         d="M 53.14959,72 H 382.67705 V 185.76 H 53.14959 Z"
         id="path550" /></clipPath><clipPath
       clipPathUnits="userSpaceOnUse"
       id="clipPath578"><path
         d="M 53.14959,72 H 382.67705 V 185.76 H 53.14959 Z"
         id="path576" /></clipPath><clipPath
       clipPathUnits="userSpaceOnUse"
       id="clipPath600"><path
         d="M -1021,-463 H 1794 V 1233 H -1021 Z"
         id="path598" /></clipPath><clipPath
       clipPathUnits="userSpaceOnUse"
       id="clipPath610"><path
         d="M 53.14959,72 H 382.67705 V 185.76 H 53.14959 Z"
         id="path608" /></clipPath><clipPath
       clipPathUnits="userSpaceOnUse"
       id="clipPath632"><path
         d="M -1021,-463 H 1794 V 1233 H -1021 Z"
         id="path630" /></clipPath><clipPath
       clipPathUnits="userSpaceOnUse"
       id="clipPath642"><path
         d="M 53.14959,72 H 382.67705 V 185.76 H 53.14959 Z"
         id="path640" /></clipPath><clipPath
       clipPathUnits="userSpaceOnUse"
       id="clipPath662"><path
         d="M 53.14959,72 H 382.67705 V 185.76 H 53.14959 Z"
         id="path660" /></clipPath><clipPath
       clipPathUnits="userSpaceOnUse"
       id="clipPath682"><path
         d="M 53.14959,72 H 382.67705 V 185.76 H 53.14959 Z"
         id="path680" /></clipPath><clipPath
       clipPathUnits="userSpaceOnUse"
       id="clipPath720"><path
         d="M 53.14959,72 H 382.67705 V 185.76 H 53.14959 Z"
         id="path718" /></clipPath><clipPath
       clipPathUnits="userSpaceOnUse"
       id="clipPath730"><path
         d="M 53.14959,72 H 382.67705 V 185.76 H 53.14959 Z"
         id="path728" /></clipPath><clipPath
       clipPathUnits="userSpaceOnUse"
       id="clipPath740"><path
         d="M 53.14959,72 H 382.67705 V 185.76 H 53.14959 Z"
         id="path738" /></clipPath></defs><g
     id="g10"
     transform="matrix(1.3333333,0,0,-1.3333333,0,480)"><path
       d="M 0,0 H 425.19672 V 360 H 0 Z"
       style="fill:#ffffff;fill-opacity:1;fill-rule:nonzero;stroke:none"
       id="path12" /><path
       d="M 53.14959,242.64 H 382.67705 V 356.4 H 53.14959 Z"
       style="fill:#ffffff;fill-opacity:1;fill-rule:nonzero;stroke:none"
       id="path14" /><g
       id="g16"><g
         id="g18"
         clip-path="url(#clipPath22)"><path
           d="M 53.14959,242.64 V 356.4"
           style="fill:none;stroke:#b0b0b0;stroke-width:0.8;stroke-linecap:square;stroke-linejoin:round;stroke-miterlimit:10;stroke-dasharray:none;stroke-opacity:1"
           id="path24" /></g></g><g
       id="g26"><path
         d="m 53.14959,242.64 v -3.5"
         style="fill:#000000;fill-opacity:1;fill-rule:nonzero;stroke:#000000;stroke-width:0.8;stroke-linecap:butt;stroke-linejoin:round;stroke-miterlimit:10;stroke-dasharray:none;stroke-opacity:1"
         id="path28" /><g
         id="g30"
         transform="translate(45.196465,228.04625)"><text
           transform="scale(1,-1)"
           style="font-variant:normal;font-weight:normal;font-size:10px;font-family:'DejaVu Sans';-inkscape-font-specification:DejaVuSans;writing-mode:lr-tb;fill:#000000;fill-opacity:1;fill-rule:nonzero;stroke:none"
           id="text34"><tspan
             x="0 6.3600001 9.54"
             y="0"
             id="tspan32">0.0</tspan></text></g></g><g
       id="g36"><g
         id="g38"
         clip-path="url(#clipPath42)"><path
           d="M 94.340522,242.64 V 356.4"
           style="fill:none;stroke:#b0b0b0;stroke-width:0.8;stroke-linecap:square;stroke-linejoin:round;stroke-miterlimit:10;stroke-dasharray:none;stroke-opacity:1"
           id="path44" /></g></g><g
       id="g46"><path
         d="m 94.340522,242.64 v -3.5"
         style="fill:#000000;fill-opacity:1;fill-rule:nonzero;stroke:#000000;stroke-width:0.8;stroke-linecap:butt;stroke-linejoin:round;stroke-miterlimit:10;stroke-dasharray:none;stroke-opacity:1"
         id="path48" /><g
         id="g50"
         transform="translate(86.387397,228.04625)"><text
           transform="scale(1,-1)"
           style="font-variant:normal;font-weight:normal;font-size:10px;font-family:'DejaVu Sans';-inkscape-font-specification:DejaVuSans;writing-mode:lr-tb;fill:#000000;fill-opacity:1;fill-rule:nonzero;stroke:none"
           id="text54"><tspan
             x="0 6.3600001 9.54"
             y="0"
             id="tspan52">2.5</tspan></text></g></g><g
       id="g56"><g
         id="g58"
         clip-path="url(#clipPath62)"><path
           d="M 135.53145,242.64 V 356.4"
           style="fill:none;stroke:#b0b0b0;stroke-width:0.8;stroke-linecap:square;stroke-linejoin:round;stroke-miterlimit:10;stroke-dasharray:none;stroke-opacity:1"
           id="path64" /></g></g><g
       id="g66"><path
         d="m 135.53145,242.64 v -3.5"
         style="fill:#000000;fill-opacity:1;fill-rule:nonzero;stroke:#000000;stroke-width:0.8;stroke-linecap:butt;stroke-linejoin:round;stroke-miterlimit:10;stroke-dasharray:none;stroke-opacity:1"
         id="path68" /><g
         id="g70"
         transform="translate(127.57833,228.04625)"><text
           transform="scale(1,-1)"
           style="font-variant:normal;font-weight:normal;font-size:10px;font-family:'DejaVu Sans';-inkscape-font-specification:DejaVuSans;writing-mode:lr-tb;fill:#000000;fill-opacity:1;fill-rule:nonzero;stroke:none"
           id="text74"><tspan
             x="0 6.3600001 9.54"
             y="0"
             id="tspan72">5.0</tspan></text></g></g><g
       id="g76"><g
         id="g78"
         clip-path="url(#clipPath82)"><path
           d="M 176.72239,242.64 V 356.4"
           style="fill:none;stroke:#b0b0b0;stroke-width:0.8;stroke-linecap:square;stroke-linejoin:round;stroke-miterlimit:10;stroke-dasharray:none;stroke-opacity:1"
           id="path84" /></g></g><g
       id="g86"><path
         d="m 176.72239,242.64 v -3.5"
         style="fill:#000000;fill-opacity:1;fill-rule:nonzero;stroke:#000000;stroke-width:0.8;stroke-linecap:butt;stroke-linejoin:round;stroke-miterlimit:10;stroke-dasharray:none;stroke-opacity:1"
         id="path88" /><g
         id="g90"
         transform="translate(168.76926,228.04625)"><text
           transform="scale(1,-1)"
           style="font-variant:normal;font-weight:normal;font-size:10px;font-family:'DejaVu Sans';-inkscape-font-specification:DejaVuSans;writing-mode:lr-tb;fill:#000000;fill-opacity:1;fill-rule:nonzero;stroke:none"
           id="text94"><tspan
             x="0 6.3600001 9.54"
             y="0"
             id="tspan92">7.5</tspan></text></g></g><g
       id="g96"><g
         id="g98"
         clip-path="url(#clipPath102)"><path
           d="M 217.91332,242.64 V 356.4"
           style="fill:none;stroke:#b0b0b0;stroke-width:0.8;stroke-linecap:square;stroke-linejoin:round;stroke-miterlimit:10;stroke-dasharray:none;stroke-opacity:1"
           id="path104" /></g></g><g
       id="g106"><path
         d="m 217.91332,242.64 v -3.5"
         style="fill:#000000;fill-opacity:1;fill-rule:nonzero;stroke:#000000;stroke-width:0.8;stroke-linecap:butt;stroke-linejoin:round;stroke-miterlimit:10;stroke-dasharray:none;stroke-opacity:1"
         id="path108" /><g
         id="g110"
         transform="translate(206.78051,228.04625)"><text
           transform="scale(1,-1)"
           style="font-variant:normal;font-weight:normal;font-size:10px;font-family:'DejaVu Sans';-inkscape-font-specification:DejaVuSans;writing-mode:lr-tb;fill:#000000;fill-opacity:1;fill-rule:nonzero;stroke:none"
           id="text114"><tspan
             x="0 6.3600001 12.72 15.9"
             y="0"
             id="tspan112">10.0</tspan></text></g></g><g
       id="g116"><g
         id="g118"
         clip-path="url(#clipPath122)"><path
           d="M 259.10425,242.64 V 356.4"
           style="fill:none;stroke:#b0b0b0;stroke-width:0.8;stroke-linecap:square;stroke-linejoin:round;stroke-miterlimit:10;stroke-dasharray:none;stroke-opacity:1"
           id="path124" /></g></g><g
       id="g126"><path
         d="m 259.10425,242.64 v -3.5"
         style="fill:#000000;fill-opacity:1;fill-rule:nonzero;stroke:#000000;stroke-width:0.8;stroke-linecap:butt;stroke-linejoin:round;stroke-miterlimit:10;stroke-dasharray:none;stroke-opacity:1"
         id="path128" /><g
         id="g130"
         transform="translate(247.97144,228.04625)"><text
           transform="scale(1,-1)"
           style="font-variant:normal;font-weight:normal;font-size:10px;font-family:'DejaVu Sans';-inkscape-font-specification:DejaVuSans;writing-mode:lr-tb;fill:#000000;fill-opacity:1;fill-rule:nonzero;stroke:none"
           id="text134"><tspan
             x="0 6.3600001 12.72 15.9"
             y="0"
             id="tspan132">12.5</tspan></text></g></g><g
       id="g136"><g
         id="g138"
         clip-path="url(#clipPath142)"><path
           d="M 300.29518,242.64 V 356.4"
           style="fill:none;stroke:#b0b0b0;stroke-width:0.8;stroke-linecap:square;stroke-linejoin:round;stroke-miterlimit:10;stroke-dasharray:none;stroke-opacity:1"
           id="path144" /></g></g><g
       id="g146"><path
         d="m 300.29518,242.64 v -3.5"
         style="fill:#000000;fill-opacity:1;fill-rule:nonzero;stroke:#000000;stroke-width:0.8;stroke-linecap:butt;stroke-linejoin:round;stroke-miterlimit:10;stroke-dasharray:none;stroke-opacity:1"
         id="path148" /><g
         id="g150"
         transform="translate(289.16237,228.04625)"><text
           transform="scale(1,-1)"
           style="font-variant:normal;font-weight:normal;font-size:10px;font-family:'DejaVu Sans';-inkscape-font-specification:DejaVuSans;writing-mode:lr-tb;fill:#000000;fill-opacity:1;fill-rule:nonzero;stroke:none"
           id="text154"><tspan
             x="0 6.3600001 12.72 15.9"
             y="0"
             id="tspan152">15.0</tspan></text></g></g><g
       id="g156"><g
         id="g158"
         clip-path="url(#clipPath162)"><path
           d="M 341.48612,242.64 V 356.4"
           style="fill:none;stroke:#b0b0b0;stroke-width:0.8;stroke-linecap:square;stroke-linejoin:round;stroke-miterlimit:10;stroke-dasharray:none;stroke-opacity:1"
           id="path164" /></g></g><g
       id="g166"><path
         d="m 341.48612,242.64 v -3.5"
         style="fill:#000000;fill-opacity:1;fill-rule:nonzero;stroke:#000000;stroke-width:0.8;stroke-linecap:butt;stroke-linejoin:round;stroke-miterlimit:10;stroke-dasharray:none;stroke-opacity:1"
         id="path168" /><g
         id="g170"
         transform="translate(330.3533,228.04625)"><text
           transform="scale(1,-1)"
           style="font-variant:normal;font-weight:normal;font-size:10px;font-family:'DejaVu Sans';-inkscape-font-specification:DejaVuSans;writing-mode:lr-tb;fill:#000000;fill-opacity:1;fill-rule:nonzero;stroke:none"
           id="text174"><tspan
             x="0 6.3600001 12.72 15.9"
             y="0"
             id="tspan172">17.5</tspan></text></g></g><g
       id="g176"><g
         id="g178"
         clip-path="url(#clipPath182)"><path
           d="M 382.67705,242.64 V 356.4"
           style="fill:none;stroke:#b0b0b0;stroke-width:0.8;stroke-linecap:square;stroke-linejoin:round;stroke-miterlimit:10;stroke-dasharray:none;stroke-opacity:1"
           id="path184" /></g></g><g
       id="g186"><path
         d="m 382.67705,242.64 v -3.5"
         style="fill:#000000;fill-opacity:1;fill-rule:nonzero;stroke:#000000;stroke-width:0.8;stroke-linecap:butt;stroke-linejoin:round;stroke-miterlimit:10;stroke-dasharray:none;stroke-opacity:1"
         id="path188" /><g
         id="g190"
         transform="translate(371.54424,228.04625)"><text
           transform="scale(1,-1)"
           style="font-variant:normal;font-weight:normal;font-size:10px;font-family:'DejaVu Sans';-inkscape-font-specification:DejaVuSans;writing-mode:lr-tb;fill:#000000;fill-opacity:1;fill-rule:nonzero;stroke:none"
           id="text194"><tspan
             x="0 6.3600001 12.72 15.9"
             y="0"
             id="tspan192">20.0</tspan></text></g><g
         id="g196"
         transform="translate(199.94457,214.37437)"><text
           transform="scale(1,-1)"
           style="font-variant:normal;font-weight:normal;font-size:10px;font-family:'DejaVu Sans';-inkscape-font-specification:DejaVuSans;writing-mode:lr-tb;fill:#000000;fill-opacity:1;fill-rule:nonzero;stroke:none"
           id="text200"><tspan
             x="0 6.8499999 13 15.78 19.700001 22.879999 26.780001 31.99"
             y="0"
             id="tspan198">Zeit [s]</tspan></text></g></g><g
       id="g202"><g
         id="g204"
         clip-path="url(#clipPath208)"><path
           d="M 53.14959,242.64 H 382.67705"
           style="fill:none;stroke:#b0b0b0;stroke-width:0.8;stroke-linecap:square;stroke-linejoin:round;stroke-miterlimit:10;stroke-dasharray:none;stroke-opacity:1"
           id="path210" /></g></g><g
       id="g212"><path
         d="m 53.14959,242.64 h -3.5"
         style="fill:#000000;fill-opacity:1;fill-rule:nonzero;stroke:#000000;stroke-width:0.8;stroke-linecap:butt;stroke-linejoin:round;stroke-miterlimit:10;stroke-dasharray:none;stroke-opacity:1"
         id="path214" /><g
         id="g216"
         transform="translate(21.86834,238.84312)"><text
           transform="matrix(1,0,0,-1,8.3789063,0)"
           style="font-variant:normal;font-weight:normal;font-size:10px;font-family:'DejaVu Sans';-inkscape-font-specification:DejaVuSans;writing-mode:lr-tb;fill:#000000;fill-opacity:1;fill-rule:nonzero;stroke:none"
           id="text220"><tspan
             x="0 6.3600001 9.54"
             y="0"
             id="tspan218">1.0</tspan></text><g
           id="g222"
           transform="scale(0.01)"><g
             id="g224"><g
               id="g226"
               clip-path="url(#clipPath230)"><path
                 d="M 106,355 H 732 V 272 H 106 Z"
                 style="fill:#000000;fill-opacity:1;fill-rule:nonzero;stroke:none"
                 id="path232" /></g></g></g></g></g><g
       id="g234"><g
         id="g236"
         clip-path="url(#clipPath240)"><path
           d="M 53.14959,271.08 H 382.67705"
           style="fill:none;stroke:#b0b0b0;stroke-width:0.8;stroke-linecap:square;stroke-linejoin:round;stroke-miterlimit:10;stroke-dasharray:none;stroke-opacity:1"
           id="path242" /></g></g><g
       id="g244"><path
         d="m 53.14959,271.08 h -3.5"
         style="fill:#000000;fill-opacity:1;fill-rule:nonzero;stroke:#000000;stroke-width:0.8;stroke-linecap:butt;stroke-linejoin:round;stroke-miterlimit:10;stroke-dasharray:none;stroke-opacity:1"
         id="path246" /><g
         id="g248"
         transform="translate(21.86834,267.28312)"><text
           transform="matrix(1,0,0,-1,8.3789063,0)"
           style="font-variant:normal;font-weight:normal;font-size:10px;font-family:'DejaVu Sans';-inkscape-font-specification:DejaVuSans;writing-mode:lr-tb;fill:#000000;fill-opacity:1;fill-rule:nonzero;stroke:none"
           id="text252"><tspan
             x="0 6.3600001 9.54"
             y="0"
             id="tspan250">0.5</tspan></text><g
           id="g254"
           transform="scale(0.01)"><g
             id="g256"><g
               id="g258"
               clip-path="url(#clipPath262)"><path
                 d="M 106,355 H 732 V 272 H 106 Z"
                 style="fill:#000000;fill-opacity:1;fill-rule:nonzero;stroke:none"
                 id="path264" /></g></g></g></g></g><g
       id="g266"><g
         id="g268"
         clip-path="url(#clipPath272)"><path
           d="M 53.14959,299.52 H 382.67705"
           style="fill:none;stroke:#b0b0b0;stroke-width:0.8;stroke-linecap:square;stroke-linejoin:round;stroke-miterlimit:10;stroke-dasharray:none;stroke-opacity:1"
           id="path274" /></g></g><g
       id="g276"><path
         d="m 53.14959,299.52 h -3.5"
         style="fill:#000000;fill-opacity:1;fill-rule:nonzero;stroke:#000000;stroke-width:0.8;stroke-linecap:butt;stroke-linejoin:round;stroke-miterlimit:10;stroke-dasharray:none;stroke-opacity:1"
         id="path278" /><g
         id="g280"
         transform="translate(30.24334,295.72312)"><text
           transform="scale(1,-1)"
           style="font-variant:normal;font-weight:normal;font-size:10px;font-family:'DejaVu Sans';-inkscape-font-specification:DejaVuSans;writing-mode:lr-tb;fill:#000000;fill-opacity:1;fill-rule:nonzero;stroke:none"
           id="text284"><tspan
             x="0 6.3600001 9.54"
             y="0"
             id="tspan282">0.0</tspan></text></g></g><g
       id="g286"><g
         id="g288"
         clip-path="url(#clipPath292)"><path
           d="M 53.14959,327.96 H 382.67705"
           style="fill:none;stroke:#b0b0b0;stroke-width:0.8;stroke-linecap:square;stroke-linejoin:round;stroke-miterlimit:10;stroke-dasharray:none;stroke-opacity:1"
           id="path294" /></g></g><g
       id="g296"><path
         d="m 53.14959,327.96 h -3.5"
         style="fill:#000000;fill-opacity:1;fill-rule:nonzero;stroke:#000000;stroke-width:0.8;stroke-linecap:butt;stroke-linejoin:round;stroke-miterlimit:10;stroke-dasharray:none;stroke-opacity:1"
         id="path298" /><g
         id="g300"
         transform="translate(30.24334,324.16312)"><text
           transform="scale(1,-1)"
           style="font-variant:normal;font-weight:normal;font-size:10px;font-family:'DejaVu Sans';-inkscape-font-specification:DejaVuSans;writing-mode:lr-tb;fill:#000000;fill-opacity:1;fill-rule:nonzero;stroke:none"
           id="text304"><tspan
             x="0 6.3600001 9.54"
             y="0"
             id="tspan302">0.5</tspan></text></g></g><g
       id="g306"><g
         id="g308"
         clip-path="url(#clipPath312)"><path
           d="M 53.14959,356.4 H 382.67705"
           style="fill:none;stroke:#b0b0b0;stroke-width:0.8;stroke-linecap:square;stroke-linejoin:round;stroke-miterlimit:10;stroke-dasharray:none;stroke-opacity:1"
           id="path314" /></g></g><g
       id="g316"><path
         d="m 53.14959,356.4 h -3.5"
         style="fill:#000000;fill-opacity:1;fill-rule:nonzero;stroke:#000000;stroke-width:0.8;stroke-linecap:butt;stroke-linejoin:round;stroke-miterlimit:10;stroke-dasharray:none;stroke-opacity:1"
         id="path318" /><g
         id="g320"
         transform="translate(30.24334,352.60312)"><text
           transform="scale(1,-1)"
           style="font-variant:normal;font-weight:normal;font-size:10px;font-family:'DejaVu Sans';-inkscape-font-specification:DejaVuSans;writing-mode:lr-tb;fill:#000000;fill-opacity:1;fill-rule:nonzero;stroke:none"
           id="text324"><tspan
             x="0 6.3600001 9.54"
             y="0"
             id="tspan322">1.0</tspan></text></g><g
         id="g326"
         transform="rotate(90,-116.32583,131.19417)"><text
           transform="matrix(1,0,0,-1,0,0.40625)"
           style="font-variant:normal;font-weight:normal;font-size:10px;font-family:'DejaVu Sans';-inkscape-font-specification:DejaVuSans;writing-mode:lr-tb;fill:#000000;fill-opacity:1;fill-rule:nonzero;stroke:none"
           id="text330"><tspan
             x="0 6.8408203 12.993164 17.104492 22.314453 27.8125 34.150391 36.928711 43.081055 49.428711 55.766602 62.104492 68.452148"
             y="0"
             id="tspan328">Verschiebung </tspan></text><text
           transform="matrix(1,0,0,-1,71.630859,0.40625)"
           style="font-style:italic;font-variant:normal;font-size:10px;font-family:'DejaVu Sans';-inkscape-font-specification:DejaVuSans-Oblique;writing-mode:lr-tb;fill:#000000;fill-opacity:1;fill-rule:nonzero;stroke:none"
           id="text334"><tspan
             x="0"
             y="0"
             id="tspan332">u</tspan></text><text
           transform="matrix(1,0,0,-1,77.96875,-1.234375)"
           style="font-variant:normal;font-weight:normal;font-size:7px;font-family:'DejaVu Sans';-inkscape-font-specification:DejaVuSans;writing-mode:lr-tb;fill:#000000;fill-opacity:1;fill-rule:nonzero;stroke:none"
           id="text338"><tspan
             x="0"
             y="0"
             id="tspan336">2</tspan></text><text
           transform="matrix(1,0,0,-1,85.874512,0.40625)"
           style="font-variant:normal;font-weight:normal;font-size:10px;font-family:'DejaVu Sans';-inkscape-font-specification:DejaVuSans;writing-mode:lr-tb;fill:#000000;fill-opacity:1;fill-rule:nonzero;stroke:none"
           id="text342"><tspan
             x="0 3.9013672 13.642578"
             y="0"
             id="tspan340">[m]</tspan></text></g></g><g
       id="g344"><g
         id="g346"
         clip-path="url(#clipPath350)"><path
           d="m 53.14959,315.24038 0.989572,-0.10818 0.989572,-0.32303 0.989572,-0.53346 1.319429,-1.0255 1.319429,-1.36113 1.31943,-1.66349 1.649286,-2.44198 1.979144,-3.33744 3.628431,-6.67796 2.968715,-5.28085 1.979144,-3.07752 1.649287,-2.14722 1.319429,-1.38443 1.319429,-1.05096 0.989572,-0.5536 0.989572,-0.34377 0.989572,-0.12921 0.989572,0.0871 0.989572,0.30227 0.989572,0.51324 1.319429,0.9999 1.31943,1.33764 1.319429,1.6427 1.649286,2.42055 1.979144,3.31944 3.298573,6.05654 3.298574,5.91143 1.979144,3.10042 1.64929,2.17217 1.31943,1.40755 1.31943,1.07629 0.98957,0.57367 0.98957,0.36446 0.98957,0.15023 0.98957,-0.0661 0.98957,-0.28145 0.98958,-0.49296 0.98957,-0.69769 1.31943,-1.23174 1.31943,-1.54821 1.64928,-2.32197 1.97915,-3.23468 2.96871,-5.39235 3.95829,-7.15858 1.97914,-3.12292 1.64929,-2.19683 1.31943,-1.4305 1.31943,-1.10147 0.98957,-0.59367 0.98957,-0.3851 0.98958,-0.17123 0.98957,0.045 0.98957,0.2606 0.98957,0.47262 0.98957,0.67813 1.31943,1.20735 1.31943,1.52628 1.64929,2.29886 1.97914,3.21436 2.63886,4.76524 4.28815,7.78919 1.97914,3.14502 1.64929,2.22121 1.31943,1.45324 1.31942,1.12652 0.98958,0.61358 0.98957,0.40569 0.98957,0.19221 0.98957,-0.0239 0.98957,-0.23971 0.98958,-0.45221 0.98957,-0.65848 1.31943,-1.1828 1.31943,-1.50416 1.64928,-2.27545 1.97915,-3.19362 2.63886,-4.75185 4.618,-8.36152 1.97914,-3.09079 1.64929,-2.16164 1.31943,-1.3978 1.31943,-1.06559 0.98957,-0.56518 0.98957,-0.35572 0.98957,-0.14134 0.98957,0.075 0.98958,0.29026 0.98957,0.50155 0.98957,0.70594 1.31943,1.242 1.31943,1.55742 1.64929,2.33167 1.97914,3.24315 2.96872,5.39769 3.95828,7.15126 1.97915,3.11345 1.64928,2.18643 1.31943,1.42082 1.31943,1.09083 0.98957,0.58522 0.98958,0.37637 0.98957,0.16235 0.98957,-0.0539 0.98957,-0.26942 0.98957,-0.48123 0.98958,-0.68642 1.31943,-1.21768 1.31942,-1.53559 1.64929,-2.30868 1.97914,-3.223 2.96872,-5.38485 3.95829,-7.1683 1.97914,-3.13572 1.64929,-2.21093 1.31943,-1.44364 1.31943,-1.11594 0.98957,-0.60517 0.98957,-0.39699 0.98957,-0.18333 0.98958,0.0328 0.98957,0.24855 0.98957,0.46086 0.98957,0.6668 1.31943,1.1932 1.31943,1.51355 1.64929,2.28539 1.97914,3.20245 2.63886,4.75759 4.28814,7.79811 1.97915,3.15757 1.64928,2.23514 1.31943,1.46629 1.31943,1.1409 0.98958,0.62504 0.98957,0.41754 0.98957,0.2043 0.98957,-0.0118 0.98957,-0.22765 0.98957,-0.44042 0.98958,-0.64711 1.31943,-1.16856 1.31942,-1.49131 1.64929,-2.2618 1.97915,-3.18147 2.63885,-4.74384 4.61801,-8.37156 1.97914,-3.10392 1.64929,-2.17598 1.31943,-1.41109 1.31943,-1.08017 0.98957,-0.57675 0.98957,-0.36764 0.98957,-0.15347 0.98957,0.0628 0.98958,0.27824 0.98957,0.48984 0.98957,0.69468 1.31943,1.228 1.31943,1.54484 1.64928,2.31844 1.97915,3.23159 2.96871,5.39036 3.95829,7.16121 1.97915,3.12635 1.64928,2.2006 1.31943,1.434 1.31943,1.10534 0.98957,0.59674 0.98957,0.38827 0.98958,0.17446 0.98957,-0.0417 0.98957,-0.25739 0.98957,-0.46948 0.98958,-0.67512 1.31942,-1.20358 1.31943,-1.52289 1.64929,-2.29528 1.97914,-3.2112 2.63886,-4.76322 4.28815,-7.7916 1.97914,-3.14838 1.64929,-2.22493 1.31943,-1.45673 1.31943,-1.13036 0.98957,-0.61664 0.98957,-0.40885 0.98957,-0.19543 0.98957,0.0207 0.98958,0.2365 0.98957,0.44906 0.98957,0.65546 1.31943,1.179 1.31943,1.50075 1.64928,2.27181 1.97915,3.19039 2.63886,4.74974 4.618,8.36424 1.97914,3.09429 1.64929,2.16548 1.31943,1.40135 1.31943,1.06948 0.98957,0.56828 0.98957,0.35889 0.98957,0.14457 0.98958,-0.0717 0.98957,-0.28706 0.98957,-0.49843 0.98957,-0.70294 1.31943,-1.23827 1.31943,-1.55408 1.64929,-2.32815 1.97914,-3.24007 1.64929,-2.95113 v 0"
           style="fill:none;stroke:#ff0000;stroke-width:1.5;stroke-linecap:butt;stroke-linejoin:round;stroke-miterlimit:10;stroke-dasharray:5.55, 2.4;stroke-dashoffset:0;stroke-opacity:1"
           id="path352" /></g></g><g
       id="g354"><g
         id="g356"
         clip-path="url(#clipPath360)"><path
           d="m 53.14959,283.79962 0.329857,0.0824 0.329858,0.24636 0.659714,0.97252 0.659715,1.57562 0.659715,2.11281 0.989571,3.97788 1.979144,9.42191 1.31943,5.95072 0.989572,3.57289 0.659714,1.76378 0.659715,1.18004 0.659714,0.54695 0.329858,0.0278 0.329857,-0.13688 0.329857,-0.30015 0.659715,-1.0759 0.659715,-1.66975 0.989572,-3.45925 1.319429,-5.86603 2.638858,-12.26411 0.989572,-3.46151 0.659715,-1.67161 0.659715,-1.07794 0.329857,-0.30123 0.329857,-0.13795 0.329858,0.0267 0.329857,0.19119 0.659714,0.86595 0.659715,1.47773 0.659715,2.02773 0.989572,3.88184 1.649286,7.7676 1.649287,7.63214 0.989572,3.68224 0.659714,1.85571 0.659715,1.28278 0.659715,0.6562 0.329857,0.0835 0.329857,-0.0813 0.329858,-0.24528 0.659714,-0.97046 0.659715,-1.57372 0.659715,-2.11117 0.989571,-3.97604 1.979144,-9.42104 1.31943,-5.9523 0.989572,-3.57507 0.659714,-1.7656 0.659715,-1.18206 0.659714,-0.54909 0.329858,-0.0289 0.329857,0.1358 0.329857,0.29908 0.659715,1.07385 0.659715,1.66789 0.989572,3.45699 1.319429,5.8643 2.638855,12.26583 0.98958,3.46377 0.65971,1.67347 0.65972,1.07998 0.32985,0.3023 0.32986,0.13904 0.32986,-0.0257 0.32985,-0.19011 0.65972,-0.86385 0.65971,-1.47581 0.65972,-2.02604 0.98957,-3.87992 1.64929,-7.76641 1.64928,-7.63368 0.98958,-3.68433 0.65971,-1.85748 0.65971,-1.28477 0.65972,-0.65833 0.32986,-0.0846 0.32985,0.0802 0.32986,0.2442 0.65971,0.96838 0.65972,1.57183 0.65972,2.10953 0.98957,3.97421 1.97914,9.42015 1.31943,5.95389 0.98957,3.57724 0.65972,1.76742 0.65971,1.18408 0.65972,0.55123 0.32985,0.03 0.32986,-0.1347 0.32986,-0.29802 0.65971,-1.0718 0.65972,-1.66603 0.98957,-3.45473 1.31943,-5.86257 2.63886,-12.26754 0.98957,-3.46603 0.65971,-1.67532 0.65972,-1.08203 0.32985,-0.30337 0.32986,-0.14012 0.32986,0.0246 0.32986,0.18903 0.65971,0.86176 0.65972,1.47388 0.65971,2.02435 0.98957,3.87799 1.64929,7.76522 1.64929,7.63521 0.98957,3.68642 0.65971,1.85926 0.65972,1.28676 0.65971,0.66045 0.32986,0.0857 0.32986,-0.0791 0.32985,-0.24312 0.65972,-0.96631 0.65971,-1.56993 0.65972,-2.10789 0.98957,-3.97238 1.97914,-9.41927 1.31943,-5.95546 0.98957,-3.57942 0.65972,-1.76923 0.65971,-1.1861 0.65972,-0.55337 0.32986,-0.0311 0.32985,0.13362 0.32986,0.29695 0.65971,1.06975 0.65972,1.66418 0.98957,3.45246 1.31943,5.86084 2.63886,12.26924 0.98957,3.46829 0.65972,1.67717 0.65971,1.08409 0.32986,0.30443 0.32985,0.14121 0.32986,-0.0235 0.32986,-0.18795 0.65971,-0.85966 0.65972,-1.47195 0.65971,-2.02266 0.98958,-3.87606 1.64928,-7.76403 1.64929,-7.63674 0.98957,-3.68851 0.65971,-1.86103 0.65972,-1.28875 0.65971,-0.66258 0.32986,-0.0867 0.32986,0.078 0.32986,0.24206 0.65971,0.96423 0.65972,1.56804 0.65971,2.10624 0.98957,3.97055 1.97915,9.41837 1.31943,5.95704 0.98957,3.58159 0.65971,1.77105 0.65972,1.18812 0.65971,0.55551 0.32986,0.0322 0.32986,-0.13254 0.32985,-0.29587 0.65972,-1.0677 0.65971,-1.66232 0.98957,-3.45019 1.31943,-5.85911 2.63886,-12.27095 0.98957,-3.47054 0.65972,-1.67902 0.65971,-1.08613 0.32986,-0.3055 0.32986,-0.1423 0.32986,0.0224 0.32985,0.18686 0.65972,0.85757 0.65971,1.47002 0.65972,2.02096 0.98957,3.87414 1.64928,7.76282 1.64929,7.63827 0.98957,3.6906 0.65972,1.8628 0.65971,1.29074 0.65972,0.66471 0.32985,0.0878 0.32986,-0.077 0.32986,-0.24098 0.65971,-0.96216 0.65972,-1.56614 0.65971,-2.1046 0.98958,-3.9687 1.97914,-9.41748 1.31943,-5.95862 0.98957,-3.58376 0.65972,-1.77286 0.65971,-1.19014 0.65971,-0.55765 0.32986,-0.0333 0.32986,0.13145 0.32986,0.29481 0.65971,1.06565 0.65972,1.66045 0.98957,3.44793 1.31943,5.85737 2.63885,12.27264 0.98958,3.47279 0.65971,1.68089 0.65972,1.08817 0.32985,0.30657 0.32986,0.14338 0.32986,-0.0213 0.32986,-0.18578 0.65971,-0.85548 0.65971,-1.46808 0.65972,-2.01928 0.98957,-3.8722 1.64929,-7.76162 1.64928,-7.63979 0.98958,-3.69269 0.65971,-1.86456 0.65972,-1.29274 0.65971,-0.66684 0.32986,-0.0889 0.32985,0.0759 0.32986,0.2399 0.65972,0.96009 0.65971,1.56424 0.65972,2.10296 0.98957,3.96686 1.97914,9.41658 1.31943,5.96019 0.98957,3.58593 0.65972,1.77467 0.65971,1.19216 0.65972,0.55979 0.32986,0.0344 0.32985,-0.13037 0.32986,-0.29374 0.65971,-1.06359 0.65972,-1.6586 0.98957,-3.44565 1.31943,-5.85564 2.63886,-12.27432 0.98957,-3.47505 0.65971,-1.68273 0.65972,-1.09022 0.32986,-0.30764 0.32985,-0.14446 0.32986,0.0202 0.32986,0.1847 0.65971,0.85338 0.65972,1.46615 0.65971,2.01758 0.98957,3.87028 1.64929,7.76041 1.64929,7.6413 0.98957,3.69478 0.65971,1.86634 0.65972,1.29472 0.65971,0.66896 0.32986,0.09 0.32986,-0.0748 0.32986,-0.23883 0.65971,-0.95801 0.65971,-1.56234 0.65972,-2.10132 0.98957,-3.96502 1.97914,-9.41567 1.31943,-5.96176 0.98958,-3.58809 0.65971,-1.77649 0.65972,-1.19418 0.65971,-0.56193 0.32986,-0.0355 0.32985,0.12929 0.32986,0.29267 0.65972,1.06154 0.65971,1.65673 0.98957,3.44339 1.31943,5.85389 2.63886,12.27601 0.98957,3.4773 0.65972,1.68458 0.65971,1.09226 0.32986,0.30871 0.32986,0.14554 0.32985,-0.0191 0.32986,-0.18362 0.65972,-0.85129 0.65971,-1.46421 0.65972,-2.0159 0.98957,-3.86834 1.64928,-7.7592 1.64929,-7.64282 0.98957,-3.69685 0.65972,-1.86811 0.65971,-1.29672 0.65972,-0.67108 0.32985,-0.0911 0.32986,0.0737 0.32986,0.23775 0.65971,0.95594 0.65972,1.56044 0.65971,2.09966 0.98957,3.96318 1.64929,7.81559 1.64929,7.5625 0.98957,3.59026 0.65971,1.7783 0.65972,1.1962 0.65971,0.56407 0.32986,0.0365 0.32986,-0.1282 0.32986,-0.2916 0.65971,-1.05949 0.65972,-1.65487 0.98957,-3.44111 1.31943,-5.85215 2.63885,-12.27769 0.98958,-3.47954 0.65971,-1.68644 0.65972,-1.0943 0.32985,-0.30977 0.32986,-0.14663 0.32986,0.018 0.32985,0.18254 0.65972,0.84919 0.65971,1.46227 0.65972,2.0142 0.98957,3.86641 1.64929,7.75798 1.64928,7.64433 0.98958,3.69894 0.65971,1.86988 0.65971,1.2987 0.65972,0.67322 0.32986,0.0922 0.32985,-0.0726 0.32986,-0.23668 0.65972,-0.95386 0.65971,-1.55854 0.65972,-2.09802 0.98957,-3.96133 1.64928,-7.81455 1.64929,-7.56419 0.98957,-3.59243 0.65972,-1.7801 0.65971,-1.19822 0.65972,-0.56621 0.32985,-0.0376 0.32986,0.12711 0.32986,0.29053 0.65971,1.05744 0.65972,1.65301 0.98957,3.43884 1.31943,5.8504 2.63886,12.27936 0.98957,3.48178 0.65971,1.68829 0.65972,1.09635 0.32986,0.31084 0.32985,0.14771 0.32986,-0.017 0.32986,-0.18146 0.65971,-0.84709 0.65972,-1.46034 0.65971,-2.01251 0.98957,-3.86446 1.64929,-7.75677 1.64929,-7.64584 0.98957,-3.70102 0.65971,-1.87164 0.65972,-1.30069 0.65971,-0.67534 0.32986,-0.0933 0.32986,0.0715 0.32985,0.2356 0.65972,0.95179 0.65971,1.55663 0.65972,2.09638 0.98957,3.95948 1.64929,7.81351 1.64928,7.56587 0.98958,3.5946 0.65971,1.78191 0.65972,1.20023 0.65971,0.56835 0.32986,0.0387 0.32985,-0.12603 0.32986,-0.28946 0.65972,-1.05538 0.65971,-1.65114 0.98957,-3.43657 1.31943,-5.84865 2.63886,-12.28102 0.98957,-3.48404 0.65972,-1.69013 0.65971,-1.09839 0.32986,-0.31191 0.32986,-0.1488 0.32985,0.0159 0.32986,0.18038 0.65972,0.845 0.65971,1.4584 0.65971,2.01081 0.98958,3.86253 1.64928,7.75555 0.65972,3.18821 v 0"
           style="fill:none;stroke:#008000;stroke-width:1.5;stroke-linecap:butt;stroke-linejoin:round;stroke-miterlimit:10;stroke-dasharray:1.5, 2.475;stroke-dashoffset:0;stroke-opacity:1"
           id="path362" /></g></g><g
       id="g364"><g
         id="g366"
         clip-path="url(#clipPath370)"><path
           d="m 53.14959,299.52 0.329857,0.0704 0.329858,0.21028 0.659714,0.82849 0.659715,1.33655 0.989572,2.81036 1.319429,4.75068 1.979144,7.33107 0.989572,2.82827 0.659715,1.31042 0.659714,0.74363 0.329858,0.13723 0.329857,-0.0279 0.329857,-0.19762 0.329857,-0.3702 0.659715,-1.26099 0.659715,-1.94255 0.659714,-2.58508 0.989572,-4.93341 1.31943,-8.031 2.968715,-19.10196 0.989572,-5.05966 0.989572,-3.76759 0.659715,-1.67268 0.659715,-0.95388 0.329857,-0.20323 0.329857,-0.022 0.329857,0.15602 0.329858,0.32925 0.659714,1.15079 0.659715,1.74633 0.989572,3.53029 1.319429,5.79745 2.309001,10.22999 0.989572,3.3482 0.659715,1.64809 0.659715,1.1122 0.659714,0.54608 0.329858,0.0586 0.329857,-0.0821 0.659715,-0.5696 0.659714,-1.06659 0.659715,-1.49092 0.989572,-2.82405 2.638858,-8.16498 0.659715,-1.51167 0.659715,-1.07316 0.659714,-0.54684 0.329858,-0.0544 0.329857,0.10024 0.329857,0.25931 0.659715,1.0053 0.659714,1.65282 0.659715,2.27471 0.989572,4.45693 1.319429,7.43268 3.29857,19.89875 0.98958,4.49013 0.65971,2.25487 0.65972,1.57488 0.65971,0.8467 0.32986,0.14264 0.32985,-0.0451 0.32986,-0.231 0.65972,-1.00408 0.65971,-1.68396 0.65971,-2.29069 0.98958,-4.36058 1.64928,-8.72671 1.97915,-10.31319 0.98957,-4.11099 0.65971,-2.13177 0.65972,-1.57244 0.65971,-0.97999 0.32986,-0.26483 0.32986,-0.11654 0.32985,0.0283 0.32986,0.16806 0.65972,0.72732 0.65971,1.18776 0.98957,2.44113 3.29858,9.07681 0.65971,1.08378 0.65972,0.60137 0.32985,0.098 0.32986,-0.0458 0.32986,-0.19418 0.65971,-0.84334 0.65972,-1.44955 0.65971,-2.03141 0.98957,-4.02047 1.31943,-6.72713 2.96872,-16.14302 0.98957,-4.10344 0.65972,-2.03735 0.65971,-1.38 0.32986,-0.42437 0.32985,-0.24034 0.32986,-0.0532 0.32986,0.13524 0.32986,0.32326 0.65971,1.20014 0.65972,1.90365 0.65971,2.54289 0.98957,4.81515 1.31943,7.68217 2.63886,15.66339 0.98957,4.64006 0.98957,3.44027 0.65972,1.53112 0.65971,0.8924 0.32986,0.2075 0.32986,0.0522 0.32986,-0.0981 0.65971,-0.61963 0.65971,-1.12354 0.98958,-2.42725 1.64928,-5.07162 1.31943,-3.85611 0.98957,-2.14987 0.65972,-0.89634 0.65971,-0.38361 0.32986,0.0154 0.32986,0.15838 0.65971,0.74993 0.65972,1.3178 0.65971,1.85068 0.98957,3.63669 1.31943,5.96724 2.309,10.79571 0.98958,3.62215 0.65971,1.78355 0.65972,1.17141 0.32985,0.33425 0.32986,0.15798 0.32986,-0.0227 0.32985,-0.20601 0.32986,-0.3903 0.65972,-1.32851 0.65971,-2.03334 0.65972,-2.68389 0.98957,-5.06643 1.31943,-8.12238 2.96871,-18.77592 0.98957,-4.82683 0.65972,-2.51185 0.65971,-1.87184 0.65972,-1.19673 0.32986,-0.34172 0.32985,-0.17225 0.32986,-0.006 0.32986,0.155 0.65971,0.76536 0.65972,1.31122 0.98957,2.78494 1.31943,4.63849 1.64929,5.85922 0.98957,2.8147 0.65971,1.37131 0.65972,0.88053 0.32985,0.24029 0.32986,0.10165 0.32986,-0.0389 0.32986,-0.17968 0.65971,-0.77416 0.65971,-1.29817 0.65972,-1.76524 0.98957,-3.34337 3.62843,-13.49313 0.65972,-1.57843 0.65971,-1.03251 0.32986,-0.2869 0.32986,-0.12372 0.32985,0.0452 0.32986,0.21822 0.32986,0.39364 0.65971,1.31447 0.65972,2.00158 0.65971,2.64581 0.98957,5.01998 1.31943,8.12269 2.96872,19.15435 0.98957,5.03472 0.98957,3.73336 0.65972,1.65014 0.65971,0.93575 0.32986,0.19698 0.32986,0.0183 0.32985,-0.15685 0.32986,-0.32674 0.65972,-1.13409 0.65971,-1.71178 0.98957,-3.44015 1.64929,-7.0728 1.64929,-6.99065 0.98957,-3.36257 0.65971,-1.69275 0.65972,-1.17614 0.65971,-0.62096 0.32986,-0.0975 0.32986,0.0437 0.32985,0.18223 0.65972,0.76092 0.65971,1.24232 0.98957,2.59294 1.64929,5.38798 1.31943,4.16411 0.98957,2.38416 0.65972,1.03169 0.65971,0.48363 0.32986,0.0157 0.32986,-0.14308 0.32985,-0.30577 0.65972,-1.10705 0.65971,-1.76281 0.65972,-2.38873 0.98957,-4.62674 1.31943,-7.63845 3.29857,-20.2116 0.98957,-4.52673 0.65972,-2.26986 0.65971,-1.58578 0.65972,-0.85684 0.32985,-0.14851 0.32986,0.0381 0.32986,0.22246 0.65972,0.98063 0.65971,1.64942 0.65971,2.24231 0.98958,4.25744 1.64928,8.46457 1.64929,8.37338 0.98957,4.16567 0.98957,3.11781 0.65972,1.39058 0.65971,0.80314 0.32986,0.17975 0.32986,0.0345 0.32985,-0.10683 0.65972,-0.61349 0.65971,-1.09164 0.98957,-2.34373 1.64929,-4.86994 1.31943,-3.64995 0.65972,-1.408 0.65971,-0.98863 0.65971,-0.4845 0.32986,-0.0326 0.32986,0.11525 0.32986,0.26707 0.65971,0.99727 0.65972,1.61056 0.65971,2.195 0.98957,4.26119 1.31943,7.01962 2.96872,16.5909 0.98957,4.18227 0.65971,2.07404 0.65972,1.40703 0.32986,0.43523 0.32985,0.24996 0.32986,0.062 0.32986,-0.12679 0.32986,-0.31474 0.65971,-1.18116 0.65971,-1.87934 0.65972,-2.51025 0.98957,-4.74516 1.64929,-9.53331 1.97914,-11.52745 0.98957,-4.77768 0.98958,-3.65893 0.65971,-1.70811 0.65971,-1.0837 0.32986,-0.30561 0.32986,-0.15041 0.32986,9.6e-4 0.32985,0.14688 0.65972,0.70199 0.65971,1.18296 0.98958,2.46747 3.29857,9.40898 0.65971,1.19637 0.65972,0.73245 0.32985,0.17113 0.32986,0.0328 0.32986,-0.10985 0.32986,-0.25506 0.65971,-0.9477 0.65972,-1.51744 0.65971,-2.04751 0.98957,-3.91711 1.31943,-6.29407 2.309,-11.18661 0.98958,-3.71422 0.65971,-1.82248 0.65971,-1.1951 0.32986,-0.34127 0.32986,-0.16235 0.32986,0.0206 0.32985,0.20572 0.32986,0.39136 0.65972,1.33291 0.65971,2.03783 0.65971,2.68513 0.98958,5.05581 1.31943,8.07362 2.63885,16.69388 0.98958,5.07291 0.98957,3.8608 0.65971,1.78929 0.65972,1.12145 0.32986,0.30809 0.32985,0.14194 0.32986,-0.0204 0.32986,-0.17722 0.65971,-0.7953 0.65972,-1.3193 0.98957,-2.75087 1.64928,-5.66834 1.31943,-4.37044 0.98958,-2.55498 0.65971,-1.17674 0.65972,-0.67366 0.32985,-0.13368 0.32986,0.006 0.32986,0.14754 0.65971,0.71562 0.65972,1.25419 0.65971,1.74362 0.98957,3.36745 1.64929,6.75164 1.64929,6.48867 0.98957,2.93847 0.65971,1.32831 0.65972,0.72279 0.32985,0.11421 0.32986,-0.0582 0.32986,-0.23426 0.32986,-0.41226 0.65971,-1.35752 0.65972,-2.04917 0.65971,-2.69422 0.98957,-5.08667 1.31943,-8.18615 2.96872,-19.14326 0.98957,-4.99096 0.98957,-3.68241 0.65972,-1.61781 0.65971,-0.90905 0.32986,-0.18691 0.32986,-0.011 0.32985,0.16087 0.32986,0.32707 0.65971,1.12219 0.65972,1.68078 0.98957,3.35318 1.64929,6.81161 1.64929,6.59222 0.98957,3.07241 0.65971,1.48555 0.65972,0.9631 0.65971,0.40683 0.32986,-0.008 0.32985,-0.14812 0.65972,-0.70028 0.65971,-1.19828 0.98958,-2.57297 1.31943,-4.35899 1.97914,-6.56559 0.98957,-2.38044 0.65972,-0.99893 0.32985,-0.29035 0.32986,-0.13951 0.32986,0.018 0.32985,0.18072 0.32986,0.34687 0.65972,1.19753 0.65971,1.8609 0.65972,2.49031 0.98957,4.77711 1.31943,7.81769 3.29857,20.46382 0.98957,4.54923 0.65972,2.27699 0.65971,1.59015 0.65972,0.86187 0.32985,0.15238 0.32986,-0.0327 0.32986,-0.21517 0.65971,-0.95861 0.65972,-1.61489 0.65971,-2.19257 0.98957,-4.14987 1.64929,-8.18977 1.64929,-7.98753 0.98957,-3.89546 0.65971,-2.02122 0.65972,-1.48443 0.65971,-0.91055 0.32986,-0.23579 0.32986,-0.0906 0.32986,0.0517 0.32985,0.18942 0.65972,0.7658 0.65971,1.22355 0.98957,2.49608 1.97915,5.96516 v 0"
           style="fill:none;stroke:#1f77b4;stroke-width:1.5;stroke-linecap:square;stroke-linejoin:round;stroke-miterlimit:10;stroke-dasharray:none;stroke-opacity:1"
           id="path372" /></g></g><g
       id="g374"><path
         d="M 53.14959,242.64 V 356.4"
         style="fill:none;stroke:#000000;stroke-width:0.8;stroke-linecap:square;stroke-linejoin:miter;stroke-miterlimit:10;stroke-dasharray:none;stroke-opacity:1"
         id="path376" /><path
         d="M 382.67705,242.64 V 356.4"
         style="fill:none;stroke:#000000;stroke-width:0.8;stroke-linecap:square;stroke-linejoin:miter;stroke-miterlimit:10;stroke-dasharray:none;stroke-opacity:1"
         id="path378" /><path
         d="M 53.14959,242.64 H 382.67705"
         style="fill:none;stroke:#000000;stroke-width:0.8;stroke-linecap:square;stroke-linejoin:miter;stroke-miterlimit:10;stroke-dasharray:none;stroke-opacity:1"
         id="path380" /><path
         d="M 53.14959,356.4 H 382.67705"
         style="fill:none;stroke:#000000;stroke-width:0.8;stroke-linecap:square;stroke-linejoin:miter;stroke-miterlimit:10;stroke-dasharray:none;stroke-opacity:1"
         id="path382" /><path
         d="M 53.14959,72 H 382.67705 V 185.76 H 53.14959 Z"
         style="fill:#ffffff;fill-opacity:1;fill-rule:nonzero;stroke:none"
         id="path384" /></g><g
       id="g386"><g
         id="g388"
         clip-path="url(#clipPath392)"><path
           d="M 53.14959,72 V 185.76"
           style="fill:none;stroke:#b0b0b0;stroke-width:0.8;stroke-linecap:square;stroke-linejoin:round;stroke-miterlimit:10;stroke-dasharray:none;stroke-opacity:1"
           id="path394" /></g></g><g
       id="g396"><path
         d="M 53.14959,72 V 68.5"
         style="fill:#000000;fill-opacity:1;fill-rule:nonzero;stroke:#000000;stroke-width:0.8;stroke-linecap:butt;stroke-linejoin:round;stroke-miterlimit:10;stroke-dasharray:none;stroke-opacity:1"
         id="path398" /><g
         id="g400"
         transform="translate(45.196465,57.40625)"><text
           transform="scale(1,-1)"
           style="font-variant:normal;font-weight:normal;font-size:10px;font-family:'DejaVu Sans';-inkscape-font-specification:DejaVuSans;writing-mode:lr-tb;fill:#000000;fill-opacity:1;fill-rule:nonzero;stroke:none"
           id="text404"><tspan
             x="0 6.3600001 9.54"
             y="0"
             id="tspan402">0.0</tspan></text></g></g><g
       id="g406"><g
         id="g408"
         clip-path="url(#clipPath412)"><path
           d="M 94.340522,72 V 185.76"
           style="fill:none;stroke:#b0b0b0;stroke-width:0.8;stroke-linecap:square;stroke-linejoin:round;stroke-miterlimit:10;stroke-dasharray:none;stroke-opacity:1"
           id="path414" /></g></g><g
       id="g416"><path
         d="M 94.340522,72 V 68.5"
         style="fill:#000000;fill-opacity:1;fill-rule:nonzero;stroke:#000000;stroke-width:0.8;stroke-linecap:butt;stroke-linejoin:round;stroke-miterlimit:10;stroke-dasharray:none;stroke-opacity:1"
         id="path418" /><g
         id="g420"
         transform="translate(86.387397,57.40625)"><text
           transform="scale(1,-1)"
           style="font-variant:normal;font-weight:normal;font-size:10px;font-family:'DejaVu Sans';-inkscape-font-specification:DejaVuSans;writing-mode:lr-tb;fill:#000000;fill-opacity:1;fill-rule:nonzero;stroke:none"
           id="text424"><tspan
             x="0 6.3600001 9.54"
             y="0"
             id="tspan422">2.5</tspan></text></g></g><g
       id="g426"><g
         id="g428"
         clip-path="url(#clipPath432)"><path
           d="M 135.53145,72 V 185.76"
           style="fill:none;stroke:#b0b0b0;stroke-width:0.8;stroke-linecap:square;stroke-linejoin:round;stroke-miterlimit:10;stroke-dasharray:none;stroke-opacity:1"
           id="path434" /></g></g><g
       id="g436"><path
         d="M 135.53145,72 V 68.5"
         style="fill:#000000;fill-opacity:1;fill-rule:nonzero;stroke:#000000;stroke-width:0.8;stroke-linecap:butt;stroke-linejoin:round;stroke-miterlimit:10;stroke-dasharray:none;stroke-opacity:1"
         id="path438" /><g
         id="g440"
         transform="translate(127.57833,57.40625)"><text
           transform="scale(1,-1)"
           style="font-variant:normal;font-weight:normal;font-size:10px;font-family:'DejaVu Sans';-inkscape-font-specification:DejaVuSans;writing-mode:lr-tb;fill:#000000;fill-opacity:1;fill-rule:nonzero;stroke:none"
           id="text444"><tspan
             x="0 6.3600001 9.54"
             y="0"
             id="tspan442">5.0</tspan></text></g></g><g
       id="g446"><g
         id="g448"
         clip-path="url(#clipPath452)"><path
           d="M 176.72239,72 V 185.76"
           style="fill:none;stroke:#b0b0b0;stroke-width:0.8;stroke-linecap:square;stroke-linejoin:round;stroke-miterlimit:10;stroke-dasharray:none;stroke-opacity:1"
           id="path454" /></g></g><g
       id="g456"><path
         d="M 176.72239,72 V 68.5"
         style="fill:#000000;fill-opacity:1;fill-rule:nonzero;stroke:#000000;stroke-width:0.8;stroke-linecap:butt;stroke-linejoin:round;stroke-miterlimit:10;stroke-dasharray:none;stroke-opacity:1"
         id="path458" /><g
         id="g460"
         transform="translate(168.76926,57.40625)"><text
           transform="scale(1,-1)"
           style="font-variant:normal;font-weight:normal;font-size:10px;font-family:'DejaVu Sans';-inkscape-font-specification:DejaVuSans;writing-mode:lr-tb;fill:#000000;fill-opacity:1;fill-rule:nonzero;stroke:none"
           id="text464"><tspan
             x="0 6.3600001 9.54"
             y="0"
             id="tspan462">7.5</tspan></text></g></g><g
       id="g466"><g
         id="g468"
         clip-path="url(#clipPath472)"><path
           d="M 217.91332,72 V 185.76"
           style="fill:none;stroke:#b0b0b0;stroke-width:0.8;stroke-linecap:square;stroke-linejoin:round;stroke-miterlimit:10;stroke-dasharray:none;stroke-opacity:1"
           id="path474" /></g></g><g
       id="g476"><path
         d="M 217.91332,72 V 68.5"
         style="fill:#000000;fill-opacity:1;fill-rule:nonzero;stroke:#000000;stroke-width:0.8;stroke-linecap:butt;stroke-linejoin:round;stroke-miterlimit:10;stroke-dasharray:none;stroke-opacity:1"
         id="path478" /><g
         id="g480"
         transform="translate(206.78051,57.40625)"><text
           transform="scale(1,-1)"
           style="font-variant:normal;font-weight:normal;font-size:10px;font-family:'DejaVu Sans';-inkscape-font-specification:DejaVuSans;writing-mode:lr-tb;fill:#000000;fill-opacity:1;fill-rule:nonzero;stroke:none"
           id="text484"><tspan
             x="0 6.3600001 12.72 15.9"
             y="0"
             id="tspan482">10.0</tspan></text></g></g><g
       id="g486"><g
         id="g488"
         clip-path="url(#clipPath492)"><path
           d="M 259.10425,72 V 185.76"
           style="fill:none;stroke:#b0b0b0;stroke-width:0.8;stroke-linecap:square;stroke-linejoin:round;stroke-miterlimit:10;stroke-dasharray:none;stroke-opacity:1"
           id="path494" /></g></g><g
       id="g496"><path
         d="M 259.10425,72 V 68.5"
         style="fill:#000000;fill-opacity:1;fill-rule:nonzero;stroke:#000000;stroke-width:0.8;stroke-linecap:butt;stroke-linejoin:round;stroke-miterlimit:10;stroke-dasharray:none;stroke-opacity:1"
         id="path498" /><g
         id="g500"
         transform="translate(247.97144,57.40625)"><text
           transform="scale(1,-1)"
           style="font-variant:normal;font-weight:normal;font-size:10px;font-family:'DejaVu Sans';-inkscape-font-specification:DejaVuSans;writing-mode:lr-tb;fill:#000000;fill-opacity:1;fill-rule:nonzero;stroke:none"
           id="text504"><tspan
             x="0 6.3600001 12.72 15.9"
             y="0"
             id="tspan502">12.5</tspan></text></g></g><g
       id="g506"><g
         id="g508"
         clip-path="url(#clipPath512)"><path
           d="M 300.29518,72 V 185.76"
           style="fill:none;stroke:#b0b0b0;stroke-width:0.8;stroke-linecap:square;stroke-linejoin:round;stroke-miterlimit:10;stroke-dasharray:none;stroke-opacity:1"
           id="path514" /></g></g><g
       id="g516"><path
         d="M 300.29518,72 V 68.5"
         style="fill:#000000;fill-opacity:1;fill-rule:nonzero;stroke:#000000;stroke-width:0.8;stroke-linecap:butt;stroke-linejoin:round;stroke-miterlimit:10;stroke-dasharray:none;stroke-opacity:1"
         id="path518" /><g
         id="g520"
         transform="translate(289.16237,57.40625)"><text
           transform="scale(1,-1)"
           style="font-variant:normal;font-weight:normal;font-size:10px;font-family:'DejaVu Sans';-inkscape-font-specification:DejaVuSans;writing-mode:lr-tb;fill:#000000;fill-opacity:1;fill-rule:nonzero;stroke:none"
           id="text524"><tspan
             x="0 6.3600001 12.72 15.9"
             y="0"
             id="tspan522">15.0</tspan></text></g></g><g
       id="g526"><g
         id="g528"
         clip-path="url(#clipPath532)"><path
           d="M 341.48612,72 V 185.76"
           style="fill:none;stroke:#b0b0b0;stroke-width:0.8;stroke-linecap:square;stroke-linejoin:round;stroke-miterlimit:10;stroke-dasharray:none;stroke-opacity:1"
           id="path534" /></g></g><g
       id="g536"><path
         d="M 341.48612,72 V 68.5"
         style="fill:#000000;fill-opacity:1;fill-rule:nonzero;stroke:#000000;stroke-width:0.8;stroke-linecap:butt;stroke-linejoin:round;stroke-miterlimit:10;stroke-dasharray:none;stroke-opacity:1"
         id="path538" /><g
         id="g540"
         transform="translate(330.3533,57.40625)"><text
           transform="scale(1,-1)"
           style="font-variant:normal;font-weight:normal;font-size:10px;font-family:'DejaVu Sans';-inkscape-font-specification:DejaVuSans;writing-mode:lr-tb;fill:#000000;fill-opacity:1;fill-rule:nonzero;stroke:none"
           id="text544"><tspan
             x="0 6.3600001 12.72 15.9"
             y="0"
             id="tspan542">17.5</tspan></text></g></g><g
       id="g546"><g
         id="g548"
         clip-path="url(#clipPath552)"><path
           d="M 382.67705,72 V 185.76"
           style="fill:none;stroke:#b0b0b0;stroke-width:0.8;stroke-linecap:square;stroke-linejoin:round;stroke-miterlimit:10;stroke-dasharray:none;stroke-opacity:1"
           id="path554" /></g></g><g
       id="g556"><path
         d="M 382.67705,72 V 68.5"
         style="fill:#000000;fill-opacity:1;fill-rule:nonzero;stroke:#000000;stroke-width:0.8;stroke-linecap:butt;stroke-linejoin:round;stroke-miterlimit:10;stroke-dasharray:none;stroke-opacity:1"
         id="path558" /><g
         id="g560"
         transform="translate(371.54424,57.40625)"><text
           transform="scale(1,-1)"
           style="font-variant:normal;font-weight:normal;font-size:10px;font-family:'DejaVu Sans';-inkscape-font-specification:DejaVuSans;writing-mode:lr-tb;fill:#000000;fill-opacity:1;fill-rule:nonzero;stroke:none"
           id="text564"><tspan
             x="0 6.3600001 12.72 15.9"
             y="0"
             id="tspan562">20.0</tspan></text></g><g
         id="g566"
         transform="translate(199.94457,43.734375)"><text
           transform="scale(1,-1)"
           style="font-variant:normal;font-weight:normal;font-size:10px;font-family:'DejaVu Sans';-inkscape-font-specification:DejaVuSans;writing-mode:lr-tb;fill:#000000;fill-opacity:1;fill-rule:nonzero;stroke:none"
           id="text570"><tspan
             x="0 6.8499999 13 15.78 19.700001 22.879999 26.780001 31.99"
             y="0"
             id="tspan568">Zeit [s]</tspan></text></g></g><g
       id="g572"><g
         id="g574"
         clip-path="url(#clipPath578)"><path
           d="M 53.14959,72 H 382.67705"
           style="fill:none;stroke:#b0b0b0;stroke-width:0.8;stroke-linecap:square;stroke-linejoin:round;stroke-miterlimit:10;stroke-dasharray:none;stroke-opacity:1"
           id="path580" /></g></g><g
       id="g582"><path
         d="m 53.14959,72 h -3.5"
         style="fill:#000000;fill-opacity:1;fill-rule:nonzero;stroke:#000000;stroke-width:0.8;stroke-linecap:butt;stroke-linejoin:round;stroke-miterlimit:10;stroke-dasharray:none;stroke-opacity:1"
         id="path584" /><g
         id="g586"
         transform="translate(21.86834,68.203125)"><text
           transform="matrix(1,0,0,-1,8.3789063,0)"
           style="font-variant:normal;font-weight:normal;font-size:10px;font-family:'DejaVu Sans';-inkscape-font-specification:DejaVuSans;writing-mode:lr-tb;fill:#000000;fill-opacity:1;fill-rule:nonzero;stroke:none"
           id="text590"><tspan
             x="0 6.3600001 9.54"
             y="0"
             id="tspan588">1.0</tspan></text><g
           id="g592"
           transform="scale(0.01)"><g
             id="g594"><g
               id="g596"
               clip-path="url(#clipPath600)"><path
                 d="M 106,355 H 732 V 272 H 106 Z"
                 style="fill:#000000;fill-opacity:1;fill-rule:nonzero;stroke:none"
                 id="path602" /></g></g></g></g></g><g
       id="g604"><g
         id="g606"
         clip-path="url(#clipPath610)"><path
           d="M 53.14959,100.44 H 382.67705"
           style="fill:none;stroke:#b0b0b0;stroke-width:0.8;stroke-linecap:square;stroke-linejoin:round;stroke-miterlimit:10;stroke-dasharray:none;stroke-opacity:1"
           id="path612" /></g></g><g
       id="g614"><path
         d="m 53.14959,100.44 h -3.5"
         style="fill:#000000;fill-opacity:1;fill-rule:nonzero;stroke:#000000;stroke-width:0.8;stroke-linecap:butt;stroke-linejoin:round;stroke-miterlimit:10;stroke-dasharray:none;stroke-opacity:1"
         id="path616" /><g
         id="g618"
         transform="translate(21.86834,96.643125)"><text
           transform="matrix(1,0,0,-1,8.3789063,0)"
           style="font-variant:normal;font-weight:normal;font-size:10px;font-family:'DejaVu Sans';-inkscape-font-specification:DejaVuSans;writing-mode:lr-tb;fill:#000000;fill-opacity:1;fill-rule:nonzero;stroke:none"
           id="text622"><tspan
             x="0 6.3600001 9.54"
             y="0"
             id="tspan620">0.5</tspan></text><g
           id="g624"
           transform="scale(0.01)"><g
             id="g626"><g
               id="g628"
               clip-path="url(#clipPath632)"><path
                 d="M 106,355 H 732 V 272 H 106 Z"
                 style="fill:#000000;fill-opacity:1;fill-rule:nonzero;stroke:none"
                 id="path634" /></g></g></g></g></g><g
       id="g636"><g
         id="g638"
         clip-path="url(#clipPath642)"><path
           d="M 53.14959,128.88 H 382.67705"
           style="fill:none;stroke:#b0b0b0;stroke-width:0.8;stroke-linecap:square;stroke-linejoin:round;stroke-miterlimit:10;stroke-dasharray:none;stroke-opacity:1"
           id="path644" /></g></g><g
       id="g646"><path
         d="m 53.14959,128.88 h -3.5"
         style="fill:#000000;fill-opacity:1;fill-rule:nonzero;stroke:#000000;stroke-width:0.8;stroke-linecap:butt;stroke-linejoin:round;stroke-miterlimit:10;stroke-dasharray:none;stroke-opacity:1"
         id="path648" /><g
         id="g650"
         transform="translate(30.24334,125.08313)"><text
           transform="scale(1,-1)"
           style="font-variant:normal;font-weight:normal;font-size:10px;font-family:'DejaVu Sans';-inkscape-font-specification:DejaVuSans;writing-mode:lr-tb;fill:#000000;fill-opacity:1;fill-rule:nonzero;stroke:none"
           id="text654"><tspan
             x="0 6.3600001 9.54"
             y="0"
             id="tspan652">0.0</tspan></text></g></g><g
       id="g656"><g
         id="g658"
         clip-path="url(#clipPath662)"><path
           d="M 53.14959,157.32 H 382.67705"
           style="fill:none;stroke:#b0b0b0;stroke-width:0.8;stroke-linecap:square;stroke-linejoin:round;stroke-miterlimit:10;stroke-dasharray:none;stroke-opacity:1"
           id="path664" /></g></g><g
       id="g666"><path
         d="m 53.14959,157.32 h -3.5"
         style="fill:#000000;fill-opacity:1;fill-rule:nonzero;stroke:#000000;stroke-width:0.8;stroke-linecap:butt;stroke-linejoin:round;stroke-miterlimit:10;stroke-dasharray:none;stroke-opacity:1"
         id="path668" /><g
         id="g670"
         transform="translate(30.24334,153.52312)"><text
           transform="scale(1,-1)"
           style="font-variant:normal;font-weight:normal;font-size:10px;font-family:'DejaVu Sans';-inkscape-font-specification:DejaVuSans;writing-mode:lr-tb;fill:#000000;fill-opacity:1;fill-rule:nonzero;stroke:none"
           id="text674"><tspan
             x="0 6.3600001 9.54"
             y="0"
             id="tspan672">0.5</tspan></text></g></g><g
       id="g676"><g
         id="g678"
         clip-path="url(#clipPath682)"><path
           d="M 53.14959,185.76 H 382.67705"
           style="fill:none;stroke:#b0b0b0;stroke-width:0.8;stroke-linecap:square;stroke-linejoin:round;stroke-miterlimit:10;stroke-dasharray:none;stroke-opacity:1"
           id="path684" /></g></g><g
       id="g686"><path
         d="m 53.14959,185.76 h -3.5"
         style="fill:#000000;fill-opacity:1;fill-rule:nonzero;stroke:#000000;stroke-width:0.8;stroke-linecap:butt;stroke-linejoin:round;stroke-miterlimit:10;stroke-dasharray:none;stroke-opacity:1"
         id="path688" /><g
         id="g690"
         transform="translate(30.24334,181.96312)"><text
           transform="scale(1,-1)"
           style="font-variant:normal;font-weight:normal;font-size:10px;font-family:'DejaVu Sans';-inkscape-font-specification:DejaVuSans;writing-mode:lr-tb;fill:#000000;fill-opacity:1;fill-rule:nonzero;stroke:none"
           id="text694"><tspan
             x="0 6.3600001 9.54"
             y="0"
             id="tspan692">1.0</tspan></text></g><g
         id="g696"
         transform="rotate(90,-31.00583,45.87417)"><text
           transform="matrix(1,0,0,-1,0,0.40625)"
           style="font-variant:normal;font-weight:normal;font-size:10px;font-family:'DejaVu Sans';-inkscape-font-specification:DejaVuSans;writing-mode:lr-tb;fill:#000000;fill-opacity:1;fill-rule:nonzero;stroke:none"
           id="text700"><tspan
             x="0 6.8408203 12.993164 17.104492 22.314453 27.8125 34.150391 36.928711 43.081055 49.428711 55.766602 62.104492 68.452148"
             y="0"
             id="tspan698">Verschiebung </tspan></text><text
           transform="matrix(1,0,0,-1,71.630859,0.40625)"
           style="font-style:italic;font-variant:normal;font-size:10px;font-family:'DejaVu Sans';-inkscape-font-specification:DejaVuSans-Oblique;writing-mode:lr-tb;fill:#000000;fill-opacity:1;fill-rule:nonzero;stroke:none"
           id="text704"><tspan
             x="0"
             y="0"
             id="tspan702">u</tspan></text><text
           transform="matrix(1,0,0,-1,77.96875,-1.234375)"
           style="font-variant:normal;font-weight:normal;font-size:7px;font-family:'DejaVu Sans';-inkscape-font-specification:DejaVuSans;writing-mode:lr-tb;fill:#000000;fill-opacity:1;fill-rule:nonzero;stroke:none"
           id="text708"><tspan
             x="0"
             y="0"
             id="tspan706">1</tspan></text><text
           transform="matrix(1,0,0,-1,85.874512,0.40625)"
           style="font-variant:normal;font-weight:normal;font-size:10px;font-family:'DejaVu Sans';-inkscape-font-specification:DejaVuSans;writing-mode:lr-tb;fill:#000000;fill-opacity:1;fill-rule:nonzero;stroke:none"
           id="text712"><tspan
             x="0 3.9013672 13.642578"
             y="0"
             id="tspan710">[m]</tspan></text></g></g><g
       id="g714"><g
         id="g716"
         clip-path="url(#clipPath720)"><path
           d="m 53.14959,138.59573 1.319429,-0.11875 1.31943,-0.35335 1.319429,-0.5793 1.319429,-0.79111 1.649287,-1.2568 1.979144,-1.83644 2.309001,-2.46602 6.927003,-7.64808 1.979144,-1.74261 1.649287,-1.15905 1.319429,-0.70275 1.319429,-0.48424 1.31943,-0.25391 1.319429,-0.0174 1.319429,0.21961 1.319429,0.45121 1.31943,0.67178 1.649286,1.1244 1.649287,1.40012 1.979144,1.96827 2.968716,3.31222 4.288145,4.79325 1.979144,1.91616 1.64929,1.34248 1.64928,1.05613 1.31943,0.61125 1.31943,0.38702 1.31943,0.15334 1.31943,-0.0841 1.31943,-0.31948 1.31943,-0.54706 1.31943,-0.76125 1.64928,-1.22397 1.97915,-1.80525 2.309,-2.44303 7.25686,-7.99455 1.97914,-1.71857 1.64929,-1.13446 1.31943,-0.68075 1.31943,-0.46076 1.31943,-0.22952 1.31943,0.007 1.31943,0.24403 1.31943,0.47474 1.31942,0.69385 1.64929,1.14912 1.64929,1.42077 1.97914,1.98658 2.96872,3.32453 4.28814,4.77697 1.97915,1.89595 1.64928,1.32048 1.64929,1.03034 1.31943,0.58855 1.31943,0.36308 1.31943,0.12874 1.31943,-0.10876 1.31943,-0.3436 1.31943,-0.57003 1.31942,-0.78254 1.64929,-1.2474 1.97915,-1.82754 2.309,-2.45952 6.927,-7.65659 1.97914,-1.75222 1.64929,-1.16893 1.31943,-0.71162 1.31943,-0.49372 1.31943,-0.26378 1.31943,-0.0274 1.31943,0.20969 1.31943,0.44163 1.31943,0.66278 1.64928,1.1143 1.64929,1.39164 1.97914,1.96069 2.96872,3.30698 4.28814,4.79949 1.97915,1.92422 1.64928,1.35129 1.64929,1.0665 1.31943,0.62041 1.31943,0.39671 1.31943,0.16329 1.31943,-0.0741 1.31943,-0.30969 1.31943,-0.53769 1.31943,-0.75257 1.64928,-1.21439 1.97915,-1.79606 2.309,-2.43616 7.58672,-8.31475 1.97914,-1.66914 1.64929,-1.08437 1.31942,-0.63622 1.31944,-0.41344 1.31942,-0.18055 1.31943,0.0568 1.31943,0.29267 1.31943,0.52142 1.31943,0.73744 1.64929,1.19763 1.97914,1.77998 2.309,2.424 7.58672,8.3315 1.97914,1.68671 1.64929,1.10211 1.31943,0.65194 1.31943,0.43012 1.31943,0.19778 1.31943,-0.0394 1.31943,-0.27561 1.31943,-0.50508 1.31943,-0.72221 1.64928,-1.18073 1.64929,-1.447 2.309,-2.36645 3.95829,-4.49867 2.96871,-3.2376 1.97915,-1.86897 1.64928,-1.29142 1.64929,-0.99649 1.31943,-0.55887 1.31943,-0.33188 1.31943,-0.0968 1.31943,0.14071 1.31943,0.37474 1.31943,0.59962 1.64928,1.04292 1.64929,1.33122 1.97914,1.90585 2.63886,2.8897 5.27772,5.90196 1.97914,1.88369 1.64929,1.30723 1.64929,1.01489 1.31943,0.57498 1.31942,0.34879 1.31943,0.11409 1.31943,-0.12341 1.31943,-0.35789 1.31943,-0.58362 1.31943,-0.79509 1.64929,-1.26117 1.97914,-1.84057 2.309,-2.46902 6.92701,-7.644 1.97914,-1.73809 1.64929,-1.15443 1.31943,-0.69859 1.31943,-0.47982 1.31943,-0.24929 1.31942,-0.0127 1.31943,0.22423 1.31943,0.45567 1.31943,0.67597 1.64929,1.1291 1.64928,1.40406 1.97915,1.97177 2.96871,3.31461 4.28815,4.79027 1.97914,1.91238 1.64929,1.33834 1.64929,1.05127 1.31943,0.60697 1.31942,0.3825 1.31943,0.14869 1.31943,-0.0888 1.31943,-0.32405 1.31943,-0.55142 1.31943,-0.76529 1.64929,-1.22843 1.97914,-1.8095 2.309,-2.4462 0.65972,-0.74159 v 0"
           style="fill:none;stroke:#ff0000;stroke-width:1.5;stroke-linecap:butt;stroke-linejoin:round;stroke-miterlimit:10;stroke-dasharray:5.55, 2.4;stroke-dashoffset:0;stroke-opacity:1"
           id="path722" /></g></g><g
       id="g724"><g
         id="g726"
         clip-path="url(#clipPath730)"><path
           d="m 53.14959,154.31611 0.329857,-0.13334 0.329858,-0.3986 0.329857,-0.65971 0.659715,-2.07235 0.659714,-2.99972 0.989572,-5.9546 1.319429,-9.75165 2.309002,-17.41334 0.989572,-5.78105 0.659714,-2.85386 0.659715,-1.90935 0.329857,-0.57388 0.329857,-0.31109 0.329858,-0.0451 0.329857,0.22147 0.329857,0.48566 0.659715,1.74083 0.659715,2.70172 0.989572,5.59719 1.319429,9.49143 2.638858,19.84374 0.989572,5.60085 0.659715,2.70472 0.659715,1.74414 0.329857,0.4874 0.329857,0.22322 0.329858,-0.0433 0.329857,-0.30935 0.329857,-0.57216 0.659715,-1.90607 0.659714,-2.85092 0.989572,-5.77752 1.31943,-9.62591 2.309001,-17.53877 0.989572,-5.95798 0.659714,-3.0026 0.659715,-2.07558 0.329857,-0.6614 0.329858,-0.40035 0.329857,-0.13509 0.329857,0.13157 0.329858,0.39687 0.329857,0.658 0.659715,2.06913 0.659714,2.99685 0.989572,5.9512 1.319429,9.7493 2.309002,17.416 0.989572,5.78457 0.659714,2.8568 0.659715,1.91262 0.329857,0.57559 0.329857,0.31285 0.329858,0.0468 0.329857,-0.21972 0.329857,-0.48393 0.659715,-1.73752 0.659715,-2.69871 0.989572,-5.59353 1.319429,-9.48864 2.638855,-19.84652 0.98958,-5.6045 0.65971,-2.70772 0.65972,-1.74746 0.32985,-0.48912 0.32986,-0.22498 0.32986,0.0415 0.32985,0.3076 0.32986,0.57044 0.65972,1.9028 0.65971,2.84798 0.98957,5.77399 1.31943,9.62333 2.309,17.54102 0.98958,5.96137 0.65971,3.00546 0.65971,2.07881 0.32986,0.66311 0.32986,0.40208 0.32986,0.13686 0.32985,-0.12982 0.32986,-0.39513 0.32986,-0.65629 0.65971,-2.06591 0.65972,-2.99397 0.98957,-5.94781 1.31943,-9.74695 2.309,-17.41864 0.98957,-5.78809 0.65972,-2.85974 0.65971,-1.91589 0.32986,-0.57731 0.32986,-0.31459 0.32985,-0.0486 0.32986,0.21796 0.32986,0.4822 0.65971,1.7342 0.65972,2.69571 0.98957,5.58986 1.31943,9.48584 2.63886,19.8493 0.98957,5.60815 0.65971,2.71073 0.65972,1.75076 0.32985,0.49086 0.32986,0.22673 0.32986,-0.0398 0.32986,-0.30585 0.32985,-0.56872 0.65972,-1.89953 0.65971,-2.84504 0.98957,-5.77046 1.31943,-9.62075 2.30901,-17.54325 0.98957,-5.96476 0.65971,-3.00833 0.65972,-2.08203 0.32985,-0.66481 0.32986,-0.40383 0.32986,-0.13861 0.32986,0.12806 0.32985,0.39339 0.32986,0.65459 0.65972,2.06267 0.65971,2.9911 0.98957,5.94441 1.31943,9.7446 2.309,17.42127 0.98957,5.79161 0.65972,2.86268 0.65971,1.91916 0.32986,0.57903 0.32986,0.31634 0.32986,0.0503 0.32985,-0.21621 0.32986,-0.48047 0.65971,-1.73089 0.65972,-2.69269 0.98957,-5.5862 1.31943,-9.48305 2.63886,-19.85205 0.98957,-5.6118 0.65972,-2.71373 0.65971,-1.75408 0.32986,-0.49258 0.32985,-0.22848 0.32986,0.038 0.32986,0.30411 0.32986,0.567 0.65971,1.89626 0.65972,2.84209 0.98957,5.76692 1.31943,9.61818 2.309,17.54547 0.98957,5.96814 0.65971,3.0112 0.65972,2.08525 0.32986,0.66651 0.32985,0.40557 0.32986,0.14037 0.32986,-0.1263 0.32986,-0.39165 0.32985,-0.65289 0.65972,-2.05944 0.65971,-2.98822 0.98957,-5.94101 1.31943,-9.74224 2.30901,-17.4239 0.98957,-5.79513 0.65971,-2.86561 0.65972,-1.92243 0.32985,-0.58074 0.32986,-0.31809 0.32986,-0.0521 0.32986,0.21445 0.32985,0.47874 0.65972,1.72757 0.65971,2.68969 0.98957,5.58253 1.31943,9.48024 2.63886,19.8548 0.98957,5.61545 0.65972,2.71673 0.65971,1.75739 0.32986,0.49431 0.32986,0.23024 0.32986,-0.0362 0.32985,-0.30235 0.32986,-0.56529 0.65971,-1.89298 0.65972,-2.83915 0.98957,-5.76338 1.31943,-9.61559 2.309,-17.54769 0.98957,-5.97152 0.65972,-3.01407 0.65971,-2.08847 0.32986,-0.66821 0.32986,-0.40731 0.32985,-0.14212 0.32986,0.12454 0.32986,0.3899 0.32986,0.65119 0.65971,2.05621 0.65972,2.98534 0.98957,5.93761 1.31943,9.73987 2.309,17.42652 0.98957,5.79864 0.65972,2.86855 0.65971,1.92569 0.32986,0.58247 0.32985,0.31983 0.32986,0.0538 0.32986,-0.2127 0.32986,-0.47701 0.65971,-1.72425 0.65972,-2.68667 0.98957,-5.57887 1.31943,-9.47743 2.63885,-19.85754 0.98958,-5.6191 0.65971,-2.71972 0.65972,-1.7607 0.32985,-0.49604 0.32986,-0.23199 0.32986,0.0345 0.32986,0.3006 0.32985,0.56357 0.65972,1.8897 0.65971,2.8362 0.98957,5.75985 1.31943,9.61299 2.309,17.5499 0.98958,5.9749 0.65971,3.01693 0.65972,2.0917 0.32985,0.66991 0.32986,0.40905 0.32986,0.14388 0.32985,-0.12278 0.32986,-0.38817 0.32986,-0.64948 0.65972,-2.05298 0.65971,-2.98246 0.98957,-5.9342 1.31943,-9.73751 2.309,-17.42913 0.98957,-5.80215 0.65972,-2.87148 0.65971,-1.92896 0.32986,-0.58418 0.32986,-0.32158 0.32986,-0.0556 0.32985,0.21094 0.32986,0.47528 0.65971,1.72093 0.65972,2.68367 0.98957,5.57519 1.31943,9.47461 2.63886,19.86028 0.98957,5.62274 0.65971,2.72272 0.65972,1.76401 0.32986,0.49777 0.32985,0.23374 0.32986,-0.0327 0.32986,-0.29886 0.32986,-0.56185 0.65971,-1.88643 0.65971,-2.83325 0.98958,-5.7563 1.31943,-9.6104 2.309,-17.5521 0.98957,-5.97827 0.65971,-3.0198 0.65972,-2.09491 0.32986,-0.67162 0.32985,-0.41078 0.32986,-0.14565 0.32986,0.12103 0.32986,0.38642 0.32985,0.64778 0.65972,2.04975 0.65971,2.97958 0.98957,5.93079 1.31943,9.73513 2.309,17.43173 0.98958,5.80567 0.65971,2.87441 0.65972,1.93222 0.32985,0.5859 0.32986,0.32332 0.32986,0.0574 0.32985,-0.20919 0.32986,-0.47355 0.65972,-1.71761 0.65971,-2.68065 0.98957,-5.57152 1.31943,-9.4718 2.63886,-19.863 0.98957,-5.62637 0.65972,-2.72572 0.65971,-1.76732 0.32986,-0.49949 0.32986,-0.2355 0.32985,0.031 0.32986,0.29711 0.32986,0.56013 0.65971,1.88315 0.65972,2.8303 0.98957,5.75276 1.31943,9.6078 2.309,17.5543 0.98957,5.98164 0.65972,3.02266 0.65971,2.09813 0.32986,0.67332 0.32986,0.41252 0.32985,0.1474 0.32986,-0.11927 0.32986,-0.38468 0.32986,-0.64607 0.65971,-2.04652 0.65971,-2.97669 0.98958,-5.92738 1.31943,-9.73276 2.309,-17.43433 0.98957,-5.80917 0.65971,-2.87734 0.65972,-1.93549 0.32986,-0.58761 0.32985,-0.32507 0.32986,-0.0591 0.32986,0.20743 0.32986,0.47182 0.65971,1.71429 0.65972,2.67763 0.98957,5.56784 1.31943,9.46898 2.63885,19.86571 0.98958,5.63002 0.65971,2.72871 0.65972,1.77062 0.32985,0.50123 0.32986,0.23725 0.32986,-0.0292 0.32985,-0.29535 0.32986,-0.55841 0.65972,-1.87987 0.65971,-2.82735 0.98957,-5.74921 1.31943,-9.6052 2.309,-17.55648 0.98958,-5.98501 0.65971,-3.02553 0.65971,-2.10134 0.32986,-0.67502 0.32986,-0.41426 0.32986,-0.14916 0.32985,0.11751 0.32986,0.38294 0.32986,0.64436 0.65971,2.04329 0.65972,2.97381 0.98957,5.92396 1.31943,9.73038 2.309,17.43691 0.98957,5.81267 0.65972,2.88028 0.65971,1.93875 0.32986,0.58932 0.32986,0.32682 0.32985,0.0609 0.32986,-0.20568 0.32986,-0.47009 0.65971,-1.71097 0.65972,-2.67462 0.98957,-5.56415 1.31943,-9.46615 2.63886,-19.86842 0.98957,-5.63365 0.65971,-2.73171 0.65972,-1.77393 0.32986,-0.50295 0.32985,-0.23901 0.32986,0.0275 0.32986,0.2936 0.32985,0.5567 0.65972,1.87659 0.65971,2.82439 0.98958,5.74566 1.31943,9.60259 2.309,17.55867 0.98957,5.98837 0.65971,3.02838 0.65972,2.10457 0.32985,0.67671 0.32986,0.416 0.32986,0.15092 0.32986,-0.11575 0.32985,-0.3812 0.32986,-0.64265 0.65972,-2.04006 0.65971,-2.97092 0.98957,-5.92055 1.31943,-9.72799 2.309,-17.43949 0.98958,-5.81617 0.65971,-2.88321 0.65972,-1.94201 0.32985,-0.59104 0.32986,-0.32857 0.32986,-0.0626 0.32985,0.20392 0.32986,0.46836 0.65972,1.70765 0.65971,2.6716 0.98957,5.56047 1.31943,9.46332 2.63886,19.87112 0.98957,5.63728 0.65972,2.7347 0.65971,1.77723 0.32986,0.50468 0.32986,0.24076 0.32985,-0.0257 0.32986,-0.29186 0.32986,-0.55497 0.65971,-1.87331 0.65972,-2.82144 0.98957,-5.74211 1.31943,-9.59998 1.31943,-10.3458 v 0"
           style="fill:none;stroke:#008000;stroke-width:1.5;stroke-linecap:butt;stroke-linejoin:round;stroke-miterlimit:10;stroke-dasharray:1.5, 2.475;stroke-dashoffset:0;stroke-opacity:1"
           id="path732" /></g></g><g
       id="g734"><g
         id="g736"
         clip-path="url(#clipPath740)"><path
           d="m 53.14959,164.03184 0.329857,-0.14077 0.329858,-0.42091 0.329857,-0.69682 0.659715,-2.19083 0.659714,-3.17654 0.989572,-6.32671 1.319429,-10.43896 2.638859,-21.47648 0.989572,-6.12389 0.659715,-3.04076 0.659714,-2.0804 0.329857,-0.65871 0.329858,-0.39842 0.329857,-0.13711 0.329857,0.12243 0.329858,0.37742 0.659714,1.48823 0.659715,2.38778 0.989572,4.98187 1.319429,8.35403 1.979144,12.89871 0.989572,5.11535 0.659715,2.50963 0.659714,1.63542 0.329858,0.46021 0.329857,0.21115 0.329857,-0.0426 0.329858,-0.29827 0.329857,-0.55311 0.659714,-1.85352 0.659715,-2.79428 0.989572,-5.72094 1.319429,-9.67092 2.638859,-20.35026 0.989572,-5.8153 0.659714,-2.834252 0.659715,-1.849803 0.329857,-0.527399 0.329858,-0.25253 0.329857,0.02631 0.329857,0.30632 0.329858,0.584682 0.659714,1.983901 0.659715,3.008591 0.989572,6.18485 1.319429,10.52199 2.968716,25.174 0.989572,6.33991 0.659715,3.15393 0.659714,2.16789 0.329857,0.69264 0.329858,0.4257 0.329857,0.15768 0.329857,-0.1086 0.329858,-0.37039 0.329857,-0.62495 0.659715,-1.97164 0.659714,-2.8395 0.989572,-5.56322 1.649287,-11.19697 1.649283,-10.78217 0.98958,-4.97018 0.65971,-2.3484 0.65972,-1.44159 0.32985,-0.35684 0.32986,-0.10674 0.32986,0.14555 0.32985,0.39724 0.65972,1.53336 0.65971,2.46463 0.65972,3.29557 0.98957,6.19249 1.97914,14.59627 1.31943,9.10016 0.98958,5.33331 0.65971,2.52667 0.65971,1.55533 0.32986,0.38561 0.32986,0.11463 0.32986,-0.1601 0.32985,-0.43584 0.32986,-0.70973 0.65971,-2.2199 0.65972,-3.22471 0.98957,-6.4691 1.31943,-10.82104 2.96872,-25.4828 0.98957,-6.32527 0.65971,-3.11105 0.65972,-2.098694 0.32986,-0.648245 0.32985,-0.374846 0.32986,-0.100438 0.32986,0.172172 0.32985,0.440202 0.65972,1.652599 0.65971,2.6032 0.98958,5.39819 1.31942,9.07454 2.30901,16.42229 0.98957,5.45801 0.65971,2.68467 0.65972,1.78417 0.32985,0.52981 0.32986,0.28044 0.32986,0.0286 0.32986,-0.22289 0.32985,-0.47131 0.65972,-1.66197 0.65971,-2.55177 0.98957,-5.2301 1.31943,-8.72476 2.30901,-15.55721 0.98957,-4.98081 0.65971,-2.31784 0.65972,-1.3688 0.32985,-0.30103 0.32986,-0.036 0.32986,0.23268 0.32986,0.50224 0.65971,1.80277 0.65972,2.82217 0.65971,3.75064 0.98957,7.07367 1.64929,14.15613 1.97914,16.81533 0.98957,6.67512 0.65972,3.40216 0.65971,2.41512 0.65972,1.34479 0.32986,0.25672 0.32985,-0.0225 0.32986,-0.29967 0.32986,-0.57212 0.65971,-1.92895 0.65972,-2.89489 0.98957,-5.8608 1.31943,-9.72849 2.309,-17.62406 0.98957,-5.97682 0.65972,-3.0263 0.65971,-2.11986 0.65971,-1.13782 0.32986,-0.1887 0.32986,0.0656 0.32986,0.31714 0.32985,0.56309 0.65972,1.82848 0.65971,2.68049 0.98958,5.318 1.64928,10.83211 1.64929,10.5077 0.98957,4.83122 0.65971,2.25138 0.65972,1.32934 0.32986,0.29147 0.32985,0.0332 0.32986,-0.22868 0.32986,-0.4915 0.65971,-1.76116 0.65972,-2.75408 0.65971,-3.6566 0.98957,-6.88546 1.64929,-13.72422 1.64929,-13.68735 0.98957,-6.81061 0.65971,-3.569535 0.65972,-2.625382 0.65971,-1.579232 0.32986,-0.376757 0.32986,-0.09603 0.32986,0.185317 0.32985,0.464458 0.65972,1.743606 0.65971,2.765083 0.65972,3.673602 0.98957,6.87993 1.64929,13.52248 1.64928,13.19457 0.98957,6.42034 0.65972,3.30348 0.65971,2.38013 0.65972,1.37944 0.32986,0.30202 0.32985,0.0424 0.32986,-0.2145 0.32986,-0.46605 0.65971,-1.65185 0.65972,-2.52811 0.98957,-5.1371 1.31943,-8.43776 1.97914,-12.7377 0.98957,-4.91606 0.65972,-2.34159 0.65971,-1.44576 0.32986,-0.35925 0.32986,-0.10724 0.32985,0.14858 0.32986,0.40545 0.32986,0.66058 0.65971,2.06582 0.65972,2.99737 0.98957,5.99465 1.31943,9.95137 2.63886,20.54345 0.98957,5.76532 0.65972,2.77224 0.65971,1.77073 0.32986,0.48327 0.32985,0.20636 0.32986,-0.0737 0.32986,-0.35418 0.32986,-0.63218 0.65971,-2.07471 0.65972,-3.08879 0.98957,-6.27341 1.31943,-10.55885 2.96871,-24.85819 0.98957,-6.13088 0.65972,-2.9982 0.65971,-2.00614 0.32986,-0.61154 0.32986,-0.3456 0.32986,-0.0794 0.32985,0.18419 0.32986,0.44247 0.65971,1.62507 0.65972,2.52871 0.98957,5.18951 1.31943,8.60278 1.97914,13.18034 0.98958,5.21854 0.65971,2.57048 0.65972,1.6947 0.32985,0.49074 0.32986,0.24311 0.32986,-0.009 0.32985,-0.26147 0.32986,-0.5129 0.65972,-1.76033 0.65971,-2.68006 0.98957,-5.50097 1.31943,-9.27118 2.309,-17.06926 0.98958,-5.80873 0.65971,-2.905279 0.65972,-1.968583 0.32985,-0.600756 0.32986,-0.332932 0.32986,-0.05937 0.32986,0.217165 0.32985,0.493863 0.65972,1.804458 0.65971,2.843644 0.65972,3.78638 0.98957,7.14324 1.64928,14.28427 1.97915,16.96108 0.98957,6.75299 0.65971,3.46327 0.65972,2.48891 0.65971,1.43631 0.32986,0.31079 0.32986,0.038 0.32986,-0.23211 0.32985,-0.49687 0.65972,-1.75301 0.65971,-2.6816 0.98957,-5.46376 1.31943,-9.04658 1.97915,-13.99104 0.98957,-5.67698 0.65971,-2.89143 0.65972,-2.02551 0.65971,-1.07237 0.32986,-0.16293 0.32986,0.0889 0.32986,0.3395 0.32985,0.58613 0.65972,1.88271 0.65971,2.75508 0.98957,5.48941 1.31943,8.9612 1.97915,13.65934 0.98957,5.40847 0.65971,2.66142 0.65972,1.74476 0.32986,0.49676 0.32985,0.2344 0.32986,-0.0336 0.32986,-0.30435 0.32985,-0.57521 0.65972,-1.94918 0.65971,-2.96377 0.98958,-6.12511 0.98957,-7.6977 3.95829,-32.96181 0.98957,-5.310143 0.65971,-2.316357 0.65972,-1.241262 0.32985,-0.20515 0.32986,0.07282 0.32986,0.348025 0.32986,0.61768 0.65971,2.008644 0.65972,2.954703 0.98957,5.90265 1.31943,9.67723 2.309,17.22135 0.98957,5.70014 0.65971,2.81842 0.65972,1.90041 0.32986,0.5828 0.32985,0.33083 0.32986,0.0771 0.32986,-0.17578 0.32986,-0.4249 0.65971,-1.56877 0.65971,-2.45419 0.98958,-5.06677 1.31943,-8.46057 1.97914,-13.06778 0.98957,-5.19324 0.65972,-2.54979 0.65971,-1.65935 0.32986,-0.46401 0.32986,-0.20835 0.32985,0.0529 0.32986,0.31696 0.32986,0.58108 0.65971,1.94074 0.65972,2.92862 0.98957,6.02302 1.31943,10.28194 2.96871,24.726 0.98958,6.20142 0.65971,3.04373 0.65972,2.03059 0.32985,0.61006 0.32986,0.33175 0.32986,0.0508 0.32985,-0.22993 0.32986,-0.50767 0.65972,-1.82279 0.65971,-2.82968 0.98957,-5.86402 1.31943,-9.96309 2.63886,-21.09704 0.98957,-6.16797 0.65972,-3.11454 0.65971,-2.18167 0.65972,-1.17819 0.32985,-0.20253 0.32986,0.0551 0.32986,0.30928 0.32986,0.55717 0.65971,1.81988 0.65972,2.67213 0.98957,5.29671 1.64928,10.75007 1.64929,10.35849 0.98957,4.72075 0.65972,2.17685 0.65971,1.26 0.32986,0.26051 0.32986,0.006 0.32985,-0.25201 0.32986,-0.5099 0.65972,-1.78021 0.65971,-2.74477 0.65971,-3.61382 0.98958,-6.74936 1.64928,-13.28408 1.64929,-12.97916 0.98957,-6.27447 0.65972,-3.176427 0.65971,-2.211601 0.32986,-0.712875 0.32986,-0.439495 0.32985,-0.160938 0.32986,0.120004 0.32986,0.400517 0.32985,0.677789 0.65972,2.160587 0.65971,3.162639 0.98958,6.35012 1.31943,10.57645 2.63885,22.15068 0.98958,6.48659 0.65971,3.2998 0.65971,2.34375 0.65972,1.31599 0.32986,0.262 0.32985,-0.002 0.32986,-0.26274 0.32986,-0.51726 0.65971,-1.76015 0.65972,-2.6396 0.98957,-5.29953 1.31943,-8.62598 1.97914,-12.93375 0.98958,-4.98136 0.65971,-2.37968 0.65972,-1.48455 0.32985,-0.38046 0.32986,-0.13053 0.32986,0.12254 0.32985,0.37599 0.32986,0.62703 0.65972,1.98388 0.65971,2.89163 0.98957,5.78228 1.31943,9.55275 2.309,17.2465 0.98957,5.76401 0.65972,2.84243 0.65971,1.88492 0.32986,0.55286 0.32986,0.28202 0.32986,0.006 0.32985,-0.27175 0.32986,-0.54906 0.65972,-1.9135 0.65971,-2.94565 0.65971,-3.87553 0.98958,-7.24188 1.64928,-14.32608 0.65972,-5.90022 v 0"
           style="fill:none;stroke:#1f77b4;stroke-width:1.5;stroke-linecap:square;stroke-linejoin:round;stroke-miterlimit:10;stroke-dasharray:none;stroke-opacity:1"
           id="path742" /></g></g><g
       id="g744"><path
         d="M 53.14959,72 V 185.76"
         style="fill:none;stroke:#000000;stroke-width:0.8;stroke-linecap:square;stroke-linejoin:miter;stroke-miterlimit:10;stroke-dasharray:none;stroke-opacity:1"
         id="path746" /><path
         d="M 382.67705,72 V 185.76"
         style="fill:none;stroke:#000000;stroke-width:0.8;stroke-linecap:square;stroke-linejoin:miter;stroke-miterlimit:10;stroke-dasharray:none;stroke-opacity:1"
         id="path748" /><path
         d="M 53.14959,72 H 382.67705"
         style="fill:none;stroke:#000000;stroke-width:0.8;stroke-linecap:square;stroke-linejoin:miter;stroke-miterlimit:10;stroke-dasharray:none;stroke-opacity:1"
         id="path750" /><path
         d="M 53.14959,185.76 H 382.67705"
         style="fill:none;stroke:#000000;stroke-width:0.8;stroke-linecap:square;stroke-linejoin:miter;stroke-miterlimit:10;stroke-dasharray:none;stroke-opacity:1"
         id="path752" /><path
         d="M 28.262422,11.328125 H 400.9343 c 1.33333,0 2,0.666667 2,2 V 27 c 0,1.333333 -0.66667,2 -2,2 H 28.262422 c -1.333333,0 -2,-0.666667 -2,-2 V 13.328125 c 0,-1.333333 0.666667,-2 2,-2 z"
         style="fill:#4c4c4c;fill-opacity:0.5;fill-rule:nonzero;stroke:#4c4c4c;stroke-width:1;stroke-linecap:butt;stroke-linejoin:miter;stroke-miterlimit:10;stroke-dasharray:none;stroke-opacity:0.5"
         id="path754" /><path
         d="M 26.262422,13.328125 H 398.9343 c 1.33333,0 2,0.666667 2,2 V 29 c 0,1.333333 -0.66667,2 -2,2 H 26.262422 c -1.333333,0 -2,-0.666667 -2,-2 V 15.328125 c 0,-1.333333 0.666667,-2 2,-2 z"
         style="fill:#ffffff;fill-opacity:1;fill-rule:nonzero;stroke:#cccccc;stroke-width:1;stroke-linecap:butt;stroke-linejoin:miter;stroke-miterlimit:10;stroke-dasharray:none;stroke-opacity:1"
         id="path756" /><path
         d="m 28.262422,22.90625 h 10 10"
         style="fill:none;stroke:#ff0000;stroke-width:1.5;stroke-linecap:butt;stroke-linejoin:round;stroke-miterlimit:10;stroke-dasharray:5.55, 2.4;stroke-dashoffset:0;stroke-opacity:1"
         id="path758" /><g
         id="g760"
         transform="translate(56.262423,19.40625)"><text
           transform="scale(1,-1)"
           style="font-variant:normal;font-weight:normal;font-size:10px;font-family:'DejaVu Sans';-inkscape-font-specification:DejaVuSans;writing-mode:lr-tb;fill:#000000;fill-opacity:1;fill-rule:nonzero;stroke:none"
           id="text764"><tspan
             x="0 6.1500001 10.26 15.47 19.389999 25.540001 28.719999 35.040001 37.82 44.169998 50.32 56.66 60.18 66.300003 70.238129"
             y="0"
             id="tspan762">erste Eigenform</tspan></text></g><path
         d="m 156.32492,22.90625 h 10 10"
         style="fill:none;stroke:#008000;stroke-width:1.5;stroke-linecap:butt;stroke-linejoin:round;stroke-miterlimit:10;stroke-dasharray:1.5, 2.475;stroke-dashoffset:0;stroke-opacity:1"
         id="path766" /><g
         id="g768"
         transform="translate(184.32492,19.40625)"><text
           transform="scale(1,-1)"
           style="font-variant:normal;font-weight:normal;font-size:10px;font-family:'DejaVu Sans';-inkscape-font-specification:DejaVuSans;writing-mode:lr-tb;fill:#000000;fill-opacity:1;fill-rule:nonzero;stroke:none"
           id="text772"><tspan
             x="0 5.25 13.43 19.58 22.360001 26.280001 32.43 35.610001 41.93 44.709999 51.060001 57.209999 63.549999 67.07 73.190002 77.128128"
             y="0"
             id="tspan770">zweite Eigenform</tspan></text></g><path
         d="m 291.27805,22.90625 h 10 10"
         style="fill:none;stroke:#1f77b4;stroke-width:1.5;stroke-linecap:square;stroke-linejoin:round;stroke-miterlimit:10;stroke-dasharray:none;stroke-opacity:1"
         id="path774" /><g
         id="g776"
         transform="translate(319.27805,19.40625)"><text
           transform="scale(1,-1)"
           style="font-variant:normal;font-weight:normal;font-size:10px;font-family:'DejaVu Sans';-inkscape-font-specification:DejaVuSans;writing-mode:lr-tb;fill:#000000;fill-opacity:1;fill-rule:nonzero;stroke:none"
           id="text780"><tspan
             x="0 7.75 13.9 19.110001 25.24 34.98 38.900002 45.029999 51.369999 55.290001 63.470001 69.589996 73.699997"
             y="0"
             id="tspan778">Gesamtantwort</tspan></text></g></g></g></svg>
