<?xml version="1.0" encoding="UTF-8" standalone="no"?>
<svg
   xmlns:dc="http://purl.org/dc/elements/1.1/"
   xmlns:cc="http://creativecommons.org/ns#"
   xmlns:rdf="http://www.w3.org/1999/02/22-rdf-syntax-ns#"
   xmlns:svg="http://www.w3.org/2000/svg"
   xmlns="http://www.w3.org/2000/svg"
   version="1.1"
   id="svg2"
   xml:space="preserve"
   width="566.92896"
   height="480"
   viewBox="0 0 566.92896 480"><metadata
     id="metadata8"><rdf:RDF><cc:Work
         rdf:about=""><dc:format>image/svg+xml</dc:format><dc:type
           rdf:resource="http://purl.org/dc/dcmitype/StillImage" /></cc:Work></rdf:RDF></metadata><defs
     id="defs6"><clipPath
       clipPathUnits="userSpaceOnUse"
       id="clipPath22"><path
         d="M 53.14959,242.64 H 382.67705 V 356.4 H 53.14959 Z"
         id="path20" /></clipPath><clipPath
       clipPathUnits="userSpaceOnUse"
       id="clipPath42"><path
         d="M 53.14959,242.64 H 382.67705 V 356.4 H 53.14959 Z"
         id="path40" /></clipPath><clipPath
       clipPathUnits="userSpaceOnUse"
       id="clipPath62"><path
         d="M 53.14959,242.64 H 382.67705 V 356.4 H 53.14959 Z"
         id="path60" /></clipPath><clipPath
       clipPathUnits="userSpaceOnUse"
       id="clipPath82"><path
         d="M 53.14959,242.64 H 382.67705 V 356.4 H 53.14959 Z"
         id="path80" /></clipPath><clipPath
       clipPathUnits="userSpaceOnUse"
       id="clipPath102"><path
         d="M 53.14959,242.64 H 382.67705 V 356.4 H 53.14959 Z"
         id="path100" /></clipPath><clipPath
       clipPathUnits="userSpaceOnUse"
       id="clipPath122"><path
         d="M 53.14959,242.64 H 382.67705 V 356.4 H 53.14959 Z"
         id="path120" /></clipPath><clipPath
       clipPathUnits="userSpaceOnUse"
       id="clipPath142"><path
         d="M 53.14959,242.64 H 382.67705 V 356.4 H 53.14959 Z"
         id="path140" /></clipPath><clipPath
       clipPathUnits="userSpaceOnUse"
       id="clipPath162"><path
         d="M 53.14959,242.64 H 382.67705 V 356.4 H 53.14959 Z"
         id="path160" /></clipPath><clipPath
       clipPathUnits="userSpaceOnUse"
       id="clipPath182"><path
         d="M 53.14959,242.64 H 382.67705 V 356.4 H 53.14959 Z"
         id="path180" /></clipPath><clipPath
       clipPathUnits="userSpaceOnUse"
       id="clipPath208"><path
         d="M 53.14959,242.64 H 382.67705 V 356.4 H 53.14959 Z"
         id="path206" /></clipPath><clipPath
       clipPathUnits="userSpaceOnUse"
       id="clipPath230"><path
         d="M -1021,-463 H 1794 V 1233 H -1021 Z"
         id="path228" /></clipPath><clipPath
       clipPathUnits="userSpaceOnUse"
       id="clipPath240"><path
         d="M 53.14959,242.64 H 382.67705 V 356.4 H 53.14959 Z"
         id="path238" /></clipPath><clipPath
       clipPathUnits="userSpaceOnUse"
       id="clipPath262"><path
         d="M -1021,-463 H 1794 V 1233 H -1021 Z"
         id="path260" /></clipPath><clipPath
       clipPathUnits="userSpaceOnUse"
       id="clipPath272"><path
         d="M 53.14959,242.64 H 382.67705 V 356.4 H 53.14959 Z"
         id="path270" /></clipPath><clipPath
       clipPathUnits="userSpaceOnUse"
       id="clipPath292"><path
         d="M 53.14959,242.64 H 382.67705 V 356.4 H 53.14959 Z"
         id="path290" /></clipPath><clipPath
       clipPathUnits="userSpaceOnUse"
       id="clipPath312"><path
         d="M 53.14959,242.64 H 382.67705 V 356.4 H 53.14959 Z"
         id="path310" /></clipPath><clipPath
       clipPathUnits="userSpaceOnUse"
       id="clipPath350"><path
         d="M 53.14959,242.64 H 382.67705 V 356.4 H 53.14959 Z"
         id="path348" /></clipPath><clipPath
       clipPathUnits="userSpaceOnUse"
       id="clipPath360"><path
         d="M 53.14959,242.64 H 382.67705 V 356.4 H 53.14959 Z"
         id="path358" /></clipPath><clipPath
       clipPathUnits="userSpaceOnUse"
       id="clipPath370"><path
         d="M 53.14959,242.64 H 382.67705 V 356.4 H 53.14959 Z"
         id="path368" /></clipPath><clipPath
       clipPathUnits="userSpaceOnUse"
       id="clipPath392"><path
         d="M 53.14959,72 H 382.67705 V 185.76 H 53.14959 Z"
         id="path390" /></clipPath><clipPath
       clipPathUnits="userSpaceOnUse"
       id="clipPath412"><path
         d="M 53.14959,72 H 382.67705 V 185.76 H 53.14959 Z"
         id="path410" /></clipPath><clipPath
       clipPathUnits="userSpaceOnUse"
       id="clipPath432"><path
         d="M 53.14959,72 H 382.67705 V 185.76 H 53.14959 Z"
         id="path430" /></clipPath><clipPath
       clipPathUnits="userSpaceOnUse"
       id="clipPath452"><path
         d="M 53.14959,72 H 382.67705 V 185.76 H 53.14959 Z"
         id="path450" /></clipPath><clipPath
       clipPathUnits="userSpaceOnUse"
       id="clipPath472"><path
         d="M 53.14959,72 H 382.67705 V 185.76 H 53.14959 Z"
         id="path470" /></clipPath><clipPath
       clipPathUnits="userSpaceOnUse"
       id="clipPath492"><path
         d="M 53.14959,72 H 382.67705 V 185.76 H 53.14959 Z"
         id="path490" /></clipPath><clipPath
       clipPathUnits="userSpaceOnUse"
       id="clipPath512"><path
         d="M 53.14959,72 H 382.67705 V 185.76 H 53.14959 Z"
         id="path510" /></clipPath><clipPath
       clipPathUnits="userSpaceOnUse"
       id="clipPath532"><path
         d="M 53.14959,72 H 382.67705 V 185.76 H 53.14959 Z"
         id="path530" /></clipPath><clipPath
       clipPathUnits="userSpaceOnUse"
       id="clipPath552"><path
         d="M 53.14959,72 H 382.67705 V 185.76 H 53.14959 Z"
         id="path550" /></clipPath><clipPath
       clipPathUnits="userSpaceOnUse"
       id="clipPath578"><path
         d="M 53.14959,72 H 382.67705 V 185.76 H 53.14959 Z"
         id="path576" /></clipPath><clipPath
       clipPathUnits="userSpaceOnUse"
       id="clipPath600"><path
         d="M -1021,-463 H 1794 V 1233 H -1021 Z"
         id="path598" /></clipPath><clipPath
       clipPathUnits="userSpaceOnUse"
       id="clipPath610"><path
         d="M 53.14959,72 H 382.67705 V 185.76 H 53.14959 Z"
         id="path608" /></clipPath><clipPath
       clipPathUnits="userSpaceOnUse"
       id="clipPath632"><path
         d="M -1021,-463 H 1794 V 1233 H -1021 Z"
         id="path630" /></clipPath><clipPath
       clipPathUnits="userSpaceOnUse"
       id="clipPath642"><path
         d="M 53.14959,72 H 382.67705 V 185.76 H 53.14959 Z"
         id="path640" /></clipPath><clipPath
       clipPathUnits="userSpaceOnUse"
       id="clipPath662"><path
         d="M 53.14959,72 H 382.67705 V 185.76 H 53.14959 Z"
         id="path660" /></clipPath><clipPath
       clipPathUnits="userSpaceOnUse"
       id="clipPath682"><path
         d="M 53.14959,72 H 382.67705 V 185.76 H 53.14959 Z"
         id="path680" /></clipPath><clipPath
       clipPathUnits="userSpaceOnUse"
       id="clipPath720"><path
         d="M 53.14959,72 H 382.67705 V 185.76 H 53.14959 Z"
         id="path718" /></clipPath><clipPath
       clipPathUnits="userSpaceOnUse"
       id="clipPath730"><path
         d="M 53.14959,72 H 382.67705 V 185.76 H 53.14959 Z"
         id="path728" /></clipPath><clipPath
       clipPathUnits="userSpaceOnUse"
       id="clipPath740"><path
         d="M 53.14959,72 H 382.67705 V 185.76 H 53.14959 Z"
         id="path738" /></clipPath></defs><g
     id="g10"
     transform="matrix(1.3333333,0,0,-1.3333333,0,480)"><path
       d="M 0,0 H 425.19672 V 360 H 0 Z"
       style="fill:#ffffff;fill-opacity:1;fill-rule:nonzero;stroke:none"
       id="path12" /><path
       d="M 53.14959,242.64 H 382.67705 V 356.4 H 53.14959 Z"
       style="fill:#ffffff;fill-opacity:1;fill-rule:nonzero;stroke:none"
       id="path14" /><g
       id="g16"><g
         id="g18"
         clip-path="url(#clipPath22)"><path
           d="M 53.14959,242.64 V 356.4"
           style="fill:none;stroke:#b0b0b0;stroke-width:0.8;stroke-linecap:square;stroke-linejoin:round;stroke-miterlimit:10;stroke-dasharray:none;stroke-opacity:1"
           id="path24" /></g></g><g
       id="g26"><path
         d="m 53.14959,242.64 v -3.5"
         style="fill:#000000;fill-opacity:1;fill-rule:nonzero;stroke:#000000;stroke-width:0.8;stroke-linecap:butt;stroke-linejoin:round;stroke-miterlimit:10;stroke-dasharray:none;stroke-opacity:1"
         id="path28" /><g
         id="g30"
         transform="translate(45.196465,228.04625)"><text
           transform="scale(1,-1)"
           style="font-variant:normal;font-weight:normal;font-size:10px;font-family:'DejaVu Sans';-inkscape-font-specification:DejaVuSans;writing-mode:lr-tb;fill:#000000;fill-opacity:1;fill-rule:nonzero;stroke:none"
           id="text34"><tspan
             x="0 6.3600001 9.54"
             y="0"
             id="tspan32">0.0</tspan></text></g></g><g
       id="g36"><g
         id="g38"
         clip-path="url(#clipPath42)"><path
           d="M 94.340522,242.64 V 356.4"
           style="fill:none;stroke:#b0b0b0;stroke-width:0.8;stroke-linecap:square;stroke-linejoin:round;stroke-miterlimit:10;stroke-dasharray:none;stroke-opacity:1"
           id="path44" /></g></g><g
       id="g46"><path
         d="m 94.340522,242.64 v -3.5"
         style="fill:#000000;fill-opacity:1;fill-rule:nonzero;stroke:#000000;stroke-width:0.8;stroke-linecap:butt;stroke-linejoin:round;stroke-miterlimit:10;stroke-dasharray:none;stroke-opacity:1"
         id="path48" /><g
         id="g50"
         transform="translate(86.387397,228.04625)"><text
           transform="scale(1,-1)"
           style="font-variant:normal;font-weight:normal;font-size:10px;font-family:'DejaVu Sans';-inkscape-font-specification:DejaVuSans;writing-mode:lr-tb;fill:#000000;fill-opacity:1;fill-rule:nonzero;stroke:none"
           id="text54"><tspan
             x="0 6.3600001 9.54"
             y="0"
             id="tspan52">2.5</tspan></text></g></g><g
       id="g56"><g
         id="g58"
         clip-path="url(#clipPath62)"><path
           d="M 135.53145,242.64 V 356.4"
           style="fill:none;stroke:#b0b0b0;stroke-width:0.8;stroke-linecap:square;stroke-linejoin:round;stroke-miterlimit:10;stroke-dasharray:none;stroke-opacity:1"
           id="path64" /></g></g><g
       id="g66"><path
         d="m 135.53145,242.64 v -3.5"
         style="fill:#000000;fill-opacity:1;fill-rule:nonzero;stroke:#000000;stroke-width:0.8;stroke-linecap:butt;stroke-linejoin:round;stroke-miterlimit:10;stroke-dasharray:none;stroke-opacity:1"
         id="path68" /><g
         id="g70"
         transform="translate(127.57833,228.04625)"><text
           transform="scale(1,-1)"
           style="font-variant:normal;font-weight:normal;font-size:10px;font-family:'DejaVu Sans';-inkscape-font-specification:DejaVuSans;writing-mode:lr-tb;fill:#000000;fill-opacity:1;fill-rule:nonzero;stroke:none"
           id="text74"><tspan
             x="0 6.3600001 9.54"
             y="0"
             id="tspan72">5.0</tspan></text></g></g><g
       id="g76"><g
         id="g78"
         clip-path="url(#clipPath82)"><path
           d="M 176.72239,242.64 V 356.4"
           style="fill:none;stroke:#b0b0b0;stroke-width:0.8;stroke-linecap:square;stroke-linejoin:round;stroke-miterlimit:10;stroke-dasharray:none;stroke-opacity:1"
           id="path84" /></g></g><g
       id="g86"><path
         d="m 176.72239,242.64 v -3.5"
         style="fill:#000000;fill-opacity:1;fill-rule:nonzero;stroke:#000000;stroke-width:0.8;stroke-linecap:butt;stroke-linejoin:round;stroke-miterlimit:10;stroke-dasharray:none;stroke-opacity:1"
         id="path88" /><g
         id="g90"
         transform="translate(168.76926,228.04625)"><text
           transform="scale(1,-1)"
           style="font-variant:normal;font-weight:normal;font-size:10px;font-family:'DejaVu Sans';-inkscape-font-specification:DejaVuSans;writing-mode:lr-tb;fill:#000000;fill-opacity:1;fill-rule:nonzero;stroke:none"
           id="text94"><tspan
             x="0 6.3600001 9.54"
             y="0"
             id="tspan92">7.5</tspan></text></g></g><g
       id="g96"><g
         id="g98"
         clip-path="url(#clipPath102)"><path
           d="M 217.91332,242.64 V 356.4"
           style="fill:none;stroke:#b0b0b0;stroke-width:0.8;stroke-linecap:square;stroke-linejoin:round;stroke-miterlimit:10;stroke-dasharray:none;stroke-opacity:1"
           id="path104" /></g></g><g
       id="g106"><path
         d="m 217.91332,242.64 v -3.5"
         style="fill:#000000;fill-opacity:1;fill-rule:nonzero;stroke:#000000;stroke-width:0.8;stroke-linecap:butt;stroke-linejoin:round;stroke-miterlimit:10;stroke-dasharray:none;stroke-opacity:1"
         id="path108" /><g
         id="g110"
         transform="translate(206.78051,228.04625)"><text
           transform="scale(1,-1)"
           style="font-variant:normal;font-weight:normal;font-size:10px;font-family:'DejaVu Sans';-inkscape-font-specification:DejaVuSans;writing-mode:lr-tb;fill:#000000;fill-opacity:1;fill-rule:nonzero;stroke:none"
           id="text114"><tspan
             x="0 6.3600001 12.72 15.9"
             y="0"
             id="tspan112">10.0</tspan></text></g></g><g
       id="g116"><g
         id="g118"
         clip-path="url(#clipPath122)"><path
           d="M 259.10425,242.64 V 356.4"
           style="fill:none;stroke:#b0b0b0;stroke-width:0.8;stroke-linecap:square;stroke-linejoin:round;stroke-miterlimit:10;stroke-dasharray:none;stroke-opacity:1"
           id="path124" /></g></g><g
       id="g126"><path
         d="m 259.10425,242.64 v -3.5"
         style="fill:#000000;fill-opacity:1;fill-rule:nonzero;stroke:#000000;stroke-width:0.8;stroke-linecap:butt;stroke-linejoin:round;stroke-miterlimit:10;stroke-dasharray:none;stroke-opacity:1"
         id="path128" /><g
         id="g130"
         transform="translate(247.97144,228.04625)"><text
           transform="scale(1,-1)"
           style="font-variant:normal;font-weight:normal;font-size:10px;font-family:'DejaVu Sans';-inkscape-font-specification:DejaVuSans;writing-mode:lr-tb;fill:#000000;fill-opacity:1;fill-rule:nonzero;stroke:none"
           id="text134"><tspan
             x="0 6.3600001 12.72 15.9"
             y="0"
             id="tspan132">12.5</tspan></text></g></g><g
       id="g136"><g
         id="g138"
         clip-path="url(#clipPath142)"><path
           d="M 300.29518,242.64 V 356.4"
           style="fill:none;stroke:#b0b0b0;stroke-width:0.8;stroke-linecap:square;stroke-linejoin:round;stroke-miterlimit:10;stroke-dasharray:none;stroke-opacity:1"
           id="path144" /></g></g><g
       id="g146"><path
         d="m 300.29518,242.64 v -3.5"
         style="fill:#000000;fill-opacity:1;fill-rule:nonzero;stroke:#000000;stroke-width:0.8;stroke-linecap:butt;stroke-linejoin:round;stroke-miterlimit:10;stroke-dasharray:none;stroke-opacity:1"
         id="path148" /><g
         id="g150"
         transform="translate(289.16237,228.04625)"><text
           transform="scale(1,-1)"
           style="font-variant:normal;font-weight:normal;font-size:10px;font-family:'DejaVu Sans';-inkscape-font-specification:DejaVuSans;writing-mode:lr-tb;fill:#000000;fill-opacity:1;fill-rule:nonzero;stroke:none"
           id="text154"><tspan
             x="0 6.3600001 12.72 15.9"
             y="0"
             id="tspan152">15.0</tspan></text></g></g><g
       id="g156"><g
         id="g158"
         clip-path="url(#clipPath162)"><path
           d="M 341.48612,242.64 V 356.4"
           style="fill:none;stroke:#b0b0b0;stroke-width:0.8;stroke-linecap:square;stroke-linejoin:round;stroke-miterlimit:10;stroke-dasharray:none;stroke-opacity:1"
           id="path164" /></g></g><g
       id="g166"><path
         d="m 341.48612,242.64 v -3.5"
         style="fill:#000000;fill-opacity:1;fill-rule:nonzero;stroke:#000000;stroke-width:0.8;stroke-linecap:butt;stroke-linejoin:round;stroke-miterlimit:10;stroke-dasharray:none;stroke-opacity:1"
         id="path168" /><g
         id="g170"
         transform="translate(330.3533,228.04625)"><text
           transform="scale(1,-1)"
           style="font-variant:normal;font-weight:normal;font-size:10px;font-family:'DejaVu Sans';-inkscape-font-specification:DejaVuSans;writing-mode:lr-tb;fill:#000000;fill-opacity:1;fill-rule:nonzero;stroke:none"
           id="text174"><tspan
             x="0 6.3600001 12.72 15.9"
             y="0"
             id="tspan172">17.5</tspan></text></g></g><g
       id="g176"><g
         id="g178"
         clip-path="url(#clipPath182)"><path
           d="M 382.67705,242.64 V 356.4"
           style="fill:none;stroke:#b0b0b0;stroke-width:0.8;stroke-linecap:square;stroke-linejoin:round;stroke-miterlimit:10;stroke-dasharray:none;stroke-opacity:1"
           id="path184" /></g></g><g
       id="g186"><path
         d="m 382.67705,242.64 v -3.5"
         style="fill:#000000;fill-opacity:1;fill-rule:nonzero;stroke:#000000;stroke-width:0.8;stroke-linecap:butt;stroke-linejoin:round;stroke-miterlimit:10;stroke-dasharray:none;stroke-opacity:1"
         id="path188" /><g
         id="g190"
         transform="translate(371.54424,228.04625)"><text
           transform="scale(1,-1)"
           style="font-variant:normal;font-weight:normal;font-size:10px;font-family:'DejaVu Sans';-inkscape-font-specification:DejaVuSans;writing-mode:lr-tb;fill:#000000;fill-opacity:1;fill-rule:nonzero;stroke:none"
           id="text194"><tspan
             x="0 6.3600001 12.72 15.9"
             y="0"
             id="tspan192">20.0</tspan></text></g><g
         id="g196"
         transform="translate(199.94457,214.37437)"><text
           transform="scale(1,-1)"
           style="font-variant:normal;font-weight:normal;font-size:10px;font-family:'DejaVu Sans';-inkscape-font-specification:DejaVuSans;writing-mode:lr-tb;fill:#000000;fill-opacity:1;fill-rule:nonzero;stroke:none"
           id="text200"><tspan
             x="0 6.8499999 13 15.78 19.700001 22.879999 26.780001 31.99"
             y="0"
             id="tspan198">Zeit [s]</tspan></text></g></g><g
       id="g202"><g
         id="g204"
         clip-path="url(#clipPath208)"><path
           d="M 53.14959,242.64 H 382.67705"
           style="fill:none;stroke:#b0b0b0;stroke-width:0.8;stroke-linecap:square;stroke-linejoin:round;stroke-miterlimit:10;stroke-dasharray:none;stroke-opacity:1"
           id="path210" /></g></g><g
       id="g212"><path
         d="m 53.14959,242.64 h -3.5"
         style="fill:#000000;fill-opacity:1;fill-rule:nonzero;stroke:#000000;stroke-width:0.8;stroke-linecap:butt;stroke-linejoin:round;stroke-miterlimit:10;stroke-dasharray:none;stroke-opacity:1"
         id="path214" /><g
         id="g216"
         transform="translate(21.86834,238.84312)"><text
           transform="matrix(1,0,0,-1,8.3789063,0)"
           style="font-variant:normal;font-weight:normal;font-size:10px;font-family:'DejaVu Sans';-inkscape-font-specification:DejaVuSans;writing-mode:lr-tb;fill:#000000;fill-opacity:1;fill-rule:nonzero;stroke:none"
           id="text220"><tspan
             x="0 6.3600001 9.54"
             y="0"
             id="tspan218">1.0</tspan></text><g
           id="g222"
           transform="scale(0.01)"><g
             id="g224"><g
               id="g226"
               clip-path="url(#clipPath230)"><path
                 d="M 106,355 H 732 V 272 H 106 Z"
                 style="fill:#000000;fill-opacity:1;fill-rule:nonzero;stroke:none"
                 id="path232" /></g></g></g></g></g><g
       id="g234"><g
         id="g236"
         clip-path="url(#clipPath240)"><path
           d="M 53.14959,271.08 H 382.67705"
           style="fill:none;stroke:#b0b0b0;stroke-width:0.8;stroke-linecap:square;stroke-linejoin:round;stroke-miterlimit:10;stroke-dasharray:none;stroke-opacity:1"
           id="path242" /></g></g><g
       id="g244"><path
         d="m 53.14959,271.08 h -3.5"
         style="fill:#000000;fill-opacity:1;fill-rule:nonzero;stroke:#000000;stroke-width:0.8;stroke-linecap:butt;stroke-linejoin:round;stroke-miterlimit:10;stroke-dasharray:none;stroke-opacity:1"
         id="path246" /><g
         id="g248"
         transform="translate(21.86834,267.28312)"><text
           transform="matrix(1,0,0,-1,8.3789063,0)"
           style="font-variant:normal;font-weight:normal;font-size:10px;font-family:'DejaVu Sans';-inkscape-font-specification:DejaVuSans;writing-mode:lr-tb;fill:#000000;fill-opacity:1;fill-rule:nonzero;stroke:none"
           id="text252"><tspan
             x="0 6.3600001 9.54"
             y="0"
             id="tspan250">0.5</tspan></text><g
           id="g254"
           transform="scale(0.01)"><g
             id="g256"><g
               id="g258"
               clip-path="url(#clipPath262)"><path
                 d="M 106,355 H 732 V 272 H 106 Z"
                 style="fill:#000000;fill-opacity:1;fill-rule:nonzero;stroke:none"
                 id="path264" /></g></g></g></g></g><g
       id="g266"><g
         id="g268"
         clip-path="url(#clipPath272)"><path
           d="M 53.14959,299.52 H 382.67705"
           style="fill:none;stroke:#b0b0b0;stroke-width:0.8;stroke-linecap:square;stroke-linejoin:round;stroke-miterlimit:10;stroke-dasharray:none;stroke-opacity:1"
           id="path274" /></g></g><g
       id="g276"><path
         d="m 53.14959,299.52 h -3.5"
         style="fill:#000000;fill-opacity:1;fill-rule:nonzero;stroke:#000000;stroke-width:0.8;stroke-linecap:butt;stroke-linejoin:round;stroke-miterlimit:10;stroke-dasharray:none;stroke-opacity:1"
         id="path278" /><g
         id="g280"
         transform="translate(30.24334,295.72312)"><text
           transform="scale(1,-1)"
           style="font-variant:normal;font-weight:normal;font-size:10px;font-family:'DejaVu Sans';-inkscape-font-specification:DejaVuSans;writing-mode:lr-tb;fill:#000000;fill-opacity:1;fill-rule:nonzero;stroke:none"
           id="text284"><tspan
             x="0 6.3600001 9.54"
             y="0"
             id="tspan282">0.0</tspan></text></g></g><g
       id="g286"><g
         id="g288"
         clip-path="url(#clipPath292)"><path
           d="M 53.14959,327.96 H 382.67705"
           style="fill:none;stroke:#b0b0b0;stroke-width:0.8;stroke-linecap:square;stroke-linejoin:round;stroke-miterlimit:10;stroke-dasharray:none;stroke-opacity:1"
           id="path294" /></g></g><g
       id="g296"><path
         d="m 53.14959,327.96 h -3.5"
         style="fill:#000000;fill-opacity:1;fill-rule:nonzero;stroke:#000000;stroke-width:0.8;stroke-linecap:butt;stroke-linejoin:round;stroke-miterlimit:10;stroke-dasharray:none;stroke-opacity:1"
         id="path298" /><g
         id="g300"
         transform="translate(30.24334,324.16312)"><text
           transform="scale(1,-1)"
           style="font-variant:normal;font-weight:normal;font-size:10px;font-family:'DejaVu Sans';-inkscape-font-specification:DejaVuSans;writing-mode:lr-tb;fill:#000000;fill-opacity:1;fill-rule:nonzero;stroke:none"
           id="text304"><tspan
             x="0 6.3600001 9.54"
             y="0"
             id="tspan302">0.5</tspan></text></g></g><g
       id="g306"><g
         id="g308"
         clip-path="url(#clipPath312)"><path
           d="M 53.14959,356.4 H 382.67705"
           style="fill:none;stroke:#b0b0b0;stroke-width:0.8;stroke-linecap:square;stroke-linejoin:round;stroke-miterlimit:10;stroke-dasharray:none;stroke-opacity:1"
           id="path314" /></g></g><g
       id="g316"><path
         d="m 53.14959,356.4 h -3.5"
         style="fill:#000000;fill-opacity:1;fill-rule:nonzero;stroke:#000000;stroke-width:0.8;stroke-linecap:butt;stroke-linejoin:round;stroke-miterlimit:10;stroke-dasharray:none;stroke-opacity:1"
         id="path318" /><g
         id="g320"
         transform="translate(30.24334,352.60312)"><text
           transform="scale(1,-1)"
           style="font-variant:normal;font-weight:normal;font-size:10px;font-family:'DejaVu Sans';-inkscape-font-specification:DejaVuSans;writing-mode:lr-tb;fill:#000000;fill-opacity:1;fill-rule:nonzero;stroke:none"
           id="text324"><tspan
             x="0 6.3600001 9.54"
             y="0"
             id="tspan322">1.0</tspan></text></g><g
         id="g326"
         transform="rotate(90,-116.32583,131.19417)"><text
           transform="matrix(1,0,0,-1,0,0.40625)"
           style="font-variant:normal;font-weight:normal;font-size:10px;font-family:'DejaVu Sans';-inkscape-font-specification:DejaVuSans;writing-mode:lr-tb;fill:#000000;fill-opacity:1;fill-rule:nonzero;stroke:none"
           id="text330"><tspan
             x="0 6.8408203 12.993164 17.104492 22.314453 27.8125 34.150391 36.928711 43.081055 49.428711 55.766602 62.104492 68.452148"
             y="0"
             id="tspan328">Verschiebung </tspan></text><text
           transform="matrix(1,0,0,-1,71.630859,0.40625)"
           style="font-style:italic;font-variant:normal;font-size:10px;font-family:'DejaVu Sans';-inkscape-font-specification:DejaVuSans-Oblique;writing-mode:lr-tb;fill:#000000;fill-opacity:1;fill-rule:nonzero;stroke:none"
           id="text334"><tspan
             x="0"
             y="0"
             id="tspan332">u</tspan></text><text
           transform="matrix(1,0,0,-1,77.96875,-1.234375)"
           style="font-variant:normal;font-weight:normal;font-size:7px;font-family:'DejaVu Sans';-inkscape-font-specification:DejaVuSans;writing-mode:lr-tb;fill:#000000;fill-opacity:1;fill-rule:nonzero;stroke:none"
           id="text338"><tspan
             x="0"
             y="0"
             id="tspan336">2</tspan></text><text
           transform="matrix(1,0,0,-1,85.874512,0.40625)"
           style="font-variant:normal;font-weight:normal;font-size:10px;font-family:'DejaVu Sans';-inkscape-font-specification:DejaVuSans;writing-mode:lr-tb;fill:#000000;fill-opacity:1;fill-rule:nonzero;stroke:none"
           id="text342"><tspan
             x="0 3.9013672 13.642578"
             y="0"
             id="tspan340">[m]</tspan></text></g></g><g
       id="g344"><g
         id="g346"
         clip-path="url(#clipPath350)"><path
           d="m 53.14959,299.5214 329.52746,-0.001 v 0"
           style="fill:none;stroke:#ff0000;stroke-width:1.5;stroke-linecap:butt;stroke-linejoin:round;stroke-miterlimit:10;stroke-dasharray:5.55, 2.4;stroke-dashoffset:0;stroke-opacity:1"
           id="path352" /></g></g><g
       id="g354"><g
         id="g356"
         clip-path="url(#clipPath360)"><path
           d="m 53.14959,264.36676 0.329857,0.18427 0.329858,0.55089 0.329857,0.91172 0.659715,2.86404 0.659714,4.14568 0.989572,8.22937 1.319429,13.47699 2.309002,24.0656 0.989572,7.98953 0.659714,3.9441 0.659715,2.63876 0.329857,0.79311 0.329857,0.42994 0.329858,0.0623 0.329857,-0.30608 0.329857,-0.67119 0.659715,-2.40587 0.659715,-3.73383 0.989572,-7.73543 1.319429,-13.11736 2.638858,-27.42447 0.989572,-7.74048 0.659715,-3.73799 0.659715,-2.41044 0.329857,-0.67359 0.329857,-0.30849 0.329858,0.0598 0.329857,0.42752 0.329857,0.79074 0.659715,2.63424 0.659714,3.94003 0.989572,7.98466 1.31943,13.3032 2.309001,24.23895 0.989572,8.23406 0.659714,4.14965 0.659715,2.86849 0.329857,0.91408 0.329858,0.55329 0.329857,0.1867 0.329857,-0.18184 0.329858,-0.54848 0.329857,-0.90937 0.659715,-2.85958 0.659714,-4.14171 0.989572,-8.22469 1.319429,-13.47374 2.309002,-24.06927 0.989572,-7.9944 0.659714,-3.94816 0.659715,-2.64328 0.329857,-0.79548 0.329857,-0.43235 0.329858,-0.0647 0.329857,0.30365 0.329857,0.66881 0.659715,2.40128 0.659715,3.72968 0.989572,7.73037 1.319429,13.1135 2.638855,27.42831 0.98958,7.74554 0.65971,3.74213 0.65972,2.41502 0.32985,0.67598 0.32986,0.31092 0.32986,-0.0574 0.32985,-0.42511 0.32986,-0.78836 0.65972,-2.62971 0.65971,-3.93597 0.98957,-7.97978 1.31943,-13.29964 2.309,-24.24205 0.98958,-8.23874 0.65971,-4.15362 0.65971,-2.87295 0.32986,-0.91643 0.32986,-0.5557 0.32986,-0.18913 0.32985,0.17941 0.32986,0.54608 0.32986,0.90701 0.65971,2.85512 0.65972,4.13774 0.98957,8.21999 1.31943,13.4705 2.309,24.07292 0.98957,7.99927 0.65972,3.95222 0.65971,2.6478 0.32986,0.79785 0.32986,0.43477 0.32985,0.0671 0.32986,-0.30123 0.32986,-0.66641 0.65971,-2.3967 0.65972,-3.72552 0.98957,-7.72532 1.31943,-13.10963 2.63886,-27.43214 0.98957,-7.75058 0.65971,-3.74629 0.65972,-2.41959 0.32985,-0.67837 0.32986,-0.31335 0.32986,0.055 0.32986,0.42269 0.32985,0.78599 0.65972,2.62519 0.65971,3.9319 0.98957,7.9749 1.31943,13.29608 2.30901,24.24514 0.98957,8.24342 0.65971,4.15758 0.65972,2.8774 0.32985,0.91879 0.32986,0.55809 0.32986,0.19157 0.32986,-0.17699 0.32985,-0.54367 0.32986,-0.90465 0.65972,-2.85066 0.65971,-4.13376 0.98957,-8.2153 1.31943,-13.46724 2.309,-24.07656 0.98957,-8.00413 0.65972,-3.95628 0.65971,-2.65232 0.32986,-0.80023 0.32986,-0.43719 0.32986,-0.0695 0.32985,0.2988 0.32986,0.66402 0.65971,2.39212 0.65972,3.72136 0.98957,7.72025 1.31943,13.10576 2.63886,27.43595 0.98957,7.75563 0.65972,3.75043 0.65971,2.42418 0.32986,0.68075 0.32985,0.31578 0.32986,-0.0525 0.32986,-0.42027 0.32986,-0.78362 0.65971,-2.62066 0.65972,-3.92783 0.98957,-7.97001 1.31943,-13.29252 2.309,-24.24821 0.98957,-8.2481 0.65971,-4.16154 0.65972,-2.88186 0.32986,-0.92114 0.32985,-0.5605 0.32986,-0.19399 0.32986,0.17455 0.32986,0.54126 0.32985,0.90231 0.65972,2.84619 0.65971,4.12979 0.98957,8.2106 1.31943,13.46397 2.30901,24.0802 0.98957,8.00899 0.65971,3.96034 0.65972,2.65683 0.32985,0.8026 0.32986,0.4396 0.32986,0.072 0.32986,-0.29637 0.32985,-0.66163 0.65972,-2.38754 0.65971,-3.7172 0.98957,-7.71518 1.31943,-13.10189 2.63886,-27.43975 0.98957,-7.76067 0.65972,-3.75458 0.65971,-2.42875 0.32986,-0.68314 0.32986,-0.3182 0.32986,0.0501 0.32985,0.41785 0.32986,0.78124 0.65971,2.61614 0.65972,3.92376 0.98957,7.96512 1.31943,13.28894 2.309,24.25128 0.98957,8.25276 0.65972,4.16551 0.65971,2.88632 0.32986,0.92348 0.32986,0.56291 0.32985,0.19642 0.32986,-0.17212 0.32986,-0.53886 0.32986,-0.89995 0.65971,-2.84173 0.65972,-4.1258 0.98957,-8.2059 1.31943,-13.46071 2.309,-24.08382 0.98957,-8.01384 0.65972,-3.9644 0.65971,-2.66135 0.32986,-0.80497 0.32985,-0.44201 0.32986,-0.0744 0.32986,0.29395 0.32986,0.65924 0.65971,2.38295 0.65972,3.71304 0.98957,7.71011 1.31943,13.09801 2.63885,27.44354 0.98958,7.76571 0.65971,3.75872 0.65972,2.43332 0.32985,0.68554 0.32986,0.32061 0.32986,-0.0477 0.32986,-0.41544 0.32985,-0.77886 0.65972,-2.61161 0.65971,-3.91969 0.98957,-7.96023 1.31943,-13.28536 2.309,-24.25433 0.98958,-8.25743 0.65971,-4.16947 0.65972,-2.89076 0.32985,-0.92584 0.32986,-0.56531 0.32986,-0.19885 0.32985,0.16969 0.32986,0.53645 0.32986,0.89759 0.65972,2.83727 0.65971,4.12182 0.98957,8.20119 1.31943,13.45744 2.309,24.08742 0.98957,8.0187 0.65972,3.96845 0.65971,2.66586 0.32986,0.80735 0.32986,0.44443 0.32986,0.0768 0.32985,-0.29152 0.32986,-0.65685 0.65971,-2.37836 0.65972,-3.70888 0.98957,-7.70503 1.31943,-13.09412 2.63886,-27.44732 0.98957,-7.77074 0.65971,-3.76286 0.65972,-2.4379 0.32986,-0.68792 0.32985,-0.32304 0.32986,0.0452 0.32986,0.41303 0.32986,0.77649 0.65971,2.60708 0.65971,3.91561 0.98958,7.95533 1.31943,13.28178 2.309,24.25737 0.98957,8.2621 0.65971,4.17342 0.65972,2.89521 0.32986,0.92819 0.32985,0.56771 0.32986,0.20129 0.32986,-0.16726 0.32986,-0.53405 0.32985,-0.89524 0.65972,-2.8328 0.65971,-4.11783 0.98957,-8.19648 1.31943,-13.45416 2.309,-24.09102 0.98958,-8.02355 0.65971,-3.9725 0.65972,-2.67038 0.32985,-0.80971 0.32986,-0.44685 0.32986,-0.0793 0.32985,0.2891 0.32986,0.65446 0.65972,2.37378 0.65971,3.70471 0.65972,4.8807 0.98957,9.06808 3.95829,39.73529 0.65971,4.37341 0.65971,3.1211 0.65972,1.73823 0.32986,0.32547 0.32985,-0.0428 0.32986,-0.4106 0.32986,-0.77412 0.65971,-2.60255 0.65972,-3.91153 0.98957,-7.95043 1.31943,-13.27819 2.309,-24.26041 0.98957,-8.26675 0.65972,-4.17738 0.65971,-2.89966 0.32986,-0.93054 0.32986,-0.57012 0.32985,-0.20371 0.32986,0.16483 0.32986,0.53164 0.32986,0.89288 0.65971,2.82833 0.65971,4.11386 0.98958,8.19176 1.31943,13.45088 2.309,24.0946 0.98957,8.0284 0.65971,3.97655 0.65972,2.67488 0.32986,0.81209 0.32985,0.44926 0.32986,0.0817 0.32986,-0.28667 0.32986,-0.65207 0.65971,-2.36918 0.65972,-3.70055 0.65971,-4.87713 0.98957,-9.06416 3.95829,-39.74072 0.65971,-4.37727 0.65972,-3.12548 0.65971,-1.74295 0.32986,-0.32788 0.32986,0.0404 0.32985,0.40819 0.32986,0.77173 0.65972,2.59802 0.65971,3.90746 0.98957,7.94552 1.31943,13.27459 2.309,24.26343 0.98958,8.27141 0.65971,4.18134 0.65971,2.9041 0.32986,0.93289 0.32986,0.57252 0.32986,0.20614 0.32985,-0.1624 0.32986,-0.52923 0.32986,-0.89052 0.65971,-2.82387 0.65972,-4.10986 0.98957,-8.18705 1.31943,-13.44758 2.309,-24.09819 0.98957,-8.03323 0.65972,-3.9806 0.65971,-2.6794 0.32986,-0.81445 0.32986,-0.45168 0.32985,-0.0842 0.32986,0.28425 0.32986,0.64967 0.65971,2.3646 0.65972,3.69638 0.65971,4.87355 0.98957,9.06024 3.95829,39.74614 0.65972,4.38112 0.65971,3.12985 0.65972,1.74767 0.32985,0.33031 0.32986,-0.0379 0.32986,-0.40577 0.32985,-0.76936 0.65972,-2.59349 0.65971,-3.90338 0.98958,-7.94061 1.31943,-13.27099 2.309,-24.26644 0.98957,-8.27606 0.65971,-4.18529 0.65972,-2.90855 0.32985,-0.93524 0.32986,-0.57492 0.32986,-0.20857 0.32986,0.15997 0.32985,0.52683 0.32986,0.88816 0.65972,2.81939 0.65971,4.10588 0.98957,8.18232 1.31943,13.44429 2.309,24.10175 0.98958,8.03807 0.65971,3.98465 0.65972,2.6839 0.32985,0.81683 0.32986,0.45409 0.32986,0.0866 0.32985,-0.28182 0.32986,-0.64727 0.65972,-2.36001 0.65971,-3.69222 0.65971,-4.86998 0.98958,-9.05631 3.95828,-39.75153 0.65972,-4.38498 0.65971,-3.13422 0.65972,-1.75238 0.32986,-0.33273 0.32985,0.0355 0.32986,0.40336 0.32986,0.76698 0.65971,2.58895 0.65972,3.8993 0.98957,7.9357 1.31943,13.26738 1.31943,14.29812 v 0"
           style="fill:none;stroke:#008000;stroke-width:1.5;stroke-linecap:butt;stroke-linejoin:round;stroke-miterlimit:10;stroke-dasharray:1.5, 2.475;stroke-dashoffset:0;stroke-opacity:1"
           id="path362" /></g></g><g
       id="g364"><g
         id="g366"
         clip-path="url(#clipPath370)"><path
           d="m 53.14959,264.36816 0.329857,0.18427 0.329858,0.55088 0.329857,0.91172 0.659715,2.86402 0.659714,4.14565 0.989572,8.22933 1.319429,13.47688 2.309002,24.06537 0.989572,7.9894 0.659714,3.94401 0.659715,2.63866 0.329857,0.79306 0.329857,0.42989 0.329858,0.0622 0.329857,-0.30613 0.329857,-0.67125 0.659715,-2.40597 0.659715,-3.73393 0.989572,-7.7356 1.319429,-13.11758 2.638858,-27.42488 0.989572,-7.74063 0.659715,-3.73807 0.659715,-2.41053 0.329857,-0.67363 0.329857,-0.30853 0.329858,0.0598 0.329857,0.42748 0.329857,0.79071 0.659715,2.63417 0.659714,3.93998 0.989572,7.98459 1.31943,13.30314 2.309001,24.23892 0.989572,8.23408 0.659714,4.14968 0.659715,2.86853 0.329857,0.91409 0.329858,0.55331 0.329857,0.18673 0.329857,-0.18182 0.329858,-0.54845 0.329857,-0.90934 0.659715,-2.85952 0.659714,-4.14164 0.989572,-8.22457 1.319429,-13.47357 2.309002,-24.06892 0.989572,-7.99424 0.659714,-3.94805 0.659715,-2.64317 0.329857,-0.79543 0.329857,-0.4323 0.329858,-0.0646 0.329857,0.30371 0.329857,0.66886 0.659715,2.40139 0.659715,3.72978 0.989572,7.73052 1.319429,13.11369 2.638855,27.42863 0.98958,7.74563 0.65971,3.74218 0.65972,2.41507 0.32985,0.67599 0.32986,0.31094 0.32986,-0.0574 0.32985,-0.42509 0.32986,-0.78835 0.65972,-2.6297 0.65971,-3.93596 0.98957,-7.97979 1.31943,-13.29968 2.309,-24.24219 0.98958,-8.23883 0.65971,-4.15369 0.65971,-2.87303 0.32986,-0.91647 0.32986,-0.55573 0.32986,-0.18917 0.32985,0.17936 0.32986,0.54603 0.32986,0.90697 0.65971,2.85502 0.65972,4.13764 0.98957,8.21984 1.31943,13.47028 2.309,24.07254 0.98957,7.9991 0.65972,3.95212 0.65971,2.6477 0.32986,0.79781 0.32986,0.43472 0.32985,0.0671 0.32986,-0.30127 0.32986,-0.66646 0.65971,-2.39679 0.65972,-3.7256 0.98957,-7.72542 1.31943,-13.10976 2.63886,-27.43228 0.98957,-7.75061 0.65971,-3.74629 0.65972,-2.41959 0.32985,-0.67836 0.32986,-0.31334 0.32986,0.055 0.32986,0.4227 0.32985,0.78601 0.65972,2.62522 0.65971,3.93194 0.98957,7.97497 1.31943,13.29622 2.30901,24.24542 0.98957,8.24356 0.65971,4.15768 0.65972,2.87751 0.32985,0.91884 0.32986,0.55815 0.32986,0.19161 0.32986,-0.17692 0.32985,-0.54362 0.32986,-0.9046 0.65972,-2.85055 0.65971,-4.13365 0.98957,-8.21514 1.31943,-13.46703 2.309,-24.07623 0.98957,-8.004 0.65972,-3.9562 0.65971,-2.65225 0.32986,-0.80019 0.32986,-0.43716 0.32986,-0.0695 0.32985,0.29882 0.32986,0.66405 0.65971,2.39217 0.65972,3.7214 0.98957,7.72029 1.31943,13.10579 2.63886,27.4359 0.98957,7.75558 0.65972,3.75039 0.65971,2.42412 0.32986,0.68072 0.32985,0.31575 0.32986,-0.0526 0.32986,-0.4203 0.32986,-0.78365 0.65971,-2.62075 0.65972,-3.92791 0.98957,-7.97014 1.31943,-13.29271 2.309,-24.24858 0.98957,-8.24826 0.65971,-4.16166 0.65972,-2.88196 0.32986,-0.92119 0.32985,-0.56056 0.32986,-0.19404 0.32986,0.1745 0.32986,0.54121 0.32985,0.90225 0.65972,2.8461 0.65971,4.12968 0.98957,8.21047 1.31943,13.46381 2.30901,24.07997 0.98957,8.00892 0.65971,3.96031 0.65972,2.6568 0.32985,0.80259 0.32986,0.4396 0.32986,0.072 0.32986,-0.29638 0.32985,-0.66163 0.65972,-2.38754 0.65971,-3.71719 0.98957,-7.71514 1.31943,-13.10182 2.63886,-27.43952 0.98957,-7.76055 0.65972,-3.75449 0.65971,-2.42866 0.32986,-0.6831 0.32986,-0.31815 0.32986,0.0501 0.32985,0.41791 0.32986,0.78129 0.65971,2.61624 0.65972,3.92387 0.98957,7.96528 1.31943,13.28916 2.309,24.25165 0.98957,8.25292 0.65972,4.16561 0.65971,2.8864 0.32986,0.92353 0.32986,0.56295 0.32985,0.19646 0.32986,-0.17208 0.32986,-0.53882 0.32986,-0.89991 0.65971,-2.84166 0.65972,-4.12574 0.98957,-8.20582 1.31943,-13.46063 2.309,-24.08375 0.98957,-8.01385 0.65972,-3.96441 0.65971,-2.66137 0.32986,-0.80499 0.32985,-0.44203 0.32986,-0.0744 0.32986,0.29393 0.32986,0.65922 0.65971,2.3829 0.65972,3.71298 0.98957,7.71001 1.31943,13.09785 2.63885,27.44317 0.98958,7.76555 0.65971,3.75861 0.65972,2.43322 0.32985,0.68548 0.32986,0.32056 0.32986,-0.0477 0.32986,-0.4155 0.32985,-0.77892 0.65972,-2.61172 0.65971,-3.91979 0.98957,-7.96038 1.31943,-13.28557 2.309,-24.25463 0.98958,-8.25754 0.65971,-4.16954 0.65972,-2.89081 0.32985,-0.92587 0.32986,-0.56533 0.32986,-0.19887 0.32985,0.16967 0.32986,0.53643 0.32986,0.89758 0.65972,2.83724 0.65971,4.1218 0.98957,8.20118 1.31943,13.45746 2.309,24.08753 0.98957,8.01878 0.65972,3.96851 0.65971,2.66593 0.32986,0.80738 0.32986,0.44446 0.32986,0.0769 0.32985,-0.29148 0.32986,-0.65681 0.65971,-2.37828 0.65972,-3.70878 0.98957,-7.70488 1.31943,-13.09391 2.63886,-27.44689 0.98957,-7.77058 0.65971,-3.76275 0.65972,-2.4378 0.32986,-0.68787 0.32985,-0.32299 0.32986,0.0453 0.32986,0.41307 0.32986,0.77653 0.65971,2.60718 0.65971,3.9157 0.98958,7.95545 1.31943,13.28191 2.309,24.25755 0.98957,8.26213 0.65971,4.17345 0.65972,2.89522 0.32986,0.92819 0.32985,0.56771 0.32986,0.20128 0.32986,-0.16726 0.32986,-0.53406 0.32985,-0.89524 0.65972,-2.83282 0.65971,-4.11788 0.98957,-8.19654 1.31943,-13.45427 2.309,-24.09128 0.98958,-8.02368 0.65971,-3.9726 0.65972,-2.67047 0.32985,-0.80977 0.32986,-0.44689 0.32986,-0.0793 0.32985,0.28904 0.32986,0.65441 0.65972,2.37367 0.65971,3.7046 0.65972,4.88059 0.98957,9.06792 3.95829,39.73468 0.65971,4.37333 0.65971,3.12101 0.65972,1.73816 0.32986,0.32543 0.32985,-0.0428 0.32986,-0.41064 0.32986,-0.77414 0.65971,-2.60261 0.65972,-3.91158 0.98957,-7.95049 1.31943,-13.27823 2.309,-24.26042 0.98957,-8.26671 0.65972,-4.17736 0.65971,-2.89962 0.32986,-0.93051 0.32986,-0.57009 0.32985,-0.20369 0.32986,0.16486 0.32986,0.53167 0.32986,0.89291 0.65971,2.8284 0.65971,4.11393 0.98958,8.19189 1.31943,13.45106 2.309,24.09496 0.98957,8.02856 0.65971,3.97666 0.65972,2.67499 0.32986,0.81214 0.32985,0.44932 0.32986,0.0818 0.32986,-0.28662 0.32986,-0.65201 0.65971,-2.36908 0.65972,-3.70045 0.65971,-4.87703 0.98957,-9.06402 3.95829,-39.74028 0.65971,-4.37722 0.65972,-3.12543 0.65971,-1.74292 0.32986,-0.32787 0.32986,0.0404 0.32985,0.4082 0.32986,0.77174 0.65972,2.59803 0.65971,3.90746 0.98957,7.9455 1.31943,13.27454 2.309,24.26327 0.98958,8.2713 0.65971,4.18127 0.65971,2.90402 0.32986,0.93285 0.32986,0.57247 0.32986,0.2061 0.32985,-0.16245 0.32986,-0.52928 0.32986,-0.89057 0.65971,-2.82396 0.65972,-4.10997 0.98957,-8.1872 1.31943,-13.44781 2.309,-24.09856 0.98957,-8.03339 0.65972,-3.9807 0.65971,-2.6795 0.32986,-0.8145 0.32986,-0.45172 0.32985,-0.0842 0.32986,0.28421 0.32986,0.64962 0.65971,2.36452 0.65972,3.69631 0.65971,4.87349 0.98957,9.06015 3.95829,39.74595 0.65972,4.38112 0.65971,3.12986 0.65972,1.74768 0.32985,0.33032 0.32986,-0.0379 0.32986,-0.40576 0.32985,-0.76934 0.65972,-2.59345 0.65971,-3.90332 0.98958,-7.94054 1.31943,-13.27084 2.309,-24.26614 0.98957,-8.27591 0.65971,-4.18519 0.65972,-2.90844 0.32985,-0.93519 0.32986,-0.57487 0.32986,-0.20851 0.32986,0.16002 0.32985,0.52688 0.32986,0.88822 0.65972,2.8195 0.65971,4.10599 0.98957,8.18248 1.31943,13.4445 2.309,24.10207 0.98958,8.03819 0.65971,3.98472 0.65972,2.68397 0.32985,0.81686 0.32986,0.45412 0.32986,0.0866 0.32985,-0.2818 0.32986,-0.64725 0.65972,-2.35997 0.65971,-3.69218 0.65971,-4.86996 0.98958,-9.0563 3.95828,-39.75164 0.65972,-4.38502 0.65971,-3.13428 0.65972,-1.75244 0.32986,-0.33277 0.32985,0.0355 0.32986,0.40332 0.32986,0.76694 0.65971,2.58887 0.65972,3.89921 0.98957,7.93557 1.31943,13.26718 1.31943,14.2979 v 0"
           style="fill:none;stroke:#1f77b4;stroke-width:1.5;stroke-linecap:square;stroke-linejoin:round;stroke-miterlimit:10;stroke-dasharray:none;stroke-opacity:1"
           id="path372" /></g></g><g
       id="g374"><path
         d="M 53.14959,242.64 V 356.4"
         style="fill:none;stroke:#000000;stroke-width:0.8;stroke-linecap:square;stroke-linejoin:miter;stroke-miterlimit:10;stroke-dasharray:none;stroke-opacity:1"
         id="path376" /><path
         d="M 382.67705,242.64 V 356.4"
         style="fill:none;stroke:#000000;stroke-width:0.8;stroke-linecap:square;stroke-linejoin:miter;stroke-miterlimit:10;stroke-dasharray:none;stroke-opacity:1"
         id="path378" /><path
         d="M 53.14959,242.64 H 382.67705"
         style="fill:none;stroke:#000000;stroke-width:0.8;stroke-linecap:square;stroke-linejoin:miter;stroke-miterlimit:10;stroke-dasharray:none;stroke-opacity:1"
         id="path380" /><path
         d="M 53.14959,356.4 H 382.67705"
         style="fill:none;stroke:#000000;stroke-width:0.8;stroke-linecap:square;stroke-linejoin:miter;stroke-miterlimit:10;stroke-dasharray:none;stroke-opacity:1"
         id="path382" /><path
         d="M 53.14959,72 H 382.67705 V 185.76 H 53.14959 Z"
         style="fill:#ffffff;fill-opacity:1;fill-rule:nonzero;stroke:none"
         id="path384" /></g><g
       id="g386"><g
         id="g388"
         clip-path="url(#clipPath392)"><path
           d="M 53.14959,72 V 185.76"
           style="fill:none;stroke:#b0b0b0;stroke-width:0.8;stroke-linecap:square;stroke-linejoin:round;stroke-miterlimit:10;stroke-dasharray:none;stroke-opacity:1"
           id="path394" /></g></g><g
       id="g396"><path
         d="M 53.14959,72 V 68.5"
         style="fill:#000000;fill-opacity:1;fill-rule:nonzero;stroke:#000000;stroke-width:0.8;stroke-linecap:butt;stroke-linejoin:round;stroke-miterlimit:10;stroke-dasharray:none;stroke-opacity:1"
         id="path398" /><g
         id="g400"
         transform="translate(45.196465,57.40625)"><text
           transform="scale(1,-1)"
           style="font-variant:normal;font-weight:normal;font-size:10px;font-family:'DejaVu Sans';-inkscape-font-specification:DejaVuSans;writing-mode:lr-tb;fill:#000000;fill-opacity:1;fill-rule:nonzero;stroke:none"
           id="text404"><tspan
             x="0 6.3600001 9.54"
             y="0"
             id="tspan402">0.0</tspan></text></g></g><g
       id="g406"><g
         id="g408"
         clip-path="url(#clipPath412)"><path
           d="M 94.340522,72 V 185.76"
           style="fill:none;stroke:#b0b0b0;stroke-width:0.8;stroke-linecap:square;stroke-linejoin:round;stroke-miterlimit:10;stroke-dasharray:none;stroke-opacity:1"
           id="path414" /></g></g><g
       id="g416"><path
         d="M 94.340522,72 V 68.5"
         style="fill:#000000;fill-opacity:1;fill-rule:nonzero;stroke:#000000;stroke-width:0.8;stroke-linecap:butt;stroke-linejoin:round;stroke-miterlimit:10;stroke-dasharray:none;stroke-opacity:1"
         id="path418" /><g
         id="g420"
         transform="translate(86.387397,57.40625)"><text
           transform="scale(1,-1)"
           style="font-variant:normal;font-weight:normal;font-size:10px;font-family:'DejaVu Sans';-inkscape-font-specification:DejaVuSans;writing-mode:lr-tb;fill:#000000;fill-opacity:1;fill-rule:nonzero;stroke:none"
           id="text424"><tspan
             x="0 6.3600001 9.54"
             y="0"
             id="tspan422">2.5</tspan></text></g></g><g
       id="g426"><g
         id="g428"
         clip-path="url(#clipPath432)"><path
           d="M 135.53145,72 V 185.76"
           style="fill:none;stroke:#b0b0b0;stroke-width:0.8;stroke-linecap:square;stroke-linejoin:round;stroke-miterlimit:10;stroke-dasharray:none;stroke-opacity:1"
           id="path434" /></g></g><g
       id="g436"><path
         d="M 135.53145,72 V 68.5"
         style="fill:#000000;fill-opacity:1;fill-rule:nonzero;stroke:#000000;stroke-width:0.8;stroke-linecap:butt;stroke-linejoin:round;stroke-miterlimit:10;stroke-dasharray:none;stroke-opacity:1"
         id="path438" /><g
         id="g440"
         transform="translate(127.57833,57.40625)"><text
           transform="scale(1,-1)"
           style="font-variant:normal;font-weight:normal;font-size:10px;font-family:'DejaVu Sans';-inkscape-font-specification:DejaVuSans;writing-mode:lr-tb;fill:#000000;fill-opacity:1;fill-rule:nonzero;stroke:none"
           id="text444"><tspan
             x="0 6.3600001 9.54"
             y="0"
             id="tspan442">5.0</tspan></text></g></g><g
       id="g446"><g
         id="g448"
         clip-path="url(#clipPath452)"><path
           d="M 176.72239,72 V 185.76"
           style="fill:none;stroke:#b0b0b0;stroke-width:0.8;stroke-linecap:square;stroke-linejoin:round;stroke-miterlimit:10;stroke-dasharray:none;stroke-opacity:1"
           id="path454" /></g></g><g
       id="g456"><path
         d="M 176.72239,72 V 68.5"
         style="fill:#000000;fill-opacity:1;fill-rule:nonzero;stroke:#000000;stroke-width:0.8;stroke-linecap:butt;stroke-linejoin:round;stroke-miterlimit:10;stroke-dasharray:none;stroke-opacity:1"
         id="path458" /><g
         id="g460"
         transform="translate(168.76926,57.40625)"><text
           transform="scale(1,-1)"
           style="font-variant:normal;font-weight:normal;font-size:10px;font-family:'DejaVu Sans';-inkscape-font-specification:DejaVuSans;writing-mode:lr-tb;fill:#000000;fill-opacity:1;fill-rule:nonzero;stroke:none"
           id="text464"><tspan
             x="0 6.3600001 9.54"
             y="0"
             id="tspan462">7.5</tspan></text></g></g><g
       id="g466"><g
         id="g468"
         clip-path="url(#clipPath472)"><path
           d="M 217.91332,72 V 185.76"
           style="fill:none;stroke:#b0b0b0;stroke-width:0.8;stroke-linecap:square;stroke-linejoin:round;stroke-miterlimit:10;stroke-dasharray:none;stroke-opacity:1"
           id="path474" /></g></g><g
       id="g476"><path
         d="M 217.91332,72 V 68.5"
         style="fill:#000000;fill-opacity:1;fill-rule:nonzero;stroke:#000000;stroke-width:0.8;stroke-linecap:butt;stroke-linejoin:round;stroke-miterlimit:10;stroke-dasharray:none;stroke-opacity:1"
         id="path478" /><g
         id="g480"
         transform="translate(206.78051,57.40625)"><text
           transform="scale(1,-1)"
           style="font-variant:normal;font-weight:normal;font-size:10px;font-family:'DejaVu Sans';-inkscape-font-specification:DejaVuSans;writing-mode:lr-tb;fill:#000000;fill-opacity:1;fill-rule:nonzero;stroke:none"
           id="text484"><tspan
             x="0 6.3600001 12.72 15.9"
             y="0"
             id="tspan482">10.0</tspan></text></g></g><g
       id="g486"><g
         id="g488"
         clip-path="url(#clipPath492)"><path
           d="M 259.10425,72 V 185.76"
           style="fill:none;stroke:#b0b0b0;stroke-width:0.8;stroke-linecap:square;stroke-linejoin:round;stroke-miterlimit:10;stroke-dasharray:none;stroke-opacity:1"
           id="path494" /></g></g><g
       id="g496"><path
         d="M 259.10425,72 V 68.5"
         style="fill:#000000;fill-opacity:1;fill-rule:nonzero;stroke:#000000;stroke-width:0.8;stroke-linecap:butt;stroke-linejoin:round;stroke-miterlimit:10;stroke-dasharray:none;stroke-opacity:1"
         id="path498" /><g
         id="g500"
         transform="translate(247.97144,57.40625)"><text
           transform="scale(1,-1)"
           style="font-variant:normal;font-weight:normal;font-size:10px;font-family:'DejaVu Sans';-inkscape-font-specification:DejaVuSans;writing-mode:lr-tb;fill:#000000;fill-opacity:1;fill-rule:nonzero;stroke:none"
           id="text504"><tspan
             x="0 6.3600001 12.72 15.9"
             y="0"
             id="tspan502">12.5</tspan></text></g></g><g
       id="g506"><g
         id="g508"
         clip-path="url(#clipPath512)"><path
           d="M 300.29518,72 V 185.76"
           style="fill:none;stroke:#b0b0b0;stroke-width:0.8;stroke-linecap:square;stroke-linejoin:round;stroke-miterlimit:10;stroke-dasharray:none;stroke-opacity:1"
           id="path514" /></g></g><g
       id="g516"><path
         d="M 300.29518,72 V 68.5"
         style="fill:#000000;fill-opacity:1;fill-rule:nonzero;stroke:#000000;stroke-width:0.8;stroke-linecap:butt;stroke-linejoin:round;stroke-miterlimit:10;stroke-dasharray:none;stroke-opacity:1"
         id="path518" /><g
         id="g520"
         transform="translate(289.16237,57.40625)"><text
           transform="scale(1,-1)"
           style="font-variant:normal;font-weight:normal;font-size:10px;font-family:'DejaVu Sans';-inkscape-font-specification:DejaVuSans;writing-mode:lr-tb;fill:#000000;fill-opacity:1;fill-rule:nonzero;stroke:none"
           id="text524"><tspan
             x="0 6.3600001 12.72 15.9"
             y="0"
             id="tspan522">15.0</tspan></text></g></g><g
       id="g526"><g
         id="g528"
         clip-path="url(#clipPath532)"><path
           d="M 341.48612,72 V 185.76"
           style="fill:none;stroke:#b0b0b0;stroke-width:0.8;stroke-linecap:square;stroke-linejoin:round;stroke-miterlimit:10;stroke-dasharray:none;stroke-opacity:1"
           id="path534" /></g></g><g
       id="g536"><path
         d="M 341.48612,72 V 68.5"
         style="fill:#000000;fill-opacity:1;fill-rule:nonzero;stroke:#000000;stroke-width:0.8;stroke-linecap:butt;stroke-linejoin:round;stroke-miterlimit:10;stroke-dasharray:none;stroke-opacity:1"
         id="path538" /><g
         id="g540"
         transform="translate(330.3533,57.40625)"><text
           transform="scale(1,-1)"
           style="font-variant:normal;font-weight:normal;font-size:10px;font-family:'DejaVu Sans';-inkscape-font-specification:DejaVuSans;writing-mode:lr-tb;fill:#000000;fill-opacity:1;fill-rule:nonzero;stroke:none"
           id="text544"><tspan
             x="0 6.3600001 12.72 15.9"
             y="0"
             id="tspan542">17.5</tspan></text></g></g><g
       id="g546"><g
         id="g548"
         clip-path="url(#clipPath552)"><path
           d="M 382.67705,72 V 185.76"
           style="fill:none;stroke:#b0b0b0;stroke-width:0.8;stroke-linecap:square;stroke-linejoin:round;stroke-miterlimit:10;stroke-dasharray:none;stroke-opacity:1"
           id="path554" /></g></g><g
       id="g556"><path
         d="M 382.67705,72 V 68.5"
         style="fill:#000000;fill-opacity:1;fill-rule:nonzero;stroke:#000000;stroke-width:0.8;stroke-linecap:butt;stroke-linejoin:round;stroke-miterlimit:10;stroke-dasharray:none;stroke-opacity:1"
         id="path558" /><g
         id="g560"
         transform="translate(371.54424,57.40625)"><text
           transform="scale(1,-1)"
           style="font-variant:normal;font-weight:normal;font-size:10px;font-family:'DejaVu Sans';-inkscape-font-specification:DejaVuSans;writing-mode:lr-tb;fill:#000000;fill-opacity:1;fill-rule:nonzero;stroke:none"
           id="text564"><tspan
             x="0 6.3600001 12.72 15.9"
             y="0"
             id="tspan562">20.0</tspan></text></g><g
         id="g566"
         transform="translate(199.94457,43.734375)"><text
           transform="scale(1,-1)"
           style="font-variant:normal;font-weight:normal;font-size:10px;font-family:'DejaVu Sans';-inkscape-font-specification:DejaVuSans;writing-mode:lr-tb;fill:#000000;fill-opacity:1;fill-rule:nonzero;stroke:none"
           id="text570"><tspan
             x="0 6.8499999 13 15.78 19.700001 22.879999 26.780001 31.99"
             y="0"
             id="tspan568">Zeit [s]</tspan></text></g></g><g
       id="g572"><g
         id="g574"
         clip-path="url(#clipPath578)"><path
           d="M 53.14959,72 H 382.67705"
           style="fill:none;stroke:#b0b0b0;stroke-width:0.8;stroke-linecap:square;stroke-linejoin:round;stroke-miterlimit:10;stroke-dasharray:none;stroke-opacity:1"
           id="path580" /></g></g><g
       id="g582"><path
         d="m 53.14959,72 h -3.5"
         style="fill:#000000;fill-opacity:1;fill-rule:nonzero;stroke:#000000;stroke-width:0.8;stroke-linecap:butt;stroke-linejoin:round;stroke-miterlimit:10;stroke-dasharray:none;stroke-opacity:1"
         id="path584" /><g
         id="g586"
         transform="translate(21.86834,68.203125)"><text
           transform="matrix(1,0,0,-1,8.3789063,0)"
           style="font-variant:normal;font-weight:normal;font-size:10px;font-family:'DejaVu Sans';-inkscape-font-specification:DejaVuSans;writing-mode:lr-tb;fill:#000000;fill-opacity:1;fill-rule:nonzero;stroke:none"
           id="text590"><tspan
             x="0 6.3600001 9.54"
             y="0"
             id="tspan588">1.0</tspan></text><g
           id="g592"
           transform="scale(0.01)"><g
             id="g594"><g
               id="g596"
               clip-path="url(#clipPath600)"><path
                 d="M 106,355 H 732 V 272 H 106 Z"
                 style="fill:#000000;fill-opacity:1;fill-rule:nonzero;stroke:none"
                 id="path602" /></g></g></g></g></g><g
       id="g604"><g
         id="g606"
         clip-path="url(#clipPath610)"><path
           d="M 53.14959,100.44 H 382.67705"
           style="fill:none;stroke:#b0b0b0;stroke-width:0.8;stroke-linecap:square;stroke-linejoin:round;stroke-miterlimit:10;stroke-dasharray:none;stroke-opacity:1"
           id="path612" /></g></g><g
       id="g614"><path
         d="m 53.14959,100.44 h -3.5"
         style="fill:#000000;fill-opacity:1;fill-rule:nonzero;stroke:#000000;stroke-width:0.8;stroke-linecap:butt;stroke-linejoin:round;stroke-miterlimit:10;stroke-dasharray:none;stroke-opacity:1"
         id="path616" /><g
         id="g618"
         transform="translate(21.86834,96.643125)"><text
           transform="matrix(1,0,0,-1,8.3789063,0)"
           style="font-variant:normal;font-weight:normal;font-size:10px;font-family:'DejaVu Sans';-inkscape-font-specification:DejaVuSans;writing-mode:lr-tb;fill:#000000;fill-opacity:1;fill-rule:nonzero;stroke:none"
           id="text622"><tspan
             x="0 6.3600001 9.54"
             y="0"
             id="tspan620">0.5</tspan></text><g
           id="g624"
           transform="scale(0.01)"><g
             id="g626"><g
               id="g628"
               clip-path="url(#clipPath632)"><path
                 d="M 106,355 H 732 V 272 H 106 Z"
                 style="fill:#000000;fill-opacity:1;fill-rule:nonzero;stroke:none"
                 id="path634" /></g></g></g></g></g><g
       id="g636"><g
         id="g638"
         clip-path="url(#clipPath642)"><path
           d="M 53.14959,128.88 H 382.67705"
           style="fill:none;stroke:#b0b0b0;stroke-width:0.8;stroke-linecap:square;stroke-linejoin:round;stroke-miterlimit:10;stroke-dasharray:none;stroke-opacity:1"
           id="path644" /></g></g><g
       id="g646"><path
         d="m 53.14959,128.88 h -3.5"
         style="fill:#000000;fill-opacity:1;fill-rule:nonzero;stroke:#000000;stroke-width:0.8;stroke-linecap:butt;stroke-linejoin:round;stroke-miterlimit:10;stroke-dasharray:none;stroke-opacity:1"
         id="path648" /><g
         id="g650"
         transform="translate(30.24334,125.08313)"><text
           transform="scale(1,-1)"
           style="font-variant:normal;font-weight:normal;font-size:10px;font-family:'DejaVu Sans';-inkscape-font-specification:DejaVuSans;writing-mode:lr-tb;fill:#000000;fill-opacity:1;fill-rule:nonzero;stroke:none"
           id="text654"><tspan
             x="0 6.3600001 9.54"
             y="0"
             id="tspan652">0.0</tspan></text></g></g><g
       id="g656"><g
         id="g658"
         clip-path="url(#clipPath662)"><path
           d="M 53.14959,157.32 H 382.67705"
           style="fill:none;stroke:#b0b0b0;stroke-width:0.8;stroke-linecap:square;stroke-linejoin:round;stroke-miterlimit:10;stroke-dasharray:none;stroke-opacity:1"
           id="path664" /></g></g><g
       id="g666"><path
         d="m 53.14959,157.32 h -3.5"
         style="fill:#000000;fill-opacity:1;fill-rule:nonzero;stroke:#000000;stroke-width:0.8;stroke-linecap:butt;stroke-linejoin:round;stroke-miterlimit:10;stroke-dasharray:none;stroke-opacity:1"
         id="path668" /><g
         id="g670"
         transform="translate(30.24334,153.52312)"><text
           transform="scale(1,-1)"
           style="font-variant:normal;font-weight:normal;font-size:10px;font-family:'DejaVu Sans';-inkscape-font-specification:DejaVuSans;writing-mode:lr-tb;fill:#000000;fill-opacity:1;fill-rule:nonzero;stroke:none"
           id="text674"><tspan
             x="0 6.3600001 9.54"
             y="0"
             id="tspan672">0.5</tspan></text></g></g><g
       id="g676"><g
         id="g678"
         clip-path="url(#clipPath682)"><path
           d="M 53.14959,185.76 H 382.67705"
           style="fill:none;stroke:#b0b0b0;stroke-width:0.8;stroke-linecap:square;stroke-linejoin:round;stroke-miterlimit:10;stroke-dasharray:none;stroke-opacity:1"
           id="path684" /></g></g><g
       id="g686"><path
         d="m 53.14959,185.76 h -3.5"
         style="fill:#000000;fill-opacity:1;fill-rule:nonzero;stroke:#000000;stroke-width:0.8;stroke-linecap:butt;stroke-linejoin:round;stroke-miterlimit:10;stroke-dasharray:none;stroke-opacity:1"
         id="path688" /><g
         id="g690"
         transform="translate(30.24334,181.96312)"><text
           transform="scale(1,-1)"
           style="font-variant:normal;font-weight:normal;font-size:10px;font-family:'DejaVu Sans';-inkscape-font-specification:DejaVuSans;writing-mode:lr-tb;fill:#000000;fill-opacity:1;fill-rule:nonzero;stroke:none"
           id="text694"><tspan
             x="0 6.3600001 9.54"
             y="0"
             id="tspan692">1.0</tspan></text></g><g
         id="g696"
         transform="rotate(90,-31.00583,45.87417)"><text
           transform="matrix(1,0,0,-1,0,0.40625)"
           style="font-variant:normal;font-weight:normal;font-size:10px;font-family:'DejaVu Sans';-inkscape-font-specification:DejaVuSans;writing-mode:lr-tb;fill:#000000;fill-opacity:1;fill-rule:nonzero;stroke:none"
           id="text700"><tspan
             x="0 6.8408203 12.993164 17.104492 22.314453 27.8125 34.150391 36.928711 43.081055 49.428711 55.766602 62.104492 68.452148"
             y="0"
             id="tspan698">Verschiebung </tspan></text><text
           transform="matrix(1,0,0,-1,71.630859,0.40625)"
           style="font-style:italic;font-variant:normal;font-size:10px;font-family:'DejaVu Sans';-inkscape-font-specification:DejaVuSans-Oblique;writing-mode:lr-tb;fill:#000000;fill-opacity:1;fill-rule:nonzero;stroke:none"
           id="text704"><tspan
             x="0"
             y="0"
             id="tspan702">u</tspan></text><text
           transform="matrix(1,0,0,-1,77.96875,-1.234375)"
           style="font-variant:normal;font-weight:normal;font-size:7px;font-family:'DejaVu Sans';-inkscape-font-specification:DejaVuSans;writing-mode:lr-tb;fill:#000000;fill-opacity:1;fill-rule:nonzero;stroke:none"
           id="text708"><tspan
             x="0"
             y="0"
             id="tspan706">1</tspan></text><text
           transform="matrix(1,0,0,-1,85.874512,0.40625)"
           style="font-variant:normal;font-weight:normal;font-size:10px;font-family:'DejaVu Sans';-inkscape-font-specification:DejaVuSans;writing-mode:lr-tb;fill:#000000;fill-opacity:1;fill-rule:nonzero;stroke:none"
           id="text712"><tspan
             x="0 3.9013672 13.642578"
             y="0"
             id="tspan710">[m]</tspan></text></g></g><g
       id="g714"><g
         id="g716"
         clip-path="url(#clipPath720)"><path
           d="m 53.14959,128.88086 329.52746,-7e-4 v 0"
           style="fill:none;stroke:#ff0000;stroke-width:1.5;stroke-linecap:butt;stroke-linejoin:round;stroke-miterlimit:10;stroke-dasharray:5.55, 2.4;stroke-dashoffset:0;stroke-opacity:1"
           id="path722" /></g></g><g
       id="g724"><g
         id="g726"
         clip-path="url(#clipPath730)"><path
           d="m 53.14959,185.75913 0.329857,-0.29815 0.329858,-0.89135 0.329857,-1.4752 0.659715,-4.63411 0.659714,-6.70785 0.989572,-13.31541 1.319429,-21.80622 2.309002,-38.938969 0.989572,-12.927327 0.659714,-6.381687 0.659715,-4.269601 0.329857,-1.283281 0.329857,-0.695655 0.329858,-0.100737 0.329857,0.495237 0.329857,1.08602 0.659715,3.892769 0.659715,6.041463 0.989572,12.516193 1.319429,21.224325 2.638858,44.37373 0.989572,12.52437 0.659715,6.04818 0.659715,3.90018 0.329857,1.08989 0.329857,0.49916 0.329858,-0.0968 0.329857,-0.69175 0.329857,-1.27944 0.659715,-4.26228 0.659714,-6.37511 0.989572,-12.91944 1.31943,-21.52504 2.309001,-39.219438 0.989572,-13.322991 0.659714,-6.714273 0.659715,-4.641324 0.329857,-1.479005 0.329858,-0.895241 0.329857,-0.30209 0.329857,0.294226 0.329858,0.88746 0.329857,1.471387 0.659715,4.626898 0.659714,6.701424 0.989572,13.307825 1.319429,21.800972 2.309002,38.9449 0.989572,12.9352 0.659714,6.38827 0.659715,4.27691 0.329857,1.28712 0.329857,0.69956 0.329858,0.10468 0.329857,-0.49132 0.329857,-1.08215 0.659715,-3.88536 0.659715,-6.03474 0.989572,-12.50801 1.319429,-21.21808 2.638855,-44.37994 0.98958,-12.532546 0.65971,-6.054897 0.65972,-3.907587 0.32985,-1.093754 0.32986,-0.503083 0.32986,0.09286 0.32985,0.687837 0.32986,1.275598 0.65972,4.254967 0.65971,6.368532 0.98957,12.911547 1.31943,21.519286 2.309,39.22446 0.98958,13.33056 0.65971,6.72069 0.65971,4.64854 0.32986,1.48281 0.32986,0.89913 0.32986,0.30602 0.32985,-0.29029 0.32986,-0.88357 0.32986,-1.46758 0.65971,-4.61968 0.65972,-6.69499 0.98957,-13.30024 1.31943,-21.79571 2.309,-38.950812 0.98957,-12.943085 0.65972,-6.39483 0.65971,-4.284228 0.32986,-1.29096 0.32986,-0.703472 0.32985,-0.10861 0.32986,0.487391 0.32986,1.078283 0.65971,3.877944 0.65972,6.028017 0.98957,12.499818 1.31943,21.211834 2.63886,44.38613 0.98957,12.54072 0.65971,6.06161 0.65972,3.91499 0.32985,1.09762 0.32986,0.50701 0.32986,-0.0889 0.32986,-0.68393 0.32985,-1.27175 0.65972,-4.24765 0.65971,-6.36195 0.98957,-12.90365 1.31943,-21.51352 2.30901,-39.229453 0.98957,-13.338134 0.65971,-6.72711 0.65972,-4.655741 0.32985,-1.48662 0.32986,-0.903021 0.32986,-0.309953 0.32986,0.286362 0.32985,0.879676 0.32986,1.463768 0.65972,4.612463 0.65971,6.688562 0.98957,13.292634 1.31943,21.790457 2.309,38.9567 0.98957,12.95095 0.65972,6.4014 0.65971,4.29154 0.32986,1.29479 0.32986,0.70739 0.32986,0.11254 0.32985,-0.48347 0.32986,-1.07441 0.65971,-3.87053 0.65972,-6.02129 0.65971,-7.9202 0.98958,-14.69776 3.95828,-64.257609 0.65972,-7.05134 0.65971,-5.021682 0.32986,-1.680501 0.32986,-1.101488 0.32985,-0.510927 0.32986,0.08499 0.32986,0.680017 0.32986,1.267914 0.65971,4.240325 0.65972,6.355364 0.98957,12.895744 1.31943,21.507743 2.309,39.23443 0.98957,13.3457 0.65971,6.73352 0.65972,4.66295 0.32986,1.49042 0.32985,0.90691 0.32986,0.31389 0.32986,-0.28243 0.32986,-0.87579 0.32985,-1.45995 0.65972,-4.60525 0.65971,-6.68212 0.98957,-13.28503 1.31943,-21.78518 2.30901,-38.962566 0.98957,-12.958818 0.65971,-6.407962 0.65972,-4.298846 0.32985,-1.298637 0.32986,-0.711289 0.32986,-0.116482 0.32986,0.479544 0.32985,1.070543 0.65972,3.863113 0.65971,6.01456 0.65972,7.914444 0.98957,14.691436 3.95829,64.26651 0.65971,7.0576 0.65972,5.02878 0.32985,1.68427 0.32986,1.10534 0.32986,0.51485 0.32986,-0.0811 0.32985,-0.67611 0.32986,-1.26407 0.65971,-4.233 0.65972,-6.34878 0.98957,-12.88783 1.31943,-21.50197 2.309,-39.239381 0.98957,-13.353252 0.65972,-6.739935 0.65971,-4.67015 0.32986,-1.494232 0.32986,-0.910799 0.32985,-0.317816 0.32986,0.278497 0.32986,0.871891 0.32986,1.456145 0.65971,4.598021 0.65972,6.675688 0.98957,13.277418 1.31943,21.779895 2.309,38.96843 0.98957,12.96667 0.65972,6.41453 0.65971,4.30615 0.32986,1.30248 0.32985,0.71519 0.32986,0.12042 0.32986,-0.47562 0.32986,-1.06667 0.65971,-3.8557 0.65972,-6.00782 0.65971,-7.90868 0.98957,-14.68513 3.95829,-64.275385 0.65971,-7.063842 0.65972,-5.035865 0.65971,-2.797258 0.32986,-0.51877 0.32986,0.07712 0.32986,0.672196 0.32985,1.260228 0.65972,4.225676 0.65971,6.342185 0.98957,12.879916 1.31943,21.496179 2.309,39.24433 0.98958,13.3608 0.65971,6.74634 0.65972,4.67735 0.32985,1.49804 0.32986,0.91469 0.32986,0.32175 0.32985,-0.27457 0.32986,-0.868 0.32986,-1.45233 0.65972,-4.59079 0.65971,-6.66925 0.98957,-13.2698 1.31943,-21.7746 2.309,-38.974269 0.98957,-12.974527 0.65972,-6.421083 0.65971,-4.313456 0.32986,-1.306312 0.32986,-0.719103 0.32986,-0.124356 0.32985,0.471697 0.32986,1.062802 0.65971,3.848274 0.65972,6.001093 0.65971,7.902909 0.98957,14.678801 3.95829,64.28423 0.65972,7.07009 0.65971,5.04295 0.65972,2.80489 0.32985,0.52269 0.32986,-0.0732 0.32986,-0.66828 0.32986,-1.25639 0.65971,-4.21835 0.65971,-6.33559 0.98958,-12.87199 1.31943,-21.49037 2.309,-39.249262 0.98957,-13.368345 0.65971,-6.752748 0.65972,-4.68455 0.32986,-1.501841 0.32985,-0.918576 0.32986,-0.325679 0.32986,0.270632 0.32986,0.864106 0.32985,1.448519 0.65972,4.583569 0.65971,6.662802 0.98957,13.262179 1.31943,21.769294 2.309,38.98009 0.98958,12.98237 0.65971,6.42764 0.65972,4.32076 0.32985,1.31015 0.32986,0.72301 0.32986,0.12829 0.32985,-0.46777 0.32986,-1.05894 0.65972,-3.84085 0.65971,-5.99435 0.65972,-7.89714 0.98957,-14.67246 3.95829,-64.293052 0.65971,-7.076332 0.65971,-5.050037 0.65972,-2.812522 0.32986,-0.526613 0.32985,0.06924 0.32986,0.664374 0.32986,1.252539 0.65971,4.211019 0.65972,6.328994 0.98957,12.864066 1.31943,21.484554 2.309,39.25417 0.98957,13.37588 0.65972,6.75915 0.65971,4.69175 0.32986,1.50564 0.32986,0.92246 0.32985,0.32961 0.32986,-0.2667 0.32986,-0.86021 0.32986,-1.4447 0.65971,-4.57634 0.65971,-6.65636 0.98958,-13.25455 1.31943,-21.76397 2.309,-38.985893 0.98957,-12.990212 0.65971,-6.434192 0.65972,-4.328059 0.32986,-1.313984 0.32985,-0.726916 0.32986,-0.132228 0.32986,0.463848 0.32986,1.055059 0.32985,1.635211 0.65972,4.936397 0.65971,6.976056 0.98957,13.629783 1.31943,22.01835 1.97915,33.73118 0.98957,13.75338 0.65971,7.08257 0.65972,5.05712 0.65971,2.82015 0.32986,0.53054 0.32986,-0.0653 0.32985,-0.66046 0.32986,-1.24869 0.65972,-4.20369 0.65971,-6.3224 0.98957,-12.85613 1.31943,-21.47874 2.309,-39.259046 0.98958,-13.383414 0.65971,-6.765548 0.65971,-4.698942 0.32986,-1.509448 0.32986,-0.92635 0.32986,-0.333541 0.32985,0.262766 0.32986,0.856318 0.32986,1.440891 0.65971,4.56911 0.65972,6.649903 0.98957,13.246915 1.31943,21.758646 2.309,38.99168 0.98957,12.99805 0.65972,6.44074 0.65971,4.33536 0.32986,1.31781 0.32986,0.73083 0.32985,0.13616 0.32986,-0.45992 0.32986,-1.05119 0.32986,-1.63143 0.65971,-4.92928 0.65971,-6.96976 0.98958,-13.62246 1.31943,-22.01353 1.97914,-33.73577 0.98957,-13.76059 0.65972,-7.088808 0.65971,-5.064202 0.65972,-2.82778 0.32985,-0.534454 0.32986,0.06137 0.32986,0.65655 0.32985,1.244848 0.65972,4.196354 0.65971,6.315793 0.98958,12.848191 1.31943,21.472908 2.309,39.26392 0.98957,13.39094 0.65971,6.77194 0.65972,4.70614 0.32985,1.51325 0.32986,0.93023 0.32986,0.33748 0.32986,-0.25884 0.32985,-0.85242 0.32986,-1.43708 0.65972,-4.56187 0.65971,-6.64345 0.98957,-13.23928 1.31943,-21.75331 2.309,-38.997446 0.98958,-13.005874 0.65971,-6.447289 0.65972,-4.342653 0.32985,-1.321654 0.32986,-0.734729 0.32986,-0.140099 0.32985,0.455998 0.32986,1.047314 0.32986,1.627652 0.65971,4.922151 0.65972,6.963464 0.98957,13.615125 1.31943,22.00869 1.97914,33.74035 0.98957,13.76781 0.65972,7.09504 0.65971,5.07128 0.65972,2.83541 0.32986,0.53837 0.32985,-0.0574 0.32986,-0.65264 0.32986,-1.241 0.65971,-4.18902 0.65972,-6.30919 0.98957,-12.84024 1.31943,-21.46707 1.31943,-23.13484 v 0"
           style="fill:none;stroke:#008000;stroke-width:1.5;stroke-linecap:butt;stroke-linejoin:round;stroke-miterlimit:10;stroke-dasharray:1.5, 2.475;stroke-dashoffset:0;stroke-opacity:1"
           id="path732" /></g></g><g
       id="g734"><g
         id="g736"
         clip-path="url(#clipPath740)"><path
           d="m 53.14959,185.76 0.329857,-0.29816 0.329858,-0.89135 0.329857,-1.4752 0.659715,-4.63412 0.659714,-6.70787 0.989572,-13.31544 1.319429,-21.80628 2.309002,-38.93912 0.989572,-12.927406 0.659714,-6.381743 0.659715,-4.26966 0.329857,-1.28331 0.329857,-0.695687 0.329858,-0.100768 0.329857,0.495205 0.329857,1.085988 0.659715,3.892703 0.659715,6.041396 0.989572,12.516092 1.319429,21.22419 2.638858,44.37347 0.989572,12.52429 0.659715,6.04812 0.659715,3.90013 0.329857,1.08986 0.329857,0.49914 0.329858,-0.0968 0.329857,-0.69177 0.329857,-1.27946 0.659715,-4.26232 0.659714,-6.37515 0.989572,-12.91948 1.31943,-21.52507 2.309001,-39.21946 0.989572,-13.322979 0.659714,-6.714258 0.659715,-4.641304 0.329857,-1.478993 0.329858,-0.895228 0.329857,-0.302076 0.329857,0.294242 0.329858,0.887476 0.329857,1.471406 0.659715,4.626937 0.659714,6.701467 0.989572,13.307896 1.319429,21.801084 2.309002,38.94511 0.989572,12.9353 0.659714,6.38833 0.659715,4.27698 0.329857,1.28716 0.329857,0.6996 0.329858,0.1047 0.329857,-0.49128 0.329857,-1.08211 0.659715,-3.8853 0.659715,-6.03467 0.989572,-12.50792 1.319429,-21.21797 2.638855,-44.379741 0.98958,-12.532489 0.65971,-6.054866 0.65972,-3.907559 0.32985,-1.093743 0.32986,-0.503072 0.32986,0.09287 0.32985,0.687845 0.32986,1.275605 0.65972,4.254977 0.65971,6.368535 0.98957,12.911544 1.31943,21.519264 2.309,39.22436 0.98958,13.33051 0.65971,6.72065 0.65971,4.64849 0.32986,1.48279 0.32986,0.8991 0.32986,0.306 0.32985,-0.29032 0.32986,-0.8836 0.32986,-1.46761 0.65971,-4.61974 0.65972,-6.69505 0.98957,-13.30033 1.31943,-21.79585 2.309,-38.951045 0.98957,-12.943183 0.65972,-6.394895 0.65971,-4.28429 0.32986,-1.29099 0.32986,-0.703502 0.32985,-0.108639 0.32986,0.487363 0.32986,1.078255 0.65971,3.877891 0.65972,6.027968 0.98957,12.499752 1.31943,21.211765 2.63886,44.38604 0.98957,12.5407 0.65971,6.0616 0.65972,3.915 0.32985,1.09762 0.32986,0.50701 0.32986,-0.0889 0.32986,-0.68392 0.32985,-1.27174 0.65972,-4.24763 0.65971,-6.36192 0.98957,-12.9036 1.31943,-21.51344 2.30901,-39.229281 0.98957,-13.338046 0.65971,-6.72705 0.65972,-4.655677 0.32985,-1.486588 0.32986,-0.902987 0.32986,-0.309921 0.32986,0.286395 0.32985,0.87971 0.32986,1.463801 0.65972,4.612531 0.65971,6.68863 0.98957,13.292734 1.31943,21.790589 2.309,38.9569 0.98957,12.95103 0.65972,6.40145 0.65971,4.29158 0.32986,1.29482 0.32986,0.7074 0.32986,0.11257 0.32985,-0.48345 0.32986,-1.0744 0.65971,-3.8705 0.65972,-6.02127 0.65971,-7.92018 0.98958,-14.69774 3.95828,-64.257654 0.65972,-7.051366 0.65971,-5.021712 0.32986,-1.680518 0.32986,-1.101506 0.32985,-0.510946 0.32986,0.08497 0.32986,0.679996 0.32986,1.267892 0.65971,4.240278 0.65972,6.355313 0.98957,12.895661 1.31943,21.507632 2.309,39.2342 0.98957,13.3456 0.65971,6.73345 0.65972,4.66288 0.32986,1.49039 0.32985,0.90688 0.32986,0.31385 0.32986,-0.28246 0.32986,-0.87582 0.32985,-1.45998 0.65972,-4.60531 0.65971,-6.68218 0.98957,-13.28512 1.31943,-21.78527 2.30901,-38.962718 0.98957,-12.95886 0.65971,-6.407984 0.65972,-4.298863 0.32985,-1.298644 0.32986,-0.711293 0.32986,-0.116487 0.32986,0.479542 0.32985,1.070542 0.65972,3.863114 0.65971,6.014567 0.65972,7.914455 0.98957,14.691469 3.95829,64.26673 0.65971,7.05764 0.65972,5.02883 0.32985,1.6843 0.32986,1.10538 0.32986,0.51488 0.32986,-0.081 0.32985,-0.67608 0.32986,-1.26404 0.65971,-4.23294 0.65972,-6.34871 0.98957,-12.88773 1.31943,-21.50183 2.309,-39.23916 0.98957,-13.353158 0.65972,-6.739876 0.65971,-4.670092 0.32986,-1.494205 0.32986,-0.910772 0.32985,-0.317791 0.32986,0.278523 0.32986,0.871915 0.32986,1.456168 0.65971,4.598064 0.65972,6.675727 0.98957,13.277469 1.31943,21.779948 2.309,38.96847 0.98957,12.96667 0.65972,6.41451 0.65971,4.30614 0.32986,1.30247 0.32985,0.71518 0.32986,0.12041 0.32986,-0.47563 0.32986,-1.06669 0.65971,-3.85573 0.65972,-6.00786 0.65971,-7.90872 0.98957,-14.68519 3.95829,-64.27573 0.65971,-7.063908 0.65972,-5.035931 0.65971,-2.797325 0.32986,-0.518804 0.32986,0.07708 0.32986,0.672163 0.32985,1.260194 0.65972,4.225609 0.65971,6.342118 0.98957,12.87982 1.31943,21.496044 2.309,39.24415 0.98958,13.36073 0.65971,6.7463 0.65972,4.67732 0.32985,1.49802 0.32986,0.91467 0.32986,0.32174 0.32985,-0.27458 0.32986,-0.86801 0.32986,-1.45234 0.65972,-4.59081 0.65971,-6.66926 0.98957,-13.26981 1.31943,-21.77458 2.309,-38.9742 0.98957,-12.974479 0.65972,-6.421046 0.65971,-4.313414 0.32986,-1.30629 0.32986,-0.719079 0.32986,-0.124331 0.32985,0.471721 0.32986,1.062829 0.65971,3.848328 0.65972,6.00115 0.65971,7.90297 0.98957,14.678881 3.95829,64.28464 0.65972,7.07015 0.65971,5.04302 0.65972,2.80495 0.32985,0.52273 0.32986,-0.0731 0.32986,-0.66826 0.32986,-1.25635 0.65971,-4.21829 0.65971,-6.33554 0.98958,-12.87192 1.31943,-21.49029 2.309,-39.249147 0.98957,-13.368318 0.65971,-6.752737 0.65972,-4.684544 0.32986,-1.50184 0.32985,-0.918575 0.32986,-0.325681 0.32986,0.270629 0.32986,0.864101 0.32985,1.448514 0.65972,4.583555 0.65971,6.662781 0.98957,13.26214 1.31943,21.769222 2.309,38.97993 0.98958,12.98229 0.65971,6.42758 0.65972,4.32069 0.32985,1.31012 0.32986,0.72298 0.32986,0.12826 0.32985,-0.46781 0.32986,-1.05896 0.65972,-3.84092 0.65971,-5.99442 0.65972,-7.89721 0.98957,-14.67256 3.95829,-64.293419 0.65971,-7.076386 0.65971,-5.050088 0.65972,-2.812569 0.32986,-0.526634 0.32985,0.06922 0.32986,0.664354 0.32986,1.25252 0.65971,4.210984 0.65972,6.328965 0.98957,12.86403 1.31943,21.484533 2.309,39.25416 0.98957,13.3759 0.65972,6.75917 0.65971,4.69177 0.32986,1.50566 0.32986,0.92248 0.32985,0.32962 0.32986,-0.26668 0.32986,-0.86019 0.32986,-1.44469 0.65971,-4.57629 0.65971,-6.65631 0.98958,-13.25448 1.31943,-21.76386 2.309,-38.985669 0.98957,-12.990112 0.65971,-6.434124 0.65972,-4.327991 0.32986,-1.313951 0.32985,-0.726882 0.32986,-0.132195 0.32986,0.463881 0.32986,1.055093 0.32985,1.635243 0.65972,4.936461 0.65971,6.976118 0.98957,13.629878 1.31943,22.01846 1.97915,33.73131 0.98957,13.75344 0.65971,7.0826 0.65972,5.05715 0.65971,2.82017 0.32986,0.53054 0.32986,-0.0653 0.32985,-0.66046 0.32986,-1.24869 0.65972,-4.20368 0.65971,-6.32239 0.98957,-12.85614 1.31943,-21.47878 2.309,-39.25915 0.98958,-13.383475 0.65971,-6.765594 0.65971,-4.698992 0.32986,-1.509474 0.32986,-0.926377 0.32986,-0.333568 0.32985,0.262737 0.32986,0.856289 0.32986,1.440861 0.65971,4.569048 0.65972,6.64984 0.98957,13.246818 1.31943,21.758517 2.309,38.99144 0.98957,12.99795 0.65972,6.44068 0.65971,4.3353 0.32986,1.31779 0.32986,0.73079 0.32985,0.13614 0.32986,-0.45995 0.32986,-1.05122 0.32986,-1.63145 0.65971,-4.92933 0.65971,-6.9698 0.98958,-13.62252 1.31943,-22.01359 1.97914,-33.73583 0.98957,-13.760605 0.65972,-7.088809 0.65971,-5.064197 0.65972,-2.82777 0.32985,-0.534447 0.32986,0.06138 0.32986,0.65656 0.32985,1.244858 0.65972,4.196379 0.65971,6.315823 0.98958,12.848245 1.31943,21.472993 2.309,39.26411 0.98957,13.39103 0.65971,6.772 0.65972,4.7062 0.32985,1.51329 0.32986,0.93027 0.32986,0.3375 0.32986,-0.2588 0.32985,-0.85239 0.32986,-1.43704 0.65972,-4.56181 0.65971,-6.64338 0.98957,-13.23918 1.31943,-21.75318 2.309,-38.997245 0.98958,-13.0058 0.65971,-6.447244 0.65972,-4.342613 0.32985,-1.321635 0.32986,-0.734711 0.32986,-0.140083 0.32985,0.456013 0.32986,1.047329 0.32986,1.627664 0.65971,4.922174 0.65972,6.96348 0.98957,13.615141 1.31943,22.0087 1.97914,33.74031 0.98957,13.76777 0.65972,7.09501 0.65971,5.07125 0.65972,2.83537 0.32986,0.53835 0.32985,-0.0575 0.32986,-0.65267 0.32986,-1.24102 0.65971,-4.18907 0.65972,-6.30924 0.98957,-12.84033 1.31943,-21.46719 1.31943,-23.13498 v 0"
           style="fill:none;stroke:#1f77b4;stroke-width:1.5;stroke-linecap:square;stroke-linejoin:round;stroke-miterlimit:10;stroke-dasharray:none;stroke-opacity:1"
           id="path742" /></g></g><g
       id="g744"><path
         d="M 53.14959,72 V 185.76"
         style="fill:none;stroke:#000000;stroke-width:0.8;stroke-linecap:square;stroke-linejoin:miter;stroke-miterlimit:10;stroke-dasharray:none;stroke-opacity:1"
         id="path746" /><path
         d="M 382.67705,72 V 185.76"
         style="fill:none;stroke:#000000;stroke-width:0.8;stroke-linecap:square;stroke-linejoin:miter;stroke-miterlimit:10;stroke-dasharray:none;stroke-opacity:1"
         id="path748" /><path
         d="M 53.14959,72 H 382.67705"
         style="fill:none;stroke:#000000;stroke-width:0.8;stroke-linecap:square;stroke-linejoin:miter;stroke-miterlimit:10;stroke-dasharray:none;stroke-opacity:1"
         id="path750" /><path
         d="M 53.14959,185.76 H 382.67705"
         style="fill:none;stroke:#000000;stroke-width:0.8;stroke-linecap:square;stroke-linejoin:miter;stroke-miterlimit:10;stroke-dasharray:none;stroke-opacity:1"
         id="path752" /><path
         d="M 28.262422,11.328125 H 400.9343 c 1.33333,0 2,0.666667 2,2 V 27 c 0,1.333333 -0.66667,2 -2,2 H 28.262422 c -1.333333,0 -2,-0.666667 -2,-2 V 13.328125 c 0,-1.333333 0.666667,-2 2,-2 z"
         style="fill:#4c4c4c;fill-opacity:0.5;fill-rule:nonzero;stroke:#4c4c4c;stroke-width:1;stroke-linecap:butt;stroke-linejoin:miter;stroke-miterlimit:10;stroke-dasharray:none;stroke-opacity:0.5"
         id="path754" /><path
         d="M 26.262422,13.328125 H 398.9343 c 1.33333,0 2,0.666667 2,2 V 29 c 0,1.333333 -0.66667,2 -2,2 H 26.262422 c -1.333333,0 -2,-0.666667 -2,-2 V 15.328125 c 0,-1.333333 0.666667,-2 2,-2 z"
         style="fill:#ffffff;fill-opacity:1;fill-rule:nonzero;stroke:#cccccc;stroke-width:1;stroke-linecap:butt;stroke-linejoin:miter;stroke-miterlimit:10;stroke-dasharray:none;stroke-opacity:1"
         id="path756" /><path
         d="m 28.262422,22.90625 h 10 10"
         style="fill:none;stroke:#ff0000;stroke-width:1.5;stroke-linecap:butt;stroke-linejoin:round;stroke-miterlimit:10;stroke-dasharray:5.55, 2.4;stroke-dashoffset:0;stroke-opacity:1"
         id="path758" /><g
         id="g760"
         transform="translate(56.262423,19.40625)"><text
           transform="scale(1,-1)"
           style="font-variant:normal;font-weight:normal;font-size:10px;font-family:'DejaVu Sans';-inkscape-font-specification:DejaVuSans;writing-mode:lr-tb;fill:#000000;fill-opacity:1;fill-rule:nonzero;stroke:none"
           id="text764"><tspan
             x="0 6.1500001 10.26 15.47 19.389999 25.540001 28.719999 35.040001 37.82 44.169998 50.32 56.66 60.18 66.300003 70.238129"
             y="0"
             id="tspan762">erste Eigenform</tspan></text></g><path
         d="m 156.32492,22.90625 h 10 10"
         style="fill:none;stroke:#008000;stroke-width:1.5;stroke-linecap:butt;stroke-linejoin:round;stroke-miterlimit:10;stroke-dasharray:1.5, 2.475;stroke-dashoffset:0;stroke-opacity:1"
         id="path766" /><g
         id="g768"
         transform="translate(184.32492,19.40625)"><text
           transform="scale(1,-1)"
           style="font-variant:normal;font-weight:normal;font-size:10px;font-family:'DejaVu Sans';-inkscape-font-specification:DejaVuSans;writing-mode:lr-tb;fill:#000000;fill-opacity:1;fill-rule:nonzero;stroke:none"
           id="text772"><tspan
             x="0 5.25 13.43 19.58 22.360001 26.280001 32.43 35.610001 41.93 44.709999 51.060001 57.209999 63.549999 67.07 73.190002 77.128128"
             y="0"
             id="tspan770">zweite Eigenform</tspan></text></g><path
         d="m 291.27805,22.90625 h 10 10"
         style="fill:none;stroke:#1f77b4;stroke-width:1.5;stroke-linecap:square;stroke-linejoin:round;stroke-miterlimit:10;stroke-dasharray:none;stroke-opacity:1"
         id="path774" /><g
         id="g776"
         transform="translate(319.27805,19.40625)"><text
           transform="scale(1,-1)"
           style="font-variant:normal;font-weight:normal;font-size:10px;font-family:'DejaVu Sans';-inkscape-font-specification:DejaVuSans;writing-mode:lr-tb;fill:#000000;fill-opacity:1;fill-rule:nonzero;stroke:none"
           id="text780"><tspan
             x="0 7.75 13.9 19.110001 25.24 34.98 38.900002 45.029999 51.369999 55.290001 63.470001 69.589996 73.699997"
             y="0"
             id="tspan778">Gesamtantwort</tspan></text></g></g></g></svg>
