<?xml version="1.0" encoding="UTF-8" standalone="no"?>
<svg
   xmlns:dc="http://purl.org/dc/elements/1.1/"
   xmlns:cc="http://creativecommons.org/ns#"
   xmlns:rdf="http://www.w3.org/1999/02/22-rdf-syntax-ns#"
   xmlns:svg="http://www.w3.org/2000/svg"
   xmlns="http://www.w3.org/2000/svg"
   version="1.1"
   id="svg2"
   xml:space="preserve"
   width="566.92932"
   height="151.18134"
   viewBox="0 0 566.92932 151.18134"><metadata
     id="metadata8"><rdf:RDF><cc:Work
         rdf:about=""><dc:format>image/svg+xml</dc:format><dc:type
           rdf:resource="http://purl.org/dc/dcmitype/StillImage" /></cc:Work></rdf:RDF></metadata><defs
     id="defs6"><clipPath
       clipPathUnits="userSpaceOnUse"
       id="clipPath54"><path
         d="M -0.00426,-0.00113 V 113.38696 H 425.20111 V -0.00113 H -0.00426"
         clip-rule="evenodd"
         id="path52" /></clipPath><clipPath
       clipPathUnits="userSpaceOnUse"
       id="clipPath72"><path
         d="M -0.00426,-0.00113 V 113.38696 H 425.20111 V -0.00113 H -0.00426"
         clip-rule="evenodd"
         id="path70" /></clipPath><clipPath
       clipPathUnits="userSpaceOnUse"
       id="clipPath84"><path
         d="M -0.00426,-0.00113 V 113.38696 H 425.20111 V -0.00113 H -0.00426"
         clip-rule="evenodd"
         id="path82" /></clipPath><clipPath
       clipPathUnits="userSpaceOnUse"
       id="clipPath96"><path
         d="M -0.00426,-0.00113 V 113.38696 H 425.20111 V -0.00113 H -0.00426"
         clip-rule="evenodd"
         id="path94" /></clipPath><clipPath
       clipPathUnits="userSpaceOnUse"
       id="clipPath110"><path
         d="M -0.00426,-0.00113 V 113.38696 H 425.20111 V -0.00113 H -0.00426"
         clip-rule="evenodd"
         id="path108" /></clipPath><clipPath
       clipPathUnits="userSpaceOnUse"
       id="clipPath122"><path
         d="M -0.00426,-0.00113 V 113.38696 H 425.20111 V -0.00113 H -0.00426"
         clip-rule="evenodd"
         id="path120" /></clipPath><clipPath
       clipPathUnits="userSpaceOnUse"
       id="clipPath134"><path
         d="M -0.00426,-0.00113 V 113.38696 H 425.20111 V -0.00113 H -0.00426"
         clip-rule="evenodd"
         id="path132" /></clipPath><clipPath
       clipPathUnits="userSpaceOnUse"
       id="clipPath146"><path
         d="M -0.00426,-0.00113 V 113.38696 H 425.20111 V -0.00113 H -0.00426"
         clip-rule="evenodd"
         id="path144" /></clipPath><clipPath
       clipPathUnits="userSpaceOnUse"
       id="clipPath158"><path
         d="M -0.00426,-0.00113 V 113.38696 H 425.20111 V -0.00113 H -0.00426"
         clip-rule="evenodd"
         id="path156" /></clipPath><clipPath
       clipPathUnits="userSpaceOnUse"
       id="clipPath170"><path
         d="M -0.00426,-0.00113 V 113.38696 H 425.20111 V -0.00113 H -0.00426"
         clip-rule="evenodd"
         id="path168" /></clipPath><clipPath
       clipPathUnits="userSpaceOnUse"
       id="clipPath182"><path
         d="M -0.00426,-0.00113 V 113.38696 H 425.20111 V -0.00113 H -0.00426"
         clip-rule="evenodd"
         id="path180" /></clipPath><clipPath
       clipPathUnits="userSpaceOnUse"
       id="clipPath194"><path
         d="M -0.00426,-0.00113 V 113.38696 H 425.20111 V -0.00113 H -0.00426"
         clip-rule="evenodd"
         id="path192" /></clipPath><clipPath
       clipPathUnits="userSpaceOnUse"
       id="clipPath206"><path
         d="M -0.00426,-0.00113 V 113.38696 H 425.20111 V -0.00113 H -0.00426"
         clip-rule="evenodd"
         id="path204" /></clipPath><clipPath
       clipPathUnits="userSpaceOnUse"
       id="clipPath218"><path
         d="M -0.00426,-0.00113 V 113.38696 H 425.20111 V -0.00113 H -0.00426"
         clip-rule="evenodd"
         id="path216" /></clipPath><clipPath
       clipPathUnits="userSpaceOnUse"
       id="clipPath230"><path
         d="M -0.00426,-0.00113 V 113.38696 H 425.20111 V -0.00113 H -0.00426"
         clip-rule="evenodd"
         id="path228" /></clipPath><clipPath
       clipPathUnits="userSpaceOnUse"
       id="clipPath242"><path
         d="M -0.00426,-0.00113 V 113.38696 H 425.20111 V -0.00113 H -0.00426"
         clip-rule="evenodd"
         id="path240" /></clipPath></defs><g
     id="g10"
     transform="matrix(1.3333333,0,0,-1.3333333,0,151.18133)"><path
       d="m 182.1062,23.80356 -0.12921,1.47668 -0.38364,1.43183 -0.62646,1.34346 -0.85022,1.21425 -1.04819,1.04817 -1.21426,0.85023 -1.34345,0.62647 -1.43182,0.38365 -1.47669,0.1292 -1.47668,-0.1292 -1.43182,-0.38365 -1.34348,-0.62647 -1.21423,-0.85023 -1.04819,-1.04817 -0.85022,-1.21425 -0.62646,-1.34346 -0.38367,-1.43183 -0.12918,-1.47668 0.12918,-1.4767 0.38367,-1.43183 0.62646,-1.34344 0.85022,-1.21426 1.04819,-1.04818 1.21423,-0.85022 1.34348,-0.62646 1.43182,-0.38365 1.47668,-0.1292 1.47669,0.1292 1.43182,0.38365 1.34345,0.62646 1.21426,0.85022 1.04819,1.04818 0.85022,1.21426 0.62646,1.34344 0.38364,1.43183 z"
       style="fill:#dedede;fill-opacity:1;fill-rule:nonzero;stroke:none"
       id="path12" /><path
       d="m 276.59439,23.80356 -0.12921,1.47668 -0.38367,1.43183 -0.62643,1.34346 -0.85025,1.21425 -1.04816,1.04817 -1.21426,0.85023 -1.34345,0.62647 -1.43182,0.38365 -1.47669,0.1292 -1.47671,-0.1292 -1.43182,-0.38365 -1.34345,-0.62647 -1.21426,-0.85023 -1.04816,-1.04817 -0.85022,-1.21425 -0.62646,-1.34346 -0.38367,-1.43183 -0.12918,-1.47668 0.12918,-1.4767 0.38367,-1.43183 0.62646,-1.34344 0.85022,-1.21426 1.04816,-1.04818 1.21426,-0.85022 1.34345,-0.62646 1.43182,-0.38365 1.47671,-0.1292 1.47669,0.1292 1.43182,0.38365 1.34345,0.62646 1.21426,0.85022 1.04816,1.04818 0.85025,1.21426 0.62643,1.34344 0.38367,1.43183 z"
       style="fill:#dedede;fill-opacity:1;fill-rule:nonzero;stroke:none"
       id="path14" /><path
       d="m 79.11407,23.80356 -6.01319,-6.0132 m 6.01319,6.0132 6.01319,-6.0132 m -12.02638,0 H 85.12726 M 71.05371,15.55908 h 15.87402 m 275.65088,8.24448 -6.01318,-6.0132 m 6.01318,6.0132 6.01322,-6.0132 m -12.0264,0 h 12.0264"
       style="fill:none;stroke:#000000;stroke-width:0.28346;stroke-linecap:round;stroke-linejoin:round;stroke-miterlimit:10;stroke-dasharray:none;stroke-opacity:1"
       id="path16" /><path
       d="m 182.1062,23.80356 c 0,4.69659 -3.80734,8.50394 -8.50394,8.50394 m 0,0 c -4.69659,0 -8.50393,-3.80735 -8.50393,-8.50394 m 0,0 c 0,-4.6966 3.80734,-8.50394 8.50393,-8.50394 m 0,0 c 4.6966,0 8.50394,3.80734 8.50394,8.50394"
       style="fill:none;stroke:#000000;stroke-width:0.85039;stroke-linecap:round;stroke-linejoin:round;stroke-miterlimit:10;stroke-dasharray:none;stroke-opacity:1"
       id="path18" /><path
       d="m 79.11407,23.80356 h 85.98426"
       style="fill:none;stroke:#000000;stroke-width:0.85039;stroke-linecap:round;stroke-linejoin:round;stroke-miterlimit:10;stroke-dasharray:none;stroke-opacity:1"
       id="path20" /><path
       d="m 276.59439,23.80356 c 0,4.69659 -3.80734,8.50394 -8.50394,8.50394 m 0,0 c -4.69659,0 -8.50393,-3.80735 -8.50393,-8.50394 m 0,0 c 0,-4.6966 3.80734,-8.50394 8.50393,-8.50394 m 0,0 c 4.6966,0 8.50394,3.80734 8.50394,8.50394"
       style="fill:none;stroke:#000000;stroke-width:0.85039;stroke-linecap:round;stroke-linejoin:round;stroke-miterlimit:10;stroke-dasharray:none;stroke-opacity:1"
       id="path22" /><path
       d="m 276.59439,23.80356 h 85.98422 m -180.47241,0 h 77.48032"
       style="fill:none;stroke:#000000;stroke-width:0.85039;stroke-linecap:round;stroke-linejoin:round;stroke-miterlimit:10;stroke-dasharray:none;stroke-opacity:1"
       id="path24" /><path
       d="M 173.60226,15.29962 V 3.96103 m 0,4.96063 V 9.276 m 0,-5.31497 v 0 l 0.70865,4.96063 h -1.41729 l 0.70864,-4.96063"
       style="fill:none;stroke:#000000;stroke-width:0.28346;stroke-linecap:round;stroke-linejoin:round;stroke-miterlimit:10;stroke-dasharray:none;stroke-opacity:1"
       id="path26" /><path
       d="m 172.89362,8.92166 0.70864,-4.96063 0.70865,4.96063 z"
       style="fill:#000000;fill-opacity:1;fill-rule:nonzero;stroke:none"
       id="path28" /><path
       d="M 268.09045,15.29962 V 3.96103 m 0,4.96063 V 9.276 m 0,-5.31497 v 0 l 0.70865,4.96063 h -1.41733 l 0.70868,-4.96063"
       style="fill:none;stroke:#000000;stroke-width:0.28346;stroke-linecap:round;stroke-linejoin:round;stroke-miterlimit:10;stroke-dasharray:none;stroke-opacity:1"
       id="path30" /><path
       d="m 267.38177,8.92166 0.70868,-4.96063 0.70865,4.96063 z"
       style="fill:#000000;fill-opacity:1;fill-rule:nonzero;stroke:none"
       id="path32" /><path
       d="m 69.65016,95.75311 v 0 h 28.34645 m -5.95274,0 h -0.4252 m 6.37794,0 v 0 l -5.95274,0.85041 v -1.70079 l 5.95274,0.85038"
       style="fill:none;stroke:#000000;stroke-width:0.28346;stroke-linecap:round;stroke-linejoin:round;stroke-miterlimit:10;stroke-dasharray:none;stroke-opacity:1"
       id="path34" /><path
       d="m 92.04387,94.90273 5.95274,0.85038 -5.95274,0.85041 z"
       style="fill:#000000;fill-opacity:1;fill-rule:nonzero;stroke:none"
       id="path36" /><path
       d="m 66.81552,95.75311 c 0,-1.56552 1.26911,-2.83464 2.83464,-2.83464 m 0,0 c 1.56554,0 2.83464,1.26912 2.83464,2.83464 m 0,0 c 0,1.56554 -1.2691,2.83466 -2.83464,2.83466 m 0,0 c -1.56553,0 -2.83464,-1.26912 -2.83464,-2.83466"
       style="fill:none;stroke:#000000;stroke-width:0.28346;stroke-linecap:round;stroke-linejoin:round;stroke-miterlimit:10;stroke-dasharray:none;stroke-opacity:1"
       id="path38" /><path
       d="M 69.65016,95.75311 V 67.40666 m 0,5.95276 v 0.42519 m 0,-6.37795 v 0 l 0.85039,5.95276 h -1.70078 l 0.85039,-5.95276"
       style="fill:none;stroke:#000000;stroke-width:0.28346;stroke-linecap:round;stroke-linejoin:round;stroke-miterlimit:10;stroke-dasharray:none;stroke-opacity:1"
       id="path40" /><path
       d="m 68.79977,73.35942 0.85039,-5.95276 0.85039,5.95276 z"
       style="fill:#000000;fill-opacity:1;fill-rule:nonzero;stroke:none"
       id="path42" /><path
       d="m 79.11407,86.10068 2.97638,0.42518 v -0.85038 l -2.97638,0.4252 m 283.46454,0 -2.97638,0.42518 v -0.85038 l 2.97638,0.4252"
       style="fill:none;stroke:#000000;stroke-width:0.56693;stroke-linecap:round;stroke-linejoin:round;stroke-miterlimit:10;stroke-dasharray:none;stroke-opacity:1"
       id="path44" /><path
       d="m 79.11407,86.10068 v 2.12597 m 0,-2.12597 v -2.12599 m 283.46454,2.12599 v 2.12597 m 0,-2.12597 V 83.97469 M 79.11407,86.10068 V 46.48071 M 362.57861,86.10068 V 46.48071 M 79.11407,86.10068 v 0 m 283.46454,0 v 0"
       style="fill:none;stroke:#000000;stroke-width:0.28346;stroke-linecap:round;stroke-linejoin:round;stroke-miterlimit:10;stroke-dasharray:none;stroke-opacity:1"
       id="path46" /><g
       id="g48"><g
         id="g50"
         clip-path="url(#clipPath54)"><text
           transform="matrix(1,0,0,-1,217.91414,88.97393)"
           style="font-style:italic;font-variant:normal;font-weight:normal;font-stretch:normal;font-size:11.0078px;font-family:'Palatino Linotype';-inkscape-font-specification:PalatinoLinotype-Italic;writing-mode:lr-tb;fill:#000000;fill-opacity:1;fill-rule:nonzero;stroke:none"
           id="text58"><tspan
             x="0"
             y="0"
             id="tspan56">L</tspan></text></g></g><path
       d="M 79.11407,86.10068 H 208.01099 362.57861"
       style="fill:none;stroke:#000000;stroke-width:0.28346;stroke-linecap:round;stroke-linejoin:round;stroke-miterlimit:10;stroke-dasharray:none;stroke-opacity:1"
       id="path60" /><path
       d="m 79.11407,63.65207 2.97638,0.4252 v -0.8504 l -2.97638,0.4252 m 94.48819,0 -2.97637,0.4252 v -0.8504 l 2.97637,0.4252 2.97638,0.4252 v -0.8504 l -2.97638,0.4252 m 94.48819,0 -2.97638,0.4252 v -0.8504 l 2.97638,0.4252 2.97635,0.4252 v -0.8504 l -2.97635,0.4252 m 94.48816,0 -2.97638,0.4252 v -0.8504 l 2.97638,0.4252"
       style="fill:none;stroke:#000000;stroke-width:0.56693;stroke-linecap:round;stroke-linejoin:round;stroke-miterlimit:10;stroke-dasharray:none;stroke-opacity:1"
       id="path62" /><path
       d="m 79.11407,63.65207 v 2.12598 m 0,-2.12598 v -2.12598 m 94.48819,2.12598 v 2.12598 m 0,-2.12598 v -2.12598 m 0,2.12598 v 2.12598 m 0,-2.12598 v -2.12598 m 94.48819,2.12598 v 2.12598 m 0,-2.12598 v -2.12598 m 0,2.12598 v 2.12598 m 0,-2.12598 v -2.12598 m 94.48816,2.12598 v 2.12598 m 0,-2.12598 V 61.52609 M 79.11407,63.65207 V 43.91803 35.14214 m 94.48819,28.50993 V 35.14214 m 94.48819,28.50993 V 35.14214 m 94.48816,28.50993 V 35.14214 M 79.11407,63.65207 v 0 m 283.46454,0 v 0"
       style="fill:none;stroke:#000000;stroke-width:0.28346;stroke-linecap:round;stroke-linejoin:round;stroke-miterlimit:10;stroke-dasharray:none;stroke-opacity:1"
       id="path64" /><g
       id="g66"><g
         id="g68"
         clip-path="url(#clipPath72)"><text
           transform="matrix(1,0,0,-1,119.15043,66.69083)"
           style="font-style:italic;font-variant:normal;font-weight:normal;font-stretch:normal;font-size:11.0078px;font-family:'Palatino Linotype';-inkscape-font-specification:PalatinoLinotype-Italic;writing-mode:lr-tb;fill:#000000;fill-opacity:1;fill-rule:nonzero;stroke:none"
           id="text76"><tspan
             x="0 6.1203589 9.3786793"
             y="0"
             id="tspan74">L/3</tspan></text></g></g><g
       id="g78"><g
         id="g80"
         clip-path="url(#clipPath84)"><text
           transform="matrix(1,0,0,-1,213.63862,66.69083)"
           style="font-style:italic;font-variant:normal;font-weight:normal;font-stretch:normal;font-size:11.0078px;font-family:'Palatino Linotype';-inkscape-font-specification:PalatinoLinotype-Italic;writing-mode:lr-tb;fill:#000000;fill-opacity:1;fill-rule:nonzero;stroke:none"
           id="text88"><tspan
             x="0 6.1203589 9.3786793"
             y="0"
             id="tspan86">L/3</tspan></text></g></g><g
       id="g90"><g
         id="g92"
         clip-path="url(#clipPath96)"><text
           transform="matrix(1,0,0,-1,308.1268,66.69083)"
           style="font-style:italic;font-variant:normal;font-weight:normal;font-stretch:normal;font-size:11.0078px;font-family:'Palatino Linotype';-inkscape-font-specification:PalatinoLinotype-Italic;writing-mode:lr-tb;fill:#000000;fill-opacity:1;fill-rule:nonzero;stroke:none"
           id="text100"><tspan
             x="0 6.1203589 9.3786793"
             y="0"
             id="tspan98">L/3</tspan></text></g></g><path
       d="m 79.11407,63.65207 h 31.74347 62.74472 94.48819 94.48816"
       style="fill:none;stroke:#000000;stroke-width:0.28346;stroke-linecap:round;stroke-linejoin:round;stroke-miterlimit:10;stroke-dasharray:none;stroke-opacity:1"
       id="path102" /><g
       id="g104"><g
         id="g106"
         clip-path="url(#clipPath110)"><text
           transform="matrix(1,0,0,-1,114.73977,33.47554)"
           style="font-style:italic;font-variant:normal;font-weight:normal;font-stretch:normal;font-size:11.0078px;font-family:'Palatino Linotype';-inkscape-font-specification:PalatinoLinotype-Italic;writing-mode:lr-tb;fill:#000000;fill-opacity:1;fill-rule:nonzero;stroke:none"
           id="text114"><tspan
             x="0 6.72579"
             y="0"
             id="tspan112">EI</tspan></text></g></g><g
       id="g116"><g
         id="g118"
         clip-path="url(#clipPath122)"><text
           transform="matrix(1,0,0,-1,281.22796,33.80625)"
           style="font-style:italic;font-variant:normal;font-weight:normal;font-stretch:normal;font-size:11.0078px;font-family:'Palatino Linotype';-inkscape-font-specification:PalatinoLinotype-Italic;writing-mode:lr-tb;fill:#000000;fill-opacity:1;fill-rule:nonzero;stroke:none"
           id="text126"><tspan
             x="0 8.5640993 14.684459"
             y="0"
             id="tspan124">mL/</tspan></text></g></g><g
       id="g128"><g
         id="g130"
         clip-path="url(#clipPath134)"><text
           transform="matrix(1,0,0,-1,299.64864,33.80625)"
           style="font-variant:normal;font-weight:normal;font-stretch:normal;font-size:11.1008px;font-family:'Palatino Linotype';-inkscape-font-specification:PalatinoLinotype-Roman;writing-mode:lr-tb;fill:#000000;fill-opacity:1;fill-rule:nonzero;stroke:none"
           id="text138"><tspan
             x="0"
             y="0"
             id="tspan136">3</tspan></text></g></g><g
       id="g140"><g
         id="g142"
         clip-path="url(#clipPath146)"><text
           transform="matrix(1,0,0,-1,186.73977,33.80625)"
           style="font-style:italic;font-variant:normal;font-weight:normal;font-stretch:normal;font-size:11.0078px;font-family:'Palatino Linotype';-inkscape-font-specification:PalatinoLinotype-Italic;writing-mode:lr-tb;fill:#000000;fill-opacity:1;fill-rule:nonzero;stroke:none"
           id="text150"><tspan
             x="0 8.5640993 14.684459"
             y="0"
             id="tspan148">mL/</tspan></text></g></g><g
       id="g152"><g
         id="g154"
         clip-path="url(#clipPath158)"><text
           transform="matrix(1,0,0,-1,205.16044,33.80625)"
           style="font-variant:normal;font-weight:normal;font-stretch:normal;font-size:11.1008px;font-family:'Palatino Linotype';-inkscape-font-specification:PalatinoLinotype-Roman;writing-mode:lr-tb;fill:#000000;fill-opacity:1;fill-rule:nonzero;stroke:none"
           id="text162"><tspan
             x="0"
             y="0"
             id="tspan160">3</tspan></text></g></g><g
       id="g164"><g
         id="g166"
         clip-path="url(#clipPath170)"><text
           transform="matrix(1,0,0,-1,178.85771,7.74109)"
           style="font-style:italic;font-variant:normal;font-weight:normal;font-stretch:normal;font-size:11.0078px;font-family:'Palatino Linotype';-inkscape-font-specification:PalatinoLinotype-Italic;writing-mode:lr-tb;fill:#000000;fill-opacity:1;fill-rule:nonzero;stroke:none"
           id="text174"><tspan
             x="0"
             y="0"
             id="tspan172">w</tspan></text></g></g><g
       id="g176"><g
         id="g178"
         clip-path="url(#clipPath182)"><text
           transform="matrix(1,0,0,-1,188.3005,3.19384)"
           style="font-style:italic;font-variant:normal;font-weight:normal;font-stretch:normal;font-size:6.6047px;font-family:'Palatino Linotype';-inkscape-font-specification:PalatinoLinotype-Italic;writing-mode:lr-tb;fill:#000000;fill-opacity:1;fill-rule:nonzero;stroke:none"
           id="text186"><tspan
             x="0"
             y="0"
             id="tspan184">1</tspan></text></g></g><g
       id="g188"><g
         id="g190"
         clip-path="url(#clipPath194)"><text
           transform="matrix(1,0,0,-1,273.3459,7.74109)"
           style="font-style:italic;font-variant:normal;font-weight:normal;font-stretch:normal;font-size:11.0078px;font-family:'Palatino Linotype';-inkscape-font-specification:PalatinoLinotype-Italic;writing-mode:lr-tb;fill:#000000;fill-opacity:1;fill-rule:nonzero;stroke:none"
           id="text198"><tspan
             x="0"
             y="0"
             id="tspan196">w</tspan></text></g></g><g
       id="g200"><g
         id="g202"
         clip-path="url(#clipPath206)"><text
           transform="matrix(1,0,0,-1,282.78869,3.19384)"
           style="font-style:italic;font-variant:normal;font-weight:normal;font-stretch:normal;font-size:6.6047px;font-family:'Palatino Linotype';-inkscape-font-specification:PalatinoLinotype-Italic;writing-mode:lr-tb;fill:#000000;fill-opacity:1;fill-rule:nonzero;stroke:none"
           id="text210"><tspan
             x="0"
             y="0"
             id="tspan208">2</tspan></text></g></g><g
       id="g212"><g
         id="g214"
         clip-path="url(#clipPath218)"><text
           transform="matrix(1,0,0,-1,60.46703,98.1684)"
           style="font-style:italic;font-variant:normal;font-weight:normal;font-stretch:normal;font-size:11.0078px;font-family:'Palatino Linotype';-inkscape-font-specification:PalatinoLinotype-Italic;writing-mode:lr-tb;fill:#000000;fill-opacity:1;fill-rule:nonzero;stroke:none"
           id="text222"><tspan
             x="0"
             y="0"
             id="tspan220">y</tspan></text></g></g><g
       id="g224"><g
         id="g226"
         clip-path="url(#clipPath230)"><text
           transform="matrix(1,0,0,-1,100.92377,93.52217)"
           style="font-style:italic;font-variant:normal;font-weight:normal;font-stretch:normal;font-size:11.0078px;font-family:'Palatino Linotype';-inkscape-font-specification:PalatinoLinotype-Italic;writing-mode:lr-tb;fill:#000000;fill-opacity:1;fill-rule:nonzero;stroke:none"
           id="text234"><tspan
             x="0"
             y="0"
             id="tspan232">x</tspan></text></g></g><g
       id="g236"><g
         id="g238"
         clip-path="url(#clipPath242)"><text
           transform="matrix(1,0,0,-1,67.03762,59.28667)"
           style="font-style:italic;font-variant:normal;font-weight:normal;font-stretch:normal;font-size:11.0078px;font-family:'Palatino Linotype';-inkscape-font-specification:PalatinoLinotype-Italic;writing-mode:lr-tb;fill:#000000;fill-opacity:1;fill-rule:nonzero;stroke:none"
           id="text246"><tspan
             x="0"
             y="0"
             id="tspan244">z</tspan></text></g></g><path
       d="m 125.39331,37.11334 h 16.02918 V 23.80356 m 0,-1.06301 v 0 m 0,2.12598 v 0 m 1.06301,-1.06297 v 0 m -2.12597,0 v 0"
       style="fill:none;stroke:#000000;stroke-width:0.28346;stroke-linecap:round;stroke-linejoin:round;stroke-miterlimit:10;stroke-dasharray:none;stroke-opacity:1"
       id="path248" /><path
       d="m 141.42249,22.74055 c 0.58709,0 1.06301,0.47593 1.06301,1.06301 m 0,0 c 0,0.58707 -0.47592,1.06299 -1.06301,1.06299 m 0,0 c -0.58707,0 -1.06299,-0.47592 -1.06299,-1.06299 m 0,0 c 0,-0.58708 0.47592,-1.06301 1.06299,-1.06301 m 0,0 c 0,0 0,0 0,0"
       style="fill:none;stroke:#000000;stroke-width:0.28346;stroke-linecap:round;stroke-linejoin:round;stroke-miterlimit:10;stroke-dasharray:none;stroke-opacity:1"
       id="path250" /><path
       d="m 140.89102,24.71771 h 1.06299 l -0.53152,0.14882 z"
       style="fill:#000000;fill-opacity:1;fill-rule:nonzero;stroke:none"
       id="path252" /><path
       d="m 141.95401,24.71771 h -1.06299 l -0.38269,-0.38267 z"
       style="fill:#000000;fill-opacity:1;fill-rule:nonzero;stroke:none"
       id="path254" /><path
       d="m 141.95401,24.71771 -1.44568,-0.38267 h 1.82834 z"
       style="fill:#000000;fill-opacity:1;fill-rule:nonzero;stroke:none"
       id="path256" /><path
       d="m 142.33667,24.33504 h -1.82834 l -0.1488,-0.53148 z"
       style="fill:#000000;fill-opacity:1;fill-rule:nonzero;stroke:none"
       id="path258" /><path
       d="m 142.33667,24.33504 -1.97714,-0.53148 h 2.12597 z"
       style="fill:#000000;fill-opacity:1;fill-rule:nonzero;stroke:none"
       id="path260" /><path
       d="m 142.4855,23.80356 h -2.12597 l 0.1488,-0.5315 z"
       style="fill:#000000;fill-opacity:1;fill-rule:nonzero;stroke:none"
       id="path262" /><path
       d="m 142.4855,23.80356 -1.97717,-0.5315 h 1.82834 z"
       style="fill:#000000;fill-opacity:1;fill-rule:nonzero;stroke:none"
       id="path264" /><path
       d="m 142.33667,23.27206 h -1.82834 l 0.38269,-0.38269 z"
       style="fill:#000000;fill-opacity:1;fill-rule:nonzero;stroke:none"
       id="path266" /><path
       d="m 142.33667,23.27206 -1.44565,-0.38269 h 1.06299 z"
       style="fill:#000000;fill-opacity:1;fill-rule:nonzero;stroke:none"
       id="path268" /><path
       d="m 141.95401,22.88937 h -1.06299 l 0.53147,-0.14882 z"
       style="fill:#000000;fill-opacity:1;fill-rule:nonzero;stroke:none"
       id="path270" /></g></svg>
