<?xml version="1.0" encoding="UTF-8" standalone="no"?>
<svg
   xmlns:dc="http://purl.org/dc/elements/1.1/"
   xmlns:cc="http://creativecommons.org/ns#"
   xmlns:rdf="http://www.w3.org/1999/02/22-rdf-syntax-ns#"
   xmlns:svg="http://www.w3.org/2000/svg"
   xmlns="http://www.w3.org/2000/svg"
   version="1.1"
   id="svg2"
   xml:space="preserve"
   width="566.92932"
   height="170.07867"
   viewBox="0 0 566.92932 170.07867"><metadata
     id="metadata8"><rdf:RDF><cc:Work
         rdf:about=""><dc:format>image/svg+xml</dc:format><dc:type
           rdf:resource="http://purl.org/dc/dcmitype/StillImage" /></cc:Work></rdf:RDF></metadata><defs
     id="defs6"><clipPath
       clipPathUnits="userSpaceOnUse"
       id="clipPath42"><path
         d="M -0.00426,-0.00128 V 127.56033 H 425.20111 V -0.00128 H -0.00426"
         clip-rule="evenodd"
         id="path40" /></clipPath><clipPath
       clipPathUnits="userSpaceOnUse"
       id="clipPath54"><path
         d="M -0.00426,-0.00128 V 127.56033 H 425.20111 V -0.00128 H -0.00426"
         clip-rule="evenodd"
         id="path52" /></clipPath><clipPath
       clipPathUnits="userSpaceOnUse"
       id="clipPath66"><path
         d="M -0.00426,-0.00128 V 127.56033 H 425.20111 V -0.00128 H -0.00426"
         clip-rule="evenodd"
         id="path64" /></clipPath><clipPath
       clipPathUnits="userSpaceOnUse"
       id="clipPath82"><path
         d="M -0.00426,-0.00128 V 127.56033 H 425.20111 V -0.00128 H -0.00426"
         clip-rule="evenodd"
         id="path80" /></clipPath><clipPath
       clipPathUnits="userSpaceOnUse"
       id="clipPath100"><path
         d="M -0.00426,-0.00128 V 127.56033 H 425.20111 V -0.00128 H -0.00426"
         clip-rule="evenodd"
         id="path98" /></clipPath><clipPath
       clipPathUnits="userSpaceOnUse"
       id="clipPath118"><path
         d="M -0.00426,-0.00128 V 127.56033 H 425.20111 V -0.00128 H -0.00426"
         clip-rule="evenodd"
         id="path116" /></clipPath><clipPath
       clipPathUnits="userSpaceOnUse"
       id="clipPath132"><path
         d="M -0.00426,-0.00128 V 127.56033 H 425.20111 V -0.00128 H -0.00426"
         clip-rule="evenodd"
         id="path130" /></clipPath><clipPath
       clipPathUnits="userSpaceOnUse"
       id="clipPath144"><path
         d="M -0.00426,-0.00128 V 127.56033 H 425.20111 V -0.00128 H -0.00426"
         clip-rule="evenodd"
         id="path142" /></clipPath><clipPath
       clipPathUnits="userSpaceOnUse"
       id="clipPath156"><path
         d="M -0.00426,-0.00128 V 127.56033 H 425.20111 V -0.00128 H -0.00426"
         clip-rule="evenodd"
         id="path154" /></clipPath></defs><g
     id="g10"
     transform="matrix(1.3333333,0,0,-1.3333333,0,170.07867)"><path
       d="M 71.88972,36.52744 H 355.35428"
       style="fill:none;stroke:#000000;stroke-width:0.85039;stroke-linecap:round;stroke-linejoin:round;stroke-miterlimit:10;stroke-dasharray:none;stroke-opacity:1"
       id="path12" /><path
       d="m 71.88972,36.52744 -6.01318,-6.01319 m 6.01318,6.01319 6.0132,-6.01319 m -12.02638,0 H 77.90292 M 63.82938,28.28297 h 15.874 m 275.6509,8.24447 -6.01319,-6.01319 m 6.01319,6.01319 6.01318,-6.01319 m -12.02637,0 h 12.02637 m -224.21387,34.35958 -0.067,-28.34639 m 0.0117,4.96061 8.5e-4,0.35434 m -0.0126,-5.31495 v 0 l 0.7204,4.95895 -1.41733,0.0033 0.69693,-4.96229"
       style="fill:none;stroke:#000000;stroke-width:0.28346;stroke-linecap:round;stroke-linejoin:round;stroke-miterlimit:10;stroke-dasharray:none;stroke-opacity:1"
       id="path14" /><path
       d="m 136.38965,41.48973 0.69693,-4.96229 0.7204,4.95895 -1.41733,0.0033 z"
       style="fill:#000000;fill-opacity:1;fill-rule:nonzero;stroke:none"
       id="path16" /><path
       d="m 71.88972,36.52744 4.03487,-1.34131 m 2.68991,-0.8942 4.03487,-1.34132 m 2.68989,-0.8942 4.03487,-1.34131 m 2.69614,-0.8752 4.04776,-1.30188 m 2.6985,-0.86792 4.04776,-1.30187 m 2.6985,-0.86791 2.7822,-0.89484 1.27333,-0.38203 m 2.71508,-0.81459 4.07262,-1.22189 m 2.71509,-0.81459 4.07262,-1.22188 m 2.71507,-0.81459 0.66083,-0.19826 3.44096,-0.92082 m 2.73831,-0.73279 4.10742,-1.09917 m 2.73832,-0.73279 4.10742,-1.09916 m 2.75049,-0.6844 4.13778,-0.97869 m 2.75855,-0.65246 0.55066,-0.13025 3.60583,-0.76514 m 2.77292,-0.58839 2.72873,-0.57903 1.43802,-0.26625 m 2.78729,-0.51607 4.18091,-0.77409 m 2.79758,-0.45555 4.20153,-0.65288 m 2.80103,-0.43526 0.004,-6.2e-4 4.21621,-0.51825 m 2.81348,-0.34583 2.07288,-0.25479 2.15521,-0.18906 m 2.82382,-0.24769 4.12161,-0.36156 m 2.9455,-0.14668 4.24673,-0.21149 m 2.83225,-0.10341 4.25177,-0.03892 m 2.83453,-0.02594 1.08408,-0.00992 3.1662,0.10201 m 2.83319,0.09126 2.61966,0.08439 1.62686,0.11515 m 2.82757,0.20012 4.1626,0.29461 m 2.89713,0.30937 4.22793,0.4515 m 2.81323,0.34466 4.21076,0.5905 m 2.80719,0.39366 0.27237,0.03821 3.91037,0.72454 m 2.7872,0.51643 4.18082,0.77464 m 2.7872,0.51644 3.55658,0.65898 0.61776,0.14628 m 2.75837,0.6532 4.13754,0.97978 m 2.75836,0.65319 4.13754,0.97978 m 2.75836,0.65318 0.0489,0.01158 4.04816,1.12555 m 2.73105,0.75934 4.09659,1.13899 m 2.73105,0.75934 3.60568,1.00253 0.48678,0.15041 m 2.70835,0.83681 4.06247,1.25522 m 2.70831,0.8368 4.06247,1.25522 m 2.70831,0.83682 0.47266,0.14605 3.56839,1.17619"
       style="fill:none;stroke:#000000;stroke-width:0.56693;stroke-linecap:round;stroke-linejoin:round;stroke-miterlimit:10;stroke-dasharray:none;stroke-opacity:1"
       id="path18" /><path
       d="m 327.20157,27.0704 4.03824,1.33106 m 2.69217,0.88737 4.03827,1.33106 m 2.68435,0.91067 4.02573,1.36847 m 2.68384,0.91233 4.02572,1.36846 m 2.68384,0.91231 1.28055,0.43531"
       style="fill:none;stroke:#000000;stroke-width:0.56693;stroke-linecap:round;stroke-linejoin:round;stroke-miterlimit:10;stroke-dasharray:none;stroke-opacity:1"
       id="path20" /><path
       d="m 255.57477,36.52744 -0.067,-28.34638 m 0.0117,4.96062 8.5e-4,0.35432 m -0.0126,-5.31494 v 0 l 0.72037,4.95894 -1.4173,0.0034 0.69693,-4.9623"
       style="fill:none;stroke:#000000;stroke-width:0.28346;stroke-linecap:round;stroke-linejoin:round;stroke-miterlimit:10;stroke-dasharray:none;stroke-opacity:1"
       id="path22" /><path
       d="m 254.81082,13.14336 0.69693,-4.9623 0.72037,4.95894 -1.4173,0.0034 z"
       style="fill:#000000;fill-opacity:1;fill-rule:nonzero;stroke:none"
       id="path24" /><path
       d="m 62.42581,108.47701 v 0 h 28.34647 m -5.95276,0 h -0.4252 m 6.37796,0 v 0 l -5.95276,0.85038 v -1.70077 l 5.95276,0.85039"
       style="fill:none;stroke:#000000;stroke-width:0.28346;stroke-linecap:round;stroke-linejoin:round;stroke-miterlimit:10;stroke-dasharray:none;stroke-opacity:1"
       id="path26" /><path
       d="m 84.81952,107.62662 5.95276,0.85039 -5.95276,0.85038 z"
       style="fill:#000000;fill-opacity:1;fill-rule:nonzero;stroke:none"
       id="path28" /><path
       d="m 59.59117,108.47701 c 0,-1.56554 1.26912,-2.83466 2.83464,-2.83466 m 0,0 c 1.56554,0 2.83466,1.26912 2.83466,2.83466 m 0,0 c 0,1.56552 -1.26912,2.83464 -2.83466,2.83464 m 0,0 c -1.56552,0 -2.83464,-1.26912 -2.83464,-2.83464"
       style="fill:none;stroke:#000000;stroke-width:0.28346;stroke-linecap:round;stroke-linejoin:round;stroke-miterlimit:10;stroke-dasharray:none;stroke-opacity:1"
       id="path30" /><path
       d="M 62.42581,108.47701 V 80.13054 m 0,5.95276 v 0.4252 m 0,-6.37796 v 0 l 0.8504,5.95276 h -1.70079 l 0.85039,-5.95276"
       style="fill:none;stroke:#000000;stroke-width:0.28346;stroke-linecap:round;stroke-linejoin:round;stroke-miterlimit:10;stroke-dasharray:none;stroke-opacity:1"
       id="path32" /><path
       d="m 61.57542,86.0833 0.85039,-5.95276 0.8504,5.95276 z"
       style="fill:#000000;fill-opacity:1;fill-rule:nonzero;stroke:none"
       id="path34" /><g
       id="g36"><g
         id="g38"
         clip-path="url(#clipPath42)"><text
           transform="matrix(1,0,0,-1,141.5161,57.61368)"
           style="font-style:italic;font-variant:normal;font-weight:normal;font-stretch:normal;font-size:11.0078px;font-family:'Palatino Linotype';-inkscape-font-specification:PalatinoLinotype-Italic;writing-mode:lr-tb;fill:#000000;fill-opacity:1;fill-rule:nonzero;stroke:none"
           id="text46"><tspan
             x="0 6.1203589 8.8723192 14.376239"
             y="0"
             id="tspan44">F = </tspan></text></g></g><g
       id="g48"><g
         id="g50"
         clip-path="url(#clipPath54)"><text
           transform="matrix(1,0,0,-1,159.09271,57.61368)"
           style="font-variant:normal;font-weight:normal;font-stretch:normal;font-size:11.1008px;font-family:'Palatino Linotype';-inkscape-font-specification:PalatinoLinotype-Roman;writing-mode:lr-tb;fill:#000000;fill-opacity:1;fill-rule:nonzero;stroke:none"
           id="text58"><tspan
             x="0 5.550385 8.3255777"
             y="0"
             id="tspan56">1.0</tspan></text></g></g><g
       id="g60"><g
         id="g62"
         clip-path="url(#clipPath66)"><text
           transform="matrix(1,0,0,-1,259.93726,23.59802)"
           style="font-variant:normal;font-weight:normal;font-stretch:normal;font-size:11.1008px;font-family:'Palatino Linotype';-inkscape-font-specification:PalatinoLinotype-Roman;writing-mode:lr-tb;fill:#000000;fill-opacity:1;fill-rule:nonzero;stroke:none"
           id="text70"><tspan
             x="0"
             y="0"
             id="tspan68">Δ</tspan></text></g></g><path
       d="m 71.88972,98.82455 2.97638,0.42521 v -0.85039 l -2.97638,0.42518 m 283.46456,0 -2.97638,0.42521 v -0.85039 l 2.97638,0.42518"
       style="fill:none;stroke:#000000;stroke-width:0.56693;stroke-linecap:round;stroke-linejoin:round;stroke-miterlimit:10;stroke-dasharray:none;stroke-opacity:1"
       id="path72" /><path
       d="m 71.88972,98.82455 v 2.126 m 0,-2.126 v -2.12597 m 283.46456,2.12597 v 2.126 m 0,-2.126 V 96.69858 M 71.88972,98.82455 V 59.20461 M 355.35428,98.82455 V 59.20461 M 71.88972,98.82455 v 0 m 283.46456,0 v 0"
       style="fill:none;stroke:#000000;stroke-width:0.28346;stroke-linecap:round;stroke-linejoin:round;stroke-miterlimit:10;stroke-dasharray:none;stroke-opacity:1"
       id="path74" /><g
       id="g76"><g
         id="g78"
         clip-path="url(#clipPath82)"><text
           transform="matrix(1,0,0,-1,210.68981,101.69782)"
           style="font-style:italic;font-variant:normal;font-weight:normal;font-stretch:normal;font-size:11.0078px;font-family:'Palatino Linotype';-inkscape-font-specification:PalatinoLinotype-Italic;writing-mode:lr-tb;fill:#000000;fill-opacity:1;fill-rule:nonzero;stroke:none"
           id="text86"><tspan
             x="0"
             y="0"
             id="tspan84">L</tspan></text></g></g><path
       d="M 71.88972,98.82455 H 201.70319 355.35428"
       style="fill:none;stroke:#000000;stroke-width:0.28346;stroke-linecap:round;stroke-linejoin:round;stroke-miterlimit:10;stroke-dasharray:none;stroke-opacity:1"
       id="path88" /><path
       d="m 71.88972,76.37596 2.97638,0.42519 v -0.85039 l -2.97638,0.4252 m 65.26387,0 -2.97637,0.42519 v -0.85039 l 2.97637,0.4252"
       style="fill:none;stroke:#000000;stroke-width:0.56693;stroke-linecap:round;stroke-linejoin:round;stroke-miterlimit:10;stroke-dasharray:none;stroke-opacity:1"
       id="path90" /><path
       d="m 71.88972,76.37596 v 2.12598 m 0,-2.12598 v -2.12599 m 65.26387,2.12599 v 2.12598 m 0,-2.12598 v -2.12599 m -65.26387,2.12599 v -20.66463 -7.8453 m 65.26387,28.50993 V 76.2124 m -65.26387,0.16356 v 0 m 65.26387,0 v 0"
       style="fill:none;stroke:#000000;stroke-width:0.28346;stroke-linecap:round;stroke-linejoin:round;stroke-miterlimit:10;stroke-dasharray:none;stroke-opacity:1"
       id="path92" /><g
       id="g94"><g
         id="g96"
         clip-path="url(#clipPath100)"><text
           transform="matrix(1,0,0,-1,102.18528,79.38714)"
           style="font-style:italic;font-variant:normal;font-weight:normal;font-stretch:normal;font-size:11.0078px;font-family:'Palatino Linotype';-inkscape-font-specification:PalatinoLinotype-Italic;writing-mode:lr-tb;fill:#000000;fill-opacity:1;fill-rule:nonzero;stroke:none"
           id="text104"><tspan
             x="0"
             y="0"
             id="tspan102">a</tspan></text></g></g><path
       d="m 71.88972,76.37596 h 23.22245 42.04142"
       style="fill:none;stroke:#000000;stroke-width:0.28346;stroke-linecap:round;stroke-linejoin:round;stroke-miterlimit:10;stroke-dasharray:none;stroke-opacity:1"
       id="path106" /><path
       d="m 255.57477,76.37596 2.97638,0.42519 v -0.85039 l -2.97638,0.4252 m 99.77951,0 -2.97638,0.42519 v -0.85039 l 2.97638,0.4252"
       style="fill:none;stroke:#000000;stroke-width:0.56693;stroke-linecap:round;stroke-linejoin:round;stroke-miterlimit:10;stroke-dasharray:none;stroke-opacity:1"
       id="path108" /><path
       d="m 255.57477,76.37596 v 2.12598 m 0,-2.12598 v -2.12599 m 99.77951,2.12599 v 2.12598 m 0,-2.12598 v -2.12599 m -99.77951,2.12599 V 66.20834 47.46257 m 99.77951,28.91339 V 47.46257 m -99.77951,28.91339 v 0 m 99.77951,0 v 0"
       style="fill:none;stroke:#000000;stroke-width:0.28346;stroke-linecap:round;stroke-linejoin:round;stroke-miterlimit:10;stroke-dasharray:none;stroke-opacity:1"
       id="path110" /><g
       id="g112"><g
         id="g114"
         clip-path="url(#clipPath118)"><text
           transform="matrix(1,0,0,-1,302.72542,79.35955)"
           style="font-style:italic;font-variant:normal;font-weight:normal;font-stretch:normal;font-size:11.0078px;font-family:'Palatino Linotype';-inkscape-font-specification:PalatinoLinotype-Italic;writing-mode:lr-tb;fill:#000000;fill-opacity:1;fill-rule:nonzero;stroke:none"
           id="text122"><tspan
             x="0"
             y="0"
             id="tspan120">d</tspan></text></g></g><path
       d="m 255.57477,76.37596 h 33.8634 65.91611"
       style="fill:none;stroke:#000000;stroke-width:0.28346;stroke-linecap:round;stroke-linejoin:round;stroke-miterlimit:10;stroke-dasharray:none;stroke-opacity:1"
       id="path124" /><g
       id="g126"><g
         id="g128"
         clip-path="url(#clipPath132)"><text
           transform="matrix(1,0,0,-1,53.24268,110.89229)"
           style="font-style:italic;font-variant:normal;font-weight:normal;font-stretch:normal;font-size:11.0078px;font-family:'Palatino Linotype';-inkscape-font-specification:PalatinoLinotype-Italic;writing-mode:lr-tb;fill:#000000;fill-opacity:1;fill-rule:nonzero;stroke:none"
           id="text136"><tspan
             x="0"
             y="0"
             id="tspan134">y</tspan></text></g></g><g
       id="g138"><g
         id="g140"
         clip-path="url(#clipPath144)"><text
           transform="matrix(1,0,0,-1,93.69943,106.24605)"
           style="font-style:italic;font-variant:normal;font-weight:normal;font-stretch:normal;font-size:11.0078px;font-family:'Palatino Linotype';-inkscape-font-specification:PalatinoLinotype-Italic;writing-mode:lr-tb;fill:#000000;fill-opacity:1;fill-rule:nonzero;stroke:none"
           id="text148"><tspan
             x="0"
             y="0"
             id="tspan146">x</tspan></text></g></g><g
       id="g150"><g
         id="g152"
         clip-path="url(#clipPath156)"><text
           transform="matrix(1,0,0,-1,59.81328,72.01055)"
           style="font-style:italic;font-variant:normal;font-weight:normal;font-stretch:normal;font-size:11.0078px;font-family:'Palatino Linotype';-inkscape-font-specification:PalatinoLinotype-Italic;writing-mode:lr-tb;fill:#000000;fill-opacity:1;fill-rule:nonzero;stroke:none"
           id="text160"><tspan
             x="0"
             y="0"
             id="tspan158">z</tspan></text></g></g></g></svg>
