<?xml version="1.0" encoding="UTF-8" standalone="no"?>
<svg
   xmlns:dc="http://purl.org/dc/elements/1.1/"
   xmlns:cc="http://creativecommons.org/ns#"
   xmlns:rdf="http://www.w3.org/1999/02/22-rdf-syntax-ns#"
   xmlns:svg="http://www.w3.org/2000/svg"
   xmlns="http://www.w3.org/2000/svg"
   version="1.1"
   id="svg2"
   xml:space="preserve"
   width="566.92932"
   height="302.36267"
   viewBox="0 0 566.92932 302.36267"><metadata
     id="metadata8"><rdf:RDF><cc:Work
         rdf:about=""><dc:format>image/svg+xml</dc:format><dc:type
           rdf:resource="http://purl.org/dc/dcmitype/StillImage" /></cc:Work></rdf:RDF></metadata><defs
     id="defs6"><clipPath
       clipPathUnits="userSpaceOnUse"
       id="clipPath332"><path
         d="m -0.00426,-0.00227 v 226.7762 H 425.20111 V -0.00227 H -0.00426"
         clip-rule="evenodd"
         id="path330" /></clipPath><clipPath
       clipPathUnits="userSpaceOnUse"
       id="clipPath344"><path
         d="m -0.00426,-0.00227 v 226.7762 H 425.20111 V -0.00227 H -0.00426"
         clip-rule="evenodd"
         id="path342" /></clipPath><clipPath
       clipPathUnits="userSpaceOnUse"
       id="clipPath356"><path
         d="m -0.00426,-0.00227 v 226.7762 H 425.20111 V -0.00227 H -0.00426"
         clip-rule="evenodd"
         id="path354" /></clipPath><clipPath
       clipPathUnits="userSpaceOnUse"
       id="clipPath368"><path
         d="m -0.00426,-0.00227 v 226.7762 H 425.20111 V -0.00227 H -0.00426"
         clip-rule="evenodd"
         id="path366" /></clipPath><clipPath
       clipPathUnits="userSpaceOnUse"
       id="clipPath380"><path
         d="m -0.00426,-0.00227 v 226.7762 H 425.20111 V -0.00227 H -0.00426"
         clip-rule="evenodd"
         id="path378" /></clipPath><clipPath
       clipPathUnits="userSpaceOnUse"
       id="clipPath392"><path
         d="m -0.00426,-0.00227 v 226.7762 H 425.20111 V -0.00227 H -0.00426"
         clip-rule="evenodd"
         id="path390" /></clipPath><clipPath
       clipPathUnits="userSpaceOnUse"
       id="clipPath404"><path
         d="m -0.00426,-0.00227 v 226.7762 H 425.20111 V -0.00227 H -0.00426"
         clip-rule="evenodd"
         id="path402" /></clipPath><clipPath
       clipPathUnits="userSpaceOnUse"
       id="clipPath416"><path
         d="m -0.00426,-0.00227 v 226.7762 H 425.20111 V -0.00227 H -0.00426"
         clip-rule="evenodd"
         id="path414" /></clipPath><clipPath
       clipPathUnits="userSpaceOnUse"
       id="clipPath428"><path
         d="m -0.00426,-0.00227 v 226.7762 H 425.20111 V -0.00227 H -0.00426"
         clip-rule="evenodd"
         id="path426" /></clipPath><clipPath
       clipPathUnits="userSpaceOnUse"
       id="clipPath440"><path
         d="m -0.00426,-0.00227 v 226.7762 H 425.20111 V -0.00227 H -0.00426"
         clip-rule="evenodd"
         id="path438" /></clipPath><clipPath
       clipPathUnits="userSpaceOnUse"
       id="clipPath452"><path
         d="m -0.00426,-0.00227 v 226.7762 H 425.20111 V -0.00227 H -0.00426"
         clip-rule="evenodd"
         id="path450" /></clipPath><clipPath
       clipPathUnits="userSpaceOnUse"
       id="clipPath464"><path
         d="m -0.00426,-0.00227 v 226.7762 H 425.20111 V -0.00227 H -0.00426"
         clip-rule="evenodd"
         id="path462" /></clipPath><clipPath
       clipPathUnits="userSpaceOnUse"
       id="clipPath492"><path
         d="m -0.00426,-0.00227 v 226.7762 H 425.20111 V -0.00227 H -0.00426"
         clip-rule="evenodd"
         id="path490" /></clipPath><clipPath
       clipPathUnits="userSpaceOnUse"
       id="clipPath504"><path
         d="m -0.00426,-0.00227 v 226.7762 H 425.20111 V -0.00227 H -0.00426"
         clip-rule="evenodd"
         id="path502" /></clipPath></defs><g
     id="g10"
     transform="matrix(1.3333333,0,0,-1.3333333,0,302.36267)"><path
       d="m 290.46722,11.74864 c 0,0.29746 -0.24746,0.53858 -0.55276,0.53858 m 0,0 c -0.30527,0 -0.55274,-0.24112 -0.55274,-0.53858 m 0,0 c 0,-0.29745 0.24747,-0.53859 0.55274,-0.53859 m 0,0 c 0.3053,0 0.55276,0.24114 0.55276,0.53859"
       style="fill:none;stroke:#000000;stroke-width:0.51024;stroke-linecap:round;stroke-linejoin:round;stroke-miterlimit:10;stroke-dasharray:none;stroke-opacity:1"
       id="path12" /><path
       d="m 304.64044,11.74864 c 0,0.29746 -0.24747,0.53858 -0.55273,0.53858 m 0,0 c -0.3053,0 -0.55277,-0.24112 -0.55277,-0.53858 m 0,0 c 0,-0.29745 0.24747,-0.53859 0.55277,-0.53859 m 0,0 c 0.30526,0 0.55273,0.24114 0.55273,0.53859"
       style="fill:none;stroke:#000000;stroke-width:0.51024;stroke-linecap:round;stroke-linejoin:round;stroke-miterlimit:10;stroke-dasharray:none;stroke-opacity:1"
       id="path14" /><path
       d="m 289.61682,8.80061 c 0,0.52445 -0.43149,0.9496 -0.96377,0.9496 m 0,0 c -0.53229,0 -0.96378,-0.42515 -0.96378,-0.9496 m 0,0 c 0,-0.52446 0.43149,-0.94961 0.96378,-0.94961 m 0,0 c 0.53228,0 0.96377,0.42515 0.96377,0.94961"
       style="fill:none;stroke:#000000;stroke-width:0.51024;stroke-linecap:round;stroke-linejoin:round;stroke-miterlimit:10;stroke-dasharray:none;stroke-opacity:1"
       id="path16" /><path
       d="m 303.79007,8.80061 c 0,0.52445 -0.43152,0.9496 -0.96378,0.9496 m 0,0 c -0.53228,0 -0.9638,-0.42515 -0.9638,-0.9496 m 0,0 c 0,-0.52446 0.43152,-0.94961 0.9638,-0.94961 m 0,0 c 0.53226,0 0.96378,0.42515 0.96378,0.94961"
       style="fill:none;stroke:#000000;stroke-width:0.51024;stroke-linecap:round;stroke-linejoin:round;stroke-miterlimit:10;stroke-dasharray:none;stroke-opacity:1"
       id="path18" /><path
       d="m 317.39465,9.66673 c -0.48547,0.21503 -1.05597,0.00156 -1.2742,-0.47677 m 0,0 c -0.21823,-0.47835 -0.002,-1.04044 0.48392,-1.25547 m 0,0 c 0.25131,-0.11132 0.53897,-0.11132 0.79028,0"
       style="fill:none;stroke:#000000;stroke-width:0.51024;stroke-linecap:round;stroke-linejoin:round;stroke-miterlimit:10;stroke-dasharray:none;stroke-opacity:1"
       id="path20" /><path
       d="m 288.65305,14.20061 c 0,0.03914 -0.0317,0.07086 -0.0709,0.07086 m 0,0 c -0.0391,0 -0.0709,-0.03172 -0.0709,-0.07086 m 0,0 c 0,-0.03914 0.0317,-0.07086 0.0709,-0.07086 m 0,0 c 0.0392,0 0.0709,0.03172 0.0709,0.07086"
       style="fill:none;stroke:#000000;stroke-width:0.51024;stroke-linecap:round;stroke-linejoin:round;stroke-miterlimit:10;stroke-dasharray:none;stroke-opacity:1"
       id="path22" /><path
       d="m 302.82629,14.20061 c 0,0.03914 -0.0317,0.07086 -0.0709,0.07086 m 0,0 c -0.0391,0 -0.0709,-0.03172 -0.0709,-0.07086 m 0,0 c 0,-0.03914 0.0317,-0.07086 0.0709,-0.07086 m 0,0 c 0.0392,0 0.0709,0.03172 0.0709,0.07086"
       style="fill:none;stroke:#000000;stroke-width:0.51024;stroke-linecap:round;stroke-linejoin:round;stroke-miterlimit:10;stroke-dasharray:none;stroke-opacity:1"
       id="path24" /><path
       d="m 316.99951,14.20061 c 0,0.03914 -0.0317,0.07086 -0.0709,0.07086 m 0,0 c -0.0392,0 -0.0709,-0.03172 -0.0709,-0.07086 m 0,0 c 0,-0.03914 0.0317,-0.07086 0.0709,-0.07086 m 0,0 c 0.0391,0 0.0709,0.03172 0.0709,0.07086"
       style="fill:none;stroke:#000000;stroke-width:0.51024;stroke-linecap:round;stroke-linejoin:round;stroke-miterlimit:10;stroke-dasharray:none;stroke-opacity:1"
       id="path26" /><path
       d="m 288.75226,14.20061 c 0,0.03416 -0.0103,0.06755 -0.0295,0.09578"
       style="fill:none;stroke:#000000;stroke-width:0.51024;stroke-linecap:round;stroke-linejoin:round;stroke-miterlimit:10;stroke-dasharray:none;stroke-opacity:1"
       id="path28" /><path
       d="m 288.44165,14.29639 c -0.0529,-0.07762 -0.0329,-0.18343 0.0448,-0.23633 m 0,0 c 0.0776,-0.05289 0.18341,-0.03285 0.2363,0.04477 m 0,0 c 0.0192,0.02823 0.0295,0.06161 0.0295,0.09578"
       style="fill:none;stroke:#000000;stroke-width:0.51024;stroke-linecap:round;stroke-linejoin:round;stroke-miterlimit:10;stroke-dasharray:none;stroke-opacity:1"
       id="path30" /><path
       d="m 302.92551,14.20061 c 0,0.03416 -0.0103,0.06755 -0.0295,0.09578"
       style="fill:none;stroke:#000000;stroke-width:0.51024;stroke-linecap:round;stroke-linejoin:round;stroke-miterlimit:10;stroke-dasharray:none;stroke-opacity:1"
       id="path32" /><path
       d="m 302.61487,14.29639 c -0.0529,-0.07762 -0.0329,-0.18343 0.0448,-0.23633 m 0,0 c 0.0776,-0.05289 0.18341,-0.03285 0.23633,0.04477 m 0,0 c 0.0192,0.02823 0.0295,0.06161 0.0295,0.09578"
       style="fill:none;stroke:#000000;stroke-width:0.51024;stroke-linecap:round;stroke-linejoin:round;stroke-miterlimit:10;stroke-dasharray:none;stroke-opacity:1"
       id="path34" /><path
       d="m 317.09872,14.20061 c 0,0.03416 -0.0103,0.06755 -0.0295,0.09578"
       style="fill:none;stroke:#000000;stroke-width:0.51024;stroke-linecap:round;stroke-linejoin:round;stroke-miterlimit:10;stroke-dasharray:none;stroke-opacity:1"
       id="path36" /><path
       d="m 316.78809,14.29639 c -0.0529,-0.07762 -0.0328,-0.18343 0.0448,-0.23633 m 0,0 c 0.0776,-0.05289 0.18344,-0.03285 0.23632,0.04477 m 0,0 c 0.0193,0.02823 0.0295,0.06161 0.0295,0.09578"
       style="fill:none;stroke:#000000;stroke-width:0.51024;stroke-linecap:round;stroke-linejoin:round;stroke-miterlimit:10;stroke-dasharray:none;stroke-opacity:1"
       id="path38" /><path
       d="m 279.92233,11.57857 c 0,0.03914 -0.0317,0.07086 -0.0709,0.07086 m 0,0 c -0.0391,0 -0.0709,-0.03172 -0.0709,-0.07086 m 0,0 c 0,-0.03914 0.0317,-0.07088 0.0709,-0.07088 m 0,0 c 0.0392,0 0.0709,0.03174 0.0709,0.07088"
       style="fill:none;stroke:#000000;stroke-width:0.51024;stroke-linecap:round;stroke-linejoin:round;stroke-miterlimit:10;stroke-dasharray:none;stroke-opacity:1"
       id="path40" /><path
       d="m 294.09558,11.57857 c 0,0.03914 -0.0317,0.07086 -0.0709,0.07086 m 0,0 c -0.0392,0 -0.0709,-0.03172 -0.0709,-0.07086 m 0,0 c 0,-0.03914 0.0317,-0.07088 0.0709,-0.07088 m 0,0 c 0.0391,0 0.0709,0.03174 0.0709,0.07088"
       style="fill:none;stroke:#000000;stroke-width:0.51024;stroke-linecap:round;stroke-linejoin:round;stroke-miterlimit:10;stroke-dasharray:none;stroke-opacity:1"
       id="path42" /><path
       d="m 308.2688,11.57857 c 0,0.03914 -0.0317,0.07086 -0.0709,0.07086 m 0,0 c -0.0392,0 -0.0709,-0.03172 -0.0709,-0.07086 m 0,0 c 0,-0.03914 0.0317,-0.07088 0.0709,-0.07088 m 0,0 c 0.0391,0 0.0709,0.03174 0.0709,0.07088"
       style="fill:none;stroke:#000000;stroke-width:0.51024;stroke-linecap:round;stroke-linejoin:round;stroke-miterlimit:10;stroke-dasharray:none;stroke-opacity:1"
       id="path44" /><path
       d="m 280.02155,11.57857 c 0,0.09392 -0.0761,0.17007 -0.17008,0.17007 m 0,0 c -0.0939,0 -0.17007,-0.07615 -0.17007,-0.17007 m 0,0 c 0,-0.09394 0.0761,-0.17009 0.17007,-0.17009 m 0,0 c 0.0939,0 0.17008,0.07615 0.17008,0.17009"
       style="fill:none;stroke:#000000;stroke-width:0.51024;stroke-linecap:round;stroke-linejoin:round;stroke-miterlimit:10;stroke-dasharray:none;stroke-opacity:1"
       id="path46" /><path
       d="m 294.19479,11.57857 c 0,0.09392 -0.0761,0.17007 -0.17007,0.17007 m 0,0 c -0.0939,0 -0.17011,-0.07615 -0.17011,-0.17007 m 0,0 c 0,-0.09394 0.0762,-0.17009 0.17011,-0.17009 m 0,0 c 0.0939,0 0.17007,0.07615 0.17007,0.17009"
       style="fill:none;stroke:#000000;stroke-width:0.51024;stroke-linecap:round;stroke-linejoin:round;stroke-miterlimit:10;stroke-dasharray:none;stroke-opacity:1"
       id="path48" /><path
       d="m 308.36801,11.57857 c 0,0.09392 -0.0761,0.17007 -0.17007,0.17007 m 0,0 c -0.0939,0 -0.17008,-0.07615 -0.17008,-0.17007 m 0,0 c 0,-0.09394 0.0761,-0.17009 0.17008,-0.17009 m 0,0 c 0.0939,0 0.17007,0.07615 0.17007,0.17009"
       style="fill:none;stroke:#000000;stroke-width:0.51024;stroke-linecap:round;stroke-linejoin:round;stroke-miterlimit:10;stroke-dasharray:none;stroke-opacity:1"
       id="path50" /><path
       d="m 282.19006,12.49982 c 0,0.03914 -0.0317,0.07087 -0.0709,0.07087 m 0,0 c -0.0391,0 -0.0709,-0.03173 -0.0709,-0.07087 m 0,0 c 0,-0.03914 0.0317,-0.07086 0.0709,-0.07086 m 0,0 c 0.0391,0 0.0709,0.03172 0.0709,0.07086"
       style="fill:none;stroke:#000000;stroke-width:0.51024;stroke-linecap:round;stroke-linejoin:round;stroke-miterlimit:10;stroke-dasharray:none;stroke-opacity:1"
       id="path52" /><path
       d="m 296.36328,12.49982 c 0,0.03914 -0.0317,0.07087 -0.0709,0.07087 m 0,0 c -0.0391,0 -0.0709,-0.03173 -0.0709,-0.07087 m 0,0 c 0,-0.03914 0.0317,-0.07086 0.0709,-0.07086 m 0,0 c 0.0392,0 0.0709,0.03172 0.0709,0.07086"
       style="fill:none;stroke:#000000;stroke-width:0.51024;stroke-linecap:round;stroke-linejoin:round;stroke-miterlimit:10;stroke-dasharray:none;stroke-opacity:1"
       id="path54" /><path
       d="m 310.53653,12.49982 c 0,0.03914 -0.0317,0.07087 -0.0709,0.07087 m 0,0 c -0.0391,0 -0.0709,-0.03173 -0.0709,-0.07087 m 0,0 c 0,-0.03914 0.0317,-0.07086 0.0709,-0.07086 m 0,0 c 0.0392,0 0.0709,0.03172 0.0709,0.07086"
       style="fill:none;stroke:#000000;stroke-width:0.51024;stroke-linecap:round;stroke-linejoin:round;stroke-miterlimit:10;stroke-dasharray:none;stroke-opacity:1"
       id="path56" /><path
       d="m 282.28928,12.49982 c 0,0.09393 -0.0762,0.17009 -0.17008,0.17009 m 0,0 c -0.0939,0 -0.17007,-0.07616 -0.17007,-0.17009 m 0,0 c 0,-0.09394 0.0761,-0.17008 0.17007,-0.17008 m 0,0 c 0.0939,0 0.17008,0.07614 0.17008,0.17008"
       style="fill:none;stroke:#000000;stroke-width:0.51024;stroke-linecap:round;stroke-linejoin:round;stroke-miterlimit:10;stroke-dasharray:none;stroke-opacity:1"
       id="path58" /><path
       d="m 296.46249,12.49982 c 0,0.09393 -0.0761,0.17009 -0.17007,0.17009 m 0,0 c -0.0939,0 -0.17008,-0.07616 -0.17008,-0.17009 m 0,0 c 0,-0.09394 0.0761,-0.17008 0.17008,-0.17008 m 0,0 c 0.0939,0 0.17007,0.07614 0.17007,0.17008"
       style="fill:none;stroke:#000000;stroke-width:0.51024;stroke-linecap:round;stroke-linejoin:round;stroke-miterlimit:10;stroke-dasharray:none;stroke-opacity:1"
       id="path60" /><path
       d="m 310.63574,12.49982 c 0,0.09393 -0.0762,0.17009 -0.1701,0.17009 m 0,0 c -0.0939,0 -0.17008,-0.07616 -0.17008,-0.17009 m 0,0 c 0,-0.09394 0.0761,-0.17008 0.17008,-0.17008 m 0,0 c 0.0939,0 0.1701,0.07614 0.1701,0.17008"
       style="fill:none;stroke:#000000;stroke-width:0.51024;stroke-linecap:round;stroke-linejoin:round;stroke-miterlimit:10;stroke-dasharray:none;stroke-opacity:1"
       id="path62" /><path
       d="m 283.83417,13.67619 c 0,0.03914 -0.0317,0.07088 -0.0709,0.07088 m 0,0 c -0.0391,0 -0.0709,-0.03174 -0.0709,-0.07088 m 0,0 c 0,-0.03914 0.0317,-0.07086 0.0709,-0.07086 m 0,0 c 0.0392,0 0.0709,0.03172 0.0709,0.07086"
       style="fill:none;stroke:#000000;stroke-width:0.51024;stroke-linecap:round;stroke-linejoin:round;stroke-miterlimit:10;stroke-dasharray:none;stroke-opacity:1"
       id="path64" /><path
       d="m 298.00739,13.67619 c 0,0.03914 -0.0317,0.07088 -0.0709,0.07088 m 0,0 c -0.0391,0 -0.0709,-0.03174 -0.0709,-0.07088 m 0,0 c 0,-0.03914 0.0317,-0.07086 0.0709,-0.07086 m 0,0 c 0.0391,0 0.0709,0.03172 0.0709,0.07086"
       style="fill:none;stroke:#000000;stroke-width:0.51024;stroke-linecap:round;stroke-linejoin:round;stroke-miterlimit:10;stroke-dasharray:none;stroke-opacity:1"
       id="path66" /><path
       d="m 312.1806,13.67619 c 0,0.03914 -0.0317,0.07088 -0.0709,0.07088 m 0,0 c -0.0391,0 -0.0709,-0.03174 -0.0709,-0.07088 m 0,0 c 0,-0.03914 0.0317,-0.07086 0.0709,-0.07086 m 0,0 c 0.0392,0 0.0709,0.03172 0.0709,0.07086"
       style="fill:none;stroke:#000000;stroke-width:0.51024;stroke-linecap:round;stroke-linejoin:round;stroke-miterlimit:10;stroke-dasharray:none;stroke-opacity:1"
       id="path68" /><path
       d="m 283.93338,13.67619 c 0,0.09394 -0.0762,0.17009 -0.1701,0.17009 m 0,0 c -0.0939,0 -0.17008,-0.07615 -0.17008,-0.17009 m 0,0 c 0,-0.09393 0.0762,-0.17007 0.17008,-0.17007 m 0,0 c 0.0939,0 0.1701,0.07614 0.1701,0.17007"
       style="fill:none;stroke:#000000;stroke-width:0.51024;stroke-linecap:round;stroke-linejoin:round;stroke-miterlimit:10;stroke-dasharray:none;stroke-opacity:1"
       id="path70" /><path
       d="m 298.1066,13.67619 c 0,0.09394 -0.0761,0.17009 -0.17008,0.17009 m 0,0 c -0.0939,0 -0.17007,-0.07615 -0.17007,-0.17009 m 0,0 c 0,-0.09393 0.0761,-0.17007 0.17007,-0.17007 m 0,0 c 0.0939,0 0.17008,0.07614 0.17008,0.17007"
       style="fill:none;stroke:#000000;stroke-width:0.51024;stroke-linecap:round;stroke-linejoin:round;stroke-miterlimit:10;stroke-dasharray:none;stroke-opacity:1"
       id="path72" /><path
       d="m 312.27982,13.67619 c 0,0.09394 -0.0761,0.17009 -0.17008,0.17009 m 0,0 c -0.0939,0 -0.17007,-0.07615 -0.17007,-0.17009 m 0,0 c 0,-0.09393 0.0761,-0.17007 0.17007,-0.17007 m 0,0 c 0.0939,0 0.17008,0.07614 0.17008,0.17007"
       style="fill:none;stroke:#000000;stroke-width:0.51024;stroke-linecap:round;stroke-linejoin:round;stroke-miterlimit:10;stroke-dasharray:none;stroke-opacity:1"
       id="path74" /><path
       d="m 285.43573,11.86203 c 0,0.03914 -0.0317,0.07086 -0.0709,0.07086 m 0,0 c -0.0392,0 -0.0709,-0.03172 -0.0709,-0.07086 m 0,0 c 0,-0.03914 0.0317,-0.07088 0.0709,-0.07088 m 0,0 c 0.0391,0 0.0709,0.03174 0.0709,0.07088"
       style="fill:none;stroke:#000000;stroke-width:0.51024;stroke-linecap:round;stroke-linejoin:round;stroke-miterlimit:10;stroke-dasharray:none;stroke-opacity:1"
       id="path76" /><path
       d="m 299.60895,11.86203 c 0,0.03914 -0.0317,0.07086 -0.0709,0.07086 m 0,0 c -0.0391,0 -0.0709,-0.03172 -0.0709,-0.07086 m 0,0 c 0,-0.03914 0.0317,-0.07088 0.0709,-0.07088 m 0,0 c 0.0392,0 0.0709,0.03174 0.0709,0.07088"
       style="fill:none;stroke:#000000;stroke-width:0.51024;stroke-linecap:round;stroke-linejoin:round;stroke-miterlimit:10;stroke-dasharray:none;stroke-opacity:1"
       id="path78" /><path
       d="m 313.7822,11.86203 c 0,0.03914 -0.0317,0.07086 -0.0709,0.07086 m 0,0 c -0.0391,0 -0.0709,-0.03172 -0.0709,-0.07086 m 0,0 c 0,-0.03914 0.0317,-0.07088 0.0709,-0.07088 m 0,0 c 0.0391,0 0.0709,0.03174 0.0709,0.07088"
       style="fill:none;stroke:#000000;stroke-width:0.51024;stroke-linecap:round;stroke-linejoin:round;stroke-miterlimit:10;stroke-dasharray:none;stroke-opacity:1"
       id="path80" /><path
       d="m 285.53494,11.86203 c 0,0.09393 -0.0761,0.17007 -0.17007,0.17007 m 0,0 c -0.0939,0 -0.17008,-0.07614 -0.17008,-0.17007 m 0,0 c 0,-0.09393 0.0761,-0.17009 0.17008,-0.17009 m 0,0 c 0.0939,0 0.17007,0.07616 0.17007,0.17009"
       style="fill:none;stroke:#000000;stroke-width:0.51024;stroke-linecap:round;stroke-linejoin:round;stroke-miterlimit:10;stroke-dasharray:none;stroke-opacity:1"
       id="path82" /><path
       d="m 299.70816,11.86203 c 0,0.09393 -0.0761,0.17007 -0.17007,0.17007 m 0,0 c -0.0939,0 -0.17008,-0.07614 -0.17008,-0.17007 m 0,0 c 0,-0.09393 0.0761,-0.17009 0.17008,-0.17009 m 0,0 c 0.0939,0 0.17007,0.07616 0.17007,0.17009"
       style="fill:none;stroke:#000000;stroke-width:0.51024;stroke-linecap:round;stroke-linejoin:round;stroke-miterlimit:10;stroke-dasharray:none;stroke-opacity:1"
       id="path84" /><path
       d="m 313.88141,11.86203 c 0,0.09393 -0.0762,0.17007 -0.17008,0.17007 m 0,0 c -0.0939,0 -0.1701,-0.07614 -0.1701,-0.17007 m 0,0 c 0,-0.09393 0.0762,-0.17009 0.1701,-0.17009 m 0,0 c 0.0939,0 0.17008,0.07616 0.17008,0.17009"
       style="fill:none;stroke:#000000;stroke-width:0.51024;stroke-linecap:round;stroke-linejoin:round;stroke-miterlimit:10;stroke-dasharray:none;stroke-opacity:1"
       id="path86" /><path
       d="m 289.97116,6.81636 c 0,0.03914 -0.0317,0.07086 -0.0709,0.07086 m 0,0 c -0.0392,0 -0.0709,-0.03172 -0.0709,-0.07086 m 0,0 c 0,-0.03914 0.0317,-0.07088 0.0709,-0.07088 m 0,0 c 0.0391,0 0.0709,0.03174 0.0709,0.07088"
       style="fill:none;stroke:#000000;stroke-width:0.51024;stroke-linecap:round;stroke-linejoin:round;stroke-miterlimit:10;stroke-dasharray:none;stroke-opacity:1"
       id="path88" /><path
       d="m 304.14438,6.81636 c 0,0.03914 -0.0317,0.07086 -0.0709,0.07086 m 0,0 c -0.0391,0 -0.0709,-0.03172 -0.0709,-0.07086 m 0,0 c 0,-0.03914 0.0317,-0.07088 0.0709,-0.07088 m 0,0 c 0.0392,0 0.0709,0.03174 0.0709,0.07088"
       style="fill:none;stroke:#000000;stroke-width:0.51024;stroke-linecap:round;stroke-linejoin:round;stroke-miterlimit:10;stroke-dasharray:none;stroke-opacity:1"
       id="path90" /><path
       d="m 290.07037,6.81636 c 0,0.09393 -0.0761,0.17007 -0.17007,0.17007 m 0,0 c -0.0939,0 -0.17008,-0.07614 -0.17008,-0.17007 m 0,0 c 0,-0.09393 0.0762,-0.17009 0.17008,-0.17009 m 0,0 c 0.0939,0 0.17007,0.07616 0.17007,0.17009"
       style="fill:none;stroke:#000000;stroke-width:0.51024;stroke-linecap:round;stroke-linejoin:round;stroke-miterlimit:10;stroke-dasharray:none;stroke-opacity:1"
       id="path92" /><path
       d="m 304.24359,6.81636 c 0,0.09393 -0.0761,0.17007 -0.17007,0.17007 m 0,0 c -0.0939,0 -0.17008,-0.07614 -0.17008,-0.17007 m 0,0 c 0,-0.09393 0.0761,-0.17009 0.17008,-0.17009 m 0,0 c 0.0939,0 0.17007,0.07616 0.17007,0.17009"
       style="fill:none;stroke:#000000;stroke-width:0.51024;stroke-linecap:round;stroke-linejoin:round;stroke-miterlimit:10;stroke-dasharray:none;stroke-opacity:1"
       id="path94" /><path
       d="m 291.55856,9.48093 c 0,0.03914 -0.0317,0.07086 -0.0709,0.07086 m 0,0 c -0.0392,0 -0.0709,-0.03172 -0.0709,-0.07086 m 0,0 c 0,-0.03914 0.0317,-0.07088 0.0709,-0.07088 m 0,0 c 0.0391,0 0.0709,0.03174 0.0709,0.07088"
       style="fill:none;stroke:#000000;stroke-width:0.51024;stroke-linecap:round;stroke-linejoin:round;stroke-miterlimit:10;stroke-dasharray:none;stroke-opacity:1"
       id="path96" /><path
       d="m 305.73178,9.48093 c 0,0.03914 -0.0317,0.07086 -0.0709,0.07086 m 0,0 c -0.0391,0 -0.0709,-0.03172 -0.0709,-0.07086 m 0,0 c 0,-0.03914 0.0317,-0.07088 0.0709,-0.07088 m 0,0 c 0.0392,0 0.0709,0.03174 0.0709,0.07088"
       style="fill:none;stroke:#000000;stroke-width:0.51024;stroke-linecap:round;stroke-linejoin:round;stroke-miterlimit:10;stroke-dasharray:none;stroke-opacity:1"
       id="path98" /><path
       d="m 291.65778,9.48093 c 0,0.09393 -0.0761,0.17007 -0.17008,0.17007 m 0,0 c -0.0939,0 -0.17007,-0.07614 -0.17007,-0.17007 m 0,0 c 0,-0.09394 0.0761,-0.17009 0.17007,-0.17009 m 0,0 c 0.0939,0 0.17008,0.07615 0.17008,0.17009"
       style="fill:none;stroke:#000000;stroke-width:0.51024;stroke-linecap:round;stroke-linejoin:round;stroke-miterlimit:10;stroke-dasharray:none;stroke-opacity:1"
       id="path100" /><path
       d="m 305.83099,9.48093 c 0,0.09393 -0.0761,0.17007 -0.17007,0.17007 m 0,0 c -0.0939,0 -0.17008,-0.07614 -0.17008,-0.17007 m 0,0 c 0,-0.09394 0.0761,-0.17009 0.17008,-0.17009 m 0,0 c 0.0939,0 0.17007,0.07615 0.17007,0.17009"
       style="fill:none;stroke:#000000;stroke-width:0.51024;stroke-linecap:round;stroke-linejoin:round;stroke-miterlimit:10;stroke-dasharray:none;stroke-opacity:1"
       id="path102" /><path
       d="m 279.3129,7.43997 c 0,0.03914 -0.0317,0.07088 -0.0709,0.07088 m 0,0 c -0.0392,0 -0.0709,-0.03174 -0.0709,-0.07088 m 0,0 c 0,-0.03914 0.0317,-0.07086 0.0709,-0.07086 m 0,0 c 0.0391,0 0.0709,0.03172 0.0709,0.07086"
       style="fill:none;stroke:#000000;stroke-width:0.51024;stroke-linecap:round;stroke-linejoin:round;stroke-miterlimit:10;stroke-dasharray:none;stroke-opacity:1"
       id="path104" /><path
       d="m 293.48611,7.43997 c 0,0.03914 -0.0317,0.07088 -0.0709,0.07088 m 0,0 c -0.0391,0 -0.0709,-0.03174 -0.0709,-0.07088 m 0,0 c 0,-0.03914 0.0317,-0.07086 0.0709,-0.07086 m 0,0 c 0.0392,0 0.0709,0.03172 0.0709,0.07086"
       style="fill:none;stroke:#000000;stroke-width:0.51024;stroke-linecap:round;stroke-linejoin:round;stroke-miterlimit:10;stroke-dasharray:none;stroke-opacity:1"
       id="path106" /><path
       d="m 307.65936,7.43997 c 0,0.03914 -0.0317,0.07088 -0.0709,0.07088 m 0,0 c -0.0391,0 -0.0709,-0.03174 -0.0709,-0.07088 m 0,0 c 0,-0.03914 0.0317,-0.07086 0.0709,-0.07086 m 0,0 c 0.0392,0 0.0709,0.03172 0.0709,0.07086"
       style="fill:none;stroke:#000000;stroke-width:0.51024;stroke-linecap:round;stroke-linejoin:round;stroke-miterlimit:10;stroke-dasharray:none;stroke-opacity:1"
       id="path108" /><path
       d="m 279.41211,7.43997 c 0,0.09394 -0.0761,0.17009 -0.17008,0.17009 m 0,0 c -0.0426,0 -0.0837,-0.016 -0.11508,-0.04486"
       style="fill:none;stroke:#000000;stroke-width:0.51024;stroke-linecap:round;stroke-linejoin:round;stroke-miterlimit:10;stroke-dasharray:none;stroke-opacity:1"
       id="path110" /><path
       d="m 279.12695,7.31474 c 0.0692,-0.06355 0.17676,-0.059 0.2403,0.01015 m 0,0 c 0.0288,0.03139 0.0449,0.07246 0.0449,0.11508"
       style="fill:none;stroke:#000000;stroke-width:0.51024;stroke-linecap:round;stroke-linejoin:round;stroke-miterlimit:10;stroke-dasharray:none;stroke-opacity:1"
       id="path112" /><path
       d="m 293.58533,7.43997 c 0,0.09394 -0.0761,0.17009 -0.17008,0.17009 m 0,0 c -0.0939,0 -0.17007,-0.07615 -0.17007,-0.17009 m 0,0 c 0,-0.09393 0.0761,-0.17007 0.17007,-0.17007 m 0,0 c 0.0939,0 0.17008,0.07614 0.17008,0.17007"
       style="fill:none;stroke:#000000;stroke-width:0.51024;stroke-linecap:round;stroke-linejoin:round;stroke-miterlimit:10;stroke-dasharray:none;stroke-opacity:1"
       id="path114" /><path
       d="m 307.75858,7.43997 c 0,0.09394 -0.0762,0.17009 -0.17011,0.17009 m 0,0 c -0.0939,0 -0.17007,-0.07615 -0.17007,-0.17009 m 0,0 c 0,-0.09393 0.0762,-0.17007 0.17007,-0.17007 m 0,0 c 0.0939,0 0.17011,0.07614 0.17011,0.17007"
       style="fill:none;stroke:#000000;stroke-width:0.51024;stroke-linecap:round;stroke-linejoin:round;stroke-miterlimit:10;stroke-dasharray:none;stroke-opacity:1"
       id="path116" /><path
       d="m 281.01367,8.94234 c 0,0.03914 -0.0317,0.07086 -0.0709,0.07086 m 0,0 c -0.0391,0 -0.0709,-0.03172 -0.0709,-0.07086 m 0,0 c 0,-0.03914 0.0317,-0.07086 0.0709,-0.07086 m 0,0 c 0.0392,0 0.0709,0.03172 0.0709,0.07086"
       style="fill:none;stroke:#000000;stroke-width:0.51024;stroke-linecap:round;stroke-linejoin:round;stroke-miterlimit:10;stroke-dasharray:none;stroke-opacity:1"
       id="path118" /><path
       d="m 295.18692,8.94234 c 0,0.03914 -0.0317,0.07086 -0.0709,0.07086 m 0,0 c -0.0392,0 -0.0709,-0.03172 -0.0709,-0.07086 m 0,0 c 0,-0.03914 0.0317,-0.07086 0.0709,-0.07086 m 0,0 c 0.0391,0 0.0709,0.03172 0.0709,0.07086"
       style="fill:none;stroke:#000000;stroke-width:0.51024;stroke-linecap:round;stroke-linejoin:round;stroke-miterlimit:10;stroke-dasharray:none;stroke-opacity:1"
       id="path120" /><path
       d="m 309.36014,8.94234 c 0,0.03914 -0.0317,0.07086 -0.0709,0.07086 m 0,0 c -0.0392,0 -0.0709,-0.03172 -0.0709,-0.07086 m 0,0 c 0,-0.03914 0.0317,-0.07086 0.0709,-0.07086 m 0,0 c 0.0391,0 0.0709,0.03172 0.0709,0.07086"
       style="fill:none;stroke:#000000;stroke-width:0.51024;stroke-linecap:round;stroke-linejoin:round;stroke-miterlimit:10;stroke-dasharray:none;stroke-opacity:1"
       id="path122" /><path
       d="m 281.11288,8.94234 c 0,0.09393 -0.0761,0.17007 -0.17007,0.17007 m 0,0 c -0.0939,0 -0.17007,-0.07614 -0.17007,-0.17007 m 0,0 c 0,-0.09394 0.0761,-0.17008 0.17007,-0.17008 m 0,0 c 0.0939,0 0.17007,0.07614 0.17007,0.17008"
       style="fill:none;stroke:#000000;stroke-width:0.51024;stroke-linecap:round;stroke-linejoin:round;stroke-miterlimit:10;stroke-dasharray:none;stroke-opacity:1"
       id="path124" /><path
       d="m 295.28613,8.94234 c 0,0.09393 -0.0761,0.17007 -0.17007,0.17007 m 0,0 c -0.0939,0 -0.17011,-0.07614 -0.17011,-0.17007 m 0,0 c 0,-0.09394 0.0762,-0.17008 0.17011,-0.17008 m 0,0 c 0.0939,0 0.17007,0.07614 0.17007,0.17008"
       style="fill:none;stroke:#000000;stroke-width:0.51024;stroke-linecap:round;stroke-linejoin:round;stroke-miterlimit:10;stroke-dasharray:none;stroke-opacity:1"
       id="path126" /><path
       d="m 309.45935,8.94234 c 0,0.09393 -0.0761,0.17007 -0.17007,0.17007 m 0,0 c -0.0939,0 -0.17008,-0.07614 -0.17008,-0.17007 m 0,0 c 0,-0.09394 0.0761,-0.17008 0.17008,-0.17008 m 0,0 c 0.0939,0 0.17007,0.07614 0.17007,0.17008"
       style="fill:none;stroke:#000000;stroke-width:0.51024;stroke-linecap:round;stroke-linejoin:round;stroke-miterlimit:10;stroke-dasharray:none;stroke-opacity:1"
       id="path128" /><path
       d="m 282.88455,6.78801 c 0,0.03914 -0.0317,0.07086 -0.0709,0.07086 m 0,0 c -0.0392,0 -0.0709,-0.03172 -0.0709,-0.07086 m 0,0 c 0,-0.03914 0.0317,-0.07086 0.0709,-0.07086 m 0,0 c 0.0391,0 0.0709,0.03172 0.0709,0.07086"
       style="fill:none;stroke:#000000;stroke-width:0.51024;stroke-linecap:round;stroke-linejoin:round;stroke-miterlimit:10;stroke-dasharray:none;stroke-opacity:1"
       id="path130" /><path
       d="m 297.05777,6.78801 c 0,0.03914 -0.0317,0.07086 -0.0709,0.07086 m 0,0 c -0.0391,0 -0.0709,-0.03172 -0.0709,-0.07086 m 0,0 c 0,-0.03914 0.0317,-0.07086 0.0709,-0.07086 m 0,0 c 0.0391,0 0.0709,0.03172 0.0709,0.07086"
       style="fill:none;stroke:#000000;stroke-width:0.51024;stroke-linecap:round;stroke-linejoin:round;stroke-miterlimit:10;stroke-dasharray:none;stroke-opacity:1"
       id="path132" /><path
       d="m 311.23102,6.78801 c 0,0.03914 -0.0317,0.07086 -0.0709,0.07086 m 0,0 c -0.0391,0 -0.0709,-0.03172 -0.0709,-0.07086 m 0,0 c 0,-0.03914 0.0317,-0.07086 0.0709,-0.07086 m 0,0 c 0.0392,0 0.0709,0.03172 0.0709,0.07086"
       style="fill:none;stroke:#000000;stroke-width:0.51024;stroke-linecap:round;stroke-linejoin:round;stroke-miterlimit:10;stroke-dasharray:none;stroke-opacity:1"
       id="path134" /><path
       d="m 282.98376,6.78801 c 0,0.09393 -0.0761,0.17007 -0.17007,0.17007 m 0,0 c -0.0939,0 -0.17007,-0.07614 -0.17007,-0.17007 m 0,0 c 0,-0.09393 0.0761,-0.17007 0.17007,-0.17007 m 0,0 c 0.0939,0 0.17007,0.07614 0.17007,0.17007"
       style="fill:none;stroke:#000000;stroke-width:0.51024;stroke-linecap:round;stroke-linejoin:round;stroke-miterlimit:10;stroke-dasharray:none;stroke-opacity:1"
       id="path136" /><path
       d="m 297.15698,6.78801 c 0,0.09393 -0.0761,0.17007 -0.17007,0.17007 m 0,0 c -0.0939,0 -0.17008,-0.07614 -0.17008,-0.17007 m 0,0 c 0,-0.09393 0.0761,-0.17007 0.17008,-0.17007 m 0,0 c 0.0939,0 0.17007,0.07614 0.17007,0.17007"
       style="fill:none;stroke:#000000;stroke-width:0.51024;stroke-linecap:round;stroke-linejoin:round;stroke-miterlimit:10;stroke-dasharray:none;stroke-opacity:1"
       id="path138" /><path
       d="m 311.33023,6.78801 c 0,0.09393 -0.0762,0.17007 -0.1701,0.17007 m 0,0 c -0.0939,0 -0.17008,-0.07614 -0.17008,-0.17007 m 0,0 c 0,-0.09393 0.0761,-0.17007 0.17008,-0.17007 m 0,0 c 0.0939,0 0.1701,0.07614 0.1701,0.17007"
       style="fill:none;stroke:#000000;stroke-width:0.51024;stroke-linecap:round;stroke-linejoin:round;stroke-miterlimit:10;stroke-dasharray:none;stroke-opacity:1"
       id="path140" /><path
       d="m 285.94595,7.2699 c 0,0.03914 -0.0317,0.07086 -0.0709,0.07086 m 0,0 c -0.0391,0 -0.0709,-0.03172 -0.0709,-0.07086 m 0,0 c 0,-0.03914 0.0317,-0.07086 0.0709,-0.07086 m 0,0 c 0.0392,0 0.0709,0.03172 0.0709,0.07086"
       style="fill:none;stroke:#000000;stroke-width:0.51024;stroke-linecap:round;stroke-linejoin:round;stroke-miterlimit:10;stroke-dasharray:none;stroke-opacity:1"
       id="path142" /><path
       d="m 300.1192,7.2699 c 0,0.03914 -0.0317,0.07086 -0.0709,0.07086 m 0,0 c -0.0392,0 -0.0709,-0.03172 -0.0709,-0.07086 m 0,0 c 0,-0.03914 0.0317,-0.07086 0.0709,-0.07086 m 0,0 c 0.0391,0 0.0709,0.03172 0.0709,0.07086"
       style="fill:none;stroke:#000000;stroke-width:0.51024;stroke-linecap:round;stroke-linejoin:round;stroke-miterlimit:10;stroke-dasharray:none;stroke-opacity:1"
       id="path144" /><path
       d="m 314.29242,7.2699 c 0,0.03914 -0.0317,0.07086 -0.0709,0.07086 m 0,0 c -0.0392,0 -0.0709,-0.03172 -0.0709,-0.07086 m 0,0 c 0,-0.03914 0.0317,-0.07086 0.0709,-0.07086 m 0,0 c 0.0391,0 0.0709,0.03172 0.0709,0.07086"
       style="fill:none;stroke:#000000;stroke-width:0.51024;stroke-linecap:round;stroke-linejoin:round;stroke-miterlimit:10;stroke-dasharray:none;stroke-opacity:1"
       id="path146" /><path
       d="m 286.04517,7.2699 c 0,0.09393 -0.0761,0.17007 -0.17008,0.17007 m 0,0 c -0.0939,0 -0.17007,-0.07614 -0.17007,-0.17007 m 0,0 c 0,-0.09394 0.0761,-0.17008 0.17007,-0.17008 m 0,0 c 0.0939,0 0.17008,0.07614 0.17008,0.17008"
       style="fill:none;stroke:#000000;stroke-width:0.51024;stroke-linecap:round;stroke-linejoin:round;stroke-miterlimit:10;stroke-dasharray:none;stroke-opacity:1"
       id="path148" /><path
       d="m 300.21841,7.2699 c 0,0.09393 -0.0761,0.17007 -0.17007,0.17007 m 0,0 c -0.0939,0 -0.17011,-0.07614 -0.17011,-0.17007 m 0,0 c 0,-0.09394 0.0762,-0.17008 0.17011,-0.17008 m 0,0 c 0.0939,0 0.17007,0.07614 0.17007,0.17008"
       style="fill:none;stroke:#000000;stroke-width:0.51024;stroke-linecap:round;stroke-linejoin:round;stroke-miterlimit:10;stroke-dasharray:none;stroke-opacity:1"
       id="path150" /><path
       d="m 314.39163,7.2699 c 0,0.09393 -0.0761,0.17007 -0.17007,0.17007 m 0,0 c -0.0939,0 -0.17008,-0.07614 -0.17008,-0.17007 m 0,0 c 0,-0.09394 0.0761,-0.17008 0.17008,-0.17008 m 0,0 c 0.0939,0 0.17007,0.07614 0.17007,0.17008"
       style="fill:none;stroke:#000000;stroke-width:0.51024;stroke-linecap:round;stroke-linejoin:round;stroke-miterlimit:10;stroke-dasharray:none;stroke-opacity:1"
       id="path152" /><path
       d="m 283.91919,9.8636 c 0,0.03914 -0.0317,0.07086 -0.0709,0.07086 m 0,0 c -0.0391,0 -0.0709,-0.03172 -0.0709,-0.07086 m 0,0 c 0,-0.03914 0.0317,-0.07086 0.0709,-0.07086 m 0,0 c 0.0392,0 0.0709,0.03172 0.0709,0.07086"
       style="fill:none;stroke:#000000;stroke-width:0.51024;stroke-linecap:round;stroke-linejoin:round;stroke-miterlimit:10;stroke-dasharray:none;stroke-opacity:1"
       id="path154" /><path
       d="m 298.09244,9.8636 c 0,0.03914 -0.0317,0.07086 -0.0709,0.07086 m 0,0 c -0.0391,0 -0.0709,-0.03172 -0.0709,-0.07086 m 0,0 c 0,-0.03914 0.0317,-0.07086 0.0709,-0.07086 m 0,0 c 0.0392,0 0.0709,0.03172 0.0709,0.07086"
       style="fill:none;stroke:#000000;stroke-width:0.51024;stroke-linecap:round;stroke-linejoin:round;stroke-miterlimit:10;stroke-dasharray:none;stroke-opacity:1"
       id="path156" /><path
       d="m 312.26566,9.8636 c 0,0.03914 -0.0317,0.07086 -0.0709,0.07086 m 0,0 c -0.0392,0 -0.0709,-0.03172 -0.0709,-0.07086 m 0,0 c 0,-0.03914 0.0317,-0.07086 0.0709,-0.07086 m 0,0 c 0.0391,0 0.0709,0.03172 0.0709,0.07086"
       style="fill:none;stroke:#000000;stroke-width:0.51024;stroke-linecap:round;stroke-linejoin:round;stroke-miterlimit:10;stroke-dasharray:none;stroke-opacity:1"
       id="path158" /><path
       d="m 284.0184,9.8636 c 0,0.09393 -0.0761,0.17008 -0.17007,0.17008 m 0,0 c -0.0939,0 -0.17008,-0.07615 -0.17008,-0.17008 m 0,0 c 0,-0.09393 0.0761,-0.17007 0.17008,-0.17007 m 0,0 c 0.0939,0 0.17007,0.07614 0.17007,0.17007"
       style="fill:none;stroke:#000000;stroke-width:0.51024;stroke-linecap:round;stroke-linejoin:round;stroke-miterlimit:10;stroke-dasharray:none;stroke-opacity:1"
       id="path160" /><path
       d="m 298.19165,9.8636 c 0,0.09393 -0.0762,0.17008 -0.1701,0.17008 m 0,0 c -0.0939,0 -0.17008,-0.07615 -0.17008,-0.17008 m 0,0 c 0,-0.09393 0.0761,-0.17007 0.17008,-0.17007 m 0,0 c 0.0939,0 0.1701,0.07614 0.1701,0.17007"
       style="fill:none;stroke:#000000;stroke-width:0.51024;stroke-linecap:round;stroke-linejoin:round;stroke-miterlimit:10;stroke-dasharray:none;stroke-opacity:1"
       id="path162" /><path
       d="m 312.36487,9.8636 c 0,0.09393 -0.0761,0.17008 -0.17008,0.17008 m 0,0 c -0.0939,0 -0.17007,-0.07615 -0.17007,-0.17008 m 0,0 c 0,-0.09393 0.0761,-0.17007 0.17007,-0.17007 m 0,0 c 0.0939,0 0.17008,0.07614 0.17008,0.17007"
       style="fill:none;stroke:#000000;stroke-width:0.51024;stroke-linecap:round;stroke-linejoin:round;stroke-miterlimit:10;stroke-dasharray:none;stroke-opacity:1"
       id="path164" /><path
       d="m 77.8688,11.74864 c 0,0.29746 -0.24746,0.53858 -0.55274,0.53858 m 0,0 c -0.30529,0 -0.55277,-0.24112 -0.55277,-0.53858 m 0,0 c 0,-0.29745 0.24748,-0.53859 0.55277,-0.53859 m 0,0 c 0.30528,0 0.55274,0.24114 0.55274,0.53859"
       style="fill:none;stroke:#000000;stroke-width:0.51024;stroke-linecap:round;stroke-linejoin:round;stroke-miterlimit:10;stroke-dasharray:none;stroke-opacity:1"
       id="path166" /><path
       d="m 92.04204,11.74864 c 0,0.29746 -0.24748,0.53858 -0.55275,0.53858 m 0,0 c -0.30528,0 -0.55277,-0.24112 -0.55277,-0.53858 m 0,0 c 0,-0.29745 0.24749,-0.53859 0.55277,-0.53859 m 0,0 c 0.30527,0 0.55275,0.24114 0.55275,0.53859"
       style="fill:none;stroke:#000000;stroke-width:0.51024;stroke-linecap:round;stroke-linejoin:round;stroke-miterlimit:10;stroke-dasharray:none;stroke-opacity:1"
       id="path168" /><path
       d="m 106.21527,11.74864 c 0,0.29746 -0.24748,0.53858 -0.55276,0.53858 m 0,0 c -0.30529,0 -0.55275,-0.24112 -0.55275,-0.53858 m 0,0 c 0,-0.29745 0.24746,-0.53859 0.55275,-0.53859 m 0,0 c 0.30528,0 0.55276,0.24114 0.55276,0.53859"
       style="fill:none;stroke:#000000;stroke-width:0.51024;stroke-linecap:round;stroke-linejoin:round;stroke-miterlimit:10;stroke-dasharray:none;stroke-opacity:1"
       id="path170" /><path
       d="m 77.01842,8.80061 c 0,0.52445 -0.43151,0.9496 -0.96378,0.9496 m 0,0 c -0.53229,0 -0.96379,-0.42515 -0.96379,-0.9496 m 0,0 c 0,-0.52446 0.4315,-0.94961 0.96379,-0.94961 m 0,0 c 0.53227,0 0.96378,0.42515 0.96378,0.94961"
       style="fill:none;stroke:#000000;stroke-width:0.51024;stroke-linecap:round;stroke-linejoin:round;stroke-miterlimit:10;stroke-dasharray:none;stroke-opacity:1"
       id="path172" /><path
       d="m 91.19165,8.80061 c 0,0.52445 -0.4315,0.9496 -0.96379,0.9496 m 0,0 c -0.53227,0 -0.96378,-0.42515 -0.96378,-0.9496 m 0,0 c 0,-0.52446 0.43151,-0.94961 0.96378,-0.94961 m 0,0 c 0.53229,0 0.96379,0.42515 0.96379,0.94961"
       style="fill:none;stroke:#000000;stroke-width:0.51024;stroke-linecap:round;stroke-linejoin:round;stroke-miterlimit:10;stroke-dasharray:none;stroke-opacity:1"
       id="path174" /><path
       d="m 105.36487,8.80061 c 0,0.52445 -0.43149,0.9496 -0.96378,0.9496 m 0,0 c -0.53229,0 -0.96377,-0.42515 -0.96377,-0.9496 m 0,0 c 0,-0.52446 0.43148,-0.94961 0.96377,-0.94961 m 0,0 c 0.53229,0 0.96378,0.42515 0.96378,0.94961"
       style="fill:none;stroke:#000000;stroke-width:0.51024;stroke-linecap:round;stroke-linejoin:round;stroke-miterlimit:10;stroke-dasharray:none;stroke-opacity:1"
       id="path176" /><path
       d="m 76.05464,14.20061 c 0,0.03914 -0.03174,0.07086 -0.07088,0.07086 m 0,0 c -0.03913,0 -0.07086,-0.03172 -0.07086,-0.07086 m 0,0 c 0,-0.03914 0.03173,-0.07086 0.07086,-0.07086 m 0,0 c 0.03914,0 0.07088,0.03172 0.07088,0.07086"
       style="fill:none;stroke:#000000;stroke-width:0.51024;stroke-linecap:round;stroke-linejoin:round;stroke-miterlimit:10;stroke-dasharray:none;stroke-opacity:1"
       id="path178" /><path
       d="m 90.22786,14.20061 c 0,0.03914 -0.03172,0.07086 -0.07086,0.07086 m 0,0 c -0.03914,0 -0.07086,-0.03172 -0.07086,-0.07086 m 0,0 c 0,-0.03914 0.03172,-0.07086 0.07086,-0.07086 m 0,0 c 0.03914,0 0.07086,0.03172 0.07086,0.07086"
       style="fill:none;stroke:#000000;stroke-width:0.51024;stroke-linecap:round;stroke-linejoin:round;stroke-miterlimit:10;stroke-dasharray:none;stroke-opacity:1"
       id="path180" /><path
       d="m 104.40109,14.20061 c 0,0.03914 -0.0317,0.07086 -0.0709,0.07086 m 0,0 c -0.0391,0 -0.0709,-0.03172 -0.0709,-0.07086 m 0,0 c 0,-0.03914 0.0317,-0.07086 0.0709,-0.07086 m 0,0 c 0.0391,0 0.0709,0.03172 0.0709,0.07086"
       style="fill:none;stroke:#000000;stroke-width:0.51024;stroke-linecap:round;stroke-linejoin:round;stroke-miterlimit:10;stroke-dasharray:none;stroke-opacity:1"
       id="path182" /><path
       d="m 76.15385,14.20061 c 0,0.03416 -0.0103,0.06755 -0.02954,0.09578"
       style="fill:none;stroke:#000000;stroke-width:0.51024;stroke-linecap:round;stroke-linejoin:round;stroke-miterlimit:10;stroke-dasharray:none;stroke-opacity:1"
       id="path184" /><path
       d="m 75.84323,14.29639 c -0.0529,-0.07762 -0.03287,-0.18343 0.04476,-0.23633 m 0,0 c 0.07762,-0.05289 0.18342,-0.03285 0.23632,0.04477 m 0,0 c 0.01924,0.02823 0.02954,0.06161 0.02954,0.09578"
       style="fill:none;stroke:#000000;stroke-width:0.51024;stroke-linecap:round;stroke-linejoin:round;stroke-miterlimit:10;stroke-dasharray:none;stroke-opacity:1"
       id="path186" /><path
       d="m 90.32707,14.20061 c 0,0.03416 -0.01028,0.06755 -0.02952,0.09578"
       style="fill:none;stroke:#000000;stroke-width:0.51024;stroke-linecap:round;stroke-linejoin:round;stroke-miterlimit:10;stroke-dasharray:none;stroke-opacity:1"
       id="path188" /><path
       d="m 90.01645,14.29639 c -0.05289,-0.07762 -0.03285,-0.18343 0.04477,-0.23633 m 0,0 c 0.07762,-0.05289 0.18342,-0.03285 0.23633,0.04477 m 0,0 c 0.01924,0.02823 0.02952,0.06161 0.02952,0.09578"
       style="fill:none;stroke:#000000;stroke-width:0.51024;stroke-linecap:round;stroke-linejoin:round;stroke-miterlimit:10;stroke-dasharray:none;stroke-opacity:1"
       id="path190" /><path
       d="m 104.50031,14.20061 c 0,0.03416 -0.0103,0.06755 -0.0296,0.09578"
       style="fill:none;stroke:#000000;stroke-width:0.51024;stroke-linecap:round;stroke-linejoin:round;stroke-miterlimit:10;stroke-dasharray:none;stroke-opacity:1"
       id="path192" /><path
       d="m 104.18968,14.29639 c -0.0529,-0.07762 -0.0328,-0.18343 0.0448,-0.23633 m 0,0 c 0.0776,-0.05289 0.18343,-0.03285 0.23631,0.04477 m 0,0 c 0.0193,0.02823 0.0296,0.06161 0.0296,0.09578"
       style="fill:none;stroke:#000000;stroke-width:0.51024;stroke-linecap:round;stroke-linejoin:round;stroke-miterlimit:10;stroke-dasharray:none;stroke-opacity:1"
       id="path194" /><path
       d="m 81.49716,11.57857 c 0,0.03914 -0.03174,0.07086 -0.07088,0.07086 m 0,0 c -0.03913,0 -0.07086,-0.03172 -0.07086,-0.07086 m 0,0 c 0,-0.03914 0.03173,-0.07088 0.07086,-0.07088 m 0,0 c 0.03914,0 0.07088,0.03174 0.07088,0.07088"
       style="fill:none;stroke:#000000;stroke-width:0.51024;stroke-linecap:round;stroke-linejoin:round;stroke-miterlimit:10;stroke-dasharray:none;stroke-opacity:1"
       id="path196" /><path
       d="m 95.67038,11.57857 c 0,0.03914 -0.03172,0.07086 -0.07086,0.07086 m 0,0 c -0.03914,0 -0.07086,-0.03172 -0.07086,-0.07086 m 0,0 c 0,-0.03914 0.03172,-0.07088 0.07086,-0.07088 m 0,0 c 0.03914,0 0.07086,0.03174 0.07086,0.07088"
       style="fill:none;stroke:#000000;stroke-width:0.51024;stroke-linecap:round;stroke-linejoin:round;stroke-miterlimit:10;stroke-dasharray:none;stroke-opacity:1"
       id="path198" /><path
       d="m 81.59637,11.57857 c 0,0.09392 -0.07615,0.17007 -0.17009,0.17007 m 0,0 c -0.09393,0 -0.17007,-0.07615 -0.17007,-0.17007 m 0,0 c 0,-0.09394 0.07614,-0.17009 0.17007,-0.17009 m 0,0 c 0.09394,0 0.17009,0.07615 0.17009,0.17009"
       style="fill:none;stroke:#000000;stroke-width:0.51024;stroke-linecap:round;stroke-linejoin:round;stroke-miterlimit:10;stroke-dasharray:none;stroke-opacity:1"
       id="path200" /><path
       d="m 95.76959,11.57857 c 0,0.09392 -0.07614,0.17007 -0.17007,0.17007 m 0,0 c -0.09394,0 -0.17008,-0.07615 -0.17008,-0.17007 m 0,0 c 0,-0.09394 0.07614,-0.17009 0.17008,-0.17009 m 0,0 c 0.09393,0 0.17007,0.07615 0.17007,0.17009"
       style="fill:none;stroke:#000000;stroke-width:0.51024;stroke-linecap:round;stroke-linejoin:round;stroke-miterlimit:10;stroke-dasharray:none;stroke-opacity:1"
       id="path202" /><path
       d="m 83.76488,12.49982 c 0,0.03914 -0.03174,0.07087 -0.07088,0.07087 m 0,0 c -0.03914,0 -0.07086,-0.03173 -0.07086,-0.07087 m 0,0 c 0,-0.03914 0.03172,-0.07086 0.07086,-0.07086 m 0,0 c 0.03914,0 0.07088,0.03172 0.07088,0.07086"
       style="fill:none;stroke:#000000;stroke-width:0.51024;stroke-linecap:round;stroke-linejoin:round;stroke-miterlimit:10;stroke-dasharray:none;stroke-opacity:1"
       id="path204" /><path
       d="m 97.9381,12.49982 c 0,0.03914 -0.03173,0.07087 -0.07087,0.07087 m 0,0 c -0.03914,0 -0.07086,-0.03173 -0.07086,-0.07087 m 0,0 c 0,-0.03914 0.03172,-0.07086 0.07086,-0.07086 m 0,0 c 0.03914,0 0.07087,0.03172 0.07087,0.07086"
       style="fill:none;stroke:#000000;stroke-width:0.51024;stroke-linecap:round;stroke-linejoin:round;stroke-miterlimit:10;stroke-dasharray:none;stroke-opacity:1"
       id="path206" /><path
       d="m 83.86409,12.49982 c 0,0.09393 -0.07616,0.17009 -0.17009,0.17009 m 0,0 c -0.09393,0 -0.17007,-0.07616 -0.17007,-0.17009 m 0,0 c 0,-0.09394 0.07614,-0.17008 0.17007,-0.17008 m 0,0 c 0.09393,0 0.17009,0.07614 0.17009,0.17008"
       style="fill:none;stroke:#000000;stroke-width:0.51024;stroke-linecap:round;stroke-linejoin:round;stroke-miterlimit:10;stroke-dasharray:none;stroke-opacity:1"
       id="path208" /><path
       d="m 98.03731,12.49982 c 0,0.09393 -0.07614,0.17009 -0.17008,0.17009 m 0,0 c -0.09393,0 -0.17007,-0.07616 -0.17007,-0.17009 m 0,0 c 0,-0.09394 0.07614,-0.17008 0.17007,-0.17008 m 0,0 c 0.09394,0 0.17008,0.07614 0.17008,0.17008"
       style="fill:none;stroke:#000000;stroke-width:0.51024;stroke-linecap:round;stroke-linejoin:round;stroke-miterlimit:10;stroke-dasharray:none;stroke-opacity:1"
       id="path210" /><path
       d="m 71.23573,13.67619 c 0,0.03914 -0.03172,0.07088 -0.07086,0.07088 m 0,0 c -0.03914,0 -0.07086,-0.03174 -0.07086,-0.07088 m 0,0 c 0,-0.03914 0.03172,-0.07086 0.07086,-0.07086 m 0,0 c 0.03914,0 0.07086,0.03172 0.07086,0.07086"
       style="fill:none;stroke:#000000;stroke-width:0.51024;stroke-linecap:round;stroke-linejoin:round;stroke-miterlimit:10;stroke-dasharray:none;stroke-opacity:1"
       id="path212" /><path
       d="m 85.40897,13.67619 c 0,0.03914 -0.03173,0.07088 -0.07087,0.07088 m 0,0 c -0.03913,0 -0.07087,-0.03174 -0.07087,-0.07088 m 0,0 c 0,-0.03914 0.03174,-0.07086 0.07087,-0.07086 m 0,0 c 0.03914,0 0.07087,0.03172 0.07087,0.07086"
       style="fill:none;stroke:#000000;stroke-width:0.51024;stroke-linecap:round;stroke-linejoin:round;stroke-miterlimit:10;stroke-dasharray:none;stroke-opacity:1"
       id="path214" /><path
       d="m 99.5822,13.67619 c 0,0.03914 -0.03174,0.07088 -0.07088,0.07088 m 0,0 c -0.03914,0 -0.07086,-0.03174 -0.07086,-0.07088 m 0,0 c 0,-0.03914 0.03172,-0.07086 0.07086,-0.07086 m 0,0 c 0.03914,0 0.07088,0.03172 0.07088,0.07086"
       style="fill:none;stroke:#000000;stroke-width:0.51024;stroke-linecap:round;stroke-linejoin:round;stroke-miterlimit:10;stroke-dasharray:none;stroke-opacity:1"
       id="path216" /><path
       d="m 71.33495,13.67619 c 0,0.09394 -0.07615,0.17009 -0.17008,0.17009 m 0,0 c -0.09393,0 -0.17007,-0.07615 -0.17007,-0.17009 m 0,0 c 0,-0.09393 0.07614,-0.17007 0.17007,-0.17007 m 0,0 c 0.09393,0 0.17008,0.07614 0.17008,0.17007"
       style="fill:none;stroke:#000000;stroke-width:0.51024;stroke-linecap:round;stroke-linejoin:round;stroke-miterlimit:10;stroke-dasharray:none;stroke-opacity:1"
       id="path218" /><path
       d="m 85.50818,13.67619 c 0,0.09394 -0.07614,0.17009 -0.17008,0.17009 m 0,0 c -0.09393,0 -0.17009,-0.07615 -0.17009,-0.17009 m 0,0 c 0,-0.09393 0.07616,-0.17007 0.17009,-0.17007 m 0,0 c 0.09394,0 0.17008,0.07614 0.17008,0.17007"
       style="fill:none;stroke:#000000;stroke-width:0.51024;stroke-linecap:round;stroke-linejoin:round;stroke-miterlimit:10;stroke-dasharray:none;stroke-opacity:1"
       id="path220" /><path
       d="m 99.68141,13.67619 c 0,0.09394 -0.07615,0.17009 -0.17009,0.17009 m 0,0 c -0.09392,0 -0.17007,-0.07615 -0.17007,-0.17009 m 0,0 c 0,-0.09393 0.07615,-0.17007 0.17007,-0.17007 m 0,0 c 0.09394,0 0.17009,0.07614 0.17009,0.17007"
       style="fill:none;stroke:#000000;stroke-width:0.51024;stroke-linecap:round;stroke-linejoin:round;stroke-miterlimit:10;stroke-dasharray:none;stroke-opacity:1"
       id="path222" /><path
       d="m 72.83731,11.86203 c 0,0.03914 -0.03172,0.07086 -0.07086,0.07086 m 0,0 c -0.03914,0 -0.07086,-0.03172 -0.07086,-0.07086 m 0,0 c 0,-0.03914 0.03172,-0.07088 0.07086,-0.07088 m 0,0 c 0.03914,0 0.07086,0.03174 0.07086,0.07088"
       style="fill:none;stroke:#000000;stroke-width:0.51024;stroke-linecap:round;stroke-linejoin:round;stroke-miterlimit:10;stroke-dasharray:none;stroke-opacity:1"
       id="path224" /><path
       d="m 87.01054,11.86203 c 0,0.03914 -0.03172,0.07086 -0.07086,0.07086 m 0,0 c -0.03914,0 -0.07088,-0.03172 -0.07088,-0.07086 m 0,0 c 0,-0.03914 0.03174,-0.07088 0.07088,-0.07088 m 0,0 c 0.03914,0 0.07086,0.03174 0.07086,0.07088"
       style="fill:none;stroke:#000000;stroke-width:0.51024;stroke-linecap:round;stroke-linejoin:round;stroke-miterlimit:10;stroke-dasharray:none;stroke-opacity:1"
       id="path226" /><path
       d="m 101.18378,11.86203 c 0,0.03914 -0.0317,0.07086 -0.0709,0.07086 m 0,0 c -0.0391,0 -0.0709,-0.03172 -0.0709,-0.07086 m 0,0 c 0,-0.03914 0.0317,-0.07088 0.0709,-0.07088 m 0,0 c 0.0391,0 0.0709,0.03174 0.0709,0.07088"
       style="fill:none;stroke:#000000;stroke-width:0.51024;stroke-linecap:round;stroke-linejoin:round;stroke-miterlimit:10;stroke-dasharray:none;stroke-opacity:1"
       id="path228" /><path
       d="m 72.93652,11.86203 c 0,0.09393 -0.07614,0.17007 -0.17007,0.17007 m 0,0 c -0.09393,0 -0.17008,-0.07614 -0.17008,-0.17007 m 0,0 c 0,-0.09393 0.07615,-0.17009 0.17008,-0.17009 m 0,0 c 0.09393,0 0.17007,0.07616 0.17007,0.17009"
       style="fill:none;stroke:#000000;stroke-width:0.51024;stroke-linecap:round;stroke-linejoin:round;stroke-miterlimit:10;stroke-dasharray:none;stroke-opacity:1"
       id="path230" /><path
       d="m 87.10976,11.86203 c 0,0.09393 -0.07616,0.17007 -0.17008,0.17007 m 0,0 c -0.09393,0 -0.17009,-0.07614 -0.17009,-0.17007 m 0,0 c 0,-0.09393 0.07616,-0.17009 0.17009,-0.17009 m 0,0 c 0.09392,0 0.17008,0.07616 0.17008,0.17009"
       style="fill:none;stroke:#000000;stroke-width:0.51024;stroke-linecap:round;stroke-linejoin:round;stroke-miterlimit:10;stroke-dasharray:none;stroke-opacity:1"
       id="path232" /><path
       d="m 101.28299,11.86203 c 0,0.09393 -0.0762,0.17007 -0.17009,0.17007 m 0,0 c -0.0939,0 -0.17007,-0.07614 -0.17007,-0.17007 m 0,0 c 0,-0.09393 0.0761,-0.17009 0.17007,-0.17009 m 0,0 c 0.0939,0 0.17009,0.07616 0.17009,0.17009"
       style="fill:none;stroke:#000000;stroke-width:0.51024;stroke-linecap:round;stroke-linejoin:round;stroke-miterlimit:10;stroke-dasharray:none;stroke-opacity:1"
       id="path234" /><path
       d="m 77.37274,6.81636 c 0,0.03914 -0.03172,0.07086 -0.07086,0.07086 m 0,0 c -0.03914,0 -0.07086,-0.03172 -0.07086,-0.07086 m 0,0 c 0,-0.03914 0.03172,-0.07088 0.07086,-0.07088 m 0,0 c 0.03914,0 0.07086,0.03174 0.07086,0.07088"
       style="fill:none;stroke:#000000;stroke-width:0.51024;stroke-linecap:round;stroke-linejoin:round;stroke-miterlimit:10;stroke-dasharray:none;stroke-opacity:1"
       id="path236" /><path
       d="m 91.54597,6.81636 c 0,0.03914 -0.03172,0.07086 -0.07086,0.07086 m 0,0 c -0.03914,0 -0.07087,-0.03172 -0.07087,-0.07086 m 0,0 c 0,-0.03914 0.03173,-0.07088 0.07087,-0.07088 m 0,0 c 0.03914,0 0.07086,0.03174 0.07086,0.07088"
       style="fill:none;stroke:#000000;stroke-width:0.51024;stroke-linecap:round;stroke-linejoin:round;stroke-miterlimit:10;stroke-dasharray:none;stroke-opacity:1"
       id="path238" /><path
       d="m 105.71921,6.81636 c 0,0.03914 -0.0317,0.07086 -0.0709,0.07086 m 0,0 c -0.0391,0 -0.0709,-0.03172 -0.0709,-0.07086 m 0,0 c 0,-0.03914 0.0317,-0.07088 0.0709,-0.07088 m 0,0 c 0.0391,0 0.0709,0.03174 0.0709,0.07088"
       style="fill:none;stroke:#000000;stroke-width:0.51024;stroke-linecap:round;stroke-linejoin:round;stroke-miterlimit:10;stroke-dasharray:none;stroke-opacity:1"
       id="path240" /><path
       d="m 77.47195,6.81636 c 0,0.09393 -0.07614,0.17007 -0.17007,0.17007 m 0,0 c -0.09393,0 -0.17007,-0.07614 -0.17007,-0.17007 m 0,0 c 0,-0.09393 0.07614,-0.17009 0.17007,-0.17009 m 0,0 c 0.09393,0 0.17007,0.07616 0.17007,0.17009"
       style="fill:none;stroke:#000000;stroke-width:0.51024;stroke-linecap:round;stroke-linejoin:round;stroke-miterlimit:10;stroke-dasharray:none;stroke-opacity:1"
       id="path242" /><path
       d="m 91.64519,6.81636 c 0,0.09393 -0.07614,0.17007 -0.17008,0.17007 m 0,0 c -0.09393,0 -0.17009,-0.07614 -0.17009,-0.17007 m 0,0 c 0,-0.09393 0.07616,-0.17009 0.17009,-0.17009 m 0,0 c 0.09394,0 0.17008,0.07616 0.17008,0.17009"
       style="fill:none;stroke:#000000;stroke-width:0.51024;stroke-linecap:round;stroke-linejoin:round;stroke-miterlimit:10;stroke-dasharray:none;stroke-opacity:1"
       id="path244" /><path
       d="m 105.81842,6.81636 c 0,0.09393 -0.0762,0.17007 -0.17009,0.17007 m 0,0 c -0.0939,0 -0.17007,-0.07614 -0.17007,-0.17007 m 0,0 c 0,-0.09393 0.0761,-0.17009 0.17007,-0.17009 m 0,0 c 0.0939,0 0.17009,0.07616 0.17009,0.17009"
       style="fill:none;stroke:#000000;stroke-width:0.51024;stroke-linecap:round;stroke-linejoin:round;stroke-miterlimit:10;stroke-dasharray:none;stroke-opacity:1"
       id="path246" /><path
       d="m 78.96014,9.48093 c 0,0.03914 -0.03172,0.07086 -0.07086,0.07086 m 0,0 c -0.03914,0 -0.07086,-0.03172 -0.07086,-0.07086 m 0,0 c 0,-0.03914 0.03172,-0.07088 0.07086,-0.07088 m 0,0 c 0.03914,0 0.07086,0.03174 0.07086,0.07088"
       style="fill:none;stroke:#000000;stroke-width:0.51024;stroke-linecap:round;stroke-linejoin:round;stroke-miterlimit:10;stroke-dasharray:none;stroke-opacity:1"
       id="path248" /><path
       d="m 93.13338,9.48093 c 0,0.03914 -0.03173,0.07086 -0.07086,0.07086 m 0,0 c -0.03914,0 -0.07088,-0.03172 -0.07088,-0.07086 m 0,0 c 0,-0.03914 0.03174,-0.07088 0.07088,-0.07088 m 0,0 c 0.03913,0 0.07086,0.03174 0.07086,0.07088"
       style="fill:none;stroke:#000000;stroke-width:0.51024;stroke-linecap:round;stroke-linejoin:round;stroke-miterlimit:10;stroke-dasharray:none;stroke-opacity:1"
       id="path250" /><path
       d="m 107.30661,9.48093 c 0,0.03914 -0.0317,0.07086 -0.0709,0.07086 m 0,0 c -0.0391,0 -0.0709,-0.03172 -0.0709,-0.07086 m 0,0 c 0,-0.03914 0.0317,-0.07088 0.0709,-0.07088 m 0,0 c 0.0391,0 0.0709,0.03174 0.0709,0.07088"
       style="fill:none;stroke:#000000;stroke-width:0.51024;stroke-linecap:round;stroke-linejoin:round;stroke-miterlimit:10;stroke-dasharray:none;stroke-opacity:1"
       id="path252" /><path
       d="m 79.05936,9.48093 c 0,0.09393 -0.07614,0.17007 -0.17008,0.17007 m 0,0 c -0.09393,0 -0.17007,-0.07614 -0.17007,-0.17007 m 0,0 c 0,-0.09394 0.07614,-0.17009 0.17007,-0.17009 m 0,0 c 0.09394,0 0.17008,0.07615 0.17008,0.17009"
       style="fill:none;stroke:#000000;stroke-width:0.51024;stroke-linecap:round;stroke-linejoin:round;stroke-miterlimit:10;stroke-dasharray:none;stroke-opacity:1"
       id="path254" /><path
       d="m 93.23259,9.48093 c 0,0.09393 -0.07614,0.17007 -0.17007,0.17007 m 0,0 c -0.09394,0 -0.17009,-0.07614 -0.17009,-0.17007 m 0,0 c 0,-0.09394 0.07615,-0.17009 0.17009,-0.17009 m 0,0 c 0.09393,0 0.17007,0.07615 0.17007,0.17009"
       style="fill:none;stroke:#000000;stroke-width:0.51024;stroke-linecap:round;stroke-linejoin:round;stroke-miterlimit:10;stroke-dasharray:none;stroke-opacity:1"
       id="path256" /><path
       d="m 107.40582,9.48093 c 0,0.09393 -0.0762,0.17007 -0.17009,0.17007 m 0,0 c -0.0939,0 -0.17007,-0.07614 -0.17007,-0.17007 m 0,0 c 0,-0.09394 0.0761,-0.17009 0.17007,-0.17009 m 0,0 c 0.0939,0 0.17009,0.07615 0.17009,0.17009"
       style="fill:none;stroke:#000000;stroke-width:0.51024;stroke-linecap:round;stroke-linejoin:round;stroke-miterlimit:10;stroke-dasharray:none;stroke-opacity:1"
       id="path258" /><path
       d="m 80.88771,7.43997 c 0,0.03914 -0.03174,0.07088 -0.07088,0.07088 m 0,0 c -0.03912,0 -0.07086,-0.03174 -0.07086,-0.07088 m 0,0 c 0,-0.03914 0.03174,-0.07086 0.07086,-0.07086 m 0,0 c 0.03914,0 0.07088,0.03172 0.07088,0.07086"
       style="fill:none;stroke:#000000;stroke-width:0.51024;stroke-linecap:round;stroke-linejoin:round;stroke-miterlimit:10;stroke-dasharray:none;stroke-opacity:1"
       id="path260" /><path
       d="m 95.06093,7.43997 c 0,0.03914 -0.03172,0.07088 -0.07086,0.07088 m 0,0 c -0.03914,0 -0.07087,-0.03174 -0.07087,-0.07088 m 0,0 c 0,-0.03914 0.03173,-0.07086 0.07087,-0.07086 m 0,0 c 0.03914,0 0.07086,0.03172 0.07086,0.07086"
       style="fill:none;stroke:#000000;stroke-width:0.51024;stroke-linecap:round;stroke-linejoin:round;stroke-miterlimit:10;stroke-dasharray:none;stroke-opacity:1"
       id="path262" /><path
       d="m 80.98692,7.43997 c 0,0.09394 -0.07615,0.17009 -0.17009,0.17009 m 0,0 c -0.09391,0 -0.17007,-0.07615 -0.17007,-0.17009 m 0,0 c 0,-0.09393 0.07616,-0.17007 0.17007,-0.17007 m 0,0 c 0.09394,0 0.17009,0.07614 0.17009,0.17007"
       style="fill:none;stroke:#000000;stroke-width:0.51024;stroke-linecap:round;stroke-linejoin:round;stroke-miterlimit:10;stroke-dasharray:none;stroke-opacity:1"
       id="path264" /><path
       d="m 95.16014,7.43997 c 0,0.09394 -0.07614,0.17009 -0.17007,0.17009 m 0,0 c -0.09394,0 -0.17008,-0.07615 -0.17008,-0.17009 m 0,0 c 0,-0.09393 0.07614,-0.17007 0.17008,-0.17007 m 0,0 c 0.09393,0 0.17007,0.07614 0.17007,0.17007"
       style="fill:none;stroke:#000000;stroke-width:0.51024;stroke-linecap:round;stroke-linejoin:round;stroke-miterlimit:10;stroke-dasharray:none;stroke-opacity:1"
       id="path266" /><path
       d="m 82.5885,8.94234 c 0,0.03914 -0.03174,0.07086 -0.07088,0.07086 m 0,0 c -0.03913,0 -0.07086,-0.03172 -0.07086,-0.07086 m 0,0 c 0,-0.03914 0.03173,-0.07086 0.07086,-0.07086 m 0,0 c 0.03914,0 0.07088,0.03172 0.07088,0.07086"
       style="fill:none;stroke:#000000;stroke-width:0.51024;stroke-linecap:round;stroke-linejoin:round;stroke-miterlimit:10;stroke-dasharray:none;stroke-opacity:1"
       id="path268" /><path
       d="m 96.76172,8.94234 c 0,0.03914 -0.03172,0.07086 -0.07086,0.07086 m 0,0 C 96.65172,9.0132 96.62,8.98148 96.62,8.94234 m 0,0 c 0,-0.03914 0.03172,-0.07086 0.07086,-0.07086 m 0,0 c 0.03914,0 0.07086,0.03172 0.07086,0.07086"
       style="fill:none;stroke:#000000;stroke-width:0.51024;stroke-linecap:round;stroke-linejoin:round;stroke-miterlimit:10;stroke-dasharray:none;stroke-opacity:1"
       id="path270" /><path
       d="m 82.68771,8.94234 c 0,0.09393 -0.07615,0.17007 -0.17009,0.17007 m 0,0 c -0.09393,0 -0.17007,-0.07614 -0.17007,-0.17007 m 0,0 c 0,-0.09394 0.07614,-0.17008 0.17007,-0.17008 m 0,0 c 0.09394,0 0.17009,0.07614 0.17009,0.17008"
       style="fill:none;stroke:#000000;stroke-width:0.51024;stroke-linecap:round;stroke-linejoin:round;stroke-miterlimit:10;stroke-dasharray:none;stroke-opacity:1"
       id="path272" /><path
       d="m 96.86093,8.94234 c 0,0.09393 -0.07614,0.17007 -0.17007,0.17007 m 0,0 c -0.09394,0 -0.17008,-0.07614 -0.17008,-0.17007 m 0,0 c 0,-0.09394 0.07614,-0.17008 0.17008,-0.17008 m 0,0 c 0.09393,0 0.17007,0.07614 0.17007,0.17008"
       style="fill:none;stroke:#000000;stroke-width:0.51024;stroke-linecap:round;stroke-linejoin:round;stroke-miterlimit:10;stroke-dasharray:none;stroke-opacity:1"
       id="path274" /><path
       d="m 70.28613,6.78801 c 0,0.03914 -0.03172,0.07086 -0.07086,0.07086 m 0,0 c -5.6e-4,0 -0.0011,0 -0.0017,-10e-6"
       style="fill:none;stroke:#000000;stroke-width:0.51024;stroke-linecap:round;stroke-linejoin:round;stroke-miterlimit:10;stroke-dasharray:none;stroke-opacity:1"
       id="path276" /><path
       d="m 70.21356,6.71716 c 0.03914,-9.3e-4 0.07161,0.03002 0.07256,0.06916 m 0,0 c 1e-5,5.6e-4 1e-5,0.00113 1e-5,0.00169"
       style="fill:none;stroke:#000000;stroke-width:0.51024;stroke-linecap:round;stroke-linejoin:round;stroke-miterlimit:10;stroke-dasharray:none;stroke-opacity:1"
       id="path278" /><path
       d="m 84.45937,6.78801 c 0,0.03914 -0.03174,0.07086 -0.07088,0.07086 m 0,0 c -0.03914,0 -0.07086,-0.03172 -0.07086,-0.07086 m 0,0 c 0,-0.03914 0.03172,-0.07086 0.07086,-0.07086 m 0,0 c 0.03914,0 0.07088,0.03172 0.07088,0.07086"
       style="fill:none;stroke:#000000;stroke-width:0.51024;stroke-linecap:round;stroke-linejoin:round;stroke-miterlimit:10;stroke-dasharray:none;stroke-opacity:1"
       id="path280" /><path
       d="m 98.63258,6.78801 c 0,0.03914 -0.03172,0.07086 -0.07086,0.07086 m 0,0 c -0.03914,0 -0.07086,-0.03172 -0.07086,-0.07086 m 0,0 c 0,-0.03914 0.03172,-0.07086 0.07086,-0.07086 m 0,0 c 0.03914,0 0.07086,0.03172 0.07086,0.07086"
       style="fill:none;stroke:#000000;stroke-width:0.51024;stroke-linecap:round;stroke-linejoin:round;stroke-miterlimit:10;stroke-dasharray:none;stroke-opacity:1"
       id="path282" /><path
       d="m 70.38535,6.78801 c 0,0.09393 -0.07615,0.17007 -0.17008,0.17007 m 0,0 c -5.6e-4,0 -0.0011,0 -0.0017,0"
       style="fill:none;stroke:#000000;stroke-width:0.51024;stroke-linecap:round;stroke-linejoin:round;stroke-miterlimit:10;stroke-dasharray:none;stroke-opacity:1"
       id="path284" /><path
       d="M 70.21356,6.61794 C 70.3075,6.617 70.3844,6.69238 70.38533,6.78632 m 0,0 c 2e-5,5.6e-4 2e-5,0.00113 2e-5,0.00169"
       style="fill:none;stroke:#000000;stroke-width:0.51024;stroke-linecap:round;stroke-linejoin:round;stroke-miterlimit:10;stroke-dasharray:none;stroke-opacity:1"
       id="path286" /><path
       d="m 84.55858,6.78801 c 0,0.09393 -0.07616,0.17007 -0.17009,0.17007 m 0,0 c -0.09393,0 -0.17008,-0.07614 -0.17008,-0.17007 m 0,0 c 0,-0.09393 0.07615,-0.17007 0.17008,-0.17007 m 0,0 c 0.09393,0 0.17009,0.07614 0.17009,0.17007"
       style="fill:none;stroke:#000000;stroke-width:0.51024;stroke-linecap:round;stroke-linejoin:round;stroke-miterlimit:10;stroke-dasharray:none;stroke-opacity:1"
       id="path288" /><path
       d="m 98.7318,6.78801 c 0,0.09393 -0.07615,0.17007 -0.17008,0.17007 m 0,0 c -0.09393,0 -0.17007,-0.07614 -0.17007,-0.17007 m 0,0 c 0,-0.09393 0.07614,-0.17007 0.17007,-0.17007 m 0,0 c 0.09393,0 0.17008,0.07614 0.17008,0.17007"
       style="fill:none;stroke:#000000;stroke-width:0.51024;stroke-linecap:round;stroke-linejoin:round;stroke-miterlimit:10;stroke-dasharray:none;stroke-opacity:1"
       id="path290" /><path
       d="m 73.34755,7.2699 c 0,0.03914 -0.03172,0.07086 -0.07086,0.07086 m 0,0 c -0.03914,0 -0.07088,-0.03172 -0.07088,-0.07086 m 0,0 c 0,-0.03914 0.03174,-0.07086 0.07088,-0.07086 m 0,0 c 0.03914,0 0.07086,0.03172 0.07086,0.07086"
       style="fill:none;stroke:#000000;stroke-width:0.51024;stroke-linecap:round;stroke-linejoin:round;stroke-miterlimit:10;stroke-dasharray:none;stroke-opacity:1"
       id="path292" /><path
       d="m 87.52078,7.2699 c 0,0.03914 -0.03174,0.07086 -0.07087,0.07086 m 0,0 c -0.03914,0 -0.07087,-0.03172 -0.07087,-0.07086 m 0,0 c 0,-0.03914 0.03173,-0.07086 0.07087,-0.07086 m 0,0 c 0.03913,0 0.07087,0.03172 0.07087,0.07086"
       style="fill:none;stroke:#000000;stroke-width:0.51024;stroke-linecap:round;stroke-linejoin:round;stroke-miterlimit:10;stroke-dasharray:none;stroke-opacity:1"
       id="path294" /><path
       d="m 101.694,7.2699 c 0,0.03914 -0.0317,0.07086 -0.0709,0.07086 m 0,0 c -0.0391,0 -0.0709,-0.03172 -0.0709,-0.07086 m 0,0 c 0,-0.03914 0.0317,-0.07086 0.0709,-0.07086 m 0,0 c 0.0391,0 0.0709,0.03172 0.0709,0.07086"
       style="fill:none;stroke:#000000;stroke-width:0.51024;stroke-linecap:round;stroke-linejoin:round;stroke-miterlimit:10;stroke-dasharray:none;stroke-opacity:1"
       id="path296" /><path
       d="m 73.44676,7.2699 c 0,0.09393 -0.07614,0.17007 -0.17007,0.17007 m 0,0 c -0.09394,0 -0.17009,-0.07614 -0.17009,-0.17007 m 0,0 c 0,-0.09394 0.07615,-0.17008 0.17009,-0.17008 m 0,0 c 0.09393,0 0.17007,0.07614 0.17007,0.17008"
       style="fill:none;stroke:#000000;stroke-width:0.51024;stroke-linecap:round;stroke-linejoin:round;stroke-miterlimit:10;stroke-dasharray:none;stroke-opacity:1"
       id="path298" /><path
       d="m 87.62,7.2699 c 0,0.09393 -0.07616,0.17007 -0.17009,0.17007 m 0,0 c -0.09394,0 -0.17008,-0.07614 -0.17008,-0.17007 m 0,0 c 0,-0.09394 0.07614,-0.17008 0.17008,-0.17008 m 0,0 c 0.09393,0 0.17009,0.07614 0.17009,0.17008"
       style="fill:none;stroke:#000000;stroke-width:0.51024;stroke-linecap:round;stroke-linejoin:round;stroke-miterlimit:10;stroke-dasharray:none;stroke-opacity:1"
       id="path300" /><path
       d="m 101.79321,7.2699 c 0,0.09393 -0.0761,0.17007 -0.17007,0.17007 m 0,0 c -0.0939,0 -0.17008,-0.07614 -0.17008,-0.17007 m 0,0 c 0,-0.09394 0.0762,-0.17008 0.17008,-0.17008 m 0,0 c 0.0939,0 0.17007,0.07614 0.17007,0.17008"
       style="fill:none;stroke:#000000;stroke-width:0.51024;stroke-linecap:round;stroke-linejoin:round;stroke-miterlimit:10;stroke-dasharray:none;stroke-opacity:1"
       id="path302" /><path
       d="m 71.32079,9.8636 c 0,0.03914 -0.03174,0.07086 -0.07088,0.07086 m 0,0 c -0.03914,0 -0.07086,-0.03172 -0.07086,-0.07086 m 0,0 c 0,-0.03914 0.03172,-0.07086 0.07086,-0.07086 m 0,0 c 0.03914,0 0.07088,0.03172 0.07088,0.07086"
       style="fill:none;stroke:#000000;stroke-width:0.51024;stroke-linecap:round;stroke-linejoin:round;stroke-miterlimit:10;stroke-dasharray:none;stroke-opacity:1"
       id="path304" /><path
       d="m 85.494,9.8636 c 0,0.03914 -0.03172,0.07086 -0.07086,0.07086 m 0,0 c -0.03914,0 -0.07086,-0.03172 -0.07086,-0.07086 m 0,0 c 0,-0.03914 0.03172,-0.07086 0.07086,-0.07086 m 0,0 c 0.03914,0 0.07086,0.03172 0.07086,0.07086"
       style="fill:none;stroke:#000000;stroke-width:0.51024;stroke-linecap:round;stroke-linejoin:round;stroke-miterlimit:10;stroke-dasharray:none;stroke-opacity:1"
       id="path306" /><path
       d="m 99.66724,9.8636 c 0,0.03914 -0.03173,0.07086 -0.07087,0.07086 m 0,0 c -0.03913,0 -0.07087,-0.03172 -0.07087,-0.07086 m 0,0 c 0,-0.03914 0.03174,-0.07086 0.07087,-0.07086 m 0,0 c 0.03914,0 0.07087,0.03172 0.07087,0.07086"
       style="fill:none;stroke:#000000;stroke-width:0.51024;stroke-linecap:round;stroke-linejoin:round;stroke-miterlimit:10;stroke-dasharray:none;stroke-opacity:1"
       id="path308" /><path
       d="m 71.42,9.8636 c 0,0.09393 -0.07616,0.17008 -0.17009,0.17008 m 0,0 c -0.09393,0 -0.17008,-0.07615 -0.17008,-0.17008 m 0,0 c 0,-0.09393 0.07615,-0.17007 0.17008,-0.17007 m 0,0 c 0.09393,0 0.17009,0.07614 0.17009,0.17007"
       style="fill:none;stroke:#000000;stroke-width:0.51024;stroke-linecap:round;stroke-linejoin:round;stroke-miterlimit:10;stroke-dasharray:none;stroke-opacity:1"
       id="path310" /><path
       d="m 85.59322,9.8636 c 0,0.09393 -0.07615,0.17008 -0.17008,0.17008 m 0,0 c -0.09393,0 -0.17007,-0.07615 -0.17007,-0.17008 m 0,0 c 0,-0.09393 0.07614,-0.17007 0.17007,-0.17007 m 0,0 c 0.09393,0 0.17008,0.07614 0.17008,0.17007"
       style="fill:none;stroke:#000000;stroke-width:0.51024;stroke-linecap:round;stroke-linejoin:round;stroke-miterlimit:10;stroke-dasharray:none;stroke-opacity:1"
       id="path312" /><path
       d="m 99.76645,9.8636 c 0,0.09393 -0.07616,0.17008 -0.17008,0.17008 m 0,0 c -0.09393,0 -0.17009,-0.07615 -0.17009,-0.17008 m 0,0 c 0,-0.09393 0.07616,-0.17007 0.17009,-0.17007 m 0,0 c 0.09392,0 0.17008,0.07614 0.17008,0.17007"
       style="fill:none;stroke:#000000;stroke-width:0.51024;stroke-linecap:round;stroke-linejoin:round;stroke-miterlimit:10;stroke-dasharray:none;stroke-opacity:1"
       id="path314" /><path
       d="m 279.12695,5.79245 h 38.2677 v 8.50394 h -38.2677 V 5.79245"
       style="fill:none;stroke:#000000;stroke-width:0.85039;stroke-linecap:round;stroke-linejoin:round;stroke-miterlimit:10;stroke-dasharray:none;stroke-opacity:1"
       id="path316" /><path
       d="M 298.2608,14.29639 V 201.383"
       style="fill:none;stroke:#000000;stroke-width:0.28346;stroke-linecap:round;stroke-linejoin:round;stroke-miterlimit:10;stroke-dasharray:none;stroke-opacity:1"
       id="path318" /><path
       d="m 269.91434,192.87906 v 8.50394 m 85.03936,-93.54331 v -8.50394 m -56.6929,-85.03936 -0.14743,5.6511 0.10996,5.51664 0.62478,5.24774 1.39695,4.84436 1.83731,3.55514 2.42788,3.2468 2.9336,2.98289 3.35434,2.76349 7.6315,5.0467 8.29587,4.70281 8.28106,4.7148 7.58713,5.0826 3.32111,2.79043 2.89291,3.01581 2.37982,3.28569 1.78186,3.60002 1.22449,4.36533 0.60013,4.69341 0.1839,4.91212 -0.0243,5.02148 m -85.03936,93.54331 -0.12525,-5.72305 0.12326,-5.55985 0.62033,-5.23334 1.36591,-4.74359 1.13074,-2.31579 1.40466,-2.1359 1.66025,-1.96808 1.89749,-1.81231 4.43329,-3.20578 5.16214,-2.72779 5.74426,-2.34637 6.1796,-2.06165 6.46823,-1.8735 6.61011,-1.78205 6.60525,-1.78717 6.45367,-1.88891 6.15534,-2.08731 5.71027,-2.38236 5.11843,-2.77401 4.37992,-3.26227 1.86715,-1.84445 1.62748,-2.00275 1.36947,-2.17316 1.09311,-2.35559 1.19757,-4.28499 0.59629,-4.68193 0.1954,-4.94655 -0.005,-5.07887"
       style="fill:none;stroke:#000000;stroke-width:0.85039;stroke-linecap:round;stroke-linejoin:round;stroke-miterlimit:10;stroke-dasharray:none;stroke-opacity:1"
       id="path320" /><path
       d="m 70.21356,5.79245 h 38.26772 v 8.50394 H 70.21356 V 5.79245 m 19.13387,8.50394 0.05449,5.45021 0.23112,5.3961 0.58438,5.2879 1.11426,5.12563 2.17865,5.86061 2.93294,5.62996 3.43417,5.47717 3.68233,5.40225 3.67744,5.40522 3.4195,5.48602 2.90849,5.6447 2.14443,5.88125 0.9953,4.59377 0.56738,4.72603 0.2821,4.81422 0.13947,4.85832 m 28.34646,93.54331 -0.0545,-5.4502 -0.23111,-5.39611 -0.58438,-5.28791 -1.11426,-5.12561 -2.17865,-5.86062 -2.93295,-5.62995 -3.43414,-5.47717 -3.68235,-5.40225 -3.67743,-5.40522 -3.41951,-5.48602 -2.90849,-5.64471 -2.14444,-5.88126 -0.9953,-4.59375 -0.56738,-4.72604 -0.28211,-4.81423 -0.13946,-4.85832 v -8.50394 m 28.34646,93.54331 v 8.50394"
       style="fill:none;stroke:#000000;stroke-width:0.85039;stroke-linecap:round;stroke-linejoin:round;stroke-miterlimit:10;stroke-dasharray:none;stroke-opacity:1"
       id="path322" /><path
       d="M 89.34743,14.29639 V 201.383"
       style="fill:none;stroke:#000000;stroke-width:0.28346;stroke-linecap:round;stroke-linejoin:round;stroke-miterlimit:10;stroke-dasharray:none;stroke-opacity:1"
       id="path324" /><g
       id="g326"><g
         id="g328"
         clip-path="url(#clipPath332)"><text
           transform="matrix(1,0,0,-1,313.81259,116.1116)"
           style="font-variant:normal;font-weight:normal;font-stretch:normal;font-size:11.1008px;font-family:'Palatino Linotype';-inkscape-font-specification:PalatinoLinotype-Roman;writing-mode:lr-tb;fill:#000000;fill-opacity:1;fill-rule:nonzero;stroke:none"
           id="text336"><tspan
             x="0"
             y="0"
             id="tspan334"></tspan></text></g></g><g
       id="g338"><g
         id="g340"
         clip-path="url(#clipPath344)"><text
           transform="matrix(1,0,0,-1,321.82902,111.56436)"
           style="font-variant:normal;font-weight:normal;font-stretch:normal;font-size:6.66046px;font-family:'Palatino Linotype';-inkscape-font-specification:PalatinoLinotype-Roman;writing-mode:lr-tb;fill:#000000;fill-opacity:1;fill-rule:nonzero;stroke:none"
           id="text348"><tspan
             x="0 3.33023 6.66046"
             y="0"
             id="tspan346">12 </tspan></text></g></g><g
       id="g350"><g
         id="g352"
         clip-path="url(#clipPath356)"><text
           transform="matrix(1,0,0,-1,330.32089,116.1116)"
           style="font-variant:normal;font-weight:normal;font-stretch:normal;font-size:11.1008px;font-family:'Palatino Linotype';-inkscape-font-specification:PalatinoLinotype-Roman;writing-mode:lr-tb;fill:#000000;fill-opacity:1;fill-rule:nonzero;stroke:none"
           id="text360"><tspan
             x="0 5.550385 8.3255777"
             y="0"
             id="tspan358">= 1</tspan></text></g></g><g
       id="g362"><g
         id="g364"
         clip-path="url(#clipPath368)"><text
           transform="matrix(1,0,0,-1,303.0797,210.56187)"
           style="font-variant:normal;font-weight:normal;font-stretch:normal;font-size:11.1008px;font-family:'Palatino Linotype';-inkscape-font-specification:PalatinoLinotype-Roman;writing-mode:lr-tb;fill:#000000;fill-opacity:1;fill-rule:nonzero;stroke:none"
           id="text372"><tspan
             x="0"
             y="0"
             id="tspan370"></tspan></text></g></g><g
       id="g374"><g
         id="g376"
         clip-path="url(#clipPath380)"><text
           transform="matrix(1,0,0,-1,311.09611,206.01463)"
           style="font-variant:normal;font-weight:normal;font-stretch:normal;font-size:6.66046px;font-family:'Palatino Linotype';-inkscape-font-specification:PalatinoLinotype-Roman;writing-mode:lr-tb;fill:#000000;fill-opacity:1;fill-rule:nonzero;stroke:none"
           id="text384"><tspan
             x="0 3.33023 6.66046"
             y="0"
             id="tspan382">22 </tspan></text></g></g><g
       id="g386"><g
         id="g388"
         clip-path="url(#clipPath392)"><text
           transform="matrix(1,0,0,-1,319.588,210.56187)"
           style="font-variant:normal;font-weight:normal;font-stretch:normal;font-size:11.1008px;font-family:'Palatino Linotype';-inkscape-font-specification:PalatinoLinotype-Roman;writing-mode:lr-tb;fill:#000000;fill-opacity:1;fill-rule:nonzero;stroke:none"
           id="text396"><tspan
             x="0 5.550385 8.3255777 12.022134 17.572519 20.347712 25.898096"
             y="0"
             id="tspan394">= -0.62</tspan></text></g></g><g
       id="g398"><g
         id="g400"
         clip-path="url(#clipPath404)"><text
           transform="matrix(1,0,0,-1,134.13483,139.0699)"
           style="font-variant:normal;font-weight:normal;font-stretch:normal;font-size:11.1008px;font-family:'Palatino Linotype';-inkscape-font-specification:PalatinoLinotype-Roman;writing-mode:lr-tb;fill:#000000;fill-opacity:1;fill-rule:nonzero;stroke:none"
           id="text408"><tspan
             x="0"
             y="0"
             id="tspan406"></tspan></text></g></g><g
       id="g410"><g
         id="g412"
         clip-path="url(#clipPath416)"><text
           transform="matrix(1,0,0,-1,142.15125,134.52267)"
           style="font-variant:normal;font-weight:normal;font-stretch:normal;font-size:6.66046px;font-family:'Palatino Linotype';-inkscape-font-specification:PalatinoLinotype-Roman;writing-mode:lr-tb;fill:#000000;fill-opacity:1;fill-rule:nonzero;stroke:none"
           id="text420"><tspan
             x="0 3.33023 6.66046"
             y="0"
             id="tspan418">11 </tspan></text></g></g><g
       id="g422"><g
         id="g424"
         clip-path="url(#clipPath428)"><text
           transform="matrix(1,0,0,-1,150.64311,139.0699)"
           style="font-variant:normal;font-weight:normal;font-stretch:normal;font-size:11.1008px;font-family:'Palatino Linotype';-inkscape-font-specification:PalatinoLinotype-Roman;writing-mode:lr-tb;fill:#000000;fill-opacity:1;fill-rule:nonzero;stroke:none"
           id="text432"><tspan
             x="0 5.550385 8.3255777 13.875962 16.651155 22.20154"
             y="0"
             id="tspan430">= 0.62</tspan></text></g></g><g
       id="g434"><g
         id="g436"
         clip-path="url(#clipPath440)"><text
           transform="matrix(1,0,0,-1,150.85923,210.56187)"
           style="font-variant:normal;font-weight:normal;font-stretch:normal;font-size:11.1008px;font-family:'Palatino Linotype';-inkscape-font-specification:PalatinoLinotype-Roman;writing-mode:lr-tb;fill:#000000;fill-opacity:1;fill-rule:nonzero;stroke:none"
           id="text444"><tspan
             x="0"
             y="0"
             id="tspan442"></tspan></text></g></g><g
       id="g446"><g
         id="g448"
         clip-path="url(#clipPath452)"><text
           transform="matrix(1,0,0,-1,158.87565,206.01463)"
           style="font-variant:normal;font-weight:normal;font-stretch:normal;font-size:6.66046px;font-family:'Palatino Linotype';-inkscape-font-specification:PalatinoLinotype-Roman;writing-mode:lr-tb;fill:#000000;fill-opacity:1;fill-rule:nonzero;stroke:none"
           id="text456"><tspan
             x="0 3.33023 6.66046"
             y="0"
             id="tspan454">21 </tspan></text></g></g><g
       id="g458"><g
         id="g460"
         clip-path="url(#clipPath464)"><text
           transform="matrix(1,0,0,-1,167.36753,210.56187)"
           style="font-variant:normal;font-weight:normal;font-stretch:normal;font-size:11.1008px;font-family:'Palatino Linotype';-inkscape-font-specification:PalatinoLinotype-Roman;writing-mode:lr-tb;fill:#000000;fill-opacity:1;fill-rule:nonzero;stroke:none"
           id="text468"><tspan
             x="0 5.550385 8.3255777"
             y="0"
             id="tspan466">= 1</tspan></text></g></g><path
       d="m 298.2608,110.43039 2.97638,0.4252 v -0.85039 l -2.97638,0.42519 m 56.6929,0 -2.97637,0.4252 v -0.85039 l 2.97637,0.42519"
       style="fill:none;stroke:#000000;stroke-width:0.56693;stroke-linecap:round;stroke-linejoin:round;stroke-miterlimit:10;stroke-dasharray:none;stroke-opacity:1"
       id="path470" /><path
       d="m 298.2608,110.43039 v 2.12599 m 0,-2.12599 v -2.12598 m 56.6929,2.12598 v 2.12599 m 0,-2.12599 v -2.12598 m -56.6929,2.12598 v -2.27452 m 56.6929,2.27452 v 3.0786 m -56.6929,-3.0786 v 0 m 56.6929,0 v 0 m -56.6929,0 h 56.6929"
       style="fill:none;stroke:#000000;stroke-width:0.28346;stroke-linecap:round;stroke-linejoin:round;stroke-miterlimit:10;stroke-dasharray:none;stroke-opacity:1"
       id="path472" /><path
       d="m 269.91434,218.74692 2.97638,0.4252 v -0.8504 l -2.97638,0.4252 m 28.34646,0 -2.97638,0.4252 v -0.8504 l 2.97638,0.4252"
       style="fill:none;stroke:#000000;stroke-width:0.56693;stroke-linecap:round;stroke-linejoin:round;stroke-miterlimit:10;stroke-dasharray:none;stroke-opacity:1"
       id="path474" /><path
       d="m 269.91434,218.74692 v 2.12597 m 0,-2.12597 v -2.12598 m 28.34646,2.12598 v 2.12597 m 0,-2.12597 v -2.12598 m -28.34646,2.12598 v -11.69461 m 28.34646,11.69461 v -11.69461 m -28.34646,11.69461 v 0 m 28.34646,0 v 0 m -28.34646,0 h 28.34646"
       style="fill:none;stroke:#000000;stroke-width:0.28346;stroke-linecap:round;stroke-linejoin:round;stroke-miterlimit:10;stroke-dasharray:none;stroke-opacity:1"
       id="path476" /><path
       d="m 89.34743,218.74692 2.97638,0.4252 v -0.8504 l -2.97638,0.4252 m 56.69291,0 -2.97638,0.4252 v -0.8504 l 2.97638,0.4252"
       style="fill:none;stroke:#000000;stroke-width:0.56693;stroke-linecap:round;stroke-linejoin:round;stroke-miterlimit:10;stroke-dasharray:none;stroke-opacity:1"
       id="path478" /><path
       d="m 89.34743,218.74692 v 2.12597 m 0,-2.12597 v -2.12598 m 56.69291,2.12598 v 2.12597 m 0,-2.12597 v -2.12598 m -56.69291,2.12598 v -11.69461 m 56.69291,11.69461 v -11.69461 m -56.69291,11.69461 v 0 m 56.69291,0 v 0 m -56.69291,0 h 56.69291"
       style="fill:none;stroke:#000000;stroke-width:0.28346;stroke-linecap:round;stroke-linejoin:round;stroke-miterlimit:10;stroke-dasharray:none;stroke-opacity:1"
       id="path480" /><path
       d="m 89.34743,147.25494 2.97638,0.42521 v -0.85038 l -2.97638,0.42517 m 28.34645,0 -2.97638,0.42521 v -0.85038 l 2.97638,0.42517"
       style="fill:none;stroke:#000000;stroke-width:0.56693;stroke-linecap:round;stroke-linejoin:round;stroke-miterlimit:10;stroke-dasharray:none;stroke-opacity:1"
       id="path482" /><path
       d="m 89.34743,147.25494 v 2.12601 m 0,-2.12601 v -2.12597 m 28.34645,2.12597 v 2.12601 m 0,-2.12601 v -2.12597 m -28.34645,2.12597 v -25.43469 m 28.34645,25.43469 v -21.55697 m -28.34645,21.55697 v 0 m 28.34645,0 v 0 m -28.34645,0 h 28.34645"
       style="fill:none;stroke:#000000;stroke-width:0.28346;stroke-linecap:round;stroke-linejoin:round;stroke-miterlimit:10;stroke-dasharray:none;stroke-opacity:1"
       id="path484" /><g
       id="g486"><g
         id="g488"
         clip-path="url(#clipPath492)"><text
           transform="matrix(1,0,0,-1,170.68259,105.28399)"
           style="font-variant:normal;font-weight:normal;font-stretch:normal;font-size:11.1008px;font-family:'Palatino Linotype';-inkscape-font-specification:PalatinoLinotype-Roman;writing-mode:lr-tb;fill:#000000;fill-opacity:1;fill-rule:nonzero;stroke:none"
           id="text496"><tspan
             x="0 5.8279042 10.756646 17.217295 26.475336 29.70566 36.166309 42.338337 49.032101 55.492748"
             y="0"
             id="tspan494">Schwingung</tspan></text></g></g><g
       id="g498"><g
         id="g500"
         clip-path="url(#clipPath504)"><text
           transform="matrix(1,0,0,-1,170.52904,93.09502)"
           style="font-variant:normal;font-weight:normal;font-stretch:normal;font-size:11.1008px;font-family:'Palatino Linotype';-inkscape-font-specification:PalatinoLinotype-Roman;writing-mode:lr-tb;fill:#000000;fill-opacity:1;fill-rule:nonzero;stroke:none"
           id="text508"><tspan
             x="0 6.1720281 10.556832 15.874101 19.104425 25.565073 30.882341 34.112667 37.731518 42.438244 48.610271 52.995075 58.54546"
             y="0"
             id="tspan506">Freiheitsgrad</tspan></text></g></g><path
       d="m 170.68259,108.9218 -23.48633,-0.33072 v 23.88142 m 0,1.06299 v 0 m 0,-2.12597 v 0 m -1.06299,1.06298 v 0 m 2.12598,0 v 0"
       style="fill:none;stroke:#000000;stroke-width:0.28346;stroke-linecap:round;stroke-linejoin:round;stroke-miterlimit:10;stroke-dasharray:none;stroke-opacity:1"
       id="path510" /><path
       d="m 147.19626,133.53549 c -0.58707,0 -1.06299,-0.47589 -1.06299,-1.06299 m 0,0 c 0,-0.58706 0.47592,-1.06298 1.06299,-1.06298 m 0,0 c 0.58707,0 1.06299,0.47592 1.06299,1.06298 m 0,0 c 0,0.5871 -0.47592,1.06299 -1.06299,1.06299 m 0,0 c 0,0 0,0 0,0"
       style="fill:none;stroke:#000000;stroke-width:0.28346;stroke-linecap:round;stroke-linejoin:round;stroke-miterlimit:10;stroke-dasharray:none;stroke-opacity:1"
       id="path512" /><path
       d="m 147.72775,131.55835 h -1.06299 l 0.5315,-0.14883 z"
       style="fill:#000000;fill-opacity:1;fill-rule:nonzero;stroke:none"
       id="path514" /><path
       d="m 146.66476,131.55835 h 1.06299 l 0.38269,0.38269 z"
       style="fill:#000000;fill-opacity:1;fill-rule:nonzero;stroke:none"
       id="path516" /><path
       d="m 146.66476,131.55835 1.44568,0.38269 h -1.82834 z"
       style="fill:#000000;fill-opacity:1;fill-rule:nonzero;stroke:none"
       id="path518" /><path
       d="m 146.2821,131.94104 h 1.82834 l 0.14881,0.53146 z"
       style="fill:#000000;fill-opacity:1;fill-rule:nonzero;stroke:none"
       id="path520" /><path
       d="m 146.2821,131.94104 1.97715,0.53146 h -2.12598 z"
       style="fill:#000000;fill-opacity:1;fill-rule:nonzero;stroke:none"
       id="path522" /><path
       d="m 146.13327,132.4725 h 2.12598 l -0.14881,0.5315 z"
       style="fill:#000000;fill-opacity:1;fill-rule:nonzero;stroke:none"
       id="path524" /><path
       d="m 146.13327,132.4725 1.97717,0.5315 h -1.82834 z"
       style="fill:#000000;fill-opacity:1;fill-rule:nonzero;stroke:none"
       id="path526" /><path
       d="m 146.2821,133.004 h 1.82834 l -0.38269,0.38269 z"
       style="fill:#000000;fill-opacity:1;fill-rule:nonzero;stroke:none"
       id="path528" /><path
       d="m 146.2821,133.004 1.44565,0.38269 h -1.06299 z"
       style="fill:#000000;fill-opacity:1;fill-rule:nonzero;stroke:none"
       id="path530" /><path
       d="m 146.66476,133.38669 h 1.06299 l -0.53149,0.1488 z"
       style="fill:#000000;fill-opacity:1;fill-rule:nonzero;stroke:none"
       id="path532" /><path
       d="m 170.52905,96.73282 -27.01782,-0.33071 v 36.07039 m 0,1.06299 v 0 m 0,-2.12597 v 0 m -1.06299,1.06298 v 0 m 2.12598,0 v 0"
       style="fill:none;stroke:#000000;stroke-width:0.28346;stroke-linecap:round;stroke-linejoin:round;stroke-miterlimit:10;stroke-dasharray:none;stroke-opacity:1"
       id="path534" /><path
       d="m 143.51123,133.53549 c -0.58707,0 -1.06299,-0.47589 -1.06299,-1.06299 m 0,0 c 0,-0.58706 0.47592,-1.06298 1.06299,-1.06298 m 0,0 c 0.58707,0 1.06299,0.47592 1.06299,1.06298 m 0,0 c 0,0.5871 -0.47592,1.06299 -1.06299,1.06299 m 0,0 c 0,0 0,0 0,0"
       style="fill:none;stroke:#000000;stroke-width:0.28346;stroke-linecap:round;stroke-linejoin:round;stroke-miterlimit:10;stroke-dasharray:none;stroke-opacity:1"
       id="path536" /><path
       d="m 144.04272,131.55835 h -1.06298 l 0.53149,-0.14883 z"
       style="fill:#000000;fill-opacity:1;fill-rule:nonzero;stroke:none"
       id="path538" /><path
       d="m 142.97974,131.55835 h 1.06298 l 0.38266,0.38269 z"
       style="fill:#000000;fill-opacity:1;fill-rule:nonzero;stroke:none"
       id="path540" /><path
       d="m 142.97974,131.55835 1.44564,0.38269 h -1.82833 z"
       style="fill:#000000;fill-opacity:1;fill-rule:nonzero;stroke:none"
       id="path542" /><path
       d="m 142.59705,131.94104 h 1.82833 l 0.14884,0.53146 z"
       style="fill:#000000;fill-opacity:1;fill-rule:nonzero;stroke:none"
       id="path544" /><path
       d="m 142.59705,131.94104 1.97717,0.53146 h -2.12598 z"
       style="fill:#000000;fill-opacity:1;fill-rule:nonzero;stroke:none"
       id="path546" /><path
       d="m 142.44824,132.4725 h 2.12598 l -0.14884,0.5315 z"
       style="fill:#000000;fill-opacity:1;fill-rule:nonzero;stroke:none"
       id="path548" /><path
       d="m 142.44824,132.4725 1.97714,0.5315 h -1.82833 z"
       style="fill:#000000;fill-opacity:1;fill-rule:nonzero;stroke:none"
       id="path550" /><path
       d="m 142.59705,133.004 h 1.82833 l -0.38266,0.38269 z"
       style="fill:#000000;fill-opacity:1;fill-rule:nonzero;stroke:none"
       id="path552" /><path
       d="m 142.59705,133.004 1.44567,0.38269 h -1.06298 z"
       style="fill:#000000;fill-opacity:1;fill-rule:nonzero;stroke:none"
       id="path554" /><path
       d="m 142.97974,133.38669 h 1.06298 l -0.53149,0.1488 z"
       style="fill:#000000;fill-opacity:1;fill-rule:nonzero;stroke:none"
       id="path556" /></g></svg>
