<?xml version="1.0" encoding="UTF-8" standalone="no"?>
<svg
   xmlns:dc="http://purl.org/dc/elements/1.1/"
   xmlns:cc="http://creativecommons.org/ns#"
   xmlns:rdf="http://www.w3.org/1999/02/22-rdf-syntax-ns#"
   xmlns:svg="http://www.w3.org/2000/svg"
   xmlns="http://www.w3.org/2000/svg"
   version="1.1"
   id="svg2"
   xml:space="preserve"
   width="566.92932"
   height="234.33067"
   viewBox="0 0 566.92932 234.33067"><metadata
     id="metadata8"><rdf:RDF><cc:Work
         rdf:about=""><dc:format>image/svg+xml</dc:format><dc:type
           rdf:resource="http://purl.org/dc/dcmitype/StillImage" /></cc:Work></rdf:RDF></metadata><defs
     id="defs6"><clipPath
       clipPathUnits="userSpaceOnUse"
       id="clipPath50"><path
         d="M 118.67146,173.88104 V -0.00175 H 292.86639 V 173.88104 H 118.67146"
         clip-rule="evenodd"
         id="path48" /></clipPath><clipPath
       clipPathUnits="userSpaceOnUse"
       id="clipPath62"><path
         d="M 118.67146,173.88104 V -0.00175 H 292.86639 V 173.88104 H 118.67146"
         clip-rule="evenodd"
         id="path60" /></clipPath><clipPath
       clipPathUnits="userSpaceOnUse"
       id="clipPath74"><path
         d="M 118.67146,173.88104 V -0.00175 H 292.86639 V 173.88104 H 118.67146"
         clip-rule="evenodd"
         id="path72" /></clipPath><clipPath
       clipPathUnits="userSpaceOnUse"
       id="clipPath86"><path
         d="M 118.67146,173.88104 V -0.00175 H 292.86639 V 173.88104 H 118.67146"
         clip-rule="evenodd"
         id="path84" /></clipPath><clipPath
       clipPathUnits="userSpaceOnUse"
       id="clipPath98"><path
         d="M 118.67146,173.88104 V -0.00175 H 292.86639 V 173.88104 H 118.67146"
         clip-rule="evenodd"
         id="path96" /></clipPath><clipPath
       clipPathUnits="userSpaceOnUse"
       id="clipPath114"><path
         d="M 118.67146,173.88104 V -0.00175 H 292.86639 V 173.88104 H 118.67146"
         clip-rule="evenodd"
         id="path112" /></clipPath><clipPath
       clipPathUnits="userSpaceOnUse"
       id="clipPath132"><path
         d="M 118.67146,173.88104 V -0.00175 H 292.86639 V 173.88104 H 118.67146"
         clip-rule="evenodd"
         id="path130" /></clipPath><clipPath
       clipPathUnits="userSpaceOnUse"
       id="clipPath146"><path
         d="M 118.67146,173.88104 V -0.00175 H 292.86639 V 173.88104 H 118.67146"
         clip-rule="evenodd"
         id="path144" /></clipPath><clipPath
       clipPathUnits="userSpaceOnUse"
       id="clipPath158"><path
         d="M 118.67146,173.88104 V -0.00175 H 292.86639 V 173.88104 H 118.67146"
         clip-rule="evenodd"
         id="path156" /></clipPath><clipPath
       clipPathUnits="userSpaceOnUse"
       id="clipPath170"><path
         d="M 118.67146,173.88104 V -0.00175 H 292.86639 V 173.88104 H 118.67146"
         clip-rule="evenodd"
         id="path168" /></clipPath></defs><g
     id="g10"
     transform="matrix(1.3333333,0,0,-1.3333333,0,234.33067)"><path
       d="m 160.81528,129.75537 -0.56684,0.80951 -0.69876,0.69879 -0.80951,0.5668 -0.89563,0.41767 -0.95456,0.25577 -0.98446,0.0861 -0.98447,-0.0861 -0.95456,-0.25577 -0.89563,-0.41767 -0.80951,-0.5668 -0.69876,-0.69879 -0.56683,-0.80951 -0.41764,-0.89563 -0.25576,-0.95454 -0.0861,-0.98447 0.0861,-0.98447 0.25576,-0.95454 0.41764,-0.89563 0.56683,-0.80951 0.69876,-0.69878 0.80951,-0.56681 0.89563,-0.41765 0.95456,-0.25577 0.98447,-0.0861 0.98446,0.0861 0.95456,0.25577 0.89563,0.41765 0.80951,0.56681 0.69876,0.69878 0.56684,0.80951 0.41763,0.89563 0.25577,0.95454 0.0861,0.98447 -0.0861,0.98447 -0.25577,0.95454 z"
       style="fill:#dedede;fill-opacity:1;fill-rule:nonzero;stroke:none"
       id="path12" /><path
       d="m 274.20108,16.36955 -0.5668,0.8095 -0.69879,0.69879 -0.80951,0.56682 -0.89563,0.41763 -0.95456,0.25578 -0.98447,0.08612 -0.98444,-0.08612 -0.95455,-0.25578 -0.89563,-0.41763 -0.80951,-0.56682 -0.6988,-0.69879 -0.5668,-0.8095 -0.41766,-0.89564 -0.25577,-0.95455 -0.0861,-0.98446 0.0861,-0.98445 0.25577,-0.95456 0.41766,-0.89563 0.5668,-0.80951 0.6988,-0.69878 0.80951,-0.56682 0.89563,-0.41765 0.95455,-0.25576 0.98444,-0.08612 0.98447,0.08612 0.95456,0.25576 0.89563,0.41765 0.80951,0.56682 0.69879,0.69878 0.5668,0.80951 0.41763,0.89563 0.25577,0.95456 0.0861,0.98445 -0.0861,0.98446 -0.25577,0.95455 z"
       style="fill:#dedede;fill-opacity:1;fill-rule:nonzero;stroke:none"
       id="path14" /><path
       d="m 155.90552,122.46738 4.45334,4.45335 h -4.45334 z"
       style="fill:#000000;fill-opacity:1;fill-rule:nonzero;stroke:none"
       id="path16" /><path
       d="m 264.83798,126.92073 4.45334,-4.45335 v 4.45335 z"
       style="fill:#000000;fill-opacity:1;fill-rule:nonzero;stroke:none"
       id="path18" /><path
       d="m 155.90552,13.5349 v 113.38583 h 113.3858 m 0,-113.38583 v 113.38583"
       style="fill:none;stroke:#000000;stroke-width:0.99213;stroke-linecap:round;stroke-linejoin:round;stroke-miterlimit:10;stroke-dasharray:none;stroke-opacity:1"
       id="path20" /><path
       d="m 268.15747,14.17323 v 4.25197 m 0,2.83464 v 4.25197 m 0,2.83464 v 4.25198 m 0,2.83464 v 4.25197 m 0,2.83464 v 4.25197 m 0,2.83466 v 4.25197 m 0,2.83464 v 4.25197 m 0,2.83464 v 4.25196 m 0,2.83466 v 4.25197 m 0,2.83464 v 4.25197 m 0,2.83464 v 4.25197 m 0,2.83465 v 4.25197 m 0,2.83464 v 4.25197 m 0,2.83464 v 4.25197 m 0,2.83465 v 4.25197 m 0,2.83464 v 4.25197 m 0,-111.18951 v 0 m 0,112.53544 v 0 M 157.03937,14.17323 v 4.25197 m 0,2.83464 v 4.25197 m 0,2.83464 v 4.25198 m 0,2.83464 v 4.25197 m 0,2.83464 v 4.25197 m 0,2.83466 v 4.25197 m 0,2.83464 v 4.25197 m 0,2.83464 v 4.25196 m 0,2.83466 v 4.25197 m 0,2.83464 v 4.25197 m 0,2.83464 v 4.25197 m 0,2.83465 v 4.25197 m 0,2.83464 v 4.25197 m 0,2.83464 v 4.25197 m 0,2.83465 v 4.25197 m 0,2.83464 v 4.25197 m 0,-111.18951 v 0 m 0,112.53544 v 0 h 3.11813 m 2.83463,0 h 4.25198 m 2.83463,0 h 4.25198 m 2.83465,0 h 4.25196 m 2.83465,0 h 4.25196 m 2.83465,0 h 4.25196 m 2.83465,0 h 4.25199 m 2.83462,0 h 4.25198 m 2.83463,0 h 4.25198 m 2.83466,0 h 4.25195 m 2.83466,0 h 4.25195 m 2.83466,0 h 4.25195 m 2.83466,0 h 4.25198 m 2.83462,0 h 4.25199"
       style="fill:none;stroke:#000000;stroke-width:0.3685;stroke-linecap:round;stroke-linejoin:round;stroke-miterlimit:10;stroke-dasharray:none;stroke-opacity:1"
       id="path22" /><path
       d="m 255.1181,126.07034 h 4.25199 m 2.83462,0 h 4.25199 m -109.41733,0 v 0 m 111.1181,0 v 0"
       style="fill:none;stroke:#000000;stroke-width:0.3685;stroke-linecap:round;stroke-linejoin:round;stroke-miterlimit:10;stroke-dasharray:none;stroke-opacity:1"
       id="path24" /><path
       d="m 161.5748,126.92073 c 0,3.13106 -2.53821,5.6693 -5.66928,5.6693 m 0,0 c -3.13108,0 -5.66928,-2.53824 -5.66928,-5.6693 m 0,0 c 0,-3.13106 2.5382,-5.6693 5.66928,-5.6693 m 0,0 c 3.13107,0 5.66928,2.53824 5.66928,5.6693"
       style="fill:none;stroke:#000000;stroke-width:0.99213;stroke-linecap:round;stroke-linejoin:round;stroke-miterlimit:10;stroke-dasharray:none;stroke-opacity:1"
       id="path26" /><path
       d="m 274.96063,13.5349 c 0,3.13107 -2.53824,5.66929 -5.66931,5.66929 m 0,0 c -3.13104,0 -5.66928,-2.53822 -5.66928,-5.66929 m 0,0 c 0,-3.13106 2.53824,-5.66928 5.66928,-5.66928 m 0,0 c 3.13107,0 5.66931,2.53822 5.66931,5.66928"
       style="fill:none;stroke:#000000;stroke-width:0.99213;stroke-linecap:round;stroke-linejoin:round;stroke-miterlimit:10;stroke-dasharray:none;stroke-opacity:1"
       id="path28" /><path
       d="m 155.90552,13.5349 -6.01319,-6.01319 m 6.01319,6.01319 6.01318,-6.01319 m -12.02637,0 h 12.02637 m 107.37262,6.01319 -6.01318,-6.01319 m 6.01318,6.01319 6.01321,-6.01319 m -12.02639,0 h 12.02639 M 261.23099,5.29044 h 15.87402"
       style="fill:none;stroke:#000000;stroke-width:0.28346;stroke-linecap:round;stroke-linejoin:round;stroke-miterlimit:10;stroke-dasharray:none;stroke-opacity:1"
       id="path30" /><path
       d="m 157.32285,13.5349 c 0,0.78277 -0.63456,1.41732 -1.41733,1.41732 m 0,0 c -0.78278,0 -1.41733,-0.63455 -1.41733,-1.41732 m 0,0 c 0,-0.78276 0.63455,-1.41732 1.41733,-1.41732 m 0,0 c 0.78277,0 1.41733,0.63456 1.41733,1.41732"
       style="fill:none;stroke:#000000;stroke-width:0.3685;stroke-linecap:round;stroke-linejoin:round;stroke-miterlimit:10;stroke-dasharray:none;stroke-opacity:1"
       id="path32" /><path
       d="m 270.70865,13.5349 c 0,0.78277 -0.63455,1.41732 -1.41733,1.41732 m 0,0 c -0.78274,0 -1.4173,-0.63455 -1.4173,-1.41732 m 0,0 c 0,-0.78276 0.63456,-1.41732 1.4173,-1.41732 m 0,0 c 0.78278,0 1.41733,0.63456 1.41733,1.41732"
       style="fill:none;stroke:#000000;stroke-width:0.3685;stroke-linecap:round;stroke-linejoin:round;stroke-miterlimit:10;stroke-dasharray:none;stroke-opacity:1"
       id="path34" /><path
       d="m 155.90552,166.58572 h -10.77167 m 5.95276,0 h 0.4252 m -6.37796,0 v 0 l 5.95276,-0.85037 v 1.70078 l -5.95276,-0.85041"
       style="fill:none;stroke:#000000;stroke-width:0.28346;stroke-linecap:round;stroke-linejoin:round;stroke-miterlimit:10;stroke-dasharray:none;stroke-opacity:1"
       id="path36" /><path
       d="m 151.08661,167.43613 -5.95276,-0.85041 5.95276,-0.85037 z"
       style="fill:#000000;fill-opacity:1;fill-rule:nonzero;stroke:none"
       id="path38" /><path
       d="m 155.90552,169.42038 v -7.08661"
       style="fill:none;stroke:#000000;stroke-width:0.28346;stroke-linecap:round;stroke-linejoin:round;stroke-miterlimit:10;stroke-dasharray:none;stroke-opacity:1"
       id="path40" /><path
       d="m 155.90552,122.46738 4.45334,4.45335 m 108.93246,-4.45335 -4.45334,4.45335"
       style="fill:none;stroke:#000000;stroke-width:0.99213;stroke-linecap:round;stroke-linejoin:round;stroke-miterlimit:10;stroke-dasharray:none;stroke-opacity:1"
       id="path42" /><g
       id="g44"><g
         id="g46"
         clip-path="url(#clipPath50)"><text
           transform="matrix(1,0,0,-1,251.28782,75.6651)"
           style="font-style:italic;font-variant:normal;font-weight:normal;font-stretch:normal;font-size:11.0078px;font-family:'Palatino Linotype';-inkscape-font-specification:PalatinoLinotype-Italic;writing-mode:lr-tb;fill:#000000;fill-opacity:1;fill-rule:nonzero;stroke:none"
           id="text54"><tspan
             x="0 6.72579"
             y="0"
             id="tspan52">EI</tspan></text></g></g><g
       id="g56"><g
         id="g58"
         clip-path="url(#clipPath62)"><text
           transform="matrix(1,0,0,-1,163.25548,75.6651)"
           style="font-style:italic;font-variant:normal;font-weight:normal;font-stretch:normal;font-size:11.0078px;font-family:'Palatino Linotype';-inkscape-font-specification:PalatinoLinotype-Italic;writing-mode:lr-tb;fill:#000000;fill-opacity:1;fill-rule:nonzero;stroke:none"
           id="text66"><tspan
             x="0 6.72579"
             y="0"
             id="tspan64">EI</tspan></text></g></g><g
       id="g68"><g
         id="g70"
         clip-path="url(#clipPath74)"><text
           transform="matrix(1,0,0,-1,189.84836,115.41146)"
           style="font-style:italic;font-variant:normal;font-weight:normal;font-stretch:normal;font-size:11.0078px;font-family:'Palatino Linotype';-inkscape-font-specification:PalatinoLinotype-Italic;writing-mode:lr-tb;fill:#000000;fill-opacity:1;fill-rule:nonzero;stroke:none"
           id="text78"><tspan
             x="0 6.72579"
             y="0"
             id="tspan76">EI</tspan></text></g></g><g
       id="g80"><g
         id="g82"
         clip-path="url(#clipPath86)"><text
           transform="matrix(1,0,0,-1,136.14628,137.62381)"
           style="font-style:italic;font-variant:normal;font-weight:normal;font-stretch:normal;font-size:11.0078px;font-family:'Palatino Linotype';-inkscape-font-specification:PalatinoLinotype-Italic;writing-mode:lr-tb;fill:#000000;fill-opacity:1;fill-rule:nonzero;stroke:none"
           id="text90"><tspan
             x="0"
             y="0"
             id="tspan88">M</tspan></text></g></g><g
       id="g92"><g
         id="g94"
         clip-path="url(#clipPath98)"><text
           transform="matrix(1,0,0,-1,146.8551,133.07656)"
           style="font-style:italic;font-variant:normal;font-weight:normal;font-stretch:normal;font-size:6.6047px;font-family:'Palatino Linotype';-inkscape-font-specification:PalatinoLinotype-Italic;writing-mode:lr-tb;fill:#000000;fill-opacity:1;fill-rule:nonzero;stroke:none"
           id="text102"><tspan
             x="0"
             y="0"
             id="tspan100">1</tspan></text></g></g><path
       d="m 155.90552,151.27866 2.97638,0.4252 v -0.85041 l -2.97638,0.42521 m 113.3858,0 -2.97638,0.4252 v -0.85041 l 2.97638,0.42521"
       style="fill:none;stroke:#000000;stroke-width:0.56693;stroke-linecap:round;stroke-linejoin:round;stroke-miterlimit:10;stroke-dasharray:none;stroke-opacity:1"
       id="path104" /><path
       d="m 155.90552,151.27866 v 2.12597 m 0,-2.12597 v -2.12598 m 113.3858,2.12598 v 2.12597 m 0,-2.12597 v -2.12598 m -113.3858,2.12598 v -18.68863 m 113.3858,18.68863 v -18.68863 m -113.3858,18.68863 v 0 m 113.3858,0 v 0"
       style="fill:none;stroke:#000000;stroke-width:0.28346;stroke-linecap:round;stroke-linejoin:round;stroke-miterlimit:10;stroke-dasharray:none;stroke-opacity:1"
       id="path106" /><g
       id="g108"><g
         id="g110"
         clip-path="url(#clipPath114)"><text
           transform="matrix(1,0,0,-1,209.93279,154.14839)"
           style="font-style:italic;font-variant:normal;font-weight:normal;font-stretch:normal;font-size:10.0071px;font-family:'Palatino Linotype';-inkscape-font-specification:PalatinoLinotype-Italic;writing-mode:lr-tb;fill:#000000;fill-opacity:1;fill-rule:nonzero;stroke:none"
           id="text118"><tspan
             x="0"
             y="0"
             id="tspan116">L</tspan></text></g></g><path
       d="m 155.90552,151.27866 h 113.3858"
       style="fill:none;stroke:#000000;stroke-width:0.28346;stroke-linecap:round;stroke-linejoin:round;stroke-miterlimit:10;stroke-dasharray:none;stroke-opacity:1"
       id="path120" /><path
       d="m 131.16422,13.5349 -0.42521,2.97638 h 0.85041 l -0.4252,-2.97638 m 0,113.38583 -0.42521,-2.97638 h 0.85041 l -0.4252,2.97638"
       style="fill:none;stroke:#000000;stroke-width:0.56693;stroke-linecap:round;stroke-linejoin:round;stroke-miterlimit:10;stroke-dasharray:none;stroke-opacity:1"
       id="path122" /><path
       d="m 131.16422,13.5349 h -2.12598 m 2.12598,0 h 2.12597 m -2.12597,113.38583 h -2.12598 m 2.12598,0 h 2.12597 M 131.16422,13.5349 h 19.07202 m -19.07202,113.38583 h 19.07202 M 131.16422,13.5349 v 0 m 0,113.38583 v 0"
       style="fill:none;stroke:#000000;stroke-width:0.28346;stroke-linecap:round;stroke-linejoin:round;stroke-miterlimit:10;stroke-dasharray:none;stroke-opacity:1"
       id="path124" /><g
       id="g126"><g
         id="g128"
         clip-path="url(#clipPath132)"><text
           transform="matrix(0,1,1,0,128.29446,67.56218)"
           style="font-style:italic;font-variant:normal;font-weight:normal;font-stretch:normal;font-size:10.0071px;font-family:'Palatino Linotype';-inkscape-font-specification:PalatinoLinotype-Italic;writing-mode:lr-tb;fill:#000000;fill-opacity:1;fill-rule:nonzero;stroke:none"
           id="text136"><tspan
             x="0"
             y="0"
             id="tspan134">L</tspan></text></g></g><path
       d="M 131.16422,13.5349 V 126.92073"
       style="fill:none;stroke:#000000;stroke-width:0.28346;stroke-linecap:round;stroke-linejoin:round;stroke-miterlimit:10;stroke-dasharray:none;stroke-opacity:1"
       id="path138" /><g
       id="g140"><g
         id="g142"
         clip-path="url(#clipPath146)"><text
           transform="matrix(1,0,0,-1,249.5321,24.23798)"
           style="font-style:italic;font-variant:normal;font-weight:normal;font-stretch:normal;font-size:11.0078px;font-family:'Palatino Linotype';-inkscape-font-specification:PalatinoLinotype-Italic;writing-mode:lr-tb;fill:#000000;fill-opacity:1;fill-rule:nonzero;stroke:none"
           id="text150"><tspan
             x="0"
             y="0"
             id="tspan148">M</tspan></text></g></g><g
       id="g152"><g
         id="g154"
         clip-path="url(#clipPath158)"><text
           transform="matrix(1,0,0,-1,260.24094,19.69073)"
           style="font-style:italic;font-variant:normal;font-weight:normal;font-stretch:normal;font-size:6.6047px;font-family:'Palatino Linotype';-inkscape-font-specification:PalatinoLinotype-Italic;writing-mode:lr-tb;fill:#000000;fill-opacity:1;fill-rule:nonzero;stroke:none"
           id="text162"><tspan
             x="0"
             y="0"
             id="tspan160">2</tspan></text></g></g><g
       id="g164"><g
         id="g166"
         clip-path="url(#clipPath170)"><text
           transform="matrix(1,0,0,-1,136.5113,163.74717)"
           style="font-style:italic;font-variant:normal;font-weight:normal;font-stretch:normal;font-size:11.0078px;font-family:'Palatino Linotype';-inkscape-font-specification:PalatinoLinotype-Italic;writing-mode:lr-tb;fill:#000000;fill-opacity:1;fill-rule:nonzero;stroke:none"
           id="text174"><tspan
             x="0"
             y="0"
             id="tspan172">u</tspan></text></g></g><path
       d="m 261.94135,79.3029 h 7.34997 m 1.27561,0 v 0 m -2.55118,0 v 0 m 1.27557,1.27559 v 0 m 0,-2.55118 v 0"
       style="fill:none;stroke:#000000;stroke-width:0.3685;stroke-linecap:round;stroke-linejoin:round;stroke-miterlimit:10;stroke-dasharray:none;stroke-opacity:1"
       id="path176" /><path
       d="m 270.56693,79.3029 c 0,0.70449 -0.57111,1.27559 -1.27561,1.27559 m 0,0 c -0.70447,0 -1.27557,-0.5711 -1.27557,-1.27559 m 0,0 c 0,-0.7045 0.5711,-1.27559 1.27557,-1.27559 m 0,0 c 0.7045,0 1.27561,0.57109 1.27561,1.27559 m 0,0 c 0,0 0,0 0,0"
       style="fill:none;stroke:#000000;stroke-width:0.3685;stroke-linecap:round;stroke-linejoin:round;stroke-miterlimit:10;stroke-dasharray:none;stroke-opacity:1"
       id="path178" /><path
       d="m 268.19434,78.66512 v 1.27557 l -0.17859,-0.63779 z"
       style="fill:#000000;fill-opacity:1;fill-rule:nonzero;stroke:none"
       id="path180" /><path
       d="m 268.19434,79.94069 v -1.27557 l 0.45919,-0.45922 z"
       style="fill:#000000;fill-opacity:1;fill-rule:nonzero;stroke:none"
       id="path182" /><path
       d="m 268.19434,79.94069 0.45919,-1.73479 v 2.194 z"
       style="fill:#000000;fill-opacity:1;fill-rule:nonzero;stroke:none"
       id="path184" /><path
       d="m 268.65353,80.3999 v -2.194 l 0.63779,-0.17859 z"
       style="fill:#000000;fill-opacity:1;fill-rule:nonzero;stroke:none"
       id="path186" /><path
       d="m 268.65353,80.3999 0.63779,-2.37259 v 2.55118 z"
       style="fill:#000000;fill-opacity:1;fill-rule:nonzero;stroke:none"
       id="path188" /><path
       d="m 269.29132,80.57849 v -2.55118 l 0.63782,0.17859 z"
       style="fill:#000000;fill-opacity:1;fill-rule:nonzero;stroke:none"
       id="path190" /><path
       d="m 269.29132,80.57849 0.63782,-2.37259 v 2.194 z"
       style="fill:#000000;fill-opacity:1;fill-rule:nonzero;stroke:none"
       id="path192" /><path
       d="m 269.92914,80.3999 v -2.194 l 0.4592,0.45922 z"
       style="fill:#000000;fill-opacity:1;fill-rule:nonzero;stroke:none"
       id="path194" /><path
       d="m 269.92914,80.3999 0.4592,-1.73478 v 1.27557 z"
       style="fill:#000000;fill-opacity:1;fill-rule:nonzero;stroke:none"
       id="path196" /><path
       d="m 270.38834,79.94069 v -1.27557 l 0.17859,0.63778 z"
       style="fill:#000000;fill-opacity:1;fill-rule:nonzero;stroke:none"
       id="path198" /><path
       d="m 163.25549,79.3029 h -7.34997 m -1.27561,0 v 0 m 2.55118,0 v 0 m -1.27557,-1.27559 v 0 m 0,2.55117 v 0"
       style="fill:none;stroke:#000000;stroke-width:0.3685;stroke-linecap:round;stroke-linejoin:round;stroke-miterlimit:10;stroke-dasharray:none;stroke-opacity:1"
       id="path200" /><path
       d="m 154.62991,79.3029 c 0,-0.7045 0.57111,-1.27559 1.27561,-1.27559 m 0,0 c 0.7045,0 1.2756,0.57109 1.2756,1.27559 m 0,0 c 0,0.70449 -0.5711,1.27559 -1.2756,1.27559 m 0,0 c -0.7045,0 -1.27561,-0.5711 -1.27561,-1.27559 m 0,0 c 0,0 0,0 0,0"
       style="fill:none;stroke:#000000;stroke-width:0.3685;stroke-linecap:round;stroke-linejoin:round;stroke-miterlimit:10;stroke-dasharray:none;stroke-opacity:1"
       id="path202" /><path
       d="M 157.0025,79.94069 V 78.6651 l 0.17859,0.6378 z"
       style="fill:#000000;fill-opacity:1;fill-rule:nonzero;stroke:none"
       id="path204" /><path
       d="m 157.0025,78.6651 v 1.27559 l -0.4592,0.45921 z"
       style="fill:#000000;fill-opacity:1;fill-rule:nonzero;stroke:none"
       id="path206" /><path
       d="m 157.0025,78.6651 -0.4592,1.7348 v -2.19401 z"
       style="fill:#000000;fill-opacity:1;fill-rule:nonzero;stroke:none"
       id="path208" /><path
       d="m 156.5433,78.20589 v 2.19401 l -0.63778,0.17858 z"
       style="fill:#000000;fill-opacity:1;fill-rule:nonzero;stroke:none"
       id="path210" /><path
       d="m 156.5433,78.20589 -0.63778,2.37259 v -2.55117 z"
       style="fill:#000000;fill-opacity:1;fill-rule:nonzero;stroke:none"
       id="path212" /><path
       d="m 155.90552,78.02731 v 2.55117 l -0.63779,-0.17858 z"
       style="fill:#000000;fill-opacity:1;fill-rule:nonzero;stroke:none"
       id="path214" /><path
       d="m 155.90552,78.02731 -0.63779,2.37259 v -2.19401 z"
       style="fill:#000000;fill-opacity:1;fill-rule:nonzero;stroke:none"
       id="path216" /><path
       d="M 155.26773,78.20589 V 80.3999 L 154.8085,79.94069 Z"
       style="fill:#000000;fill-opacity:1;fill-rule:nonzero;stroke:none"
       id="path218" /><path
       d="m 155.26773,78.20589 -0.45923,1.7348 V 78.6651 Z"
       style="fill:#000000;fill-opacity:1;fill-rule:nonzero;stroke:none"
       id="path220" /><path
       d="m 154.8085,78.6651 v 1.27559 l -0.17859,-0.63779 z"
       style="fill:#000000;fill-opacity:1;fill-rule:nonzero;stroke:none"
       id="path222" /><path
       d="m 200.50192,119.04926 h 9.35434 v 7.87147 m 0,1.27559 v 0 m 0,-2.55118 v 0 m -1.2756,1.27559 v 0 m 2.55118,0 v 0"
       style="fill:none;stroke:#000000;stroke-width:0.3685;stroke-linecap:round;stroke-linejoin:round;stroke-miterlimit:10;stroke-dasharray:none;stroke-opacity:1"
       id="path224" /><path
       d="m 209.85626,128.19632 c -0.7045,0 -1.2756,-0.57111 -1.2756,-1.27559 m 0,0 c 0,-0.70448 0.5711,-1.27559 1.2756,-1.27559 m 0,0 c 0.70447,0 1.27558,0.57111 1.27558,1.27559 m 0,0 c 0,0.70448 -0.57111,1.27559 -1.27558,1.27559 m 0,0 c 0,0 0,0 0,0"
       style="fill:none;stroke:#000000;stroke-width:0.3685;stroke-linecap:round;stroke-linejoin:round;stroke-miterlimit:10;stroke-dasharray:none;stroke-opacity:1"
       id="path226" /><path
       d="m 210.49405,125.82373 h -1.27561 l 0.63782,-0.17859 z"
       style="fill:#000000;fill-opacity:1;fill-rule:nonzero;stroke:none"
       id="path228" /><path
       d="m 209.21844,125.82373 h 1.27561 l 0.4592,0.45921 z"
       style="fill:#000000;fill-opacity:1;fill-rule:nonzero;stroke:none"
       id="path230" /><path
       d="m 209.21844,125.82373 1.73481,0.45921 h -2.194 z"
       style="fill:#000000;fill-opacity:1;fill-rule:nonzero;stroke:none"
       id="path232" /><path
       d="m 208.75925,126.28294 h 2.194 l 0.17859,0.63779 z"
       style="fill:#000000;fill-opacity:1;fill-rule:nonzero;stroke:none"
       id="path234" /><path
       d="m 208.75925,126.28294 2.37259,0.63779 h -2.55118 z"
       style="fill:#000000;fill-opacity:1;fill-rule:nonzero;stroke:none"
       id="path236" /><path
       d="m 208.58066,126.92073 h 2.55118 l -0.17859,0.6378 z"
       style="fill:#000000;fill-opacity:1;fill-rule:nonzero;stroke:none"
       id="path238" /><path
       d="m 208.58066,126.92073 2.37259,0.6378 h -2.194 z"
       style="fill:#000000;fill-opacity:1;fill-rule:nonzero;stroke:none"
       id="path240" /><path
       d="m 208.75925,127.55853 h 2.194 l -0.4592,0.4592 z"
       style="fill:#000000;fill-opacity:1;fill-rule:nonzero;stroke:none"
       id="path242" /><path
       d="m 208.75925,127.55853 1.7348,0.4592 h -1.27561 z"
       style="fill:#000000;fill-opacity:1;fill-rule:nonzero;stroke:none"
       id="path244" /><path
       d="m 209.21844,128.01773 h 1.27561 l -0.63779,0.17859 z"
       style="fill:#000000;fill-opacity:1;fill-rule:nonzero;stroke:none"
       id="path246" /></g></svg>
