<?xml version="1.0" encoding="UTF-8" standalone="no"?>
<svg
   xmlns:dc="http://purl.org/dc/elements/1.1/"
   xmlns:cc="http://creativecommons.org/ns#"
   xmlns:rdf="http://www.w3.org/1999/02/22-rdf-syntax-ns#"
   xmlns:svg="http://www.w3.org/2000/svg"
   xmlns="http://www.w3.org/2000/svg"
   version="1.1"
   id="svg2"
   xml:space="preserve"
   width="566.92932"
   height="188.976"
   viewBox="0 0 566.92932 188.976"><metadata
     id="metadata8"><rdf:RDF><cc:Work
         rdf:about=""><dc:format>image/svg+xml</dc:format><dc:type
           rdf:resource="http://purl.org/dc/dcmitype/StillImage" /></cc:Work></rdf:RDF></metadata><defs
     id="defs6"><clipPath
       clipPathUnits="userSpaceOnUse"
       id="clipPath52"><path
         d="M 42.18604,141.7337 V -0.00142 H 383.0108 V 141.7337 H 42.18604"
         clip-rule="evenodd"
         id="path50" /></clipPath><clipPath
       clipPathUnits="userSpaceOnUse"
       id="clipPath64"><path
         d="M 42.18604,141.7337 V -0.00142 H 383.0108 V 141.7337 H 42.18604"
         clip-rule="evenodd"
         id="path62" /></clipPath><clipPath
       clipPathUnits="userSpaceOnUse"
       id="clipPath82"><path
         d="M 42.18604,141.7337 V -0.00142 H 383.0108 V 141.7337 H 42.18604"
         clip-rule="evenodd"
         id="path80" /></clipPath><clipPath
       clipPathUnits="userSpaceOnUse"
       id="clipPath96"><path
         d="M 42.18604,141.7337 V -0.00142 H 383.0108 V 141.7337 H 42.18604"
         clip-rule="evenodd"
         id="path94" /></clipPath><clipPath
       clipPathUnits="userSpaceOnUse"
       id="clipPath108"><path
         d="M 42.18604,141.7337 V -0.00142 H 383.0108 V 141.7337 H 42.18604"
         clip-rule="evenodd"
         id="path106" /></clipPath><clipPath
       clipPathUnits="userSpaceOnUse"
       id="clipPath120"><path
         d="M 42.18604,141.7337 V -0.00142 H 383.0108 V 141.7337 H 42.18604"
         clip-rule="evenodd"
         id="path118" /></clipPath><clipPath
       clipPathUnits="userSpaceOnUse"
       id="clipPath132"><path
         d="M 42.18604,141.7337 V -0.00142 H 383.0108 V 141.7337 H 42.18604"
         clip-rule="evenodd"
         id="path130" /></clipPath><clipPath
       clipPathUnits="userSpaceOnUse"
       id="clipPath144"><path
         d="M 42.18604,141.7337 V -0.00142 H 383.0108 V 141.7337 H 42.18604"
         clip-rule="evenodd"
         id="path142" /></clipPath><clipPath
       clipPathUnits="userSpaceOnUse"
       id="clipPath156"><path
         d="M 42.18604,141.7337 V -0.00142 H 383.0108 V 141.7337 H 42.18604"
         clip-rule="evenodd"
         id="path154" /></clipPath></defs><g
     id="g10"
     transform="matrix(1.3333333,0,0,-1.3333333,0,188.976)"><path
       d="m 202.82343,90.73532 h -14.17325 l 0.0606,-0.92499 0.18084,-0.90916 0.29798,-0.87778 0.40997,-0.83137 0.51501,-0.77076 0.61118,-0.69693 0.69696,-0.6112 0.77072,-0.515 0.83139,-0.40999 0.87778,-0.29796 0.90918,-0.18084 0.92499,-0.06063 0.92498,0.06063 0.90915,0.18084 0.87778,0.29796 0.83139,0.40999 0.77075,0.515 0.69693,0.6112 0.61118,0.69693 0.51501,0.77076 0.40998,0.83137 0.29797,0.87778 0.18085,0.90916 0.0606,0.92499 z"
       style="fill:#dedede;fill-opacity:1;fill-rule:nonzero;stroke:none"
       id="path12" /><path
       d="m 201.35898,95.04938 -0.61118,0.69693 -0.69693,0.6112 -0.77075,0.515 -0.83139,0.40999 -0.87778,0.29796 -0.90915,0.18085 -0.92498,0.06062 -0.92499,-0.06062 -0.90918,-0.18085 -0.87778,-0.29796 -0.83139,-0.40999 -0.77072,-0.515 -0.69696,-0.6112 -0.61118,-0.69693 -0.51501,-0.77075 -0.40997,-0.83138 -0.29798,-0.87778 -0.18084,-0.90916 -0.0606,-0.92499 h 14.17325 l -0.0606,0.92499 -0.18085,0.90916 -0.29797,0.87778 -0.40998,0.83138 -0.51501,0.77075 z"
       style="fill:#dedede;fill-opacity:1;fill-rule:nonzero;stroke:none"
       id="path14" /><path
       d="M 54.00452,83.64871 H 337.46909"
       style="fill:none;stroke:#000000;stroke-width:0.99213;stroke-linecap:round;stroke-linejoin:round;stroke-miterlimit:10;stroke-dasharray:none;stroke-opacity:1"
       id="path16" /><path
       d="m 54.00452,83.64871 -6.0132,-6.0132 m 6.0132,6.0132 6.01318,-6.0132 m -12.02638,0 H 60.0177"
       style="fill:none;stroke:#000000;stroke-width:0.28346;stroke-linecap:round;stroke-linejoin:round;stroke-miterlimit:10;stroke-dasharray:none;stroke-opacity:1"
       id="path18" /><path
       d="m 55.42184,83.64871 c 0,0.78276 -0.63456,1.41731 -1.41732,1.41731 m 0,0 c -0.78276,0 -1.41733,-0.63455 -1.41733,-1.41731 m 0,0 c 0,-0.78277 0.63457,-1.41733 1.41733,-1.41733 m 0,0 c 0.78276,0 1.41732,0.63456 1.41732,1.41733"
       style="fill:none;stroke:#000000;stroke-width:0.99213;stroke-linecap:round;stroke-linejoin:round;stroke-miterlimit:10;stroke-dasharray:none;stroke-opacity:1"
       id="path20" /><path
       d="m 337.46909,83.64871 -6.01322,-6.0132 m 6.01322,6.0132 6.01318,-6.0132 m -12.0264,0 h 12.0264"
       style="fill:none;stroke:#000000;stroke-width:0.28346;stroke-linecap:round;stroke-linejoin:round;stroke-miterlimit:10;stroke-dasharray:none;stroke-opacity:1"
       id="path22" /><path
       d="m 338.88638,83.64871 c 0,0.78276 -0.63455,1.41731 -1.41729,1.41731 m 0,0 c -0.78278,0 -1.41733,-0.63455 -1.41733,-1.41731 m 0,0 c 0,-0.78277 0.63455,-1.41733 1.41733,-1.41733 m 0,0 c 0.78274,0 1.41729,0.63456 1.41729,1.41733"
       style="fill:none;stroke:#000000;stroke-width:0.99213;stroke-linecap:round;stroke-linejoin:round;stroke-miterlimit:10;stroke-dasharray:none;stroke-opacity:1"
       id="path24" /><path
       d="M 195.73682,83.64871 V 26.9558 L 337.46909,83.64871 M 195.73682,26.9558 54.00452,83.64871"
       style="fill:none;stroke:#000000;stroke-width:0.99213;stroke-linecap:round;stroke-linejoin:round;stroke-miterlimit:10;stroke-dasharray:none;stroke-opacity:1"
       id="path26" /><path
       d="m 197.15411,26.9558 c 0,0.78276 -0.63455,1.41731 -1.41729,1.41731 m 0,0 c -0.78278,0 -1.41733,-0.63455 -1.41733,-1.41731 m 0,0 c 0,-0.78278 0.63455,-1.41733 1.41733,-1.41733 m 0,0 c 0.78274,0 1.41729,0.63455 1.41729,1.41733"
       style="fill:none;stroke:#000000;stroke-width:0.99213;stroke-linecap:round;stroke-linejoin:round;stroke-miterlimit:10;stroke-dasharray:none;stroke-opacity:1"
       id="path28" /><path
       d="m 197.15411,82.23138 c 0,0.78276 -0.63455,1.41733 -1.41729,1.41733 m 0,0 c -0.78278,0 -1.41733,-0.63457 -1.41733,-1.41733 m 0,0 c 0,-0.78276 0.63455,-1.41732 1.41733,-1.41732 m 0,0 c 0.78274,0 1.41729,0.63456 1.41729,1.41732"
       style="fill:none;stroke:#000000;stroke-width:0.99213;stroke-linecap:round;stroke-linejoin:round;stroke-miterlimit:10;stroke-dasharray:none;stroke-opacity:1"
       id="path30" /><path
       d="m 202.82343,90.73532 c 0,3.91383 -3.1728,7.08661 -7.08661,7.08661 m 0,0 c -3.91385,0 -7.08664,-3.17278 -7.08664,-7.08661 m 0,0 c 0,-3.91383 3.17279,-7.08661 7.08664,-7.08661 m 0,0 c 3.91381,0 7.08661,3.17278 7.08661,7.08661"
       style="fill:none;stroke:#000000;stroke-width:0.99213;stroke-linecap:round;stroke-linejoin:round;stroke-miterlimit:10;stroke-dasharray:none;stroke-opacity:1"
       id="path32" /><path
       d="M 195.73682,123.90068 V 102.9243 m 0,5.4567 v 0.38975 m 0,-5.84645 v 0 l 0.77951,5.4567 h -1.55905 l 0.77954,-5.4567"
       style="fill:none;stroke:#ff0000;stroke-width:0.28346;stroke-linecap:round;stroke-linejoin:round;stroke-miterlimit:10;stroke-dasharray:none;stroke-opacity:1"
       id="path34" /><path
       d="m 194.95728,108.381 0.77954,-5.4567 0.77951,5.4567 z"
       style="fill:#ff0000;fill-opacity:1;fill-rule:nonzero;stroke:none"
       id="path36" /><path
       d="m 56.69292,82.51485 h 4.25197 m 2.83464,0 h 4.25196 m 2.83466,0 h 4.25197 m 2.83464,0 h 4.25197 m 2.83464,0 h 4.25197 m 2.83465,0 h 4.25197 m 2.83464,0 h 4.25197 m 2.83464,0 h 4.25197 m 2.83465,0 h 4.25197 m 2.83464,0 h 4.25197 m 2.83464,0 h 4.25199 m 2.83465,0 h 4.25195 m 2.83466,0 h 4.25195 m 2.83466,0 h 4.25195 m 2.83466,0 h 4.25198 m 2.83463,0 h 4.25198 m 2.83463,0 h 4.25198 m 2.83465,0 h 4.25196 m 2.83465,0 h 4.25196 m 2.83465,0 h 4.25196 m 2.83465,0 h 4.25199 m 2.83462,0 h 4.25198 m 2.83463,0 h 4.25198 m 2.83466,0 h 4.25195 m 2.83466,0 h 4.25195 m 2.83466,0 h 4.25195 m 2.83466,0 h 4.25198 m 2.83462,0 h 4.25199 m 2.83462,0 h 4.25199 m 2.83462,0 h 4.25199 m 2.83465,0 h 4.25195 m 2.83466,0 h 4.25195 m 2.83466,0 h 4.25195 m 2.83466,0 h 4.25198 m 2.83463,0 h 4.25198 m 2.83463,0 h 4.25198 m 2.83466,0 h 4.25195 m 2.83465,0 h 4.25196 m 2.83465,0 h 4.25196 m 2.83465,0 h 4.25199 m -283.31833,0 v 0 m 283.46457,0 v 0"
       style="fill:none;stroke:#000000;stroke-width:0.3685;stroke-linecap:round;stroke-linejoin:round;stroke-miterlimit:10;stroke-dasharray:none;stroke-opacity:1"
       id="path38" /><path
       d="M 329.53207,76.51988 H 345.4061"
       style="fill:none;stroke:#000000;stroke-width:0.28346;stroke-linecap:round;stroke-linejoin:round;stroke-miterlimit:10;stroke-dasharray:none;stroke-opacity:1"
       id="path40" /><path
       d="m 54.00452,8.39494 2.97638,0.4252 V 7.96976 l -2.97638,0.42518 m 141.7323,0 -2.97638,0.4252 V 7.96976 l 2.97638,0.42518 2.97635,0.4252 V 7.96976 l -2.97635,0.42518 m 141.73227,0 -2.97638,0.4252 V 7.96976 l 2.97638,0.42518"
       style="fill:none;stroke:#000000;stroke-width:0.56693;stroke-linecap:round;stroke-linejoin:round;stroke-miterlimit:10;stroke-dasharray:none;stroke-opacity:1"
       id="path42" /><path
       d="m 54.00452,8.39494 v 2.126 m 0,-2.126 V 6.26897 m 141.7323,2.12597 v 2.126 m 0,-2.126 V 6.26897 m 0,2.12597 v 2.126 m 0,-2.126 V 6.26897 m 141.73227,2.12597 v 2.126 m 0,-2.126 V 6.26897 M 54.00452,8.39494 V 71.96622 M 195.73682,8.39494 V 8.64876 21.2865 M 337.46909,8.39494 V 71.96622 M 54.00452,8.39494 v 0 m 283.46457,0 v 0"
       style="fill:none;stroke:#000000;stroke-width:0.28346;stroke-linecap:round;stroke-linejoin:round;stroke-miterlimit:10;stroke-dasharray:none;stroke-opacity:1"
       id="path44" /><g
       id="g46"><g
         id="g48"
         clip-path="url(#clipPath52)"><text
           transform="matrix(1,0,0,-1,116.05008,9.91279)"
           style="font-variant:normal;font-weight:normal;font-stretch:normal;font-size:10.0916px;font-family:'Palatino Linotype';-inkscape-font-specification:PalatinoLinotype-Roman;writing-mode:lr-tb;fill:#000000;fill-opacity:1;fill-rule:nonzero;stroke:none"
           id="text56"><tspan
             x="0 5.045805 7.5687075 12.614512"
             y="0"
             id="tspan54">5.00</tspan></text></g></g><g
       id="g58"><g
         id="g60"
         clip-path="url(#clipPath64)"><text
           transform="matrix(1,0,0,-1,257.78236,9.91279)"
           style="font-variant:normal;font-weight:normal;font-stretch:normal;font-size:10.0916px;font-family:'Palatino Linotype';-inkscape-font-specification:PalatinoLinotype-Roman;writing-mode:lr-tb;fill:#000000;fill-opacity:1;fill-rule:nonzero;stroke:none"
           id="text68"><tspan
             x="0 5.045805 7.5687075 12.614512"
             y="0"
             id="tspan66">5.00</tspan></text></g></g><path
       d="m 54.00452,8.39494 h 141.7323 141.73227"
       style="fill:none;stroke:#000000;stroke-width:0.28346;stroke-linecap:round;stroke-linejoin:round;stroke-miterlimit:10;stroke-dasharray:none;stroke-opacity:1"
       id="path70" /><path
       d="m 370.79044,26.9558 -0.42521,2.97637 h 0.85041 l -0.4252,-2.97637 m 0,56.69291 -0.42521,-2.97638 h 0.85041 l -0.4252,2.97638"
       style="fill:none;stroke:#000000;stroke-width:0.56693;stroke-linecap:round;stroke-linejoin:round;stroke-miterlimit:10;stroke-dasharray:none;stroke-opacity:1"
       id="path72" /><path
       d="m 370.79044,26.9558 h -2.12598 m 2.12598,0 h 2.12597 m -2.12597,56.69291 h -2.12598 m 2.12598,0 h 2.12597 M 370.79044,26.9558 H 201.4061 M 370.79044,83.64871 H 343.13837 M 370.79044,26.9558 v 0 m 0,56.69291 v 0"
       style="fill:none;stroke:#000000;stroke-width:0.28346;stroke-linecap:round;stroke-linejoin:round;stroke-miterlimit:10;stroke-dasharray:none;stroke-opacity:1"
       id="path74" /><g
       id="g76"><g
         id="g78"
         clip-path="url(#clipPath82)"><text
           transform="matrix(0,1,1,0,369.27259,46.48167)"
           style="font-variant:normal;font-weight:normal;font-stretch:normal;font-size:10.0916px;font-family:'Palatino Linotype';-inkscape-font-specification:PalatinoLinotype-Roman;writing-mode:lr-tb;fill:#000000;fill-opacity:1;fill-rule:nonzero;stroke:none"
           id="text86"><tspan
             x="0 5.045805 7.5687075 12.614512"
             y="0"
             id="tspan84">2.00</tspan></text></g></g><path
       d="M 370.79044,26.9558 V 83.64871"
       style="fill:none;stroke:#000000;stroke-width:0.28346;stroke-linecap:round;stroke-linejoin:round;stroke-miterlimit:10;stroke-dasharray:none;stroke-opacity:1"
       id="path88" /><g
       id="g90"><g
         id="g92"
         clip-path="url(#clipPath96)"><text
           transform="matrix(1,0,0,-1,198.00452,55.30225)"
           style="font-style:italic;font-variant:normal;font-weight:normal;font-stretch:normal;font-size:11.0078px;font-family:'Palatino Linotype';-inkscape-font-specification:PalatinoLinotype-Italic;writing-mode:lr-tb;fill:#000000;fill-opacity:1;fill-rule:nonzero;stroke:none"
           id="text100"><tspan
             x="0 6.72579"
             y="0"
             id="tspan98">EA</tspan></text></g></g><g
       id="g102"><g
         id="g104"
         clip-path="url(#clipPath108)"><text
           transform="matrix(1,0,0,-1,175.74075,93.84538)"
           style="font-style:italic;font-variant:normal;font-weight:normal;font-stretch:normal;font-size:11.0078px;font-family:'Palatino Linotype';-inkscape-font-specification:PalatinoLinotype-Italic;writing-mode:lr-tb;fill:#000000;fill-opacity:1;fill-rule:nonzero;stroke:none"
           id="text112"><tspan
             x="0"
             y="0"
             id="tspan110">m</tspan></text></g></g><g
       id="g114"><g
         id="g116"
         clip-path="url(#clipPath120)"><text
           transform="matrix(1,0,0,-1,277.77553,50.15116)"
           style="font-style:italic;font-variant:normal;font-weight:normal;font-stretch:normal;font-size:11.0078px;font-family:'Palatino Linotype';-inkscape-font-specification:PalatinoLinotype-Italic;writing-mode:lr-tb;fill:#000000;fill-opacity:1;fill-rule:nonzero;stroke:none"
           id="text124"><tspan
             x="0 6.72579"
             y="0"
             id="tspan122">EA</tspan></text></g></g><g
       id="g126"><g
         id="g128"
         clip-path="url(#clipPath132)"><text
           transform="matrix(1,0,0,-1,97.97759,50.15116)"
           style="font-style:italic;font-variant:normal;font-weight:normal;font-stretch:normal;font-size:11.0078px;font-family:'Palatino Linotype';-inkscape-font-specification:PalatinoLinotype-Italic;writing-mode:lr-tb;fill:#000000;fill-opacity:1;fill-rule:nonzero;stroke:none"
           id="text136"><tspan
             x="0 6.72579"
             y="0"
             id="tspan134">EA</tspan></text></g></g><g
       id="g138"><g
         id="g140"
         clip-path="url(#clipPath144)"><text
           transform="matrix(1,0,0,-1,97.97759,88.55704)"
           style="font-style:italic;font-variant:normal;font-weight:normal;font-stretch:normal;font-size:11.0078px;font-family:'Palatino Linotype';-inkscape-font-specification:PalatinoLinotype-Italic;writing-mode:lr-tb;fill:#000000;fill-opacity:1;fill-rule:nonzero;stroke:none"
           id="text148"><tspan
             x="0 6.72579"
             y="0"
             id="tspan146">EI</tspan></text></g></g><g
       id="g150"><g
         id="g152"
         clip-path="url(#clipPath156)"><text
           transform="matrix(1,0,0,-1,188.56248,126.13509)"
           style="font-style:italic;font-variant:normal;font-weight:normal;font-stretch:normal;font-size:11.0078px;font-family:'Palatino Linotype';-inkscape-font-specification:PalatinoLinotype-Italic;writing-mode:lr-tb;fill:#ff0000;fill-opacity:1;fill-rule:nonzero;stroke:none"
           id="text160"><tspan
             x="0 6.1203589 9.7859697 13.45158"
             y="0"
             id="tspan158">F(t)</tspan></text></g></g><path
       d="m 108.63113,92.19484 h 12.73819 v -8.54613 m 0,-1.27559 v 0 m 0,2.55117 v 0 m 1.27559,-1.27558 v 0 m -2.55116,0 v 0"
       style="fill:none;stroke:#000000;stroke-width:0.3685;stroke-linecap:round;stroke-linejoin:round;stroke-miterlimit:10;stroke-dasharray:none;stroke-opacity:1"
       id="path162" /><path
       d="m 121.36932,82.37312 c 0.7045,0 1.27559,0.57109 1.27559,1.27559 m 0,0 c 0,0.70449 -0.57109,1.27559 -1.27559,1.27559 m 0,0 c -0.70448,0 -1.27559,-0.5711 -1.27559,-1.27559 m 0,0 c 0,-0.7045 0.57111,-1.27559 1.27559,-1.27559 m 0,0 c 0,0 0,0 0,0"
       style="fill:none;stroke:#000000;stroke-width:0.3685;stroke-linecap:round;stroke-linejoin:round;stroke-miterlimit:10;stroke-dasharray:none;stroke-opacity:1"
       id="path164" /><path
       d="m 120.73154,84.74571 h 1.27559 l -0.63781,0.17858 z"
       style="fill:#000000;fill-opacity:1;fill-rule:nonzero;stroke:none"
       id="path166" /><path
       d="m 122.00713,84.74571 h -1.27559 l -0.45922,-0.45921 z"
       style="fill:#000000;fill-opacity:1;fill-rule:nonzero;stroke:none"
       id="path168" /><path
       d="m 122.00713,84.74571 -1.73481,-0.45921 h 2.19402 z"
       style="fill:#000000;fill-opacity:1;fill-rule:nonzero;stroke:none"
       id="path170" /><path
       d="m 122.46634,84.2865 h -2.19402 l -0.17857,-0.63779 z"
       style="fill:#000000;fill-opacity:1;fill-rule:nonzero;stroke:none"
       id="path172" /><path
       d="m 122.46634,84.2865 -2.37259,-0.63779 h 2.55116 z"
       style="fill:#000000;fill-opacity:1;fill-rule:nonzero;stroke:none"
       id="path174" /><path
       d="m 122.64491,83.64871 h -2.55116 l 0.17857,-0.6378 z"
       style="fill:#000000;fill-opacity:1;fill-rule:nonzero;stroke:none"
       id="path176" /><path
       d="m 122.64491,83.64871 -2.37259,-0.6378 h 2.19402 z"
       style="fill:#000000;fill-opacity:1;fill-rule:nonzero;stroke:none"
       id="path178" /><path
       d="m 122.46634,83.01091 h -2.19402 l 0.45922,-0.45921 z"
       style="fill:#000000;fill-opacity:1;fill-rule:nonzero;stroke:none"
       id="path180" /><path
       d="m 122.46634,83.01091 -1.7348,-0.45921 h 1.27559 z"
       style="fill:#000000;fill-opacity:1;fill-rule:nonzero;stroke:none"
       id="path182" /><path
       d="m 122.00713,82.5517 h -1.27559 l 0.63778,-0.17858 z"
       style="fill:#000000;fill-opacity:1;fill-rule:nonzero;stroke:none"
       id="path184" /></g></svg>
