<?xml version="1.0" encoding="UTF-8" standalone="no"?>
<svg
   xmlns:dc="http://purl.org/dc/elements/1.1/"
   xmlns:cc="http://creativecommons.org/ns#"
   xmlns:rdf="http://www.w3.org/1999/02/22-rdf-syntax-ns#"
   xmlns:svg="http://www.w3.org/2000/svg"
   xmlns="http://www.w3.org/2000/svg"
   version="1.1"
   id="svg2"
   xml:space="preserve"
   width="566.92932"
   height="188.976"
   viewBox="0 0 566.92932 188.976"><metadata
     id="metadata8"><rdf:RDF><cc:Work
         rdf:about=""><dc:format>image/svg+xml</dc:format><dc:type
           rdf:resource="http://purl.org/dc/dcmitype/StillImage" /></cc:Work></rdf:RDF></metadata><defs
     id="defs6"><clipPath
       clipPathUnits="userSpaceOnUse"
       id="clipPath66"><path
         d="M -0.00426,-0.00142 V 141.7337 H 425.20111 V -0.00142 H -0.00426"
         clip-rule="evenodd"
         id="path64" /></clipPath><clipPath
       clipPathUnits="userSpaceOnUse"
       id="clipPath78"><path
         d="M -0.00426,-0.00142 V 141.7337 H 425.20111 V -0.00142 H -0.00426"
         clip-rule="evenodd"
         id="path76" /></clipPath><clipPath
       clipPathUnits="userSpaceOnUse"
       id="clipPath90"><path
         d="M -0.00426,-0.00142 V 141.7337 H 425.20111 V -0.00142 H -0.00426"
         clip-rule="evenodd"
         id="path88" /></clipPath><clipPath
       clipPathUnits="userSpaceOnUse"
       id="clipPath102"><path
         d="M -0.00426,-0.00142 V 141.7337 H 425.20111 V -0.00142 H -0.00426"
         clip-rule="evenodd"
         id="path100" /></clipPath><clipPath
       clipPathUnits="userSpaceOnUse"
       id="clipPath114"><path
         d="M -0.00426,-0.00142 V 141.7337 H 425.20111 V -0.00142 H -0.00426"
         clip-rule="evenodd"
         id="path112" /></clipPath><clipPath
       clipPathUnits="userSpaceOnUse"
       id="clipPath126"><path
         d="M -0.00426,-0.00142 V 141.7337 H 425.20111 V -0.00142 H -0.00426"
         clip-rule="evenodd"
         id="path124" /></clipPath><clipPath
       clipPathUnits="userSpaceOnUse"
       id="clipPath138"><path
         d="M -0.00426,-0.00142 V 141.7337 H 425.20111 V -0.00142 H -0.00426"
         clip-rule="evenodd"
         id="path136" /></clipPath><clipPath
       clipPathUnits="userSpaceOnUse"
       id="clipPath150"><path
         d="M -0.00426,-0.00142 V 141.7337 H 425.20111 V -0.00142 H -0.00426"
         clip-rule="evenodd"
         id="path148" /></clipPath><clipPath
       clipPathUnits="userSpaceOnUse"
       id="clipPath162"><path
         d="M -0.00426,-0.00142 V 141.7337 H 425.20111 V -0.00142 H -0.00426"
         clip-rule="evenodd"
         id="path160" /></clipPath><clipPath
       clipPathUnits="userSpaceOnUse"
       id="clipPath178"><path
         d="M -0.00426,-0.00142 V 141.7337 H 425.20111 V -0.00142 H -0.00426"
         clip-rule="evenodd"
         id="path176" /></clipPath><clipPath
       clipPathUnits="userSpaceOnUse"
       id="clipPath190"><path
         d="M -0.00426,-0.00142 V 141.7337 H 425.20111 V -0.00142 H -0.00426"
         clip-rule="evenodd"
         id="path188" /></clipPath><clipPath
       clipPathUnits="userSpaceOnUse"
       id="clipPath204"><path
         d="M -0.00426,-0.00142 V 141.7337 H 425.20111 V -0.00142 H -0.00426"
         clip-rule="evenodd"
         id="path202" /></clipPath><clipPath
       clipPathUnits="userSpaceOnUse"
       id="clipPath216"><path
         d="M -0.00426,-0.00142 V 141.7337 H 425.20111 V -0.00142 H -0.00426"
         clip-rule="evenodd"
         id="path214" /></clipPath><clipPath
       clipPathUnits="userSpaceOnUse"
       id="clipPath228"><path
         d="M -0.00426,-0.00142 V 141.7337 H 425.20111 V -0.00142 H -0.00426"
         clip-rule="evenodd"
         id="path226" /></clipPath><clipPath
       clipPathUnits="userSpaceOnUse"
       id="clipPath240"><path
         d="M -0.00426,-0.00142 V 141.7337 H 425.20111 V -0.00142 H -0.00426"
         clip-rule="evenodd"
         id="path238" /></clipPath><clipPath
       clipPathUnits="userSpaceOnUse"
       id="clipPath252"><path
         d="M -0.00426,-0.00142 V 141.7337 H 425.20111 V -0.00142 H -0.00426"
         clip-rule="evenodd"
         id="path250" /></clipPath></defs><g
     id="g10"
     transform="matrix(1.3333333,0,0,-1.3333333,0,188.976)"><path
       d="m 214.01874,102.0215 -1.13367,1.61902 -1.39755,1.39755 -1.61899,1.13364 -1.79129,0.83528 -1.90909,0.51155 -1.96893,0.17226 -1.9689,-0.17226 -1.90912,-0.51155 -1.79126,-0.83528 -1.61902,-1.13364 -1.39755,-1.39755 -1.13364,-1.61902 -0.8353,-1.79126 -0.51153,-1.9091 -0.17224,-1.96894 0.17224,-1.96891 0.51153,-1.90911 0.8353,-1.79126 1.13364,-1.61902 1.39755,-1.39755 1.61902,-1.13364 1.79126,-0.83528 1.90912,-0.51155 1.9689,-0.17225 1.96893,0.17225 1.90909,0.51155 1.79129,0.83528 1.61899,1.13364 1.39755,1.39755 1.13367,1.61902 0.83526,1.79126 0.51154,1.90911 0.17227,1.96891 -0.17227,1.96894 -0.51154,1.9091 z"
       style="fill:#dedede;fill-opacity:1;fill-rule:nonzero;stroke:none"
       id="path12" /><path
       d="m 209.10898,42.49394 -0.56684,0.80951 -0.69876,0.69878 -0.80951,0.56682 -0.89563,0.41764 -0.95455,0.25577 -0.98447,0.08612 -0.98447,-0.08612 -0.95453,-0.25577 -0.89563,-0.41764 -0.80951,-0.56682 -0.69879,-0.69878 -0.5668,-0.80951 -0.41766,-0.89563 -0.25577,-0.95456 -0.0861,-0.98445 0.0861,-0.98446 0.25577,-0.95455 0.41766,-0.89564 0.5668,-0.8095 0.69879,-0.69879 0.80951,-0.56682 0.89563,-0.41763 0.95453,-0.25577 0.98447,-0.08613 0.98447,0.08613 0.95455,0.25577 0.89563,0.41763 0.80951,0.56682 0.69876,0.69879 0.56684,0.8095 0.41763,0.89564 0.25577,0.95455 0.0862,0.98446 -0.0862,0.98445 -0.25577,0.95456 z"
       style="fill:#dedede;fill-opacity:1;fill-rule:nonzero;stroke:none"
       id="path14" /><path
       d="m 62.46693,96.3522 -3.00659,-3.00659 m 3.00659,3.00659 3.00661,-3.00659"
       style="fill:none;stroke:#000000;stroke-width:0.28346;stroke-linecap:round;stroke-linejoin:round;stroke-miterlimit:10;stroke-dasharray:none;stroke-opacity:1"
       id="path16" /><path
       d="M 62.46693,96.3522 H 345.93149"
       style="fill:none;stroke:#000000;stroke-width:0.85039;stroke-linecap:round;stroke-linejoin:round;stroke-miterlimit:10;stroke-dasharray:none;stroke-opacity:1"
       id="path18" /><path
       d="m 63.77953,95.50182 h 4.25196 m 2.83466,0 h 4.25197 m 2.83464,0 h 4.25197 m 2.83464,0 h 4.25197 m 2.83465,0 h 4.25197 m 2.83464,0 h 4.25197 m 2.83464,0 h 4.25197 m 2.83465,0 h 4.25197 m 2.83464,0 h 4.25197 m 2.83464,0 h 4.25199 m 2.83465,0 h 4.25195 m 2.83466,0 h 4.25195 m 2.83466,0 h 4.25195 m 2.83466,0 h 4.25198 m 2.83463,0 h 4.25198 m 2.83463,0 h 4.25198 m 2.83465,0 h 4.25196 m 2.83465,0 h 4.25196 m 2.83465,0 h 4.25196 m 2.83465,0 h 4.25199 m 2.83462,0 h 4.25198 m 2.83463,0 h 4.25198 m 2.83466,0 h 4.25195 m 2.83466,0 h 4.25195 m 2.83466,0 h 4.25195 m 2.83466,0 h 4.25198 m 2.83462,0 h 4.25199 m 2.83462,0 h 4.25199 m 2.83462,0 h 4.25199 m 2.83465,0 h 4.25195 m 2.83466,0 h 4.25195 m 2.83466,0 h 4.25195 m 2.83466,0 h 4.25198 m 2.83463,0 h 4.25198 m 2.83463,0 h 4.25198 m 2.83466,0 h 4.25195 m 2.83465,0 h 4.25196 m 2.83465,0 h 4.25196 m 2.83465,0 h 4.25199 m 2.83462,0 h 4.25198 m -281.94252,0 v 0 m 283.46456,0 v 0"
       style="fill:none;stroke:#000000;stroke-width:0.3685;stroke-linecap:round;stroke-linejoin:round;stroke-miterlimit:10;stroke-dasharray:none;stroke-opacity:1"
       id="path20" /><path
       d="m 356.9866,96.3522 h 7.08664"
       style="fill:none;stroke:#000000;stroke-width:0.28346;stroke-linecap:round;stroke-linejoin:round;stroke-miterlimit:10;stroke-dasharray:none;stroke-opacity:1"
       id="path22" /><path
       d="m 215.53781,96.3522 c 0,6.26213 -5.07645,11.3386 -11.33859,11.3386 m 0,0 c -6.26212,0 -11.33856,-5.07647 -11.33856,-11.3386 m 0,0 c 0,-6.26211 5.07644,-11.33857 11.33856,-11.33857 m 0,0 c 6.26214,0 11.33859,5.07646 11.33859,11.33857"
       style="fill:none;stroke:#000000;stroke-width:0.99213;stroke-linecap:round;stroke-linejoin:round;stroke-miterlimit:10;stroke-dasharray:none;stroke-opacity:1"
       id="path24" /><path
       d="M 204.19922,124.69867 V 110.8089 m 0,5.45669 v 0.38977 m 0,-5.84646 v 0 l 0.77954,5.45669 h -1.55905 l 0.77951,-5.45669"
       style="fill:none;stroke:#ff0000;stroke-width:0.28346;stroke-linecap:round;stroke-linejoin:round;stroke-miterlimit:10;stroke-dasharray:none;stroke-opacity:1"
       id="path26" /><path
       d="m 203.41971,116.26559 0.77951,-5.45669 0.77954,5.45669 z"
       style="fill:#ff0000;fill-opacity:1;fill-rule:nonzero;stroke:none"
       id="path28" /><path
       d="m 62.46693,96.3522 -6.01318,-6.01318 m 6.01318,6.01318 6.0132,-6.01318 m -12.02638,0 h 12.02638"
       style="fill:none;stroke:#000000;stroke-width:0.28346;stroke-linecap:round;stroke-linejoin:round;stroke-miterlimit:10;stroke-dasharray:none;stroke-opacity:1"
       id="path30" /><path
       d="m 63.88426,96.3522 c 0,0.78278 -0.63455,1.41733 -1.41733,1.41733 m 0,0 c -0.78276,0 -1.41731,-0.63455 -1.41731,-1.41733 m 0,0 c 0,-0.78276 0.63455,-1.41731 1.41731,-1.41731 m 0,0 c 0.78278,0 1.41733,0.63455 1.41733,1.41731"
       style="fill:none;stroke:#000000;stroke-width:0.3685;stroke-linecap:round;stroke-linejoin:round;stroke-miterlimit:10;stroke-dasharray:none;stroke-opacity:1"
       id="path32" /><path
       d="m 345.93149,96.3522 -6.01319,-6.01318 m 6.01319,6.01318 6.01321,-6.01318 m -12.0264,0 h 12.0264"
       style="fill:none;stroke:#000000;stroke-width:0.28346;stroke-linecap:round;stroke-linejoin:round;stroke-miterlimit:10;stroke-dasharray:none;stroke-opacity:1"
       id="path34" /><path
       d="m 347.34882,96.3522 c 0,0.78278 -0.63456,1.41733 -1.41733,1.41733 m 0,0 c -0.78275,0 -1.4173,-0.63455 -1.4173,-1.41733 m 0,0 c 0,-0.78276 0.63455,-1.41731 1.4173,-1.41731 m 0,0 c 0.78277,0 1.41733,0.63455 1.41733,1.41731"
       style="fill:none;stroke:#000000;stroke-width:0.3685;stroke-linecap:round;stroke-linejoin:round;stroke-miterlimit:10;stroke-dasharray:none;stroke-opacity:1"
       id="path36" /><path
       d="m 62.46693,96.3522 -6.01318,-6.01318 m 6.01318,6.01318 6.0132,-6.01318 m -12.02638,0 H 68.48013 M 54.40659,88.10774 h 15.87402 m -7.81368,41.40984 v 0 h 14.17324 m -5.95276,0 h -0.42519 m 6.37795,0 v 0 l -5.95276,0.85037 v -1.70077 l 5.95276,0.8504"
       style="fill:none;stroke:#000000;stroke-width:0.28346;stroke-linecap:round;stroke-linejoin:round;stroke-miterlimit:10;stroke-dasharray:none;stroke-opacity:1"
       id="path38" /><path
       d="m 70.68741,128.66718 5.95276,0.8504 -5.95276,0.85037 z"
       style="fill:#000000;fill-opacity:1;fill-rule:nonzero;stroke:none"
       id="path40" /><path
       d="m 61.04962,129.51758 c 0,-0.78278 0.63455,-1.41733 1.41731,-1.41733 m 0,0 c 0.78278,0 1.41733,0.63455 1.41733,1.41733 m 0,0 c 0,0.78274 -0.63455,1.41733 -1.41733,1.41733 m 0,0 c -0.78276,0 -1.41731,-0.63459 -1.41731,-1.41733"
       style="fill:none;stroke:#000000;stroke-width:0.28346;stroke-linecap:round;stroke-linejoin:round;stroke-miterlimit:10;stroke-dasharray:none;stroke-opacity:1"
       id="path42" /><path
       d="m 62.46693,129.51758 v -14.17325 m 0,5.95276 v 0.4252 m 0,-6.37796 v 0 l 0.85041,5.95276 h -1.70078 l 0.85037,-5.95276"
       style="fill:none;stroke:#000000;stroke-width:0.28346;stroke-linecap:round;stroke-linejoin:round;stroke-miterlimit:10;stroke-dasharray:none;stroke-opacity:1"
       id="path44" /><path
       d="m 61.61656,121.29709 0.85037,-5.95276 0.85041,5.95276 z"
       style="fill:#000000;fill-opacity:1;fill-rule:nonzero;stroke:none"
       id="path46" /><path
       d="M 360.52994,96.3522 V 85.58055 m 0,5.95276 v 0.4252 m 0,-6.37796 v 0 l 0.85037,5.95276 h -1.70078 l 0.85041,-5.95276"
       style="fill:none;stroke:#000000;stroke-width:0.28346;stroke-linecap:round;stroke-linejoin:round;stroke-miterlimit:10;stroke-dasharray:none;stroke-opacity:1"
       id="path48" /><path
       d="m 359.67953,91.53331 0.85041,-5.95276 0.85037,5.95276 z"
       style="fill:#000000;fill-opacity:1;fill-rule:nonzero;stroke:none"
       id="path50" /><path
       d="m 209.86853,39.6593 c 0,3.13106 -2.53824,5.66928 -5.66931,5.66928 m 0,0 c -3.13104,0 -5.66928,-2.53822 -5.66928,-5.66928 m 0,0 c 0,-3.13107 2.53824,-5.66929 5.66928,-5.66929 m 0,0 c 3.13107,0 5.66931,2.53822 5.66931,5.66929"
       style="fill:none;stroke:#000000;stroke-width:0.99213;stroke-linecap:round;stroke-linejoin:round;stroke-miterlimit:10;stroke-dasharray:none;stroke-opacity:1"
       id="path52" /><path
       d="m 204.19922,81.04512 v 3.96851 m 0,-3.96851 10.23636,-0.97478 -10.23636,-0.97477 -10.23636,-0.9748 10.23636,-0.97477 10.23636,-0.97478 -10.23636,-0.97479 -10.23636,-0.97478 10.23636,-0.97479 10.23636,-0.97478 -10.23636,-0.97478 -10.23636,-0.97479 10.23636,-0.97478 10.23636,-0.97477 -10.23636,-0.9748 -10.23636,-0.97477 10.23636,-0.97478 10.23636,-0.97479 -10.23636,-0.97478 -10.23636,-0.97478 10.23636,-0.97479 10.23636,-0.97478 -10.23636,-0.97479 -10.23636,-0.97478 10.23636,-0.97478 10.23636,-0.97479 -10.23636,-0.97477 -10.23636,-0.97478 10.23636,-0.97479 10.23636,-0.97478 -10.23636,-0.97478 -10.23636,-0.97479 10.23636,-0.97478 v -4.5235"
       style="fill:none;stroke:#000000;stroke-width:0.3685;stroke-linecap:round;stroke-linejoin:round;stroke-miterlimit:10;stroke-dasharray:none;stroke-opacity:1"
       id="path54" /><path
       d="m 356.9866,39.6593 h 7.08664 m -3.5433,0 V 28.88765 m 0,5.95274 v 0.4252 m 0,-6.37794 v 0 l 0.85037,5.95274 h -1.70078 l 0.85041,-5.95274"
       style="fill:none;stroke:#000000;stroke-width:0.28346;stroke-linecap:round;stroke-linejoin:round;stroke-miterlimit:10;stroke-dasharray:none;stroke-opacity:1"
       id="path56" /><path
       d="m 359.67953,34.84039 0.85041,-5.95274 0.85037,5.95274 z"
       style="fill:#000000;fill-opacity:1;fill-rule:nonzero;stroke:none"
       id="path58" /><g
       id="g60"><g
         id="g62"
         clip-path="url(#clipPath66)"><text
           transform="matrix(1,0,0,-1,174.7695,109.36306)"
           style="font-style:italic;font-variant:normal;font-weight:normal;font-stretch:normal;font-size:11.0078px;font-family:'Palatino Linotype';-inkscape-font-specification:PalatinoLinotype-Italic;writing-mode:lr-tb;fill:#000000;fill-opacity:1;fill-rule:nonzero;stroke:none"
           id="text70"><tspan
             x="0"
             y="0"
             id="tspan68">M</tspan></text></g></g><g
       id="g72"><g
         id="g74"
         clip-path="url(#clipPath78)"><text
           transform="matrix(1,0,0,-1,185.47833,104.81581)"
           style="font-style:italic;font-variant:normal;font-weight:normal;font-stretch:normal;font-size:6.6047px;font-family:'Palatino Linotype';-inkscape-font-specification:PalatinoLinotype-Italic;writing-mode:lr-tb;fill:#000000;fill-opacity:1;fill-rule:nonzero;stroke:none"
           id="text82"><tspan
             x="0"
             y="0"
             id="tspan80">H</tspan></text></g></g><g
       id="g84"><g
         id="g86"
         clip-path="url(#clipPath90)"><text
           transform="matrix(1,0,0,-1,59.60867,107.54906)"
           style="font-style:italic;font-variant:normal;font-weight:normal;font-stretch:normal;font-size:11.0078px;font-family:'Palatino Linotype';-inkscape-font-specification:PalatinoLinotype-Italic;writing-mode:lr-tb;fill:#000000;fill-opacity:1;fill-rule:nonzero;stroke:none"
           id="text94"><tspan
             x="0"
             y="0"
             id="tspan92">z</tspan></text></g></g><g
       id="g96"><g
         id="g98"
         clip-path="url(#clipPath102)"><text
           transform="matrix(1,0,0,-1,79.06002,126.80107)"
           style="font-style:italic;font-variant:normal;font-weight:normal;font-stretch:normal;font-size:11.0078px;font-family:'Palatino Linotype';-inkscape-font-specification:PalatinoLinotype-Italic;writing-mode:lr-tb;fill:#000000;fill-opacity:1;fill-rule:nonzero;stroke:none"
           id="text106"><tspan
             x="0"
             y="0"
             id="tspan104">x</tspan></text></g></g><g
       id="g108"><g
         id="g110"
         clip-path="url(#clipPath114)"><text
           transform="matrix(1,0,0,-1,56.23072,132.37582)"
           style="font-style:italic;font-variant:normal;font-weight:normal;font-stretch:normal;font-size:11.0078px;font-family:'Palatino Linotype';-inkscape-font-specification:PalatinoLinotype-Italic;writing-mode:lr-tb;fill:#000000;fill-opacity:1;fill-rule:nonzero;stroke:none"
           id="text118"><tspan
             x="0"
             y="0"
             id="tspan116">y</tspan></text></g></g><g
       id="g120"><g
         id="g122"
         clip-path="url(#clipPath126)"><text
           transform="matrix(1,0,0,-1,73.78267,113.39944)"
           style="font-variant:normal;font-weight:normal;font-stretch:normal;font-size:11.1008px;font-family:'Palatino Linotype';-inkscape-font-specification:PalatinoLinotype-Roman;writing-mode:lr-tb;fill:#000000;fill-opacity:1;fill-rule:nonzero;stroke:none"
           id="text130"><tspan
             x="0 3.6965563 13.498536"
             y="0"
             id="tspan128">[m]</tspan></text></g></g><g
       id="g132"><g
         id="g134"
         clip-path="url(#clipPath138)"><text
           transform="matrix(1,0,0,-1,124.38092,83.23516)"
           style="font-style:italic;font-variant:normal;font-weight:normal;font-stretch:normal;font-size:11.0078px;font-family:'Palatino Linotype';-inkscape-font-specification:PalatinoLinotype-Italic;writing-mode:lr-tb;fill:#000000;fill-opacity:1;fill-rule:nonzero;stroke:none"
           id="text142"><tspan
             x="0 6.72579"
             y="0"
             id="tspan140">EI</tspan></text></g></g><g
       id="g144"><g
         id="g146"
         clip-path="url(#clipPath150)"><text
           transform="matrix(1,0,0,-1,174.7695,52.67014)"
           style="font-style:italic;font-variant:normal;font-weight:normal;font-stretch:normal;font-size:11.0078px;font-family:'Palatino Linotype';-inkscape-font-specification:PalatinoLinotype-Italic;writing-mode:lr-tb;fill:#000000;fill-opacity:1;fill-rule:nonzero;stroke:none"
           id="text154"><tspan
             x="0"
             y="0"
             id="tspan152">M</tspan></text></g></g><g
       id="g156"><g
         id="g158"
         clip-path="url(#clipPath162)"><text
           transform="matrix(1,0,0,-1,185.47833,48.1229)"
           style="font-style:italic;font-variant:normal;font-weight:normal;font-stretch:normal;font-size:6.6047px;font-family:'Palatino Linotype';-inkscape-font-specification:PalatinoLinotype-Italic;writing-mode:lr-tb;fill:#000000;fill-opacity:1;fill-rule:nonzero;stroke:none"
           id="text166"><tspan
             x="0"
             y="0"
             id="tspan164">T</tspan></text></g></g><path
       d="m 62.46693,2.82565 2.97638,0.4252 V 2.40047 l -2.97638,0.42518 m 141.73229,0 -2.97638,0.4252 V 2.40047 l 2.97638,0.42518 2.97638,0.4252 V 2.40047 l -2.97638,0.42518 m 141.73227,0 -2.97638,0.4252 V 2.40047 l 2.97638,0.42518"
       style="fill:none;stroke:#000000;stroke-width:0.56693;stroke-linecap:round;stroke-linejoin:round;stroke-miterlimit:10;stroke-dasharray:none;stroke-opacity:1"
       id="path168" /><path
       d="m 62.46693,2.82565 v 2.12599 m 0,-2.12599 V 0.69968 m 141.73229,2.12597 v 2.12599 m 0,-2.12599 V 0.69968 m 0,2.12597 v 2.12599 m 0,-2.12599 V 0.69968 m 141.73227,2.12597 v 2.12599 m 0,-2.12599 V 0.69968 M 62.46693,2.82565 V 18.68292 M 204.19922,2.82565 V 4.59731 18.68292 M 345.93149,2.82565 V 18.68292 M 62.46693,2.82565 v 0 m 283.46456,0 v 0"
       style="fill:none;stroke:#000000;stroke-width:0.28346;stroke-linecap:round;stroke-linejoin:round;stroke-miterlimit:10;stroke-dasharray:none;stroke-opacity:1"
       id="path170" /><g
       id="g172"><g
         id="g174"
         clip-path="url(#clipPath178)"><text
           transform="matrix(1,0,0,-1,124.5125,5.86134)"
           style="font-variant:normal;font-weight:normal;font-stretch:normal;font-size:10.0916px;font-family:'Palatino Linotype';-inkscape-font-specification:PalatinoLinotype-Roman;writing-mode:lr-tb;fill:#000000;fill-opacity:1;fill-rule:nonzero;stroke:none"
           id="text182"><tspan
             x="0 5.045805 7.5687075 12.614512"
             y="0"
             id="tspan180">5.00</tspan></text></g></g><g
       id="g184"><g
         id="g186"
         clip-path="url(#clipPath190)"><text
           transform="matrix(1,0,0,-1,266.2448,5.86134)"
           style="font-variant:normal;font-weight:normal;font-stretch:normal;font-size:10.0916px;font-family:'Palatino Linotype';-inkscape-font-specification:PalatinoLinotype-Roman;writing-mode:lr-tb;fill:#000000;fill-opacity:1;fill-rule:nonzero;stroke:none"
           id="text194"><tspan
             x="0 5.045805 7.5687075 12.614512"
             y="0"
             id="tspan192">5.00</tspan></text></g></g><path
       d="m 62.46693,2.82565 h 1.96746 139.76483 141.73227"
       style="fill:none;stroke:#000000;stroke-width:0.28346;stroke-linecap:round;stroke-linejoin:round;stroke-miterlimit:10;stroke-dasharray:none;stroke-opacity:1"
       id="path196" /><g
       id="g198"><g
         id="g200"
         clip-path="url(#clipPath204)"><text
           transform="matrix(1,0,0,-1,358.1879,71.93977)"
           style="font-style:italic;font-variant:normal;font-weight:normal;font-stretch:normal;font-size:11.0078px;font-family:'Palatino Linotype';-inkscape-font-specification:PalatinoLinotype-Italic;writing-mode:lr-tb;fill:#000000;fill-opacity:1;fill-rule:nonzero;stroke:none"
           id="text208"><tspan
             x="0"
             y="0"
             id="tspan206">u</tspan></text></g></g><g
       id="g210"><g
         id="g212"
         clip-path="url(#clipPath216)"><text
           transform="matrix(1,0,0,-1,365.01569,67.39253)"
           style="font-style:italic;font-variant:normal;font-weight:normal;font-stretch:normal;font-size:6.6047px;font-family:'Palatino Linotype';-inkscape-font-specification:PalatinoLinotype-Italic;writing-mode:lr-tb;fill:#000000;fill-opacity:1;fill-rule:nonzero;stroke:none"
           id="text220"><tspan
             x="0"
             y="0"
             id="tspan218">H</tspan></text></g></g><g
       id="g222"><g
         id="g224"
         clip-path="url(#clipPath228)"><text
           transform="matrix(1,0,0,-1,358.1879,15.24686)"
           style="font-style:italic;font-variant:normal;font-weight:normal;font-stretch:normal;font-size:11.0078px;font-family:'Palatino Linotype';-inkscape-font-specification:PalatinoLinotype-Italic;writing-mode:lr-tb;fill:#000000;fill-opacity:1;fill-rule:nonzero;stroke:none"
           id="text232"><tspan
             x="0"
             y="0"
             id="tspan230">u</tspan></text></g></g><g
       id="g234"><g
         id="g236"
         clip-path="url(#clipPath240)"><text
           transform="matrix(1,0,0,-1,365.01569,10.69962)"
           style="font-style:italic;font-variant:normal;font-weight:normal;font-stretch:normal;font-size:6.6047px;font-family:'Palatino Linotype';-inkscape-font-specification:PalatinoLinotype-Italic;writing-mode:lr-tb;fill:#000000;fill-opacity:1;fill-rule:nonzero;stroke:none"
           id="text244"><tspan
             x="0"
             y="0"
             id="tspan242">T</tspan></text></g></g><g
       id="g246"><g
         id="g248"
         clip-path="url(#clipPath252)"><text
           transform="matrix(1,0,0,-1,197.43721,129.89132)"
           style="font-style:italic;font-variant:normal;font-weight:normal;font-stretch:normal;font-size:11.0078px;font-family:'Palatino Linotype';-inkscape-font-specification:PalatinoLinotype-Italic;writing-mode:lr-tb;fill:#ff0000;fill-opacity:1;fill-rule:nonzero;stroke:none"
           id="text256"><tspan
             x="0 6.1203589 9.7859697 13.45158"
             y="0"
             id="tspan254">F(t)</tspan></text></g></g><path
       d="m 135.03448,86.87296 h 12.75589 v 9.47924 m 0,1.27561 v 0 m 0,-2.55118 v 0 m -1.27557,1.27557 v 0 m 2.55118,0 v 0"
       style="fill:none;stroke:#000000;stroke-width:0.28346;stroke-linecap:round;stroke-linejoin:round;stroke-miterlimit:10;stroke-dasharray:none;stroke-opacity:1"
       id="path258" /><path
       d="m 147.79037,97.62781 c -0.70446,0 -1.27557,-0.57111 -1.27557,-1.27561 m 0,0 c 0,-0.70448 0.57111,-1.27559 1.27557,-1.27559 m 0,0 c 0.7045,0 1.27561,0.57111 1.27561,1.27559 m 0,0 c 0,0.7045 -0.57111,1.27561 -1.27561,1.27561 m 0,0 c 0,0 0,0 0,0"
       style="fill:none;stroke:#000000;stroke-width:0.28346;stroke-linecap:round;stroke-linejoin:round;stroke-miterlimit:10;stroke-dasharray:none;stroke-opacity:1"
       id="path260" /><path
       d="m 148.42816,95.25522 h -1.27557 l 0.63778,-0.17859 z"
       style="fill:#000000;fill-opacity:1;fill-rule:nonzero;stroke:none"
       id="path262" /><path
       d="m 147.15259,95.25522 h 1.27557 l 0.45923,0.4592 z"
       style="fill:#000000;fill-opacity:1;fill-rule:nonzero;stroke:none"
       id="path264" /><path
       d="m 147.15259,95.25522 1.7348,0.4592 h -2.194 z"
       style="fill:#000000;fill-opacity:1;fill-rule:nonzero;stroke:none"
       id="path266" /><path
       d="m 146.69339,95.71442 h 2.194 l 0.17859,0.63778 z"
       style="fill:#000000;fill-opacity:1;fill-rule:nonzero;stroke:none"
       id="path268" /><path
       d="m 146.69339,95.71442 2.37259,0.63778 h -2.55118 z"
       style="fill:#000000;fill-opacity:1;fill-rule:nonzero;stroke:none"
       id="path270" /><path
       d="m 146.5148,96.3522 h 2.55118 l -0.17859,0.63781 z"
       style="fill:#000000;fill-opacity:1;fill-rule:nonzero;stroke:none"
       id="path272" /><path
       d="m 146.5148,96.3522 2.37259,0.63781 h -2.194 z"
       style="fill:#000000;fill-opacity:1;fill-rule:nonzero;stroke:none"
       id="path274" /><path
       d="m 146.69339,96.99001 h 2.194 l -0.45923,0.45921 z"
       style="fill:#000000;fill-opacity:1;fill-rule:nonzero;stroke:none"
       id="path276" /><path
       d="m 146.69339,96.99001 1.73477,0.45921 h -1.27557 z"
       style="fill:#000000;fill-opacity:1;fill-rule:nonzero;stroke:none"
       id="path278" /><path
       d="m 147.15259,97.44922 h 1.27557 l -0.63779,0.17859 z"
       style="fill:#000000;fill-opacity:1;fill-rule:nonzero;stroke:none"
       id="path280" /></g></svg>
