<?xml version="1.0" encoding="UTF-8" standalone="no"?>
<svg
   xmlns:dc="http://purl.org/dc/elements/1.1/"
   xmlns:cc="http://creativecommons.org/ns#"
   xmlns:rdf="http://www.w3.org/1999/02/22-rdf-syntax-ns#"
   xmlns:svg="http://www.w3.org/2000/svg"
   xmlns="http://www.w3.org/2000/svg"
   version="1.1"
   id="svg2"
   xml:space="preserve"
   width="566.92932"
   height="113.38587"
   viewBox="0 0 566.92932 113.38587"><metadata
     id="metadata8"><rdf:RDF><cc:Work
         rdf:about=""><dc:format>image/svg+xml</dc:format><dc:type
           rdf:resource="http://purl.org/dc/dcmitype/StillImage" /></cc:Work></rdf:RDF></metadata><defs
     id="defs6"><clipPath
       clipPathUnits="userSpaceOnUse"
       id="clipPath44"><path
         d="M -0.00426,-8.5e-4 V 85.04022 H 425.20111 V -8.5e-4 H -0.00426"
         clip-rule="evenodd"
         id="path42" /></clipPath><clipPath
       clipPathUnits="userSpaceOnUse"
       id="clipPath56"><path
         d="M -0.00426,-8.5e-4 V 85.04022 H 425.20111 V -8.5e-4 H -0.00426"
         clip-rule="evenodd"
         id="path54" /></clipPath><clipPath
       clipPathUnits="userSpaceOnUse"
       id="clipPath68"><path
         d="M -0.00426,-8.5e-4 V 85.04022 H 425.20111 V -8.5e-4 H -0.00426"
         clip-rule="evenodd"
         id="path66" /></clipPath><clipPath
       clipPathUnits="userSpaceOnUse"
       id="clipPath84"><path
         d="M -0.00426,-8.5e-4 V 85.04022 H 425.20111 V -8.5e-4 H -0.00426"
         clip-rule="evenodd"
         id="path82" /></clipPath><clipPath
       clipPathUnits="userSpaceOnUse"
       id="clipPath96"><path
         d="M -0.00426,-8.5e-4 V 85.04022 H 425.20111 V -8.5e-4 H -0.00426"
         clip-rule="evenodd"
         id="path94" /></clipPath><clipPath
       clipPathUnits="userSpaceOnUse"
       id="clipPath108"><path
         d="M -0.00426,-8.5e-4 V 85.04022 H 425.20111 V -8.5e-4 H -0.00426"
         clip-rule="evenodd"
         id="path106" /></clipPath><clipPath
       clipPathUnits="userSpaceOnUse"
       id="clipPath122"><path
         d="M -0.00426,-8.5e-4 V 85.04022 H 425.20111 V -8.5e-4 H -0.00426"
         clip-rule="evenodd"
         id="path120" /></clipPath><clipPath
       clipPathUnits="userSpaceOnUse"
       id="clipPath134"><path
         d="M -0.00426,-8.5e-4 V 85.04022 H 425.20111 V -8.5e-4 H -0.00426"
         clip-rule="evenodd"
         id="path132" /></clipPath><clipPath
       clipPathUnits="userSpaceOnUse"
       id="clipPath146"><path
         d="M -0.00426,-8.5e-4 V 85.04022 H 425.20111 V -8.5e-4 H -0.00426"
         clip-rule="evenodd"
         id="path144" /></clipPath></defs><g
     id="g10"
     transform="matrix(1.3333333,0,0,-1.3333333,0,113.38587)"><path
       d="m 160.81525,54.71281 -0.56681,0.80951 -0.69879,0.69878 -0.80951,0.56682 -0.89563,0.41765 -0.95456,0.25576 -0.98443,0.08614 -0.98447,-0.08614 -0.95456,-0.25576 -0.89563,-0.41765 -0.80951,-0.56682 -0.69879,-0.69878 -0.5668,-0.80951 -0.41764,-0.89563 -0.25579,-0.95454 -0.0861,-0.98447 0.0861,-0.98446 0.25579,-0.95455 0.41764,-0.89563 0.5668,-0.80951 0.69879,-0.69877 0.80951,-0.56682 0.89563,-0.41765 0.95456,-0.25577 0.98447,-0.08613 0.98443,0.08613 0.95456,0.25577 0.89563,0.41765 0.80951,0.56682 0.69879,0.69877 0.56681,0.80951 0.41763,0.89563 0.2558,0.95455 0.0861,0.98446 -0.0861,0.98447 -0.2558,0.95454 z"
       style="fill:#dedede;fill-opacity:1;fill-rule:nonzero;stroke:none"
       id="path12" /><path
       d="m 274.20108,54.71281 -0.56683,0.80951 -0.69879,0.69878 -0.80948,0.56682 -0.89566,0.41765 -0.95453,0.25576 -0.98447,0.08614 -0.98447,-0.08614 -0.95456,-0.25576 -0.89562,-0.41765 -0.80951,-0.56682 -0.69877,-0.69878 -0.56683,-0.80951 -0.41763,-0.89563 -0.25577,-0.95454 -0.0861,-0.98447 0.0861,-0.98446 0.25577,-0.95455 0.41763,-0.89563 0.56683,-0.80951 0.69877,-0.69877 0.80951,-0.56682 0.89562,-0.41765 0.95456,-0.25577 0.98447,-0.08613 0.98447,0.08613 0.95453,0.25577 0.89566,0.41765 0.80948,0.56682 0.69879,0.69877 0.56683,0.80951 0.41763,0.89563 0.25577,0.95455 0.0861,0.98446 -0.0861,0.98447 -0.25577,0.95454 z"
       style="fill:#dedede;fill-opacity:1;fill-rule:nonzero;stroke:none"
       id="path14" /><path
       d="m 42.51968,51.02779 h 4.25197 m 2.83466,0 h 4.25197 m 2.83464,0 h 4.25197 m 2.83464,0 h 4.25196 m 2.83466,0 h 4.25197 m 2.83464,0 h 4.25197 m 2.83464,0 h 4.25197 m 2.83465,0 h 4.25197 m 2.83464,0 h 4.25197 m 2.83464,0 h 4.25197 m 2.83465,0 h 4.25197 m 2.83464,0 h 4.25197 m 2.83464,0 h 4.25199 m 2.83465,0 h 4.25195 m 2.83466,0 h 4.25195 m 2.83466,0 h 4.25195 m 2.83466,0 h 4.25198 m 2.83463,0 h 4.25198 m 2.83463,-2e-5 h 4.25198 m 2.83465,0 h 4.25196 m 2.83465,0 h 4.25196 m 2.83465,0 h 4.25196 m 2.83465,0 h 4.25199 m 2.83462,0 h 4.25198 m 2.83463,0 h 4.25198 m 2.83466,0 h 4.25195 m 2.83466,0 h 4.25195 m 2.83466,0 h 4.25195 m 2.83466,0 h 4.25198 m 2.83462,0 h 4.25199 m 2.83462,0 h 4.25199 m 2.83462,0 h 4.25199 m 2.83465,0 h 4.25195 m 2.83466,0 h 4.25195 m 2.83466,0 h 4.25195 m 2.83466,0 h 4.25198 m 2.83463,0 h 4.25198 m 2.83463,0 h 4.25198 m 2.83466,0 h 4.25195 m 2.83465,0 h 4.25196 m 2.83465,0 h 4.25196 m 2.83465,0 h 4.25199 m 2.83462,0 h 4.25198 m 2.83463,0 h 4.25198 m 2.83466,0 h 4.25195 m 2.83466,0 h 4.25195 m 2.83466,0 h 4.25198 m 2.83463,0 h 4.25198 m -337.32286,2e-5 v 0 m 340.15748,0 v 0"
       style="fill:none;stroke:#000000;stroke-width:0.3685;stroke-linecap:round;stroke-linejoin:round;stroke-miterlimit:10;stroke-dasharray:none;stroke-opacity:1"
       id="path16" /><path
       d="M 42.51967,51.87817 H 382.67715"
       style="fill:none;stroke:#000000;stroke-width:0.85039;stroke-linecap:round;stroke-linejoin:round;stroke-miterlimit:10;stroke-dasharray:none;stroke-opacity:1"
       id="path18" /><path
       d="m 382.67715,51.87817 -6.01321,-6.01318 m 6.01321,6.01318 6.01319,-6.01318 m -12.0264,0 h 12.0264 M 374.61679,43.6337 h 15.87402"
       style="fill:none;stroke:#000000;stroke-width:0.28346;stroke-linecap:round;stroke-linejoin:round;stroke-miterlimit:10;stroke-dasharray:none;stroke-opacity:1"
       id="path20" /><path
       d="m 384.09445,51.87817 c 0,0.78276 -0.63455,1.41733 -1.4173,1.41733 m 0,0 c -0.78277,0 -1.41732,-0.63457 -1.41732,-1.41733 m 0,0 c 0,-0.78276 0.63455,-1.41732 1.41732,-1.41732 m 0,0 c 0.78275,0 1.4173,0.63456 1.4173,1.41732"
       style="fill:none;stroke:#000000;stroke-width:0.3685;stroke-linecap:round;stroke-linejoin:round;stroke-miterlimit:10;stroke-dasharray:none;stroke-opacity:1"
       id="path22" /><path
       d="m 42.51967,51.87817 -6.01319,-6.01318 m 6.01319,6.01318 6.0132,-6.01318 m -12.02639,0 h 12.02639"
       style="fill:none;stroke:#000000;stroke-width:0.28346;stroke-linecap:round;stroke-linejoin:round;stroke-miterlimit:10;stroke-dasharray:none;stroke-opacity:1"
       id="path24" /><path
       d="m 43.937,51.87817 c 0,0.78276 -0.63456,1.41733 -1.41733,1.41733 m 0,0 c -0.78276,0 -1.41731,-0.63457 -1.41731,-1.41733 m 0,0 c 0,-0.78276 0.63455,-1.41732 1.41731,-1.41732 m 0,0 c 0.78277,0 1.41733,0.63456 1.41733,1.41732"
       style="fill:none;stroke:#000000;stroke-width:0.3685;stroke-linecap:round;stroke-linejoin:round;stroke-miterlimit:10;stroke-dasharray:none;stroke-opacity:1"
       id="path26" /><path
       d="m 161.5748,51.87817 c 0,3.13106 -2.53824,5.6693 -5.66928,5.6693 m 0,0 c -3.13108,0 -5.66931,-2.53824 -5.66931,-5.6693 m 0,0 c 0,-3.13105 2.53823,-5.66929 5.66931,-5.66929 m 0,0 c 3.13104,0 5.66928,2.53824 5.66928,5.66929"
       style="fill:none;stroke:#000000;stroke-width:0.99213;stroke-linecap:round;stroke-linejoin:round;stroke-miterlimit:10;stroke-dasharray:none;stroke-opacity:1"
       id="path28" /><path
       d="m 274.9606,51.87817 c 0,3.13106 -2.53821,5.6693 -5.66928,5.6693 m 0,0 c -3.13107,0 -5.66928,-2.53824 -5.66928,-5.6693 m 0,0 c 0,-3.13105 2.53821,-5.66929 5.66928,-5.66929 m 0,0 c 3.13107,0 5.66928,2.53824 5.66928,5.66929"
       style="fill:none;stroke:#000000;stroke-width:0.99213;stroke-linecap:round;stroke-linejoin:round;stroke-miterlimit:10;stroke-dasharray:none;stroke-opacity:1"
       id="path30" /><path
       d="M 400.25195,51.87817 V 41.10652 m 0,5.95276 v 0.42519 m 0,-6.37795 v 0 l 0.85038,5.95276 h -1.70078 l 0.8504,-5.95276"
       style="fill:none;stroke:#000000;stroke-width:0.28346;stroke-linecap:round;stroke-linejoin:round;stroke-miterlimit:10;stroke-dasharray:none;stroke-opacity:1"
       id="path32" /><path
       d="m 399.40155,47.05928 0.8504,-5.95276 0.85038,5.95276 z"
       style="fill:#000000;fill-opacity:1;fill-rule:nonzero;stroke:none"
       id="path34" /><path
       d="m 397.4173,51.87817 h 7.08661"
       style="fill:none;stroke:#000000;stroke-width:0.28346;stroke-linecap:round;stroke-linejoin:round;stroke-miterlimit:10;stroke-dasharray:none;stroke-opacity:1"
       id="path36" /><g
       id="g38"><g
         id="g40"
         clip-path="url(#clipPath44)"><text
           transform="matrix(1,0,0,-1,79.28671,40.36891)"
           style="font-style:italic;font-variant:normal;font-weight:normal;font-stretch:normal;font-size:11.0078px;font-family:'Palatino Linotype';-inkscape-font-specification:PalatinoLinotype-Italic;writing-mode:lr-tb;fill:#000000;fill-opacity:1;fill-rule:nonzero;stroke:none"
           id="text48"><tspan
             x="0 6.72579"
             y="0"
             id="tspan46">EI</tspan></text></g></g><g
       id="g50"><g
         id="g52"
         clip-path="url(#clipPath56)"><text
           transform="matrix(1,0,0,-1,136.14627,62.58125)"
           style="font-style:italic;font-variant:normal;font-weight:normal;font-stretch:normal;font-size:11.0078px;font-family:'Palatino Linotype';-inkscape-font-specification:PalatinoLinotype-Italic;writing-mode:lr-tb;fill:#000000;fill-opacity:1;fill-rule:nonzero;stroke:none"
           id="text60"><tspan
             x="0"
             y="0"
             id="tspan58">M</tspan></text></g></g><g
       id="g62"><g
         id="g64"
         clip-path="url(#clipPath68)"><text
           transform="matrix(1,0,0,-1,146.85509,58.03401)"
           style="font-style:italic;font-variant:normal;font-weight:normal;font-stretch:normal;font-size:6.6047px;font-family:'Palatino Linotype';-inkscape-font-specification:PalatinoLinotype-Italic;writing-mode:lr-tb;fill:#000000;fill-opacity:1;fill-rule:nonzero;stroke:none"
           id="text72"><tspan
             x="0"
             y="0"
             id="tspan70">1</tspan></text></g></g><path
       d="m 42.51967,18.57928 2.97638,0.42521 V 18.1541 l -2.97638,0.42518 m 113.38585,0 -2.97638,0.42521 V 18.1541 l 2.97638,0.42518 2.97635,0.42521 V 18.1541 l -2.97635,0.42518 m 113.3858,0 -2.97638,0.42521 V 18.1541 l 2.97638,0.42518 2.97638,0.42521 V 18.1541 l -2.97638,0.42518 m 113.38583,0 -2.97637,0.42521 V 18.1541 l 2.97637,0.42518"
       style="fill:none;stroke:#000000;stroke-width:0.56693;stroke-linecap:round;stroke-linejoin:round;stroke-miterlimit:10;stroke-dasharray:none;stroke-opacity:1"
       id="path74" /><path
       d="m 42.51967,18.57928 v 2.126 m 0,-2.126 v -2.12597 m 113.38585,2.12597 v 2.126 m 0,-2.126 v -2.12597 m 0,2.12597 v 2.126 m 0,-2.126 v -2.12597 m 113.3858,2.12597 v 2.126 m 0,-2.126 v -2.12597 m 0,2.12597 v 2.126 m 0,-2.126 v -2.12597 m 113.38583,2.12597 v 2.126 m 0,-2.126 V 16.45331 M 42.51967,18.57928 V 40.19569 M 155.90552,18.57928 v 1.77166 0 20.18866 M 269.29132,18.57928 V 20.35094 40.5396 M 382.67715,18.57928 V 40.19569 M 42.51967,18.57928 v 0 m 340.15748,0 v 0"
       style="fill:none;stroke:#000000;stroke-width:0.28346;stroke-linecap:round;stroke-linejoin:round;stroke-miterlimit:10;stroke-dasharray:none;stroke-opacity:1"
       id="path76" /><g
       id="g78"><g
         id="g80"
         clip-path="url(#clipPath84)"><text
           transform="matrix(1,0,0,-1,92.6601,21.5995)"
           style="font-style:italic;font-variant:normal;font-weight:normal;font-stretch:normal;font-size:10.0071px;font-family:'Palatino Linotype';-inkscape-font-specification:PalatinoLinotype-Italic;writing-mode:lr-tb;fill:#000000;fill-opacity:1;fill-rule:nonzero;stroke:none"
           id="text88"><tspan
             x="0 5.5639644 8.5260744"
             y="0"
             id="tspan86">L/3</tspan></text></g></g><g
       id="g90"><g
         id="g92"
         clip-path="url(#clipPath96)"><text
           transform="matrix(1,0,0,-1,206.04592,21.5995)"
           style="font-style:italic;font-variant:normal;font-weight:normal;font-stretch:normal;font-size:10.0071px;font-family:'Palatino Linotype';-inkscape-font-specification:PalatinoLinotype-Italic;writing-mode:lr-tb;fill:#000000;fill-opacity:1;fill-rule:nonzero;stroke:none"
           id="text100"><tspan
             x="0 5.5639644 8.5260744"
             y="0"
             id="tspan98">L/3</tspan></text></g></g><g
       id="g102"><g
         id="g104"
         clip-path="url(#clipPath108)"><text
           transform="matrix(1,0,0,-1,319.43175,21.5995)"
           style="font-style:italic;font-variant:normal;font-weight:normal;font-stretch:normal;font-size:10.0071px;font-family:'Palatino Linotype';-inkscape-font-specification:PalatinoLinotype-Italic;writing-mode:lr-tb;fill:#000000;fill-opacity:1;fill-rule:nonzero;stroke:none"
           id="text112"><tspan
             x="0 5.5639644 8.5260744"
             y="0"
             id="tspan110">L/3</tspan></text></g></g><path
       d="m 42.51967,18.57928 h 35.99127 77.39458 113.3858 113.38583"
       style="fill:none;stroke:#000000;stroke-width:0.28346;stroke-linecap:round;stroke-linejoin:round;stroke-miterlimit:10;stroke-dasharray:none;stroke-opacity:1"
       id="path114" /><g
       id="g116"><g
         id="g118"
         clip-path="url(#clipPath122)"><text
           transform="matrix(1,0,0,-1,397.07717,32.84327)"
           style="font-style:italic;font-variant:normal;font-weight:normal;font-stretch:normal;font-size:11.0078px;font-family:'Palatino Linotype';-inkscape-font-specification:PalatinoLinotype-Italic;writing-mode:lr-tb;fill:#000000;fill-opacity:1;fill-rule:nonzero;stroke:none"
           id="text126"><tspan
             x="0"
             y="0"
             id="tspan124">u</tspan></text></g></g><g
       id="g128"><g
         id="g130"
         clip-path="url(#clipPath134)"><text
           transform="matrix(1,0,0,-1,249.53208,62.58125)"
           style="font-style:italic;font-variant:normal;font-weight:normal;font-stretch:normal;font-size:11.0078px;font-family:'Palatino Linotype';-inkscape-font-specification:PalatinoLinotype-Italic;writing-mode:lr-tb;fill:#000000;fill-opacity:1;fill-rule:nonzero;stroke:none"
           id="text138"><tspan
             x="0"
             y="0"
             id="tspan136">M</tspan></text></g></g><g
       id="g140"><g
         id="g142"
         clip-path="url(#clipPath146)"><text
           transform="matrix(1,0,0,-1,260.24092,58.03401)"
           style="font-style:italic;font-variant:normal;font-weight:normal;font-stretch:normal;font-size:6.6047px;font-family:'Palatino Linotype';-inkscape-font-specification:PalatinoLinotype-Italic;writing-mode:lr-tb;fill:#000000;fill-opacity:1;fill-rule:nonzero;stroke:none"
           id="text150"><tspan
             x="0"
             y="0"
             id="tspan148">2</tspan></text></g></g><path
       d="m 89.94026,44.0067 h 9.35433 v 7.87147 m 0,1.27559 v 0 m 0,-2.55118 v 0 M 98.019,51.87817 v 0 m 2.55118,0 v 0"
       style="fill:none;stroke:#000000;stroke-width:0.3685;stroke-linecap:round;stroke-linejoin:round;stroke-miterlimit:10;stroke-dasharray:none;stroke-opacity:1"
       id="path152" /><path
       d="m 99.29459,53.15376 c -0.70449,0 -1.27559,-0.5711 -1.27559,-1.27559 m 0,0 c 0,-0.70448 0.5711,-1.27559 1.27559,-1.27559 m 0,0 c 0.70449,0 1.27559,0.57111 1.27559,1.27559 m 0,0 c 0,0.70449 -0.5711,1.27559 -1.27559,1.27559 m 0,0 c 0,0 0,0 0,0"
       style="fill:none;stroke:#000000;stroke-width:0.3685;stroke-linecap:round;stroke-linejoin:round;stroke-miterlimit:10;stroke-dasharray:none;stroke-opacity:1"
       id="path154" /><path
       d="M 99.93237,50.78117 H 98.6568 l 0.63779,-0.17859 z"
       style="fill:#000000;fill-opacity:1;fill-rule:nonzero;stroke:none"
       id="path156" /><path
       d="m 98.6568,50.78117 h 1.27557 l 0.45922,0.45922 z"
       style="fill:#000000;fill-opacity:1;fill-rule:nonzero;stroke:none"
       id="path158" /><path
       d="m 98.6568,50.78117 1.73479,0.45922 h -2.194 z"
       style="fill:#000000;fill-opacity:1;fill-rule:nonzero;stroke:none"
       id="path160" /><path
       d="m 98.19759,51.24039 h 2.194 l 0.17859,0.63778 z"
       style="fill:#000000;fill-opacity:1;fill-rule:nonzero;stroke:none"
       id="path162" /><path
       d="m 98.19759,51.24039 2.37259,0.63778 H 98.019 Z"
       style="fill:#000000;fill-opacity:1;fill-rule:nonzero;stroke:none"
       id="path164" /><path
       d="m 98.019,51.87817 h 2.55118 l -0.17859,0.63781 z"
       style="fill:#000000;fill-opacity:1;fill-rule:nonzero;stroke:none"
       id="path166" /><path
       d="m 98.019,51.87817 2.37259,0.63781 h -2.194 z"
       style="fill:#000000;fill-opacity:1;fill-rule:nonzero;stroke:none"
       id="path168" /><path
       d="m 98.19759,52.51598 h 2.194 l -0.45922,0.45921 z"
       style="fill:#000000;fill-opacity:1;fill-rule:nonzero;stroke:none"
       id="path170" /><path
       d="m 98.19759,52.51598 1.73478,0.45921 H 98.6568 Z"
       style="fill:#000000;fill-opacity:1;fill-rule:nonzero;stroke:none"
       id="path172" /><path
       d="m 98.6568,52.97519 h 1.27557 l -0.63778,0.17857 z"
       style="fill:#000000;fill-opacity:1;fill-rule:nonzero;stroke:none"
       id="path174" /></g></svg>
