<?xml version="1.0" encoding="UTF-8" standalone="no"?>
<svg
   xmlns:dc="http://purl.org/dc/elements/1.1/"
   xmlns:cc="http://creativecommons.org/ns#"
   xmlns:rdf="http://www.w3.org/1999/02/22-rdf-syntax-ns#"
   xmlns:svg="http://www.w3.org/2000/svg"
   xmlns="http://www.w3.org/2000/svg"
   version="1.1"
   id="svg2"
   xml:space="preserve"
   width="566.92932"
   height="302.36267"
   viewBox="0 0 566.92932 302.36267"><metadata
     id="metadata8"><rdf:RDF><cc:Work
         rdf:about=""><dc:format>image/svg+xml</dc:format><dc:type
           rdf:resource="http://purl.org/dc/dcmitype/StillImage" /></cc:Work></rdf:RDF></metadata><defs
     id="defs6"><clipPath
       clipPathUnits="userSpaceOnUse"
       id="clipPath68"><path
         d="m 213.96786,-0.00227 v 226.7762 H -0.00426 V -0.00227 h 213.97212"
         clip-rule="evenodd"
         id="path66" /></clipPath><clipPath
       clipPathUnits="userSpaceOnUse"
       id="clipPath80"><path
         d="m 213.96786,-0.00227 v 226.7762 H -0.00426 V -0.00227 h 213.97212"
         clip-rule="evenodd"
         id="path78" /></clipPath><clipPath
       clipPathUnits="userSpaceOnUse"
       id="clipPath92"><path
         d="m 213.96786,-0.00227 v 226.7762 H -0.00426 V -0.00227 h 213.97212"
         clip-rule="evenodd"
         id="path90" /></clipPath><clipPath
       clipPathUnits="userSpaceOnUse"
       id="clipPath104"><path
         d="m 213.96786,-0.00227 v 226.7762 H -0.00426 V -0.00227 h 213.97212"
         clip-rule="evenodd"
         id="path102" /></clipPath><clipPath
       clipPathUnits="userSpaceOnUse"
       id="clipPath116"><path
         d="m 213.96786,-0.00227 v 226.7762 H -0.00426 V -0.00227 h 213.97212"
         clip-rule="evenodd"
         id="path114" /></clipPath><clipPath
       clipPathUnits="userSpaceOnUse"
       id="clipPath128"><path
         d="m 213.96786,-0.00227 v 226.7762 H -0.00426 V -0.00227 h 213.97212"
         clip-rule="evenodd"
         id="path126" /></clipPath><clipPath
       clipPathUnits="userSpaceOnUse"
       id="clipPath140"><path
         d="m 213.96786,-0.00227 v 226.7762 H -0.00426 V -0.00227 h 213.97212"
         clip-rule="evenodd"
         id="path138" /></clipPath><clipPath
       clipPathUnits="userSpaceOnUse"
       id="clipPath194"><path
         d="M 225.99545,226.77393 V -0.00227 h 199.20566 v 226.7762 H 225.99545"
         clip-rule="evenodd"
         id="path192" /></clipPath><clipPath
       clipPathUnits="userSpaceOnUse"
       id="clipPath206"><path
         d="M 225.99545,226.77393 V -0.00227 h 199.20566 v 226.7762 H 225.99545"
         clip-rule="evenodd"
         id="path204" /></clipPath><clipPath
       clipPathUnits="userSpaceOnUse"
       id="clipPath218"><path
         d="M 225.99545,226.77393 V -0.00227 h 199.20566 v 226.7762 H 225.99545"
         clip-rule="evenodd"
         id="path216" /></clipPath><clipPath
       clipPathUnits="userSpaceOnUse"
       id="clipPath230"><path
         d="M 225.99545,226.77393 V -0.00227 h 199.20566 v 226.7762 H 225.99545"
         clip-rule="evenodd"
         id="path228" /></clipPath></defs><g
     id="g10"
     transform="matrix(1.3333333,0,0,-1.3333333,0,302.36267)"><path
       d="m 22.19408,95.3468 4.45335,4.45334 h -4.45335 z"
       style="fill:#000000;fill-opacity:1;fill-rule:nonzero;stroke:none"
       id="path12" /><path
       d="m 131.12656,99.80014 4.45337,-4.45334 v 4.45334 z"
       style="fill:#000000;fill-opacity:1;fill-rule:nonzero;stroke:none"
       id="path14" /><path
       d="m 83.79675,102.6348 -0.56683,0.80951 -0.69878,0.69877 -0.80949,0.56682 -0.89565,0.41763 -0.95454,0.25579 -0.98447,0.0861 -0.98445,-0.0861 -0.95456,-0.25579 -0.89563,-0.41763 -0.80951,-0.56682 -0.69877,-0.69877 -0.56682,-0.80951 -0.41765,-0.89563 -0.25577,-0.95456 -0.08612,-0.98447 0.08612,-0.98445 0.25577,-0.95456 0.41765,-0.89563 0.56682,-0.80951 0.69877,-0.69878 0.80951,-0.56681 0.89563,-0.41764 0.95456,-0.25578 0.98445,-0.08612 0.98447,0.08612 0.95454,0.25578 0.89565,0.41764 0.80949,0.56681 0.69878,0.69878 0.56683,0.80951 0.41764,0.89563 0.25576,0.95456 0.08614,0.98445 -0.08614,0.98447 -0.25576,0.95456 z"
       style="fill:#dedede;fill-opacity:1;fill-rule:nonzero;stroke:none"
       id="path16" /><path
       d="m 22.19408,104.25349 v -4.45335 h 4.45335 z"
       style="fill:#000000;fill-opacity:1;fill-rule:nonzero;stroke:none"
       id="path18" /><path
       d="m 131.12656,99.80014 h 4.45337 v 4.45335 z"
       style="fill:#000000;fill-opacity:1;fill-rule:nonzero;stroke:none"
       id="path20" /><path
       d="m 78.88699,186.05545 4.45336,4.45337 h -4.45336 z"
       style="fill:#000000;fill-opacity:1;fill-rule:nonzero;stroke:none"
       id="path22" /><path
       d="m 187.81946,190.50882 4.45337,-4.45337 v 4.45337 z"
       style="fill:#000000;fill-opacity:1;fill-rule:nonzero;stroke:none"
       id="path24" /><path
       d="m 140.48965,193.34344 -0.5668,0.80951 -0.69879,0.6988 -0.80951,0.5668 -0.89563,0.41766 -0.95456,0.25577 -0.98443,0.0861 -0.98447,-0.0861 -0.95456,-0.25577 -0.89563,-0.41766 -0.80951,-0.5668 -0.69876,-0.6988 -0.56683,-0.80951 -0.41764,-0.89563 -0.25576,-0.95452 -0.0862,-0.98447 0.0862,-0.98447 0.25576,-0.95456 0.41764,-0.89563 0.56683,-0.80951 0.69876,-0.69876 0.80951,-0.56683 0.89563,-0.41763 0.95456,-0.25577 0.98447,-0.0862 0.98443,0.0862 0.95456,0.25577 0.89563,0.41763 0.80951,0.56683 0.69879,0.69876 0.5668,0.80951 0.41767,0.89563 0.25577,0.95456 0.0861,0.98447 -0.0861,0.98447 -0.25577,0.95452 z"
       style="fill:#dedede;fill-opacity:1;fill-rule:nonzero;stroke:none"
       id="path26" /><path
       d="M 36.36731,4.3188 41.14,9.09149 M 55.51468,3.4222 61.18396,9.09149 M 45.49269,3.4222 l 5.6693,5.66929 m 104.57254,-5.66929 5.66931,5.66929 m 14.37466,-5.66929 2.32111,2.32109 m -28.34647,1.71949 1.6287,1.62871 m 14.37469,-5.66929 5.66928,5.66929"
       style="fill:none;stroke:#000000;stroke-width:0.3685;stroke-linecap:round;stroke-linejoin:round;stroke-miterlimit:10;stroke-dasharray:none;stroke-opacity:1"
       id="path28" /><path
       d="m 36.36731,9.09149 h 28.34647 m 85.03936,0 h 28.34647 M 22.19408,99.80014 H 135.57993 M 22.19408,95.3468 l 4.45335,4.45334 m 108.9325,-4.45334 -4.45337,4.45334"
       style="fill:none;stroke:#000000;stroke-width:0.99213;stroke-linecap:round;stroke-linejoin:round;stroke-miterlimit:10;stroke-dasharray:none;stroke-opacity:1"
       id="path30" /><path
       d="m 84.55629,99.80014 c 0,3.13107 -2.53822,5.6693 -5.6693,5.6693 m 0,0 c -3.13105,0 -5.66928,-2.53823 -5.66928,-5.6693 m 0,0 c 0,-3.13106 2.53823,-5.66928 5.66928,-5.66928 m 0,0 c 3.13108,0 5.6693,2.53822 5.6693,5.66928"
       style="fill:none;stroke:#000000;stroke-width:0.99213;stroke-linecap:round;stroke-linejoin:round;stroke-miterlimit:10;stroke-dasharray:none;stroke-opacity:1"
       id="path32" /><path
       d="m 22.19408,99.80014 h 113.38585 m -113.38585,4.45335 4.45335,-4.45335 m 108.9325,4.45335 -4.45337,-4.45335 m -52.23957,86.25531 4.45336,4.45337 m 108.93248,-4.45337 -4.45337,4.45337 m -108.93247,0 h 113.38584"
       style="fill:none;stroke:#000000;stroke-width:0.99213;stroke-linecap:round;stroke-linejoin:round;stroke-miterlimit:10;stroke-dasharray:none;stroke-opacity:1"
       id="path34" /><path
       d="m 141.24921,190.50882 c 0,3.13104 -2.53824,5.66928 -5.66928,5.66928 m 0,0 c -3.13108,0 -5.66932,-2.53824 -5.66932,-5.66928 m 0,0 c 0,-3.13107 2.53824,-5.66931 5.66932,-5.66931 m 0,0 c 3.13104,0 5.66928,2.53824 5.66928,5.66931"
       style="fill:none;stroke:#000000;stroke-width:0.99213;stroke-linecap:round;stroke-linejoin:round;stroke-miterlimit:10;stroke-dasharray:none;stroke-opacity:1"
       id="path36" /><path
       d="m 50.54054,9.09149 v 90.70865 h 113.38582 m 0,-90.70865 V 99.80014 M 50.54054,95.3468 54.9939,99.80014 m 108.93246,-4.45334 -4.45334,4.45334 m -108.93248,0 h 113.38582 m -113.38582,4.45335 4.45336,-4.45335 m 108.93246,4.45335 -4.45334,-4.45335 M 50.54054,190.50882 V 99.80014 m 113.38582,90.70868 V 99.80014 m -113.38582,86.25531 4.45336,4.45337 m 108.93246,-4.45337 -4.45334,4.45337 m -108.93248,0 h 113.38582"
       style="fill:none;stroke:#000000;stroke-width:0.3685;stroke-linecap:round;stroke-linejoin:round;stroke-miterlimit:10;stroke-dasharray:none;stroke-opacity:1"
       id="path38" /><path
       d="m 163.92636,202.16132 h 10.77167 m -5.95276,0 h -0.4252 m 6.37796,0 v 0 l -5.95276,0.8504 v -1.70078 l 5.95276,0.85038"
       style="fill:none;stroke:#000000;stroke-width:0.28346;stroke-linecap:round;stroke-linejoin:round;stroke-miterlimit:10;stroke-dasharray:none;stroke-opacity:1"
       id="path40" /><path
       d="m 168.74527,201.31094 5.95276,0.85038 -5.95276,0.8504 z"
       style="fill:#000000;fill-opacity:1;fill-rule:nonzero;stroke:none"
       id="path42" /><path
       d="m 163.92636,204.99597 v -7.08661 m 0,-86.45669 h 10.77167 m -5.95276,0 h -0.4252 m 6.37796,0 v 0 l -5.95276,0.85038 v -1.70077 l 5.95276,0.85039"
       style="fill:none;stroke:#000000;stroke-width:0.28346;stroke-linecap:round;stroke-linejoin:round;stroke-miterlimit:10;stroke-dasharray:none;stroke-opacity:1"
       id="path44" /><path
       d="m 168.74527,110.60228 5.95276,0.85039 -5.95276,0.85038 z"
       style="fill:#000000;fill-opacity:1;fill-rule:nonzero;stroke:none"
       id="path46" /><path
       d="M 163.92636,114.28731 V 107.2007 M 43.7137,197.52155 v 0 h 14.17323 m -5.95276,0 h -0.4252 m 6.37796,0 v 0 l -5.95276,0.85037 v -1.70078 l 5.95276,0.85041"
       style="fill:none;stroke:#000000;stroke-width:0.28346;stroke-linecap:round;stroke-linejoin:round;stroke-miterlimit:10;stroke-dasharray:none;stroke-opacity:1"
       id="path48" /><path
       d="m 51.93417,196.67114 5.95276,0.85041 -5.95276,0.85037 z"
       style="fill:#000000;fill-opacity:1;fill-rule:nonzero;stroke:none"
       id="path50" /><path
       d="m 42.29639,197.52155 c 0,-0.78278 0.63455,-1.41733 1.41731,-1.41733 m 0,0 c 0.78278,0 1.41733,0.63455 1.41733,1.41733 m 0,0 c 0,0.78274 -0.63455,1.41729 -1.41733,1.41729 m 0,0 c -0.78276,0 -1.41731,-0.63455 -1.41731,-1.41729"
       style="fill:none;stroke:#000000;stroke-width:0.28346;stroke-linecap:round;stroke-linejoin:round;stroke-miterlimit:10;stroke-dasharray:none;stroke-opacity:1"
       id="path52" /><path
       d="M 43.7137,197.52155 V 183.3483 m 0,5.95276 v 0.4252 m 0,-6.37796 v 0 l 0.8504,5.95276 h -1.70079 l 0.85039,-5.95276"
       style="fill:none;stroke:#000000;stroke-width:0.28346;stroke-linecap:round;stroke-linejoin:round;stroke-miterlimit:10;stroke-dasharray:none;stroke-opacity:1"
       id="path54" /><path
       d="m 42.86331,189.30106 0.85039,-5.95276 0.8504,5.95276 z"
       style="fill:#000000;fill-opacity:1;fill-rule:nonzero;stroke:none"
       id="path56" /><path
       d="m 163.92636,9.09149 -0.0803,7.89803 -0.46542,7.74988 -0.49747,3.77308 -0.7381,3.6805 -1.02695,3.56939 -1.36386,3.43976 -2.10196,3.92847 -2.51288,3.7699 -2.785,3.66432 -2.91821,3.61168 -2.91257,3.61204 -2.76807,3.66535 -2.48468,3.77163 -2.06243,3.93088 -1.33942,3.49544 -0.98505,3.62944 -0.68136,3.74432 -0.42826,3.84005 -0.29968,7.89067 0.10526,8.04382 M 50.54054,9.09149 l -0.08033,7.89803 -0.46543,7.74988 -0.49745,3.77308 -0.73811,3.6805 -1.02694,3.56939 -1.36386,3.43976 -2.10196,3.92847 -2.5129,3.7699 -2.78499,3.66432 -2.91822,3.61168 -2.91256,3.61204 -2.76807,3.66535 -2.48468,3.77163 -2.06245,3.93088 -1.33939,3.49544 -0.98506,3.62944 -0.68135,3.74432 -0.42826,3.84005 -0.29969,7.89067 0.10524,8.04382 m 170.07875,90.70868 -0.23999,-8.34601 -0.73127,-8.01868 -0.70343,-3.78427 -1.01046,-3.57971 -1.37894,-3.3342 -1.80884,-3.04779 -1.99072,-2.43268 -2.32645,-2.20886 -2.61407,-2.01706 -2.85361,-1.85711"
       style="fill:none;stroke:#000000;stroke-width:0.99213;stroke-linecap:round;stroke-linejoin:round;stroke-miterlimit:10;stroke-dasharray:none;stroke-opacity:1"
       id="path58" /><path
       d="m 176.61505,151.88245 -6.23349,-3.36231 -6.61456,-3.10596 -6.6109,-3.1051 -6.22251,-3.35974 -2.84536,-1.85519 -2.60401,-2.01468 -2.31454,-2.20612 -1.97699,-2.42947 -1.81519,-3.09328 -1.36975,-3.38817 -0.98794,-3.6409 -0.66977,-3.85153 -0.63959,-8.16643 -0.13052,-8.50343 m -56.69294,90.70868 -0.23997,-8.34601 -0.73128,-8.01868 -0.70341,-3.78427 -1.01047,-3.57971 -1.37894,-3.3342 -1.80884,-3.04779 -1.99072,-2.43268 -2.32645,-2.20886 -2.61409,-2.01706 -2.8536,-1.85711 -6.23349,-3.36231 -6.61457,-3.10596 -6.61088,-3.1051 -6.2225,-3.35974 -2.84539,-1.85519 -2.604,-2.01468 -2.31455,-2.20612 -1.977,-2.42947 -1.81517,-3.09328 -1.36974,-3.38817 -0.98794,-3.6409 -0.66979,-3.85153 -0.63958,-8.16643 -0.13054,-8.50343"
       style="fill:none;stroke:#000000;stroke-width:0.99213;stroke-linecap:round;stroke-linejoin:round;stroke-miterlimit:10;stroke-dasharray:none;stroke-opacity:1"
       id="path60" /><g
       id="g62"><g
         id="g64"
         clip-path="url(#clipPath68)"><text
           transform="matrix(1,0,0,-1,59.12776,110.50322)"
           style="font-style:italic;font-variant:normal;font-weight:normal;font-stretch:normal;font-size:11.0078px;font-family:'Palatino Linotype';-inkscape-font-specification:PalatinoLinotype-Italic;writing-mode:lr-tb;fill:#000000;fill-opacity:1;fill-rule:nonzero;stroke:none"
           id="text72"><tspan
             x="0 5.5039201"
             y="0"
             id="tspan70">2M</tspan></text></g></g><g
       id="g74"><g
         id="g76"
         clip-path="url(#clipPath80)"><text
           transform="matrix(1,0,0,-1,115.82067,201.21187)"
           style="font-style:italic;font-variant:normal;font-weight:normal;font-stretch:normal;font-size:11.0078px;font-family:'Palatino Linotype';-inkscape-font-specification:PalatinoLinotype-Italic;writing-mode:lr-tb;fill:#000000;fill-opacity:1;fill-rule:nonzero;stroke:none"
           id="text84"><tspan
             x="0"
             y="0"
             id="tspan82">M</tspan></text></g></g><g
       id="g86"><g
         id="g88"
         clip-path="url(#clipPath92)"><text
           transform="matrix(1,0,0,-1,176.43474,199.32277)"
           style="font-style:italic;font-variant:normal;font-weight:normal;font-stretch:normal;font-size:11.0078px;font-family:'Palatino Linotype';-inkscape-font-specification:PalatinoLinotype-Italic;writing-mode:lr-tb;fill:#000000;fill-opacity:1;fill-rule:nonzero;stroke:none"
           id="text96"><tspan
             x="0"
             y="0"
             id="tspan94">1</tspan></text></g></g><g
       id="g98"><g
         id="g100"
         clip-path="url(#clipPath104)"><text
           transform="matrix(1,0,0,-1,176.43474,108.61409)"
           style="font-style:italic;font-variant:normal;font-weight:normal;font-stretch:normal;font-size:11.0078px;font-family:'Palatino Linotype';-inkscape-font-specification:PalatinoLinotype-Italic;writing-mode:lr-tb;fill:#000000;fill-opacity:1;fill-rule:nonzero;stroke:none"
           id="text108"><tspan
             x="0 3.6656108"
             y="0"
             id="tspan106">-1</tspan></text></g></g><g
       id="g110"><g
         id="g112"
         clip-path="url(#clipPath116)"><text
           transform="matrix(1,0,0,-1,40.85543,175.55302)"
           style="font-style:italic;font-variant:normal;font-weight:normal;font-stretch:normal;font-size:11.0078px;font-family:'Palatino Linotype';-inkscape-font-specification:PalatinoLinotype-Italic;writing-mode:lr-tb;fill:#000000;fill-opacity:1;fill-rule:nonzero;stroke:none"
           id="text120"><tspan
             x="0"
             y="0"
             id="tspan118">z</tspan></text></g></g><g
       id="g122"><g
         id="g124"
         clip-path="url(#clipPath128)"><text
           transform="matrix(1,0,0,-1,60.30678,194.80505)"
           style="font-style:italic;font-variant:normal;font-weight:normal;font-stretch:normal;font-size:11.0078px;font-family:'Palatino Linotype';-inkscape-font-specification:PalatinoLinotype-Italic;writing-mode:lr-tb;fill:#000000;fill-opacity:1;fill-rule:nonzero;stroke:none"
           id="text132"><tspan
             x="0"
             y="0"
             id="tspan130">x</tspan></text></g></g><g
       id="g134"><g
         id="g136"
         clip-path="url(#clipPath140)"><text
           transform="matrix(1,0,0,-1,37.47748,200.37979)"
           style="font-style:italic;font-variant:normal;font-weight:normal;font-stretch:normal;font-size:11.0078px;font-family:'Palatino Linotype';-inkscape-font-specification:PalatinoLinotype-Italic;writing-mode:lr-tb;fill:#000000;fill-opacity:1;fill-rule:nonzero;stroke:none"
           id="text144"><tspan
             x="0"
             y="0"
             id="tspan142">y</tspan></text></g></g><path
       d="m 289.56342,186.05545 4.45336,4.45337 h -4.45336 z"
       style="fill:#000000;fill-opacity:1;fill-rule:nonzero;stroke:none"
       id="path146" /><path
       d="m 398.49591,190.50882 4.45334,-4.45337 v 4.45337 z"
       style="fill:#000000;fill-opacity:1;fill-rule:nonzero;stroke:none"
       id="path148" /><path
       d="m 351.16611,193.34344 -0.56684,0.80951 -0.69879,0.6988 -0.80951,0.5668 -0.89563,0.41766 -0.95453,0.25577 -0.98446,0.0861 -0.98447,-0.0861 -0.95456,-0.25577 -0.89563,-0.41766 -0.80951,-0.5668 -0.69876,-0.6988 -0.56683,-0.80951 -0.41763,-0.89563 -0.25577,-0.95452 -0.0861,-0.98447 0.0861,-0.98447 0.25577,-0.95456 0.41763,-0.89563 0.56683,-0.80951 0.69876,-0.69876 0.80951,-0.56683 0.89563,-0.41763 0.95456,-0.25577 0.98447,-0.0862 0.98446,0.0862 0.95453,0.25577 0.89563,0.41763 0.80951,0.56683 0.69879,0.69876 0.56684,0.80951 0.41763,0.89563 0.25577,0.95456 0.0861,0.98447 -0.0861,0.98447 -0.25577,0.95452 z"
       style="fill:#dedede;fill-opacity:1;fill-rule:nonzero;stroke:none"
       id="path150" /><path
       d="m 275.3902,95.3468 4.45337,4.45334 h -4.45337 z"
       style="fill:#000000;fill-opacity:1;fill-rule:nonzero;stroke:none"
       id="path152" /><path
       d="m 384.32266,99.80014 4.45337,-4.45334 v 4.45334 z"
       style="fill:#000000;fill-opacity:1;fill-rule:nonzero;stroke:none"
       id="path154" /><path
       d="m 336.99286,102.6348 -0.5668,0.80951 -0.6988,0.69877 -0.8095,0.56682 -0.89563,0.41763 -0.95456,0.25579 -0.98447,0.0861 -0.98444,-0.0861 -0.95456,-0.25579 -0.89563,-0.41763 -0.80951,-0.56682 -0.69879,-0.69877 -0.5668,-0.80951 -0.41763,-0.89563 -0.2558,-0.95456 -0.0861,-0.98447 0.0861,-0.98445 0.2558,-0.95456 0.41763,-0.89563 0.5668,-0.80951 0.69879,-0.69878 0.80951,-0.56681 0.89563,-0.41764 0.95456,-0.25578 0.98444,-0.08612 0.98447,0.08612 0.95456,0.25578 0.89563,0.41764 0.8095,0.56681 0.6988,0.69878 0.5668,0.80951 0.41763,0.89563 0.2558,0.95456 0.0861,0.98445 -0.0861,0.98447 -0.2558,0.95456 z"
       style="fill:#dedede;fill-opacity:1;fill-rule:nonzero;stroke:none"
       id="path156" /><path
       d="m 275.3902,104.25349 v -4.45335 h 4.45337 z"
       style="fill:#000000;fill-opacity:1;fill-rule:nonzero;stroke:none"
       id="path158" /><path
       d="m 384.32266,99.80014 h 4.45337 v 4.45335 z"
       style="fill:#000000;fill-opacity:1;fill-rule:nonzero;stroke:none"
       id="path160" /><path
       d="m 247.04376,4.29568 4.79581,4.79581 m 14.37466,-5.66929 5.66928,5.66929 m -15.69128,-5.66929 5.66931,5.66929 m 104.57254,-5.66929 5.66928,5.66929 m 14.3747,-5.66929 2.29797,2.29797 m -28.34646,1.7195 1.65182,1.65182 m 14.3747,-5.66929 5.66928,5.66929"
       style="fill:none;stroke:#000000;stroke-width:0.3685;stroke-linecap:round;stroke-linejoin:round;stroke-miterlimit:10;stroke-dasharray:none;stroke-opacity:1"
       id="path162" /><path
       d="m 247.04376,9.09149 h 28.34644 m 85.03937,0 h 28.34646 m -99.21261,176.96396 4.45336,4.45337 m 108.93247,-4.45337 -4.45334,4.45337 m -108.93249,0 h 113.38583"
       style="fill:none;stroke:#000000;stroke-width:0.99213;stroke-linecap:round;stroke-linejoin:round;stroke-miterlimit:10;stroke-dasharray:none;stroke-opacity:1"
       id="path164" /><path
       d="m 351.92563,190.50882 c 0,3.13104 -2.53824,5.66928 -5.66928,5.66928 m 0,0 c -3.13108,0 -5.66931,-2.53824 -5.66931,-5.66928 m 0,0 c 0,-3.13107 2.53823,-5.66931 5.66931,-5.66931 m 0,0 c 3.13104,0 5.66928,2.53824 5.66928,5.66931"
       style="fill:none;stroke:#000000;stroke-width:0.99213;stroke-linecap:round;stroke-linejoin:round;stroke-miterlimit:10;stroke-dasharray:none;stroke-opacity:1"
       id="path166" /><path
       d="M 275.3902,99.80014 H 388.77603 M 275.3902,95.3468 l 4.45337,4.45334 m 108.93246,-4.45334 -4.45337,4.45334"
       style="fill:none;stroke:#000000;stroke-width:0.99213;stroke-linecap:round;stroke-linejoin:round;stroke-miterlimit:10;stroke-dasharray:none;stroke-opacity:1"
       id="path168" /><path
       d="m 337.75241,99.80014 c 0,3.13107 -2.53824,5.6693 -5.66931,5.6693 m 0,0 c -3.13104,0 -5.66928,-2.53823 -5.66928,-5.6693 m 0,0 c 0,-3.13106 2.53824,-5.66928 5.66928,-5.66928 m 0,0 c 3.13107,0 5.66931,2.53822 5.66931,5.66928"
       style="fill:none;stroke:#000000;stroke-width:0.99213;stroke-linecap:round;stroke-linejoin:round;stroke-miterlimit:10;stroke-dasharray:none;stroke-opacity:1"
       id="path170" /><path
       d="m 275.3902,99.80014 h 113.38583 m -113.38583,4.45335 4.45337,-4.45335 m 108.93246,4.45335 -4.45337,-4.45335"
       style="fill:none;stroke:#000000;stroke-width:0.99213;stroke-linecap:round;stroke-linejoin:round;stroke-miterlimit:10;stroke-dasharray:none;stroke-opacity:1"
       id="path172" /><path
       d="m 261.21698,9.09149 v 90.70865 h 113.3858 m 0,-90.70865 v 90.70865 m -113.3858,-4.45334 4.45334,4.45334 m 108.93246,-4.45334 -4.45334,4.45334 m -108.93246,0 h 113.3858 m -113.3858,4.45335 4.45334,-4.45335 m 108.93246,4.45335 -4.45334,-4.45335 M 261.21698,190.50882 V 99.80014 m 113.3858,90.70868 V 99.80014 m -113.3858,86.25531 4.45334,4.45337 m 108.93246,-4.45337 -4.45334,4.45337 m -108.93246,0 h 113.3858"
       style="fill:none;stroke:#000000;stroke-width:0.3685;stroke-linecap:round;stroke-linejoin:round;stroke-miterlimit:10;stroke-dasharray:none;stroke-opacity:1"
       id="path174" /><path
       d="m 374.60278,202.16132 h 10.77167 m -5.95276,0 h -0.4252 m 6.37796,0 v 0 l -5.95276,0.8504 v -1.70078 l 5.95276,0.85038"
       style="fill:none;stroke:#000000;stroke-width:0.28346;stroke-linecap:round;stroke-linejoin:round;stroke-miterlimit:10;stroke-dasharray:none;stroke-opacity:1"
       id="path176" /><path
       d="m 379.42169,201.31094 5.95276,0.85038 -5.95276,0.8504 z"
       style="fill:#000000;fill-opacity:1;fill-rule:nonzero;stroke:none"
       id="path178" /><path
       d="m 374.60278,204.99597 v -7.08661 m 0,-86.45669 h 10.77167 m -5.95276,0 h -0.4252 m 6.37796,0 v 0 l -5.95276,0.85038 v -1.70077 l 5.95276,0.85039"
       style="fill:none;stroke:#000000;stroke-width:0.28346;stroke-linecap:round;stroke-linejoin:round;stroke-miterlimit:10;stroke-dasharray:none;stroke-opacity:1"
       id="path180" /><path
       d="m 379.42169,110.60228 5.95276,0.85039 -5.95276,0.85038 z"
       style="fill:#000000;fill-opacity:1;fill-rule:nonzero;stroke:none"
       id="path182" /><path
       d="M 374.60278,114.28731 V 107.2007"
       style="fill:none;stroke:#000000;stroke-width:0.28346;stroke-linecap:round;stroke-linejoin:round;stroke-miterlimit:10;stroke-dasharray:none;stroke-opacity:1"
       id="path184" /><path
       d="m 261.21698,9.09149 0.69089,7.59752 0.83175,7.56958 1.11347,7.51369 1.53601,7.42985 1.95267,7.10559 2.18072,7.05648 2.10809,7.06311 1.73462,7.12558 1.21631,7.93728 0.60767,8.04402 0.20193,8.11519 -9.1e-4,8.15076 -0.10462,7.64185 0.12766,7.59617 0.59225,7.50482 1.28913,7.36782 2.13327,7.28915 2.62445,7.19394 2.65619,7.1904 2.2286,7.27859 1.49701,7.74106 0.77664,7.88715 0.29639,7.98453 0.0563,8.0332 m 85.03936,-181.41733 0.69092,7.59752 0.83176,7.56958 1.11343,7.51369 1.53604,7.42985 1.95264,7.10559 2.18076,7.05648 2.10806,7.06311 1.73465,7.12558 1.21628,7.93728 0.60769,8.04402 0.20194,8.11519 -9.2e-4,8.15076 -0.10464,7.64185 0.12768,7.59617 0.59223,7.50482 1.28912,7.36782 2.1333,7.28915 2.62445,7.19394 2.65619,7.1904 2.22858,7.27859 1.49701,7.74106 0.77664,7.88715 0.29638,7.98453 0.0563,8.0332"
       style="fill:none;stroke:#000000;stroke-width:0.99213;stroke-linecap:round;stroke-linejoin:round;stroke-miterlimit:10;stroke-dasharray:none;stroke-opacity:1"
       id="path186" /><g
       id="g188"><g
         id="g190"
         clip-path="url(#clipPath194)"><text
           transform="matrix(1,0,0,-1,326.49711,201.21187)"
           style="font-style:italic;font-variant:normal;font-weight:normal;font-stretch:normal;font-size:11.0078px;font-family:'Palatino Linotype';-inkscape-font-specification:PalatinoLinotype-Italic;writing-mode:lr-tb;fill:#000000;fill-opacity:1;fill-rule:nonzero;stroke:none"
           id="text198"><tspan
             x="0"
             y="0"
             id="tspan196">M</tspan></text></g></g><g
       id="g200"><g
         id="g202"
         clip-path="url(#clipPath206)"><text
           transform="matrix(1,0,0,-1,312.32388,110.50322)"
           style="font-style:italic;font-variant:normal;font-weight:normal;font-stretch:normal;font-size:11.0078px;font-family:'Palatino Linotype';-inkscape-font-specification:PalatinoLinotype-Italic;writing-mode:lr-tb;fill:#000000;fill-opacity:1;fill-rule:nonzero;stroke:none"
           id="text210"><tspan
             x="0 5.5039201"
             y="0"
             id="tspan208">2M</tspan></text></g></g><g
       id="g212"><g
         id="g214"
         clip-path="url(#clipPath218)"><text
           transform="matrix(1,0,0,-1,387.11119,199.32277)"
           style="font-style:italic;font-variant:normal;font-weight:normal;font-stretch:normal;font-size:11.0078px;font-family:'Palatino Linotype';-inkscape-font-specification:PalatinoLinotype-Italic;writing-mode:lr-tb;fill:#000000;fill-opacity:1;fill-rule:nonzero;stroke:none"
           id="text222"><tspan
             x="0"
             y="0"
             id="tspan220">1</tspan></text></g></g><g
       id="g224"><g
         id="g226"
         clip-path="url(#clipPath230)"><text
           transform="matrix(1,0,0,-1,391.07967,108.61409)"
           style="font-style:italic;font-variant:normal;font-weight:normal;font-stretch:normal;font-size:11.0078px;font-family:'Palatino Linotype';-inkscape-font-specification:PalatinoLinotype-Italic;writing-mode:lr-tb;fill:#000000;fill-opacity:1;fill-rule:nonzero;stroke:none"
           id="text234"><tspan
             x="0 5.5039201 8.2558804"
             y="0"
             id="tspan232">0.5</tspan></text></g></g></g></svg>
