<?xml version="1.0" encoding="UTF-8" standalone="no"?>
<svg
   xmlns:dc="http://purl.org/dc/elements/1.1/"
   xmlns:cc="http://creativecommons.org/ns#"
   xmlns:rdf="http://www.w3.org/1999/02/22-rdf-syntax-ns#"
   xmlns:svg="http://www.w3.org/2000/svg"
   xmlns="http://www.w3.org/2000/svg"
   version="1.1"
   id="svg2"
   xml:space="preserve"
   width="566.92932"
   height="234.33067"
   viewBox="0 0 566.92932 234.33067"><metadata
     id="metadata8"><rdf:RDF><cc:Work
         rdf:about=""><dc:format>image/svg+xml</dc:format><dc:type
           rdf:resource="http://purl.org/dc/dcmitype/StillImage" /></cc:Work></rdf:RDF></metadata><defs
     id="defs6"><clipPath
       clipPathUnits="userSpaceOnUse"
       id="clipPath52"><path
         d="M 197.13132,-0.00175 V 175.74979 H -0.00426 V -0.00175 h 197.13558"
         clip-rule="evenodd"
         id="path50" /></clipPath><clipPath
       clipPathUnits="userSpaceOnUse"
       id="clipPath64"><path
         d="M 197.13132,-0.00175 V 175.74979 H -0.00426 V -0.00175 h 197.13558"
         clip-rule="evenodd"
         id="path62" /></clipPath><clipPath
       clipPathUnits="userSpaceOnUse"
       id="clipPath114"><path
         d="M 201.49771,175.74979 V -0.00175 H 418.03937 V 175.74979 H 201.49771"
         clip-rule="evenodd"
         id="path112" /></clipPath><clipPath
       clipPathUnits="userSpaceOnUse"
       id="clipPath126"><path
         d="M 201.49771,175.74979 V -0.00175 H 418.03937 V 175.74979 H 201.49771"
         clip-rule="evenodd"
         id="path124" /></clipPath></defs><g
     id="g10"
     transform="matrix(1.3333333,0,0,-1.3333333,0,234.33067)"><path
       d="m 39.68303,147.81027 -0.56682,0.80951 -0.69878,0.69879 -0.8095,0.56681 -0.89563,0.41766 -0.95455,0.25577 -0.98447,0.0861 -0.98446,-0.0861 -0.95455,-0.25577 -0.89563,-0.41766 -0.8095,-0.56681 -0.69878,-0.69879 -0.56682,-0.80951 -0.41765,-0.89563 -0.25577,-0.95453 -0.08613,-0.98446 0.08613,-0.98447 0.25577,-0.95456 0.41765,-0.89563 0.56682,-0.80951 0.69878,-0.69876 0.8095,-0.56683 0.89563,-0.41764 0.95455,-0.25576 0.98446,-0.0862 0.98447,0.0862 0.95455,0.25576 0.89563,0.41764 0.8095,0.56683 0.69878,0.69876 0.56682,0.80951 0.41765,0.89563 0.25577,0.95456 0.08613,0.98447 -0.08613,0.98446 -0.25577,0.95453 z"
       style="fill:#dedede;fill-opacity:1;fill-rule:nonzero;stroke:none"
       id="path12" /><path
       d="m 140.76651,34.42445 -0.56683,0.80951 -0.69876,0.69878 -0.80951,0.56682 -0.89563,0.41765 -0.95456,0.25576 -0.98447,0.08614 -0.98447,-0.08614 -0.95452,-0.25576 -0.89567,-0.41765 -0.80947,-0.56682 -0.6988,-0.69878 -0.56683,-0.80951 -0.41763,-0.89563 -0.25577,-0.95454 -0.0861,-0.98447 0.0861,-0.98446 0.25577,-0.95455 0.41763,-0.89564 0.56683,-0.8095 0.6988,-0.69877 0.80947,-0.56684 0.89567,-0.41763 0.95452,-0.25577 0.98447,-0.08613 0.98447,0.08613 0.95456,0.25577 0.89563,0.41763 0.80951,0.56684 0.69876,0.69877 0.56683,0.8095 0.41763,0.89564 0.25577,0.95455 0.0861,0.98446 -0.0861,0.98447 -0.25577,0.95454 z"
       style="fill:#dedede;fill-opacity:1;fill-rule:nonzero;stroke:none"
       id="path14" /><path
       d="m 34.8947,140.64371 4.59419,4.59417 -4.71561,-0.26223 z m 113.31767,-0.17469 -0.0532,4.50663 h -4.45337 l 4.50662,-4.50663 z"
       style="fill:#000000;fill-opacity:1;fill-rule:nonzero;stroke:none"
       id="path16" /><path
       d="m 123.43297,140.64371 0.12141,4.33194 -4.7156,0.26223 z m -113.26441,4.33194 -0.05325,-4.50663 4.50661,4.50663 z"
       style="fill:#000000;fill-opacity:1;fill-rule:nonzero;stroke:none"
       id="path18" /><path
       d="m 50.81738,31.58981 -6.0132,-6.0132 m 6.0132,6.0132 6.01319,-6.0132 m -12.02639,0 h 12.02639 m 107.37265,6.0132 -6.01319,-6.0132 m 6.01319,6.0132 6.01318,-6.0132 m -12.02637,0 h 12.02637 m -14.07355,-2.23127 h 15.87403"
       style="fill:none;stroke:#000000;stroke-width:0.28346;stroke-linecap:round;stroke-linejoin:round;stroke-miterlimit:10;stroke-dasharray:none;stroke-opacity:1"
       id="path20" /><path
       d="m 52.2347,31.58981 c 0,0.78276 -0.63456,1.41733 -1.41732,1.41733 m 0,0 c -0.78277,0 -1.41733,-0.63457 -1.41733,-1.41733 m 0,0 c 0,-0.78277 0.63456,-1.41732 1.41733,-1.41732 m 0,0 c 0.78276,0 1.41732,0.63455 1.41732,1.41732"
       style="fill:none;stroke:#000000;stroke-width:0.3685;stroke-linecap:round;stroke-linejoin:round;stroke-miterlimit:10;stroke-dasharray:none;stroke-opacity:1"
       id="path22" /><path
       d="m 165.62054,31.58981 c 0,0.78276 -0.63458,1.41733 -1.41732,1.41733 m 0,0 c -0.78278,0 -1.41733,-0.63457 -1.41733,-1.41733 m 0,0 c 0,-0.78277 0.63455,-1.41732 1.41733,-1.41732 m 0,0 c 0.78274,0 1.41732,0.63455 1.41732,1.41732"
       style="fill:none;stroke:#000000;stroke-width:0.3685;stroke-linecap:round;stroke-linejoin:round;stroke-miterlimit:10;stroke-dasharray:none;stroke-opacity:1"
       id="path24" /><path
       d="m 50.81738,31.58981 v 1.85901 m 0,2.26772 v 2.83464 m 0,2.26771 v 2.83466 m 0,2.26771 v 2.83465 m 0,2.26771 v 2.83466 m 0,2.26771 v 2.83464 m 0,2.26772 V 64.063 m 0,2.26772 v 2.83464 m 0,2.26771 v 2.83465 m 0,2.26771 v 2.83466 m 0,2.26771 v 2.83464 m 0,2.26772 v 2.83465 m 0,2.26772 v 2.83464 m 0,2.26772 v 2.83464 m 0,2.26771 v 2.83466 m 0,2.26771 v 2.83464 m 0,2.26772 v 2.83465 m 0,2.26772 v 2.83464 m 0,2.26772 v 2.83464 m 0,2.26771 v 2.83466 m 0,2.26773 v 2.83462 m 0,2.26773 v 2.83463 m 0,2.26773 v 2.1095 m 0,-113.38584 v 0 m 0,113.38584 v 0 m 0.20624,0 h 2.83466 m 2.26771,0 h 2.83464 m 2.26772,0 H 64.063 m 2.26772,0 h 2.83464 m 2.26771,0 h 2.83465 m 2.26771,0 h 2.83466 m 2.26771,0 h 2.83464 m 2.26772,0 h 2.83465 m 2.26772,0 h 2.83464 m 2.26772,0 h 2.83464 m 2.26771,0 h 2.83466 m 2.26771,0 h 2.83464 m 2.26772,0 h 2.83465 m 2.26772,0 h 2.83464 m 2.26772,0 h 2.83464 m 2.26771,0 h 2.83466 m 2.26773,0 h 2.83462 m 2.26773,0 h 2.83463 m 2.26773,0 h 2.83466 m 2.2677,0 h 2.83465 m 2.2677,0 h 2.83466 m 2.26773,0 h 2.83462 m 2.26773,0 h 0.92762 m -113.38584,0 v 0 m 113.38584,0 v 0"
       style="fill:none;stroke:#000000;stroke-width:0.3685;stroke-linecap:round;stroke-linejoin:round;stroke-miterlimit:10;stroke-dasharray:none;stroke-opacity:1"
       id="path26" /><path
       d="m 164.20322,31.58981 v 1.85901 m 0,2.26772 v 2.83464 m 0,2.26771 v 2.83466 m 0,2.26771 v 2.83465 m 0,2.26771 v 2.83466 m 0,2.26771 v 2.83464 m 0,2.26772 V 64.063 m 0,2.26772 v 2.83464 m 0,2.26771 v 2.83465 m 0,2.26771 v 2.83466 m 0,2.26771 v 2.83464 m 0,2.26772 v 2.83465 m 0,2.26772 v 2.83464 m 0,2.26772 v 2.83464 m 0,2.26771 v 2.83466 m 0,2.26771 v 2.83464 m 0,2.26772 v 2.83465 m 0,2.26772 v 2.83464 m 0,2.26772 v 2.83464 m 0,2.26771 v 2.83466 m 0,2.26773 v 2.83462 m 0,2.26773 v 2.83463 m 0,2.26773 v 2.1095 m 0,-113.38584 v 0 m 0,113.38584 v 0"
       style="fill:none;stroke:#000000;stroke-width:0.3685;stroke-linecap:round;stroke-linejoin:round;stroke-miterlimit:10;stroke-dasharray:none;stroke-opacity:1"
       id="path28" /><path
       d="M 50.81738,166.21545 H 40.04573 m 5.95276,0 h 0.42519 m -6.37795,0 v 0 l 5.95276,-0.8504 v 1.70078 l -5.95276,-0.85038"
       style="fill:none;stroke:#000000;stroke-width:0.28346;stroke-linecap:round;stroke-linejoin:round;stroke-miterlimit:10;stroke-dasharray:none;stroke-opacity:1"
       id="path30" /><path
       d="m 45.99849,167.06583 -5.95276,-0.85038 5.95276,-0.8504 z"
       style="fill:#000000;fill-opacity:1;fill-rule:nonzero;stroke:none"
       id="path32" /><path
       d="m 50.81738,169.05008 v -7.08661 M 164.20322,9.45161 h -10.77167 m 5.95276,0 h 0.4252 m -6.37796,0 v 0 l 5.95276,-0.8504 V 10.302 l -5.95276,-0.85039"
       style="fill:none;stroke:#000000;stroke-width:0.28346;stroke-linecap:round;stroke-linejoin:round;stroke-miterlimit:10;stroke-dasharray:none;stroke-opacity:1"
       id="path34" /><path
       d="m 159.38431,10.302 -5.95276,-0.85039 5.95276,-0.8504 z"
       style="fill:#000000;fill-opacity:1;fill-rule:nonzero;stroke:none"
       id="path36" /><path
       d="m 164.20322,6.61696 v 7.08662"
       style="fill:none;stroke:#000000;stroke-width:0.28346;stroke-linecap:round;stroke-linejoin:round;stroke-miterlimit:10;stroke-dasharray:none;stroke-opacity:1"
       id="path38" /><path
       d="m 40.44258,144.97565 c 0,3.13104 -2.53824,5.66928 -5.6693,5.66928 m 0,0 c -3.13105,0 -5.66929,-2.53824 -5.66929,-5.66928 m 0,0 c 0,-3.13108 2.53824,-5.66931 5.66929,-5.66931 m 0,0 c 3.13106,0 5.6693,2.53823 5.6693,5.66931"
       style="fill:none;stroke:#000000;stroke-width:0.99213;stroke-linecap:round;stroke-linejoin:round;stroke-miterlimit:10;stroke-dasharray:none;stroke-opacity:1"
       id="path40" /><path
       d="m 141.52603,31.58981 c 0,3.13106 -2.53821,5.6693 -5.66928,5.6693 m 0,0 c -3.13107,0 -5.66928,-2.53824 -5.66928,-5.6693 m 0,0 c 0,-3.13107 2.53821,-5.66929 5.66928,-5.66929 m 0,0 c 3.13107,0 5.66928,2.53822 5.66928,5.66929"
       style="fill:none;stroke:#000000;stroke-width:0.99213;stroke-linecap:round;stroke-linejoin:round;stroke-miterlimit:10;stroke-dasharray:none;stroke-opacity:1"
       id="path42" /><path
       d="m 34.77328,144.97565 0.25557,-12.538 0.41393,-12.51724 0.73059,-12.47569 1.20563,-12.41338 2.42779,-15.98262 3.22649,-15.87784 3.75894,-15.808 4.02516,-15.77307 m 97.34174,113.38584 0.29562,-16.46653 -0.021,-16.42794 -0.22822,-8.18746 -0.42617,-8.16334 -0.66367,-8.1344 -0.94076,-8.10065 -1.95932,-12.05194 -2.49094,-11.98717 -2.84534,-11.944 -3.02252,-11.92241 m 12.30237,108.93247 -4.75464,4.75464 m -108.6312,-0.30127 14.24576,0.88281 14.24573,0.76935 14.24567,0.54236 14.2456,0.2019 14.10086,-0.20993 14.10077,-0.54352 14.10074,-0.7659 14.10071,-0.87707 m -113.38584,-4.45337 4.75353,4.75354"
       style="fill:none;stroke:#000000;stroke-width:0.99213;stroke-linecap:round;stroke-linejoin:round;stroke-miterlimit:10;stroke-dasharray:none;stroke-opacity:1"
       id="path44" /><g
       id="g46"><g
         id="g48"
         clip-path="url(#clipPath52)"><text
           transform="matrix(1,0,0,-1,144.809,5.01458)"
           style="font-style:italic;font-variant:normal;font-weight:normal;font-stretch:normal;font-size:11.0078px;font-family:'Palatino Linotype';-inkscape-font-specification:PalatinoLinotype-Italic;writing-mode:lr-tb;fill:#000000;fill-opacity:1;fill-rule:nonzero;stroke:none"
           id="text56"><tspan
             x="0"
             y="0"
             id="tspan54">1</tspan></text></g></g><g
       id="g58"><g
         id="g60"
         clip-path="url(#clipPath64)"><text
           transform="matrix(1,0,0,-1,12.99798,163.37687)"
           style="font-style:italic;font-variant:normal;font-weight:normal;font-stretch:normal;font-size:11.0078px;font-family:'Palatino Linotype';-inkscape-font-specification:PalatinoLinotype-Italic;writing-mode:lr-tb;fill:#000000;fill-opacity:1;fill-rule:nonzero;stroke:none"
           id="text68"><tspan
             x="0 5.5039201 8.2558804 13.7598 19.26372"
             y="0"
             id="tspan66">0.566</tspan></text></g></g><path
       d="m 393.81149,34.42445 -0.41763,-0.89563 -0.25577,-0.95454 -0.0861,-0.98447 0.0861,-0.98446 0.25577,-0.95455 0.41763,-0.89563 0.56684,-0.80951 0.69876,-0.69877 0.80951,-0.56682 0.89563,-0.41765 0.95456,-0.25577 0.98446,-0.08613 0.98447,0.08613 0.95453,0.25577 0.89566,0.41765 0.80948,0.56682 0.69879,0.69877 0.56683,0.80951 0.41764,0.89563 0.25576,0.95455 0.0861,0.98446 -0.0861,0.98447 -0.25576,0.95454 -0.41764,0.89563 -0.56683,0.80951 -0.69879,0.69878 -0.80948,0.56683 -0.89566,0.41764 -0.95453,0.25576 -0.98447,0.08614 -0.98446,-0.08614 -0.95456,-0.25576 -0.89563,-0.41764 -0.80951,-0.56683 -0.69876,-0.69878 z"
       style="fill:#dedede;fill-opacity:1;fill-rule:nonzero;stroke:none"
       id="path70" /><path
       d="m 245.85464,147.8103 -0.56683,0.80948 -0.69879,0.69879 -0.80948,0.56684 -0.89566,0.41763 -0.95453,0.25577 -0.98446,0.0861 -0.98447,-0.0861 -0.95456,-0.25577 -0.89563,-0.41763 -0.80951,-0.56684 -0.69876,-0.69879 -0.56683,-0.80948 -0.41764,-0.89566 -0.25577,-0.95453 -0.0861,-0.98446 0.0861,-0.98447 0.25577,-0.95456 0.41764,-0.89563 0.56683,-0.80951 0.69876,-0.69876 0.80951,-0.56683 0.89563,-0.41764 0.95456,-0.25576 0.98447,-0.0861 0.98446,0.0861 0.95453,0.25576 0.89566,0.41764 0.80948,0.56683 0.69879,0.69876 0.56683,0.80951 0.41764,0.89563 0.25577,0.95456 0.0861,0.98447 -0.0861,0.98446 -0.25577,0.95453 z"
       style="fill:#dedede;fill-opacity:1;fill-rule:nonzero;stroke:none"
       id="path72" /><path
       d="m 240.94489,144.97565 0.17343,-4.27991 4.66736,4.66733 z"
       style="fill:#000000;fill-opacity:1;fill-rule:nonzero;stroke:none"
       id="path74" /><path
       d="m 354.9837,141.07236 -0.65301,3.90329 -5.67294,-0.5824 z"
       style="fill:#000000;fill-opacity:1;fill-rule:nonzero;stroke:none"
       id="path76" /><path
       d="m 269.29132,31.58981 -6.01318,-6.01318 m 6.01318,6.01318 6.01321,-6.01318 m -12.02639,0 h 12.02639 m 107.37262,6.01318 -6.01318,-6.01318 m 6.01318,6.01318 6.01319,-6.01318 m -12.02637,0 h 12.02637 m -14.07355,-2.23129 h 15.87402"
       style="fill:none;stroke:#000000;stroke-width:0.28346;stroke-linecap:round;stroke-linejoin:round;stroke-miterlimit:10;stroke-dasharray:none;stroke-opacity:1"
       id="path78" /><path
       d="m 270.70865,31.58981 c 0,0.78278 -0.63455,1.41733 -1.41733,1.41733 m 0,0 c -0.78274,0 -1.41733,-0.63455 -1.41733,-1.41733 m 0,0 c 0,-0.78276 0.63459,-1.41732 1.41733,-1.41732 m 0,0 c 0.78278,0 1.41733,0.63456 1.41733,1.41732"
       style="fill:none;stroke:#000000;stroke-width:0.3685;stroke-linecap:round;stroke-linejoin:round;stroke-miterlimit:10;stroke-dasharray:none;stroke-opacity:1"
       id="path80" /><path
       d="m 384.09448,31.58981 c 0,0.78278 -0.63455,1.41733 -1.41733,1.41733 m 0,0 c -0.78277,0 -1.41732,-0.63455 -1.41732,-1.41733 m 0,0 c 0,-0.78276 0.63455,-1.41732 1.41732,-1.41732 m 0,0 c 0.78278,0 1.41733,0.63456 1.41733,1.41732"
       style="fill:none;stroke:#000000;stroke-width:0.3685;stroke-linecap:round;stroke-linejoin:round;stroke-miterlimit:10;stroke-dasharray:none;stroke-opacity:1"
       id="path82" /><path
       d="m 269.29132,31.58981 v 1.85901 m 0,2.26772 v 2.83464 m 0,2.26771 v 2.83466 m 0,2.26771 v 2.83465 m 0,2.26771 v 2.83466 m 0,2.26771 v 2.83464 m 0,2.26772 V 64.063 m 0,2.26772 v 2.83464 m 0,2.26771 v 2.83465 m 0,2.26771 v 2.83466 m 0,2.26771 v 2.83464 m 0,2.26772 v 2.83465 m 0,2.26772 v 2.83464 m 0,2.26772 v 2.83464 m 0,2.26771 v 2.83466 m 0,2.26771 v 2.83464 m 0,2.26772 v 2.83465 m 0,2.26772 v 2.83464 m 0,2.26772 v 2.83464 m 0,2.26771 v 2.83466 m 0,2.26773 v 2.83462 m 0,2.26773 v 2.83463 m 0,2.26773 v 2.1095 m 0,-113.38584 v 0 m 0,113.38584 v 0 m 1.13388,0 h 2.83466 m 2.2677,0 h 2.83465 m 2.2677,0 h 2.83466 m 2.2677,0 h 2.83466 m 2.26773,0 h 2.83462 m 2.26773,0 h 2.83466 m 2.2677,0 h 2.83465 m 2.2677,0 h 2.83466 m 2.2677,0 h 2.83466 m 2.26773,0 h 2.83462 m 2.26773,0 h 2.83466 m 2.2677,0 h 2.83465 m 2.2677,0 h 2.83466 m 2.26773,0 h 2.83463 m 2.26773,0 h 2.83462 m 2.26773,0 h 2.83466 m 2.2677,0 h 2.83465 m 2.2677,0 H 360 m 2.26773,0 h 2.83463 m 2.26773,0 h 2.83462 m 2.26773,0 h 2.83466 m 2.2677,0 h 2.83465 m -111.11813,0 v 0 m 113.38583,0 v 0 m 0,-113.38584 v 1.85901"
       style="fill:none;stroke:#000000;stroke-width:0.3685;stroke-linecap:round;stroke-linejoin:round;stroke-miterlimit:10;stroke-dasharray:none;stroke-opacity:1"
       id="path84" /><path
       d="m 382.67715,35.71654 v 2.83464 m 0,2.26771 v 2.83466 m 0,2.26771 v 2.83465 m 0,2.26771 v 2.83466 m 0,2.26771 v 2.83464 m 0,2.26772 V 64.063 m 0,2.26772 v 2.83464 m 0,2.26771 v 2.83465 m 0,2.26771 v 2.83466 m 0,2.26771 v 2.83464 m 0,2.26772 v 2.83465 m 0,2.26772 v 2.83464 m 0,2.26772 v 2.83464 m 0,2.26771 v 2.83466 m 0,2.26771 v 2.83464 m 0,2.26772 v 2.83465 m 0,2.26772 v 2.83464 m 0,2.26772 v 2.83464 m 0,2.26771 v 2.83466 m 0,2.26773 v 2.83462 m 0,2.26773 v 2.83463 m 0,2.26773 v 2.1095 m 0,-113.38584 v 0 m 0,113.38584 v 0"
       style="fill:none;stroke:#000000;stroke-width:0.3685;stroke-linecap:round;stroke-linejoin:round;stroke-miterlimit:10;stroke-dasharray:none;stroke-opacity:1"
       id="path86" /><path
       d="m 269.29132,166.21545 h -10.77164 m 5.95276,0 h 0.4252 m -6.37796,0 v 0 l 5.95276,-0.8504 v 1.70078 l -5.95276,-0.85038"
       style="fill:none;stroke:#000000;stroke-width:0.28346;stroke-linecap:round;stroke-linejoin:round;stroke-miterlimit:10;stroke-dasharray:none;stroke-opacity:1"
       id="path88" /><path
       d="m 264.47244,167.06583 -5.95276,-0.85038 5.95276,-0.8504 z"
       style="fill:#000000;fill-opacity:1;fill-rule:nonzero;stroke:none"
       id="path90" /><path
       d="m 269.29132,169.05011 v -7.08664"
       style="fill:none;stroke:#000000;stroke-width:0.28346;stroke-linecap:round;stroke-linejoin:round;stroke-miterlimit:10;stroke-dasharray:none;stroke-opacity:1"
       id="path92" /><path
       d="m 393.05197,31.58981 c 0,-3.13105 2.53821,-5.66929 5.66928,-5.66929 m 0,0 c 3.13108,0 5.66928,2.53824 5.66928,5.66929 m 0,0 c 0,3.13108 -2.5382,5.6693 -5.66928,5.6693 m 0,0 c -3.13107,0 -5.66928,-2.53822 -5.66928,-5.6693"
       style="fill:none;stroke:#000000;stroke-width:0.99213;stroke-linecap:round;stroke-linejoin:round;stroke-miterlimit:10;stroke-dasharray:none;stroke-opacity:1"
       id="path94" /><path
       d="m 246.61417,144.97565 c 0,3.13107 -2.53821,5.66928 -5.66928,5.66928 m 0,0 c -3.13108,0 -5.66929,-2.53821 -5.66929,-5.66928 m 0,0 c 0,-3.13108 2.53821,-5.66928 5.66929,-5.66928 m 0,0 c 3.13107,0 5.66928,2.5382 5.66928,5.66928"
       style="fill:none;stroke:#000000;stroke-width:0.99213;stroke-linecap:round;stroke-linejoin:round;stroke-miterlimit:10;stroke-dasharray:none;stroke-opacity:1"
       id="path96" /><path
       d="m 240.94489,144.97565 0.44082,-13.41715 0.74637,-13.34526 0.58325,-6.62321 0.77423,-6.57831 1.00339,-6.52442 1.27075,-6.46151 1.94647,-7.78841 2.34427,-7.69484 2.68521,-7.61464 2.9694,-7.5478 6.56381,-14.94861 7.01846,-14.84168"
       style="fill:none;stroke:#000000;stroke-width:0.99213;stroke-linecap:round;stroke-linejoin:round;stroke-miterlimit:10;stroke-dasharray:none;stroke-opacity:1"
       id="path98" /><path
       d="m 382.67715,9.45161 h -10.77166 m 5.95276,0 h 0.4252 m -6.37796,0 v 0 l 5.95276,-0.85038 V 10.302 l -5.95276,-0.85039"
       style="fill:none;stroke:#000000;stroke-width:0.28346;stroke-linecap:round;stroke-linejoin:round;stroke-miterlimit:10;stroke-dasharray:none;stroke-opacity:1"
       id="path100" /><path
       d="m 377.85825,10.302 -5.95276,-0.85039 5.95276,-0.85038 z"
       style="fill:#000000;fill-opacity:1;fill-rule:nonzero;stroke:none"
       id="path102" /><path
       d="M 382.67715,12.28625 V 5.19965"
       style="fill:none;stroke:#000000;stroke-width:0.28346;stroke-linecap:round;stroke-linejoin:round;stroke-miterlimit:10;stroke-dasharray:none;stroke-opacity:1"
       id="path104" /><path
       d="m 240.94489,140.52228 4.87197,4.87201 m 108.51383,-0.41864 2.44556,-14.30439 2.76583,-14.18223 1.60312,-7.00714 1.80329,-6.93083 2.04351,-6.83922 2.32377,-6.73238 3.01815,-7.51974 3.38117,-7.38134 3.69232,-7.26269 3.95163,-7.16382 8.47366,-14.11012 8.88855,-13.95194 m -43.73755,109.48255 -6.32595,3.32089 m 5.67294,0.5824 -7.02603,-0.71552 -7.02506,-0.6156 -7.0231,-0.41568 -7.0202,-0.11581 -11.05445,0.5281 -11.05044,1.07453 -11.05206,1.17495 -11.05933,0.82926 -10.25909,0.1589 -10.2674,-0.35107 -10.27295,-0.69104 -10.27569,-0.86102 m 107.71286,-0.5824 5.67294,0.5824 0.65301,-3.90329 -6.32595,3.32089"
       style="fill:none;stroke:#000000;stroke-width:0.99213;stroke-linecap:round;stroke-linejoin:round;stroke-miterlimit:10;stroke-dasharray:none;stroke-opacity:1"
       id="path106" /><g
       id="g108"><g
         id="g110"
         clip-path="url(#clipPath114)"><text
           transform="matrix(1,0,0,-1,251.59792,163.37689)"
           style="font-style:italic;font-variant:normal;font-weight:normal;font-stretch:normal;font-size:11.0078px;font-family:'Palatino Linotype';-inkscape-font-specification:PalatinoLinotype-Italic;writing-mode:lr-tb;fill:#000000;fill-opacity:1;fill-rule:nonzero;stroke:none"
           id="text118"><tspan
             x="0"
             y="0"
             id="tspan116">1</tspan></text></g></g><g
       id="g120"><g
         id="g122"
         clip-path="url(#clipPath126)"><text
           transform="matrix(1,0,0,-1,341.73964,6.61306)"
           style="font-style:italic;font-variant:normal;font-weight:normal;font-stretch:normal;font-size:11.0078px;font-family:'Palatino Linotype';-inkscape-font-specification:PalatinoLinotype-Italic;writing-mode:lr-tb;fill:#000000;fill-opacity:1;fill-rule:nonzero;stroke:none"
           id="text130"><tspan
             x="0 3.6656108 9.1695309 11.921491 17.425411 22.929331"
             y="0"
             id="tspan128">-0.566</tspan></text></g></g></g></svg>
