<?xml version="1.0" encoding="UTF-8" standalone="no"?>
<svg
   xmlns:dc="http://purl.org/dc/elements/1.1/"
   xmlns:cc="http://creativecommons.org/ns#"
   xmlns:rdf="http://www.w3.org/1999/02/22-rdf-syntax-ns#"
   xmlns:svg="http://www.w3.org/2000/svg"
   xmlns="http://www.w3.org/2000/svg"
   version="1.1"
   id="svg2"
   xml:space="preserve"
   width="566.92932"
   height="264.56668"
   viewBox="0 0 566.92932 264.56668"><metadata
     id="metadata8"><rdf:RDF><cc:Work
         rdf:about=""><dc:format>image/svg+xml</dc:format><dc:type
           rdf:resource="http://purl.org/dc/dcmitype/StillImage" /></cc:Work></rdf:RDF></metadata><defs
     id="defs6"><clipPath
       clipPathUnits="userSpaceOnUse"
       id="clipPath56"><path
         d="M -0.00426,-0.00198 V 198.42719 H 425.20111 V -0.00198 H -0.00426"
         clip-rule="evenodd"
         id="path54" /></clipPath><clipPath
       clipPathUnits="userSpaceOnUse"
       id="clipPath74"><path
         d="M -0.00426,-0.00198 V 198.42719 H 425.20111 V -0.00198 H -0.00426"
         clip-rule="evenodd"
         id="path72" /></clipPath><clipPath
       clipPathUnits="userSpaceOnUse"
       id="clipPath88"><path
         d="M -0.00426,-0.00198 V 198.42719 H 425.20111 V -0.00198 H -0.00426"
         clip-rule="evenodd"
         id="path86" /></clipPath><clipPath
       clipPathUnits="userSpaceOnUse"
       id="clipPath100"><path
         d="M -0.00426,-0.00198 V 198.42719 H 425.20111 V -0.00198 H -0.00426"
         clip-rule="evenodd"
         id="path98" /></clipPath><clipPath
       clipPathUnits="userSpaceOnUse"
       id="clipPath112"><path
         d="M -0.00426,-0.00198 V 198.42719 H 425.20111 V -0.00198 H -0.00426"
         clip-rule="evenodd"
         id="path110" /></clipPath><clipPath
       clipPathUnits="userSpaceOnUse"
       id="clipPath124"><path
         d="M -0.00426,-0.00198 V 198.42719 H 425.20111 V -0.00198 H -0.00426"
         clip-rule="evenodd"
         id="path122" /></clipPath><clipPath
       clipPathUnits="userSpaceOnUse"
       id="clipPath136"><path
         d="M -0.00426,-0.00198 V 198.42719 H 425.20111 V -0.00198 H -0.00426"
         clip-rule="evenodd"
         id="path134" /></clipPath><clipPath
       clipPathUnits="userSpaceOnUse"
       id="clipPath148"><path
         d="M -0.00426,-0.00198 V 198.42719 H 425.20111 V -0.00198 H -0.00426"
         clip-rule="evenodd"
         id="path146" /></clipPath><clipPath
       clipPathUnits="userSpaceOnUse"
       id="clipPath160"><path
         d="M -0.00426,-0.00198 V 198.42719 H 425.20111 V -0.00198 H -0.00426"
         clip-rule="evenodd"
         id="path158" /></clipPath><clipPath
       clipPathUnits="userSpaceOnUse"
       id="clipPath172"><path
         d="M -0.00426,-0.00198 V 198.42719 H 425.20111 V -0.00198 H -0.00426"
         clip-rule="evenodd"
         id="path170" /></clipPath><clipPath
       clipPathUnits="userSpaceOnUse"
       id="clipPath184"><path
         d="M -0.00426,-0.00198 V 198.42719 H 425.20111 V -0.00198 H -0.00426"
         clip-rule="evenodd"
         id="path182" /></clipPath></defs><g
     id="g10"
     transform="matrix(1.3333333,0,0,-1.3333333,0,264.56667)"><path
       d="m 283.89804,144.12466 h -14.17322 l 0.0606,-0.92498 0.18085,-0.90918 0.29797,-0.87778 0.40997,-0.83136 0.51502,-0.77075 0.61118,-0.69693 0.69696,-0.61121 0.77075,-0.51501 0.83136,-0.40998 0.87777,-0.29797 0.90918,-0.18085 0.92499,-0.0606 0.92499,0.0606 0.90915,0.18085 0.87778,0.29797 0.83139,0.40998 0.77075,0.51501 0.69693,0.61121 0.6112,0.69693 0.51499,0.77075 0.41,0.83136 0.29795,0.87778 0.18084,0.90918 0.0606,0.92498 z"
       style="fill:#dedede;fill-opacity:1;fill-rule:nonzero;stroke:none"
       id="path12" /><path
       d="m 282.43362,148.43872 -0.6112,0.69693 -0.69693,0.61121 -0.77075,0.51498 -0.83139,0.41 -0.87778,0.29795 -0.90915,0.18084 -0.92499,0.0606 -0.92499,-0.0606 -0.90918,-0.18084 -0.87777,-0.29795 -0.83136,-0.41 -0.77075,-0.51498 -0.69696,-0.61121 -0.61118,-0.69693 -0.51502,-0.77075 -0.40997,-0.83139 -0.29797,-0.87778 -0.18085,-0.90915 -0.0606,-0.92499 h 14.17322 l -0.0606,0.92499 -0.18084,0.90915 -0.29795,0.87778 -0.41,0.83139 -0.51499,0.77075 z"
       style="fill:#dedede;fill-opacity:1;fill-rule:nonzero;stroke:none"
       id="path14" /><path
       d="M 78.38623,30.73883 V 144.12466 H 248.46497 V 30.73883 m 56.6929,113.38583 V 30.73883"
       style="fill:none;stroke:#000000;stroke-width:0.99213;stroke-linecap:round;stroke-linejoin:round;stroke-miterlimit:10;stroke-dasharray:none;stroke-opacity:1"
       id="path16" /><path
       d="m 78.38623,30.73883 170.07874,113.38583 m 0,-113.38583 -170.07874,113.38583"
       style="fill:none;stroke:#000000;stroke-width:0.3685;stroke-linecap:round;stroke-linejoin:round;stroke-miterlimit:10;stroke-dasharray:none;stroke-opacity:1"
       id="path18" /><path
       d="m 78.38623,30.73883 -6.01318,-6.0132 m 6.01318,6.0132 6.0132,-6.0132 m -12.02638,0 h 12.02638 m 164.06554,6.0132 -6.01319,-6.0132 m 6.01319,6.0132 6.01321,-6.0132 m -12.0264,0 h 12.0264 m 50.67969,6.0132 -6.01319,-6.0132 m 6.01319,6.0132 6.01321,-6.0132 m -12.0264,0 h 12.0264"
       style="fill:none;stroke:#000000;stroke-width:0.28346;stroke-linecap:round;stroke-linejoin:round;stroke-miterlimit:10;stroke-dasharray:none;stroke-opacity:1"
       id="path20" /><path
       d="m 79.80356,144.12466 c 0,0.78275 -0.63455,1.41733 -1.41733,1.41733 m 0,0 c -0.78276,0 -1.41731,-0.63458 -1.41731,-1.41733 m 0,0 c 0,-0.78277 0.63455,-1.41732 1.41731,-1.41732 m 0,0 c 0.78278,0 1.41733,0.63455 1.41733,1.41732"
       style="fill:none;stroke:#000000;stroke-width:0.99213;stroke-linecap:round;stroke-linejoin:round;stroke-miterlimit:10;stroke-dasharray:none;stroke-opacity:1"
       id="path22" /><path
       d="m 249.88229,144.12466 c 0,0.78275 -0.63455,1.41733 -1.41732,1.41733 m 0,0 c -0.78275,0 -1.41733,-0.63458 -1.41733,-1.41733 m 0,0 c 0,-0.78277 0.63458,-1.41732 1.41733,-1.41732 m 0,0 c 0.78277,0 1.41732,0.63455 1.41732,1.41732"
       style="fill:none;stroke:#000000;stroke-width:0.99213;stroke-linecap:round;stroke-linejoin:round;stroke-miterlimit:10;stroke-dasharray:none;stroke-opacity:1"
       id="path24" /><path
       d="m 249.88229,30.73883 c 0,0.78276 -0.63455,1.41733 -1.41732,1.41733 m 0,0 c -0.78275,0 -1.41733,-0.63457 -1.41733,-1.41733 m 0,0 c 0,-0.78278 0.63458,-1.41733 1.41733,-1.41733 m 0,0 c 0.78277,0 1.41732,0.63455 1.41732,1.41733"
       style="fill:none;stroke:#000000;stroke-width:0.99213;stroke-linecap:round;stroke-linejoin:round;stroke-miterlimit:10;stroke-dasharray:none;stroke-opacity:1"
       id="path26" /><path
       d="m 79.80356,30.73883 c 0,0.78276 -0.63455,1.41733 -1.41733,1.41733 m 0,0 c -0.78276,0 -1.41731,-0.63457 -1.41731,-1.41733 m 0,0 c 0,-0.78278 0.63455,-1.41733 1.41731,-1.41733 m 0,0 c 0.78278,0 1.41733,0.63455 1.41733,1.41733"
       style="fill:none;stroke:#000000;stroke-width:0.99213;stroke-linecap:round;stroke-linejoin:round;stroke-miterlimit:10;stroke-dasharray:none;stroke-opacity:1"
       id="path28" /><path
       d="m 306.5752,30.73883 c 0,0.78276 -0.63456,1.41733 -1.41733,1.41733 m 0,0 c -0.78275,0 -1.4173,-0.63457 -1.4173,-1.41733 m 0,0 c 0,-0.78278 0.63455,-1.41733 1.4173,-1.41733 m 0,0 c 0.78277,0 1.41733,0.63455 1.41733,1.41733"
       style="fill:none;stroke:#000000;stroke-width:0.99213;stroke-linecap:round;stroke-linejoin:round;stroke-miterlimit:10;stroke-dasharray:none;stroke-opacity:1"
       id="path30" /><path
       d="m 306.5752,144.12466 c 0,0.78275 -0.63456,1.41733 -1.41733,1.41733 m 0,0 c -0.78275,0 -1.4173,-0.63458 -1.4173,-1.41733 m 0,0 c 0,-0.78277 0.63455,-1.41732 1.4173,-1.41732 m 0,0 c 0.78277,0 1.41733,0.63455 1.41733,1.41732"
       style="fill:none;stroke:#000000;stroke-width:0.99213;stroke-linecap:round;stroke-linejoin:round;stroke-miterlimit:10;stroke-dasharray:none;stroke-opacity:1"
       id="path32" /><path
       d="m 283.89804,144.12466 c 0,3.91382 -3.17279,7.08661 -7.08661,7.08661 m 0,0 c -3.91385,0 -7.08661,-3.17279 -7.08661,-7.08661 m 0,0 c 0,-3.91384 3.17276,-7.0866 7.08661,-7.0866 m 0,0 c 3.91382,0 7.08661,3.17276 7.08661,7.0866"
       style="fill:none;stroke:#000000;stroke-width:0.99213;stroke-linecap:round;stroke-linejoin:round;stroke-miterlimit:10;stroke-dasharray:none;stroke-opacity:1"
       id="path34" /><path
       d="m 248.46497,144.12466 h 21.25985 m 14.17322,0 h 21.25983"
       style="fill:none;stroke:#000000;stroke-width:0.99213;stroke-linecap:round;stroke-linejoin:round;stroke-miterlimit:10;stroke-dasharray:none;stroke-opacity:1"
       id="path36" /><path
       d="m 259.09488,144.12466 v 17.00788 h 34.01575 v -17.00788"
       style="fill:none;stroke:#000000;stroke-width:0.3685;stroke-linecap:round;stroke-linejoin:round;stroke-miterlimit:10;stroke-dasharray:none;stroke-opacity:1"
       id="path38" /><path
       d="m 305.15787,186.9278 h 10.77166 m -5.95275,0 h -0.42521 m 6.37796,0 v 0 l -5.95275,0.8504 v -1.70078 l 5.95275,0.85038"
       style="fill:none;stroke:#000000;stroke-width:0.28346;stroke-linecap:round;stroke-linejoin:round;stroke-miterlimit:10;stroke-dasharray:none;stroke-opacity:1"
       id="path40" /><path
       d="m 309.97678,186.07742 5.95275,0.85038 -5.95275,0.8504 z"
       style="fill:#000000;fill-opacity:1;fill-rule:nonzero;stroke:none"
       id="path42" /><path
       d="m 305.15787,184.09317 v 7.08661"
       style="fill:none;stroke:#000000;stroke-width:0.28346;stroke-linecap:round;stroke-linejoin:round;stroke-miterlimit:10;stroke-dasharray:none;stroke-opacity:1"
       id="path44" /><path
       d="m 78.38623,3.17061 2.97638,0.4252 V 2.74542 l -2.97638,0.42519 m 170.07874,0 -2.97638,0.4252 V 2.74542 l 2.97638,0.42519"
       style="fill:none;stroke:#000000;stroke-width:0.56693;stroke-linecap:round;stroke-linejoin:round;stroke-miterlimit:10;stroke-dasharray:none;stroke-opacity:1"
       id="path46" /><path
       d="M 78.38623,3.17061 V 5.2966 m 0,-2.12599 V 1.04463 M 248.46497,3.17061 V 5.2966 m 0,-2.12599 V 1.04463 M 78.38623,3.17061 V 19.05635 M 248.46497,3.17061 V 19.05635 M 78.38623,3.17061 v 0 m 170.07874,0 v 0"
       style="fill:none;stroke:#000000;stroke-width:0.28346;stroke-linecap:round;stroke-linejoin:round;stroke-miterlimit:10;stroke-dasharray:none;stroke-opacity:1"
       id="path48" /><g
       id="g50"><g
         id="g52"
         clip-path="url(#clipPath56)"><text
           transform="matrix(1,0,0,-1,154.60503,4.68845)"
           style="font-variant:normal;font-weight:normal;font-stretch:normal;font-size:10.0916px;font-family:'Palatino Linotype';-inkscape-font-specification:PalatinoLinotype-Roman;writing-mode:lr-tb;fill:#000000;fill-opacity:1;fill-rule:nonzero;stroke:none"
           id="text60"><tspan
             x="0 5.045805 7.5687075 12.614512"
             y="0"
             id="tspan58">6.00</tspan></text></g></g><path
       d="M 78.38623,3.17061 H 115.8998 248.46497"
       style="fill:none;stroke:#000000;stroke-width:0.28346;stroke-linecap:round;stroke-linejoin:round;stroke-miterlimit:10;stroke-dasharray:none;stroke-opacity:1"
       id="path62" /><path
       d="m 55.22966,30.73883 -0.4252,2.97638 h 0.85039 l -0.42519,-2.97638 m 0,113.38583 -0.4252,-2.97638 h 0.85039 l -0.42519,2.97638"
       style="fill:none;stroke:#000000;stroke-width:0.56693;stroke-linecap:round;stroke-linejoin:round;stroke-miterlimit:10;stroke-dasharray:none;stroke-opacity:1"
       id="path64" /><path
       d="m 55.22966,30.73883 h -2.12599 m 2.12599,0 h 2.12598 m -2.12598,113.38583 h -2.12599 m 2.12599,0 h 2.12598 M 55.22966,30.73883 H 72.71695 M 55.22966,144.12466 H 72.71695 M 55.22966,30.73883 v 0 m 0,113.38583 v 0"
       style="fill:none;stroke:#000000;stroke-width:0.28346;stroke-linecap:round;stroke-linejoin:round;stroke-miterlimit:10;stroke-dasharray:none;stroke-opacity:1"
       id="path66" /><g
       id="g68"><g
         id="g70"
         clip-path="url(#clipPath74)"><text
           transform="matrix(0,1,1,0,53.71181,78.61117)"
           style="font-variant:normal;font-weight:normal;font-stretch:normal;font-size:10.0916px;font-family:'Palatino Linotype';-inkscape-font-specification:PalatinoLinotype-Roman;writing-mode:lr-tb;fill:#000000;fill-opacity:1;fill-rule:nonzero;stroke:none"
           id="text78"><tspan
             x="0 5.045805 7.5687075 12.614512"
             y="0"
             id="tspan76">4.00</tspan></text></g></g><path
       d="M 55.22966,30.73883 V 144.12466"
       style="fill:none;stroke:#000000;stroke-width:0.28346;stroke-linecap:round;stroke-linejoin:round;stroke-miterlimit:10;stroke-dasharray:none;stroke-opacity:1"
       id="path80" /><g
       id="g82"><g
         id="g84"
         clip-path="url(#clipPath88)"><text
           transform="matrix(1,0,0,-1,264.46892,128.24259)"
           style="font-style:italic;font-variant:normal;font-weight:normal;font-stretch:normal;font-size:11.0078px;font-family:'Palatino Linotype';-inkscape-font-specification:PalatinoLinotype-Italic;writing-mode:lr-tb;fill:#000000;fill-opacity:1;fill-rule:nonzero;stroke:none"
           id="text92"><tspan
             x="0"
             y="0"
             id="tspan90">m</tspan></text></g></g><g
       id="g94"><g
         id="g96"
         clip-path="url(#clipPath100)"><text
           transform="matrix(1,0,0,-1,274.46456,123.69535)"
           style="font-style:italic;font-variant:normal;font-weight:normal;font-stretch:normal;font-size:6.6047px;font-family:'Palatino Linotype';-inkscape-font-specification:PalatinoLinotype-Italic;writing-mode:lr-tb;fill:#000000;fill-opacity:1;fill-rule:nonzero;stroke:none"
           id="text104"><tspan
             x="0 2.1993651 5.1318517"
             y="0"
             id="tspan102">tot</tspan></text></g></g><g
       id="g106"><g
         id="g108"
         clip-path="url(#clipPath112)"><text
           transform="matrix(0.83205029,-0.5547002,-0.5547002,-0.83205029,109.67426,128.58221)"
           style="font-variant:normal;font-weight:normal;font-stretch:normal;font-size:11.1008px;font-family:'Palatino Linotype';-inkscape-font-specification:PalatinoLinotype-Roman;writing-mode:lr-tb;fill:#000000;fill-opacity:1;fill-rule:nonzero;stroke:none"
           id="text116"><tspan
             x="0 7.4153152 14.10908 20.569729 27.352301 32.059029 35.677879 41.228264 47.688915"
             y="0"
             id="tspan114">Rundstahl</tspan></text></g></g><g
       id="g118"><g
         id="g120"
         clip-path="url(#clipPath124)"><text
           transform="matrix(0.83205043,-0.55469999,-0.55469999,-0.83205043,101.02619,115.61009)"
           style="font-variant:normal;font-weight:normal;font-stretch:normal;font-size:11.1344px;font-family:'Segoe UI Symbol';-inkscape-font-specification:SegoeUISymbol;writing-mode:lr-tb;fill:#000000;fill-opacity:1;fill-rule:nonzero;stroke:none"
           id="text128"><tspan
             x="0"
             y="0"
             id="tspan126">⌀</tspan></text></g></g><g
       id="g130"><g
         id="g132"
         clip-path="url(#clipPath136)"><text
           transform="matrix(0.83205029,-0.5547002,-0.5547002,-0.83205029,111.14208,108.86616)"
           style="font-variant:normal;font-weight:normal;font-stretch:normal;font-size:11.1008px;font-family:'Palatino Linotype';-inkscape-font-specification:PalatinoLinotype-Roman;writing-mode:lr-tb;fill:#000000;fill-opacity:1;fill-rule:nonzero;stroke:none"
           id="text140"><tspan
             x="0 5.5503855 11.100771 13.875964 23.677944"
             y="0"
             id="tspan138">12 mm</tspan></text></g></g><g
       id="g142"><g
         id="g144"
         clip-path="url(#clipPath148)"><text
           transform="matrix(1,0,0,-1,279.33191,164.50852)"
           style="font-variant:normal;font-weight:normal;font-stretch:normal;font-size:11.1008px;font-family:'Palatino Linotype';-inkscape-font-specification:PalatinoLinotype-Roman;writing-mode:lr-tb;fill:#000000;fill-opacity:1;fill-rule:nonzero;stroke:none"
           id="text152"><tspan
             x="0 11.10077 16.418039 20.802843 26.974871 32.525257 37.842525 44.536289 50.708317 60.510296 66.060684 70.76741 75.696152 82.156799 85.387123 91.847771"
             y="0"
             id="tspan150">Werkzeugmaschine</tspan></text></g></g><g
       id="g154"><g
         id="g156"
         clip-path="url(#clipPath160)"><text
           transform="matrix(1,0,0,-1,317.46933,185.44723)"
           style="font-style:italic;font-variant:normal;font-weight:normal;font-stretch:normal;font-size:11.0078px;font-family:'Palatino Linotype';-inkscape-font-specification:PalatinoLinotype-Italic;writing-mode:lr-tb;fill:#000000;fill-opacity:1;fill-rule:nonzero;stroke:none"
           id="text164"><tspan
             x="0 6.1203589 9.7859697 13.45158"
             y="0"
             id="tspan162">u(t)</tspan></text></g></g><g
       id="g166"><g
         id="g168"
         clip-path="url(#clipPath172)"><text
           transform="matrix(1,0,0,-1,78.38623,168.79788)"
           style="font-variant:normal;font-weight:normal;font-stretch:normal;font-size:11.1008px;font-family:'Palatino Linotype';-inkscape-font-specification:PalatinoLinotype-Roman;writing-mode:lr-tb;fill:#000000;fill-opacity:1;fill-rule:nonzero;stroke:none"
           id="text176"><tspan
             x="0 8.4698877 13.787156 17.017481 22.334749 28.795397 34.967426 38.19775 44.369778 49.687046 52.462238 59.244808 64.795197 70.967224 76.284492 80.669296 87.36306 93.823708"
             y="0"
             id="tspan174">Gelenkige Lagerung</tspan></text></g></g><g
       id="g178"><g
         id="g180"
         clip-path="url(#clipPath184)"><text
           transform="matrix(1,0,0,-1,78.38623,153.20733)"
           style="font-variant:normal;font-weight:normal;font-stretch:normal;font-size:11.1008px;font-family:'Palatino Linotype';-inkscape-font-specification:PalatinoLinotype-Roman;writing-mode:lr-tb;fill:#000000;fill-opacity:1;fill-rule:nonzero;stroke:none"
           id="text188"><tspan
             x="0 5.550385 8.7807093 12.011033 17.328302 21.713106 24.488298 32.547459 39.008106 45.069126 48.687977 54.005245"
             y="0"
             id="tspan186">aller Knoten</tspan></text></g></g><path
       d="m 279.33191,168.14633 h -7.65353 v -7.01379 m 0,-1.27561 v 0 m 0,2.55118 v 0 m 1.27557,-1.27557 v 0 m -2.55118,0 v 0"
       style="fill:none;stroke:#000000;stroke-width:0.3685;stroke-linecap:round;stroke-linejoin:round;stroke-miterlimit:10;stroke-dasharray:none;stroke-opacity:1"
       id="path190" /><path
       d="m 271.67838,159.85693 c 0.70446,0 1.27557,0.57111 1.27557,1.27561 m 0,0 c 0,0.7045 -0.57111,1.27557 -1.27557,1.27557 m 0,0 c -0.7045,0 -1.27561,-0.57107 -1.27561,-1.27557 m 0,0 c 0,-0.7045 0.57111,-1.27561 1.27561,-1.27561 m 0,0 c 0,0 0,0 0,0"
       style="fill:none;stroke:#000000;stroke-width:0.3685;stroke-linecap:round;stroke-linejoin:round;stroke-miterlimit:10;stroke-dasharray:none;stroke-opacity:1"
       id="path192" /><path
       d="m 271.04059,162.22952 h 1.27557 l -0.63778,0.17859 z"
       style="fill:#000000;fill-opacity:1;fill-rule:nonzero;stroke:none"
       id="path194" /><path
       d="m 272.31616,162.22952 h -1.27557 l -0.45923,-0.4592 z"
       style="fill:#000000;fill-opacity:1;fill-rule:nonzero;stroke:none"
       id="path196" /><path
       d="m 272.31616,162.22952 -1.7348,-0.4592 h 2.194 z"
       style="fill:#000000;fill-opacity:1;fill-rule:nonzero;stroke:none"
       id="path198" /><path
       d="m 272.77536,161.77032 h -2.194 l -0.17859,-0.63778 z"
       style="fill:#000000;fill-opacity:1;fill-rule:nonzero;stroke:none"
       id="path200" /><path
       d="m 272.77536,161.77032 -2.37259,-0.63778 h 2.55118 z"
       style="fill:#000000;fill-opacity:1;fill-rule:nonzero;stroke:none"
       id="path202" /><path
       d="m 272.95395,161.13254 h -2.55118 l 0.17859,-0.63779 z"
       style="fill:#000000;fill-opacity:1;fill-rule:nonzero;stroke:none"
       id="path204" /><path
       d="m 272.95395,161.13254 -2.37259,-0.63779 h 2.194 z"
       style="fill:#000000;fill-opacity:1;fill-rule:nonzero;stroke:none"
       id="path206" /><path
       d="m 272.77536,160.49475 h -2.194 l 0.45923,-0.45923 z"
       style="fill:#000000;fill-opacity:1;fill-rule:nonzero;stroke:none"
       id="path208" /><path
       d="m 272.77536,160.49475 -1.73477,-0.45923 h 1.27557 z"
       style="fill:#000000;fill-opacity:1;fill-rule:nonzero;stroke:none"
       id="path210" /><path
       d="m 272.31616,160.03552 h -1.27557 l 0.63779,-0.17859 z"
       style="fill:#000000;fill-opacity:1;fill-rule:nonzero;stroke:none"
       id="path212" /></g></svg>
