<?xml version="1.0" encoding="UTF-8" standalone="no"?>
<svg
   xmlns:dc="http://purl.org/dc/elements/1.1/"
   xmlns:cc="http://creativecommons.org/ns#"
   xmlns:rdf="http://www.w3.org/1999/02/22-rdf-syntax-ns#"
   xmlns:svg="http://www.w3.org/2000/svg"
   xmlns="http://www.w3.org/2000/svg"
   version="1.1"
   id="svg2"
   xml:space="preserve"
   width="566.92932"
   height="283.46399"
   viewBox="0 0 566.92932 283.46399"><metadata
     id="metadata8"><rdf:RDF><cc:Work
         rdf:about=""><dc:format>image/svg+xml</dc:format><dc:type
           rdf:resource="http://purl.org/dc/dcmitype/StillImage" /></cc:Work></rdf:RDF></metadata><defs
     id="defs6"><clipPath
       clipPathUnits="userSpaceOnUse"
       id="clipPath78"><path
         d="M 412.03226,211.11191 H 22.6575 V 1.20638 h 389.37476 v 209.90553"
         clip-rule="evenodd"
         id="path76" /></clipPath><clipPath
       clipPathUnits="userSpaceOnUse"
       id="clipPath90"><path
         d="M 412.03226,211.11191 H 22.6575 V 1.20638 h 389.37476 v 209.90553"
         clip-rule="evenodd"
         id="path88" /></clipPath><clipPath
       clipPathUnits="userSpaceOnUse"
       id="clipPath102"><path
         d="M 412.03226,211.11191 H 22.6575 V 1.20638 h 389.37476 v 209.90553"
         clip-rule="evenodd"
         id="path100" /></clipPath><clipPath
       clipPathUnits="userSpaceOnUse"
       id="clipPath114"><path
         d="M 412.03226,211.11191 H 22.6575 V 1.20638 h 389.37476 v 209.90553"
         clip-rule="evenodd"
         id="path112" /></clipPath><clipPath
       clipPathUnits="userSpaceOnUse"
       id="clipPath126"><path
         d="M 412.03226,211.11191 H 22.6575 V 1.20638 h 389.37476 v 209.90553"
         clip-rule="evenodd"
         id="path124" /></clipPath><clipPath
       clipPathUnits="userSpaceOnUse"
       id="clipPath138"><path
         d="M 412.03226,211.11191 H 22.6575 V 1.20638 h 389.37476 v 209.90553"
         clip-rule="evenodd"
         id="path136" /></clipPath><clipPath
       clipPathUnits="userSpaceOnUse"
       id="clipPath150"><path
         d="M 412.03226,211.11191 H 22.6575 V 1.20638 h 389.37476 v 209.90553"
         clip-rule="evenodd"
         id="path148" /></clipPath><clipPath
       clipPathUnits="userSpaceOnUse"
       id="clipPath162"><path
         d="M 412.03226,211.11191 H 22.6575 V 1.20638 h 389.37476 v 209.90553"
         clip-rule="evenodd"
         id="path160" /></clipPath><clipPath
       clipPathUnits="userSpaceOnUse"
       id="clipPath174"><path
         d="M 412.03226,211.11191 H 22.6575 V 1.20638 h 389.37476 v 209.90553"
         clip-rule="evenodd"
         id="path172" /></clipPath><clipPath
       clipPathUnits="userSpaceOnUse"
       id="clipPath182"><path
         d="M 412.03226,211.11191 H 22.6575 V 1.20638 h 389.37476 v 209.90553"
         clip-rule="evenodd"
         id="path180" /></clipPath><clipPath
       clipPathUnits="userSpaceOnUse"
       id="clipPath194"><path
         d="M 412.03226,211.11191 H 22.6575 V 1.20638 h 389.37476 v 209.90553"
         clip-rule="evenodd"
         id="path192" /></clipPath><clipPath
       clipPathUnits="userSpaceOnUse"
       id="clipPath206"><path
         d="M 412.03226,211.11191 H 22.6575 V 1.20638 h 389.37476 v 209.90553"
         clip-rule="evenodd"
         id="path204" /></clipPath></defs><g
     id="g10"
     transform="matrix(1.3333333,0,0,-1.3333333,0,283.464)"><path
       d="m 179.91592,154.12711 0.0851,0.20547 0.11621,0.18964 0.14444,0.16913 0.16913,0.14443 0.1896,0.11622 0.20548,0.0851 0.21628,0.0519 v 0.0175 H 40.94889 l -0.01156,-0.14698 140.32654,-14.67025 140.32778,14.67038 -0.0128,0.14685 h -140.1492 l 0.319,-0.0855 0.2239,-0.10444 0.2024,-0.14169 0.17468,-0.17468 0.14172,-0.20239 0.1044,-0.22391 0.0539,-0.20129 h -0.0606 l 0.0921,-0.28345 -0.27069,-0.8331 -0.70865,-0.51486 h -0.87597 l -0.70865,0.51486 -0.27069,0.8331 0.0921,0.28345 h -0.0598 l 0.0371,0.15451 z"
       style="fill:#ffeed4;fill-opacity:1;fill-rule:nonzero;stroke:none"
       id="path12" /><path
       d="M 180.8259,13.30481 41.92827,68.86386 h -1.98963 l 0.1368,0.11168 0.01895,0.02141 -1.00076,1.00078 -0.52571,-1.31426 0.02311,-0.01097 0.08518,-0.02467 -0.11069,0.02966 -2.94601,-7.36505 141.7323,-56.6929 z"
       style="fill:#f8f7ff;fill-opacity:1;fill-rule:nonzero;stroke:none"
       id="path14" /><path
       d="m 180.8259,13.30481 3.47412,-8.68527 141.73227,56.6929 -2.94602,7.36505 -0.11068,-0.02966 0.0852,0.02467 0.0231,0.01097 -0.52572,1.31426 -1.00077,-1.00078 0.019,-0.02141 0.13682,-0.11168 h -1.98963 z"
       style="fill:#f8f7ff;fill-opacity:1;fill-rule:nonzero;stroke:none"
       id="path16" /><path
       d="m 182.15775,13.78957 0.064,-0.23865 0.0215,-0.24611 h 4.53543 v 56.69292 h -5.78699 l 0.319,-0.08548 0.22391,-0.1044 0.20236,-0.14171 0.17471,-0.1747 0.14169,-0.20238 0.10441,-0.2239 0.054,-0.2013 h 0.003 l 0.0288,-0.28346 -0.029,-0.28531 -0.0858,-0.27362 -0.13916,-0.25073 -0.1868,-0.21761 -0.22678,-0.17554 -0.25747,-0.12629 -0.27762,-0.07187 -0.21463,-0.0109 V 14.71667 l 0.21463,-0.01089 0.27762,-0.07187 0.25747,-0.1263 0.22678,-0.17553 0.1868,-0.21759 0.1564,-0.2818 -0.007,-0.0027 0.0189,-0.04043 z"
       style="fill:#ffeae5;fill-opacity:1;fill-rule:nonzero;stroke:none"
       id="path18" /><path
       d="m 39.09363,71.34567 h 0.43797 l 0.70866,-0.51486 0.27068,-0.83308 h 280.62993 l 0.27066,0.83308 0.70868,0.51486 h 0.43796 v 8.57332 H 39.09363 Z"
       style="fill:#ffeae5;fill-opacity:1;fill-rule:nonzero;stroke:none"
       id="path20" /><path
       d="M 39.5316,155.10648 H 322.99615"
       style="fill:none;stroke:#000000;stroke-width:0.99213;stroke-linecap:round;stroke-linejoin:round;stroke-miterlimit:10;stroke-dasharray:none;stroke-opacity:1"
       id="path22" /><path
       d="m 39.5316,155.10648 -6.0132,-6.01322 m 6.0132,6.01322 6.01318,-6.01322 m -12.02638,0 h 12.02638"
       style="fill:none;stroke:#000000;stroke-width:0.28346;stroke-linecap:round;stroke-linejoin:round;stroke-miterlimit:10;stroke-dasharray:none;stroke-opacity:1"
       id="path24" /><path
       d="m 40.94891,155.10648 c 0,0.78274 -0.63455,1.41729 -1.41731,1.41729 m 0,0 c -0.78277,0 -1.41733,-0.63455 -1.41733,-1.41729 m 0,0 c 0,-0.78278 0.63456,-1.41733 1.41733,-1.41733 m 0,0 c 0.78276,0 1.41731,0.63455 1.41731,1.41733"
       style="fill:none;stroke:#000000;stroke-width:0.99213;stroke-linecap:round;stroke-linejoin:round;stroke-miterlimit:10;stroke-dasharray:none;stroke-opacity:1"
       id="path26" /><path
       d="m 322.99615,155.10648 -6.01318,-6.01322 m 6.01318,6.01322 6.01319,-6.01322 m -12.02637,0 h 12.02637"
       style="fill:none;stroke:#000000;stroke-width:0.28346;stroke-linecap:round;stroke-linejoin:round;stroke-miterlimit:10;stroke-dasharray:none;stroke-opacity:1"
       id="path28" /><path
       d="m 324.41348,155.10648 c 0,0.78274 -0.63455,1.41729 -1.41733,1.41729 m 0,0 c -0.78277,0 -1.41732,-0.63455 -1.41732,-1.41729 m 0,0 c 0,-0.78278 0.63455,-1.41733 1.41732,-1.41733 m 0,0 c 0.78278,0 1.41733,0.63455 1.41733,1.41733"
       style="fill:none;stroke:#000000;stroke-width:0.99213;stroke-linecap:round;stroke-linejoin:round;stroke-miterlimit:10;stroke-dasharray:none;stroke-opacity:1"
       id="path30" /><path
       d="M 181.26389,155.10648 V 98.41354 l 141.73226,56.69294 M 181.26389,98.41354 39.5316,155.10648"
       style="fill:none;stroke:#000000;stroke-width:0.99213;stroke-linecap:round;stroke-linejoin:round;stroke-miterlimit:10;stroke-dasharray:none;stroke-opacity:1"
       id="path32" /><path
       d="m 182.68121,98.41354 c 0,0.78278 -0.63455,1.41733 -1.41732,1.41733 m 0,0 c -0.78278,0 -1.41733,-0.63455 -1.41733,-1.41733 m 0,0 c 0,-0.78276 0.63455,-1.41731 1.41733,-1.41731 m 0,0 c 0.78277,0 1.41732,0.63455 1.41732,1.41731"
       style="fill:none;stroke:#000000;stroke-width:0.99213;stroke-linecap:round;stroke-linejoin:round;stroke-miterlimit:10;stroke-dasharray:none;stroke-opacity:1"
       id="path34" /><path
       d="m 182.68121,153.68915 c 0,0.78274 -0.63455,1.41733 -1.41732,1.41733 m 0,0 c -0.78278,0 -1.41733,-0.63459 -1.41733,-1.41733 m 0,0 c 0,-0.78278 0.63455,-1.41733 1.41733,-1.41733 m 0,0 c 0.78277,0 1.41732,0.63455 1.41732,1.41733"
       style="fill:none;stroke:#000000;stroke-width:0.99213;stroke-linecap:round;stroke-linejoin:round;stroke-miterlimit:10;stroke-dasharray:none;stroke-opacity:1"
       id="path36" /><path
       d="m 181.26389,195.35843 v -20.97638 m 0,5.4567 v 0.38977 m 0,-5.84647 v 0 l 0.77954,5.4567 h -1.55906 l 0.77952,-5.4567"
       style="fill:none;stroke:#ff0000;stroke-width:0.28346;stroke-linecap:round;stroke-linejoin:round;stroke-miterlimit:10;stroke-dasharray:none;stroke-opacity:1"
       id="path38" /><path
       d="m 180.48437,179.83875 0.77952,-5.4567 0.77954,5.4567 z"
       style="fill:#ff0000;fill-opacity:1;fill-rule:nonzero;stroke:none"
       id="path40" /><path
       d="m 39.5316,153.9726 h 0.15344 m 2.83464,0 h 4.25197 m 2.83466,0 h 4.25197 m 2.83464,0 h 4.25197 m 2.83464,0 h 4.25196 m 2.83466,0 h 4.25197 m 2.83464,0 h 4.25197 m 2.83464,0 h 4.25197 m 2.83465,0 h 4.25197 m 2.83464,0 h 4.25197 m 2.83464,0 h 4.25197 m 2.83465,0 h 4.25197 m 2.83464,0 h 4.25197 m 2.83464,0 h 4.25199 m 2.83465,0 h 4.25195 m 2.83466,0 h 4.25195 m 2.83466,0 h 4.25195 m 2.83466,0 h 4.25198 m 2.83463,0 h 4.25198 m 2.83463,0 h 4.25198 m 2.83465,0 h 4.25196 m 2.83465,0 h 4.25196 m 2.83465,0 h 4.25196 m 2.83465,0 h 4.25199 m 2.83462,0 h 4.25198 m 2.83463,0 h 4.25198 m 2.83466,0 h 4.25195 m 2.83466,0 h 4.25195 m 2.83466,0 h 4.25195 m 2.83466,0 h 4.25198 m 2.83462,0 h 4.25199 m 2.83462,0 h 4.25199 m 2.83462,0 h 4.25199 m 2.83465,0 h 4.25195 m 2.83466,0 h 4.25195 m 2.83466,0 h 4.25195 m 2.83466,0 h 4.25198 m 2.83463,0 h 4.25198 m 2.83463,0 h 4.25198 m 2.83466,0 h 4.25195 m 2.83465,0 h 4.09851 m -283.46455,0 v 0 m 283.46455,0 v 0"
       style="fill:none;stroke:#000000;stroke-width:0.3685;stroke-linecap:round;stroke-linejoin:round;stroke-miterlimit:10;stroke-dasharray:none;stroke-opacity:1"
       id="path42" /><path
       d="m 315.05914,147.97763 h 15.87403"
       style="fill:none;stroke:#000000;stroke-width:0.28346;stroke-linecap:round;stroke-linejoin:round;stroke-miterlimit:10;stroke-dasharray:none;stroke-opacity:1"
       id="path44" /><path
       d="m 39.5316,155.10648 141.73229,-14.81723 141.73226,14.81723"
       style="fill:none;stroke:#ff8000;stroke-width:0.3685;stroke-linecap:round;stroke-linejoin:round;stroke-miterlimit:10;stroke-dasharray:none;stroke-opacity:1"
       id="path46" /><path
       d="M 39.09363,69.99773 H 322.55817"
       style="fill:none;stroke:#000000;stroke-width:0.99213;stroke-linecap:round;stroke-linejoin:round;stroke-miterlimit:10;stroke-dasharray:none;stroke-opacity:1"
       id="path48" /><path
       d="m 39.09363,69.99773 -6.0132,-6.0132 m 6.0132,6.0132 6.01318,-6.0132 m -12.02638,0 h 12.02638"
       style="fill:none;stroke:#000000;stroke-width:0.28346;stroke-linecap:round;stroke-linejoin:round;stroke-miterlimit:10;stroke-dasharray:none;stroke-opacity:1"
       id="path50" /><path
       d="m 40.51094,69.99773 c 0,0.78276 -0.63455,1.41732 -1.41731,1.41732 m 0,0 c -0.78278,0 -1.41733,-0.63456 -1.41733,-1.41732 m 0,0 c 0,-0.78276 0.63455,-1.41733 1.41733,-1.41733 m 0,0 c 0.78276,0 1.41731,0.63457 1.41731,1.41733"
       style="fill:none;stroke:#000000;stroke-width:0.99213;stroke-linecap:round;stroke-linejoin:round;stroke-miterlimit:10;stroke-dasharray:none;stroke-opacity:1"
       id="path52" /><path
       d="m 322.55817,69.99773 -6.01319,-6.0132 m 6.01319,6.0132 6.01321,-6.0132 m -12.0264,0 h 12.0264"
       style="fill:none;stroke:#000000;stroke-width:0.28346;stroke-linecap:round;stroke-linejoin:round;stroke-miterlimit:10;stroke-dasharray:none;stroke-opacity:1"
       id="path54" /><path
       d="m 323.97549,69.99773 c 0,0.78276 -0.63455,1.41732 -1.41732,1.41732 m 0,0 c -0.78275,0 -1.4173,-0.63456 -1.4173,-1.41732 m 0,0 c 0,-0.78276 0.63455,-1.41733 1.4173,-1.41733 m 0,0 c 0.78277,0 1.41732,0.63457 1.41732,1.41733"
       style="fill:none;stroke:#000000;stroke-width:0.99213;stroke-linecap:round;stroke-linejoin:round;stroke-miterlimit:10;stroke-dasharray:none;stroke-opacity:1"
       id="path56" /><path
       d="M 180.8259,69.99773 V 13.30481 L 322.55817,69.99773 M 180.8259,13.30481 39.09363,69.99773"
       style="fill:none;stroke:#000000;stroke-width:0.99213;stroke-linecap:round;stroke-linejoin:round;stroke-miterlimit:10;stroke-dasharray:none;stroke-opacity:1"
       id="path58" /><path
       d="m 182.24323,13.30481 c 0,0.78276 -0.63456,1.41733 -1.41733,1.41733 m 0,0 c -0.78275,0 -1.4173,-0.63457 -1.4173,-1.41733 m 0,0 c 0,-0.78276 0.63455,-1.41733 1.4173,-1.41733 m 0,0 c 0.78277,0 1.41733,0.63457 1.41733,1.41733"
       style="fill:none;stroke:#000000;stroke-width:0.99213;stroke-linecap:round;stroke-linejoin:round;stroke-miterlimit:10;stroke-dasharray:none;stroke-opacity:1"
       id="path60" /><path
       d="m 182.24323,68.5804 c 0,0.78277 -0.63456,1.41733 -1.41733,1.41733 m 0,0 c -0.78275,0 -1.4173,-0.63456 -1.4173,-1.41733 m 0,0 c 0,-0.78276 0.63455,-1.41731 1.4173,-1.41731 m 0,0 c 0.78277,0 1.41733,0.63455 1.41733,1.41731"
       style="fill:none;stroke:#000000;stroke-width:0.99213;stroke-linecap:round;stroke-linejoin:round;stroke-miterlimit:10;stroke-dasharray:none;stroke-opacity:1"
       id="path62" /><path
       d="m 39.09363,68.86386 h 0.59141 m 2.83464,0 h 4.25197 m 2.83466,0 h 4.25197 m 2.83464,0 h 4.25197 m 2.83464,0 h 4.25196 m 2.83466,0 h 4.25197 m 2.83464,0 h 4.25197 m 2.83464,0 h 4.25197 m 2.83465,0 h 4.25197 m 2.83464,0 h 4.25197 m 2.83464,0 h 4.25197 m 2.83465,0 h 4.25197 m 2.83464,0 h 4.25197 m 2.83464,0 h 4.25199 m 2.83465,0 h 4.25195 m 2.83466,0 h 4.25195 m 2.83466,0 h 4.25195 m 2.83466,0 h 4.25198 m 2.83463,0 h 4.25198 m 2.83463,0 h 4.25198 m 2.83465,0 h 4.25196 m 2.83465,0 h 4.25196 m 2.83465,0 h 4.25196 m 2.83465,0 h 4.25199 m 2.83462,0 h 4.25198 m 2.83463,0 h 4.25198 m 2.83466,0 h 4.25195 m 2.83466,0 h 4.25195 m 2.83466,0 h 4.25195 m 2.83466,0 h 4.25198 m 2.83462,0 h 4.25199 m 2.83462,0 h 4.25199 m 2.83462,0 h 4.25199 m 2.83465,0 h 4.25195 m 2.83466,0 h 4.25195 m 2.83466,0 h 4.25195 m 2.83466,0 h 4.25198 m 2.83463,0 h 4.25198 m 2.83463,0 h 4.25198 m 2.83466,0 h 4.25195 m 2.83465,0 h 3.66056 m -283.46457,0 v 0 m 283.46454,0 v 0"
       style="fill:none;stroke:#000000;stroke-width:0.3685;stroke-linecap:round;stroke-linejoin:round;stroke-miterlimit:10;stroke-dasharray:none;stroke-opacity:1"
       id="path64" /><path
       d="m 314.62119,62.8689 h 15.87399"
       style="fill:none;stroke:#000000;stroke-width:0.28346;stroke-linecap:round;stroke-linejoin:round;stroke-miterlimit:10;stroke-dasharray:none;stroke-opacity:1"
       id="path66" /><path
       d="m 39.09363,69.99773 v 9.92126 h 283.46454 v -9.92126 m -141.73227,0 h 5.95276 V 13.30481 h -5.95276"
       style="fill:none;stroke:#ff0000;stroke-width:0.3685;stroke-linecap:round;stroke-linejoin:round;stroke-miterlimit:10;stroke-dasharray:none;stroke-opacity:1"
       id="path68" /><path
       d="M 39.09363,69.99773 35.61951,61.31244 M 180.8259,13.30481 177.35181,4.61954 m -141.7323,56.6929 141.7323,-56.6929 m 145.20636,65.37819 3.47412,-8.68529 M 180.8259,13.30481 184.30002,4.61954 M 326.03229,61.31244 184.30002,4.61954"
       style="fill:none;stroke:#0000ff;stroke-width:0.3685;stroke-linecap:round;stroke-linejoin:round;stroke-miterlimit:10;stroke-dasharray:none;stroke-opacity:1"
       id="path70" /><g
       id="g72"><g
         id="g74"
         clip-path="url(#clipPath78)"><text
           transform="matrix(1,0,0,-1,185.95818,130.51068)"
           style="font-style:italic;font-variant:normal;font-weight:normal;font-stretch:normal;font-size:11.0078px;font-family:'Palatino Linotype';-inkscape-font-specification:PalatinoLinotype-Italic;writing-mode:lr-tb;fill:#ff8000;fill-opacity:1;fill-rule:nonzero;stroke:none"
           id="text82"><tspan
             x="0 5.5039201 11.00784 13.7598 19.26372 24.767639"
             y="0"
             id="tspan80">+0.163</tspan></text></g></g><g
       id="g84"><g
         id="g86"
         clip-path="url(#clipPath90)"><text
           transform="matrix(1,0,0,-1,257.06131,83.99882)"
           style="font-style:italic;font-variant:normal;font-weight:normal;font-stretch:normal;font-size:11.0078px;font-family:'Palatino Linotype';-inkscape-font-specification:PalatinoLinotype-Italic;writing-mode:lr-tb;fill:#ff0000;fill-opacity:1;fill-rule:nonzero;stroke:none"
           id="text94"><tspan
             x="0 3.6656108 9.1695309 11.921491 17.425411"
             y="0"
             id="tspan92">-1.17</tspan></text></g></g><g
       id="g96"><g
         id="g98"
         clip-path="url(#clipPath102)"><text
           transform="matrix(1,0,0,-1,188.98225,40.37533)"
           style="font-style:italic;font-variant:normal;font-weight:normal;font-stretch:normal;font-size:11.0078px;font-family:'Palatino Linotype';-inkscape-font-specification:PalatinoLinotype-Italic;writing-mode:lr-tb;fill:#ff0000;fill-opacity:1;fill-rule:nonzero;stroke:none"
           id="text106"><tspan
             x="0 3.6656108 9.1695309 11.921491 17.425411 22.929331"
             y="0"
             id="tspan104">-0.935</tspan></text></g></g><g
       id="g108"><g
         id="g110"
         clip-path="url(#clipPath114)"><text
           transform="matrix(1,0,0,-1,247.84916,18.34328)"
           style="font-style:italic;font-variant:normal;font-weight:normal;font-stretch:normal;font-size:11.0078px;font-family:'Palatino Linotype';-inkscape-font-specification:PalatinoLinotype-Italic;writing-mode:lr-tb;fill:#0000ff;fill-opacity:1;fill-rule:nonzero;stroke:none"
           id="text118"><tspan
             x="0 5.5039201 11.00784 13.7598 19.26372 24.767639"
             y="0"
             id="tspan116">+1.258</tspan></text></g></g><g
       id="g120"><g
         id="g122"
         clip-path="url(#clipPath126)"><text
           transform="matrix(1,0,0,-1,82.3617,18.34328)"
           style="font-style:italic;font-variant:normal;font-weight:normal;font-stretch:normal;font-size:11.0078px;font-family:'Palatino Linotype';-inkscape-font-specification:PalatinoLinotype-Italic;writing-mode:lr-tb;fill:#0000ff;fill-opacity:1;fill-rule:nonzero;stroke:none"
           id="text130"><tspan
             x="0 5.5039201 11.00784 13.7598 19.26372 24.767639"
             y="0"
             id="tspan128">+1.258</tspan></text></g></g><g
       id="g132"><g
         id="g134"
         clip-path="url(#clipPath138)"><text
           transform="matrix(1,0,0,-1,160.34655,198.19308)"
           style="font-style:italic;font-variant:normal;font-weight:normal;font-stretch:normal;font-size:11.0078px;font-family:'Palatino Linotype';-inkscape-font-specification:PalatinoLinotype-Italic;writing-mode:lr-tb;fill:#ff0000;fill-opacity:1;fill-rule:nonzero;stroke:none"
           id="text142"><tspan
             x="0 6.1203589 8.8723192 14.376239 17.128199 22.632118 25.384079 30.271561"
             y="0"
             id="tspan140">F = 1 kN</tspan></text></g></g><g
       id="g144"><g
         id="g146"
         clip-path="url(#clipPath150)"><text
           transform="matrix(1,0,0,-1,350.78366,152.47878)"
           style="font-style:italic;font-variant:normal;font-weight:normal;font-stretch:normal;font-size:11.0078px;font-family:'Palatino Linotype';-inkscape-font-specification:PalatinoLinotype-Italic;writing-mode:lr-tb;fill:#ff8000;fill-opacity:1;fill-rule:nonzero;stroke:none"
           id="text154"><tspan
             x="0"
             y="0"
             id="tspan152">M</tspan></text></g></g><g
       id="g156"><g
         id="g158"
         clip-path="url(#clipPath162)"><text
           transform="matrix(1,0,0,-1,361.44769,147.93155)"
           style="font-style:italic;font-variant:normal;font-weight:normal;font-stretch:normal;font-size:6.6047px;font-family:'Palatino Linotype';-inkscape-font-specification:PalatinoLinotype-Italic;writing-mode:lr-tb;fill:#ff8000;fill-opacity:1;fill-rule:nonzero;stroke:none"
           id="text166"><tspan
             x="0"
             y="0"
             id="tspan164">y</tspan></text></g></g><g
       id="g168"><g
         id="g170"
         clip-path="url(#clipPath174)" /></g><g
       id="g176"><g
         id="g178"
         clip-path="url(#clipPath182)"><text
           transform="matrix(1,0,0,-1,367.66184,152.47878)"
           style="font-variant:normal;font-weight:normal;font-stretch:normal;font-size:11.1008px;font-family:'Palatino Linotype';-inkscape-font-specification:PalatinoLinotype-Roman;writing-mode:lr-tb;fill:#ff8000;fill-opacity:1;fill-rule:nonzero;stroke:none"
           id="text186"><tspan
             x="0 3.6965563 9.8685846 19.093325 28.895304"
             y="0"
             id="tspan184">[kNm]</tspan></text></g></g><g
       id="g188"><g
         id="g190"
         clip-path="url(#clipPath194)"><text
           transform="matrix(1,0,0,-1,357.94608,67.37005)"
           style="font-style:italic;font-variant:normal;font-weight:normal;font-stretch:normal;font-size:11.0078px;font-family:'Palatino Linotype';-inkscape-font-specification:PalatinoLinotype-Italic;writing-mode:lr-tb;fill:#ff0000;fill-opacity:1;fill-rule:nonzero;stroke:none"
           id="text198"><tspan
             x="0 8.5640993"
             y="0"
             id="tspan196">N </tspan></text></g></g><g
       id="g200"><g
         id="g202"
         clip-path="url(#clipPath206)"><text
           transform="matrix(1,0,0,-1,369.55901,67.37005)"
           style="font-variant:normal;font-weight:normal;font-stretch:normal;font-size:11.1008px;font-family:'Palatino Linotype';-inkscape-font-specification:PalatinoLinotype-Roman;writing-mode:lr-tb;fill:#ff0000;fill-opacity:1;fill-rule:nonzero;stroke:none"
           id="text210"><tspan
             x="0 3.6965563 9.8685846 19.093325"
             y="0"
             id="tspan208">[kN]</tspan></text></g></g></g></svg>
