<?xml version="1.0" encoding="UTF-8" standalone="no"?>
<svg
   xmlns:dc="http://purl.org/dc/elements/1.1/"
   xmlns:cc="http://creativecommons.org/ns#"
   xmlns:rdf="http://www.w3.org/1999/02/22-rdf-syntax-ns#"
   xmlns:svg="http://www.w3.org/2000/svg"
   xmlns="http://www.w3.org/2000/svg"
   version="1.1"
   id="svg2"
   xml:space="preserve"
   width="566.92932"
   height="226.772"
   viewBox="0 0 566.92932 226.772"><metadata
     id="metadata8"><rdf:RDF><cc:Work
         rdf:about=""><dc:format>image/svg+xml</dc:format><dc:type
           rdf:resource="http://purl.org/dc/dcmitype/StillImage" /></cc:Work></rdf:RDF></metadata><defs
     id="defs6"><clipPath
       clipPathUnits="userSpaceOnUse"
       id="clipPath42"><path
         d="M -0.00426,-0.00169 V 170.08044 H 425.20111 V -0.00169 H -0.00426"
         clip-rule="evenodd"
         id="path40" /></clipPath><clipPath
       clipPathUnits="userSpaceOnUse"
       id="clipPath54"><path
         d="M -0.00426,-0.00169 V 170.08044 H 425.20111 V -0.00169 H -0.00426"
         clip-rule="evenodd"
         id="path52" /></clipPath><clipPath
       clipPathUnits="userSpaceOnUse"
       id="clipPath66"><path
         d="M -0.00426,-0.00169 V 170.08044 H 425.20111 V -0.00169 H -0.00426"
         clip-rule="evenodd"
         id="path64" /></clipPath><clipPath
       clipPathUnits="userSpaceOnUse"
       id="clipPath78"><path
         d="M -0.00426,-0.00169 V 170.08044 H 425.20111 V -0.00169 H -0.00426"
         clip-rule="evenodd"
         id="path76" /></clipPath><clipPath
       clipPathUnits="userSpaceOnUse"
       id="clipPath94"><path
         d="M -0.00426,-0.00169 V 170.08044 H 425.20111 V -0.00169 H -0.00426"
         clip-rule="evenodd"
         id="path92" /></clipPath><clipPath
       clipPathUnits="userSpaceOnUse"
       id="clipPath108"><path
         d="M -0.00426,-0.00169 V 170.08044 H 425.20111 V -0.00169 H -0.00426"
         clip-rule="evenodd"
         id="path106" /></clipPath></defs><g
     id="g10"
     transform="matrix(1.3333333,0,0,-1.3333333,0,226.772)"><path
       d="m 216.7908,135.60388 -1.79126,0.83527 -1.90912,0.51153 -1.9689,0.17228 -1.96893,-0.17228 -1.90909,-0.51153 -1.79129,-0.83527 -1.61899,-1.13363 -1.39755,-1.39759 -1.13367,-1.61899 -0.83526,-1.79129 -0.51154,-1.90908 -0.17227,-1.96894 0.0621,-1.18519 0.18567,-1.17223 0.30719,-1.14639 0.42532,-1.108 0.53879,-1.05747 0.64639,-0.99536 0.74692,-0.92235 0.83921,-0.83922 0.92233,-0.74688 0.99536,-0.6464 1.05749,-0.53881 1.10801,-0.42533 1.14639,-0.30717 1.17221,-0.18566 1.18521,-0.0621 1.18521,0.0621 1.17221,0.18566 1.1464,0.30717 1.108,0.42533 1.05746,0.53881 0.99536,0.6464 0.92234,0.74688 0.83923,0.83922 0.74689,0.92235 0.64639,0.99536 0.53882,1.05747 0.42532,1.108 0.30716,1.14639 0.18567,1.17223 0.0621,1.18519 -0.17224,1.96894 -0.51153,1.90908 -0.8353,1.79129 -1.13364,1.61899 -1.39755,1.39759 z"
       style="fill:#dedede;fill-opacity:1;fill-rule:nonzero;stroke:none"
       id="path12" /><path
       d="m 92.36842,6.72925 5.6693,5.66929 m 14.37468,-5.66929 5.6693,5.66929 m 14.37466,-5.66929 5.66931,5.66929 m 14.37467,-5.66929 5.66931,5.66929 m 14.37466,-5.66929 5.66931,5.66929 m 14.37467,-5.66929 5.66928,5.66929 m 14.37469,-5.66929 5.66928,5.66929 m 14.3747,-5.66929 5.66928,5.66929 m 14.37469,-5.66929 5.66929,5.66929 m 14.37466,-5.66929 5.66931,5.66929 M 83.56245,7.94527 l 4.45328,4.45327 m 14.37468,-5.66929 5.6693,5.66929 m 14.37468,-5.66929 5.66928,5.66929 m 14.37469,-5.66929 5.66928,5.66929 m 14.3747,-5.66929 5.66928,5.66929 m 14.37469,-5.66929 5.66929,5.66929 m 14.37466,-5.66929 5.66931,5.66929 m 14.37467,-5.66929 5.66931,5.66929 m 14.37466,-5.66929 5.66931,5.66929 m 14.37467,-5.66929 5.66928,5.66929 m -170.67578,0 v 0.64083 m 0,2.26771 v 2.83466 m 0,2.26771 v 2.83464 m 0,2.26772 v 2.83464 m 0,2.26773 v 2.83464 m 0,2.26772 v 2.83464 m 0,2.26771 v 2.83466 m 0,2.26771 v 2.83465 m 0,2.26771 v 2.83466 m 0,2.26771 v 2.83464 m 0,2.26772 V 64.063 m 0,2.26772 v 2.83464 m 0,2.26771 v 2.83465 m 0,2.26771 v 2.83466 m 0,2.26771 v 2.83464 m 0,2.26772 v 2.83465 m 0,2.26772 v 2.83464 m 0,2.26772 v 2.83464 m 0,2.26771 v 2.83466 m 0,2.26771 v 2.83464 m 0,2.26772 v 2.83465 m 0,2.26772 v 2.83464 m 0,2.26772 v 2.83464 m 0,-112.8928 v 0 m 0,113.38582 v 0 M 267.81442,12.39854 v 0.64083 m 0,2.26771 v 2.83466 m 0,2.26771 v 2.83464 m 0,2.26772 v 2.83464 m 0,2.26773 v 2.83464"
       style="fill:none;stroke:#000000;stroke-width:0.3685;stroke-linecap:round;stroke-linejoin:round;stroke-miterlimit:10;stroke-dasharray:none;stroke-opacity:1"
       id="path14" /><path
       d="m 267.81442,35.71654 v 2.83464 m 0,2.26771 v 2.83466 m 0,2.26771 v 2.83465 m 0,2.26771 v 2.83466 m 0,2.26771 v 2.83464 m 0,2.26772 V 64.063 m 0,2.26772 v 2.83464 m 0,2.26771 v 2.83465 m 0,2.26771 v 2.83466 m 0,2.26771 v 2.83464 m 0,2.26772 v 2.83465 m 0,2.26772 v 2.83464 m 0,2.26772 v 2.83464 m 0,2.26771 v 2.83466 m 0,2.26771 v 2.83464 m 0,2.26772 v 2.83465 m 0,2.26772 v 2.83464 m 0,2.26772 v 2.83464 m 0,-112.8928 v 0 m 0,113.38582 v 0"
       style="fill:none;stroke:#000000;stroke-width:0.3685;stroke-linecap:round;stroke-linejoin:round;stroke-miterlimit:10;stroke-dasharray:none;stroke-opacity:1"
       id="path16" /><path
       d="m 97.73569,12.39854 1.97513,12.91056 2.42524,12.75606 1.52208,6.2718 1.80339,6.17526 2.14096,6.05939 2.53482,5.92419 3.20523,6.30249 3.38169,6.22997 3.19999,6.26836 2.66018,6.41775 1.34472,4.49565 0.98172,4.60089 0.67058,4.6911 0.41129,4.76627 0.25215,9.69791 -0.16272,9.81817 m 141.73228,-113.38582 1.97513,12.91056 2.42526,12.75606 1.52207,6.2718 1.80337,6.17526 2.14099,6.05939 2.53482,5.92419 3.2052,6.30249 3.38169,6.22997 3.20001,6.26836 2.66019,6.41775 1.34469,4.49565 0.98172,4.60089 0.6706,4.6911 0.41128,4.76627 0.25214,9.69791 -0.16269,9.81817"
       style="fill:none;stroke:#000000;stroke-width:0.99213;stroke-linecap:round;stroke-linejoin:round;stroke-miterlimit:10;stroke-dasharray:none;stroke-opacity:1"
       id="path18" /><path
       d="m 222.46008,125.78436 c 0,6.26215 -5.07644,11.3386 -11.33856,11.3386 m 0,0 c -6.26215,0 -11.33859,-5.07645 -11.33859,-11.3386 m 0,0 c 0,-6.26211 5.07644,-11.33857 11.33859,-11.33857 m 0,0 c 6.26212,0 11.33856,5.07646 11.33856,11.33857"
       style="fill:none;stroke:#000000;stroke-width:0.99213;stroke-linecap:round;stroke-linejoin:round;stroke-miterlimit:10;stroke-dasharray:none;stroke-opacity:1"
       id="path20" /><path
       d="m 126.08214,125.78436 h 73.70079"
       style="fill:none;stroke:#000000;stroke-width:0.99213;stroke-linecap:round;stroke-linejoin:round;stroke-miterlimit:10;stroke-dasharray:none;stroke-opacity:1"
       id="path22" /><path
       d="m 97.73569,125.78436 h 2.04384 m 2.26771,0 h 2.83466 m 2.26771,0 h 2.83464 m 2.26772,0 h 2.83465 m 2.26772,0 h 2.83464 m 2.26772,0 h 2.83464 m 2.26771,0 h 2.83466 m 2.26773,0 h 2.83462 m 2.26773,0 h 2.83463 m 2.26773,0 h 2.83466 m 2.2677,0 h 2.83465 m 2.2677,0 h 2.83466 m 2.26773,0 h 2.83462 m 2.26773,0 h 2.83463 m 2.26773,0 h 2.83466 m 2.2677,0 h 2.83465 m 2.2677,0 h 2.83466 m 2.26773,0 h 2.83462 m 2.26773,0 h 2.83463 m 2.26773,0 h 2.83466 m 2.2677,0 h 0.7908 m -102.04724,0 v 0 m 102.04724,0 v 0"
       style="fill:none;stroke:#000000;stroke-width:0.3685;stroke-linecap:round;stroke-linejoin:round;stroke-miterlimit:10;stroke-dasharray:none;stroke-opacity:1"
       id="path24" /><path
       d="m 222.46008,125.78436 h 73.70081"
       style="fill:none;stroke:#000000;stroke-width:0.99213;stroke-linecap:round;stroke-linejoin:round;stroke-miterlimit:10;stroke-dasharray:none;stroke-opacity:1"
       id="path26" /><path
       d="m 314.58606,125.78436 h 31.46457 m -5.4567,0 h -0.38974 m 5.84644,0 v 0 l -5.4567,0.77953 v -1.55904 l 5.4567,0.77951"
       style="fill:none;stroke:#ff0000;stroke-width:0.28346;stroke-linecap:round;stroke-linejoin:round;stroke-miterlimit:10;stroke-dasharray:none;stroke-opacity:1"
       id="path28" /><path
       d="m 340.59393,125.00485 5.4567,0.77951 -5.4567,0.77953 z"
       style="fill:#ff0000;fill-opacity:1;fill-rule:nonzero;stroke:none"
       id="path30" /><path
       d="M 168.95081,125.78436 V 63.1387 m 19.2756,0 V 12.39854 m -7.71921,53.5748 v -5.66929 m 0,2.83465 h 7.71921 M 176.5387,60.30405 h 3.9685 m -3.9685,5.66929 h 3.9685 M 168.95081,63.1387 h 9.13656 m 0,2.12598 v -4.25197"
       style="fill:none;stroke:#000000;stroke-width:0.3685;stroke-linecap:round;stroke-linejoin:round;stroke-miterlimit:10;stroke-dasharray:none;stroke-opacity:1"
       id="path32" /><path
       d="M 83.56245,12.39854 H 281.98764"
       style="fill:none;stroke:#000000;stroke-width:0.99213;stroke-linecap:round;stroke-linejoin:round;stroke-miterlimit:10;stroke-dasharray:none;stroke-opacity:1"
       id="path34" /><g
       id="g36"><g
         id="g38"
         clip-path="url(#clipPath42)"><text
           transform="matrix(1,0,0,-1,79.14621,70.55089)"
           style="font-style:italic;font-variant:normal;font-weight:normal;font-stretch:normal;font-size:11.0078px;font-family:'Palatino Linotype';-inkscape-font-specification:PalatinoLinotype-Italic;writing-mode:lr-tb;fill:#000000;fill-opacity:1;fill-rule:nonzero;stroke:none"
           id="text46"><tspan
             x="0 4.8874807 8.1458015"
             y="0"
             id="tspan44">k/2</tspan></text></g></g><g
       id="g48"><g
         id="g50"
         clip-path="url(#clipPath54)"><text
           transform="matrix(1,0,0,-1,249.22494,70.55089)"
           style="font-style:italic;font-variant:normal;font-weight:normal;font-stretch:normal;font-size:11.0078px;font-family:'Palatino Linotype';-inkscape-font-specification:PalatinoLinotype-Italic;writing-mode:lr-tb;fill:#000000;fill-opacity:1;fill-rule:nonzero;stroke:none"
           id="text58"><tspan
             x="0 4.8874807 8.1458015"
             y="0"
             id="tspan56">k/2</tspan></text></g></g><g
       id="g60"><g
         id="g62"
         clip-path="url(#clipPath66)"><text
           transform="matrix(1,0,0,-1,186.0747,132.16867)"
           style="font-style:italic;font-variant:normal;font-weight:normal;font-stretch:normal;font-size:11.0078px;font-family:'Palatino Linotype';-inkscape-font-specification:PalatinoLinotype-Italic;writing-mode:lr-tb;fill:#000000;fill-opacity:1;fill-rule:nonzero;stroke:none"
           id="text70"><tspan
             x="0"
             y="0"
             id="tspan68">M</tspan></text></g></g><g
       id="g72"><g
         id="g74"
         clip-path="url(#clipPath78)"><text
           transform="matrix(1,0,0,-1,330.92509,132.16867)"
           style="font-style:italic;font-variant:normal;font-weight:normal;font-stretch:normal;font-size:11.0078px;font-family:'Palatino Linotype';-inkscape-font-specification:PalatinoLinotype-Italic;writing-mode:lr-tb;fill:#ff0000;fill-opacity:1;fill-rule:nonzero;stroke:none"
           id="text82"><tspan
             x="0"
             y="0"
             id="tspan80">F</tspan></text></g></g><path
       d="m 267.81442,155.48953 2.97638,0.4252 v -0.8504 l -2.97638,0.4252 m 28.34647,0 -2.97638,0.4252 v -0.8504 l 2.97638,0.4252"
       style="fill:none;stroke:#000000;stroke-width:0.56693;stroke-linecap:round;stroke-linejoin:round;stroke-miterlimit:10;stroke-dasharray:none;stroke-opacity:1"
       id="path84" /><path
       d="m 267.81442,155.48953 v 2.12598 m 0,-2.12598 v -2.12597 m 28.34647,2.12597 v 2.12598 m 0,-2.12598 v -2.12597 m -28.34647,2.12597 v -4.01852 -20.01734 m 28.34647,24.03586 v -24.03586 m -28.34647,24.03586 v 0 m 28.34647,0 v 0"
       style="fill:none;stroke:#000000;stroke-width:0.28346;stroke-linecap:round;stroke-linejoin:round;stroke-miterlimit:10;stroke-dasharray:none;stroke-opacity:1"
       id="path86" /><g
       id="g88"><g
         id="g90"
         clip-path="url(#clipPath94)"><text
           transform="matrix(1,0,0,-1,279.39976,158.49468)"
           style="font-style:italic;font-variant:normal;font-weight:normal;font-stretch:normal;font-size:10.0071px;font-family:'Palatino Linotype';-inkscape-font-specification:PalatinoLinotype-Italic;writing-mode:lr-tb;fill:#000000;fill-opacity:1;fill-rule:nonzero;stroke:none"
           id="text98"><tspan
             x="0"
             y="0"
             id="tspan96">u</tspan></text></g></g><path
       d="m 267.81442,155.48953 h 3.59146 24.75501"
       style="fill:none;stroke:#000000;stroke-width:0.28346;stroke-linecap:round;stroke-linejoin:round;stroke-miterlimit:10;stroke-dasharray:none;stroke-opacity:1"
       id="path100" /><g
       id="g102"><g
         id="g104"
         clip-path="url(#clipPath108)"><text
           transform="matrix(1,0,0,-1,177.22495,70.55089)"
           style="font-style:italic;font-variant:normal;font-weight:normal;font-stretch:normal;font-size:11.0078px;font-family:'Palatino Linotype';-inkscape-font-specification:PalatinoLinotype-Italic;writing-mode:lr-tb;fill:#000000;fill-opacity:1;fill-rule:nonzero;stroke:none"
           id="text112"><tspan
             x="0"
             y="0"
             id="tspan110">c</tspan></text></g></g></g></svg>
