<?xml version="1.0" encoding="UTF-8" standalone="no"?>
<svg
   xmlns:dc="http://purl.org/dc/elements/1.1/"
   xmlns:cc="http://creativecommons.org/ns#"
   xmlns:rdf="http://www.w3.org/1999/02/22-rdf-syntax-ns#"
   xmlns:svg="http://www.w3.org/2000/svg"
   xmlns="http://www.w3.org/2000/svg"
   version="1.1"
   id="svg2"
   xml:space="preserve"
   width="566.92932"
   height="283.46399"
   viewBox="0 0 566.92932 283.46399"><metadata
     id="metadata8"><rdf:RDF><cc:Work
         rdf:about=""><dc:format>image/svg+xml</dc:format><dc:type
           rdf:resource="http://purl.org/dc/dcmitype/StillImage" /></cc:Work></rdf:RDF></metadata><defs
     id="defs6"><clipPath
       clipPathUnits="userSpaceOnUse"
       id="clipPath50"><path
         d="M -0.00426,-0.00212 V 212.60056 H 425.20111 V -0.00212 H -0.00426"
         clip-rule="evenodd"
         id="path48" /></clipPath><clipPath
       clipPathUnits="userSpaceOnUse"
       id="clipPath62"><path
         d="M -0.00426,-0.00212 V 212.60056 H 425.20111 V -0.00212 H -0.00426"
         clip-rule="evenodd"
         id="path60" /></clipPath><clipPath
       clipPathUnits="userSpaceOnUse"
       id="clipPath76"><path
         d="M -0.00426,-0.00212 V 212.60056 H 425.20111 V -0.00212 H -0.00426"
         clip-rule="evenodd"
         id="path74" /></clipPath><clipPath
       clipPathUnits="userSpaceOnUse"
       id="clipPath88"><path
         d="M -0.00426,-0.00212 V 212.60056 H 425.20111 V -0.00212 H -0.00426"
         clip-rule="evenodd"
         id="path86" /></clipPath><clipPath
       clipPathUnits="userSpaceOnUse"
       id="clipPath100"><path
         d="M -0.00426,-0.00212 V 212.60056 H 425.20111 V -0.00212 H -0.00426"
         clip-rule="evenodd"
         id="path98" /></clipPath><clipPath
       clipPathUnits="userSpaceOnUse"
       id="clipPath112"><path
         d="M -0.00426,-0.00212 V 212.60056 H 425.20111 V -0.00212 H -0.00426"
         clip-rule="evenodd"
         id="path110" /></clipPath><clipPath
       clipPathUnits="userSpaceOnUse"
       id="clipPath124"><path
         d="M -0.00426,-0.00212 V 212.60056 H 425.20111 V -0.00212 H -0.00426"
         clip-rule="evenodd"
         id="path122" /></clipPath><clipPath
       clipPathUnits="userSpaceOnUse"
       id="clipPath140"><path
         d="M -0.00426,-0.00212 V 212.60056 H 425.20111 V -0.00212 H -0.00426"
         clip-rule="evenodd"
         id="path138" /></clipPath><clipPath
       clipPathUnits="userSpaceOnUse"
       id="clipPath154"><path
         d="M -0.00426,-0.00212 V 212.60056 H 425.20111 V -0.00212 H -0.00426"
         clip-rule="evenodd"
         id="path152" /></clipPath><clipPath
       clipPathUnits="userSpaceOnUse"
       id="clipPath170"><path
         d="M -0.00426,-0.00212 V 212.60056 H 425.20111 V -0.00212 H -0.00426"
         clip-rule="evenodd"
         id="path168" /></clipPath><clipPath
       clipPathUnits="userSpaceOnUse"
       id="clipPath188"><path
         d="M -0.00426,-0.00212 V 212.60056 H 425.20111 V -0.00212 H -0.00426"
         clip-rule="evenodd"
         id="path186" /></clipPath></defs><g
     id="g10"
     transform="matrix(1.3333333,0,0,-1.3333333,0,283.464)"><path
       d="m 137.85937,178.17398 -0.10766,1.23056 -0.3197,1.19321 -0.52207,1.11954 -0.70852,1.01187 -0.87348,0.87347 -1.01187,0.70853 -1.11954,0.52206 -1.19317,0.3197 -1.23059,0.10767 -1.23059,-0.10767 -1.19318,-0.3197 -1.11954,-0.52206 -1.01188,-0.70853 -0.87348,-0.87347 -0.70853,-1.01187 -0.52204,-1.11954 -0.31972,-1.19321 -0.10767,-1.23056 0.10767,-1.23059 0.31972,-1.19318 0.52204,-1.11953 0.70853,-1.01191 0.87348,-0.87347 1.01188,-0.70853 1.11954,-0.52203 1.19318,-0.31973 1.23059,-0.10764 1.23059,0.10764 1.19317,0.31973 1.11954,0.52203 1.01187,0.70853 0.87348,0.87347 0.70852,1.01191 0.52207,1.11953 0.3197,1.19318 z"
       style="fill:#dedede;fill-opacity:1;fill-rule:nonzero;stroke:none"
       id="path12" /><path
       d="m 132.00336,171.19501 -1.23059,-0.10764 -1.23059,0.10764 -1.19318,0.31973 -1.11954,0.52203 v -68.91124 l 0.43062,0.17305 1.7625,0.37984 1.80133,0.0765 1.78836,-0.229 1.3038,-0.39929 v 68.91012 l -1.11954,-0.52203 -1.19317,-0.31973 z"
       style="fill:#dedede;fill-opacity:1;fill-rule:nonzero;stroke:none"
       id="path14" /><path
       d="m 137.79568,101.1142 -1.44958,1.07209 -1.60989,0.8117 -1.72394,0.52795 -1.78836,0.229 -1.80133,-0.0765 -1.7625,-0.37984 -1.67294,-0.67225 -1.53528,-0.9453 -1.35343,-1.19118 -1.13266,-1.40275 -0.8793,-1.57402 -0.60063,-1.69997 -0.3047,-1.77702 v -1.80297 l 0.3047,-1.77702 0.60063,-1.69998 0.8793,-1.57401 1.13266,-1.40277 1.35343,-1.19116 1.53528,-0.94531 1.24232,-0.49921 0.16927,-0.06802 -0.16927,0.04536 V 8.09525 h 7.08661 v 75.02577 l -0.56271,-0.15079 0.56271,0.17234 0.42014,0.12866 1.60989,0.81171 1.44958,1.07209 1.24753,1.30167 1.00962,1.49376 0.74264,1.64291 0.45432,1.74478 0.15289,1.79647 -0.15289,1.79646 -0.45432,1.7448 -0.74264,1.6429 -1.00962,1.49377 -1.24753,1.30167 z m -5.17706,-18.44803 -0.65784,-0.05756 0.84861,0.10868 z m -3.69171,0 -0.59949,0.16063 0.845,-0.1821 z m 2.06702,-0.14214 -0.22116,-0.01935 -0.63858,0.05587 z"
       style="fill:#dedede;fill-opacity:1;fill-rule:nonzero;stroke:none"
       id="path16" /><path
       d="m 106.96791,5.99274 h 47.60973 v 2.10249 h -47.60973 z"
       style="fill:#000000;fill-opacity:1;fill-rule:nonzero;stroke:none"
       id="path18" /><path
       d="m 293.48758,5.99274 h 47.60971 v 2.10249 h -47.60971 z"
       style="fill:#000000;fill-opacity:1;fill-rule:nonzero;stroke:none"
       id="path20" /><path
       d="m 134.31607,103.15659 v 68.88018 m -7.08661,0 v -68.88018 m 0,-20.04398 V 8.09523 h 7.08661 V 83.11261 M 106.96791,8.09523 h 47.60973 V 5.99274 h -47.60973 v 2.10249 m 186.51967,0 h 47.60971 V 5.99274 h -47.60971 v 2.10249"
       style="fill:none;stroke:#000000;stroke-width:0.28346;stroke-linecap:round;stroke-linejoin:round;stroke-miterlimit:10;stroke-dasharray:none;stroke-opacity:1"
       id="path22" /><path
       d="m 317.29245,8.09523 3.73935,31.21875 4.64038,30.93022 2.93964,15.26674 3.50277,15.08641 4.17856,14.87001 4.96692,14.61757 4.88406,12.20444 5.37171,12.04828 5.69678,11.94418 5.85934,11.89215"
       style="fill:none;stroke:#000000;stroke-width:0.99213;stroke-linecap:round;stroke-linejoin:round;stroke-miterlimit:10;stroke-dasharray:none;stroke-opacity:1"
       id="path24" /><path
       d="m 317.29245,8.09523 v 3.24335 m 0,2.83465 v 4.25197 m 0,2.83464 v 4.25197 m 0,2.83464 v 4.25198 m 0,2.83464 v 4.25197 m 0,2.83464 v 4.25197 m 0,2.83466 v 4.25197 m 0,2.83464 v 4.25197 m 0,2.83464 v 4.25196 m 0,2.83466 v 4.25197 m 0,2.83464 v 4.25197 m 0,2.83464 v 4.25197 m 0,2.83465 v 4.25197 m 0,2.83464 v 4.25197 m 0,2.83464 v 4.25197 m 0,2.83465 v 4.25197 m 0,2.83464 v 4.25197 m 0,2.83464 v 4.25199 m 0,2.83465 v 4.25195 m 0,2.83466 v 4.25195 m 0,2.83466 v 4.25195 m 0,2.83466 v 4.25198 m 0,2.83463 v 4.25198 m 0,2.83463 v 4.25198 m 0,2.83465 v 1.00861"
       style="fill:none;stroke:#000000;stroke-width:0.70866;stroke-linecap:round;stroke-linejoin:round;stroke-miterlimit:10;stroke-dasharray:none;stroke-opacity:1"
       id="path26" /><path
       d="m 317.29245,7.74091 -0.35434,0.35432 0.35434,0.35432 0.35431,-0.35432 z"
       style="fill:#000000;fill-opacity:1;fill-rule:nonzero;stroke:none"
       id="path28" /><path
       d="m 317.29245,177.81964 -0.35434,0.35434 0.35434,0.35431 0.35431,-0.35431 z"
       style="fill:#000000;fill-opacity:1;fill-rule:nonzero;stroke:none"
       id="path30" /><path
       d="m 132.66144,93.1346 h 2.83462 m 2.26773,0 h 2.83463 m 2.26773,0 h 2.83466 m 2.2677,0 h 2.83465 m 2.2677,0 h 2.83466 m 2.26773,0 h 2.83462 m 2.26773,0 h 2.83463 m 2.26773,0 h 2.83466 m 2.2677,0 h 2.83465 m 2.2677,0 h 2.83466 m 2.26773,0 h 2.83462 m 2.26773,0 h 2.83463 m 2.26773,0 h 2.83466 m 2.2677,0 h 2.83465 m 2.2677,0 h 2.83466 m 2.26773,0 h 2.83462 m 2.26773,0 h 2.83466 m 2.2677,0 h 2.83466 m 2.2677,0 h 2.83465 m 2.2677,0 h 2.83466 m 2.26773,0 h 2.83462 m 2.26774,0 h 2.83465 m 2.2677,0 h 2.83466 m 2.2677,0 h 2.83465 m 2.2677,0 h 2.83466 m 2.2677,0 h 2.83465 m 2.26774,0 h 2.83462 m 2.26773,0 h 2.83466 m 2.2677,0 h 2.83465 m 2.2677,0 h 2.83466 m 2.2677,0 h 2.83466 m 2.26773,0 h 2.83462 m 2.26773,0 h 2.83466 m 2.2677,0 h 2.83465 m 2.2677,0 h 2.83466 m 2.2677,0 h 2.83466 m 2.26773,0 h 2.83462 m 2.26773,0 h 2.83466 m 2.2677,0 h 2.83465 m -198.61306,0 v 0 m 199.55905,0 v 0 M 293.48758,8.09523 h -20.6929 m 8.78738,0 v 28.62993 m 0,-5.4567 v -0.38977 m 0,5.84647 v 0 l -0.77951,-5.4567 h 1.55905 l -0.77954,5.4567"
       style="fill:none;stroke:#000000;stroke-width:0.28346;stroke-linecap:round;stroke-linejoin:round;stroke-miterlimit:10;stroke-dasharray:none;stroke-opacity:1"
       id="path32" /><path
       d="m 282.3616,31.26846 -0.77954,5.4567 -0.77951,-5.4567 z"
       style="fill:#000000;fill-opacity:1;fill-rule:nonzero;stroke:none"
       id="path34" /><path
       d="m 141.40268,93.1346 c 0,5.87074 -4.75916,10.62993 -10.62991,10.62993 m 0,0 c -5.87075,0 -10.62993,-4.75919 -10.62993,-10.62993 m 0,0 c 0,-5.87075 4.75918,-10.62992 10.62993,-10.62992 m 0,0 c 5.87075,0 10.62991,4.75917 10.62991,10.62992"
       style="fill:none;stroke:#000000;stroke-width:0.28346;stroke-linecap:round;stroke-linejoin:round;stroke-miterlimit:10;stroke-dasharray:none;stroke-opacity:1"
       id="path36" /><path
       d="m 137.85937,178.17398 c 0,3.91382 -3.17279,7.08661 -7.0866,7.08661 m 0,0 c -3.91384,0 -7.08663,-3.17279 -7.08663,-7.08661 m 0,0 c 0,-3.91385 3.17279,-7.08661 7.08663,-7.08661 m 0,0 c 3.91381,0 7.0866,3.17276 7.0866,7.08661"
       style="fill:none;stroke:#000000;stroke-width:0.28346;stroke-linecap:round;stroke-linejoin:round;stroke-miterlimit:10;stroke-dasharray:none;stroke-opacity:1"
       id="path38" /><path
       d="m 95.62315,8.09523 -0.42518,2.97638 h 0.85039 L 95.62315,8.09523 m 0,85.03937 -0.42518,-2.97638 h 0.85039 l -0.42521,2.97638 -0.42518,2.97638 h 0.85039 L 95.62315,93.1346 m 0,85.03938 -0.42518,-2.97638 h 0.85039 l -0.42521,2.97638"
       style="fill:none;stroke:#000000;stroke-width:0.56693;stroke-linecap:round;stroke-linejoin:round;stroke-miterlimit:10;stroke-dasharray:none;stroke-opacity:1"
       id="path40" /><path
       d="m 95.62315,8.09523 h -2.12597 m 2.12597,0 h 2.12598 M 95.62315,93.1346 h -2.12597 m 2.12597,0 h 2.12598 m -2.12598,0 h -2.12597 m 2.12597,0 h 2.12598 m -2.12598,85.03938 h -2.12597 m 2.12597,0 h 2.12598 M 95.62315,8.09523 h 28.77166 M 95.62315,93.1346 H 120.8515 M 95.62315,178.17398 H 120.8515 M 95.62315,8.09523 v 0 m 0,170.07875 v 0"
       style="fill:none;stroke:#000000;stroke-width:0.28346;stroke-linecap:round;stroke-linejoin:round;stroke-miterlimit:10;stroke-dasharray:none;stroke-opacity:1"
       id="path42" /><g
       id="g44"><g
         id="g46"
         clip-path="url(#clipPath50)"><text
           transform="matrix(0,1,1,0,94.14063,44.05992)"
           style="font-style:italic;font-variant:normal;font-weight:normal;font-stretch:normal;font-size:10.0071px;font-family:'Palatino Linotype';-inkscape-font-specification:PalatinoLinotype-Italic;writing-mode:lr-tb;fill:#000000;fill-opacity:1;fill-rule:nonzero;stroke:none"
           id="text54"><tspan
             x="0 5.5639644 8.5260744"
             y="0"
             id="tspan52">L/2</tspan></text></g></g><g
       id="g56"><g
         id="g58"
         clip-path="url(#clipPath62)"><text
           transform="matrix(0,1,1,0,94.14063,129.09929)"
           style="font-style:italic;font-variant:normal;font-weight:normal;font-stretch:normal;font-size:10.0071px;font-family:'Palatino Linotype';-inkscape-font-specification:PalatinoLinotype-Italic;writing-mode:lr-tb;fill:#000000;fill-opacity:1;fill-rule:nonzero;stroke:none"
           id="text66"><tspan
             x="0 5.5639644 8.5260744"
             y="0"
             id="tspan64">L/2</tspan></text></g></g><path
       d="M 95.62315,8.09523 V 93.1346 178.17398"
       style="fill:none;stroke:#000000;stroke-width:0.28346;stroke-linecap:round;stroke-linejoin:round;stroke-miterlimit:10;stroke-dasharray:none;stroke-opacity:1"
       id="path68" /><g
       id="g70"><g
         id="g72"
         clip-path="url(#clipPath76)"><text
           transform="matrix(1,0,0,-1,139.13463,105.59795)"
           style="font-style:italic;font-variant:normal;font-weight:normal;font-stretch:normal;font-size:11.0078px;font-family:'Palatino Linotype';-inkscape-font-specification:PalatinoLinotype-Italic;writing-mode:lr-tb;fill:#000000;fill-opacity:1;fill-rule:nonzero;stroke:none"
           id="text80"><tspan
             x="0"
             y="0"
             id="tspan78">M</tspan></text></g></g><g
       id="g82"><g
         id="g84"
         clip-path="url(#clipPath88)"><text
           transform="matrix(1,0,0,-1,149.84346,101.05071)"
           style="font-style:italic;font-variant:normal;font-weight:normal;font-stretch:normal;font-size:6.6047px;font-family:'Palatino Linotype';-inkscape-font-specification:PalatinoLinotype-Italic;writing-mode:lr-tb;fill:#000000;fill-opacity:1;fill-rule:nonzero;stroke:none"
           id="text92"><tspan
             x="0"
             y="0"
             id="tspan90">1</tspan></text></g></g><g
       id="g94"><g
         id="g96"
         clip-path="url(#clipPath100)"><text
           transform="matrix(1,0,0,-1,138.68349,187.10359)"
           style="font-style:italic;font-variant:normal;font-weight:normal;font-stretch:normal;font-size:11.0078px;font-family:'Palatino Linotype';-inkscape-font-specification:PalatinoLinotype-Italic;writing-mode:lr-tb;fill:#000000;fill-opacity:1;fill-rule:nonzero;stroke:none"
           id="text104"><tspan
             x="0"
             y="0"
             id="tspan102">M</tspan></text></g></g><g
       id="g106"><g
         id="g108"
         clip-path="url(#clipPath112)"><text
           transform="matrix(1,0,0,-1,149.39232,182.55635)"
           style="font-style:italic;font-variant:normal;font-weight:normal;font-stretch:normal;font-size:6.6047px;font-family:'Palatino Linotype';-inkscape-font-specification:PalatinoLinotype-Italic;writing-mode:lr-tb;fill:#000000;fill-opacity:1;fill-rule:nonzero;stroke:none"
           id="text116"><tspan
             x="0"
             y="0"
             id="tspan114">2</tspan></text></g></g><g
       id="g118"><g
         id="g120"
         clip-path="url(#clipPath124)"><text
           transform="matrix(1,0,0,-1,140.35768,51.51522)"
           style="font-style:italic;font-variant:normal;font-weight:normal;font-stretch:normal;font-size:11.0078px;font-family:'Palatino Linotype';-inkscape-font-specification:PalatinoLinotype-Italic;writing-mode:lr-tb;fill:#000000;fill-opacity:1;fill-rule:nonzero;stroke:none"
           id="text128"><tspan
             x="0 6.72579 10.391401 13.143361 15.895321"
             y="0"
             id="tspan126">EI, m</tspan></text></g></g><path
       d="m 72.08125,8.09523 -0.4252,2.97638 h 0.85039 L 72.08125,8.09523 m 0,170.07875 -0.4252,-2.97638 h 0.85039 l -0.42519,2.97638"
       style="fill:none;stroke:#000000;stroke-width:0.56693;stroke-linecap:round;stroke-linejoin:round;stroke-miterlimit:10;stroke-dasharray:none;stroke-opacity:1"
       id="path130" /><path
       d="m 72.08125,8.09523 h -2.12599 m 2.12599,0 h 2.12598 m -2.12598,170.07875 h -2.12599 m 2.12599,0 h 2.12598 M 72.08125,8.09523 h 52.31356 M 72.08125,178.17398 H 120.8515 M 72.08125,8.09523 v 0 m 0,170.07875 v 0"
       style="fill:none;stroke:#000000;stroke-width:0.28346;stroke-linecap:round;stroke-linejoin:round;stroke-miterlimit:10;stroke-dasharray:none;stroke-opacity:1"
       id="path132" /><g
       id="g134"><g
         id="g136"
         clip-path="url(#clipPath140)"><text
           transform="matrix(0,1,1,0,69.21149,90.46897)"
           style="font-style:italic;font-variant:normal;font-weight:normal;font-stretch:normal;font-size:10.0071px;font-family:'Palatino Linotype';-inkscape-font-specification:PalatinoLinotype-Italic;writing-mode:lr-tb;fill:#000000;fill-opacity:1;fill-rule:nonzero;stroke:none"
           id="text144"><tspan
             x="0"
             y="0"
             id="tspan142">L</tspan></text></g></g><path
       d="M 72.08125,8.09523 V 178.17398"
       style="fill:none;stroke:#000000;stroke-width:0.28346;stroke-linecap:round;stroke-linejoin:round;stroke-miterlimit:10;stroke-dasharray:none;stroke-opacity:1"
       id="path146" /><g
       id="g148"><g
         id="g150"
         clip-path="url(#clipPath154)"><text
           transform="matrix(1,0,0,-1,280.29549,38.8118)"
           style="font-style:italic;font-variant:normal;font-weight:normal;font-stretch:normal;font-size:11.0078px;font-family:'Palatino Linotype';-inkscape-font-specification:PalatinoLinotype-Italic;writing-mode:lr-tb;fill:#000000;fill-opacity:1;fill-rule:nonzero;stroke:none"
           id="text158"><tspan
             x="0"
             y="0"
             id="tspan156">x</tspan></text></g></g><path
       d="m 317.29245,196.59918 2.97638,0.42517 v -0.85037 l -2.97638,0.4252 m 45.77951,0 -2.97638,0.42517 v -0.85037 l 2.97638,0.4252"
       style="fill:none;stroke:#000000;stroke-width:0.56693;stroke-linecap:round;stroke-linejoin:round;stroke-miterlimit:10;stroke-dasharray:none;stroke-opacity:1"
       id="path160" /><path
       d="m 317.29245,196.59918 v 2.12598 m 0,-2.12598 v -2.12597 m 45.77951,2.12597 v 2.12598 m 0,-2.12598 v -2.12597 m -45.77951,2.12597 v -4.59714 -10.99343 m 45.77951,15.59057 v -15.59057 m -45.77951,15.59057 v 0 m 45.77951,0 v 0"
       style="fill:none;stroke:#000000;stroke-width:0.28346;stroke-linecap:round;stroke-linejoin:round;stroke-miterlimit:10;stroke-dasharray:none;stroke-opacity:1"
       id="path162" /><g
       id="g164"><g
         id="g166"
         clip-path="url(#clipPath170)"><text
           transform="matrix(1,0,0,-1,329.13601,199.47895)"
           style="font-style:italic;font-variant:normal;font-weight:normal;font-stretch:normal;font-size:10.0071px;font-family:'Palatino Linotype';-inkscape-font-specification:PalatinoLinotype-Italic;writing-mode:lr-tb;fill:#000000;fill-opacity:1;fill-rule:nonzero;stroke:none"
           id="text174"><tspan
             x="0 7.4753261 9.977109 14.980674 17.482456"
             y="0"
             id="tspan172">Ψ = 1</tspan></text></g></g><path
       d="m 317.29245,196.59918 h 4.15265 41.62686"
       style="fill:none;stroke:#000000;stroke-width:0.28346;stroke-linecap:round;stroke-linejoin:round;stroke-miterlimit:10;stroke-dasharray:none;stroke-opacity:1"
       id="path176" /><path
       d="m 317.29245,112.65158 2.97638,0.42519 v -0.85039 l -2.97638,0.4252 m 13.03937,0 -2.97638,0.42519 v -0.85039 l 2.97638,0.4252"
       style="fill:none;stroke:#000000;stroke-width:0.56693;stroke-linecap:round;stroke-linejoin:round;stroke-miterlimit:10;stroke-dasharray:none;stroke-opacity:1"
       id="path178" /><path
       d="m 317.29245,112.65158 v 2.12598 m 0,-2.12598 v -2.12599 m 13.03937,2.12599 v 2.12598 m 0,-2.12598 v -2.12599 m -13.03937,2.12599 V 95.96925 m 13.03937,16.68233 V 95.96925 m -13.03937,16.68233 v 0 m 13.03937,0 v 0"
       style="fill:none;stroke:#000000;stroke-width:0.28346;stroke-linecap:round;stroke-linejoin:round;stroke-miterlimit:10;stroke-dasharray:none;stroke-opacity:1"
       id="path180" /><g
       id="g182"><g
         id="g184"
         clip-path="url(#clipPath188)"><text
           transform="matrix(1,0,0,-1,288.24228,117.28363)"
           style="font-style:italic;font-variant:normal;font-weight:normal;font-stretch:normal;font-size:10.0071px;font-family:'Palatino Linotype';-inkscape-font-specification:PalatinoLinotype-Italic;writing-mode:lr-tb;fill:#000000;fill-opacity:1;fill-rule:nonzero;stroke:none"
           id="text192"><tspan
             x="0 7.4753261 9.977109 13.309483 18.313047 23.316612 28.880577 31.842688 36.846252"
             y="0"
             id="tspan190">Ψ (x=L/2)</tspan></text></g></g><path
       d="m 317.29245,112.65158 h 13.03937"
       style="fill:none;stroke:#000000;stroke-width:0.28346;stroke-linecap:round;stroke-linejoin:round;stroke-miterlimit:10;stroke-dasharray:none;stroke-opacity:1"
       id="path194" /></g></svg>
