<?xml version="1.0" encoding="UTF-8" standalone="no"?>
<svg
   xmlns:dc="http://purl.org/dc/elements/1.1/"
   xmlns:cc="http://creativecommons.org/ns#"
   xmlns:rdf="http://www.w3.org/1999/02/22-rdf-syntax-ns#"
   xmlns:svg="http://www.w3.org/2000/svg"
   xmlns="http://www.w3.org/2000/svg"
   version="1.1"
   id="svg2"
   xml:space="preserve"
   width="566.92932"
   height="113.38587"
   viewBox="0 0 566.92932 113.38587"><metadata
     id="metadata8"><rdf:RDF><cc:Work
         rdf:about=""><dc:format>image/svg+xml</dc:format><dc:type
           rdf:resource="http://purl.org/dc/dcmitype/StillImage" /></cc:Work></rdf:RDF></metadata><defs
     id="defs6"><clipPath
       clipPathUnits="userSpaceOnUse"
       id="clipPath44"><path
         d="M -0.00426,-8.5e-4 V 85.04022 H 425.20111 V -8.5e-4 H -0.00426"
         clip-rule="evenodd"
         id="path42" /></clipPath><clipPath
       clipPathUnits="userSpaceOnUse"
       id="clipPath56"><path
         d="M -0.00426,-8.5e-4 V 85.04022 H 425.20111 V -8.5e-4 H -0.00426"
         clip-rule="evenodd"
         id="path54" /></clipPath><clipPath
       clipPathUnits="userSpaceOnUse"
       id="clipPath68"><path
         d="M -0.00426,-8.5e-4 V 85.04022 H 425.20111 V -8.5e-4 H -0.00426"
         clip-rule="evenodd"
         id="path66" /></clipPath><clipPath
       clipPathUnits="userSpaceOnUse"
       id="clipPath80"><path
         d="M -0.00426,-8.5e-4 V 85.04022 H 425.20111 V -8.5e-4 H -0.00426"
         clip-rule="evenodd"
         id="path78" /></clipPath><clipPath
       clipPathUnits="userSpaceOnUse"
       id="clipPath96"><path
         d="M -0.00426,-8.5e-4 V 85.04022 H 425.20111 V -8.5e-4 H -0.00426"
         clip-rule="evenodd"
         id="path94" /></clipPath><clipPath
       clipPathUnits="userSpaceOnUse"
       id="clipPath110"><path
         d="M -0.00426,-8.5e-4 V 85.04022 H 425.20111 V -8.5e-4 H -0.00426"
         clip-rule="evenodd"
         id="path108" /></clipPath></defs><g
     id="g10"
     transform="matrix(1.3333333,0,0,-1.3333333,0,113.38587)"><path
       d="M 141.7323,7.08661 H 283.46457 V 77.95276 H 141.7323 V 7.08661"
       style="fill:none;stroke:#000000;stroke-width:0.3685;stroke-linecap:round;stroke-linejoin:round;stroke-miterlimit:10;stroke-dasharray:none;stroke-opacity:1"
       id="path12" /><path
       d="m 206.92914,42.51968 c 0,15.65532 -12.69113,28.34647 -28.34647,28.34647 m 0,0 c -15.6553,0 -28.34643,-12.69115 -28.34643,-28.34647 m 0,0 c 0,-15.65532 12.69113,-28.34645 28.34643,-28.34645 m 0,0 c 15.65534,0 28.34647,12.69113 28.34647,28.34645"
       style="fill:none;stroke:#000000;stroke-width:0.3685;stroke-linecap:round;stroke-linejoin:round;stroke-miterlimit:10;stroke-dasharray:none;stroke-opacity:1"
       id="path14" /><path
       d="m 218.26773,42.51968 c 0,-15.65532 12.69113,-28.34645 28.34647,-28.34645 m 0,0 c 15.6553,0 28.34643,12.69113 28.34643,28.34645 m 0,0 c 0,15.65532 -12.69113,28.34647 -28.34643,28.34647 m 0,0 c -15.65534,0 -28.34647,-12.69115 -28.34647,-28.34647"
       style="fill:none;stroke:#000000;stroke-width:0.3685;stroke-linecap:round;stroke-linejoin:round;stroke-miterlimit:10;stroke-dasharray:none;stroke-opacity:1"
       id="path16" /><path
       d="m 266.31424,56.55046 c 0,3.13107 -2.53821,5.6693 -5.66928,5.6693 m 0,0 c -3.13107,0 -5.66928,-2.53823 -5.66928,-5.6693 m 0,0 c 0,-3.13106 2.53821,-5.66928 5.66928,-5.66928 m 0,0 c 3.13107,0 5.66928,2.53822 5.66928,5.66928"
       style="fill:none;stroke:#000000;stroke-width:0.3685;stroke-linecap:round;stroke-linejoin:round;stroke-miterlimit:10;stroke-dasharray:none;stroke-opacity:1"
       id="path18" /><path
       d="m 246.6142,42.51968 10.02197,10.02199"
       style="fill:none;stroke:#000000;stroke-width:0.3685;stroke-linecap:round;stroke-linejoin:round;stroke-miterlimit:10;stroke-dasharray:none;stroke-opacity:1"
       id="path20" /><path
       d="m 198.28275,28.48891 c 0,3.13105 -2.53821,5.66929 -5.66929,5.66929 m 0,0 c -3.13107,0 -5.66928,-2.53824 -5.66928,-5.66929 m 0,0 c 0,-3.13106 2.53821,-5.6693 5.66928,-5.6693 m 0,0 c 3.13108,0 5.66929,2.53824 5.66929,5.6693"
       style="fill:none;stroke:#000000;stroke-width:0.3685;stroke-linecap:round;stroke-linejoin:round;stroke-miterlimit:10;stroke-dasharray:none;stroke-opacity:1"
       id="path22" /><path
       d="M 178.58267,42.51968 188.60468,32.4977"
       style="fill:none;stroke:#000000;stroke-width:0.3685;stroke-linecap:round;stroke-linejoin:round;stroke-miterlimit:10;stroke-dasharray:none;stroke-opacity:1"
       id="path24" /><path
       d="m 188.60168,10.5354 c 9.98276,1.70444 18.29792,8.60513 21.81321,18.10268"
       style="fill:none;stroke:#000000;stroke-width:0.3685;stroke-linecap:round;stroke-linejoin:round;stroke-miterlimit:10;stroke-dasharray:none;stroke-opacity:1"
       id="path26" /><path
       d="M 210.41489,28.63808 208.52243,24.849 m -0.76733,-1.53641 -0.19001,-0.3804 m 2.8498,5.70589 v 0 l -1.89902,-5.70546 -1.52158,0.75993 3.4206,4.94553"
       style="fill:none;stroke:#000000;stroke-width:0.3685;stroke-linecap:round;stroke-linejoin:round;stroke-miterlimit:10;stroke-dasharray:none;stroke-opacity:1"
       id="path28" /><path
       d="m 206.99429,23.69255 1.52158,-0.75993 1.89902,5.70546 z"
       style="fill:#000000;fill-opacity:1;fill-rule:nonzero;stroke:none"
       id="path30" /><path
       d="m 278.44638,56.40131 c -3.51529,9.49752 -11.83044,16.39824 -21.8132,18.10266"
       style="fill:none;stroke:#000000;stroke-width:0.3685;stroke-linecap:round;stroke-linejoin:round;stroke-miterlimit:10;stroke-dasharray:none;stroke-opacity:1"
       id="path32" /><path
       d="m 278.44638,56.40131 -1.89246,3.78907 m -0.76736,1.53641 -0.18997,0.38039 m 2.84979,-5.70587 v 0 l -3.42059,4.94551 1.52154,0.75993 1.89905,-5.70544"
       style="fill:none;stroke:#000000;stroke-width:0.3685;stroke-linecap:round;stroke-linejoin:round;stroke-miterlimit:10;stroke-dasharray:none;stroke-opacity:1"
       id="path34" /><path
       d="m 276.54733,62.10675 -1.52154,-0.75993 3.42059,-4.94551 z"
       style="fill:#000000;fill-opacity:1;fill-rule:nonzero;stroke:none"
       id="path36" /><g
       id="g38"><g
         id="g40"
         clip-path="url(#clipPath44)"><text
           transform="matrix(1,0,0,-1,172.97841,24.72369)"
           style="font-style:italic;font-variant:normal;font-weight:normal;font-stretch:normal;font-size:11.0078px;font-family:'Palatino Linotype';-inkscape-font-specification:PalatinoLinotype-Italic;writing-mode:lr-tb;fill:#000000;fill-opacity:1;fill-rule:nonzero;stroke:none"
           id="text48"><tspan
             x="0"
             y="0"
             id="tspan46">m</tspan></text></g></g><g
       id="g50"><g
         id="g52"
         clip-path="url(#clipPath56)"><text
           transform="matrix(1,0,0,-1,182.97405,20.17644)"
           style="font-style:italic;font-variant:normal;font-weight:normal;font-stretch:normal;font-size:6.6047px;font-family:'Palatino Linotype';-inkscape-font-specification:PalatinoLinotype-Italic;writing-mode:lr-tb;fill:#000000;fill-opacity:1;fill-rule:nonzero;stroke:none"
           id="text60"><tspan
             x="0"
             y="0"
             id="tspan58">1</tspan></text></g></g><g
       id="g62"><g
         id="g64"
         clip-path="url(#clipPath68)"><text
           transform="matrix(1,0,0,-1,255.95638,43.25042)"
           style="font-style:italic;font-variant:normal;font-weight:normal;font-stretch:normal;font-size:11.0078px;font-family:'Palatino Linotype';-inkscape-font-specification:PalatinoLinotype-Italic;writing-mode:lr-tb;fill:#000000;fill-opacity:1;fill-rule:nonzero;stroke:none"
           id="text72"><tspan
             x="0"
             y="0"
             id="tspan70">m</tspan></text></g></g><g
       id="g74"><g
         id="g76"
         clip-path="url(#clipPath80)"><text
           transform="matrix(1,0,0,-1,265.95204,38.70317)"
           style="font-style:italic;font-variant:normal;font-weight:normal;font-stretch:normal;font-size:6.6047px;font-family:'Palatino Linotype';-inkscape-font-specification:PalatinoLinotype-Italic;writing-mode:lr-tb;fill:#000000;fill-opacity:1;fill-rule:nonzero;stroke:none"
           id="text84"><tspan
             x="0"
             y="0"
             id="tspan82">1</tspan></text></g></g><path
       d="m 186.94791,50.8849 2.40527,-1.80395 -0.60132,-0.60132 -1.80395,2.40527 m 14.03076,-14.03077 -1.80396,2.40527 -0.60132,-0.60132 2.40528,-1.80395"
       style="fill:none;stroke:#000000;stroke-width:0.56693;stroke-linecap:round;stroke-linejoin:round;stroke-miterlimit:10;stroke-dasharray:none;stroke-opacity:1"
       id="path86" /><path
       d="m 186.94791,50.8849 1.50329,1.5033 m -1.50329,-1.5033 -1.5033,-1.50329 m 15.53406,-12.52748 1.50329,1.50329 m -1.50329,-1.50329 -1.5033,-1.5033 M 186.94791,50.8849 v 0 m 14.03076,-14.03077 v 0"
       style="fill:none;stroke:#000000;stroke-width:0.28346;stroke-linecap:round;stroke-linejoin:round;stroke-miterlimit:10;stroke-dasharray:none;stroke-opacity:1"
       id="path88" /><g
       id="g90"><g
         id="g92"
         clip-path="url(#clipPath96)"><text
           transform="matrix(0.70710678,-0.70710678,-0.70710678,-0.70710678,194.73355,47.335)"
           style="font-style:italic;font-variant:normal;font-weight:normal;font-stretch:normal;font-size:10.0071px;font-family:'Palatino Linotype';-inkscape-font-specification:PalatinoLinotype-Italic;writing-mode:lr-tb;fill:#000000;fill-opacity:1;fill-rule:nonzero;stroke:none"
           id="text100"><tspan
             x="0"
             y="0"
             id="tspan98">e</tspan></text></g></g><path
       d="m 186.94791,50.8849 2.0447,-2.04471 11.98606,-11.98606"
       style="fill:none;stroke:#000000;stroke-width:0.28346;stroke-linecap:round;stroke-linejoin:round;stroke-miterlimit:10;stroke-dasharray:none;stroke-opacity:1"
       id="path102" /><g
       id="g104"><g
         id="g106"
         clip-path="url(#clipPath110)"><text
           transform="matrix(1,0,0,-1,211.32912,11.67306)"
           style="font-style:italic;font-variant:normal;font-weight:normal;font-stretch:normal;font-size:11.0078px;font-family:'Palatino Linotype';-inkscape-font-specification:PalatinoLinotype-Italic;writing-mode:lr-tb;fill:#000000;fill-opacity:1;fill-rule:nonzero;stroke:none"
           id="text114"><tspan
             x="0"
             y="0"
             id="tspan112">n</tspan></text></g></g></g></svg>
