<?xml version="1.0" encoding="UTF-8" standalone="no"?>
<svg
   xmlns:dc="http://purl.org/dc/elements/1.1/"
   xmlns:cc="http://creativecommons.org/ns#"
   xmlns:rdf="http://www.w3.org/1999/02/22-rdf-syntax-ns#"
   xmlns:svg="http://www.w3.org/2000/svg"
   xmlns="http://www.w3.org/2000/svg"
   version="1.1"
   id="svg2"
   xml:space="preserve"
   width="566.92932"
   height="264.56668"
   viewBox="0 0 566.92932 264.56668"><metadata
     id="metadata8"><rdf:RDF><cc:Work
         rdf:about=""><dc:format>image/svg+xml</dc:format><dc:type
           rdf:resource="http://purl.org/dc/dcmitype/StillImage" /></cc:Work></rdf:RDF></metadata><defs
     id="defs6"><clipPath
       clipPathUnits="userSpaceOnUse"
       id="clipPath66"><path
         d="M -0.00426,-0.00198 V 198.42719 H 425.20111 V -0.00198 H -0.00426"
         clip-rule="evenodd"
         id="path64" /></clipPath><clipPath
       clipPathUnits="userSpaceOnUse"
       id="clipPath84"><path
         d="M -0.00426,-0.00198 V 198.42719 H 425.20111 V -0.00198 H -0.00426"
         clip-rule="evenodd"
         id="path82" /></clipPath><clipPath
       clipPathUnits="userSpaceOnUse"
       id="clipPath98"><path
         d="M -0.00426,-0.00198 V 198.42719 H 425.20111 V -0.00198 H -0.00426"
         clip-rule="evenodd"
         id="path96" /></clipPath><clipPath
       clipPathUnits="userSpaceOnUse"
       id="clipPath110"><path
         d="M -0.00426,-0.00198 V 198.42719 H 425.20111 V -0.00198 H -0.00426"
         clip-rule="evenodd"
         id="path108" /></clipPath><clipPath
       clipPathUnits="userSpaceOnUse"
       id="clipPath122"><path
         d="M -0.00426,-0.00198 V 198.42719 H 425.20111 V -0.00198 H -0.00426"
         clip-rule="evenodd"
         id="path120" /></clipPath><clipPath
       clipPathUnits="userSpaceOnUse"
       id="clipPath134"><path
         d="M -0.00426,-0.00198 V 198.42719 H 425.20111 V -0.00198 H -0.00426"
         clip-rule="evenodd"
         id="path132" /></clipPath><clipPath
       clipPathUnits="userSpaceOnUse"
       id="clipPath146"><path
         d="M -0.00426,-0.00198 V 198.42719 H 425.20111 V -0.00198 H -0.00426"
         clip-rule="evenodd"
         id="path144" /></clipPath><clipPath
       clipPathUnits="userSpaceOnUse"
       id="clipPath158"><path
         d="M -0.00426,-0.00198 V 198.42719 H 425.20111 V -0.00198 H -0.00426"
         clip-rule="evenodd"
         id="path156" /></clipPath><clipPath
       clipPathUnits="userSpaceOnUse"
       id="clipPath170"><path
         d="M -0.00426,-0.00198 V 198.42719 H 425.20111 V -0.00198 H -0.00426"
         clip-rule="evenodd"
         id="path168" /></clipPath><clipPath
       clipPathUnits="userSpaceOnUse"
       id="clipPath182"><path
         d="M -0.00426,-0.00198 V 198.42719 H 425.20111 V -0.00198 H -0.00426"
         clip-rule="evenodd"
         id="path180" /></clipPath><clipPath
       clipPathUnits="userSpaceOnUse"
       id="clipPath194"><path
         d="M -0.00426,-0.00198 V 198.42719 H 425.20111 V -0.00198 H -0.00426"
         clip-rule="evenodd"
         id="path192" /></clipPath><clipPath
       clipPathUnits="userSpaceOnUse"
       id="clipPath206"><path
         d="M -0.00426,-0.00198 V 198.42719 H 425.20111 V -0.00198 H -0.00426"
         clip-rule="evenodd"
         id="path204" /></clipPath></defs><g
     id="g10"
     transform="matrix(1.3333333,0,0,-1.3333333,0,264.56667)"><path
       d="m 276.35513,144.12466 h -14.17321 l 0.0606,-0.92498 0.18085,-0.90915 0.29794,-0.87781 0.41001,-0.83136 0.51498,-0.77075 0.61121,-0.69693 0.69693,-0.61121 0.77075,-0.51498 0.83139,-0.41001 0.87778,-0.29797 0.90915,-0.18085 0.92498,-0.0606 0.92499,0.0606 0.90918,0.18085 0.87778,0.29797 0.83136,0.41001 0.77075,0.51498 0.69693,0.61121 0.61121,0.69693 0.51501,0.77075 0.40997,0.83136 0.29798,0.87781 0.18085,0.90915 0.0606,0.92498 z"
       style="fill:#dedede;fill-opacity:1;fill-rule:nonzero;stroke:none"
       id="path12" /><path
       d="m 274.89072,148.43872 -0.61121,0.69693 -0.69693,0.61121 -0.77075,0.51498 -0.83136,0.41 -0.87778,0.29798 -0.90918,0.18085 -0.92499,0.0606 -0.92498,-0.0606 -0.90915,-0.18085 -0.87778,-0.29798 -0.83139,-0.41 -0.77075,-0.51498 -0.69693,-0.61121 -0.61121,-0.69693 -0.51498,-0.77075 -0.41001,-0.83136 -0.29794,-0.87781 -0.18085,-0.90915 -0.0606,-0.92499 h 14.17321 l -0.0606,0.92499 -0.18085,0.90915 -0.29798,0.87781 -0.40997,0.83136 -0.51501,0.77075 z"
       style="fill:#dedede;fill-opacity:1;fill-rule:nonzero;stroke:none"
       id="path14" /><path
       d="M 70.84334,30.73883 V 144.12466 H 240.92209 V 30.73883 m 56.6929,113.38583 V 30.73883"
       style="fill:none;stroke:#000000;stroke-width:0.99213;stroke-linecap:round;stroke-linejoin:round;stroke-miterlimit:10;stroke-dasharray:none;stroke-opacity:1"
       id="path16" /><path
       d="m 70.84334,30.73883 170.07875,113.38583 m 0,-113.38583 -170.07875,113.38583"
       style="fill:none;stroke:#000000;stroke-width:0.3685;stroke-linecap:round;stroke-linejoin:round;stroke-miterlimit:10;stroke-dasharray:none;stroke-opacity:1"
       id="path18" /><path
       d="m 70.84334,30.73883 -6.01319,-6.01318 m 6.01319,6.01318 6.0132,-6.01318 m -12.02639,0 h 12.02639 m 164.06555,6.01318 -6.01318,-6.01318 m 6.01318,6.01318 6.01318,-6.01318 m -12.02636,0 h 12.02636 m 50.67972,6.01318 -6.01318,-6.01318 m 6.01318,6.01318 6.01318,-6.01318 m -12.02636,0 h 12.02636"
       style="fill:none;stroke:#000000;stroke-width:0.28346;stroke-linecap:round;stroke-linejoin:round;stroke-miterlimit:10;stroke-dasharray:none;stroke-opacity:1"
       id="path20" /><path
       d="m 72.26067,144.12466 c 0,0.78278 -0.63456,1.41733 -1.41733,1.41733 m 0,0 c -0.78276,0 -1.41731,-0.63455 -1.41731,-1.41733 m 0,0 c 0,-0.78277 0.63455,-1.41732 1.41731,-1.41732 m 0,0 c 0.78277,0 1.41733,0.63455 1.41733,1.41732"
       style="fill:none;stroke:#000000;stroke-width:0.99213;stroke-linecap:round;stroke-linejoin:round;stroke-miterlimit:10;stroke-dasharray:none;stroke-opacity:1"
       id="path22" /><path
       d="m 242.33942,144.12466 c 0,0.78278 -0.63459,1.41733 -1.41733,1.41733 m 0,0 c -0.78278,0 -1.41733,-0.63455 -1.41733,-1.41733 m 0,0 c 0,-0.78277 0.63455,-1.41732 1.41733,-1.41732 m 0,0 c 0.78274,0 1.41733,0.63455 1.41733,1.41732"
       style="fill:none;stroke:#000000;stroke-width:0.99213;stroke-linecap:round;stroke-linejoin:round;stroke-miterlimit:10;stroke-dasharray:none;stroke-opacity:1"
       id="path24" /><path
       d="m 242.33942,30.73883 c 0,0.78278 -0.63459,1.41733 -1.41733,1.41733 m 0,0 c -0.78278,0 -1.41733,-0.63455 -1.41733,-1.41733 m 0,0 c 0,-0.78276 0.63455,-1.41731 1.41733,-1.41731 m 0,0 c 0.78274,0 1.41733,0.63455 1.41733,1.41731"
       style="fill:none;stroke:#000000;stroke-width:0.99213;stroke-linecap:round;stroke-linejoin:round;stroke-miterlimit:10;stroke-dasharray:none;stroke-opacity:1"
       id="path26" /><path
       d="m 72.26067,30.73883 c 0,0.78278 -0.63456,1.41733 -1.41733,1.41733 m 0,0 c -0.78276,0 -1.41731,-0.63455 -1.41731,-1.41733 m 0,0 c 0,-0.78276 0.63455,-1.41731 1.41731,-1.41731 m 0,0 c 0.78277,0 1.41733,0.63455 1.41733,1.41731"
       style="fill:none;stroke:#000000;stroke-width:0.99213;stroke-linecap:round;stroke-linejoin:round;stroke-miterlimit:10;stroke-dasharray:none;stroke-opacity:1"
       id="path28" /><path
       d="m 299.03232,30.73883 c 0,0.78278 -0.63455,1.41733 -1.41733,1.41733 m 0,0 c -0.78278,0 -1.41733,-0.63455 -1.41733,-1.41733 m 0,0 c 0,-0.78276 0.63455,-1.41731 1.41733,-1.41731 m 0,0 c 0.78278,0 1.41733,0.63455 1.41733,1.41731"
       style="fill:none;stroke:#000000;stroke-width:0.99213;stroke-linecap:round;stroke-linejoin:round;stroke-miterlimit:10;stroke-dasharray:none;stroke-opacity:1"
       id="path30" /><path
       d="m 299.03232,144.12466 c 0,0.78278 -0.63455,1.41733 -1.41733,1.41733 m 0,0 c -0.78278,0 -1.41733,-0.63455 -1.41733,-1.41733 m 0,0 c 0,-0.78277 0.63455,-1.41732 1.41733,-1.41732 m 0,0 c 0.78278,0 1.41733,0.63455 1.41733,1.41732"
       style="fill:none;stroke:#000000;stroke-width:0.99213;stroke-linecap:round;stroke-linejoin:round;stroke-miterlimit:10;stroke-dasharray:none;stroke-opacity:1"
       id="path32" /><path
       d="m 276.35513,144.12466 c 0,3.91382 -3.17276,7.08661 -7.08661,7.08661 m 0,0 c -3.91381,0 -7.0866,-3.17279 -7.0866,-7.08661 m 0,0 c 0,-3.91381 3.17279,-7.0866 7.0866,-7.0866 m 0,0 c 3.91385,0 7.08661,3.17279 7.08661,7.0866"
       style="fill:none;stroke:#000000;stroke-width:0.99213;stroke-linecap:round;stroke-linejoin:round;stroke-miterlimit:10;stroke-dasharray:none;stroke-opacity:1"
       id="path34" /><path
       d="m 240.92209,144.12466 h 21.25983 m 14.17321,0 h 21.25986"
       style="fill:none;stroke:#000000;stroke-width:0.99213;stroke-linecap:round;stroke-linejoin:round;stroke-miterlimit:10;stroke-dasharray:none;stroke-opacity:1"
       id="path36" /><path
       d="m 251.552,144.12466 v 17.00788 h 34.01575 v -17.00788"
       style="fill:none;stroke:#000000;stroke-width:0.3685;stroke-linecap:round;stroke-linejoin:round;stroke-miterlimit:10;stroke-dasharray:none;stroke-opacity:1"
       id="path38" /><path
       d="m 297.61499,186.92783 h 10.77164 m -5.95273,0 h -0.4252 m 6.37793,0 v 0 l -5.95273,0.85037 v -1.70078 l 5.95273,0.85041"
       style="fill:none;stroke:#000000;stroke-width:0.28346;stroke-linecap:round;stroke-linejoin:round;stroke-miterlimit:10;stroke-dasharray:none;stroke-opacity:1"
       id="path40" /><path
       d="m 302.4339,186.07742 5.95273,0.85041 -5.95273,0.85037 z"
       style="fill:#000000;fill-opacity:1;fill-rule:nonzero;stroke:none"
       id="path42" /><path
       d="m 297.61499,184.09317 v 7.08661"
       style="fill:none;stroke:#000000;stroke-width:0.28346;stroke-linecap:round;stroke-linejoin:round;stroke-miterlimit:10;stroke-dasharray:none;stroke-opacity:1"
       id="path44" /><path
       d="m 297.61499,144.12466 h 21.5433 m 0,-5.66928 v 11.33857"
       style="fill:none;stroke:#000000;stroke-width:0.99213;stroke-linecap:round;stroke-linejoin:round;stroke-miterlimit:10;stroke-dasharray:none;stroke-opacity:1"
       id="path46" /><path
       d="m 327.94571,144.12466 6.01318,-6.01318 m -6.01318,6.01318 6.01318,6.01319 m 0,-12.02637 v 12.02637"
       style="fill:none;stroke:#000000;stroke-width:0.28346;stroke-linecap:round;stroke-linejoin:round;stroke-miterlimit:10;stroke-dasharray:none;stroke-opacity:1"
       id="path48" /><path
       d="m 327.94571,145.54199 c -0.78278,0 -1.41733,-0.63455 -1.41733,-1.41733 m 0,0 c 0,-0.78277 0.63455,-1.41732 1.41733,-1.41732 m 0,0 c 0.78274,0 1.4173,0.63455 1.4173,1.41732 m 0,0 c 0,0.78278 -0.63456,1.41733 -1.4173,1.41733"
       style="fill:none;stroke:#000000;stroke-width:0.99213;stroke-linecap:round;stroke-linejoin:round;stroke-miterlimit:10;stroke-dasharray:none;stroke-opacity:1"
       id="path50" /><path
       d="m 319.15829,144.12466 h 8.78742"
       style="fill:none;stroke:#000000;stroke-width:0.99213;stroke-linecap:round;stroke-linejoin:round;stroke-miterlimit:10;stroke-dasharray:none;stroke-opacity:1"
       id="path52" /><path
       d="m 311.22128,150.64435 v -13.03937 h 11.62204 v 13.03937 h -11.62204"
       style="fill:none;stroke:#000000;stroke-width:0.3685;stroke-linecap:round;stroke-linejoin:round;stroke-miterlimit:10;stroke-dasharray:none;stroke-opacity:1"
       id="path54" /><path
       d="m 70.84334,3.17061 2.97638,0.4252 V 2.74542 l -2.97638,0.42519 m 170.07875,0 -2.97638,0.4252 V 2.74542 l 2.97638,0.42519"
       style="fill:none;stroke:#000000;stroke-width:0.56693;stroke-linecap:round;stroke-linejoin:round;stroke-miterlimit:10;stroke-dasharray:none;stroke-opacity:1"
       id="path56" /><path
       d="M 70.84334,3.17061 V 5.2966 m 0,-2.12599 V 1.04463 M 240.92209,3.17061 V 5.2966 m 0,-2.12599 V 1.04463 M 70.84334,3.17061 V 19.05635 M 240.92209,3.17061 V 19.05635 M 70.84334,3.17061 v 0 m 170.07875,0 v 0"
       style="fill:none;stroke:#000000;stroke-width:0.28346;stroke-linecap:round;stroke-linejoin:round;stroke-miterlimit:10;stroke-dasharray:none;stroke-opacity:1"
       id="path58" /><g
       id="g60"><g
         id="g62"
         clip-path="url(#clipPath66)"><text
           transform="matrix(1,0,0,-1,147.06213,4.68846)"
           style="font-variant:normal;font-weight:normal;font-stretch:normal;font-size:10.0916px;font-family:'Palatino Linotype';-inkscape-font-specification:PalatinoLinotype-Roman;writing-mode:lr-tb;fill:#000000;fill-opacity:1;fill-rule:nonzero;stroke:none"
           id="text70"><tspan
             x="0 5.045805 7.5687075 12.614512"
             y="0"
             id="tspan68">6.00</tspan></text></g></g><path
       d="m 70.84334,3.17061 h 39.26929 130.80946"
       style="fill:none;stroke:#000000;stroke-width:0.28346;stroke-linecap:round;stroke-linejoin:round;stroke-miterlimit:10;stroke-dasharray:none;stroke-opacity:1"
       id="path72" /><path
       d="m 47.68677,30.73883 -0.4252,2.97638 h 0.85038 l -0.42518,-2.97638 m 0,113.38583 -0.4252,-2.97638 h 0.85038 l -0.42518,2.97638"
       style="fill:none;stroke:#000000;stroke-width:0.56693;stroke-linecap:round;stroke-linejoin:round;stroke-miterlimit:10;stroke-dasharray:none;stroke-opacity:1"
       id="path74" /><path
       d="m 47.68677,30.73883 h -2.12599 m 2.12599,0 h 2.12597 m -2.12597,113.38583 h -2.12599 m 2.12599,0 h 2.12597 M 47.68677,30.73883 H 65.17406 M 47.68677,144.12466 H 65.17406 M 47.68677,30.73883 v 0 m 0,113.38583 v 0"
       style="fill:none;stroke:#000000;stroke-width:0.28346;stroke-linecap:round;stroke-linejoin:round;stroke-miterlimit:10;stroke-dasharray:none;stroke-opacity:1"
       id="path76" /><g
       id="g78"><g
         id="g80"
         clip-path="url(#clipPath84)"><text
           transform="matrix(0,1,1,0,46.16892,78.61117)"
           style="font-variant:normal;font-weight:normal;font-stretch:normal;font-size:10.0916px;font-family:'Palatino Linotype';-inkscape-font-specification:PalatinoLinotype-Roman;writing-mode:lr-tb;fill:#000000;fill-opacity:1;fill-rule:nonzero;stroke:none"
           id="text88"><tspan
             x="0 5.045805 7.5687075 12.614512"
             y="0"
             id="tspan86">4.00</tspan></text></g></g><path
       d="M 47.68677,30.73883 V 144.12466"
       style="fill:none;stroke:#000000;stroke-width:0.28346;stroke-linecap:round;stroke-linejoin:round;stroke-miterlimit:10;stroke-dasharray:none;stroke-opacity:1"
       id="path90" /><g
       id="g92"><g
         id="g94"
         clip-path="url(#clipPath98)"><text
           transform="matrix(1,0,0,-1,256.92603,128.2426)"
           style="font-style:italic;font-variant:normal;font-weight:normal;font-stretch:normal;font-size:11.0078px;font-family:'Palatino Linotype';-inkscape-font-specification:PalatinoLinotype-Italic;writing-mode:lr-tb;fill:#000000;fill-opacity:1;fill-rule:nonzero;stroke:none"
           id="text102"><tspan
             x="0"
             y="0"
             id="tspan100">m</tspan></text></g></g><g
       id="g104"><g
         id="g106"
         clip-path="url(#clipPath110)"><text
           transform="matrix(1,0,0,-1,266.92167,123.69535)"
           style="font-style:italic;font-variant:normal;font-weight:normal;font-stretch:normal;font-size:6.6047px;font-family:'Palatino Linotype';-inkscape-font-specification:PalatinoLinotype-Italic;writing-mode:lr-tb;fill:#000000;fill-opacity:1;fill-rule:nonzero;stroke:none"
           id="text114"><tspan
             x="0 2.1993651 5.1318517"
             y="0"
             id="tspan112">tot</tspan></text></g></g><g
       id="g116"><g
         id="g118"
         clip-path="url(#clipPath122)"><text
           transform="matrix(0.83205029,-0.5547002,-0.5547002,-0.83205029,102.13137,128.58222)"
           style="font-variant:normal;font-weight:normal;font-stretch:normal;font-size:11.1008px;font-family:'Palatino Linotype';-inkscape-font-specification:PalatinoLinotype-Roman;writing-mode:lr-tb;fill:#000000;fill-opacity:1;fill-rule:nonzero;stroke:none"
           id="text126"><tspan
             x="0 7.4153152 14.10908 20.569729 27.352301 32.059029 35.677879 41.228264 47.688915"
             y="0"
             id="tspan124">Rundstahl</tspan></text></g></g><g
       id="g128"><g
         id="g130"
         clip-path="url(#clipPath134)"><text
           transform="matrix(0.83205043,-0.55469999,-0.55469999,-0.83205043,93.48329,115.61009)"
           style="font-variant:normal;font-weight:normal;font-stretch:normal;font-size:11.1344px;font-family:'Segoe UI Symbol';-inkscape-font-specification:SegoeUISymbol;writing-mode:lr-tb;fill:#000000;fill-opacity:1;fill-rule:nonzero;stroke:none"
           id="text138"><tspan
             x="0"
             y="0"
             id="tspan136">⌀</tspan></text></g></g><g
       id="g140"><g
         id="g142"
         clip-path="url(#clipPath146)"><text
           transform="matrix(0.83205029,-0.5547002,-0.5547002,-0.83205029,103.59918,108.86617)"
           style="font-variant:normal;font-weight:normal;font-stretch:normal;font-size:11.1008px;font-family:'Palatino Linotype';-inkscape-font-specification:PalatinoLinotype-Roman;writing-mode:lr-tb;fill:#000000;fill-opacity:1;fill-rule:nonzero;stroke:none"
           id="text150"><tspan
             x="0 5.5503855 11.100771 13.875964 23.677944"
             y="0"
             id="tspan148">12 mm</tspan></text></g></g><g
       id="g152"><g
         id="g154"
         clip-path="url(#clipPath158)"><text
           transform="matrix(1,0,0,-1,271.78902,164.50853)"
           style="font-variant:normal;font-weight:normal;font-stretch:normal;font-size:11.1008px;font-family:'Palatino Linotype';-inkscape-font-specification:PalatinoLinotype-Roman;writing-mode:lr-tb;fill:#000000;fill-opacity:1;fill-rule:nonzero;stroke:none"
           id="text162"><tspan
             x="0 11.10077 16.418039 20.802843 26.974871 32.525257 37.842525 44.536289 50.708317 60.510296 66.060684 70.76741 75.696152 82.156799 85.387123 91.847771"
             y="0"
             id="tspan160">Werkzeugmaschine</tspan></text></g></g><g
       id="g164"><g
         id="g166"
         clip-path="url(#clipPath170)"><text
           transform="matrix(1,0,0,-1,309.92646,185.44723)"
           style="font-style:italic;font-variant:normal;font-weight:normal;font-stretch:normal;font-size:11.0078px;font-family:'Palatino Linotype';-inkscape-font-specification:PalatinoLinotype-Italic;writing-mode:lr-tb;fill:#000000;fill-opacity:1;fill-rule:nonzero;stroke:none"
           id="text174"><tspan
             x="0 6.1203589 9.7859697 13.45158"
             y="0"
             id="tspan172">u(t)</tspan></text></g></g><g
       id="g176"><g
         id="g178"
         clip-path="url(#clipPath182)"><text
           transform="matrix(1,0,0,-1,322.44745,120.62562)"
           style="font-variant:normal;font-weight:normal;font-stretch:normal;font-size:11.1008px;font-family:'Palatino Linotype';-inkscape-font-specification:PalatinoLinotype-Roman;writing-mode:lr-tb;fill:#000000;fill-opacity:1;fill-rule:nonzero;stroke:none"
           id="text186"><tspan
             x="0 8.5919962 14.142381 23.944361 30.615923 34.312481 41.006245 47.466892 53.63892 58.345646 63.662914 66.893242 72.21051 82.012489 87.329758 93.790405"
             y="0"
             id="tspan184">Dämpfungselement</tspan></text></g></g><g
       id="g188"><g
         id="g190"
         clip-path="url(#clipPath194)"><text
           transform="matrix(1,0,0,-1,70.84334,168.79788)"
           style="font-variant:normal;font-weight:normal;font-stretch:normal;font-size:11.1008px;font-family:'Palatino Linotype';-inkscape-font-specification:PalatinoLinotype-Roman;writing-mode:lr-tb;fill:#000000;fill-opacity:1;fill-rule:nonzero;stroke:none"
           id="text198"><tspan
             x="0 8.4698877 13.787156 17.017481 22.334749 28.795397 34.967426 38.19775 44.369778 49.687046 52.462238 59.244808 64.795197 70.967224 76.284492 80.669296 87.36306 93.823708 99.995735"
             y="0"
             id="tspan196">Gelenkige Lagerung </tspan></text></g></g><g
       id="g200"><g
         id="g202"
         clip-path="url(#clipPath206)"><text
           transform="matrix(1,0,0,-1,70.84334,153.20733)"
           style="font-variant:normal;font-weight:normal;font-stretch:normal;font-size:11.1008px;font-family:'Palatino Linotype';-inkscape-font-specification:PalatinoLinotype-Roman;writing-mode:lr-tb;fill:#000000;fill-opacity:1;fill-rule:nonzero;stroke:none"
           id="text210"><tspan
             x="0 5.550385 8.7807093 12.011033 17.328302 21.713106 24.488298 32.547459 39.008106 45.069126 48.687977 54.005245 60.465893"
             y="0"
             id="tspan208">aller Knoten </tspan></text></g></g><path
       d="m 271.78903,168.14633 h -7.65356 v -7.01379 m 0,-1.27561 v 0 m 0,2.55118 v 0 m 1.2756,-1.27557 v 0 m -2.55118,0 v 0"
       style="fill:none;stroke:#000000;stroke-width:0.3685;stroke-linecap:round;stroke-linejoin:round;stroke-miterlimit:10;stroke-dasharray:none;stroke-opacity:1"
       id="path212" /><path
       d="m 264.13547,159.85693 c 0.7045,0 1.2756,0.57111 1.2756,1.27561 m 0,0 c 0,0.7045 -0.5711,1.2756 -1.2756,1.2756 m 0,0 c -0.70447,0 -1.27558,-0.5711 -1.27558,-1.2756 m 0,0 c 0,-0.7045 0.57111,-1.27561 1.27558,-1.27561 m 0,0 c 0,0 0,0 0,0"
       style="fill:none;stroke:#000000;stroke-width:0.3685;stroke-linecap:round;stroke-linejoin:round;stroke-miterlimit:10;stroke-dasharray:none;stroke-opacity:1"
       id="path214" /><path
       d="m 263.49768,162.22952 h 1.2756 l -0.63781,0.17859 z"
       style="fill:#000000;fill-opacity:1;fill-rule:nonzero;stroke:none"
       id="path216" /><path
       d="m 264.77328,162.22952 h -1.2756 l -0.4592,-0.4592 z"
       style="fill:#000000;fill-opacity:1;fill-rule:nonzero;stroke:none"
       id="path218" /><path
       d="m 264.77328,162.22952 -1.7348,-0.4592 h 2.194 z"
       style="fill:#000000;fill-opacity:1;fill-rule:nonzero;stroke:none"
       id="path220" /><path
       d="m 265.23248,161.77032 h -2.194 l -0.17859,-0.63778 z"
       style="fill:#000000;fill-opacity:1;fill-rule:nonzero;stroke:none"
       id="path222" /><path
       d="m 265.23248,161.77032 -2.37259,-0.63778 h 2.55118 z"
       style="fill:#000000;fill-opacity:1;fill-rule:nonzero;stroke:none"
       id="path224" /><path
       d="m 265.41107,161.13254 h -2.55118 l 0.17859,-0.63779 z"
       style="fill:#000000;fill-opacity:1;fill-rule:nonzero;stroke:none"
       id="path226" /><path
       d="m 265.41107,161.13254 -2.37259,-0.63779 h 2.194 z"
       style="fill:#000000;fill-opacity:1;fill-rule:nonzero;stroke:none"
       id="path228" /><path
       d="m 265.23248,160.49475 h -2.194 l 0.4592,-0.45923 z"
       style="fill:#000000;fill-opacity:1;fill-rule:nonzero;stroke:none"
       id="path230" /><path
       d="m 265.23248,160.49475 -1.7348,-0.45923 h 1.2756 z"
       style="fill:#000000;fill-opacity:1;fill-rule:nonzero;stroke:none"
       id="path232" /><path
       d="m 264.77328,160.03552 h -1.2756 l 0.63779,-0.17859 z"
       style="fill:#000000;fill-opacity:1;fill-rule:nonzero;stroke:none"
       id="path234" /><path
       d="m 322.44745,124.26343 h -7.65354 v 13.34155 m 0,1.2756 v 0 m 0,-2.55117 v 0 m -1.2756,1.27557 v 0 m 2.55118,0 v 0"
       style="fill:none;stroke:#000000;stroke-width:0.3685;stroke-linecap:round;stroke-linejoin:round;stroke-miterlimit:10;stroke-dasharray:none;stroke-opacity:1"
       id="path236" /><path
       d="m 314.79391,138.88058 c -0.70449,0 -1.2756,-0.5711 -1.2756,-1.2756 m 0,0 c 0,-0.7045 0.57111,-1.2756 1.2756,-1.2756 m 0,0 c 0.7045,0 1.27558,0.5711 1.27558,1.2756 m 0,0 c 0,0.7045 -0.57108,1.2756 -1.27558,1.2756 m 0,0 c 0,0 0,0 0,0"
       style="fill:none;stroke:#000000;stroke-width:0.3685;stroke-linecap:round;stroke-linejoin:round;stroke-miterlimit:10;stroke-dasharray:none;stroke-opacity:1"
       id="path238" /><path
       d="m 315.4317,136.508 h -1.27557 l 0.63778,-0.17859 z"
       style="fill:#000000;fill-opacity:1;fill-rule:nonzero;stroke:none"
       id="path240" /><path
       d="m 314.15613,136.508 h 1.27557 l 0.4592,0.45919 z"
       style="fill:#000000;fill-opacity:1;fill-rule:nonzero;stroke:none"
       id="path242" /><path
       d="m 314.15613,136.508 1.73477,0.45919 h -2.194 z"
       style="fill:#000000;fill-opacity:1;fill-rule:nonzero;stroke:none"
       id="path244" /><path
       d="m 313.6969,136.96719 h 2.194 l 0.17859,0.63779 z"
       style="fill:#000000;fill-opacity:1;fill-rule:nonzero;stroke:none"
       id="path246" /><path
       d="m 313.6969,136.96719 2.37259,0.63779 h -2.55118 z"
       style="fill:#000000;fill-opacity:1;fill-rule:nonzero;stroke:none"
       id="path248" /><path
       d="m 313.51831,137.60498 h 2.55118 l -0.17859,0.63779 z"
       style="fill:#000000;fill-opacity:1;fill-rule:nonzero;stroke:none"
       id="path250" /><path
       d="m 313.51831,137.60498 2.37259,0.63779 h -2.194 z"
       style="fill:#000000;fill-opacity:1;fill-rule:nonzero;stroke:none"
       id="path252" /><path
       d="m 313.6969,138.24277 h 2.194 l -0.4592,0.45923 z"
       style="fill:#000000;fill-opacity:1;fill-rule:nonzero;stroke:none"
       id="path254" /><path
       d="m 313.6969,138.24277 1.7348,0.45923 h -1.27557 z"
       style="fill:#000000;fill-opacity:1;fill-rule:nonzero;stroke:none"
       id="path256" /><path
       d="m 314.15613,138.702 h 1.27557 l -0.63779,0.17858 z"
       style="fill:#000000;fill-opacity:1;fill-rule:nonzero;stroke:none"
       id="path258" /></g></svg>
