<?xml version="1.0" encoding="UTF-8" standalone="no"?>
<svg
   xmlns:dc="http://purl.org/dc/elements/1.1/"
   xmlns:cc="http://creativecommons.org/ns#"
   xmlns:rdf="http://www.w3.org/1999/02/22-rdf-syntax-ns#"
   xmlns:svg="http://www.w3.org/2000/svg"
   xmlns="http://www.w3.org/2000/svg"
   version="1.1"
   id="svg2"
   xml:space="preserve"
   width="566.92932"
   height="264.56668"
   viewBox="0 0 566.92932 264.56668"><metadata
     id="metadata8"><rdf:RDF><cc:Work
         rdf:about=""><dc:format>image/svg+xml</dc:format><dc:type
           rdf:resource="http://purl.org/dc/dcmitype/StillImage" /></cc:Work></rdf:RDF></metadata><defs
     id="defs6"><clipPath
       clipPathUnits="userSpaceOnUse"
       id="clipPath46"><path
         d="M -0.00426,-0.00198 V 198.42719 H 425.20111 V -0.00198 H -0.00426"
         clip-rule="evenodd"
         id="path44" /></clipPath><clipPath
       clipPathUnits="userSpaceOnUse"
       id="clipPath64"><path
         d="M -0.00426,-0.00198 V 198.42719 H 425.20111 V -0.00198 H -0.00426"
         clip-rule="evenodd"
         id="path62" /></clipPath><clipPath
       clipPathUnits="userSpaceOnUse"
       id="clipPath78"><path
         d="M -0.00426,-0.00198 V 198.42719 H 425.20111 V -0.00198 H -0.00426"
         clip-rule="evenodd"
         id="path76" /></clipPath><clipPath
       clipPathUnits="userSpaceOnUse"
       id="clipPath94"><path
         d="M -0.00426,-0.00198 V 198.42719 H 425.20111 V -0.00198 H -0.00426"
         clip-rule="evenodd"
         id="path92" /></clipPath></defs><g
     id="g10"
     transform="matrix(1.3333333,0,0,-1.3333333,0,264.56667)"><path
       d="m 78.38623,30.73883 -6.01318,-6.01318 m 6.01318,6.01318 6.0132,-6.01318 m -12.02638,0 h 12.02638 m 164.06554,6.01318 -6.01319,-6.01318 m 6.01319,6.01318 6.01321,-6.01318 m -12.0264,0 h 12.0264 m 50.67969,6.01318 -6.01319,-6.01318 m 6.01319,6.01318 6.01321,-6.01318 m -12.0264,0 h 12.0264"
       style="fill:none;stroke:#000000;stroke-width:0.28346;stroke-linecap:round;stroke-linejoin:round;stroke-miterlimit:10;stroke-dasharray:none;stroke-opacity:1"
       id="path12" /><path
       d="m 249.88229,30.73883 c 0,0.78278 -0.63455,1.41733 -1.41732,1.41733 m 0,0 c -0.78275,0 -1.41733,-0.63455 -1.41733,-1.41733 m 0,0 c 0,-0.78276 0.63458,-1.41731 1.41733,-1.41731 m 0,0 c 0.78277,0 1.41732,0.63455 1.41732,1.41731"
       style="fill:none;stroke:#000000;stroke-width:0.99213;stroke-linecap:round;stroke-linejoin:round;stroke-miterlimit:10;stroke-dasharray:none;stroke-opacity:1"
       id="path14" /><path
       d="m 79.80356,30.73883 c 0,0.78278 -0.63455,1.41733 -1.41733,1.41733 m 0,0 c -0.78276,0 -1.41731,-0.63455 -1.41731,-1.41733 m 0,0 c 0,-0.78276 0.63455,-1.41731 1.41731,-1.41731 m 0,0 c 0.78278,0 1.41733,0.63455 1.41733,1.41731"
       style="fill:none;stroke:#000000;stroke-width:0.99213;stroke-linecap:round;stroke-linejoin:round;stroke-miterlimit:10;stroke-dasharray:none;stroke-opacity:1"
       id="path16" /><path
       d="m 306.5752,30.73883 c 0,0.78278 -0.63456,1.41733 -1.41733,1.41733 m 0,0 c -0.78275,0 -1.4173,-0.63455 -1.4173,-1.41733 m 0,0 c 0,-0.78276 0.63455,-1.41731 1.4173,-1.41731 m 0,0 c 0.78277,0 1.41733,0.63455 1.41733,1.41731"
       style="fill:none;stroke:#000000;stroke-width:0.99213;stroke-linecap:round;stroke-linejoin:round;stroke-miterlimit:10;stroke-dasharray:none;stroke-opacity:1"
       id="path18" /><path
       d="M 78.38623,30.73883 92.55946,144.12466 H 262.63818 L 248.46497,30.73883 M 319.33112,144.12466 305.15787,30.73883"
       style="fill:none;stroke:#000000;stroke-width:0.99213;stroke-linecap:round;stroke-linejoin:round;stroke-miterlimit:10;stroke-dasharray:none;stroke-opacity:1"
       id="path20" /><path
       d="M 78.38623,30.73883 262.63818,144.12466"
       style="fill:none;stroke:#000000;stroke-width:0.3685;stroke-linecap:round;stroke-linejoin:round;stroke-miterlimit:10;stroke-dasharray:none;stroke-opacity:1"
       id="path22" /><path
       d="m 93.97679,144.12466 c 0,0.78278 -0.63457,1.41733 -1.41733,1.41733 m 0,0 c -0.78276,0 -1.41732,-0.63455 -1.41732,-1.41733 m 0,0 c 0,-0.78277 0.63456,-1.41732 1.41732,-1.41732 m 0,0 c 0.78276,0 1.41733,0.63455 1.41733,1.41732"
       style="fill:none;stroke:#000000;stroke-width:0.99213;stroke-linecap:round;stroke-linejoin:round;stroke-miterlimit:10;stroke-dasharray:none;stroke-opacity:1"
       id="path24" /><path
       d="m 264.05551,144.12466 c 0,0.78278 -0.63455,1.41733 -1.41733,1.41733 m 0,0 c -0.78274,0 -1.41729,-0.63455 -1.41729,-1.41733 m 0,0 c 0,-0.78277 0.63455,-1.41732 1.41729,-1.41732 m 0,0 c 0.78278,0 1.41733,0.63455 1.41733,1.41732"
       style="fill:none;stroke:#000000;stroke-width:0.99213;stroke-linecap:round;stroke-linejoin:round;stroke-miterlimit:10;stroke-dasharray:none;stroke-opacity:1"
       id="path26" /><path
       d="m 320.74844,144.12466 c 0,0.78278 -0.63458,1.41733 -1.41732,1.41733 m 0,0 c -0.78278,0 -1.41733,-0.63455 -1.41733,-1.41733 m 0,0 c 0,-0.78277 0.63455,-1.41732 1.41733,-1.41732 m 0,0 c 0.78274,0 1.41732,0.63455 1.41732,1.41732"
       style="fill:none;stroke:#000000;stroke-width:0.99213;stroke-linecap:round;stroke-linejoin:round;stroke-miterlimit:10;stroke-dasharray:none;stroke-opacity:1"
       id="path28" /><path
       d="m 262.63818,144.12466 h 56.69294"
       style="fill:none;stroke:#000000;stroke-width:0.99213;stroke-linecap:round;stroke-linejoin:round;stroke-miterlimit:10;stroke-dasharray:none;stroke-opacity:1"
       id="path30" /><path
       d="m 14.41075,144.12466 h 31.46457 m -5.4567,0 h -0.38975 m 5.84645,0 v 0 l -5.4567,0.77955 v -1.55906 l 5.4567,0.77951"
       style="fill:none;stroke:#ff0000;stroke-width:0.28346;stroke-linecap:round;stroke-linejoin:round;stroke-miterlimit:10;stroke-dasharray:none;stroke-opacity:1"
       id="path32" /><path
       d="m 40.41862,143.34515 5.4567,0.77951 -5.4567,0.77955 z"
       style="fill:#ff0000;fill-opacity:1;fill-rule:nonzero;stroke:none"
       id="path34" /><path
       d="m 78.38623,3.17061 2.97638,0.4252 V 2.74542 l -2.97638,0.42519 m 170.07874,0 -2.97638,0.4252 V 2.74542 l 2.97638,0.42519"
       style="fill:none;stroke:#000000;stroke-width:0.56693;stroke-linecap:round;stroke-linejoin:round;stroke-miterlimit:10;stroke-dasharray:none;stroke-opacity:1"
       id="path36" /><path
       d="M 78.38623,3.17061 V 5.2966 m 0,-2.12599 V 1.04463 M 248.46497,3.17061 V 5.2966 m 0,-2.12599 V 1.04463 M 78.38623,3.17061 V 19.05635 M 248.46497,3.17061 V 19.05635 M 78.38623,3.17061 v 0 m 170.07874,0 v 0"
       style="fill:none;stroke:#000000;stroke-width:0.28346;stroke-linecap:round;stroke-linejoin:round;stroke-miterlimit:10;stroke-dasharray:none;stroke-opacity:1"
       id="path38" /><g
       id="g40"><g
         id="g42"
         clip-path="url(#clipPath46)"><text
           transform="matrix(1,0,0,-1,154.60503,4.68846)"
           style="font-variant:normal;font-weight:normal;font-stretch:normal;font-size:10.0916px;font-family:'Palatino Linotype';-inkscape-font-specification:PalatinoLinotype-Roman;writing-mode:lr-tb;fill:#000000;fill-opacity:1;fill-rule:nonzero;stroke:none"
           id="text50"><tspan
             x="0 5.045805 7.5687075 12.614512"
             y="0"
             id="tspan48">6.00</tspan></text></g></g><path
       d="m 78.38623,3.17061 h 37.51363 132.56511"
       style="fill:none;stroke:#000000;stroke-width:0.28346;stroke-linecap:round;stroke-linejoin:round;stroke-miterlimit:10;stroke-dasharray:none;stroke-opacity:1"
       id="path52" /><path
       d="m 55.22966,30.73883 -0.4252,2.97638 h 0.85039 l -0.42519,-2.97638 m 0,113.38583 -0.4252,-2.97638 h 0.85039 l -0.42519,2.97638"
       style="fill:none;stroke:#000000;stroke-width:0.56693;stroke-linecap:round;stroke-linejoin:round;stroke-miterlimit:10;stroke-dasharray:none;stroke-opacity:1"
       id="path54" /><path
       d="m 55.22966,30.73883 h -2.12599 m 2.12599,0 h 2.12598 m -2.12598,113.38583 h -2.12599 m 2.12599,0 h 2.12598 M 55.22966,30.73883 H 72.71695 M 55.22966,144.12466 H 86.89017 M 55.22966,30.73883 v 0 m 0,113.38583 v 0"
       style="fill:none;stroke:#000000;stroke-width:0.28346;stroke-linecap:round;stroke-linejoin:round;stroke-miterlimit:10;stroke-dasharray:none;stroke-opacity:1"
       id="path56" /><g
       id="g58"><g
         id="g60"
         clip-path="url(#clipPath64)"><text
           transform="matrix(0,1,1,0,52.19397,78.61117)"
           style="font-variant:normal;font-weight:normal;font-stretch:normal;font-size:10.0916px;font-family:'Palatino Linotype';-inkscape-font-specification:PalatinoLinotype-Roman;writing-mode:lr-tb;fill:#000000;fill-opacity:1;fill-rule:nonzero;stroke:none"
           id="text68"><tspan
             x="0 5.045805 7.5687075 12.614512"
             y="0"
             id="tspan66">4.00</tspan></text></g></g><path
       d="M 55.22966,30.73883 V 144.12466"
       style="fill:none;stroke:#000000;stroke-width:0.28346;stroke-linecap:round;stroke-linejoin:round;stroke-miterlimit:10;stroke-dasharray:none;stroke-opacity:1"
       id="path70" /><g
       id="g72"><g
         id="g74"
         clip-path="url(#clipPath78)"><text
           transform="matrix(1,0,0,-1,30.74979,150.50896)"
           style="font-style:italic;font-variant:normal;font-weight:normal;font-stretch:normal;font-size:11.0078px;font-family:'Palatino Linotype';-inkscape-font-specification:PalatinoLinotype-Italic;writing-mode:lr-tb;fill:#ff0000;fill-opacity:1;fill-rule:nonzero;stroke:none"
           id="text82"><tspan
             x="0"
             y="0"
             id="tspan80">F</tspan></text></g></g><path
       d="m 78.38623,170.38382 2.97638,0.42517 v -0.85037 l -2.97638,0.4252 m 14.17323,0 -2.97638,0.42517 v -0.85037 l 2.97638,0.4252"
       style="fill:none;stroke:#000000;stroke-width:0.56693;stroke-linecap:round;stroke-linejoin:round;stroke-miterlimit:10;stroke-dasharray:none;stroke-opacity:1"
       id="path84" /><path
       d="m 78.38623,170.38382 v 2.12598 m 0,-2.12598 v -2.12598 m 14.17323,2.12598 v 2.12598 m 0,-2.12598 v -2.12598 m -14.17323,2.12598 V 165.5029 36.40813 m 14.17323,133.97569 v -20.58987 m -14.17323,20.58987 v 0 m 14.17323,0 v 0"
       style="fill:none;stroke:#000000;stroke-width:0.28346;stroke-linecap:round;stroke-linejoin:round;stroke-miterlimit:10;stroke-dasharray:none;stroke-opacity:1"
       id="path86" /><g
       id="g88"><g
         id="g90"
         clip-path="url(#clipPath94)"><text
           transform="matrix(1,0,0,-1,82.88495,173.38897)"
           style="font-style:italic;font-variant:normal;font-weight:normal;font-stretch:normal;font-size:10.0071px;font-family:'Palatino Linotype';-inkscape-font-specification:PalatinoLinotype-Italic;writing-mode:lr-tb;fill:#000000;fill-opacity:1;fill-rule:nonzero;stroke:none"
           id="text98"><tspan
             x="0"
             y="0"
             id="tspan96">u</tspan></text></g></g><path
       d="M 78.38623,170.38382 H 92.55946"
       style="fill:none;stroke:#000000;stroke-width:0.28346;stroke-linecap:round;stroke-linejoin:round;stroke-miterlimit:10;stroke-dasharray:none;stroke-opacity:1"
       id="path100" /></g></svg>
