<?xml version="1.0" encoding="UTF-8" standalone="no"?>
<svg
   xmlns:dc="http://purl.org/dc/elements/1.1/"
   xmlns:cc="http://creativecommons.org/ns#"
   xmlns:rdf="http://www.w3.org/1999/02/22-rdf-syntax-ns#"
   xmlns:svg="http://www.w3.org/2000/svg"
   xmlns="http://www.w3.org/2000/svg"
   version="1.1"
   id="svg2"
   xml:space="preserve"
   width="566.92932"
   height="302.36267"
   viewBox="0 0 566.92932 302.36267"><metadata
     id="metadata8"><rdf:RDF><cc:Work
         rdf:about=""><dc:format>image/svg+xml</dc:format><dc:type
           rdf:resource="http://purl.org/dc/dcmitype/StillImage" /></cc:Work></rdf:RDF></metadata><defs
     id="defs6"><clipPath
       clipPathUnits="userSpaceOnUse"
       id="clipPath68"><path
         d="m -0.00426,-0.00227 v 226.7762 H 425.20111 V -0.00227 H -0.00426"
         clip-rule="evenodd"
         id="path66" /></clipPath><clipPath
       clipPathUnits="userSpaceOnUse"
       id="clipPath80"><path
         d="m -0.00426,-0.00227 v 226.7762 H 425.20111 V -0.00227 H -0.00426"
         clip-rule="evenodd"
         id="path78" /></clipPath><clipPath
       clipPathUnits="userSpaceOnUse"
       id="clipPath92"><path
         d="m -0.00426,-0.00227 v 226.7762 H 425.20111 V -0.00227 H -0.00426"
         clip-rule="evenodd"
         id="path90" /></clipPath><clipPath
       clipPathUnits="userSpaceOnUse"
       id="clipPath104"><path
         d="m -0.00426,-0.00227 v 226.7762 H 425.20111 V -0.00227 H -0.00426"
         clip-rule="evenodd"
         id="path102" /></clipPath><clipPath
       clipPathUnits="userSpaceOnUse"
       id="clipPath116"><path
         d="m -0.00426,-0.00227 v 226.7762 H 425.20111 V -0.00227 H -0.00426"
         clip-rule="evenodd"
         id="path114" /></clipPath><clipPath
       clipPathUnits="userSpaceOnUse"
       id="clipPath128"><path
         d="m -0.00426,-0.00227 v 226.7762 H 425.20111 V -0.00227 H -0.00426"
         clip-rule="evenodd"
         id="path126" /></clipPath><clipPath
       clipPathUnits="userSpaceOnUse"
       id="clipPath140"><path
         d="m -0.00426,-0.00227 v 226.7762 H 425.20111 V -0.00227 H -0.00426"
         clip-rule="evenodd"
         id="path138" /></clipPath><clipPath
       clipPathUnits="userSpaceOnUse"
       id="clipPath152"><path
         d="m -0.00426,-0.00227 v 226.7762 H 425.20111 V -0.00227 H -0.00426"
         clip-rule="evenodd"
         id="path150" /></clipPath><clipPath
       clipPathUnits="userSpaceOnUse"
       id="clipPath164"><path
         d="m -0.00426,-0.00227 v 226.7762 H 425.20111 V -0.00227 H -0.00426"
         clip-rule="evenodd"
         id="path162" /></clipPath><clipPath
       clipPathUnits="userSpaceOnUse"
       id="clipPath180"><path
         d="m -0.00426,-0.00227 v 226.7762 H 425.20111 V -0.00227 H -0.00426"
         clip-rule="evenodd"
         id="path178" /></clipPath><clipPath
       clipPathUnits="userSpaceOnUse"
       id="clipPath192"><path
         d="m -0.00426,-0.00227 v 226.7762 H 425.20111 V -0.00227 H -0.00426"
         clip-rule="evenodd"
         id="path190" /></clipPath><clipPath
       clipPathUnits="userSpaceOnUse"
       id="clipPath206"><path
         d="m -0.00426,-0.00227 v 226.7762 H 425.20111 V -0.00227 H -0.00426"
         clip-rule="evenodd"
         id="path204" /></clipPath><clipPath
       clipPathUnits="userSpaceOnUse"
       id="clipPath218"><path
         d="m -0.00426,-0.00227 v 226.7762 H 425.20111 V -0.00227 H -0.00426"
         clip-rule="evenodd"
         id="path216" /></clipPath><clipPath
       clipPathUnits="userSpaceOnUse"
       id="clipPath230"><path
         d="m -0.00426,-0.00227 v 226.7762 H 425.20111 V -0.00227 H -0.00426"
         clip-rule="evenodd"
         id="path228" /></clipPath><clipPath
       clipPathUnits="userSpaceOnUse"
       id="clipPath242"><path
         d="m -0.00426,-0.00227 v 226.7762 H 425.20111 V -0.00227 H -0.00426"
         clip-rule="evenodd"
         id="path240" /></clipPath><clipPath
       clipPathUnits="userSpaceOnUse"
       id="clipPath258"><path
         d="m -0.00426,-0.00227 v 226.7762 H 425.20111 V -0.00227 H -0.00426"
         clip-rule="evenodd"
         id="path256" /></clipPath></defs><g
     id="g10"
     transform="matrix(1.3333333,0,0,-1.3333333,0,302.36267)"><path
       d="m 155.90552,93.32561 4.45337,4.45335 h -4.45337 z"
       style="fill:#000000;fill-opacity:1;fill-rule:nonzero;stroke:none"
       id="path12" /><path
       d="m 264.83798,97.77896 4.45334,-4.45335 v 4.45335 z"
       style="fill:#000000;fill-opacity:1;fill-rule:nonzero;stroke:none"
       id="path14" /><path
       d="m 217.50818,100.6136 -0.56683,0.80951 -0.69877,0.69878 -0.80951,0.56682 -0.89562,0.41763 -0.95456,0.25578 -0.98447,0.0861 -0.98444,-0.0861 -0.95456,-0.25578 -0.89563,-0.41763 -0.80951,-0.56682 -0.69879,-0.69878 -0.5668,-0.80951 -0.41766,-0.89563 -0.25577,-0.95456 -0.0861,-0.98445 0.0861,-0.98447 0.25577,-0.95455 0.41766,-0.89563 0.5668,-0.8095 0.69879,-0.69879 0.80951,-0.56682 0.89563,-0.41763 0.95456,-0.25578 0.98444,-0.08613 0.98447,0.08613 0.95456,0.25578 0.89562,0.41763 0.80951,0.56682 0.69877,0.69879 0.56683,0.8095 0.41763,0.89563 0.25577,0.95455 0.0862,0.98447 -0.0862,0.98445 -0.25577,0.95456 z"
       style="fill:#dedede;fill-opacity:1;fill-rule:nonzero;stroke:none"
       id="path16" /><path
       d="m 155.90552,102.23232 v -4.45336 h 4.45337 z"
       style="fill:#000000;fill-opacity:1;fill-rule:nonzero;stroke:none"
       id="path18" /><path
       d="m 264.83798,97.77896 h 4.45334 v 4.45336 z"
       style="fill:#000000;fill-opacity:1;fill-rule:nonzero;stroke:none"
       id="path20" /><path
       d="m 155.90552,184.03427 4.45337,4.45334 h -4.45337 z"
       style="fill:#000000;fill-opacity:1;fill-rule:nonzero;stroke:none"
       id="path22" /><path
       d="m 264.83798,188.48761 4.45334,-4.45334 v 4.45334 z"
       style="fill:#000000;fill-opacity:1;fill-rule:nonzero;stroke:none"
       id="path24" /><path
       d="m 217.50818,191.32227 -0.56683,0.8095 -0.69877,0.69877 -0.80951,0.56683 -0.89562,0.41763 -0.95456,0.25577 -0.98447,0.0862 -0.98444,-0.0862 -0.95456,-0.25577 -0.89563,-0.41763 -0.80951,-0.56683 -0.69879,-0.69877 -0.5668,-0.8095 -0.41766,-0.89563 -0.25577,-0.95456 -0.0861,-0.98447 0.0861,-0.98447 0.25577,-0.95453 0.41766,-0.89563 0.5668,-0.8095 0.69879,-0.6988 0.80951,-0.5668 0.89563,-0.41766 0.95456,-0.25577 0.98444,-0.0861 0.98447,0.0861 0.95456,0.25577 0.89562,0.41766 0.80951,0.5668 0.69877,0.6988 0.56683,0.8095 0.41763,0.89563 0.25577,0.95453 0.0862,0.98447 -0.0862,0.98447 -0.25577,0.95456 z"
       style="fill:#dedede;fill-opacity:1;fill-rule:nonzero;stroke:none"
       id="path26" /><path
       d="m 152.04602,1.401 5.66928,5.6693 m -15.69128,-5.6693 5.66931,5.6693 m 14.37466,-5.6693 5.66931,5.6693 m 87.3808,-2.81707 2.81705,2.81707 m 14.37469,-5.6693 5.66929,5.6693 m -15.69129,-5.6693 5.66931,5.6693 m 14.37467,-5.6693 1.13275,1.13274"
       style="fill:none;stroke:#000000;stroke-width:0.3685;stroke-linecap:round;stroke-linejoin:round;stroke-miterlimit:10;stroke-dasharray:none;stroke-opacity:1"
       id="path28" /><path
       d="m 141.7323,7.0703 h 28.34644 m 85.03936,0 h 28.34647 m -127.55905,0 v 90.70866 h 113.3858 m 0,-90.70866 v 90.70866"
       style="fill:none;stroke:#000000;stroke-width:0.99213;stroke-linecap:round;stroke-linejoin:round;stroke-miterlimit:10;stroke-dasharray:none;stroke-opacity:1"
       id="path30" /><path
       d="m 268.15747,7.08661 v 4.25197 m 0,2.83465 v 4.25197 m 0,2.83464 v 4.25197 m 0,2.83464 v 4.25198 m 0,2.83464 v 4.25197 m 0,2.83464 v 4.25197 m 0,2.83466 v 4.25197 m 0,2.83464 v 4.25197 m 0,2.83464 v 4.25196 m 0,2.83466 v 4.25197 m 0,2.83464 v 4.25197 m 0,2.83464 v 4.25197 m 0,2.83465 v 4.25197 m 0,-89.30766 v 0 m 0,89.85826 v 0 M 157.03937,7.08661 v 4.25197 m 0,2.83465 v 4.25197 m 0,2.83464 v 4.25197 m 0,2.83464 v 4.25198 m 0,2.83464 v 4.25197 m 0,2.83464 v 4.25197 m 0,2.83466 v 4.25197 m 0,2.83464 v 4.25197 m 0,2.83464 v 4.25196 m 0,2.83466 v 4.25197 m 0,2.83464 v 4.25197 m 0,2.83464 v 4.25197 m 0,2.83465 v 4.25197 m 0,-89.30766 v 0 m 0,89.85826 v 0 h 3.11813 m 2.83463,0 h 4.25198 m 2.83463,0 h 4.25198 m 2.83465,0 h 4.25196 m 2.83465,0 h 4.25196 m 2.83465,0 h 4.25196 m 2.83465,0 h 4.25199 m 2.83462,0 h 4.25198 m 2.83463,0 h 4.25198 m 2.83466,0 h 4.25195 m 2.83466,0 h 4.25195 m 2.83466,0 h 4.25195 m 2.83466,0 h 4.25198 m 2.83462,0 h 4.25199 m 2.83462,0 h 4.25199 m 2.83462,0 h 4.25199 m -109.41733,0 v 0 m 111.1181,0 v 0"
       style="fill:none;stroke:#000000;stroke-width:0.3685;stroke-linecap:round;stroke-linejoin:round;stroke-miterlimit:10;stroke-dasharray:none;stroke-opacity:1"
       id="path32" /><path
       d="m 155.90552,93.32561 4.45337,4.45335 m 108.93243,-4.45335 -4.45334,4.45335"
       style="fill:none;stroke:#000000;stroke-width:0.99213;stroke-linecap:round;stroke-linejoin:round;stroke-miterlimit:10;stroke-dasharray:none;stroke-opacity:1"
       id="path34" /><path
       d="m 218.26773,97.77896 c 0,3.13106 -2.53824,5.66928 -5.66931,5.66928 m 0,0 c -3.13104,0 -5.66928,-2.53822 -5.66928,-5.66928 m 0,0 c 0,-3.13107 2.53824,-5.6693 5.66928,-5.6693 m 0,0 c 3.13107,0 5.66931,2.53823 5.66931,5.6693"
       style="fill:none;stroke:#000000;stroke-width:0.99213;stroke-linecap:round;stroke-linejoin:round;stroke-miterlimit:10;stroke-dasharray:none;stroke-opacity:1"
       id="path36" /><path
       d="m 155.90552,97.77896 h 113.3858 m -113.3858,4.45336 4.45337,-4.45336 m 108.93243,4.45336 -4.45334,-4.45336 M 155.90552,188.48761 V 97.77896 m 113.3858,90.70865 V 97.77896"
       style="fill:none;stroke:#000000;stroke-width:0.99213;stroke-linecap:round;stroke-linejoin:round;stroke-miterlimit:10;stroke-dasharray:none;stroke-opacity:1"
       id="path38" /><path
       d="m 268.15747,99.2126 v 4.25197 m 0,2.83464 v 4.25197 m 0,2.83465 v 4.25197 m 0,2.83464 v 4.25197 m 0,2.83464 v 4.25199 m 0,2.83465 v 4.25195 m 0,2.83466 v 4.25195 m 0,2.83466 v 4.25195 m 0,2.83466 v 4.25198 m 0,2.83463 v 4.25198 m 0,2.83463 v 4.25198 m 0,2.83465 v 4.25196 m 0,2.83465 v 4.23563 m 0,-89.85826 v 0 m 0,89.85826 v 0 M 157.03937,99.2126 v 4.25197 m 0,2.83464 v 4.25197 m 0,2.83465 v 4.25197 m 0,2.83464 v 4.25197 m 0,2.83464 v 4.25199 m 0,2.83465 v 4.25195 m 0,2.83466 v 4.25195 m 0,2.83466 v 4.25195 m 0,2.83466 v 4.25198 m 0,2.83463 v 4.25198 m 0,2.83463 v 4.25198 m 0,2.83465 v 4.25196 m 0,2.83465 v 4.23563 m 0,-89.85826 v 0 m 0,89.85826 v 0 m 0,-0.85037 h 3.11813 m 2.83463,0 h 4.25198 m 2.83463,0 h 4.25198 m 2.83465,0 h 4.25196 m 2.83465,0 h 4.25196 m 2.83465,0 h 4.25196 m 2.83465,0 h 4.25199 m 2.83462,0 h 4.25198 m 2.83463,0 h 4.25198 m 2.83466,0 h 4.25195 m 2.83466,0 h 4.25195 m 2.83466,0 h 4.25195 m 2.83466,0 h 4.25198 m 2.83462,0 h 4.25199 m 2.83462,0 h 4.25199 m 2.83462,0 h 4.25199 m -109.41733,0 v 0 m 111.1181,0 v 0"
       style="fill:none;stroke:#000000;stroke-width:0.3685;stroke-linecap:round;stroke-linejoin:round;stroke-miterlimit:10;stroke-dasharray:none;stroke-opacity:1"
       id="path40" /><path
       d="m 155.90552,184.03427 4.45337,4.45334 m 108.93243,-4.45334 -4.45334,4.45334 m -108.93246,0 h 113.3858"
       style="fill:none;stroke:#000000;stroke-width:0.99213;stroke-linecap:round;stroke-linejoin:round;stroke-miterlimit:10;stroke-dasharray:none;stroke-opacity:1"
       id="path42" /><path
       d="m 269.29132,200.14014 h 10.77167 m -5.95276,0 h -0.4252 m 6.37796,0 v 0 l -5.95276,0.8504 v -1.70081 l 5.95276,0.85041"
       style="fill:none;stroke:#000000;stroke-width:0.28346;stroke-linecap:round;stroke-linejoin:round;stroke-miterlimit:10;stroke-dasharray:none;stroke-opacity:1"
       id="path44" /><path
       d="m 274.11023,199.28973 5.95276,0.85041 -5.95276,0.8504 z"
       style="fill:#000000;fill-opacity:1;fill-rule:nonzero;stroke:none"
       id="path46" /><path
       d="m 269.29132,202.97479 v -7.08664"
       style="fill:none;stroke:#000000;stroke-width:0.28346;stroke-linecap:round;stroke-linejoin:round;stroke-miterlimit:10;stroke-dasharray:none;stroke-opacity:1"
       id="path48" /><path
       d="m 218.26773,188.48761 c 0,3.13107 -2.53824,5.66931 -5.66931,5.66931 m 0,0 c -3.13104,0 -5.66928,-2.53824 -5.66928,-5.66931 m 0,0 c 0,-3.13104 2.53824,-5.66928 5.66928,-5.66928 m 0,0 c 3.13107,0 5.66931,2.53824 5.66931,5.66928"
       style="fill:none;stroke:#000000;stroke-width:0.99213;stroke-linecap:round;stroke-linejoin:round;stroke-miterlimit:10;stroke-dasharray:none;stroke-opacity:1"
       id="path50" /><path
       d="m 120.19009,215.70084 v 0 h 14.17325 m -5.95276,0 h -0.42521 m 6.37797,0 v 0 l -5.95276,0.85037 v -1.70078 l 5.95276,0.85041"
       style="fill:none;stroke:#000000;stroke-width:0.28346;stroke-linecap:round;stroke-linejoin:round;stroke-miterlimit:10;stroke-dasharray:none;stroke-opacity:1"
       id="path52" /><path
       d="m 128.41058,214.85043 5.95276,0.85041 -5.95276,0.85037 z"
       style="fill:#000000;fill-opacity:1;fill-rule:nonzero;stroke:none"
       id="path54" /><path
       d="m 118.77277,215.70084 c 0,-0.78278 0.63456,-1.41733 1.41732,-1.41733 m 0,0 c 0.78276,0 1.41733,0.63455 1.41733,1.41733 m 0,0 c 0,0.78274 -0.63457,1.41729 -1.41733,1.41729 m 0,0 c -0.78276,0 -1.41732,-0.63455 -1.41732,-1.41729"
       style="fill:none;stroke:#000000;stroke-width:0.28346;stroke-linecap:round;stroke-linejoin:round;stroke-miterlimit:10;stroke-dasharray:none;stroke-opacity:1"
       id="path56" /><path
       d="m 120.19009,215.70084 v -14.17325 m 0,5.95276 v 0.4252 m 0,-6.37796 v 0 l 0.85041,5.95276 h -1.70079 l 0.85038,-5.95276"
       style="fill:none;stroke:#000000;stroke-width:0.28346;stroke-linecap:round;stroke-linejoin:round;stroke-miterlimit:10;stroke-dasharray:none;stroke-opacity:1"
       id="path58" /><path
       d="m 119.33971,207.48035 0.85038,-5.95276 0.85041,5.95276 z"
       style="fill:#000000;fill-opacity:1;fill-rule:nonzero;stroke:none"
       id="path60" /><g
       id="g62"><g
         id="g64"
         clip-path="url(#clipPath68)"><text
           transform="matrix(1,0,0,-1,192.83919,108.48203)"
           style="font-style:italic;font-variant:normal;font-weight:normal;font-stretch:normal;font-size:11.0078px;font-family:'Palatino Linotype';-inkscape-font-specification:PalatinoLinotype-Italic;writing-mode:lr-tb;fill:#000000;fill-opacity:1;fill-rule:nonzero;stroke:none"
           id="text72"><tspan
             x="0 5.5039201"
             y="0"
             id="tspan70">2M</tspan></text></g></g><g
       id="g74"><g
         id="g76"
         clip-path="url(#clipPath80)"><text
           transform="matrix(1,0,0,-1,162.3841,83.68374)"
           style="font-style:italic;font-variant:normal;font-weight:normal;font-stretch:normal;font-size:11.0078px;font-family:'Palatino Linotype';-inkscape-font-specification:PalatinoLinotype-Italic;writing-mode:lr-tb;fill:#000000;fill-opacity:1;fill-rule:nonzero;stroke:none"
           id="text84"><tspan
             x="0 6.72579 10.391401 13.143361 18.647282"
             y="0"
             id="tspan82">EI = </tspan></text></g></g><g
       id="g86"><g
         id="g88"
         clip-path="url(#clipPath92)"><text
           transform="matrix(1,0,0,-1,184.43755,83.68374)"
           style="font-variant:normal;font-weight:normal;font-stretch:normal;font-size:11.6776px;font-family:'Cambria Math';-inkscape-font-specification:CambriaMath;writing-mode:lr-tb;fill:#000000;fill-opacity:1;fill-rule:nonzero;stroke:none"
           id="text96"><tspan
             x="0 9.9376717"
             y="0"
             id="tspan94">∞ </tspan></text></g></g><g
       id="g98"><g
         id="g100"
         clip-path="url(#clipPath104)"><text
           transform="matrix(1,0,0,-1,281.79971,197.30156)"
           style="font-style:italic;font-variant:normal;font-weight:normal;font-stretch:normal;font-size:11.0078px;font-family:'Palatino Linotype';-inkscape-font-specification:PalatinoLinotype-Italic;writing-mode:lr-tb;fill:#000000;fill-opacity:1;fill-rule:nonzero;stroke:none"
           id="text108"><tspan
             x="0"
             y="0"
             id="tspan106">u</tspan></text></g></g><g
       id="g110"><g
         id="g112"
         clip-path="url(#clipPath116)"><text
           transform="matrix(1,0,0,-1,192.83919,199.19069)"
           style="font-style:italic;font-variant:normal;font-weight:normal;font-stretch:normal;font-size:11.0078px;font-family:'Palatino Linotype';-inkscape-font-specification:PalatinoLinotype-Italic;writing-mode:lr-tb;fill:#000000;fill-opacity:1;fill-rule:nonzero;stroke:none"
           id="text120"><tspan
             x="0"
             y="0"
             id="tspan118">M</tspan></text></g></g><g
       id="g122"><g
         id="g124"
         clip-path="url(#clipPath128)"><text
           transform="matrix(1,0,0,-1,163.25548,46.52333)"
           style="font-style:italic;font-variant:normal;font-weight:normal;font-stretch:normal;font-size:11.0078px;font-family:'Palatino Linotype';-inkscape-font-specification:PalatinoLinotype-Italic;writing-mode:lr-tb;fill:#000000;fill-opacity:1;fill-rule:nonzero;stroke:none"
           id="text132"><tspan
             x="0 5.5039201 8.2558804 14.98167"
             y="0"
             id="tspan130">2 EI</tspan></text></g></g><g
       id="g134"><g
         id="g136"
         clip-path="url(#clipPath140)"><text
           transform="matrix(1,0,0,-1,242.50042,46.52333)"
           style="font-style:italic;font-variant:normal;font-weight:normal;font-stretch:normal;font-size:11.0078px;font-family:'Palatino Linotype';-inkscape-font-specification:PalatinoLinotype-Italic;writing-mode:lr-tb;fill:#000000;fill-opacity:1;fill-rule:nonzero;stroke:none"
           id="text144"><tspan
             x="0 5.5039201 8.2558804 14.98167"
             y="0"
             id="tspan142">2 EI</tspan></text></g></g><g
       id="g146"><g
         id="g148"
         clip-path="url(#clipPath152)"><text
           transform="matrix(1,0,0,-1,163.25548,137.23199)"
           style="font-style:italic;font-variant:normal;font-weight:normal;font-stretch:normal;font-size:11.0078px;font-family:'Palatino Linotype';-inkscape-font-specification:PalatinoLinotype-Italic;writing-mode:lr-tb;fill:#000000;fill-opacity:1;fill-rule:nonzero;stroke:none"
           id="text156"><tspan
             x="0 6.72579"
             y="0"
             id="tspan154">EI</tspan></text></g></g><g
       id="g158"><g
         id="g160"
         clip-path="url(#clipPath164)"><text
           transform="matrix(1,0,0,-1,248.16971,137.23199)"
           style="font-style:italic;font-variant:normal;font-weight:normal;font-stretch:normal;font-size:11.0078px;font-family:'Palatino Linotype';-inkscape-font-specification:PalatinoLinotype-Italic;writing-mode:lr-tb;fill:#000000;fill-opacity:1;fill-rule:nonzero;stroke:none"
           id="text168"><tspan
             x="0 6.72579"
             y="0"
             id="tspan166">EI</tspan></text></g></g><path
       d="m 131.16422,7.0703 -0.42521,2.97638 h 0.85041 l -0.4252,-2.97638 m 0,90.70866 -0.42521,-2.97638 h 0.85041 l -0.4252,2.97638 -0.42521,2.97637 h 0.85041 l -0.4252,-2.97637 m 0,90.70865 -0.42521,-2.97638 h 0.85041 l -0.4252,2.97638"
       style="fill:none;stroke:#000000;stroke-width:0.56693;stroke-linecap:round;stroke-linejoin:round;stroke-miterlimit:10;stroke-dasharray:none;stroke-opacity:1"
       id="path170" /><path
       d="m 131.16422,7.0703 h -2.12598 m 2.12598,0 h 2.12597 m -2.12597,90.70866 h -2.12598 m 2.12598,0 h 2.12597 m -2.12597,0 h -2.12598 m 2.12598,0 h 2.12597 m -2.12597,90.70865 h -2.12598 m 2.12598,0 h 2.12597 M 131.16422,7.0703 h 19.07202 m -19.07202,90.70866 h 19.07202 m -19.07202,90.70865 h 19.07202 M 131.16422,7.0703 v 0 m 0,181.41731 v 0"
       style="fill:none;stroke:#000000;stroke-width:0.28346;stroke-linecap:round;stroke-linejoin:round;stroke-miterlimit:10;stroke-dasharray:none;stroke-opacity:1"
       id="path172" /><g
       id="g174"><g
         id="g176"
         clip-path="url(#clipPath180)"><text
           transform="matrix(0,1,1,0,128.12853,43.60405)"
           style="font-variant:normal;font-weight:normal;font-stretch:normal;font-size:10.0916px;font-family:'Palatino Linotype';-inkscape-font-specification:PalatinoLinotype-Roman;writing-mode:lr-tb;fill:#000000;fill-opacity:1;fill-rule:nonzero;stroke:none"
           id="text184"><tspan
             x="0 5.045805 7.5687075 12.614512"
             y="0"
             id="tspan182">3.20</tspan></text></g></g><g
       id="g186"><g
         id="g188"
         clip-path="url(#clipPath192)"><text
           transform="matrix(0,1,1,0,128.12853,134.31271)"
           style="font-variant:normal;font-weight:normal;font-stretch:normal;font-size:10.0916px;font-family:'Palatino Linotype';-inkscape-font-specification:PalatinoLinotype-Roman;writing-mode:lr-tb;fill:#000000;fill-opacity:1;fill-rule:nonzero;stroke:none"
           id="text196"><tspan
             x="0 5.045805 7.5687075 12.614512"
             y="0"
             id="tspan194">3.20</tspan></text></g></g><path
       d="m 131.16422,7.0703 v 90.70866 90.70865"
       style="fill:none;stroke:#000000;stroke-width:0.28346;stroke-linecap:round;stroke-linejoin:round;stroke-miterlimit:10;stroke-dasharray:none;stroke-opacity:1"
       id="path198" /><g
       id="g200"><g
         id="g202"
         clip-path="url(#clipPath206)"><text
           transform="matrix(1,0,0,-1,117.33182,193.7323)"
           style="font-style:italic;font-variant:normal;font-weight:normal;font-stretch:normal;font-size:11.0078px;font-family:'Palatino Linotype';-inkscape-font-specification:PalatinoLinotype-Italic;writing-mode:lr-tb;fill:#000000;fill-opacity:1;fill-rule:nonzero;stroke:none"
           id="text210"><tspan
             x="0"
             y="0"
             id="tspan208">z</tspan></text></g></g><g
       id="g212"><g
         id="g214"
         clip-path="url(#clipPath218)"><text
           transform="matrix(1,0,0,-1,136.78317,212.98433)"
           style="font-style:italic;font-variant:normal;font-weight:normal;font-stretch:normal;font-size:11.0078px;font-family:'Palatino Linotype';-inkscape-font-specification:PalatinoLinotype-Italic;writing-mode:lr-tb;fill:#000000;fill-opacity:1;fill-rule:nonzero;stroke:none"
           id="text222"><tspan
             x="0"
             y="0"
             id="tspan220">x</tspan></text></g></g><g
       id="g224"><g
         id="g226"
         clip-path="url(#clipPath230)"><text
           transform="matrix(1,0,0,-1,113.95387,218.55909)"
           style="font-style:italic;font-variant:normal;font-weight:normal;font-stretch:normal;font-size:11.0078px;font-family:'Palatino Linotype';-inkscape-font-specification:PalatinoLinotype-Italic;writing-mode:lr-tb;fill:#000000;fill-opacity:1;fill-rule:nonzero;stroke:none"
           id="text234"><tspan
             x="0"
             y="0"
             id="tspan232">y</tspan></text></g></g><g
       id="g236"><g
         id="g238"
         clip-path="url(#clipPath242)"><text
           transform="matrix(1,0,0,-1,131.50582,199.5827)"
           style="font-variant:normal;font-weight:normal;font-stretch:normal;font-size:11.1008px;font-family:'Palatino Linotype';-inkscape-font-specification:PalatinoLinotype-Roman;writing-mode:lr-tb;fill:#000000;fill-opacity:1;fill-rule:nonzero;stroke:none"
           id="text246"><tspan
             x="0 3.6965563 13.498536"
             y="0"
             id="tspan244">[m]</tspan></text></g></g><path
       d="m 155.90552,26.2919 2.97638,0.42519 V 25.8667 l -2.97638,0.4252 m 113.3858,0 -2.97635,0.42519 V 25.8667 l 2.97635,0.4252"
       style="fill:none;stroke:#000000;stroke-width:0.56693;stroke-linecap:round;stroke-linejoin:round;stroke-miterlimit:10;stroke-dasharray:none;stroke-opacity:1"
       id="path248" /><path
       d="m 155.90552,26.2919 v 2.12598 m 0,-2.12598 v -2.12599 m 113.3858,2.12599 v 2.12598 m 0,-2.12598 V 24.16591 M 155.90552,26.2919 V 20.92519 12.73958 M 269.29132,26.2919 V 12.73958 M 155.90552,26.2919 v 0 m 113.3858,0 v 0"
       style="fill:none;stroke:#000000;stroke-width:0.28346;stroke-linecap:round;stroke-linejoin:round;stroke-miterlimit:10;stroke-dasharray:none;stroke-opacity:1"
       id="path250" /><g
       id="g252"><g
         id="g254"
         clip-path="url(#clipPath258)"><text
           transform="matrix(1,0,0,-1,210.4318,29.28703)"
           style="font-style:italic;font-variant:normal;font-weight:normal;font-stretch:normal;font-size:10.0071px;font-family:'Palatino Linotype';-inkscape-font-specification:PalatinoLinotype-Italic;writing-mode:lr-tb;fill:#000000;fill-opacity:1;fill-rule:nonzero;stroke:none"
           id="text262"><tspan
             x="0"
             y="0"
             id="tspan260">b</tspan></text></g></g><path
       d="m 155.90552,26.2919 h 33.04056 80.34524"
       style="fill:none;stroke:#000000;stroke-width:0.28346;stroke-linecap:round;stroke-linejoin:round;stroke-miterlimit:10;stroke-dasharray:none;stroke-opacity:1"
       id="path264" /><path
       d="m 197.07309,87.32153 h 6.26349 v 10.45743 m 0,1.27559 v 0 m 0,-2.55118 v 0 m -1.27561,1.27559 v 0 m 2.55118,0 v 0"
       style="fill:none;stroke:#000000;stroke-width:0.3685;stroke-linecap:round;stroke-linejoin:round;stroke-miterlimit:10;stroke-dasharray:none;stroke-opacity:1"
       id="path266" /><path
       d="m 203.33658,99.05455 c -0.7045,0 -1.27561,-0.57111 -1.27561,-1.27559 m 0,0 c 0,-0.7045 0.57111,-1.2756 1.27561,-1.2756 m 0,0 c 0.70447,0 1.27557,0.5711 1.27557,1.2756 m 0,0 c 0,0.70448 -0.5711,1.27559 -1.27557,1.27559 m 0,0 c 0,0 0,0 0,0"
       style="fill:none;stroke:#000000;stroke-width:0.3685;stroke-linecap:round;stroke-linejoin:round;stroke-miterlimit:10;stroke-dasharray:none;stroke-opacity:1"
       id="path268" /><path
       d="m 203.97437,96.68196 h -1.27561 l 0.63782,-0.17859 z"
       style="fill:#000000;fill-opacity:1;fill-rule:nonzero;stroke:none"
       id="path270" /><path
       d="m 202.69876,96.68196 h 1.27561 l 0.45919,0.45921 z"
       style="fill:#000000;fill-opacity:1;fill-rule:nonzero;stroke:none"
       id="path272" /><path
       d="m 202.69876,96.68196 1.7348,0.45921 h -2.194 z"
       style="fill:#000000;fill-opacity:1;fill-rule:nonzero;stroke:none"
       id="path274" /><path
       d="m 202.23956,97.14117 h 2.194 l 0.17859,0.63779 z"
       style="fill:#000000;fill-opacity:1;fill-rule:nonzero;stroke:none"
       id="path276" /><path
       d="m 202.23956,97.14117 2.37259,0.63779 h -2.55118 z"
       style="fill:#000000;fill-opacity:1;fill-rule:nonzero;stroke:none"
       id="path278" /><path
       d="m 202.06097,97.77896 h 2.55118 l -0.17859,0.63779 z"
       style="fill:#000000;fill-opacity:1;fill-rule:nonzero;stroke:none"
       id="path280" /><path
       d="m 202.06097,97.77896 2.37259,0.63779 h -2.194 z"
       style="fill:#000000;fill-opacity:1;fill-rule:nonzero;stroke:none"
       id="path282" /><path
       d="m 202.23956,98.41675 h 2.194 l -0.45919,0.45921 z"
       style="fill:#000000;fill-opacity:1;fill-rule:nonzero;stroke:none"
       id="path284" /><path
       d="m 202.23956,98.41675 1.73481,0.45921 h -1.27561 z"
       style="fill:#000000;fill-opacity:1;fill-rule:nonzero;stroke:none"
       id="path286" /><path
       d="m 202.69876,98.87596 h 1.27561 l -0.63779,0.17859 z"
       style="fill:#000000;fill-opacity:1;fill-rule:nonzero;stroke:none"
       id="path288" /><path
       d="m 163.25549,50.16112 h -7.34997 m -1.27561,0 v 0 m 2.55118,0 v 0 m -1.27557,-1.27559 v 0 m 0,2.55118 v 0"
       style="fill:none;stroke:#000000;stroke-width:0.3685;stroke-linecap:round;stroke-linejoin:round;stroke-miterlimit:10;stroke-dasharray:none;stroke-opacity:1"
       id="path290" /><path
       d="m 154.62991,50.16112 c 0,-0.70449 0.57111,-1.27559 1.27561,-1.27559 m 0,0 c 0.7045,0 1.2756,0.5711 1.2756,1.27559 m 0,0 c 0,0.7045 -0.5711,1.27559 -1.2756,1.27559 m 0,0 c -0.7045,0 -1.27561,-0.57109 -1.27561,-1.27559 m 0,0 c 0,0 0,0 0,0"
       style="fill:none;stroke:#000000;stroke-width:0.3685;stroke-linecap:round;stroke-linejoin:round;stroke-miterlimit:10;stroke-dasharray:none;stroke-opacity:1"
       id="path292" /><path
       d="m 157.00253,50.7989 v -1.27557 l 0.17856,0.63779 z"
       style="fill:#000000;fill-opacity:1;fill-rule:nonzero;stroke:none"
       id="path294" /><path
       d="m 157.00253,49.52333 v 1.27557 l -0.45923,0.45922 z"
       style="fill:#000000;fill-opacity:1;fill-rule:nonzero;stroke:none"
       id="path296" /><path
       d="m 157.00253,49.52333 -0.45923,1.73479 v -2.194 z"
       style="fill:#000000;fill-opacity:1;fill-rule:nonzero;stroke:none"
       id="path298" /><path
       d="m 156.5433,49.06412 v 2.194 l -0.63778,0.17859 z"
       style="fill:#000000;fill-opacity:1;fill-rule:nonzero;stroke:none"
       id="path300" /><path
       d="m 156.5433,49.06412 -0.63778,2.37259 v -2.55118 z"
       style="fill:#000000;fill-opacity:1;fill-rule:nonzero;stroke:none"
       id="path302" /><path
       d="m 155.90552,48.88553 v 2.55118 l -0.63779,-0.17859 z"
       style="fill:#000000;fill-opacity:1;fill-rule:nonzero;stroke:none"
       id="path304" /><path
       d="m 155.90552,48.88553 -0.63779,2.37259 v -2.194 z"
       style="fill:#000000;fill-opacity:1;fill-rule:nonzero;stroke:none"
       id="path306" /><path
       d="m 155.26773,49.06412 v 2.194 L 154.8085,50.7989 Z"
       style="fill:#000000;fill-opacity:1;fill-rule:nonzero;stroke:none"
       id="path308" /><path
       d="M 155.26773,49.06412 154.8085,50.7989 V 49.52333 Z"
       style="fill:#000000;fill-opacity:1;fill-rule:nonzero;stroke:none"
       id="path310" /><path
       d="m 154.8085,49.52333 v 1.27557 l -0.17859,-0.63778 z"
       style="fill:#000000;fill-opacity:1;fill-rule:nonzero;stroke:none"
       id="path312" /><path
       d="m 261.72876,50.16112 h 7.56256 m 1.27561,0 v 0 m -2.55118,0 v 0 m 1.27557,1.27559 v 0 m 0,-2.55117 v 0"
       style="fill:none;stroke:#000000;stroke-width:0.3685;stroke-linecap:round;stroke-linejoin:round;stroke-miterlimit:10;stroke-dasharray:none;stroke-opacity:1"
       id="path314" /><path
       d="m 270.56693,50.16112 c 0,0.7045 -0.57111,1.27559 -1.27561,1.27559 m 0,0 c -0.70447,0 -1.27557,-0.57109 -1.27557,-1.27559 m 0,0 c 0,-0.70449 0.5711,-1.27559 1.27557,-1.27559 m 0,0 c 0.7045,0 1.27561,0.5711 1.27561,1.27559 m 0,0 c 0,0 0,0 0,0"
       style="fill:none;stroke:#000000;stroke-width:0.3685;stroke-linecap:round;stroke-linejoin:round;stroke-miterlimit:10;stroke-dasharray:none;stroke-opacity:1"
       id="path316" /><path
       d="m 268.19434,49.52333 v 1.27559 l -0.17859,-0.6378 z"
       style="fill:#000000;fill-opacity:1;fill-rule:nonzero;stroke:none"
       id="path318" /><path
       d="m 268.19434,50.79892 v -1.27559 l 0.45919,-0.45921 z"
       style="fill:#000000;fill-opacity:1;fill-rule:nonzero;stroke:none"
       id="path320" /><path
       d="m 268.19434,50.79892 0.45919,-1.7348 v 2.19401 z"
       style="fill:#000000;fill-opacity:1;fill-rule:nonzero;stroke:none"
       id="path322" /><path
       d="m 268.65353,51.25813 v -2.19401 l 0.63779,-0.17858 z"
       style="fill:#000000;fill-opacity:1;fill-rule:nonzero;stroke:none"
       id="path324" /><path
       d="m 268.65353,51.25813 0.63779,-2.37259 v 2.55117 z"
       style="fill:#000000;fill-opacity:1;fill-rule:nonzero;stroke:none"
       id="path326" /><path
       d="m 269.29132,51.43671 v -2.55117 l 0.63782,0.17858 z"
       style="fill:#000000;fill-opacity:1;fill-rule:nonzero;stroke:none"
       id="path328" /><path
       d="m 269.29132,51.43671 0.63782,-2.37259 v 2.19401 z"
       style="fill:#000000;fill-opacity:1;fill-rule:nonzero;stroke:none"
       id="path330" /><path
       d="m 269.92914,51.25813 v -2.19401 l 0.4592,0.45921 z"
       style="fill:#000000;fill-opacity:1;fill-rule:nonzero;stroke:none"
       id="path332" /><path
       d="m 269.92914,51.25813 0.4592,-1.7348 v 1.27559 z"
       style="fill:#000000;fill-opacity:1;fill-rule:nonzero;stroke:none"
       id="path334" /><path
       d="m 270.38834,50.79892 v -1.27559 l 0.17859,0.63779 z"
       style="fill:#000000;fill-opacity:1;fill-rule:nonzero;stroke:none"
       id="path336" /><path
       d="m 163.25549,140.86978 h -7.34997 m -1.27561,0 v 0 m 2.55118,0 v 0 m -1.27557,-1.27557 v 0 m 0,2.55115 v 0"
       style="fill:none;stroke:#000000;stroke-width:0.3685;stroke-linecap:round;stroke-linejoin:round;stroke-miterlimit:10;stroke-dasharray:none;stroke-opacity:1"
       id="path338" /><path
       d="m 154.62991,140.86978 c 0,-0.70447 0.57111,-1.27557 1.27561,-1.27557 m 0,0 c 0.7045,0 1.2756,0.5711 1.2756,1.27557 m 0,0 c 0,0.7045 -0.5711,1.27561 -1.2756,1.27561 m 0,0 c -0.7045,0 -1.27561,-0.57111 -1.27561,-1.27561 m 0,0 c 0,0 0,0 0,0"
       style="fill:none;stroke:#000000;stroke-width:0.3685;stroke-linecap:round;stroke-linejoin:round;stroke-miterlimit:10;stroke-dasharray:none;stroke-opacity:1"
       id="path340" /><path
       d="m 157.00253,141.50757 v -1.27558 l 0.17856,0.63779 z"
       style="fill:#000000;fill-opacity:1;fill-rule:nonzero;stroke:none"
       id="path342" /><path
       d="m 157.00253,140.23199 v 1.27558 l -0.45923,0.45923 z"
       style="fill:#000000;fill-opacity:1;fill-rule:nonzero;stroke:none"
       id="path344" /><path
       d="m 157.00253,140.23199 -0.45923,1.73481 v -2.19403 z"
       style="fill:#000000;fill-opacity:1;fill-rule:nonzero;stroke:none"
       id="path346" /><path
       d="m 156.5433,139.77277 v 2.19403 l -0.63778,0.17856 z"
       style="fill:#000000;fill-opacity:1;fill-rule:nonzero;stroke:none"
       id="path348" /><path
       d="m 156.5433,139.77277 -0.63778,2.37259 v -2.55115 z"
       style="fill:#000000;fill-opacity:1;fill-rule:nonzero;stroke:none"
       id="path350" /><path
       d="m 155.90552,139.59421 v 2.55115 l -0.63779,-0.17856 z"
       style="fill:#000000;fill-opacity:1;fill-rule:nonzero;stroke:none"
       id="path352" /><path
       d="m 155.90552,139.59421 -0.63779,2.37259 v -2.19403 z"
       style="fill:#000000;fill-opacity:1;fill-rule:nonzero;stroke:none"
       id="path354" /><path
       d="m 155.26773,139.77277 v 2.19403 l -0.45923,-0.45923 z"
       style="fill:#000000;fill-opacity:1;fill-rule:nonzero;stroke:none"
       id="path356" /><path
       d="m 155.26773,139.77277 -0.45923,1.7348 v -1.27558 z"
       style="fill:#000000;fill-opacity:1;fill-rule:nonzero;stroke:none"
       id="path358" /><path
       d="m 154.8085,140.23199 v 1.27558 l -0.17859,-0.63779 z"
       style="fill:#000000;fill-opacity:1;fill-rule:nonzero;stroke:none"
       id="path360" /><path
       d="m 258.82324,140.86978 h 10.46808 m 1.27561,0 v 0 m -2.55118,0 v 0 m 1.27557,1.27561 v 0 m 0,-2.55118 v 0"
       style="fill:none;stroke:#000000;stroke-width:0.3685;stroke-linecap:round;stroke-linejoin:round;stroke-miterlimit:10;stroke-dasharray:none;stroke-opacity:1"
       id="path362" /><path
       d="m 270.56693,140.86978 c 0,0.7045 -0.57111,1.27561 -1.27561,1.27561 m 0,0 c -0.70447,0 -1.27557,-0.57111 -1.27557,-1.27561 m 0,0 c 0,-0.70447 0.5711,-1.27557 1.27557,-1.27557 m 0,0 c 0.7045,0 1.27561,0.5711 1.27561,1.27557 m 0,0 c 0,0 0,0 0,0"
       style="fill:none;stroke:#000000;stroke-width:0.3685;stroke-linecap:round;stroke-linejoin:round;stroke-miterlimit:10;stroke-dasharray:none;stroke-opacity:1"
       id="path364" /><path
       d="m 268.19434,140.23199 v 1.27558 l -0.17859,-0.63779 z"
       style="fill:#000000;fill-opacity:1;fill-rule:nonzero;stroke:none"
       id="path366" /><path
       d="m 268.19434,141.50757 v -1.27558 l 0.45919,-0.45919 z"
       style="fill:#000000;fill-opacity:1;fill-rule:nonzero;stroke:none"
       id="path368" /><path
       d="m 268.19434,141.50757 0.45919,-1.73477 v 2.194 z"
       style="fill:#000000;fill-opacity:1;fill-rule:nonzero;stroke:none"
       id="path370" /><path
       d="m 268.65353,141.9668 v -2.194 l 0.63779,-0.17859 z"
       style="fill:#000000;fill-opacity:1;fill-rule:nonzero;stroke:none"
       id="path372" /><path
       d="m 268.65353,141.9668 0.63779,-2.37259 v 2.55118 z"
       style="fill:#000000;fill-opacity:1;fill-rule:nonzero;stroke:none"
       id="path374" /><path
       d="m 269.29132,142.14539 v -2.55118 l 0.63782,0.17859 z"
       style="fill:#000000;fill-opacity:1;fill-rule:nonzero;stroke:none"
       id="path376" /><path
       d="m 269.29132,142.14539 0.63782,-2.37259 v 2.194 z"
       style="fill:#000000;fill-opacity:1;fill-rule:nonzero;stroke:none"
       id="path378" /><path
       d="m 269.92914,141.9668 v -2.194 l 0.4592,0.45919 z"
       style="fill:#000000;fill-opacity:1;fill-rule:nonzero;stroke:none"
       id="path380" /><path
       d="m 269.92914,141.9668 0.4592,-1.73481 v 1.27558 z"
       style="fill:#000000;fill-opacity:1;fill-rule:nonzero;stroke:none"
       id="path382" /><path
       d="m 270.38834,141.50757 v -1.27558 l 0.17859,0.63779 z"
       style="fill:#000000;fill-opacity:1;fill-rule:nonzero;stroke:none"
       id="path384" /></g></svg>
