<?xml version="1.0" encoding="UTF-8" standalone="no"?>
<svg
   xmlns:dc="http://purl.org/dc/elements/1.1/"
   xmlns:cc="http://creativecommons.org/ns#"
   xmlns:rdf="http://www.w3.org/1999/02/22-rdf-syntax-ns#"
   xmlns:svg="http://www.w3.org/2000/svg"
   xmlns="http://www.w3.org/2000/svg"
   version="1.1"
   id="svg2"
   xml:space="preserve"
   width="566.92932"
   height="151.18134"
   viewBox="0 0 566.92932 151.18134"><metadata
     id="metadata8"><rdf:RDF><cc:Work
         rdf:about=""><dc:format>image/svg+xml</dc:format><dc:type
           rdf:resource="http://purl.org/dc/dcmitype/StillImage" /></cc:Work></rdf:RDF></metadata><defs
     id="defs6"><clipPath
       clipPathUnits="userSpaceOnUse"
       id="clipPath44"><path
         d="M -0.00426,-0.00113 V 113.38696 H 425.20111 V -0.00113 H -0.00426"
         clip-rule="evenodd"
         id="path42" /></clipPath><clipPath
       clipPathUnits="userSpaceOnUse"
       id="clipPath56"><path
         d="M -0.00426,-0.00113 V 113.38696 H 425.20111 V -0.00113 H -0.00426"
         clip-rule="evenodd"
         id="path54" /></clipPath><clipPath
       clipPathUnits="userSpaceOnUse"
       id="clipPath72"><path
         d="M -0.00426,-0.00113 V 113.38696 H 425.20111 V -0.00113 H -0.00426"
         clip-rule="evenodd"
         id="path70" /></clipPath><clipPath
       clipPathUnits="userSpaceOnUse"
       id="clipPath84"><path
         d="M -0.00426,-0.00113 V 113.38696 H 425.20111 V -0.00113 H -0.00426"
         clip-rule="evenodd"
         id="path82" /></clipPath><clipPath
       clipPathUnits="userSpaceOnUse"
       id="clipPath98"><path
         d="M -0.00426,-0.00113 V 113.38696 H 425.20111 V -0.00113 H -0.00426"
         clip-rule="evenodd"
         id="path96" /></clipPath><clipPath
       clipPathUnits="userSpaceOnUse"
       id="clipPath110"><path
         d="M -0.00426,-0.00113 V 113.38696 H 425.20111 V -0.00113 H -0.00426"
         clip-rule="evenodd"
         id="path108" /></clipPath><clipPath
       clipPathUnits="userSpaceOnUse"
       id="clipPath122"><path
         d="M -0.00426,-0.00113 V 113.38696 H 425.20111 V -0.00113 H -0.00426"
         clip-rule="evenodd"
         id="path120" /></clipPath><clipPath
       clipPathUnits="userSpaceOnUse"
       id="clipPath134"><path
         d="M -0.00426,-0.00113 V 113.38696 H 425.20111 V -0.00113 H -0.00426"
         clip-rule="evenodd"
         id="path132" /></clipPath><clipPath
       clipPathUnits="userSpaceOnUse"
       id="clipPath146"><path
         d="M -0.00426,-0.00113 V 113.38696 H 425.20111 V -0.00113 H -0.00426"
         clip-rule="evenodd"
         id="path144" /></clipPath><clipPath
       clipPathUnits="userSpaceOnUse"
       id="clipPath158"><path
         d="M -0.00426,-0.00113 V 113.38696 H 425.20111 V -0.00113 H -0.00426"
         clip-rule="evenodd"
         id="path156" /></clipPath><clipPath
       clipPathUnits="userSpaceOnUse"
       id="clipPath170"><path
         d="M -0.00426,-0.00113 V 113.38696 H 425.20111 V -0.00113 H -0.00426"
         clip-rule="evenodd"
         id="path168" /></clipPath><clipPath
       clipPathUnits="userSpaceOnUse"
       id="clipPath182"><path
         d="M -0.00426,-0.00113 V 113.38696 H 425.20111 V -0.00113 H -0.00426"
         clip-rule="evenodd"
         id="path180" /></clipPath></defs><g
     id="g10"
     transform="matrix(1.3333333,0,0,-1.3333333,0,151.18133)"><path
       d="m 349.33359,49.41864 -1.13364,1.61902 -1.39758,1.39755 -1.61899,1.13364 -1.79126,0.83529 -1.90912,0.51154 -1.96893,0.17226 -1.9689,-0.17226 -1.90912,-0.51154 -1.79126,-0.83529 -1.61902,-1.13364 -1.39755,-1.39755 -1.13364,-1.61902 -0.83527,-1.79126 -0.51156,-1.9091 -0.17224,-1.96892 0.17224,-1.96893 0.51156,-1.90909 0.83527,-1.79128 1.13364,-1.619 1.39755,-1.39757 1.61902,-1.13363 1.79126,-0.83529 1.90912,-0.51153 1.9689,-0.17227 1.96893,0.17227 1.90912,0.51153 1.79126,0.83529 1.61899,1.13363 1.39758,1.39757 1.13364,1.619 0.83526,1.79128 0.51157,1.90909 0.17224,1.96893 -0.17224,1.96892 -0.51157,1.9091 z"
       style="fill:#dedede;fill-opacity:1;fill-rule:nonzero;stroke:none"
       id="path12" /><path
       d="m 56.04953,43.74936 -6.0132,-6.0132 m 6.0132,6.0132 6.01318,-6.0132 m -12.02638,0 h 12.02638 m 305.2309,6.0132 V 22.20605 m 0,5.95275 v 0.4252 m 0,-6.37795 v 0 l 0.8504,5.95275 h -1.70077 l 0.85037,-5.95275"
       style="fill:none;stroke:#000000;stroke-width:0.28346;stroke-linecap:round;stroke-linejoin:round;stroke-miterlimit:10;stroke-dasharray:none;stroke-opacity:1"
       id="path14" /><path
       d="m 366.44324,28.1588 0.85037,-5.95275 0.8504,5.95275 z"
       style="fill:#000000;fill-opacity:1;fill-rule:nonzero;stroke:none"
       id="path16" /><path
       d="m 361.62433,43.74936 h 14.17322 m -149.66928,0 -6.01319,-6.0132 m 6.01319,6.0132 6.01318,-6.0132 m -12.02637,0 h 12.02637 M 218.0679,35.50488 h 15.87403 M 56.04953,96.04726 v 0 h 28.34645 m -5.95276,0 h -0.42518 m 6.37794,0 v 0 l -5.95276,0.85038 v -1.70077 l 5.95276,0.85039"
       style="fill:none;stroke:#000000;stroke-width:0.28346;stroke-linecap:round;stroke-linejoin:round;stroke-miterlimit:10;stroke-dasharray:none;stroke-opacity:1"
       id="path18" /><path
       d="m 78.44322,95.19687 5.95276,0.85039 -5.95276,0.85038 z"
       style="fill:#000000;fill-opacity:1;fill-rule:nonzero;stroke:none"
       id="path20" /><path
       d="m 53.21487,96.04726 c 0,-1.56554 1.26912,-2.83464 2.83466,-2.83464 m 0,0 c 1.56552,0 2.83464,1.2691 2.83464,2.83464 m 0,0 c 0,1.56553 -1.26912,2.83464 -2.83464,2.83464 m 0,0 c -1.56554,0 -2.83466,-1.26911 -2.83466,-2.83464"
       style="fill:none;stroke:#000000;stroke-width:0.28346;stroke-linecap:round;stroke-linejoin:round;stroke-miterlimit:10;stroke-dasharray:none;stroke-opacity:1"
       id="path22" /><path
       d="M 56.04953,96.04726 V 67.70081 m 0,5.95274 v 0.4252 m 0,-6.37794 v 0 l 0.85039,5.95274 h -1.70078 l 0.85039,-5.95274"
       style="fill:none;stroke:#000000;stroke-width:0.28346;stroke-linecap:round;stroke-linejoin:round;stroke-miterlimit:10;stroke-dasharray:none;stroke-opacity:1"
       id="path24" /><path
       d="m 55.19914,73.65355 0.85039,-5.95274 0.85039,5.95274 z"
       style="fill:#000000;fill-opacity:1;fill-rule:nonzero;stroke:none"
       id="path26" /><path
       d="M 56.04953,43.74936 H 328.17551"
       style="fill:none;stroke:#000000;stroke-width:0.85039;stroke-linecap:round;stroke-linejoin:round;stroke-miterlimit:10;stroke-dasharray:none;stroke-opacity:1"
       id="path28" /><path
       d="m 350.85266,43.74936 c 0,6.26211 -5.07645,11.33858 -11.33859,11.33858 m 0,0 c -6.26212,0 -11.33856,-5.07647 -11.33856,-11.33858 m 0,0 c 0,-6.26213 5.07644,-11.33859 11.33856,-11.33859 m 0,0 c 6.26214,0 11.33859,5.07646 11.33859,11.33859"
       style="fill:none;stroke:#000000;stroke-width:0.99213;stroke-linecap:round;stroke-linejoin:round;stroke-miterlimit:10;stroke-dasharray:none;stroke-opacity:1"
       id="path30" /><path
       d="m 56.69292,42.04857 h 4.25197 m 2.83464,0 h 4.25196 m 2.83466,0 h 4.25197 m 2.83464,0 h 4.25197 m 2.83464,0 h 4.25197 m 2.83465,0 h 4.25197 m 2.83464,0 h 4.25197 m 2.83464,0 h 4.25197 m 2.83465,0 h 4.25197 m 2.83464,0 h 4.25197 m 2.83464,0 h 4.25199 m 2.83465,0 h 4.25195 m 2.83466,0 h 4.25195 m 2.83466,0 h 4.25195 m 2.83466,0 h 4.25198 m 2.83463,0 h 4.25198 m 2.83463,0 h 4.25198 m 2.83465,0 h 4.25196 m 2.83465,0 h 4.25196 m 2.83465,0 h 4.25196 m 2.83465,0 h 4.25199 m 2.83462,0 h 4.25198 m 2.83463,0 h 4.25198 m 2.83466,0 h 4.25195 m 2.83466,0 h 4.25195 m 2.83466,0 h 4.25195 m 2.83466,0 h 4.25198 m 2.83462,0 h 4.25199 m 2.83462,0 h 4.25199 m 2.83462,0 h 4.25199 m 2.83465,0 h 4.25195 m 2.83466,0 h 4.25195 m 2.83466,0 h 4.25195 m 2.83466,0 h 4.25198 m 2.83463,0 h 4.25198 m 2.83463,0 h 4.25198 m 2.83466,0 h 4.25195 m 2.83465,0 h 4.25196 m 2.83465,0 h 2.31955 m -272.25427,0 v 0 m 272.25424,0 v 0"
       style="fill:none;stroke:#000000;stroke-width:0.3685;stroke-linecap:round;stroke-linejoin:round;stroke-miterlimit:10;stroke-dasharray:none;stroke-opacity:1"
       id="path32" /><path
       d="M 339.51407,82.86746 V 60.19029 m 0,5.4567 v 0.38977 m 0,-5.84647 v 0 l 0.77954,5.4567 h -1.55905 l 0.77951,-5.4567"
       style="fill:none;stroke:#ff0000;stroke-width:0.28346;stroke-linecap:round;stroke-linejoin:round;stroke-miterlimit:10;stroke-dasharray:none;stroke-opacity:1"
       id="path34" /><path
       d="m 338.73456,65.64699 0.77951,-5.4567 0.77954,5.4567 z"
       style="fill:#ff0000;fill-opacity:1;fill-rule:nonzero;stroke:none"
       id="path36" /><g
       id="g38"><g
         id="g40"
         clip-path="url(#clipPath44)"><text
           transform="matrix(1,0,0,-1,63.85339,26.21798)"
           style="font-style:italic;font-variant:normal;font-weight:normal;font-stretch:normal;font-size:11.0078px;font-family:'Palatino Linotype';-inkscape-font-specification:PalatinoLinotype-Italic;writing-mode:lr-tb;fill:#000000;fill-opacity:1;fill-rule:nonzero;stroke:none"
           id="text48"><tspan
             x="0"
             y="0"
             id="tspan46">A</tspan></text></g></g><g
       id="g50"><g
         id="g52"
         clip-path="url(#clipPath56)"><text
           transform="matrix(1,0,0,-1,124.84552,26.21798)"
           style="font-style:italic;font-variant:normal;font-weight:normal;font-stretch:normal;font-size:11.0078px;font-family:'Palatino Linotype';-inkscape-font-specification:PalatinoLinotype-Italic;writing-mode:lr-tb;fill:#000000;fill-opacity:1;fill-rule:nonzero;stroke:none"
           id="text60"><tspan
             x="0 6.72579"
             y="0"
             id="tspan58">EI</tspan></text></g></g><path
       d="m 56.04953,6.91541 2.97638,0.4252 V 6.4902 l -2.97638,0.42521 m 170.07874,0 -2.97638,0.4252 V 6.4902 l 2.97638,0.42521 2.97637,0.4252 V 6.4902 l -2.97637,0.42521 m 113.3858,0 -2.97635,0.4252 V 6.4902 l 2.97635,0.42521"
       style="fill:none;stroke:#000000;stroke-width:0.56693;stroke-linecap:round;stroke-linejoin:round;stroke-miterlimit:10;stroke-dasharray:none;stroke-opacity:1"
       id="path62" /><path
       d="m 56.04953,6.91541 v 2.12597 m 0,-2.12597 V 4.78943 m 170.07874,2.12598 v 2.12597 m 0,-2.12597 V 4.78943 m 0,2.12598 v 2.12597 m 0,-2.12597 V 4.78943 m 113.3858,2.12598 v 2.12597 m 0,-2.12597 V 4.78943 M 56.04953,6.91541 V 32.41077 M 226.12827,6.91541 V 8.68706 32.41077 M 339.51407,6.91541 V 32.41077 M 56.04953,6.91541 v 0 m 283.46454,0 v 0"
       style="fill:none;stroke:#000000;stroke-width:0.28346;stroke-linecap:round;stroke-linejoin:round;stroke-miterlimit:10;stroke-dasharray:none;stroke-opacity:1"
       id="path64" /><g
       id="g66"><g
         id="g68"
         clip-path="url(#clipPath72)"><text
           transform="matrix(1,0,0,-1,132.26832,9.95109)"
           style="font-variant:normal;font-weight:normal;font-stretch:normal;font-size:10.0916px;font-family:'Palatino Linotype';-inkscape-font-specification:PalatinoLinotype-Roman;writing-mode:lr-tb;fill:#000000;fill-opacity:1;fill-rule:nonzero;stroke:none"
           id="text76"><tspan
             x="0 5.045805 7.5687075 12.614512"
             y="0"
             id="tspan74">3.00</tspan></text></g></g><g
       id="g78"><g
         id="g80"
         clip-path="url(#clipPath84)"><text
           transform="matrix(1,0,0,-1,274.0006,9.95109)"
           style="font-variant:normal;font-weight:normal;font-stretch:normal;font-size:10.0916px;font-family:'Palatino Linotype';-inkscape-font-specification:PalatinoLinotype-Roman;writing-mode:lr-tb;fill:#000000;fill-opacity:1;fill-rule:nonzero;stroke:none"
           id="text88"><tspan
             x="0 5.045805 7.5687075 12.614512"
             y="0"
             id="tspan86">2.00</tspan></text></g></g><path
       d="M 56.04953,6.91541 H 94.7467 226.12827 339.51407"
       style="fill:none;stroke:#000000;stroke-width:0.28346;stroke-linecap:round;stroke-linejoin:round;stroke-miterlimit:10;stroke-dasharray:none;stroke-opacity:1"
       id="path90" /><g
       id="g92"><g
         id="g94"
         clip-path="url(#clipPath98)"><text
           transform="matrix(1,0,0,-1,46.86639,98.46253)"
           style="font-style:italic;font-variant:normal;font-weight:normal;font-stretch:normal;font-size:11.0078px;font-family:'Palatino Linotype';-inkscape-font-specification:PalatinoLinotype-Italic;writing-mode:lr-tb;fill:#000000;fill-opacity:1;fill-rule:nonzero;stroke:none"
           id="text102"><tspan
             x="0"
             y="0"
             id="tspan100">y</tspan></text></g></g><g
       id="g104"><g
         id="g106"
         clip-path="url(#clipPath110)"><text
           transform="matrix(1,0,0,-1,87.32313,93.8163)"
           style="font-style:italic;font-variant:normal;font-weight:normal;font-stretch:normal;font-size:11.0078px;font-family:'Palatino Linotype';-inkscape-font-specification:PalatinoLinotype-Italic;writing-mode:lr-tb;fill:#000000;fill-opacity:1;fill-rule:nonzero;stroke:none"
           id="text114"><tspan
             x="0"
             y="0"
             id="tspan112">x</tspan></text></g></g><g
       id="g116"><g
         id="g118"
         clip-path="url(#clipPath122)"><text
           transform="matrix(1,0,0,-1,53.43699,59.5808)"
           style="font-style:italic;font-variant:normal;font-weight:normal;font-stretch:normal;font-size:11.0078px;font-family:'Palatino Linotype';-inkscape-font-specification:PalatinoLinotype-Italic;writing-mode:lr-tb;fill:#000000;fill-opacity:1;fill-rule:nonzero;stroke:none"
           id="text126"><tspan
             x="0"
             y="0"
             id="tspan124">z</tspan></text></g></g><g
       id="g128"><g
         id="g130"
         clip-path="url(#clipPath134)"><text
           transform="matrix(1,0,0,-1,360.27139,9.67638)"
           style="font-style:italic;font-variant:normal;font-weight:normal;font-stretch:normal;font-size:11.0078px;font-family:'Palatino Linotype';-inkscape-font-specification:PalatinoLinotype-Italic;writing-mode:lr-tb;fill:#000000;fill-opacity:1;fill-rule:nonzero;stroke:none"
           id="text138"><tspan
             x="0 6.1203589 9.7859697 13.45158"
             y="0"
             id="tspan136">u(t)</tspan></text></g></g><g
       id="g140"><g
         id="g142"
         clip-path="url(#clipPath146)"><text
           transform="matrix(1,0,0,-1,233.93212,26.21798)"
           style="font-style:italic;font-variant:normal;font-weight:normal;font-stretch:normal;font-size:11.0078px;font-family:'Palatino Linotype';-inkscape-font-specification:PalatinoLinotype-Italic;writing-mode:lr-tb;fill:#000000;fill-opacity:1;fill-rule:nonzero;stroke:none"
           id="text150"><tspan
             x="0"
             y="0"
             id="tspan148">B</tspan></text></g></g><g
       id="g152"><g
         id="g154"
         clip-path="url(#clipPath158)"><text
           transform="matrix(1,0,0,-1,318.61997,75.11106)"
           style="font-style:italic;font-variant:normal;font-weight:normal;font-stretch:normal;font-size:11.0078px;font-family:'Palatino Linotype';-inkscape-font-specification:PalatinoLinotype-Italic;writing-mode:lr-tb;fill:#ff0000;fill-opacity:1;fill-rule:nonzero;stroke:none"
           id="text162"><tspan
             x="0 6.1203589 9.7859697 13.45158"
             y="0"
             id="tspan160">F(t)</tspan></text></g></g><g
       id="g164"><g
         id="g166"
         clip-path="url(#clipPath170)"><text
           transform="matrix(1,0,0,-1,318.90082,56.51798)"
           style="font-style:italic;font-variant:normal;font-weight:normal;font-stretch:normal;font-size:11.0078px;font-family:'Palatino Linotype';-inkscape-font-specification:PalatinoLinotype-Italic;writing-mode:lr-tb;fill:#000000;fill-opacity:1;fill-rule:nonzero;stroke:none"
           id="text174"><tspan
             x="0"
             y="0"
             id="tspan172">M</tspan></text></g></g><g
       id="g176"><g
         id="g178"
         clip-path="url(#clipPath182)"><text
           transform="matrix(1,0,0,-1,64.44446,78.72251)"
           style="font-variant:normal;font-weight:normal;font-stretch:normal;font-size:11.1008px;font-family:'Palatino Linotype';-inkscape-font-specification:PalatinoLinotype-Roman;writing-mode:lr-tb;fill:#000000;fill-opacity:1;fill-rule:nonzero;stroke:none"
           id="text186"><tspan
             x="0 3.6965563 13.498536"
             y="0"
             id="tspan184">[m]</tspan></text></g></g><path
       d="m 135.49908,29.85577 h 22.67716 v 13.89359 m 0,1.27559 v 0 m 0,-2.55118 v 0 m -1.27561,1.27559 v 0 m 2.55118,0 v 0"
       style="fill:none;stroke:#000000;stroke-width:0.28346;stroke-linecap:round;stroke-linejoin:round;stroke-miterlimit:10;stroke-dasharray:none;stroke-opacity:1"
       id="path188" /><path
       d="m 158.17624,45.02495 c -0.7045,0 -1.27561,-0.57111 -1.27561,-1.27559 m 0,0 c 0,-0.7045 0.57111,-1.27559 1.27561,-1.27559 m 0,0 c 0.7045,0 1.27557,0.57109 1.27557,1.27559 m 0,0 c 0,0.70448 -0.57107,1.27559 -1.27557,1.27559 m 0,0 c 0,0 0,0 0,0"
       style="fill:none;stroke:#000000;stroke-width:0.28346;stroke-linecap:round;stroke-linejoin:round;stroke-miterlimit:10;stroke-dasharray:none;stroke-opacity:1"
       id="path190" /><path
       d="m 158.81403,42.65236 h -1.27558 l 0.63779,-0.17859 z"
       style="fill:#000000;fill-opacity:1;fill-rule:nonzero;stroke:none"
       id="path192" /><path
       d="m 157.53845,42.65236 h 1.27558 l 0.45919,0.45921 z"
       style="fill:#000000;fill-opacity:1;fill-rule:nonzero;stroke:none"
       id="path194" /><path
       d="m 157.53845,42.65236 1.73477,0.45921 h -2.194 z"
       style="fill:#000000;fill-opacity:1;fill-rule:nonzero;stroke:none"
       id="path196" /><path
       d="m 157.07922,43.11157 h 2.194 l 0.17859,0.63779 z"
       style="fill:#000000;fill-opacity:1;fill-rule:nonzero;stroke:none"
       id="path198" /><path
       d="m 157.07922,43.11157 2.37259,0.63779 h -2.55118 z"
       style="fill:#000000;fill-opacity:1;fill-rule:nonzero;stroke:none"
       id="path200" /><path
       d="m 156.90063,43.74936 h 2.55118 l -0.17859,0.63779 z"
       style="fill:#000000;fill-opacity:1;fill-rule:nonzero;stroke:none"
       id="path202" /><path
       d="m 156.90063,43.74936 2.37259,0.63779 h -2.194 z"
       style="fill:#000000;fill-opacity:1;fill-rule:nonzero;stroke:none"
       id="path204" /><path
       d="m 157.07922,44.38715 h 2.194 l -0.45919,0.45921 z"
       style="fill:#000000;fill-opacity:1;fill-rule:nonzero;stroke:none"
       id="path206" /><path
       d="m 157.07922,44.38715 1.73481,0.45921 h -1.27558 z"
       style="fill:#000000;fill-opacity:1;fill-rule:nonzero;stroke:none"
       id="path208" /><path
       d="m 157.53845,44.84636 h 1.27558 l -0.63779,0.17859 z"
       style="fill:#000000;fill-opacity:1;fill-rule:nonzero;stroke:none"
       id="path210" /></g></svg>
