<?xml version="1.0" encoding="UTF-8" standalone="no"?>
<svg
   xmlns:dc="http://purl.org/dc/elements/1.1/"
   xmlns:cc="http://creativecommons.org/ns#"
   xmlns:rdf="http://www.w3.org/1999/02/22-rdf-syntax-ns#"
   xmlns:svg="http://www.w3.org/2000/svg"
   xmlns="http://www.w3.org/2000/svg"
   version="1.1"
   id="svg2"
   xml:space="preserve"
   width="566.92932"
   height="234.33067"
   viewBox="0 0 566.92932 234.33067"><metadata
     id="metadata8"><rdf:RDF><cc:Work
         rdf:about=""><dc:format>image/svg+xml</dc:format><dc:type
           rdf:resource="http://purl.org/dc/dcmitype/StillImage" /></cc:Work></rdf:RDF></metadata><defs
     id="defs6"><clipPath
       clipPathUnits="userSpaceOnUse"
       id="clipPath50"><path
         d="M 88.11188,175.74979 V -0.00175 H 304.65353 V 175.74979 H 88.11188"
         clip-rule="evenodd"
         id="path48" /></clipPath><clipPath
       clipPathUnits="userSpaceOnUse"
       id="clipPath62"><path
         d="M 88.11188,175.74979 V -0.00175 H 304.65353 V 175.74979 H 88.11188"
         clip-rule="evenodd"
         id="path60" /></clipPath></defs><g
     id="g10"
     transform="matrix(1.3333333,0,0,-1.3333333,0,234.33067)"><path
       d="m 280.42566,34.42445 -0.41763,-0.89563 -0.25577,-0.95454 -0.0861,-0.98447 0.0861,-0.98446 0.25577,-0.95455 0.41763,-0.89563 0.56683,-0.80951 0.69879,-0.69877 0.80948,-0.56682 0.89566,-0.41765 0.95453,-0.25577 0.98447,-0.08613 0.98447,0.08613 0.95455,0.25577 0.89563,0.41765 0.80951,0.56682 0.69876,0.69877 0.56684,0.80951 0.41763,0.89563 0.25577,0.95455 0.0861,0.98446 -0.0861,0.98447 -0.25577,0.95454 -0.41763,0.89563 -0.56684,0.80951 -0.69876,0.69878 -0.80951,0.56683 -0.89563,0.41764 -0.95455,0.25576 -0.98447,0.08614 -0.98447,-0.08614 -0.95453,-0.25576 -0.89566,-0.41764 -0.80948,-0.56683 -0.69879,-0.69878 z"
       style="fill:#dedede;fill-opacity:1;fill-rule:nonzero;stroke:none"
       id="path12" /><path
       d="m 132.46881,147.8103 -0.56683,0.80948 -0.69876,0.69879 -0.80951,0.56684 -0.89563,0.41763 -0.95456,0.25577 -0.98447,0.0861 -0.98447,-0.0861 -0.95454,-0.25577 -0.89563,-0.41763 -0.80951,-0.56684 -0.69877,-0.69879 -0.56682,-0.80948 -0.41765,-0.89566 -0.25577,-0.95453 -0.0861,-0.98446 0.0861,-0.98447 0.25577,-0.95456 0.41765,-0.89563 0.56682,-0.80951 0.69877,-0.69876 0.80951,-0.56683 0.89563,-0.41764 0.95454,-0.25576 0.98447,-0.0861 0.98447,0.0861 0.95456,0.25576 0.89563,0.41764 0.80951,0.56683 0.69876,0.69876 0.56683,0.80951 0.41763,0.89563 0.25577,0.95456 0.0861,0.98447 -0.0861,0.98446 -0.25577,0.95453 z"
       style="fill:#dedede;fill-opacity:1;fill-rule:nonzero;stroke:none"
       id="path14" /><path
       d="m 155.90552,31.58981 -6.01319,-6.01318 m 6.01319,6.01318 6.01318,-6.01318 m -12.02637,0 h 12.02637 m 107.37262,6.01318 -6.01318,-6.01318 m 6.01318,6.01318 6.01318,-6.01318 m -12.02636,0 h 12.02636 m -14.07351,-2.23129 h 15.87399"
       style="fill:none;stroke:#000000;stroke-width:0.28346;stroke-linecap:round;stroke-linejoin:round;stroke-miterlimit:10;stroke-dasharray:none;stroke-opacity:1"
       id="path16" /><path
       d="m 157.32285,31.58981 c 0,0.78278 -0.63459,1.41733 -1.41733,1.41733 m 0,0 c -0.78278,0 -1.41733,-0.63455 -1.41733,-1.41733 m 0,0 c 0,-0.78276 0.63455,-1.41732 1.41733,-1.41732 m 0,0 c 0.78274,0 1.41733,0.63456 1.41733,1.41732"
       style="fill:none;stroke:#000000;stroke-width:0.3685;stroke-linecap:round;stroke-linejoin:round;stroke-miterlimit:10;stroke-dasharray:none;stroke-opacity:1"
       id="path18" /><path
       d="m 270.70865,31.58981 c 0,0.78278 -0.63455,1.41733 -1.41733,1.41733 m 0,0 c -0.78274,0 -1.41733,-0.63455 -1.41733,-1.41733 m 0,0 c 0,-0.78276 0.63459,-1.41732 1.41733,-1.41732 m 0,0 c 0.78278,0 1.41733,0.63456 1.41733,1.41732"
       style="fill:none;stroke:#000000;stroke-width:0.3685;stroke-linecap:round;stroke-linejoin:round;stroke-miterlimit:10;stroke-dasharray:none;stroke-opacity:1"
       id="path20" /><path
       d="m 155.90552,31.58981 v 1.85901 m 0,2.26772 v 2.83464 m 0,2.26771 v 2.83466 m 0,2.26771 v 2.83465 m 0,2.26771 v 2.83466 m 0,2.26771 v 2.83464 m 0,2.26772 V 64.063 m 0,2.26772 v 2.83464 m 0,2.26771 v 2.83465 m 0,2.26771 v 2.83466 m 0,2.26771 v 2.83464 m 0,2.26772 v 2.83465 m 0,2.26772 v 2.83464 m 0,2.26772 v 2.83464 m 0,2.26771 v 2.83466 m 0,2.26771 v 2.83464 m 0,2.26772 v 2.83465 m 0,2.26772 v 2.83464 m 0,2.26772 v 2.83464 m 0,2.26771 v 2.83466 m 0,2.26773 v 2.83462 m 0,2.26773 v 2.83463 m 0,2.26773 v 2.1095 m 0,-113.38584 v 0 m 0,113.38584 v 0 0 m 2.26773,0 h 2.83462 m 2.26773,0 h 2.83463 m 2.26773,0 h 2.83466 m 2.2677,0 h 2.83465 m 2.2677,0 h 2.83466 m 2.26773,0 h 2.83462 m 2.26773,0 h 2.83463 m 2.26773,0 h 2.83466 m 2.2677,0 h 2.83465 m 2.2677,0 h 2.83466 m 2.26773,0 h 2.83462 m 2.26773,0 h 2.83466 m 2.2677,0 h 2.83466 m 2.2677,0 h 2.83465 m 2.2677,0 h 2.83466 m 2.26773,0 h 2.83462 m 2.26774,0 h 2.83465 m 2.2677,0 h 2.83466 m 2.2677,0 h 2.83465 m 2.2677,0 h 2.83466 m 2.2677,0 h 2.83465 m 2.26774,0 h 2.83462 m -112.25195,0 v 0 m 113.3858,0 v 0"
       style="fill:none;stroke:#000000;stroke-width:0.3685;stroke-linecap:round;stroke-linejoin:round;stroke-miterlimit:10;stroke-dasharray:none;stroke-opacity:1"
       id="path22" /><path
       d="m 269.29132,31.58981 v 1.85901 m 0,2.26772 v 2.83464 m 0,2.26771 v 2.83466 m 0,2.26771 v 2.83465 m 0,2.26771 v 2.83466 m 0,2.26771 v 2.83464 m 0,2.26772 V 64.063 m 0,2.26772 v 2.83464 m 0,2.26771 v 2.83465 m 0,2.26771 v 2.83466 m 0,2.26771 v 2.83464 m 0,2.26772 v 2.83465 m 0,2.26772 v 2.83464 m 0,2.26772 v 2.83464 m 0,2.26771 v 2.83466 m 0,2.26771 v 2.83464 m 0,2.26772 v 2.83465 m 0,2.26772 v 2.83464 m 0,2.26772 v 2.83464 m 0,2.26771 v 2.83466 m 0,2.26773 v 2.83462 m 0,2.26773 v 2.83463 m 0,2.26773 v 2.1095 m 0,-113.38584 v 0 m 0,113.38584 v 0"
       style="fill:none;stroke:#000000;stroke-width:0.3685;stroke-linecap:round;stroke-linejoin:round;stroke-miterlimit:10;stroke-dasharray:none;stroke-opacity:1"
       id="path24" /><path
       d="m 155.90552,166.21545 h -10.77167 m 5.95276,0 h 0.4252 m -6.37796,0 v 0 l 5.95276,-0.8504 v 1.70078 l -5.95276,-0.85038"
       style="fill:none;stroke:#000000;stroke-width:0.28346;stroke-linecap:round;stroke-linejoin:round;stroke-miterlimit:10;stroke-dasharray:none;stroke-opacity:1"
       id="path26" /><path
       d="m 151.08661,167.06583 -5.95276,-0.85038 5.95276,-0.8504 z"
       style="fill:#000000;fill-opacity:1;fill-rule:nonzero;stroke:none"
       id="path28" /><path
       d="m 155.90552,169.05011 v -7.08664"
       style="fill:none;stroke:#000000;stroke-width:0.28346;stroke-linecap:round;stroke-linejoin:round;stroke-miterlimit:10;stroke-dasharray:none;stroke-opacity:1"
       id="path30" /><path
       d="m 279.66614,31.58981 c 0,-3.13105 2.53821,-5.66929 5.66928,-5.66929 m 0,0 c 3.13107,0 5.66928,2.53824 5.66928,5.66929 m 0,0 c 0,3.13108 -2.53821,5.6693 -5.66928,5.6693 m 0,0 c -3.13107,0 -5.66928,-2.53822 -5.66928,-5.6693"
       style="fill:none;stroke:#000000;stroke-width:0.99213;stroke-linecap:round;stroke-linejoin:round;stroke-miterlimit:10;stroke-dasharray:none;stroke-opacity:1"
       id="path32" /><path
       d="m 133.22833,144.97565 c 0,3.13107 -2.53821,5.66928 -5.66928,5.66928 m 0,0 c -3.13106,0 -5.66929,-2.53821 -5.66929,-5.66928 m 0,0 c 0,-3.13108 2.53823,-5.66928 5.66929,-5.66928 m 0,0 c 3.13107,0 5.66928,2.5382 5.66928,5.66928"
       style="fill:none;stroke:#000000;stroke-width:0.99213;stroke-linecap:round;stroke-linejoin:round;stroke-miterlimit:10;stroke-dasharray:none;stroke-opacity:1"
       id="path34" /><path
       d="m 127.55905,140.52228 4.45337,4.45337 m -4.45337,0 0.44083,-13.41715 0.74637,-13.34526 0.58325,-6.62321 0.77423,-6.57831 1.00339,-6.52442 1.27075,-6.46151 1.94647,-7.78841 2.34427,-7.69484 2.68524,-7.61464 2.96936,-7.5478 6.56384,-14.94861 7.01847,-14.84168 m 85.03937,113.38584 -7.02604,-0.71552 -7.02505,-0.6156 -7.0231,-0.41568 -7.02021,-0.11581 -11.05444,0.5281 -11.05044,1.07453 -11.05207,1.17495 -11.05935,0.82926 -10.25907,0.1589 -10.26742,-0.35107 -10.27292,-0.69104 -10.27573,-0.86102 m 113.38584,0 2.44552,-14.30439 2.76584,-14.18223 1.60312,-7.00714 1.80331,-6.93083 2.04352,-6.83922 2.32376,-6.73238 3.01816,-7.51974 3.38116,-7.38134 3.69233,-7.26269 3.9516,-7.16382 8.47366,-14.11012 8.88855,-13.95194 m -43.73755,109.48255 -5.90811,3.10153"
       style="fill:none;stroke:#000000;stroke-width:0.99213;stroke-linecap:round;stroke-linejoin:round;stroke-miterlimit:10;stroke-dasharray:none;stroke-opacity:1"
       id="path36" /><path
       d="m 269.29132,9.45161 h -10.77164 m 5.95276,0 h 0.42517 m -6.37793,0 v 0 l 5.95276,-0.85038 V 10.302 l -5.95276,-0.85039"
       style="fill:none;stroke:#000000;stroke-width:0.28346;stroke-linecap:round;stroke-linejoin:round;stroke-miterlimit:10;stroke-dasharray:none;stroke-opacity:1"
       id="path38" /><path
       d="m 264.47244,10.302 -5.95276,-0.85039 5.95276,-0.85038 z"
       style="fill:#000000;fill-opacity:1;fill-rule:nonzero;stroke:none"
       id="path40" /><path
       d="M 269.29132,12.28625 V 5.19965"
       style="fill:none;stroke:#000000;stroke-width:0.28346;stroke-linecap:round;stroke-linejoin:round;stroke-miterlimit:10;stroke-dasharray:none;stroke-opacity:1"
       id="path42" /><g
       id="g44"><g
         id="g46"
         clip-path="url(#clipPath50)"><text
           transform="matrix(1,0,0,-1,138.21208,163.37689)"
           style="font-style:italic;font-variant:normal;font-weight:normal;font-stretch:normal;font-size:11.0078px;font-family:'Palatino Linotype';-inkscape-font-specification:PalatinoLinotype-Italic;writing-mode:lr-tb;fill:#000000;fill-opacity:1;fill-rule:nonzero;stroke:none"
           id="text54"><tspan
             x="0"
             y="0"
             id="tspan52">1</tspan></text></g></g><g
       id="g56"><g
         id="g58"
         clip-path="url(#clipPath62)"><text
           transform="matrix(1,0,0,-1,228.35381,6.61306)"
           style="font-style:italic;font-variant:normal;font-weight:normal;font-stretch:normal;font-size:11.0078px;font-family:'Palatino Linotype';-inkscape-font-specification:PalatinoLinotype-Italic;writing-mode:lr-tb;fill:#000000;fill-opacity:1;fill-rule:nonzero;stroke:none"
           id="text66"><tspan
             x="0 3.6656108 9.1695309 11.921491 17.425411 22.929331"
             y="0"
             id="tspan64">-0.566</tspan></text></g></g></g></svg>
