<?xml version="1.0" encoding="UTF-8" standalone="no"?>
<svg
   xmlns:dc="http://purl.org/dc/elements/1.1/"
   xmlns:cc="http://creativecommons.org/ns#"
   xmlns:rdf="http://www.w3.org/1999/02/22-rdf-syntax-ns#"
   xmlns:svg="http://www.w3.org/2000/svg"
   xmlns="http://www.w3.org/2000/svg"
   version="1.1"
   id="svg2"
   xml:space="preserve"
   width="566.92932"
   height="283.46399"
   viewBox="0 0 566.92932 283.46399"><metadata
     id="metadata8"><rdf:RDF><cc:Work
         rdf:about=""><dc:format>image/svg+xml</dc:format><dc:type
           rdf:resource="http://purl.org/dc/dcmitype/StillImage" /></cc:Work></rdf:RDF></metadata><defs
     id="defs6"><clipPath
       clipPathUnits="userSpaceOnUse"
       id="clipPath42"><path
         d="M -0.00426,-0.00212 V 212.60056 H 425.20111 V -0.00212 H -0.00426"
         clip-rule="evenodd"
         id="path40" /></clipPath><clipPath
       clipPathUnits="userSpaceOnUse"
       id="clipPath58"><path
         d="M -0.00426,-0.00212 V 212.60056 H 425.20111 V -0.00212 H -0.00426"
         clip-rule="evenodd"
         id="path56" /></clipPath><clipPath
       clipPathUnits="userSpaceOnUse"
       id="clipPath76"><path
         d="M -0.00426,-0.00212 V 212.60056 H 425.20111 V -0.00212 H -0.00426"
         clip-rule="evenodd"
         id="path74" /></clipPath><clipPath
       clipPathUnits="userSpaceOnUse"
       id="clipPath90"><path
         d="M -0.00426,-0.00212 V 212.60056 H 425.20111 V -0.00212 H -0.00426"
         clip-rule="evenodd"
         id="path88" /></clipPath><clipPath
       clipPathUnits="userSpaceOnUse"
       id="clipPath102"><path
         d="M -0.00426,-0.00212 V 212.60056 H 425.20111 V -0.00212 H -0.00426"
         clip-rule="evenodd"
         id="path100" /></clipPath></defs><g
     id="g10"
     transform="matrix(1.3333333,0,0,-1.3333333,0,283.464)"><path
       d="m 137.85937,178.17398 -0.10766,1.23056 -0.3197,1.19321 -0.52207,1.11954 -0.70852,1.01187 -0.87348,0.87347 -1.01187,0.70853 -1.11954,0.52206 -1.19317,0.3197 -1.23059,0.10767 -1.23059,-0.10767 -1.19318,-0.3197 -1.11954,-0.52206 -1.01188,-0.70853 -0.87348,-0.87347 -0.70853,-1.01187 -0.52204,-1.11954 -0.31972,-1.19321 -0.10767,-1.23056 0.10767,-1.23059 0.31972,-1.19318 0.52204,-1.11953 0.70853,-1.01191 0.87348,-0.87347 1.01188,-0.70853 1.11954,-0.52203 1.19318,-0.31973 1.23059,-0.10764 1.23059,0.10764 1.19317,0.31973 1.11954,0.52203 1.01187,0.70853 0.87348,0.87347 0.70852,1.01191 0.52207,1.11953 0.3197,1.19318 z"
       style="fill:#dedede;fill-opacity:1;fill-rule:nonzero;stroke:none"
       id="path12" /><path
       d="m 106.96791,5.99274 h 47.60973 v 2.10249 h -47.60973 z"
       style="fill:#000000;fill-opacity:1;fill-rule:nonzero;stroke:none"
       id="path14" /><path
       d="m 293.48758,5.99274 h 47.60971 v 2.10249 h -47.60971 z"
       style="fill:#000000;fill-opacity:1;fill-rule:nonzero;stroke:none"
       id="path16" /><path
       d="m 132.00336,171.19501 -1.23059,-0.10764 -1.23059,0.10764 -1.19318,0.31973 -1.11954,0.52203 V 8.09523 h 7.08661 v 163.94154 l -1.11954,-0.52203 z"
       style="fill:#dedede;fill-opacity:1;fill-rule:nonzero;stroke:none"
       id="path18" /><path
       d="M 127.22946,172.03677 V 8.09523 h 7.08661 V 172.03677 M 106.96791,8.09523 h 47.60973 V 5.99274 h -47.60973 v 2.10249 m 186.51967,0 h 47.60971 V 5.99274 h -47.60971 v 2.10249"
       style="fill:none;stroke:#000000;stroke-width:0.28346;stroke-linecap:round;stroke-linejoin:round;stroke-miterlimit:10;stroke-dasharray:none;stroke-opacity:1"
       id="path20" /><path
       d="m 317.29245,8.09523 3.73935,31.21875 4.64038,30.93022 2.93964,15.26674 3.50277,15.08641 4.17856,14.87001 4.96692,14.61757 4.88406,12.20444 5.37171,12.04828 5.69678,11.94418 5.85934,11.89215"
       style="fill:none;stroke:#000000;stroke-width:0.99213;stroke-linecap:round;stroke-linejoin:round;stroke-miterlimit:10;stroke-dasharray:none;stroke-opacity:1"
       id="path22" /><path
       d="m 317.29245,8.09523 v 3.24335 m 0,2.83465 v 4.25197 m 0,2.83464 v 4.25197 m 0,2.83464 v 4.25198 m 0,2.83464 v 4.25197 m 0,2.83464 v 4.25197 m 0,2.83466 v 4.25197 m 0,2.83464 v 4.25197 m 0,2.83464 v 4.25196 m 0,2.83466 v 4.25197 m 0,2.83464 v 4.25197 m 0,2.83464 v 4.25197 m 0,2.83465 v 4.25197 m 0,2.83464 v 4.25197 m 0,2.83464 v 4.25197 m 0,2.83465 v 4.25197 m 0,2.83464 v 4.25197 m 0,2.83464 v 4.25199 m 0,2.83465 v 4.25195 m 0,2.83466 v 4.25195 m 0,2.83466 v 4.25195 m 0,2.83466 v 4.25198 m 0,2.83463 v 4.25198 m 0,2.83463 v 4.25198 m 0,2.83465 v 1.00861"
       style="fill:none;stroke:#000000;stroke-width:0.70866;stroke-linecap:round;stroke-linejoin:round;stroke-miterlimit:10;stroke-dasharray:none;stroke-opacity:1"
       id="path24" /><path
       d="m 317.29245,7.74091 -0.35434,0.35432 0.35434,0.35432 0.35431,-0.35432 z"
       style="fill:#000000;fill-opacity:1;fill-rule:nonzero;stroke:none"
       id="path26" /><path
       d="m 317.29245,177.81964 -0.35434,0.35434 0.35434,0.35431 0.35431,-0.35431 z"
       style="fill:#000000;fill-opacity:1;fill-rule:nonzero;stroke:none"
       id="path28" /><path
       d="m 293.48758,8.09523 h -20.6929 m 8.78738,0 v 28.62993 m 0,-5.4567 v -0.38977 m 0,5.84647 v 0 l -0.77951,-5.4567 h 1.55905 l -0.77954,5.4567"
       style="fill:none;stroke:#000000;stroke-width:0.28346;stroke-linecap:round;stroke-linejoin:round;stroke-miterlimit:10;stroke-dasharray:none;stroke-opacity:1"
       id="path30" /><path
       d="m 282.3616,31.26846 -0.77954,5.4567 -0.77951,-5.4567 z"
       style="fill:#000000;fill-opacity:1;fill-rule:nonzero;stroke:none"
       id="path32" /><path
       d="m 137.85937,178.17398 c 0,3.91382 -3.17279,7.08661 -7.0866,7.08661 m 0,0 c -3.91384,0 -7.08663,-3.17279 -7.08663,-7.08661 m 0,0 c 0,-3.91385 3.17279,-7.08661 7.08663,-7.08661 m 0,0 c 3.91381,0 7.0866,3.17276 7.0866,7.08661"
       style="fill:none;stroke:#000000;stroke-width:0.28346;stroke-linecap:round;stroke-linejoin:round;stroke-miterlimit:10;stroke-dasharray:none;stroke-opacity:1"
       id="path34" /><g
       id="g36"><g
         id="g38"
         clip-path="url(#clipPath42)"><text
           transform="matrix(1,0,0,-1,280.29549,38.8118)"
           style="font-style:italic;font-variant:normal;font-weight:normal;font-stretch:normal;font-size:11.0078px;font-family:'Palatino Linotype';-inkscape-font-specification:PalatinoLinotype-Italic;writing-mode:lr-tb;fill:#000000;fill-opacity:1;fill-rule:nonzero;stroke:none"
           id="text46"><tspan
             x="0"
             y="0"
             id="tspan44">x</tspan></text></g></g><path
       d="m 317.29245,196.59918 2.97638,0.42517 v -0.85037 l -2.97638,0.4252 m 45.77951,0 -2.97638,0.42517 v -0.85037 l 2.97638,0.4252"
       style="fill:none;stroke:#000000;stroke-width:0.56693;stroke-linecap:round;stroke-linejoin:round;stroke-miterlimit:10;stroke-dasharray:none;stroke-opacity:1"
       id="path48" /><path
       d="m 317.29245,196.59918 v 2.12598 m 0,-2.12598 v -2.12597 m 45.77951,2.12597 v 2.12598 m 0,-2.12598 v -2.12597 m -45.77951,2.12597 v -4.59714 -10.99343 m 45.77951,15.59057 v -15.59057 m -45.77951,15.59057 v 0 m 45.77951,0 v 0"
       style="fill:none;stroke:#000000;stroke-width:0.28346;stroke-linecap:round;stroke-linejoin:round;stroke-miterlimit:10;stroke-dasharray:none;stroke-opacity:1"
       id="path50" /><g
       id="g52"><g
         id="g54"
         clip-path="url(#clipPath58)"><text
           transform="matrix(1,0,0,-1,329.13601,199.47895)"
           style="font-style:italic;font-variant:normal;font-weight:normal;font-stretch:normal;font-size:10.0071px;font-family:'Palatino Linotype';-inkscape-font-specification:PalatinoLinotype-Italic;writing-mode:lr-tb;fill:#000000;fill-opacity:1;fill-rule:nonzero;stroke:none"
           id="text62"><tspan
             x="0 7.4753261 9.977109 14.980674 17.482456"
             y="0"
             id="tspan60">Ψ = 1</tspan></text></g></g><path
       d="m 317.29245,196.59918 h 4.15265 41.62686"
       style="fill:none;stroke:#000000;stroke-width:0.28346;stroke-linecap:round;stroke-linejoin:round;stroke-miterlimit:10;stroke-dasharray:none;stroke-opacity:1"
       id="path64" /><path
       d="m 89.65605,8.09523 -0.4252,2.97638 h 0.85039 L 89.65605,8.09523 m 0,170.07875 -0.4252,-2.97638 h 0.85039 l -0.42519,2.97638"
       style="fill:none;stroke:#000000;stroke-width:0.56693;stroke-linecap:round;stroke-linejoin:round;stroke-miterlimit:10;stroke-dasharray:none;stroke-opacity:1"
       id="path66" /><path
       d="m 89.65605,8.09523 h -2.12599 m 2.12599,0 h 2.12598 m -2.12598,170.07875 h -2.12599 m 2.12599,0 h 2.12598 M 89.65605,8.09523 h 34.73876 M 89.65605,178.17398 H 120.8515 M 89.65605,8.09523 v 0 m 0,170.07875 v 0"
       style="fill:none;stroke:#000000;stroke-width:0.28346;stroke-linecap:round;stroke-linejoin:round;stroke-miterlimit:10;stroke-dasharray:none;stroke-opacity:1"
       id="path68" /><g
       id="g70"><g
         id="g72"
         clip-path="url(#clipPath76)"><text
           transform="matrix(0,1,1,0,86.78629,90.46897)"
           style="font-style:italic;font-variant:normal;font-weight:normal;font-stretch:normal;font-size:10.0071px;font-family:'Palatino Linotype';-inkscape-font-specification:PalatinoLinotype-Italic;writing-mode:lr-tb;fill:#000000;fill-opacity:1;fill-rule:nonzero;stroke:none"
           id="text80"><tspan
             x="0"
             y="0"
             id="tspan78">L</tspan></text></g></g><path
       d="M 89.65605,8.09523 V 178.17398"
       style="fill:none;stroke:#000000;stroke-width:0.28346;stroke-linecap:round;stroke-linejoin:round;stroke-miterlimit:10;stroke-dasharray:none;stroke-opacity:1"
       id="path82" /><g
       id="g84"><g
         id="g86"
         clip-path="url(#clipPath90)"><text
           transform="matrix(1,0,0,-1,138.68349,187.10359)"
           style="font-style:italic;font-variant:normal;font-weight:normal;font-stretch:normal;font-size:11.0078px;font-family:'Palatino Linotype';-inkscape-font-specification:PalatinoLinotype-Italic;writing-mode:lr-tb;fill:#000000;fill-opacity:1;fill-rule:nonzero;stroke:none"
           id="text94"><tspan
             x="0"
             y="0"
             id="tspan92">M</tspan></text></g></g><g
       id="g96"><g
         id="g98"
         clip-path="url(#clipPath102)"><text
           transform="matrix(1,0,0,-1,140.35768,89.98484)"
           style="font-style:italic;font-variant:normal;font-weight:normal;font-stretch:normal;font-size:11.0078px;font-family:'Palatino Linotype';-inkscape-font-specification:PalatinoLinotype-Italic;writing-mode:lr-tb;fill:#000000;fill-opacity:1;fill-rule:nonzero;stroke:none"
           id="text106"><tspan
             x="0 6.72579 10.391401 13.143361 15.895321"
             y="0"
             id="tspan104">EI, m</tspan></text></g></g></g></svg>
