<?xml version="1.0" encoding="UTF-8" standalone="no"?>
<svg
   xmlns:dc="http://purl.org/dc/elements/1.1/"
   xmlns:cc="http://creativecommons.org/ns#"
   xmlns:rdf="http://www.w3.org/1999/02/22-rdf-syntax-ns#"
   xmlns:svg="http://www.w3.org/2000/svg"
   xmlns="http://www.w3.org/2000/svg"
   version="1.1"
   id="svg2"
   xml:space="preserve"
   width="566.92932"
   height="207.87466"
   viewBox="0 0 566.92932 207.87466"><metadata
     id="metadata8"><rdf:RDF><cc:Work
         rdf:about=""><dc:format>image/svg+xml</dc:format><dc:type
           rdf:resource="http://purl.org/dc/dcmitype/StillImage" /></cc:Work></rdf:RDF></metadata><defs
     id="defs6"><clipPath
       clipPathUnits="userSpaceOnUse"
       id="clipPath30"><path
         d="M 56.42213,83.8625 V 7.23055 H 383.9949 V 83.8625 H 56.42213"
         clip-rule="evenodd"
         id="path28" /></clipPath><clipPath
       clipPathUnits="userSpaceOnUse"
       id="clipPath42"><path
         d="M 56.42213,83.8625 V 7.23055 H 383.9949 V 83.8625 H 56.42213"
         clip-rule="evenodd"
         id="path40" /></clipPath><clipPath
       clipPathUnits="userSpaceOnUse"
       id="clipPath54"><path
         d="M 56.42213,83.8625 V 7.23055 H 383.9949 V 83.8625 H 56.42213"
         clip-rule="evenodd"
         id="path52" /></clipPath><clipPath
       clipPathUnits="userSpaceOnUse"
       id="clipPath66"><path
         d="M 56.42213,83.8625 V 7.23055 H 383.9949 V 83.8625 H 56.42213"
         clip-rule="evenodd"
         id="path64" /></clipPath><clipPath
       clipPathUnits="userSpaceOnUse"
       id="clipPath78"><path
         d="M 56.42213,83.8625 V 7.23055 H 383.9949 V 83.8625 H 56.42213"
         clip-rule="evenodd"
         id="path76" /></clipPath><clipPath
       clipPathUnits="userSpaceOnUse"
       id="clipPath102"><path
         d="m 64.31444,75.66621 h 320.46415 v 80.24086 H 64.31444 V 75.66621"
         clip-rule="evenodd"
         id="path100" /></clipPath><clipPath
       clipPathUnits="userSpaceOnUse"
       id="clipPath114"><path
         d="m 64.31444,75.66621 h 320.46415 v 80.24086 H 64.31444 V 75.66621"
         clip-rule="evenodd"
         id="path112" /></clipPath><clipPath
       clipPathUnits="userSpaceOnUse"
       id="clipPath126"><path
         d="m 64.31444,75.66621 h 320.46415 v 80.24086 H 64.31444 V 75.66621"
         clip-rule="evenodd"
         id="path124" /></clipPath><clipPath
       clipPathUnits="userSpaceOnUse"
       id="clipPath138"><path
         d="m 64.31444,75.66621 h 320.46415 v 80.24086 H 64.31444 V 75.66621"
         clip-rule="evenodd"
         id="path136" /></clipPath><clipPath
       clipPathUnits="userSpaceOnUse"
       id="clipPath150"><path
         d="m 64.31444,75.66621 h 320.46415 v 80.24086 H 64.31444 V 75.66621"
         clip-rule="evenodd"
         id="path148" /></clipPath><clipPath
       clipPathUnits="userSpaceOnUse"
       id="clipPath162"><path
         d="m 64.31444,75.66621 h 320.46415 v 80.24086 H 64.31444 V 75.66621"
         clip-rule="evenodd"
         id="path160" /></clipPath></defs><g
     id="g10"
     transform="matrix(1.3333333,0,0,-1.3333333,0,207.87467)"><path
       d="m 70.86615,15.47502 -6.0132,-6.01318 m 6.0132,6.01318 6.01318,-6.01318 m -12.02638,0 h 12.02638 m 164.06556,6.01318 -6.01319,-6.01318 m 6.01319,6.01318 6.01318,-6.01318 m -12.02637,0 h 12.02637 M 232.88452,7.23055 h 15.87402"
       style="fill:none;stroke:#000000;stroke-width:0.28346;stroke-linecap:round;stroke-linejoin:round;stroke-miterlimit:10;stroke-dasharray:none;stroke-opacity:1"
       id="path12" /><path
       d="M 354.33069,54.59314 V 31.91597 m 0,5.4567 v 0.38975 m 0,-5.84645 v 0 l 0.77954,5.4567 h -1.55905 l 0.77951,-5.4567"
       style="fill:none;stroke:#ff0000;stroke-width:0.28346;stroke-linecap:round;stroke-linejoin:round;stroke-miterlimit:10;stroke-dasharray:none;stroke-opacity:1"
       id="path14" /><path
       d="m 353.55118,37.37267 0.77951,-5.4567 0.77954,5.4567 z"
       style="fill:#ff0000;fill-opacity:1;fill-rule:nonzero;stroke:none"
       id="path16" /><path
       d="M 70.86615,15.47502 H 354.33069"
       style="fill:none;stroke:#000000;stroke-width:0.85039;stroke-linecap:round;stroke-linejoin:round;stroke-miterlimit:10;stroke-dasharray:none;stroke-opacity:1"
       id="path18" /><path
       d="m 70.86615,13.77423 h 4.25197 m 2.83464,0 h 4.25197 m 2.83464,0 h 4.25197 m 2.83465,0 h 4.25197 m 2.83464,0 h 4.25197 m 2.83464,0 h 4.25197 m 2.83465,0 h 4.25197 m 2.83464,0 h 4.25197 m 2.83464,0 h 4.25199 m 2.83465,0 h 4.25195 m 2.83466,0 h 4.25195 m 2.83466,0 h 4.25195 m 2.83466,0 h 4.25198 m 2.83463,0 h 4.25198 m 2.83463,0 h 4.25198 m 2.83465,0 h 4.25196 m 2.83465,0 h 4.25196 m 2.83465,0 h 4.25196 m 2.83465,0 h 4.25199 m 2.83462,0 h 4.25198 m 2.83463,0 h 4.25198 m 2.83466,0 h 4.25195 m 2.83466,0 h 4.25195 m 2.83466,0 h 4.25195 m 2.83466,0 h 4.25198 m 2.83462,0 h 4.25199 m 2.83462,0 h 4.25199 m 2.83462,0 h 4.25199 m 2.83465,0 h 4.25195 m 2.83466,0 h 4.25195 m 2.83466,0 h 4.25195 m 2.83466,0 h 4.25198 m 2.83463,0 h 4.25198 m 2.83463,0 h 4.25198 m 2.83466,0 h 4.25195 m 2.83465,0 h 4.25196 m 2.83465,0 h 4.25196 m 2.83465,0 h 4.25199 m 2.83462,0 h 4.25198 m 2.83463,0 h 4.25198 m -280.62991,0 v 0 m 283.46454,0 v 0"
       style="fill:none;stroke:#000000;stroke-width:0.3685;stroke-linecap:round;stroke-linejoin:round;stroke-miterlimit:10;stroke-dasharray:none;stroke-opacity:1"
       id="path20" /><path
       d="m 240.94489,57.99471 113.3858,-42.51969 m -283.46454,0 170.07874,42.51969"
       style="fill:none;stroke:#ff8000;stroke-width:0.99213;stroke-linecap:round;stroke-linejoin:round;stroke-miterlimit:10;stroke-dasharray:none;stroke-opacity:1"
       id="path22" /><g
       id="g24"><g
         id="g26"
         clip-path="url(#clipPath30)"><text
           transform="matrix(1,0,0,-1,225.87763,61.73827)"
           style="font-variant:normal;font-weight:normal;font-stretch:normal;font-size:11.1008px;font-family:'Palatino Linotype';-inkscape-font-specification:PalatinoLinotype-Roman;writing-mode:lr-tb;fill:#ff8000;fill-opacity:1;fill-rule:nonzero;stroke:none"
           id="text34"><tspan
             x="0 3.6965563"
             y="0"
             id="tspan32">-2</tspan></text></g></g><g
       id="g36"><g
         id="g38"
         clip-path="url(#clipPath42)"><text
           transform="matrix(1,0,0,-1,328.33422,46.83673)"
           style="font-style:italic;font-variant:normal;font-weight:normal;font-stretch:normal;font-size:11.0078px;font-family:'Palatino Linotype';-inkscape-font-specification:PalatinoLinotype-Italic;writing-mode:lr-tb;fill:#ff0000;fill-opacity:1;fill-rule:nonzero;stroke:none"
           id="text46"><tspan
             x="0 6.1203589 8.8723192 14.376239 17.128199"
             y="0"
             id="tspan44">F = 1</tspan></text></g></g><g
       id="g48"><g
         id="g50"
         clip-path="url(#clipPath54)"><text
           transform="matrix(1,0,0,-1,70.86614,61.23158)"
           style="font-variant:normal;font-weight:normal;font-stretch:normal;font-size:11.1008px;font-family:'Palatino Linotype';-inkscape-font-specification:PalatinoLinotype-Roman;writing-mode:lr-tb;fill:#000000;fill-opacity:1;fill-rule:nonzero;stroke:none"
           id="text58"><tspan
             x="0"
             y="0"
             id="tspan56">M</tspan></text></g></g><g
       id="g60"><g
         id="g62"
         clip-path="url(#clipPath66)"><text
           transform="matrix(1,0,0,-1,81.57497,56.68433)"
           style="font-variant:normal;font-weight:normal;font-stretch:normal;font-size:6.66046px;font-family:'Palatino Linotype';-inkscape-font-specification:PalatinoLinotype-Roman;writing-mode:lr-tb;fill:#000000;fill-opacity:1;fill-rule:nonzero;stroke:none"
           id="text70"><tspan
             x="0 3.7032158"
             y="0"
             id="tspan68">y </tspan></text></g></g><g
       id="g72"><g
         id="g74"
         clip-path="url(#clipPath78)"><text
           transform="matrix(1,0,0,-1,87.05157,61.23158)"
           style="font-variant:normal;font-weight:normal;font-stretch:normal;font-size:11.1008px;font-family:'Palatino Linotype';-inkscape-font-specification:PalatinoLinotype-Roman;writing-mode:lr-tb;fill:#000000;fill-opacity:1;fill-rule:nonzero;stroke:none"
           id="text82"><tspan
             x="0 3.6965563 13.498536"
             y="0"
             id="tspan80">[m]</tspan></text></g></g><path
       d="M 70.86615,93.87318 64.85295,87.86 m 6.0132,6.01318 6.01318,-6.01318 m -12.02638,0 H 76.87933 M 240.94489,93.87318 234.9317,87.86 m 6.01319,6.01318 6.01318,-6.01318 m -12.02637,0 h 12.02637 m -14.07355,-2.23129 h 15.87402"
       style="fill:none;stroke:#000000;stroke-width:0.28346;stroke-linecap:round;stroke-linejoin:round;stroke-miterlimit:10;stroke-dasharray:none;stroke-opacity:1"
       id="path84" /><path
       d="m 354.33069,132.9913 v -22.67717 m 0,5.4567 v 0.38975 m 0,-5.84645 v 0 l 0.77954,5.4567 h -1.55905 l 0.77951,-5.4567"
       style="fill:none;stroke:#ff0000;stroke-width:0.28346;stroke-linecap:round;stroke-linejoin:round;stroke-miterlimit:10;stroke-dasharray:none;stroke-opacity:1"
       id="path86" /><path
       d="m 353.55118,115.77083 0.77951,-5.4567 0.77954,5.4567 z"
       style="fill:#ff0000;fill-opacity:1;fill-rule:nonzero;stroke:none"
       id="path88" /><path
       d="M 70.86615,93.87318 H 354.33069"
       style="fill:none;stroke:#000000;stroke-width:0.85039;stroke-linecap:round;stroke-linejoin:round;stroke-miterlimit:10;stroke-dasharray:none;stroke-opacity:1"
       id="path90" /><path
       d="m 70.86615,92.17239 h 4.25197 m 2.83464,0 h 4.25197 m 2.83464,0 h 4.25197 m 2.83465,0 h 4.25197 m 2.83464,0 h 4.25197 m 2.83464,0 h 4.25197 m 2.83465,0 h 4.25197 m 2.83464,0 h 4.25197 m 2.83464,0 h 4.25199 m 2.83465,0 h 4.25195 m 2.83466,0 h 4.25195 m 2.83466,0 h 4.25195 m 2.83466,0 h 4.25198 m 2.83463,0 h 4.25198 m 2.83463,0 h 4.25198 m 2.83465,0 h 4.25196 m 2.83465,0 h 4.25196 m 2.83465,0 h 4.25196 m 2.83465,0 h 4.25199 m 2.83462,0 h 4.25198 m 2.83463,0 h 4.25198 m 2.83466,0 h 4.25195 m 2.83466,0 h 4.25195 m 2.83466,0 h 4.25195 m 2.83466,0 h 4.25198 m 2.83462,0 h 4.25199 m 2.83462,0 h 4.25199 m 2.83462,0 h 4.25199 m 2.83465,0 h 4.25195 m 2.83466,0 h 4.25195 m 2.83466,0 h 4.25195 m 2.83466,0 h 4.25198 m 2.83463,0 h 4.25198 m 2.83463,0 h 4.25198 m 2.83466,0 h 4.25195 m 2.83465,0 h 4.25196 m 2.83465,0 h 4.25196 m 2.83465,0 h 4.25199 m 2.83462,0 h 4.25198 m 2.83463,0 h 4.25198 m -280.62991,0 v 0 m 283.46454,0 v 0"
       style="fill:none;stroke:#000000;stroke-width:0.3685;stroke-linecap:round;stroke-linejoin:round;stroke-miterlimit:10;stroke-dasharray:none;stroke-opacity:1"
       id="path92" /><path
       d="m 240.94489,136.39288 113.3858,-42.5197 m -283.46454,0 170.07874,42.5197"
       style="fill:none;stroke:#ff8000;stroke-width:0.99213;stroke-linecap:round;stroke-linejoin:round;stroke-miterlimit:10;stroke-dasharray:none;stroke-opacity:1"
       id="path94" /><g
       id="g96"><g
         id="g98"
         clip-path="url(#clipPath102)"><text
           transform="matrix(1,0,0,-1,306.79092,125.2349)"
           style="font-style:italic;font-variant:normal;font-weight:normal;font-stretch:normal;font-size:11.0078px;font-family:'Palatino Linotype';-inkscape-font-specification:PalatinoLinotype-Italic;writing-mode:lr-tb;fill:#ff0000;fill-opacity:1;fill-rule:nonzero;stroke:none"
           id="text106"><tspan
             x="0 6.1203589 8.8723192 14.376239 17.128199 22.632118"
             y="0"
             id="tspan104">F = 1 </tspan></text></g></g><g
       id="g108"><g
         id="g110"
         clip-path="url(#clipPath114)"><text
           transform="matrix(1,0,0,-1,332.84139,125.2349)"
           style="font-variant:normal;font-weight:normal;font-stretch:normal;font-size:11.1008px;font-family:'Palatino Linotype';-inkscape-font-specification:PalatinoLinotype-Roman;writing-mode:lr-tb;fill:#ff0000;fill-opacity:1;fill-rule:nonzero;stroke:none"
           id="text118"><tspan
             x="0 6.1720281"
             y="0"
             id="tspan116">kN</tspan></text></g></g><g
       id="g120"><g
         id="g122"
         clip-path="url(#clipPath126)"><text
           transform="matrix(1,0,0,-1,225.87763,140.13642)"
           style="font-variant:normal;font-weight:normal;font-stretch:normal;font-size:11.1008px;font-family:'Palatino Linotype';-inkscape-font-specification:PalatinoLinotype-Roman;writing-mode:lr-tb;fill:#ff8000;fill-opacity:1;fill-rule:nonzero;stroke:none"
           id="text130"><tspan
             x="0 3.6965563"
             y="0"
             id="tspan128">-2</tspan></text></g></g><g
       id="g132"><g
         id="g134"
         clip-path="url(#clipPath138)"><text
           transform="matrix(1,0,0,-1,70.86614,139.62973)"
           style="font-variant:normal;font-weight:normal;font-stretch:normal;font-size:11.1008px;font-family:'Palatino Linotype';-inkscape-font-specification:PalatinoLinotype-Roman;writing-mode:lr-tb;fill:#000000;fill-opacity:1;fill-rule:nonzero;stroke:none"
           id="text142"><tspan
             x="0"
             y="0"
             id="tspan140">M</tspan></text></g></g><g
       id="g144"><g
         id="g146"
         clip-path="url(#clipPath150)"><text
           transform="matrix(1,0,0,-1,81.57497,135.08248)"
           style="font-variant:normal;font-weight:normal;font-stretch:normal;font-size:6.66046px;font-family:'Palatino Linotype';-inkscape-font-specification:PalatinoLinotype-Roman;writing-mode:lr-tb;fill:#000000;fill-opacity:1;fill-rule:nonzero;stroke:none"
           id="text154"><tspan
             x="0 3.7032158"
             y="0"
             id="tspan152">y </tspan></text></g></g><g
       id="g156"><g
         id="g158"
         clip-path="url(#clipPath162)"><text
           transform="matrix(1,0,0,-1,87.05157,139.62973)"
           style="font-variant:normal;font-weight:normal;font-stretch:normal;font-size:11.1008px;font-family:'Palatino Linotype';-inkscape-font-specification:PalatinoLinotype-Roman;writing-mode:lr-tb;fill:#000000;fill-opacity:1;fill-rule:nonzero;stroke:none"
           id="text166"><tspan
             x="0 3.6965563 9.8685846 19.093325 28.895304"
             y="0"
             id="tspan164">[kNm]</tspan></text></g></g></g></svg>
