<?xml version="1.0" encoding="UTF-8" standalone="no"?>
<svg
   xmlns:dc="http://purl.org/dc/elements/1.1/"
   xmlns:cc="http://creativecommons.org/ns#"
   xmlns:rdf="http://www.w3.org/1999/02/22-rdf-syntax-ns#"
   xmlns:svg="http://www.w3.org/2000/svg"
   xmlns="http://www.w3.org/2000/svg"
   version="1.1"
   id="svg2"
   xml:space="preserve"
   width="566.92932"
   height="188.976"
   viewBox="0 0 566.92932 188.976"><metadata
     id="metadata8"><rdf:RDF><cc:Work
         rdf:about=""><dc:format>image/svg+xml</dc:format><dc:type
           rdf:resource="http://purl.org/dc/dcmitype/StillImage" /></cc:Work></rdf:RDF></metadata><defs
     id="defs6"><clipPath
       clipPathUnits="userSpaceOnUse"
       id="clipPath88"><path
         d="M -0.00426,-0.00142 V 141.7337 H 425.20111 V -0.00142 H -0.00426"
         clip-rule="evenodd"
         id="path86" /></clipPath><clipPath
       clipPathUnits="userSpaceOnUse"
       id="clipPath100"><path
         d="M -0.00426,-0.00142 V 141.7337 H 425.20111 V -0.00142 H -0.00426"
         clip-rule="evenodd"
         id="path98" /></clipPath><clipPath
       clipPathUnits="userSpaceOnUse"
       id="clipPath112"><path
         d="M -0.00426,-0.00142 V 141.7337 H 425.20111 V -0.00142 H -0.00426"
         clip-rule="evenodd"
         id="path110" /></clipPath><clipPath
       clipPathUnits="userSpaceOnUse"
       id="clipPath124"><path
         d="M -0.00426,-0.00142 V 141.7337 H 425.20111 V -0.00142 H -0.00426"
         clip-rule="evenodd"
         id="path122" /></clipPath><clipPath
       clipPathUnits="userSpaceOnUse"
       id="clipPath136"><path
         d="M -0.00426,-0.00142 V 141.7337 H 425.20111 V -0.00142 H -0.00426"
         clip-rule="evenodd"
         id="path134" /></clipPath><clipPath
       clipPathUnits="userSpaceOnUse"
       id="clipPath148"><path
         d="M -0.00426,-0.00142 V 141.7337 H 425.20111 V -0.00142 H -0.00426"
         clip-rule="evenodd"
         id="path146" /></clipPath><clipPath
       clipPathUnits="userSpaceOnUse"
       id="clipPath160"><path
         d="M -0.00426,-0.00142 V 141.7337 H 425.20111 V -0.00142 H -0.00426"
         clip-rule="evenodd"
         id="path158" /></clipPath><clipPath
       clipPathUnits="userSpaceOnUse"
       id="clipPath172"><path
         d="M -0.00426,-0.00142 V 141.7337 H 425.20111 V -0.00142 H -0.00426"
         clip-rule="evenodd"
         id="path170" /></clipPath><clipPath
       clipPathUnits="userSpaceOnUse"
       id="clipPath184"><path
         d="M -0.00426,-0.00142 V 141.7337 H 425.20111 V -0.00142 H -0.00426"
         clip-rule="evenodd"
         id="path182" /></clipPath><clipPath
       clipPathUnits="userSpaceOnUse"
       id="clipPath196"><path
         d="M -0.00426,-0.00142 V 141.7337 H 425.20111 V -0.00142 H -0.00426"
         clip-rule="evenodd"
         id="path194" /></clipPath><clipPath
       clipPathUnits="userSpaceOnUse"
       id="clipPath208"><path
         d="M -0.00426,-0.00142 V 141.7337 H 425.20111 V -0.00142 H -0.00426"
         clip-rule="evenodd"
         id="path206" /></clipPath><clipPath
       clipPathUnits="userSpaceOnUse"
       id="clipPath220"><path
         d="M -0.00426,-0.00142 V 141.7337 H 425.20111 V -0.00142 H -0.00426"
         clip-rule="evenodd"
         id="path218" /></clipPath><clipPath
       clipPathUnits="userSpaceOnUse"
       id="clipPath232"><path
         d="M -0.00426,-0.00142 V 141.7337 H 425.20111 V -0.00142 H -0.00426"
         clip-rule="evenodd"
         id="path230" /></clipPath><clipPath
       clipPathUnits="userSpaceOnUse"
       id="clipPath244"><path
         d="M -0.00426,-0.00142 V 141.7337 H 425.20111 V -0.00142 H -0.00426"
         clip-rule="evenodd"
         id="path242" /></clipPath><clipPath
       clipPathUnits="userSpaceOnUse"
       id="clipPath256"><path
         d="M -0.00426,-0.00142 V 141.7337 H 425.20111 V -0.00142 H -0.00426"
         clip-rule="evenodd"
         id="path254" /></clipPath><clipPath
       clipPathUnits="userSpaceOnUse"
       id="clipPath268"><path
         d="M -0.00426,-0.00142 V 141.7337 H 425.20111 V -0.00142 H -0.00426"
         clip-rule="evenodd"
         id="path266" /></clipPath><clipPath
       clipPathUnits="userSpaceOnUse"
       id="clipPath280"><path
         d="M -0.00426,-0.00142 V 141.7337 H 425.20111 V -0.00142 H -0.00426"
         clip-rule="evenodd"
         id="path278" /></clipPath><clipPath
       clipPathUnits="userSpaceOnUse"
       id="clipPath292"><path
         d="M -0.00426,-0.00142 V 141.7337 H 425.20111 V -0.00142 H -0.00426"
         clip-rule="evenodd"
         id="path290" /></clipPath><clipPath
       clipPathUnits="userSpaceOnUse"
       id="clipPath304"><path
         d="M -0.00426,-0.00142 V 141.7337 H 425.20111 V -0.00142 H -0.00426"
         clip-rule="evenodd"
         id="path302" /></clipPath><clipPath
       clipPathUnits="userSpaceOnUse"
       id="clipPath316"><path
         d="M -0.00426,-0.00142 V 141.7337 H 425.20111 V -0.00142 H -0.00426"
         clip-rule="evenodd"
         id="path314" /></clipPath><clipPath
       clipPathUnits="userSpaceOnUse"
       id="clipPath328"><path
         d="M -0.00426,-0.00142 V 141.7337 H 425.20111 V -0.00142 H -0.00426"
         clip-rule="evenodd"
         id="path326" /></clipPath><clipPath
       clipPathUnits="userSpaceOnUse"
       id="clipPath340"><path
         d="M -0.00426,-0.00142 V 141.7337 H 425.20111 V -0.00142 H -0.00426"
         clip-rule="evenodd"
         id="path338" /></clipPath><clipPath
       clipPathUnits="userSpaceOnUse"
       id="clipPath352"><path
         d="M -0.00426,-0.00142 V 141.7337 H 425.20111 V -0.00142 H -0.00426"
         clip-rule="evenodd"
         id="path350" /></clipPath><clipPath
       clipPathUnits="userSpaceOnUse"
       id="clipPath364"><path
         d="M -0.00426,-0.00142 V 141.7337 H 425.20111 V -0.00142 H -0.00426"
         clip-rule="evenodd"
         id="path362" /></clipPath><clipPath
       clipPathUnits="userSpaceOnUse"
       id="clipPath376"><path
         d="M -0.00426,-0.00142 V 141.7337 H 425.20111 V -0.00142 H -0.00426"
         clip-rule="evenodd"
         id="path374" /></clipPath><clipPath
       clipPathUnits="userSpaceOnUse"
       id="clipPath388"><path
         d="M -0.00426,-0.00142 V 141.7337 H 425.20111 V -0.00142 H -0.00426"
         clip-rule="evenodd"
         id="path386" /></clipPath><clipPath
       clipPathUnits="userSpaceOnUse"
       id="clipPath400"><path
         d="M -0.00426,-0.00142 V 141.7337 H 425.20111 V -0.00142 H -0.00426"
         clip-rule="evenodd"
         id="path398" /></clipPath><clipPath
       clipPathUnits="userSpaceOnUse"
       id="clipPath412"><path
         d="M -0.00426,-0.00142 V 141.7337 H 425.20111 V -0.00142 H -0.00426"
         clip-rule="evenodd"
         id="path410" /></clipPath><clipPath
       clipPathUnits="userSpaceOnUse"
       id="clipPath424"><path
         d="M -0.00426,-0.00142 V 141.7337 H 425.20111 V -0.00142 H -0.00426"
         clip-rule="evenodd"
         id="path422" /></clipPath><clipPath
       clipPathUnits="userSpaceOnUse"
       id="clipPath436"><path
         d="M -0.00426,-0.00142 V 141.7337 H 425.20111 V -0.00142 H -0.00426"
         clip-rule="evenodd"
         id="path434" /></clipPath><clipPath
       clipPathUnits="userSpaceOnUse"
       id="clipPath448"><path
         d="M -0.00426,-0.00142 V 141.7337 H 425.20111 V -0.00142 H -0.00426"
         clip-rule="evenodd"
         id="path446" /></clipPath><clipPath
       clipPathUnits="userSpaceOnUse"
       id="clipPath460"><path
         d="M -0.00426,-0.00142 V 141.7337 H 425.20111 V -0.00142 H -0.00426"
         clip-rule="evenodd"
         id="path458" /></clipPath><clipPath
       clipPathUnits="userSpaceOnUse"
       id="clipPath472"><path
         d="M -0.00426,-0.00142 V 141.7337 H 425.20111 V -0.00142 H -0.00426"
         clip-rule="evenodd"
         id="path470" /></clipPath><clipPath
       clipPathUnits="userSpaceOnUse"
       id="clipPath484"><path
         d="M -0.00426,-0.00142 V 141.7337 H 425.20111 V -0.00142 H -0.00426"
         clip-rule="evenodd"
         id="path482" /></clipPath><clipPath
       clipPathUnits="userSpaceOnUse"
       id="clipPath496"><path
         d="M -0.00426,-0.00142 V 141.7337 H 425.20111 V -0.00142 H -0.00426"
         clip-rule="evenodd"
         id="path494" /></clipPath><clipPath
       clipPathUnits="userSpaceOnUse"
       id="clipPath508"><path
         d="M -0.00426,-0.00142 V 141.7337 H 425.20111 V -0.00142 H -0.00426"
         clip-rule="evenodd"
         id="path506" /></clipPath><clipPath
       clipPathUnits="userSpaceOnUse"
       id="clipPath520"><path
         d="M -0.00426,-0.00142 V 141.7337 H 425.20111 V -0.00142 H -0.00426"
         clip-rule="evenodd"
         id="path518" /></clipPath></defs><g
     id="g10"
     transform="matrix(1.3333333,0,0,-1.3333333,0,188.976)"><path
       d="m 133.0015,87.96825 -1.13364,1.619 -1.39755,1.39757 -1.61902,1.13363 -1.79126,0.83529 -1.90911,0.51153 -1.96893,0.17226 -1.96892,-0.17226 -1.9091,-0.51153 -1.79126,-0.83529 -1.61902,-1.13363 -1.39755,-1.39757 -1.13364,-1.619 -0.83528,-1.79128 -0.51155,-1.90909 -0.17226,-1.96893 0.17226,-1.96892 0.51155,-1.9091 0.83528,-1.79128 1.13364,-1.619 1.39755,-1.39755 1.61902,-1.13365 1.79126,-0.83528 1.9091,-0.51154 1.96892,-0.17226 1.96893,0.17226 1.90911,0.51154 1.79126,0.83528 1.61902,1.13365 1.39755,1.39755 1.13364,1.619 0.83529,1.79128 0.51154,1.9091 0.17227,1.96892 -0.17227,1.96893 -0.51154,1.90909 z"
       style="fill:#dedede;fill-opacity:1;fill-rule:nonzero;stroke:none"
       id="path12" /><path
       d="m 128.09177,28.44069 -0.56684,0.80949 -0.69879,0.69878 -0.80949,0.56683 -0.89563,0.41764 -0.95456,0.25576 -0.98447,0.08614 -0.98445,-0.08614 -0.95456,-0.25576 -0.89563,-0.41764 -0.80951,-0.56683 -0.69877,-0.69878 -0.56682,-0.80949 -0.41764,-0.89565 -0.25578,-0.95454 -0.0861,-0.98447 0.0861,-0.98445 0.25578,-0.95456 0.41764,-0.89563 0.56682,-0.80951 0.69877,-0.69877 0.80951,-0.56682 0.89563,-0.41765 0.95456,-0.25577 0.98445,-0.08612 0.98447,0.08612 0.95456,0.25577 0.89563,0.41765 0.80949,0.56682 0.69879,0.69877 0.56684,0.80951 0.41763,0.89563 0.25577,0.95456 0.0861,0.98445 -0.0861,0.98447 -0.25577,0.95454 z"
       style="fill:#dedede;fill-opacity:1;fill-rule:nonzero;stroke:none"
       id="path14" /><path
       d="m 228.81253,87.96825 -1.13364,1.619 -1.39758,1.39757 -1.61899,1.13363 -1.79129,0.83529 -1.90909,0.51153 -1.96893,0.17226 -1.9689,-0.17226 -1.90912,-0.51153 -1.79126,-0.83529 -1.61902,-1.13363 -1.39755,-1.39757 -1.13364,-1.619 -0.83529,-1.79128 -0.51154,-1.90909 -0.17224,-1.96893 0.17224,-1.96892 0.51154,-1.9091 0.83529,-1.79128 1.13364,-1.619 1.39755,-1.39755 1.61902,-1.13365 1.79126,-0.83528 1.90912,-0.51154 1.9689,-0.17226 1.96893,0.17226 1.90909,0.51154 1.79129,0.83528 1.61899,1.13365 1.39758,1.39755 1.13364,1.619 0.83527,1.79128 0.51153,1.9091 0.17227,1.96892 -0.17227,1.96893 -0.51153,1.90909 z"
       style="fill:#dedede;fill-opacity:1;fill-rule:nonzero;stroke:none"
       id="path16" /><path
       d="m 223.90277,20.50368 -0.56683,0.80951 -0.69876,0.69877 -0.80951,0.56682 -0.89563,0.41763 -0.95456,0.25579 -0.98447,0.08612 -0.98443,-0.08612 -0.95456,-0.25579 -0.89563,-0.41763 -0.80951,-0.56682 -0.69879,-0.69877 -0.56681,-0.80951 -0.41766,-0.89563 -0.25577,-0.95456 -0.0861,-0.98445 0.0861,-0.98447 0.25577,-0.95456 0.41766,-0.89563 0.56681,-0.80951 0.69879,-0.69877 0.80951,-0.56682 0.89563,-0.41764 0.95456,-0.25578 0.98443,-0.08612 0.98447,0.08612 0.95456,0.25578 0.89563,0.41764 0.80951,0.56682 0.69876,0.69877 0.56683,0.80951 0.41763,0.89563 0.25577,0.95456 0.0862,0.98447 -0.0862,0.98445 -0.25577,0.95456 z"
       style="fill:#dedede;fill-opacity:1;fill-rule:nonzero;stroke:none"
       id="path18" /><path
       d="m 309.59991,87.96825 -1.13363,1.619 -1.39755,1.39757 -1.61902,1.13363 -1.79126,0.83529 -1.90912,0.51153 -1.9689,0.17226 -1.96894,-0.17226 -1.90909,-0.51153 -1.79129,-0.83529 -1.61898,-1.13363 -1.39759,-1.39757 -1.13363,-1.619 -0.83527,-1.79128 -0.51153,-1.90909 -0.17228,-1.96893 0.17228,-1.96892 0.51153,-1.9091 0.83527,-1.79128 1.13363,-1.619 1.39759,-1.39755 1.61898,-1.13365 1.79129,-0.83528 1.90909,-0.51154 1.96894,-0.17226 1.9689,0.17226 1.90912,0.51154 1.79126,0.83528 1.61902,1.13365 1.39755,1.39755 1.13363,1.619 0.8353,1.79128 0.51154,1.9091 0.17224,1.96892 -0.17224,1.96893 -0.51154,1.90909 z"
       style="fill:#dedede;fill-opacity:1;fill-rule:nonzero;stroke:none"
       id="path20" /><path
       d="m 304.69016,20.50368 -0.56681,0.80951 -0.69879,0.69877 -0.80951,0.56682 -0.89563,0.41763 -0.95453,0.25579 -0.98446,0.08612 -0.98447,-0.08612 -0.95456,-0.25579 -0.89563,-0.41763 -0.80951,-0.56682 -0.69876,-0.69877 -0.56683,-0.80951 -0.41764,-0.89563 -0.25576,-0.95456 -0.0862,-0.98445 0.0862,-0.98447 0.25576,-0.95456 0.41764,-0.89563 0.56683,-0.80951 0.69876,-0.69877 0.80951,-0.56682 0.89563,-0.41764 0.95456,-0.25578 0.98447,-0.08612 0.98446,0.08612 0.95453,0.25578 0.89563,0.41764 0.80951,0.56682 0.69879,0.69877 0.56681,0.80951 0.41766,0.89563 0.25577,0.95456 0.0861,0.98447 -0.0861,0.98445 -0.25577,0.95456 z"
       style="fill:#dedede;fill-opacity:1;fill-rule:nonzero;stroke:none"
       id="path22" /><path
       d="m 134.5206,82.29895 c 0,6.26213 -5.07648,11.33858 -11.33861,11.33858 m 0,0 c -6.26211,0 -11.33858,-5.07645 -11.33858,-11.33858 m 0,0 c 0,-6.26213 5.07647,-11.33858 11.33858,-11.33858 m 0,0 c 6.26213,0 11.33861,5.07645 11.33861,11.33858"
       style="fill:none;stroke:#000000;stroke-width:0.99213;stroke-linecap:round;stroke-linejoin:round;stroke-miterlimit:10;stroke-dasharray:none;stroke-opacity:1"
       id="path24" /><path
       d="m 128.85129,25.60603 c 0,3.13108 -2.53823,5.6693 -5.6693,5.6693 m 0,0 c -3.13106,0 -5.66928,-2.53822 -5.66928,-5.6693 m 0,0 c 0,-3.13105 2.53822,-5.66928 5.66928,-5.66928 m 0,0 c 3.13107,0 5.6693,2.53823 5.6693,5.66928"
       style="fill:none;stroke:#000000;stroke-width:0.99213;stroke-linecap:round;stroke-linejoin:round;stroke-miterlimit:10;stroke-dasharray:none;stroke-opacity:1"
       id="path26" /><path
       d="m 123.18199,66.99187 v 3.9685 m 0,-3.9685 10.23638,-0.97478 -10.23638,-0.97479 -10.23634,-0.97478 10.23634,-0.97479 10.23638,-0.97478 -10.23638,-0.97478 -10.23634,-0.97479 10.23634,-0.97478 10.23638,-0.97477 -10.23638,-0.9748 -10.23634,-0.97477 10.23634,-0.97478 10.23638,-0.97479 -10.23638,-0.97478 -10.23634,-0.97478 10.23634,-0.97479 10.23638,-0.97478 -10.23638,-0.97477 -10.23634,-0.9748 10.23634,-0.97477 10.23638,-0.9748 -10.23638,-0.97477 -10.23634,-0.97478 10.23634,-0.97479 10.23638,-0.97478 -10.23638,-0.97478 -10.23634,-0.97479 10.23634,-0.97478 10.23638,-0.97477 -10.23638,-0.9748 -10.23634,-0.97477 10.23634,-0.97478 v -4.5235 m 0,98.07873 v 3.96851 m 0,-3.96851 10.23638,-0.97476 -10.23638,-0.97479 -10.23634,-0.97479 10.23634,-0.97478 10.23638,-0.97478 -10.23638,-0.97479 -10.23634,-0.97478 10.23634,-0.97477 10.23638,-0.9748 -10.23638,-0.97477 -10.23634,-0.9748 10.23634,-0.97477 10.23638,-0.97478 -10.23638,-0.97479 -10.23634,-0.97478"
       style="fill:none;stroke:#000000;stroke-width:0.3685;stroke-linecap:round;stroke-linejoin:round;stroke-miterlimit:10;stroke-dasharray:none;stroke-opacity:1"
       id="path28" /><path
       d="m 112.94565,114.73233 10.23634,-0.97478 10.23638,-0.97479 -10.23638,-0.97478 -10.23634,-0.97477 10.23634,-0.9748 10.23638,-0.97477 -10.23638,-0.97478 -10.23634,-0.97479 10.23634,-0.97478 10.23638,-0.97478 -10.23638,-0.97479 -10.23634,-0.97478 10.23634,-0.97477 10.23638,-0.9748 -10.23638,-0.97477 -10.23634,-0.9748 10.23634,-0.97477 v -4.5235"
       style="fill:none;stroke:#000000;stroke-width:0.3685;stroke-linecap:round;stroke-linejoin:round;stroke-miterlimit:10;stroke-dasharray:none;stroke-opacity:1"
       id="path30" /><path
       d="m 94.83554,133.32257 h 56.69293"
       style="fill:none;stroke:#000000;stroke-width:0.85039;stroke-linecap:round;stroke-linejoin:round;stroke-miterlimit:10;stroke-dasharray:none;stroke-opacity:1"
       id="path32" /><path
       d="M 93.98515,82.29895 V 71.5273 m 0,5.95276 v 0.4252 m 0,-6.37796 v 0 l 0.85039,5.95276 h -1.70077 l 0.85038,-5.95276"
       style="fill:none;stroke:#000000;stroke-width:0.28346;stroke-linecap:round;stroke-linejoin:round;stroke-miterlimit:10;stroke-dasharray:none;stroke-opacity:1"
       id="path34" /><path
       d="m 93.13477,77.48006 0.85038,-5.95276 0.85039,5.95276 z"
       style="fill:#000000;fill-opacity:1;fill-rule:nonzero;stroke:none"
       id="path36" /><path
       d="M 93.98515,25.60603 V 14.83438 m 0,5.95276 v 0.4252 m 0,-6.37796 v 0 l 0.85039,5.95276 h -1.70077 l 0.85038,-5.95276"
       style="fill:none;stroke:#000000;stroke-width:0.28346;stroke-linecap:round;stroke-linejoin:round;stroke-miterlimit:10;stroke-dasharray:none;stroke-opacity:1"
       id="path38" /><path
       d="m 93.13477,20.78714 0.85038,-5.95276 0.85039,5.95276 z"
       style="fill:#000000;fill-opacity:1;fill-rule:nonzero;stroke:none"
       id="path40" /><path
       d="m 90.44185,82.29895 h 32.74014 M 90.44185,25.60603 h 32.74014"
       style="fill:none;stroke:#000000;stroke-width:0.28346;stroke-linecap:round;stroke-linejoin:round;stroke-miterlimit:10;stroke-dasharray:none;stroke-opacity:1"
       id="path42" /><path
       d="m 230.3316,82.29895 c 0,6.26213 -5.07644,11.33858 -11.33859,11.33858 m 0,0 c -6.26211,0 -11.33856,-5.07645 -11.33856,-11.33858 m 0,0 c 0,-6.26213 5.07645,-11.33858 11.33856,-11.33858 m 0,0 c 6.26215,0 11.33859,5.07645 11.33859,11.33858"
       style="fill:none;stroke:#000000;stroke-width:0.99213;stroke-linecap:round;stroke-linejoin:round;stroke-miterlimit:10;stroke-dasharray:none;stroke-opacity:1"
       id="path44" /><path
       d="m 218.99301,129.35406 v 3.96851 m 0,-3.96851 10.23636,-0.97476 -10.23636,-0.97479 -10.23633,-0.97479 10.23633,-0.97478 10.23636,-0.97478 -10.23636,-0.97479 -10.23633,-0.97478 10.23633,-0.97477 10.23636,-0.9748 -10.23636,-0.97477 -10.23633,-0.9748 10.23633,-0.97477 10.23636,-0.97478 -10.23636,-0.97479 -10.23633,-0.97478 10.23633,-0.97478 10.23636,-0.97479 -10.23636,-0.97478 -10.23633,-0.97477 10.23633,-0.9748 10.23636,-0.97477 -10.23636,-0.97478 -10.23633,-0.97479 10.23633,-0.97478 10.23636,-0.97478 -10.23636,-0.97479 -10.23633,-0.97478 10.23633,-0.97477 10.23636,-0.9748 -10.23636,-0.97477 -10.23633,-0.9748 10.23633,-0.97477 v -4.5235"
       style="fill:none;stroke:#000000;stroke-width:0.3685;stroke-linecap:round;stroke-linejoin:round;stroke-miterlimit:10;stroke-dasharray:none;stroke-opacity:1"
       id="path46" /><path
       d="m 190.64658,133.32257 h 56.6929"
       style="fill:none;stroke:#000000;stroke-width:0.85039;stroke-linecap:round;stroke-linejoin:round;stroke-miterlimit:10;stroke-dasharray:none;stroke-opacity:1"
       id="path48" /><path
       d="m 224.66232,17.66904 c 0,3.13105 -2.53824,5.66928 -5.66931,5.66928 m 0,0 c -3.13104,0 -5.66928,-2.53823 -5.66928,-5.66928 m 0,0 c 0,-3.13108 2.53824,-5.6693 5.66928,-5.6693 m 0,0 c 3.13107,0 5.66931,2.53822 5.66931,5.6693"
       style="fill:none;stroke:#000000;stroke-width:0.99213;stroke-linecap:round;stroke-linejoin:round;stroke-miterlimit:10;stroke-dasharray:none;stroke-opacity:1"
       id="path50" /><path
       d="m 218.99301,66.19817 v 4.7622 m 0,-4.7622 10.23636,-1.16974 -10.23636,-1.16974 -10.23633,-1.16974 10.23633,-1.16974 10.23636,-1.16974 -10.23636,-1.16974 -10.23633,-1.16974 10.23633,-1.16973 10.23636,-1.16974 -10.23636,-1.16974 -10.23633,-1.16974 10.23633,-1.16974 10.23636,-1.16974 -10.23636,-1.16974 -10.23633,-1.16974 10.23633,-1.16973 10.23636,-1.16974 -10.23636,-1.16976 -10.23633,-1.16974 10.23633,-1.16973 10.23636,-1.16974 -10.23636,-1.16974 -10.23633,-1.16974 10.23633,-1.16974 10.23636,-1.16974 -10.23636,-1.16974 -10.23633,-1.16974 10.23633,-1.16973 10.23636,-1.16974 -10.23636,-1.16974 -10.23633,-1.16974 10.23633,-1.16974 v -5.42819"
       style="fill:none;stroke:#000000;stroke-width:0.3685;stroke-linecap:round;stroke-linejoin:round;stroke-miterlimit:10;stroke-dasharray:none;stroke-opacity:1"
       id="path52" /><path
       d="m 311.11899,82.29895 c 0,6.26213 -5.07645,11.33858 -11.33856,11.33858 m 0,0 c -6.26215,0 -11.3386,-5.07645 -11.3386,-11.33858 m 0,0 c 0,-6.26213 5.07645,-11.33858 11.3386,-11.33858 m 0,0 c 6.26211,0 11.33856,5.07645 11.33856,11.33858"
       style="fill:none;stroke:#000000;stroke-width:0.99213;stroke-linecap:round;stroke-linejoin:round;stroke-miterlimit:10;stroke-dasharray:none;stroke-opacity:1"
       id="path54" /><path
       d="m 305.44971,17.66904 c 0,3.13105 -2.53824,5.66928 -5.66928,5.66928 m 0,0 c -3.13108,0 -5.66932,-2.53823 -5.66932,-5.66928 m 0,0 c 0,-3.13108 2.53824,-5.6693 5.66932,-5.6693 m 0,0 c 3.13104,0 5.66928,2.53822 5.66928,5.6693"
       style="fill:none;stroke:#000000;stroke-width:0.99213;stroke-linecap:round;stroke-linejoin:round;stroke-miterlimit:10;stroke-dasharray:none;stroke-opacity:1"
       id="path56" /><path
       d="m 224.66232,25.60603 -0.43155,2.16954 -1.13333,1.69614 m -2.37668,1.45995 -1.72775,0.34367 -2.16952,-0.43155 -0.23145,-0.15465 m -2.10834,-1.82341 -0.72842,-1.09015 -0.43155,-2.16954 0.14218,-0.71481 m 1.04016,-2.57838 0.47815,-0.7156 1.83927,-1.22894 1.15661,-0.23007 m 2.78018,0.15004 0.40229,0.08003 1.83926,1.22894 0.90543,1.35509"
       style="fill:none;stroke:#000000;stroke-width:0.3685;stroke-linecap:round;stroke-linejoin:round;stroke-miterlimit:10;stroke-dasharray:none;stroke-opacity:1"
       id="path58" /><path
       d="M 189.79617,82.29895 V 71.5273 m 0,5.95276 v 0.4252 m 0,-6.37796 v 0 l 0.85041,5.95276 h -1.70078 l 0.85037,-5.95276"
       style="fill:none;stroke:#000000;stroke-width:0.28346;stroke-linecap:round;stroke-linejoin:round;stroke-miterlimit:10;stroke-dasharray:none;stroke-opacity:1"
       id="path60" /><path
       d="m 188.9458,77.48006 0.85037,-5.95276 0.85041,5.95276 z"
       style="fill:#000000;fill-opacity:1;fill-rule:nonzero;stroke:none"
       id="path62" /><path
       d="M 189.79617,25.60603 V 14.83438 m 0,5.95276 v 0.4252 m 0,-6.37796 v 0 l 0.85041,5.95276 h -1.70078 l 0.85037,-5.95276"
       style="fill:none;stroke:#000000;stroke-width:0.28346;stroke-linecap:round;stroke-linejoin:round;stroke-miterlimit:10;stroke-dasharray:none;stroke-opacity:1"
       id="path64" /><path
       d="m 188.9458,20.78714 0.85037,-5.95276 0.85041,5.95276 z"
       style="fill:#000000;fill-opacity:1;fill-rule:nonzero;stroke:none"
       id="path66" /><path
       d="m 186.25287,82.29895 h 32.74014 M 186.25287,25.60603 h 32.74014"
       style="fill:none;stroke:#000000;stroke-width:0.28346;stroke-linecap:round;stroke-linejoin:round;stroke-miterlimit:10;stroke-dasharray:none;stroke-opacity:1"
       id="path68" /><path
       d="M 299.78043,67.27533 V 53.1021 m 0,5.45669 v 0.38977 m 0,-5.84646 v 0 l 0.77951,5.45669 h -1.55905 l 0.77954,-5.45669"
       style="fill:none;stroke:#00b300;stroke-width:0.28346;stroke-linecap:round;stroke-linejoin:round;stroke-miterlimit:10;stroke-dasharray:none;stroke-opacity:1"
       id="path70" /><path
       d="m 299.00089,58.55879 0.77954,-5.45669 0.77951,5.45669 z"
       style="fill:#00b300;fill-opacity:1;fill-rule:nonzero;stroke:none"
       id="path72" /><path
       d="m 304.88278,28.44069 v 14.17322 m 0,-5.4567 v -0.38975 m 0,5.84645 v 0 l -0.77954,-5.4567 h 1.55905 l -0.77951,5.4567"
       style="fill:none;stroke:#00b300;stroke-width:0.28346;stroke-linecap:round;stroke-linejoin:round;stroke-miterlimit:10;stroke-dasharray:none;stroke-opacity:1"
       id="path74" /><path
       d="m 305.66229,37.15721 -0.77951,5.4567 -0.77954,-5.4567 z"
       style="fill:#00b300;fill-opacity:1;fill-rule:nonzero;stroke:none"
       id="path76" /><path
       d="m 294.67804,28.44069 v 14.17322 m 0,-5.4567 v -0.38975 m 0,5.84645 v 0 l -0.77951,-5.4567 h 1.55905 l -0.77954,5.4567"
       style="fill:none;stroke:#ff0000;stroke-width:0.28346;stroke-linecap:round;stroke-linejoin:round;stroke-miterlimit:10;stroke-dasharray:none;stroke-opacity:1"
       id="path78" /><path
       d="m 295.45758,37.15721 -0.77954,5.4567 -0.77951,-5.4567 z"
       style="fill:#ff0000;fill-opacity:1;fill-rule:nonzero;stroke:none"
       id="path80" /><g
       id="g82"><g
         id="g84"
         clip-path="url(#clipPath88)"><text
           transform="matrix(1,0,0,-1,138.91405,48.43821)"
           style="font-style:italic;font-variant:normal;font-weight:normal;font-stretch:normal;font-size:11.0078px;font-family:'Palatino Linotype';-inkscape-font-specification:PalatinoLinotype-Italic;writing-mode:lr-tb;fill:#000000;fill-opacity:1;fill-rule:nonzero;stroke:none"
           id="text92"><tspan
             x="0"
             y="0"
             id="tspan90">k</tspan></text></g></g><g
       id="g94"><g
         id="g96"
         clip-path="url(#clipPath100)"><text
           transform="matrix(1,0,0,-1,145.21109,43.89096)"
           style="font-style:italic;font-variant:normal;font-weight:normal;font-stretch:normal;font-size:6.6047px;font-family:'Palatino Linotype';-inkscape-font-specification:PalatinoLinotype-Italic;writing-mode:lr-tb;fill:#000000;fill-opacity:1;fill-rule:nonzero;stroke:none"
           id="text104"><tspan
             x="0"
             y="0"
             id="tspan102">T</tspan></text></g></g><g
       id="g106"><g
         id="g108"
         clip-path="url(#clipPath112)"><text
           transform="matrix(1,0,0,-1,138.91405,110.80041)"
           style="font-style:italic;font-variant:normal;font-weight:normal;font-stretch:normal;font-size:11.0078px;font-family:'Palatino Linotype';-inkscape-font-specification:PalatinoLinotype-Italic;writing-mode:lr-tb;fill:#000000;fill-opacity:1;fill-rule:nonzero;stroke:none"
           id="text116"><tspan
             x="0"
             y="0"
             id="tspan114">k</tspan></text></g></g><g
       id="g118"><g
         id="g120"
         clip-path="url(#clipPath124)"><text
           transform="matrix(1,0,0,-1,145.21109,106.25317)"
           style="font-style:italic;font-variant:normal;font-weight:normal;font-stretch:normal;font-size:6.6047px;font-family:'Palatino Linotype';-inkscape-font-specification:PalatinoLinotype-Italic;writing-mode:lr-tb;fill:#000000;fill-opacity:1;fill-rule:nonzero;stroke:none"
           id="text128"><tspan
             x="0"
             y="0"
             id="tspan126">H</tspan></text></g></g><g
       id="g130"><g
         id="g132"
         clip-path="url(#clipPath136)"><text
           transform="matrix(1,0,0,-1,234.72508,48.43821)"
           style="font-style:italic;font-variant:normal;font-weight:normal;font-stretch:normal;font-size:11.0078px;font-family:'Palatino Linotype';-inkscape-font-specification:PalatinoLinotype-Italic;writing-mode:lr-tb;fill:#000000;fill-opacity:1;fill-rule:nonzero;stroke:none"
           id="text140"><tspan
             x="0"
             y="0"
             id="tspan138">k</tspan></text></g></g><g
       id="g142"><g
         id="g144"
         clip-path="url(#clipPath148)"><text
           transform="matrix(1,0,0,-1,241.02211,43.89096)"
           style="font-style:italic;font-variant:normal;font-weight:normal;font-stretch:normal;font-size:6.6047px;font-family:'Palatino Linotype';-inkscape-font-specification:PalatinoLinotype-Italic;writing-mode:lr-tb;fill:#000000;fill-opacity:1;fill-rule:nonzero;stroke:none"
           id="text152"><tspan
             x="0"
             y="0"
             id="tspan150">T</tspan></text></g></g><g
       id="g154"><g
         id="g156"
         clip-path="url(#clipPath160)"><text
           transform="matrix(1,0,0,-1,234.72508,110.80041)"
           style="font-style:italic;font-variant:normal;font-weight:normal;font-stretch:normal;font-size:11.0078px;font-family:'Palatino Linotype';-inkscape-font-specification:PalatinoLinotype-Italic;writing-mode:lr-tb;fill:#000000;fill-opacity:1;fill-rule:nonzero;stroke:none"
           id="text164"><tspan
             x="0"
             y="0"
             id="tspan162">k</tspan></text></g></g><g
       id="g166"><g
         id="g168"
         clip-path="url(#clipPath172)"><text
           transform="matrix(1,0,0,-1,241.02211,106.25317)"
           style="font-style:italic;font-variant:normal;font-weight:normal;font-stretch:normal;font-size:6.6047px;font-family:'Palatino Linotype';-inkscape-font-specification:PalatinoLinotype-Italic;writing-mode:lr-tb;fill:#000000;fill-opacity:1;fill-rule:nonzero;stroke:none"
           id="text176"><tspan
             x="0"
             y="0"
             id="tspan174">H</tspan></text></g></g><g
       id="g178"><g
         id="g180"
         clip-path="url(#clipPath184)"><text
           transform="matrix(1,0,0,-1,94.94162,95.5972)"
           style="font-style:italic;font-variant:normal;font-weight:normal;font-stretch:normal;font-size:11.0078px;font-family:'Palatino Linotype';-inkscape-font-specification:PalatinoLinotype-Italic;writing-mode:lr-tb;fill:#000000;fill-opacity:1;fill-rule:nonzero;stroke:none"
           id="text188"><tspan
             x="0"
             y="0"
             id="tspan186">M</tspan></text></g></g><g
       id="g190"><g
         id="g192"
         clip-path="url(#clipPath196)"><text
           transform="matrix(1,0,0,-1,105.65045,91.04995)"
           style="font-style:italic;font-variant:normal;font-weight:normal;font-stretch:normal;font-size:6.6047px;font-family:'Palatino Linotype';-inkscape-font-specification:PalatinoLinotype-Italic;writing-mode:lr-tb;fill:#000000;fill-opacity:1;fill-rule:nonzero;stroke:none"
           id="text200"><tspan
             x="0"
             y="0"
             id="tspan198">H</tspan></text></g></g><g
       id="g202"><g
         id="g204"
         clip-path="url(#clipPath208)"><text
           transform="matrix(1,0,0,-1,94.94162,38.90429)"
           style="font-style:italic;font-variant:normal;font-weight:normal;font-stretch:normal;font-size:11.0078px;font-family:'Palatino Linotype';-inkscape-font-specification:PalatinoLinotype-Italic;writing-mode:lr-tb;fill:#000000;fill-opacity:1;fill-rule:nonzero;stroke:none"
           id="text212"><tspan
             x="0"
             y="0"
             id="tspan210">M</tspan></text></g></g><g
       id="g214"><g
         id="g216"
         clip-path="url(#clipPath220)"><text
           transform="matrix(1,0,0,-1,105.65045,34.35704)"
           style="font-style:italic;font-variant:normal;font-weight:normal;font-stretch:normal;font-size:6.6047px;font-family:'Palatino Linotype';-inkscape-font-specification:PalatinoLinotype-Italic;writing-mode:lr-tb;fill:#000000;fill-opacity:1;fill-rule:nonzero;stroke:none"
           id="text224"><tspan
             x="0"
             y="0"
             id="tspan222">T</tspan></text></g></g><g
       id="g226"><g
         id="g228"
         clip-path="url(#clipPath232)"><text
           transform="matrix(1,0,0,-1,89.50202,63.7347)"
           style="font-style:italic;font-variant:normal;font-weight:normal;font-stretch:normal;font-size:11.0078px;font-family:'Palatino Linotype';-inkscape-font-specification:PalatinoLinotype-Italic;writing-mode:lr-tb;fill:#000000;fill-opacity:1;fill-rule:nonzero;stroke:none"
           id="text236"><tspan
             x="0"
             y="0"
             id="tspan234">u</tspan></text></g></g><g
       id="g238"><g
         id="g240"
         clip-path="url(#clipPath244)"><text
           transform="matrix(1,0,0,-1,96.32979,59.18745)"
           style="font-style:italic;font-variant:normal;font-weight:normal;font-stretch:normal;font-size:6.6047px;font-family:'Palatino Linotype';-inkscape-font-specification:PalatinoLinotype-Italic;writing-mode:lr-tb;fill:#000000;fill-opacity:1;fill-rule:nonzero;stroke:none"
           id="text248"><tspan
             x="0"
             y="0"
             id="tspan246">H</tspan></text></g></g><g
       id="g250"><g
         id="g252"
         clip-path="url(#clipPath256)"><text
           transform="matrix(1,0,0,-1,89.50202,7.04178)"
           style="font-style:italic;font-variant:normal;font-weight:normal;font-stretch:normal;font-size:11.0078px;font-family:'Palatino Linotype';-inkscape-font-specification:PalatinoLinotype-Italic;writing-mode:lr-tb;fill:#000000;fill-opacity:1;fill-rule:nonzero;stroke:none"
           id="text260"><tspan
             x="0"
             y="0"
             id="tspan258">u</tspan></text></g></g><g
       id="g262"><g
         id="g264"
         clip-path="url(#clipPath268)"><text
           transform="matrix(1,0,0,-1,96.32979,2.49454)"
           style="font-style:italic;font-variant:normal;font-weight:normal;font-stretch:normal;font-size:6.6047px;font-family:'Palatino Linotype';-inkscape-font-specification:PalatinoLinotype-Italic;writing-mode:lr-tb;fill:#000000;fill-opacity:1;fill-rule:nonzero;stroke:none"
           id="text272"><tspan
             x="0"
             y="0"
             id="tspan270">T</tspan></text></g></g><g
       id="g274"><g
         id="g276"
         clip-path="url(#clipPath280)"><text
           transform="matrix(1,0,0,-1,185.31304,63.7347)"
           style="font-style:italic;font-variant:normal;font-weight:normal;font-stretch:normal;font-size:11.0078px;font-family:'Palatino Linotype';-inkscape-font-specification:PalatinoLinotype-Italic;writing-mode:lr-tb;fill:#000000;fill-opacity:1;fill-rule:nonzero;stroke:none"
           id="text284"><tspan
             x="0"
             y="0"
             id="tspan282">u</tspan></text></g></g><g
       id="g286"><g
         id="g288"
         clip-path="url(#clipPath292)"><text
           transform="matrix(1,0,0,-1,192.14082,59.18745)"
           style="font-style:italic;font-variant:normal;font-weight:normal;font-stretch:normal;font-size:6.6047px;font-family:'Palatino Linotype';-inkscape-font-specification:PalatinoLinotype-Italic;writing-mode:lr-tb;fill:#000000;fill-opacity:1;fill-rule:nonzero;stroke:none"
           id="text296"><tspan
             x="0"
             y="0"
             id="tspan294">H</tspan></text></g></g><g
       id="g298"><g
         id="g300"
         clip-path="url(#clipPath304)"><text
           transform="matrix(1,0,0,-1,185.31304,7.04178)"
           style="font-style:italic;font-variant:normal;font-weight:normal;font-stretch:normal;font-size:11.0078px;font-family:'Palatino Linotype';-inkscape-font-specification:PalatinoLinotype-Italic;writing-mode:lr-tb;fill:#000000;fill-opacity:1;fill-rule:nonzero;stroke:none"
           id="text308"><tspan
             x="0"
             y="0"
             id="tspan306">u</tspan></text></g></g><g
       id="g310"><g
         id="g312"
         clip-path="url(#clipPath316)"><text
           transform="matrix(1,0,0,-1,192.14082,2.49454)"
           style="font-style:italic;font-variant:normal;font-weight:normal;font-stretch:normal;font-size:6.6047px;font-family:'Palatino Linotype';-inkscape-font-specification:PalatinoLinotype-Italic;writing-mode:lr-tb;fill:#000000;fill-opacity:1;fill-rule:nonzero;stroke:none"
           id="text320"><tspan
             x="0"
             y="0"
             id="tspan318">T</tspan></text></g></g><g
       id="g322"><g
         id="g324"
         clip-path="url(#clipPath328)"><text
           transform="matrix(1,0,0,-1,190.53738,92.70766)"
           style="font-style:italic;font-variant:normal;font-weight:normal;font-stretch:normal;font-size:11.0078px;font-family:'Palatino Linotype';-inkscape-font-specification:PalatinoLinotype-Italic;writing-mode:lr-tb;fill:#000000;fill-opacity:1;fill-rule:nonzero;stroke:none"
           id="text332"><tspan
             x="0"
             y="0"
             id="tspan330">M</tspan></text></g></g><g
       id="g334"><g
         id="g336"
         clip-path="url(#clipPath340)"><text
           transform="matrix(1,0,0,-1,201.24622,88.16043)"
           style="font-style:italic;font-variant:normal;font-weight:normal;font-stretch:normal;font-size:6.6047px;font-family:'Palatino Linotype';-inkscape-font-specification:PalatinoLinotype-Italic;writing-mode:lr-tb;fill:#000000;fill-opacity:1;fill-rule:nonzero;stroke:none"
           id="text344"><tspan
             x="0"
             y="0"
             id="tspan342">H</tspan></text></g></g><g
       id="g346"><g
         id="g348"
         clip-path="url(#clipPath352)"><text
           transform="matrix(1,0,0,-1,190.53738,36.01476)"
           style="font-style:italic;font-variant:normal;font-weight:normal;font-stretch:normal;font-size:11.0078px;font-family:'Palatino Linotype';-inkscape-font-specification:PalatinoLinotype-Italic;writing-mode:lr-tb;fill:#000000;fill-opacity:1;fill-rule:nonzero;stroke:none"
           id="text356"><tspan
             x="0"
             y="0"
             id="tspan354">M</tspan></text></g></g><g
       id="g358"><g
         id="g360"
         clip-path="url(#clipPath364)"><text
           transform="matrix(1,0,0,-1,201.24622,31.46751)"
           style="font-style:italic;font-variant:normal;font-weight:normal;font-stretch:normal;font-size:6.6047px;font-family:'Palatino Linotype';-inkscape-font-specification:PalatinoLinotype-Italic;writing-mode:lr-tb;fill:#000000;fill-opacity:1;fill-rule:nonzero;stroke:none"
           id="text368"><tspan
             x="0"
             y="0"
             id="tspan366">T</tspan></text></g></g><g
       id="g370"><g
         id="g372"
         clip-path="url(#clipPath376)"><text
           transform="matrix(1,0,0,-1,255.58648,29.29322)"
           style="font-style:italic;font-variant:normal;font-weight:normal;font-stretch:normal;font-size:11.0078px;font-family:'Palatino Linotype';-inkscape-font-specification:PalatinoLinotype-Italic;writing-mode:lr-tb;fill:#ff0000;fill-opacity:1;fill-rule:nonzero;stroke:none"
           id="text380"><tspan
             x="0"
             y="0"
             id="tspan378">M</tspan></text></g></g><g
       id="g382"><g
         id="g384"
         clip-path="url(#clipPath388)"><text
           transform="matrix(1,0,0,-1,266.29531,24.74598)"
           style="font-style:italic;font-variant:normal;font-weight:normal;font-stretch:normal;font-size:6.6047px;font-family:'Palatino Linotype';-inkscape-font-specification:PalatinoLinotype-Italic;writing-mode:lr-tb;fill:#ff0000;fill-opacity:1;fill-rule:nonzero;stroke:none"
           id="text392"><tspan
             x="0 5.1384568"
             y="0"
             id="tspan390">H </tspan></text></g></g><g
       id="g394"><g
         id="g396"
         clip-path="url(#clipPath400)"><text
           transform="matrix(1,0,0,-1,273.64608,29.29322)"
           style="font-style:italic;font-variant:normal;font-weight:normal;font-stretch:normal;font-size:11.0078px;font-family:'Palatino Linotype';-inkscape-font-specification:PalatinoLinotype-Italic;writing-mode:lr-tb;fill:#ff0000;fill-opacity:1;fill-rule:nonzero;stroke:none"
           id="text404"><tspan
             x="0"
             y="0"
             id="tspan402">u</tspan></text></g></g><g
       id="g406"><g
         id="g408"
         clip-path="url(#clipPath412)"><text
           transform="matrix(1,0,0,-1,280.47386,29.29322)"
           style="font-variant:normal;font-weight:normal;font-stretch:normal;font-size:11.6776px;font-family:'Cambria Math';-inkscape-font-specification:CambriaMath;writing-mode:lr-tb;fill:#ff0000;fill-opacity:1;fill-rule:nonzero;stroke:none"
           id="text416"><tspan
             x="0 3.0128312"
             y="0"
             id="tspan414">′′</tspan></text></g></g><g
       id="g418"><g
         id="g420"
         clip-path="url(#clipPath424)"><text
           transform="matrix(1,0,0,-1,286.51591,24.74598)"
           style="font-style:italic;font-variant:normal;font-weight:normal;font-stretch:normal;font-size:6.6047px;font-family:'Palatino Linotype';-inkscape-font-specification:PalatinoLinotype-Italic;writing-mode:lr-tb;fill:#ff0000;fill-opacity:1;fill-rule:nonzero;stroke:none"
           id="text428"><tspan
             x="0"
             y="0"
             id="tspan426">H</tspan></text></g></g><g
       id="g430"><g
         id="g432"
         clip-path="url(#clipPath436)"><text
           transform="matrix(1,0,0,-1,309.59246,29.29322)"
           style="font-style:italic;font-variant:normal;font-weight:normal;font-stretch:normal;font-size:11.0078px;font-family:'Palatino Linotype';-inkscape-font-specification:PalatinoLinotype-Italic;writing-mode:lr-tb;fill:#00b300;fill-opacity:1;fill-rule:nonzero;stroke:none"
           id="text440"><tspan
             x="0"
             y="0"
             id="tspan438">k</tspan></text></g></g><g
       id="g442"><g
         id="g444"
         clip-path="url(#clipPath448)"><text
           transform="matrix(1,0,0,-1,315.8895,24.74598)"
           style="font-style:italic;font-variant:normal;font-weight:normal;font-stretch:normal;font-size:6.6047px;font-family:'Palatino Linotype';-inkscape-font-specification:PalatinoLinotype-Italic;writing-mode:lr-tb;fill:#00b300;fill-opacity:1;fill-rule:nonzero;stroke:none"
           id="text452"><tspan
             x="0 4.0354719"
             y="0"
             id="tspan450">T </tspan></text></g></g><g
       id="g454"><g
         id="g456"
         clip-path="url(#clipPath460)"><text
           transform="matrix(1,0,0,-1,321.75088,29.29322)"
           style="font-style:italic;font-variant:normal;font-weight:normal;font-stretch:normal;font-size:11.0078px;font-family:'Palatino Linotype';-inkscape-font-specification:PalatinoLinotype-Italic;writing-mode:lr-tb;fill:#00b300;fill-opacity:1;fill-rule:nonzero;stroke:none"
           id="text464"><tspan
             x="0"
             y="0"
             id="tspan462">u</tspan></text></g></g><g
       id="g466"><g
         id="g468"
         clip-path="url(#clipPath472)"><text
           transform="matrix(1,0,0,-1,328.57867,24.74598)"
           style="font-style:italic;font-variant:normal;font-weight:normal;font-stretch:normal;font-size:6.6047px;font-family:'Palatino Linotype';-inkscape-font-specification:PalatinoLinotype-Italic;writing-mode:lr-tb;fill:#00b300;fill-opacity:1;fill-rule:nonzero;stroke:none"
           id="text476"><tspan
             x="0"
             y="0"
             id="tspan474">H</tspan></text></g></g><g
       id="g478"><g
         id="g480"
         clip-path="url(#clipPath484)"><text
           transform="matrix(1,0,0,-1,304.49011,59.48499)"
           style="font-style:italic;font-variant:normal;font-weight:normal;font-stretch:normal;font-size:11.0078px;font-family:'Palatino Linotype';-inkscape-font-specification:PalatinoLinotype-Italic;writing-mode:lr-tb;fill:#00b300;fill-opacity:1;fill-rule:nonzero;stroke:none"
           id="text488"><tspan
             x="0"
             y="0"
             id="tspan486">k</tspan></text></g></g><g
       id="g490"><g
         id="g492"
         clip-path="url(#clipPath496)"><text
           transform="matrix(1,0,0,-1,310.78713,54.93774)"
           style="font-style:italic;font-variant:normal;font-weight:normal;font-stretch:normal;font-size:6.6047px;font-family:'Palatino Linotype';-inkscape-font-specification:PalatinoLinotype-Italic;writing-mode:lr-tb;fill:#00b300;fill-opacity:1;fill-rule:nonzero;stroke:none"
           id="text500"><tspan
             x="0 4.0354719"
             y="0"
             id="tspan498">T </tspan></text></g></g><g
       id="g502"><g
         id="g504"
         clip-path="url(#clipPath508)"><text
           transform="matrix(1,0,0,-1,316.64853,59.48499)"
           style="font-style:italic;font-variant:normal;font-weight:normal;font-stretch:normal;font-size:11.0078px;font-family:'Palatino Linotype';-inkscape-font-specification:PalatinoLinotype-Italic;writing-mode:lr-tb;fill:#00b300;fill-opacity:1;fill-rule:nonzero;stroke:none"
           id="text512"><tspan
             x="0"
             y="0"
             id="tspan510">u</tspan></text></g></g><g
       id="g514"><g
         id="g516"
         clip-path="url(#clipPath520)"><text
           transform="matrix(1,0,0,-1,323.4763,54.93774)"
           style="font-style:italic;font-variant:normal;font-weight:normal;font-stretch:normal;font-size:6.6047px;font-family:'Palatino Linotype';-inkscape-font-specification:PalatinoLinotype-Italic;writing-mode:lr-tb;fill:#00b300;fill-opacity:1;fill-rule:nonzero;stroke:none"
           id="text524"><tspan
             x="0"
             y="0"
             id="tspan522">H</tspan></text></g></g></g></svg>
