<?xml version="1.0" encoding="UTF-8" standalone="no"?>
<svg
   xmlns:dc="http://purl.org/dc/elements/1.1/"
   xmlns:cc="http://creativecommons.org/ns#"
   xmlns:rdf="http://www.w3.org/1999/02/22-rdf-syntax-ns#"
   xmlns:svg="http://www.w3.org/2000/svg"
   xmlns="http://www.w3.org/2000/svg"
   version="1.1"
   id="svg2"
   xml:space="preserve"
   width="566.92932"
   height="188.976"
   viewBox="0 0 566.92932 188.976"><metadata
     id="metadata8"><rdf:RDF><cc:Work
         rdf:about=""><dc:format>image/svg+xml</dc:format><dc:type
           rdf:resource="http://purl.org/dc/dcmitype/StillImage" /></cc:Work></rdf:RDF></metadata><defs
     id="defs6"><clipPath
       clipPathUnits="userSpaceOnUse"
       id="clipPath96"><path
         d="M -0.00426,-0.00142 V 141.7337 H 425.20111 V -0.00142 H -0.00426"
         clip-rule="evenodd"
         id="path94" /></clipPath><clipPath
       clipPathUnits="userSpaceOnUse"
       id="clipPath108"><path
         d="M -0.00426,-0.00142 V 141.7337 H 425.20111 V -0.00142 H -0.00426"
         clip-rule="evenodd"
         id="path106" /></clipPath><clipPath
       clipPathUnits="userSpaceOnUse"
       id="clipPath120"><path
         d="M -0.00426,-0.00142 V 141.7337 H 425.20111 V -0.00142 H -0.00426"
         clip-rule="evenodd"
         id="path118" /></clipPath><clipPath
       clipPathUnits="userSpaceOnUse"
       id="clipPath132"><path
         d="M -0.00426,-0.00142 V 141.7337 H 425.20111 V -0.00142 H -0.00426"
         clip-rule="evenodd"
         id="path130" /></clipPath><clipPath
       clipPathUnits="userSpaceOnUse"
       id="clipPath144"><path
         d="M -0.00426,-0.00142 V 141.7337 H 425.20111 V -0.00142 H -0.00426"
         clip-rule="evenodd"
         id="path142" /></clipPath><clipPath
       clipPathUnits="userSpaceOnUse"
       id="clipPath156"><path
         d="M -0.00426,-0.00142 V 141.7337 H 425.20111 V -0.00142 H -0.00426"
         clip-rule="evenodd"
         id="path154" /></clipPath><clipPath
       clipPathUnits="userSpaceOnUse"
       id="clipPath168"><path
         d="M -0.00426,-0.00142 V 141.7337 H 425.20111 V -0.00142 H -0.00426"
         clip-rule="evenodd"
         id="path166" /></clipPath><clipPath
       clipPathUnits="userSpaceOnUse"
       id="clipPath180"><path
         d="M -0.00426,-0.00142 V 141.7337 H 425.20111 V -0.00142 H -0.00426"
         clip-rule="evenodd"
         id="path178" /></clipPath><clipPath
       clipPathUnits="userSpaceOnUse"
       id="clipPath192"><path
         d="M -0.00426,-0.00142 V 141.7337 H 425.20111 V -0.00142 H -0.00426"
         clip-rule="evenodd"
         id="path190" /></clipPath><clipPath
       clipPathUnits="userSpaceOnUse"
       id="clipPath204"><path
         d="M -0.00426,-0.00142 V 141.7337 H 425.20111 V -0.00142 H -0.00426"
         clip-rule="evenodd"
         id="path202" /></clipPath><clipPath
       clipPathUnits="userSpaceOnUse"
       id="clipPath216"><path
         d="M -0.00426,-0.00142 V 141.7337 H 425.20111 V -0.00142 H -0.00426"
         clip-rule="evenodd"
         id="path214" /></clipPath><clipPath
       clipPathUnits="userSpaceOnUse"
       id="clipPath228"><path
         d="M -0.00426,-0.00142 V 141.7337 H 425.20111 V -0.00142 H -0.00426"
         clip-rule="evenodd"
         id="path226" /></clipPath><clipPath
       clipPathUnits="userSpaceOnUse"
       id="clipPath240"><path
         d="M -0.00426,-0.00142 V 141.7337 H 425.20111 V -0.00142 H -0.00426"
         clip-rule="evenodd"
         id="path238" /></clipPath><clipPath
       clipPathUnits="userSpaceOnUse"
       id="clipPath252"><path
         d="M -0.00426,-0.00142 V 141.7337 H 425.20111 V -0.00142 H -0.00426"
         clip-rule="evenodd"
         id="path250" /></clipPath><clipPath
       clipPathUnits="userSpaceOnUse"
       id="clipPath264"><path
         d="M -0.00426,-0.00142 V 141.7337 H 425.20111 V -0.00142 H -0.00426"
         clip-rule="evenodd"
         id="path262" /></clipPath><clipPath
       clipPathUnits="userSpaceOnUse"
       id="clipPath276"><path
         d="M -0.00426,-0.00142 V 141.7337 H 425.20111 V -0.00142 H -0.00426"
         clip-rule="evenodd"
         id="path274" /></clipPath><clipPath
       clipPathUnits="userSpaceOnUse"
       id="clipPath288"><path
         d="M -0.00426,-0.00142 V 141.7337 H 425.20111 V -0.00142 H -0.00426"
         clip-rule="evenodd"
         id="path286" /></clipPath><clipPath
       clipPathUnits="userSpaceOnUse"
       id="clipPath300"><path
         d="M -0.00426,-0.00142 V 141.7337 H 425.20111 V -0.00142 H -0.00426"
         clip-rule="evenodd"
         id="path298" /></clipPath><clipPath
       clipPathUnits="userSpaceOnUse"
       id="clipPath312"><path
         d="M -0.00426,-0.00142 V 141.7337 H 425.20111 V -0.00142 H -0.00426"
         clip-rule="evenodd"
         id="path310" /></clipPath><clipPath
       clipPathUnits="userSpaceOnUse"
       id="clipPath324"><path
         d="M -0.00426,-0.00142 V 141.7337 H 425.20111 V -0.00142 H -0.00426"
         clip-rule="evenodd"
         id="path322" /></clipPath><clipPath
       clipPathUnits="userSpaceOnUse"
       id="clipPath336"><path
         d="M -0.00426,-0.00142 V 141.7337 H 425.20111 V -0.00142 H -0.00426"
         clip-rule="evenodd"
         id="path334" /></clipPath><clipPath
       clipPathUnits="userSpaceOnUse"
       id="clipPath348"><path
         d="M -0.00426,-0.00142 V 141.7337 H 425.20111 V -0.00142 H -0.00426"
         clip-rule="evenodd"
         id="path346" /></clipPath><clipPath
       clipPathUnits="userSpaceOnUse"
       id="clipPath360"><path
         d="M -0.00426,-0.00142 V 141.7337 H 425.20111 V -0.00142 H -0.00426"
         clip-rule="evenodd"
         id="path358" /></clipPath><clipPath
       clipPathUnits="userSpaceOnUse"
       id="clipPath372"><path
         d="M -0.00426,-0.00142 V 141.7337 H 425.20111 V -0.00142 H -0.00426"
         clip-rule="evenodd"
         id="path370" /></clipPath><clipPath
       clipPathUnits="userSpaceOnUse"
       id="clipPath384"><path
         d="M -0.00426,-0.00142 V 141.7337 H 425.20111 V -0.00142 H -0.00426"
         clip-rule="evenodd"
         id="path382" /></clipPath><clipPath
       clipPathUnits="userSpaceOnUse"
       id="clipPath396"><path
         d="M -0.00426,-0.00142 V 141.7337 H 425.20111 V -0.00142 H -0.00426"
         clip-rule="evenodd"
         id="path394" /></clipPath><clipPath
       clipPathUnits="userSpaceOnUse"
       id="clipPath408"><path
         d="M -0.00426,-0.00142 V 141.7337 H 425.20111 V -0.00142 H -0.00426"
         clip-rule="evenodd"
         id="path406" /></clipPath><clipPath
       clipPathUnits="userSpaceOnUse"
       id="clipPath420"><path
         d="M -0.00426,-0.00142 V 141.7337 H 425.20111 V -0.00142 H -0.00426"
         clip-rule="evenodd"
         id="path418" /></clipPath><clipPath
       clipPathUnits="userSpaceOnUse"
       id="clipPath432"><path
         d="M -0.00426,-0.00142 V 141.7337 H 425.20111 V -0.00142 H -0.00426"
         clip-rule="evenodd"
         id="path430" /></clipPath><clipPath
       clipPathUnits="userSpaceOnUse"
       id="clipPath444"><path
         d="M -0.00426,-0.00142 V 141.7337 H 425.20111 V -0.00142 H -0.00426"
         clip-rule="evenodd"
         id="path442" /></clipPath><clipPath
       clipPathUnits="userSpaceOnUse"
       id="clipPath456"><path
         d="M -0.00426,-0.00142 V 141.7337 H 425.20111 V -0.00142 H -0.00426"
         clip-rule="evenodd"
         id="path454" /></clipPath><clipPath
       clipPathUnits="userSpaceOnUse"
       id="clipPath468"><path
         d="M -0.00426,-0.00142 V 141.7337 H 425.20111 V -0.00142 H -0.00426"
         clip-rule="evenodd"
         id="path466" /></clipPath><clipPath
       clipPathUnits="userSpaceOnUse"
       id="clipPath480"><path
         d="M -0.00426,-0.00142 V 141.7337 H 425.20111 V -0.00142 H -0.00426"
         clip-rule="evenodd"
         id="path478" /></clipPath><clipPath
       clipPathUnits="userSpaceOnUse"
       id="clipPath492"><path
         d="M -0.00426,-0.00142 V 141.7337 H 425.20111 V -0.00142 H -0.00426"
         clip-rule="evenodd"
         id="path490" /></clipPath><clipPath
       clipPathUnits="userSpaceOnUse"
       id="clipPath504"><path
         d="M -0.00426,-0.00142 V 141.7337 H 425.20111 V -0.00142 H -0.00426"
         clip-rule="evenodd"
         id="path502" /></clipPath><clipPath
       clipPathUnits="userSpaceOnUse"
       id="clipPath516"><path
         d="M -0.00426,-0.00142 V 141.7337 H 425.20111 V -0.00142 H -0.00426"
         clip-rule="evenodd"
         id="path514" /></clipPath><clipPath
       clipPathUnits="userSpaceOnUse"
       id="clipPath528"><path
         d="M -0.00426,-0.00142 V 141.7337 H 425.20111 V -0.00142 H -0.00426"
         clip-rule="evenodd"
         id="path526" /></clipPath><clipPath
       clipPathUnits="userSpaceOnUse"
       id="clipPath540"><path
         d="M -0.00426,-0.00142 V 141.7337 H 425.20111 V -0.00142 H -0.00426"
         clip-rule="evenodd"
         id="path538" /></clipPath><clipPath
       clipPathUnits="userSpaceOnUse"
       id="clipPath552"><path
         d="M -0.00426,-0.00142 V 141.7337 H 425.20111 V -0.00142 H -0.00426"
         clip-rule="evenodd"
         id="path550" /></clipPath><clipPath
       clipPathUnits="userSpaceOnUse"
       id="clipPath564"><path
         d="M -0.00426,-0.00142 V 141.7337 H 425.20111 V -0.00142 H -0.00426"
         clip-rule="evenodd"
         id="path562" /></clipPath><clipPath
       clipPathUnits="userSpaceOnUse"
       id="clipPath576"><path
         d="M -0.00426,-0.00142 V 141.7337 H 425.20111 V -0.00142 H -0.00426"
         clip-rule="evenodd"
         id="path574" /></clipPath><clipPath
       clipPathUnits="userSpaceOnUse"
       id="clipPath588"><path
         d="M -0.00426,-0.00142 V 141.7337 H 425.20111 V -0.00142 H -0.00426"
         clip-rule="evenodd"
         id="path586" /></clipPath></defs><g
     id="g10"
     transform="matrix(1.3333333,0,0,-1.3333333,0,188.976)"><path
       d="m 223.90277,28.44067 -0.56683,0.80951 -0.69876,0.69878 -0.80951,0.56682 -0.89563,0.41765 -0.95456,0.25576 -0.98447,0.08614 -0.98443,-0.08614 -0.95456,-0.25576 -0.89563,-0.41765 -0.80951,-0.56682 -0.69879,-0.69878 -0.56681,-0.80951 -0.41766,-0.89563 -0.25577,-0.95454 -0.0861,-0.98447 0.0861,-0.98446 0.25577,-0.95455 0.41766,-0.89563 0.56681,-0.80951 0.69879,-0.69877 0.80951,-0.56682 0.89563,-0.41765 0.95456,-0.25577 0.98443,-0.08613 0.98447,0.08613 0.95456,0.25577 0.89563,0.41765 0.80951,0.56682 0.69876,0.69877 0.56683,0.80951 0.41763,0.89563 0.25577,0.95455 0.0862,0.98446 -0.0862,0.98447 -0.25577,0.95454 z"
       style="fill:#dedede;fill-opacity:1;fill-rule:nonzero;stroke:none"
       id="path12" /><path
       d="m 228.81253,80.03123 -1.13364,1.61901 -1.39758,1.39757 -1.61899,1.13363 -1.79129,0.83528 -1.90909,0.51154 -1.96893,0.17226 -1.9689,-0.17226 -1.90912,-0.51154 -1.79126,-0.83528 -1.61902,-1.13363 -1.39755,-1.39757 -1.13364,-1.61901 -0.83529,-1.79127 -0.51154,-1.90909 -0.17224,-1.96893 0.17224,-1.96892 0.51154,-1.9091 0.83529,-1.79128 1.13364,-1.619 1.39755,-1.39755 1.61902,-1.13366 1.79126,-0.83528 1.90912,-0.51153 1.9689,-0.17226 1.96893,0.17226 1.90909,0.51153 1.79129,0.83528 1.61899,1.13366 1.39758,1.39755 1.13364,1.619 0.83527,1.79128 0.51153,1.9091 0.17227,1.96892 -0.17227,1.96893 -0.51153,1.90909 z"
       style="fill:#dedede;fill-opacity:1;fill-rule:nonzero;stroke:none"
       id="path14" /><path
       d="m 304.69016,28.44067 -0.56681,0.80951 -0.69879,0.69878 -0.80951,0.56682 -0.89563,0.41765 -0.95453,0.25576 -0.98446,0.08614 -0.98447,-0.08614 -0.95456,-0.25576 -0.89563,-0.41765 -0.80951,-0.56682 -0.69876,-0.69878 -0.56683,-0.80951 -0.41764,-0.89563 -0.25576,-0.95454 -0.0862,-0.98447 0.0862,-0.98446 0.25576,-0.95455 0.41764,-0.89563 0.56683,-0.80951 0.69876,-0.69877 0.80951,-0.56682 0.89563,-0.41765 0.95456,-0.25577 0.98447,-0.08613 0.98446,0.08613 0.95453,0.25577 0.89563,0.41765 0.80951,0.56682 0.69879,0.69877 0.56681,0.80951 0.41766,0.89563 0.25577,0.95455 0.0861,0.98446 -0.0861,0.98447 -0.25577,0.95454 z"
       style="fill:#dedede;fill-opacity:1;fill-rule:nonzero;stroke:none"
       id="path16" /><path
       d="m 309.59991,80.03123 -1.13363,1.61901 -1.39755,1.39757 -1.61902,1.13363 -1.79126,0.83528 -1.90912,0.51154 -1.9689,0.17226 -1.96894,-0.17226 -1.90909,-0.51154 -1.79129,-0.83528 -1.61898,-1.13363 -1.39759,-1.39757 -1.13363,-1.61901 -0.83527,-1.79127 -0.51153,-1.90909 -0.17228,-1.96893 0.17228,-1.96892 0.51153,-1.9091 0.83527,-1.79128 1.13363,-1.619 1.39759,-1.39755 1.61898,-1.13366 1.79129,-0.83528 1.90909,-0.51153 1.96894,-0.17226 1.9689,0.17226 1.90912,0.51153 1.79126,0.83528 1.61902,1.13366 1.39755,1.39755 1.13363,1.619 0.8353,1.79128 0.51154,1.9091 0.17224,1.96892 -0.17224,1.96893 -0.51154,1.90909 z"
       style="fill:#dedede;fill-opacity:1;fill-rule:nonzero;stroke:none"
       id="path18" /><path
       d="m 133.0015,87.96825 -1.13364,1.619 -1.39755,1.39755 -1.61902,1.13365 -1.79126,0.83529 -1.90911,0.51153 -1.96893,0.17226 -1.96892,-0.17226 -1.9091,-0.51153 -1.79126,-0.83529 -1.61902,-1.13365 -1.39755,-1.39755 -1.13364,-1.619 -0.83528,-1.79128 -0.51155,-1.9091 -0.17226,-1.96892 0.17226,-1.96893 0.51155,-1.90909 0.83528,-1.79128 1.13364,-1.619 1.39755,-1.39757 1.61902,-1.13363 1.79126,-0.83528 1.9091,-0.51154 1.96892,-0.17226 1.96893,0.17226 1.90911,0.51154 1.79126,0.83528 1.61902,1.13363 1.39755,1.39757 1.13364,1.619 0.83529,1.79128 0.51154,1.90909 0.17227,1.96893 -0.17227,1.96892 -0.51154,1.9091 z"
       style="fill:#dedede;fill-opacity:1;fill-rule:nonzero;stroke:none"
       id="path20" /><path
       d="m 128.09177,28.44067 -0.56684,0.80951 -0.69879,0.69878 -0.80949,0.56682 -0.89563,0.41765 -0.95456,0.25576 -0.98447,0.08614 -0.98445,-0.08614 -0.95456,-0.25576 -0.89563,-0.41765 -0.80951,-0.56682 -0.69877,-0.69878 -0.56682,-0.80951 -0.41764,-0.89563 -0.25578,-0.95454 -0.0861,-0.98447 0.0861,-0.98446 0.25578,-0.95455 0.41764,-0.89563 0.56682,-0.80951 0.69877,-0.69877 0.80951,-0.56682 0.89563,-0.41765 0.95456,-0.25577 0.98445,-0.08613 0.98447,0.08613 0.95456,0.25577 0.89563,0.41765 0.80949,0.56682 0.69879,0.69877 0.56684,0.80951 0.41763,0.89563 0.25577,0.95455 0.0861,0.98446 -0.0861,0.98447 -0.25577,0.95454 z"
       style="fill:#dedede;fill-opacity:1;fill-rule:nonzero;stroke:none"
       id="path22" /><path
       d="m 224.66232,25.60603 c 0,3.13106 -2.53824,5.6693 -5.66931,5.6693 m 0,0 c -3.13104,0 -5.66928,-2.53824 -5.66928,-5.6693 m 0,0 c 0,-3.13105 2.53824,-5.66929 5.66928,-5.66929 m 0,0 c 3.13107,0 5.66931,2.53824 5.66931,5.66929"
       style="fill:none;stroke:#000000;stroke-width:0.99213;stroke-linecap:round;stroke-linejoin:round;stroke-miterlimit:10;stroke-dasharray:none;stroke-opacity:1"
       id="path24" /><path
       d="m 190.64658,133.32257 h 56.6929"
       style="fill:none;stroke:#000000;stroke-width:0.85039;stroke-linecap:round;stroke-linejoin:round;stroke-miterlimit:10;stroke-dasharray:none;stroke-opacity:1"
       id="path26" /><path
       d="m 218.99301,59.84856 v 3.1748 m 0,-3.1748 10.23636,-0.77983 -10.23636,-0.77984 -10.23633,-0.77981 10.23633,-0.77983 10.23636,-0.77983 -10.23636,-0.77982 -10.23633,-0.77983 10.23633,-0.77983 10.23636,-0.77982 -10.23636,-0.77983 -10.23633,-0.77983 10.23633,-0.77981 10.23636,-0.77983 -10.23636,-0.77984 -10.23633,-0.77981 10.23633,-0.77983 10.23636,-0.77983 -10.23636,-0.77982 -10.23633,-0.77983 10.23633,-0.77983 10.23636,-0.77982 -10.23636,-0.77983 -10.23633,-0.77983 10.23633,-0.77983 10.23636,-0.77981 -10.23636,-0.77984 -10.23633,-0.77983 10.23633,-0.77981 10.23636,-0.77983 -10.23636,-0.77983 -10.23633,-0.77982 10.23633,-0.77983 v -3.61879"
       style="fill:none;stroke:#000000;stroke-width:0.3685;stroke-linecap:round;stroke-linejoin:round;stroke-miterlimit:10;stroke-dasharray:none;stroke-opacity:1"
       id="path28" /><path
       d="m 230.3316,74.36194 c 0,6.26213 -5.07644,11.33858 -11.33859,11.33858 m 0,0 c -6.26211,0 -11.33856,-5.07645 -11.33856,-11.33858 m 0,0 c 0,-6.26213 5.07645,-11.33858 11.33856,-11.33858 m 0,0 c 6.26215,0 11.33859,5.07645 11.33859,11.33858"
       style="fill:none;stroke:#000000;stroke-width:0.99213;stroke-linecap:round;stroke-linejoin:round;stroke-miterlimit:10;stroke-dasharray:none;stroke-opacity:1"
       id="path30" /><path
       d="m 218.99301,128.56036 v 4.76221 m 0,-4.76221 10.23636,-1.16973 -10.23636,-1.16974 -10.23633,-1.16974 10.23633,-1.16974 10.23636,-1.16974 -10.23636,-1.16974 -10.23633,-1.16974 10.23633,-1.16974 10.23636,-1.16974 -10.23636,-1.16973 -10.23633,-1.16974 10.23633,-1.16974 10.23636,-1.16974 -10.23636,-1.16974 -10.23633,-1.16974 10.23633,-1.16974 10.23636,-1.16974 -10.23636,-1.16973 -10.23633,-1.16974 10.23633,-1.16974 10.23636,-1.16974 -10.23636,-1.16974 -10.23633,-1.16974 10.23633,-1.16974 10.23636,-1.16974 -10.23636,-1.16973 -10.23633,-1.16974 10.23633,-1.16974 10.23636,-1.16976 -10.23636,-1.16973 -10.23633,-1.16974 10.23633,-1.16974 v -5.42819 m 11.33859,-3.40157 -0.17227,1.96892 -0.51153,1.9091 -0.12638,0.27106 m -1.37268,2.4682 -0.46985,0.67102 -1.39758,1.39755 -1.19296,0.83534 m -2.54389,1.2211 -1.58252,0.42403 -1.96893,0.17226 -0.63476,-0.05553 m -2.7786,-0.50377 -0.46466,-0.12449 -1.79126,-0.83529 -1.46994,-1.02926 m -1.93448,-2.05586 -0.74579,-1.06508 -0.83529,-1.79128 -0.25241,-0.94206 m -0.41892,-2.79356 -0.0125,-0.1424"
       style="fill:none;stroke:#000000;stroke-width:0.3685;stroke-linecap:round;stroke-linejoin:round;stroke-miterlimit:10;stroke-dasharray:none;stroke-opacity:1"
       id="path32" /><path
       d="m 207.65445,82.29895 0.17224,-1.96893 0.51154,-1.90909 m 1.41708,-2.62216 0.55185,-0.78812 1.39755,-1.39757 1.0759,-0.75334 m 2.52292,-1.26608 1.72058,-0.46103 1.9689,-0.17226 0.49237,0.04308 m 2.78293,0.47922 0.60272,0.1615 1.79129,0.83528 1.35285,0.94728 m 1.9696,2.02076 0.82776,1.18216 0.83527,1.79128 0.21545,0.804 m 0.44345,2.78921 0.0249,0.28481"
       style="fill:none;stroke:#000000;stroke-width:0.3685;stroke-linecap:round;stroke-linejoin:round;stroke-miterlimit:10;stroke-dasharray:none;stroke-opacity:1"
       id="path34" /><path
       d="M 189.79617,82.29895 V 71.5273 m 0,5.95276 v 0.42518 m 0,-6.37794 v 0 l 0.85041,5.95276 h -1.70078 l 0.85037,-5.95276"
       style="fill:none;stroke:#000000;stroke-width:0.28346;stroke-linecap:round;stroke-linejoin:round;stroke-miterlimit:10;stroke-dasharray:none;stroke-opacity:1"
       id="path36" /><path
       d="m 188.9458,77.48006 0.85037,-5.95276 0.85041,5.95276 z"
       style="fill:#000000;fill-opacity:1;fill-rule:nonzero;stroke:none"
       id="path38" /><path
       d="M 189.79617,25.60603 V 14.83438 m 0,5.95276 v 0.42519 m 0,-6.37795 v 0 l 0.85041,5.95276 h -1.70078 l 0.85037,-5.95276"
       style="fill:none;stroke:#000000;stroke-width:0.28346;stroke-linecap:round;stroke-linejoin:round;stroke-miterlimit:10;stroke-dasharray:none;stroke-opacity:1"
       id="path40" /><path
       d="m 188.9458,20.78714 0.85037,-5.95276 0.85041,5.95276 z"
       style="fill:#000000;fill-opacity:1;fill-rule:nonzero;stroke:none"
       id="path42" /><path
       d="m 186.25287,82.29895 h 32.74014 M 186.25287,25.60603 h 32.74014"
       style="fill:none;stroke:#000000;stroke-width:0.28346;stroke-linecap:round;stroke-linejoin:round;stroke-miterlimit:10;stroke-dasharray:none;stroke-opacity:1"
       id="path44" /><path
       d="m 305.44971,25.60603 c 0,3.13106 -2.53824,5.6693 -5.66928,5.6693 m 0,0 c -3.13108,0 -5.66932,-2.53824 -5.66932,-5.6693 m 0,0 c 0,-3.13105 2.53824,-5.66929 5.66932,-5.66929 m 0,0 c 3.13104,0 5.66928,2.53824 5.66928,5.66929"
       style="fill:none;stroke:#000000;stroke-width:0.99213;stroke-linecap:round;stroke-linejoin:round;stroke-miterlimit:10;stroke-dasharray:none;stroke-opacity:1"
       id="path46" /><path
       d="m 311.11899,74.36194 c 0,6.26213 -5.07645,11.33858 -11.33856,11.33858 m 0,0 c -6.26215,0 -11.3386,-5.07645 -11.3386,-11.33858 m 0,0 c 0,-6.26213 5.07645,-11.33858 11.3386,-11.33858 m 0,0 c 6.26211,0 11.33856,5.07645 11.33856,11.33858"
       style="fill:none;stroke:#000000;stroke-width:0.99213;stroke-linecap:round;stroke-linejoin:round;stroke-miterlimit:10;stroke-dasharray:none;stroke-opacity:1"
       id="path48" /><path
       d="m 134.5206,82.29895 c 0,6.26213 -5.07648,11.33858 -11.33861,11.33858 m 0,0 c -6.26211,0 -11.33858,-5.07645 -11.33858,-11.33858 m 0,0 c 0,-6.26213 5.07647,-11.33858 11.33858,-11.33858 m 0,0 c 6.26213,0 11.33861,5.07645 11.33861,11.33858"
       style="fill:none;stroke:#000000;stroke-width:0.99213;stroke-linecap:round;stroke-linejoin:round;stroke-miterlimit:10;stroke-dasharray:none;stroke-opacity:1"
       id="path50" /><path
       d="m 128.85129,25.60603 c 0,3.13106 -2.53823,5.6693 -5.6693,5.6693 m 0,0 c -3.13106,0 -5.66928,-2.53824 -5.66928,-5.6693 m 0,0 c 0,-3.13105 2.53822,-5.66929 5.66928,-5.66929 m 0,0 c 3.13107,0 5.6693,2.53824 5.6693,5.66929"
       style="fill:none;stroke:#000000;stroke-width:0.99213;stroke-linecap:round;stroke-linejoin:round;stroke-miterlimit:10;stroke-dasharray:none;stroke-opacity:1"
       id="path52" /><path
       d="m 123.18199,66.99187 v 3.9685 m 0,-3.9685 10.23638,-0.9748 -10.23638,-0.97477 -10.23634,-0.97478 10.23634,-0.97479 10.23638,-0.97478 -10.23638,-0.97479 -10.23634,-0.97478 10.23634,-0.97478 10.23638,-0.97479 -10.23638,-0.97478 -10.23634,-0.97477 10.23634,-0.9748 10.23638,-0.97477 -10.23638,-0.97478 -10.23634,-0.97479 10.23634,-0.97478 10.23638,-0.97478 -10.23638,-0.97479 -10.23634,-0.97478 10.23634,-0.97477 10.23638,-0.9748 -10.23638,-0.97477 -10.23634,-0.97478 10.23634,-0.97479 10.23638,-0.97478 -10.23638,-0.97479 -10.23634,-0.97478 10.23634,-0.97478 10.23638,-0.97479 -10.23638,-0.97478 -10.23634,-0.97477 10.23634,-0.9748 v -4.52348 m 0,98.07873 v 3.96851 m 0,-3.96851 10.23638,-0.97479 -10.23638,-0.97477 -10.23634,-0.97478 10.23634,-0.97478 10.23638,-0.97479 -10.23638,-0.97478 -10.23634,-0.97478 10.23634,-0.97479 10.23638,-0.97478 -10.23638,-0.97477 -10.23634,-0.9748 10.23634,-0.97477 10.23638,-0.9748 -10.23638,-0.97477 -10.23634,-0.97478"
       style="fill:none;stroke:#000000;stroke-width:0.3685;stroke-linecap:round;stroke-linejoin:round;stroke-miterlimit:10;stroke-dasharray:none;stroke-opacity:1"
       id="path54" /><path
       d="m 112.94565,114.73233 10.23634,-0.97479 10.23638,-0.97478 -10.23638,-0.97478 -10.23634,-0.97479 10.23634,-0.97478 10.23638,-0.97477 -10.23638,-0.9748 -10.23634,-0.97477 10.23634,-0.97478 10.23638,-0.97479 -10.23638,-0.97478 -10.23634,-0.97478 10.23634,-0.97479 10.23638,-0.97478 -10.23638,-0.97477 -10.23634,-0.9748 10.23634,-0.97477 v -4.5235"
       style="fill:none;stroke:#000000;stroke-width:0.3685;stroke-linecap:round;stroke-linejoin:round;stroke-miterlimit:10;stroke-dasharray:none;stroke-opacity:1"
       id="path56" /><path
       d="m 94.83554,133.32257 h 56.69293"
       style="fill:none;stroke:#000000;stroke-width:0.85039;stroke-linecap:round;stroke-linejoin:round;stroke-miterlimit:10;stroke-dasharray:none;stroke-opacity:1"
       id="path58" /><path
       d="M 93.98515,82.29895 V 71.5273 m 0,5.95276 v 0.42518 m 0,-6.37794 v 0 l 0.85039,5.95276 h -1.70077 l 0.85038,-5.95276"
       style="fill:none;stroke:#000000;stroke-width:0.28346;stroke-linecap:round;stroke-linejoin:round;stroke-miterlimit:10;stroke-dasharray:none;stroke-opacity:1"
       id="path60" /><path
       d="m 93.13477,77.48006 0.85038,-5.95276 0.85039,5.95276 z"
       style="fill:#000000;fill-opacity:1;fill-rule:nonzero;stroke:none"
       id="path62" /><path
       d="M 93.98515,25.60603 V 14.83438 m 0,5.95276 v 0.42519 m 0,-6.37795 v 0 l 0.85039,5.95276 h -1.70077 l 0.85038,-5.95276"
       style="fill:none;stroke:#000000;stroke-width:0.28346;stroke-linecap:round;stroke-linejoin:round;stroke-miterlimit:10;stroke-dasharray:none;stroke-opacity:1"
       id="path64" /><path
       d="m 93.13477,20.78714 0.85038,-5.95276 0.85039,5.95276 z"
       style="fill:#000000;fill-opacity:1;fill-rule:nonzero;stroke:none"
       id="path66" /><path
       d="m 90.44185,82.29895 h 32.74014 M 90.44185,25.60603 h 32.74014"
       style="fill:none;stroke:#000000;stroke-width:0.28346;stroke-linecap:round;stroke-linejoin:round;stroke-miterlimit:10;stroke-dasharray:none;stroke-opacity:1"
       id="path68" /><path
       d="m 299.78043,89.38556 v 14.17323 m 0,-5.45669 v -0.38977 m 0,5.84646 v 0 l -0.77954,-5.45669 h 1.55905 l -0.77951,5.45669"
       style="fill:none;stroke:#00b300;stroke-width:0.28346;stroke-linecap:round;stroke-linejoin:round;stroke-miterlimit:10;stroke-dasharray:none;stroke-opacity:1"
       id="path70" /><path
       d="m 300.55994,98.1021 -0.77951,5.45669 -0.77954,-5.45669 z"
       style="fill:#00b300;fill-opacity:1;fill-rule:nonzero;stroke:none"
       id="path72" /><path
       d="m 299.78043,123.68477 v -14.17322 m 0,5.4567 v 0.38975 m 0,-5.84645 v 0 l 0.77951,5.4567 h -1.55905 l 0.77954,-5.4567"
       style="fill:none;stroke:#000000;stroke-width:0.28346;stroke-linecap:round;stroke-linejoin:round;stroke-miterlimit:10;stroke-dasharray:none;stroke-opacity:1"
       id="path74" /><path
       d="m 299.00089,114.96825 0.77954,-5.4567 0.77951,5.4567 z"
       style="fill:#000000;fill-opacity:1;fill-rule:nonzero;stroke:none"
       id="path76" /><path
       d="M 299.78043,15.96823 V 1.79501 m 0,5.4567 v 0.38975 m 0,-5.84645 v 0 l 0.77951,5.4567 h -1.55905 l 0.77954,-5.4567"
       style="fill:none;stroke:#00b300;stroke-width:0.28346;stroke-linecap:round;stroke-linejoin:round;stroke-miterlimit:10;stroke-dasharray:none;stroke-opacity:1"
       id="path78" /><path
       d="m 299.00089,7.25171 0.77954,-5.4567 0.77951,5.4567 z"
       style="fill:#00b300;fill-opacity:1;fill-rule:nonzero;stroke:none"
       id="path80" /><path
       d="m 304.88278,44.3147 v 14.17323 m 0,-5.4567 v -0.38977 m 0,5.84647 v 0 l -0.77954,-5.4567 h 1.55905 l -0.77951,5.4567"
       style="fill:none;stroke:#00b300;stroke-width:0.28346;stroke-linecap:round;stroke-linejoin:round;stroke-miterlimit:10;stroke-dasharray:none;stroke-opacity:1"
       id="path82" /><path
       d="m 305.66229,53.03123 -0.77951,5.4567 -0.77954,-5.4567 z"
       style="fill:#00b300;fill-opacity:1;fill-rule:nonzero;stroke:none"
       id="path84" /><path
       d="m 294.67804,44.3147 v 14.17323 m 0,-5.4567 v -0.38977 m 0,5.84647 v 0 l -0.77951,-5.4567 h 1.55905 l -0.77954,5.4567"
       style="fill:none;stroke:#ff0000;stroke-width:0.28346;stroke-linecap:round;stroke-linejoin:round;stroke-miterlimit:10;stroke-dasharray:none;stroke-opacity:1"
       id="path86" /><path
       d="m 295.45758,53.03123 -0.77954,5.4567 -0.77951,-5.4567 z"
       style="fill:#ff0000;fill-opacity:1;fill-rule:nonzero;stroke:none"
       id="path88" /><g
       id="g90"><g
         id="g92"
         clip-path="url(#clipPath96)"><text
           transform="matrix(1,0,0,-1,234.72508,48.4382)"
           style="font-style:italic;font-variant:normal;font-weight:normal;font-stretch:normal;font-size:11.0078px;font-family:'Palatino Linotype';-inkscape-font-specification:PalatinoLinotype-Italic;writing-mode:lr-tb;fill:#000000;fill-opacity:1;fill-rule:nonzero;stroke:none"
           id="text100"><tspan
             x="0"
             y="0"
             id="tspan98">k</tspan></text></g></g><g
       id="g102"><g
         id="g104"
         clip-path="url(#clipPath108)"><text
           transform="matrix(1,0,0,-1,241.02211,43.89096)"
           style="font-style:italic;font-variant:normal;font-weight:normal;font-stretch:normal;font-size:6.6047px;font-family:'Palatino Linotype';-inkscape-font-specification:PalatinoLinotype-Italic;writing-mode:lr-tb;fill:#000000;fill-opacity:1;fill-rule:nonzero;stroke:none"
           id="text112"><tspan
             x="0"
             y="0"
             id="tspan110">T</tspan></text></g></g><g
       id="g114"><g
         id="g116"
         clip-path="url(#clipPath120)"><text
           transform="matrix(1,0,0,-1,234.72508,110.80041)"
           style="font-style:italic;font-variant:normal;font-weight:normal;font-stretch:normal;font-size:11.0078px;font-family:'Palatino Linotype';-inkscape-font-specification:PalatinoLinotype-Italic;writing-mode:lr-tb;fill:#000000;fill-opacity:1;fill-rule:nonzero;stroke:none"
           id="text124"><tspan
             x="0"
             y="0"
             id="tspan122">k</tspan></text></g></g><g
       id="g126"><g
         id="g128"
         clip-path="url(#clipPath132)"><text
           transform="matrix(1,0,0,-1,241.02211,106.25316)"
           style="font-style:italic;font-variant:normal;font-weight:normal;font-stretch:normal;font-size:6.6047px;font-family:'Palatino Linotype';-inkscape-font-specification:PalatinoLinotype-Italic;writing-mode:lr-tb;fill:#000000;fill-opacity:1;fill-rule:nonzero;stroke:none"
           id="text136"><tspan
             x="0"
             y="0"
             id="tspan134">H</tspan></text></g></g><g
       id="g138"><g
         id="g140"
         clip-path="url(#clipPath144)"><text
           transform="matrix(1,0,0,-1,138.91405,48.4382)"
           style="font-style:italic;font-variant:normal;font-weight:normal;font-stretch:normal;font-size:11.0078px;font-family:'Palatino Linotype';-inkscape-font-specification:PalatinoLinotype-Italic;writing-mode:lr-tb;fill:#000000;fill-opacity:1;fill-rule:nonzero;stroke:none"
           id="text148"><tspan
             x="0"
             y="0"
             id="tspan146">k</tspan></text></g></g><g
       id="g150"><g
         id="g152"
         clip-path="url(#clipPath156)"><text
           transform="matrix(1,0,0,-1,145.21109,43.89096)"
           style="font-style:italic;font-variant:normal;font-weight:normal;font-stretch:normal;font-size:6.6047px;font-family:'Palatino Linotype';-inkscape-font-specification:PalatinoLinotype-Italic;writing-mode:lr-tb;fill:#000000;fill-opacity:1;fill-rule:nonzero;stroke:none"
           id="text160"><tspan
             x="0"
             y="0"
             id="tspan158">T</tspan></text></g></g><g
       id="g162"><g
         id="g164"
         clip-path="url(#clipPath168)"><text
           transform="matrix(1,0,0,-1,138.91405,110.80041)"
           style="font-style:italic;font-variant:normal;font-weight:normal;font-stretch:normal;font-size:11.0078px;font-family:'Palatino Linotype';-inkscape-font-specification:PalatinoLinotype-Italic;writing-mode:lr-tb;fill:#000000;fill-opacity:1;fill-rule:nonzero;stroke:none"
           id="text172"><tspan
             x="0"
             y="0"
             id="tspan170">k</tspan></text></g></g><g
       id="g174"><g
         id="g176"
         clip-path="url(#clipPath180)"><text
           transform="matrix(1,0,0,-1,145.21109,106.25316)"
           style="font-style:italic;font-variant:normal;font-weight:normal;font-stretch:normal;font-size:6.6047px;font-family:'Palatino Linotype';-inkscape-font-specification:PalatinoLinotype-Italic;writing-mode:lr-tb;fill:#000000;fill-opacity:1;fill-rule:nonzero;stroke:none"
           id="text184"><tspan
             x="0"
             y="0"
             id="tspan182">H</tspan></text></g></g><g
       id="g186"><g
         id="g188"
         clip-path="url(#clipPath192)"><text
           transform="matrix(1,0,0,-1,94.94162,95.5972)"
           style="font-style:italic;font-variant:normal;font-weight:normal;font-stretch:normal;font-size:11.0078px;font-family:'Palatino Linotype';-inkscape-font-specification:PalatinoLinotype-Italic;writing-mode:lr-tb;fill:#000000;fill-opacity:1;fill-rule:nonzero;stroke:none"
           id="text196"><tspan
             x="0"
             y="0"
             id="tspan194">M</tspan></text></g></g><g
       id="g198"><g
         id="g200"
         clip-path="url(#clipPath204)"><text
           transform="matrix(1,0,0,-1,105.65045,91.04995)"
           style="font-style:italic;font-variant:normal;font-weight:normal;font-stretch:normal;font-size:6.6047px;font-family:'Palatino Linotype';-inkscape-font-specification:PalatinoLinotype-Italic;writing-mode:lr-tb;fill:#000000;fill-opacity:1;fill-rule:nonzero;stroke:none"
           id="text208"><tspan
             x="0"
             y="0"
             id="tspan206">H</tspan></text></g></g><g
       id="g210"><g
         id="g212"
         clip-path="url(#clipPath216)"><text
           transform="matrix(1,0,0,-1,94.94162,38.90428)"
           style="font-style:italic;font-variant:normal;font-weight:normal;font-stretch:normal;font-size:11.0078px;font-family:'Palatino Linotype';-inkscape-font-specification:PalatinoLinotype-Italic;writing-mode:lr-tb;fill:#000000;fill-opacity:1;fill-rule:nonzero;stroke:none"
           id="text220"><tspan
             x="0"
             y="0"
             id="tspan218">M</tspan></text></g></g><g
       id="g222"><g
         id="g224"
         clip-path="url(#clipPath228)"><text
           transform="matrix(1,0,0,-1,105.65045,34.35704)"
           style="font-style:italic;font-variant:normal;font-weight:normal;font-stretch:normal;font-size:6.6047px;font-family:'Palatino Linotype';-inkscape-font-specification:PalatinoLinotype-Italic;writing-mode:lr-tb;fill:#000000;fill-opacity:1;fill-rule:nonzero;stroke:none"
           id="text232"><tspan
             x="0"
             y="0"
             id="tspan230">T</tspan></text></g></g><g
       id="g234"><g
         id="g236"
         clip-path="url(#clipPath240)"><text
           transform="matrix(1,0,0,-1,185.31304,63.73469)"
           style="font-style:italic;font-variant:normal;font-weight:normal;font-stretch:normal;font-size:11.0078px;font-family:'Palatino Linotype';-inkscape-font-specification:PalatinoLinotype-Italic;writing-mode:lr-tb;fill:#000000;fill-opacity:1;fill-rule:nonzero;stroke:none"
           id="text244"><tspan
             x="0"
             y="0"
             id="tspan242">u</tspan></text></g></g><g
       id="g246"><g
         id="g248"
         clip-path="url(#clipPath252)"><text
           transform="matrix(1,0,0,-1,192.14082,59.18745)"
           style="font-style:italic;font-variant:normal;font-weight:normal;font-stretch:normal;font-size:6.6047px;font-family:'Palatino Linotype';-inkscape-font-specification:PalatinoLinotype-Italic;writing-mode:lr-tb;fill:#000000;fill-opacity:1;fill-rule:nonzero;stroke:none"
           id="text256"><tspan
             x="0"
             y="0"
             id="tspan254">H</tspan></text></g></g><g
       id="g258"><g
         id="g260"
         clip-path="url(#clipPath264)"><text
           transform="matrix(1,0,0,-1,185.31304,7.04178)"
           style="font-style:italic;font-variant:normal;font-weight:normal;font-stretch:normal;font-size:11.0078px;font-family:'Palatino Linotype';-inkscape-font-specification:PalatinoLinotype-Italic;writing-mode:lr-tb;fill:#000000;fill-opacity:1;fill-rule:nonzero;stroke:none"
           id="text268"><tspan
             x="0"
             y="0"
             id="tspan266">u</tspan></text></g></g><g
       id="g270"><g
         id="g272"
         clip-path="url(#clipPath276)"><text
           transform="matrix(1,0,0,-1,192.14082,2.49453)"
           style="font-style:italic;font-variant:normal;font-weight:normal;font-stretch:normal;font-size:6.6047px;font-family:'Palatino Linotype';-inkscape-font-specification:PalatinoLinotype-Italic;writing-mode:lr-tb;fill:#000000;fill-opacity:1;fill-rule:nonzero;stroke:none"
           id="text280"><tspan
             x="0"
             y="0"
             id="tspan278">T</tspan></text></g></g><g
       id="g282"><g
         id="g284"
         clip-path="url(#clipPath288)"><text
           transform="matrix(1,0,0,-1,89.50202,63.73469)"
           style="font-style:italic;font-variant:normal;font-weight:normal;font-stretch:normal;font-size:11.0078px;font-family:'Palatino Linotype';-inkscape-font-specification:PalatinoLinotype-Italic;writing-mode:lr-tb;fill:#000000;fill-opacity:1;fill-rule:nonzero;stroke:none"
           id="text292"><tspan
             x="0"
             y="0"
             id="tspan290">u</tspan></text></g></g><g
       id="g294"><g
         id="g296"
         clip-path="url(#clipPath300)"><text
           transform="matrix(1,0,0,-1,96.32979,59.18745)"
           style="font-style:italic;font-variant:normal;font-weight:normal;font-stretch:normal;font-size:6.6047px;font-family:'Palatino Linotype';-inkscape-font-specification:PalatinoLinotype-Italic;writing-mode:lr-tb;fill:#000000;fill-opacity:1;fill-rule:nonzero;stroke:none"
           id="text304"><tspan
             x="0"
             y="0"
             id="tspan302">H</tspan></text></g></g><g
       id="g306"><g
         id="g308"
         clip-path="url(#clipPath312)"><text
           transform="matrix(1,0,0,-1,89.50202,7.04178)"
           style="font-style:italic;font-variant:normal;font-weight:normal;font-stretch:normal;font-size:11.0078px;font-family:'Palatino Linotype';-inkscape-font-specification:PalatinoLinotype-Italic;writing-mode:lr-tb;fill:#000000;fill-opacity:1;fill-rule:nonzero;stroke:none"
           id="text316"><tspan
             x="0"
             y="0"
             id="tspan314">u</tspan></text></g></g><g
       id="g318"><g
         id="g320"
         clip-path="url(#clipPath324)"><text
           transform="matrix(1,0,0,-1,96.32979,2.49453)"
           style="font-style:italic;font-variant:normal;font-weight:normal;font-stretch:normal;font-size:6.6047px;font-family:'Palatino Linotype';-inkscape-font-specification:PalatinoLinotype-Italic;writing-mode:lr-tb;fill:#000000;fill-opacity:1;fill-rule:nonzero;stroke:none"
           id="text328"><tspan
             x="0"
             y="0"
             id="tspan326">T</tspan></text></g></g><g
       id="g330"><g
         id="g332"
         clip-path="url(#clipPath336)"><text
           transform="matrix(1,0,0,-1,190.53738,92.70766)"
           style="font-style:italic;font-variant:normal;font-weight:normal;font-stretch:normal;font-size:11.0078px;font-family:'Palatino Linotype';-inkscape-font-specification:PalatinoLinotype-Italic;writing-mode:lr-tb;fill:#000000;fill-opacity:1;fill-rule:nonzero;stroke:none"
           id="text340"><tspan
             x="0"
             y="0"
             id="tspan338">M</tspan></text></g></g><g
       id="g342"><g
         id="g344"
         clip-path="url(#clipPath348)"><text
           transform="matrix(1,0,0,-1,201.24622,88.16042)"
           style="font-style:italic;font-variant:normal;font-weight:normal;font-stretch:normal;font-size:6.6047px;font-family:'Palatino Linotype';-inkscape-font-specification:PalatinoLinotype-Italic;writing-mode:lr-tb;fill:#000000;fill-opacity:1;fill-rule:nonzero;stroke:none"
           id="text352"><tspan
             x="0"
             y="0"
             id="tspan350">H</tspan></text></g></g><g
       id="g354"><g
         id="g356"
         clip-path="url(#clipPath360)"><text
           transform="matrix(1,0,0,-1,190.53738,36.01475)"
           style="font-style:italic;font-variant:normal;font-weight:normal;font-stretch:normal;font-size:11.0078px;font-family:'Palatino Linotype';-inkscape-font-specification:PalatinoLinotype-Italic;writing-mode:lr-tb;fill:#000000;fill-opacity:1;fill-rule:nonzero;stroke:none"
           id="text364"><tspan
             x="0"
             y="0"
             id="tspan362">M</tspan></text></g></g><g
       id="g366"><g
         id="g368"
         clip-path="url(#clipPath372)"><text
           transform="matrix(1,0,0,-1,201.24622,31.46751)"
           style="font-style:italic;font-variant:normal;font-weight:normal;font-stretch:normal;font-size:6.6047px;font-family:'Palatino Linotype';-inkscape-font-specification:PalatinoLinotype-Italic;writing-mode:lr-tb;fill:#000000;fill-opacity:1;fill-rule:nonzero;stroke:none"
           id="text376"><tspan
             x="0"
             y="0"
             id="tspan374">T</tspan></text></g></g><g
       id="g378"><g
         id="g380"
         clip-path="url(#clipPath384)"><text
           transform="matrix(1,0,0,-1,301.93892,115.89443)"
           style="font-style:italic;font-variant:normal;font-weight:normal;font-stretch:normal;font-size:11.0078px;font-family:'Palatino Linotype';-inkscape-font-specification:PalatinoLinotype-Italic;writing-mode:lr-tb;fill:#000000;fill-opacity:1;fill-rule:nonzero;stroke:none"
           id="text388"><tspan
             x="0 6.1203589 9.7859697 13.45158"
             y="0"
             id="tspan386">F(t)</tspan></text></g></g><g
       id="g390"><g
         id="g392"
         clip-path="url(#clipPath396)"><text
           transform="matrix(1,0,0,-1,305.90743,93.92314)"
           style="font-style:italic;font-variant:normal;font-weight:normal;font-stretch:normal;font-size:11.0078px;font-family:'Palatino Linotype';-inkscape-font-specification:PalatinoLinotype-Italic;writing-mode:lr-tb;fill:#00b300;fill-opacity:1;fill-rule:nonzero;stroke:none"
           id="text400"><tspan
             x="0"
             y="0"
             id="tspan398">k</tspan></text></g></g><g
       id="g402"><g
         id="g404"
         clip-path="url(#clipPath408)"><text
           transform="matrix(1,0,0,-1,312.20446,89.37589)"
           style="font-style:italic;font-variant:normal;font-weight:normal;font-stretch:normal;font-size:6.6047px;font-family:'Palatino Linotype';-inkscape-font-specification:PalatinoLinotype-Italic;writing-mode:lr-tb;fill:#00b300;fill-opacity:1;fill-rule:nonzero;stroke:none"
           id="text412"><tspan
             x="0 5.1384568"
             y="0"
             id="tspan410">H </tspan></text></g></g><g
       id="g414"><g
         id="g416"
         clip-path="url(#clipPath420)"><text
           transform="matrix(1,0,0,-1,319.55524,93.92314)"
           style="font-style:italic;font-variant:normal;font-weight:normal;font-stretch:normal;font-size:11.0078px;font-family:'Palatino Linotype';-inkscape-font-specification:PalatinoLinotype-Italic;writing-mode:lr-tb;fill:#00b300;fill-opacity:1;fill-rule:nonzero;stroke:none"
           id="text424"><tspan
             x="0"
             y="0"
             id="tspan422">u</tspan></text></g></g><g
       id="g426"><g
         id="g428"
         clip-path="url(#clipPath432)"><text
           transform="matrix(1,0,0,-1,326.38303,89.37589)"
           style="font-style:italic;font-variant:normal;font-weight:normal;font-stretch:normal;font-size:6.6047px;font-family:'Palatino Linotype';-inkscape-font-specification:PalatinoLinotype-Italic;writing-mode:lr-tb;fill:#00b300;fill-opacity:1;fill-rule:nonzero;stroke:none"
           id="text436"><tspan
             x="0"
             y="0"
             id="tspan434">H</tspan></text></g></g><g
       id="g438"><g
         id="g440"
         clip-path="url(#clipPath444)"><text
           transform="matrix(1,0,0,-1,305.90743,7.89444)"
           style="font-style:italic;font-variant:normal;font-weight:normal;font-stretch:normal;font-size:11.0078px;font-family:'Palatino Linotype';-inkscape-font-specification:PalatinoLinotype-Italic;writing-mode:lr-tb;fill:#00b300;fill-opacity:1;fill-rule:nonzero;stroke:none"
           id="text448"><tspan
             x="0"
             y="0"
             id="tspan446">k</tspan></text></g></g><g
       id="g450"><g
         id="g452"
         clip-path="url(#clipPath456)"><text
           transform="matrix(1,0,0,-1,312.20446,3.34719)"
           style="font-style:italic;font-variant:normal;font-weight:normal;font-stretch:normal;font-size:6.6047px;font-family:'Palatino Linotype';-inkscape-font-specification:PalatinoLinotype-Italic;writing-mode:lr-tb;fill:#00b300;fill-opacity:1;fill-rule:nonzero;stroke:none"
           id="text460"><tspan
             x="0 4.0354719"
             y="0"
             id="tspan458">T </tspan></text></g></g><g
       id="g462"><g
         id="g464"
         clip-path="url(#clipPath468)"><text
           transform="matrix(1,0,0,-1,318.06586,7.89444)"
           style="font-style:italic;font-variant:normal;font-weight:normal;font-stretch:normal;font-size:11.0078px;font-family:'Palatino Linotype';-inkscape-font-specification:PalatinoLinotype-Italic;writing-mode:lr-tb;fill:#00b300;fill-opacity:1;fill-rule:nonzero;stroke:none"
           id="text472"><tspan
             x="0"
             y="0"
             id="tspan470">u</tspan></text></g></g><g
       id="g474"><g
         id="g476"
         clip-path="url(#clipPath480)"><text
           transform="matrix(1,0,0,-1,324.89362,3.34719)"
           style="font-style:italic;font-variant:normal;font-weight:normal;font-stretch:normal;font-size:6.6047px;font-family:'Palatino Linotype';-inkscape-font-specification:PalatinoLinotype-Italic;writing-mode:lr-tb;fill:#00b300;fill-opacity:1;fill-rule:nonzero;stroke:none"
           id="text484"><tspan
             x="0"
             y="0"
             id="tspan482">H</tspan></text></g></g><g
       id="g486"><g
         id="g488"
         clip-path="url(#clipPath492)"><text
           transform="matrix(1,0,0,-1,255.58648,45.16724)"
           style="font-style:italic;font-variant:normal;font-weight:normal;font-stretch:normal;font-size:11.0078px;font-family:'Palatino Linotype';-inkscape-font-specification:PalatinoLinotype-Italic;writing-mode:lr-tb;fill:#ff0000;fill-opacity:1;fill-rule:nonzero;stroke:none"
           id="text496"><tspan
             x="0"
             y="0"
             id="tspan494">M</tspan></text></g></g><g
       id="g498"><g
         id="g500"
         clip-path="url(#clipPath504)"><text
           transform="matrix(1,0,0,-1,266.29531,40.61999)"
           style="font-style:italic;font-variant:normal;font-weight:normal;font-stretch:normal;font-size:6.6047px;font-family:'Palatino Linotype';-inkscape-font-specification:PalatinoLinotype-Italic;writing-mode:lr-tb;fill:#ff0000;fill-opacity:1;fill-rule:nonzero;stroke:none"
           id="text508"><tspan
             x="0 5.1384568"
             y="0"
             id="tspan506">H </tspan></text></g></g><g
       id="g510"><g
         id="g512"
         clip-path="url(#clipPath516)"><text
           transform="matrix(1,0,0,-1,273.64608,45.16724)"
           style="font-style:italic;font-variant:normal;font-weight:normal;font-stretch:normal;font-size:11.0078px;font-family:'Palatino Linotype';-inkscape-font-specification:PalatinoLinotype-Italic;writing-mode:lr-tb;fill:#ff0000;fill-opacity:1;fill-rule:nonzero;stroke:none"
           id="text520"><tspan
             x="0"
             y="0"
             id="tspan518">u</tspan></text></g></g><g
       id="g522"><g
         id="g524"
         clip-path="url(#clipPath528)"><text
           transform="matrix(1,0,0,-1,280.47386,45.16724)"
           style="font-variant:normal;font-weight:normal;font-stretch:normal;font-size:11.6776px;font-family:'Cambria Math';-inkscape-font-specification:CambriaMath;writing-mode:lr-tb;fill:#ff0000;fill-opacity:1;fill-rule:nonzero;stroke:none"
           id="text532"><tspan
             x="0 3.0128312"
             y="0"
             id="tspan530">′′</tspan></text></g></g><g
       id="g534"><g
         id="g536"
         clip-path="url(#clipPath540)"><text
           transform="matrix(1,0,0,-1,286.51591,40.61999)"
           style="font-style:italic;font-variant:normal;font-weight:normal;font-stretch:normal;font-size:6.6047px;font-family:'Palatino Linotype';-inkscape-font-specification:PalatinoLinotype-Italic;writing-mode:lr-tb;fill:#ff0000;fill-opacity:1;fill-rule:nonzero;stroke:none"
           id="text544"><tspan
             x="0"
             y="0"
             id="tspan542">H</tspan></text></g></g><g
       id="g546"><g
         id="g548"
         clip-path="url(#clipPath552)"><text
           transform="matrix(1,0,0,-1,311.00978,45.16724)"
           style="font-style:italic;font-variant:normal;font-weight:normal;font-stretch:normal;font-size:11.0078px;font-family:'Palatino Linotype';-inkscape-font-specification:PalatinoLinotype-Italic;writing-mode:lr-tb;fill:#00b300;fill-opacity:1;fill-rule:nonzero;stroke:none"
           id="text556"><tspan
             x="0"
             y="0"
             id="tspan554">k</tspan></text></g></g><g
       id="g558"><g
         id="g560"
         clip-path="url(#clipPath564)"><text
           transform="matrix(1,0,0,-1,317.30683,40.61999)"
           style="font-style:italic;font-variant:normal;font-weight:normal;font-stretch:normal;font-size:6.6047px;font-family:'Palatino Linotype';-inkscape-font-specification:PalatinoLinotype-Italic;writing-mode:lr-tb;fill:#00b300;fill-opacity:1;fill-rule:nonzero;stroke:none"
           id="text568"><tspan
             x="0 4.0354719"
             y="0"
             id="tspan566">T </tspan></text></g></g><g
       id="g570"><g
         id="g572"
         clip-path="url(#clipPath576)"><text
           transform="matrix(1,0,0,-1,323.16821,45.16724)"
           style="font-style:italic;font-variant:normal;font-weight:normal;font-stretch:normal;font-size:11.0078px;font-family:'Palatino Linotype';-inkscape-font-specification:PalatinoLinotype-Italic;writing-mode:lr-tb;fill:#00b300;fill-opacity:1;fill-rule:nonzero;stroke:none"
           id="text580"><tspan
             x="0"
             y="0"
             id="tspan578">u</tspan></text></g></g><g
       id="g582"><g
         id="g584"
         clip-path="url(#clipPath588)"><text
           transform="matrix(1,0,0,-1,329.99599,40.61999)"
           style="font-style:italic;font-variant:normal;font-weight:normal;font-stretch:normal;font-size:6.6047px;font-family:'Palatino Linotype';-inkscape-font-specification:PalatinoLinotype-Italic;writing-mode:lr-tb;fill:#00b300;fill-opacity:1;fill-rule:nonzero;stroke:none"
           id="text592"><tspan
             x="0"
             y="0"
             id="tspan590">H</tspan></text></g></g></g></svg>
