<?xml version="1.0" encoding="UTF-8" standalone="no"?>
<svg
   xmlns:dc="http://purl.org/dc/elements/1.1/"
   xmlns:cc="http://creativecommons.org/ns#"
   xmlns:rdf="http://www.w3.org/1999/02/22-rdf-syntax-ns#"
   xmlns:svg="http://www.w3.org/2000/svg"
   xmlns="http://www.w3.org/2000/svg"
   version="1.1"
   id="svg2"
   xml:space="preserve"
   width="566.92932"
   height="234.33067"
   viewBox="0 0 566.92932 234.33067"><metadata
     id="metadata8"><rdf:RDF><cc:Work
         rdf:about=""><dc:format>image/svg+xml</dc:format><dc:type
           rdf:resource="http://purl.org/dc/dcmitype/StillImage" /></cc:Work></rdf:RDF></metadata><defs
     id="defs6"><clipPath
       clipPathUnits="userSpaceOnUse"
       id="clipPath50"><path
         d="M 283.88403,170.84506 H 57.40514 V 3.04161 h 226.47889 v 167.80345"
         clip-rule="evenodd"
         id="path48" /></clipPath><clipPath
       clipPathUnits="userSpaceOnUse"
       id="clipPath62"><path
         d="M 283.88403,170.84506 H 57.40514 V 3.04161 h 226.47889 v 167.80345"
         clip-rule="evenodd"
         id="path60" /></clipPath><clipPath
       clipPathUnits="userSpaceOnUse"
       id="clipPath74"><path
         d="M 283.88403,170.84506 H 57.40514 V 3.04161 h 226.47889 v 167.80345"
         clip-rule="evenodd"
         id="path72" /></clipPath><clipPath
       clipPathUnits="userSpaceOnUse"
       id="clipPath86"><path
         d="M 283.88403,170.84506 H 57.40514 V 3.04161 h 226.47889 v 167.80345"
         clip-rule="evenodd"
         id="path84" /></clipPath></defs><g
     id="g10"
     transform="matrix(1.3333333,0,0,-1.3333333,0,234.33067)"><path
       d="M 155.90552,13.53491 V 126.92073 H 127.55905 Z"
       style="fill:#ffeed4;fill-opacity:1;fill-rule:nonzero;stroke:none"
       id="path12" /><path
       d="m 269.29132,126.92073 -113.3858,28.34645 v -28.34645 z"
       style="fill:#ffeed4;fill-opacity:1;fill-rule:nonzero;stroke:none"
       id="path14" /><path
       d="m 155.90552,122.46738 4.45334,4.45335 h -4.45334 z"
       style="fill:#000000;fill-opacity:1;fill-rule:nonzero;stroke:none"
       id="path16" /><path
       d="m 264.83798,126.92073 4.45334,-4.45335 v 4.45335 z"
       style="fill:#000000;fill-opacity:1;fill-rule:nonzero;stroke:none"
       id="path18" /><path
       d="m 155.90552,13.53491 v 113.38582 h 113.3858 m 0,-113.38582 v 113.38582"
       style="fill:none;stroke:#000000;stroke-width:0.99213;stroke-linecap:round;stroke-linejoin:round;stroke-miterlimit:10;stroke-dasharray:none;stroke-opacity:1"
       id="path20" /><path
       d="m 268.15747,14.17323 v 4.25197 m 0,2.83464 v 4.25197 m 0,2.83464 v 4.25198 m 0,2.83464 v 4.25197 m 0,2.83464 v 4.25197 m 0,2.83466 v 4.25197 m 0,2.83464 v 4.25197 m 0,2.83464 v 4.25196 m 0,2.83466 v 4.25197 m 0,2.83464 v 4.25197 m 0,2.83464 v 4.25197 m 0,2.83465 v 4.25197 m 0,2.83464 v 4.25197 m 0,2.83464 v 4.25197 m 0,2.83465 v 4.25197 m 0,2.83464 v 4.25197 m 0,-111.1895 v 0 m 0,112.53543 v 0 M 157.03937,14.17323 v 4.25197 m 0,2.83464 v 4.25197 m 0,2.83464 v 4.25198 m 0,2.83464 v 4.25197 m 0,2.83464 v 4.25197 m 0,2.83466 v 4.25197 m 0,2.83464 v 4.25197 m 0,2.83464 v 4.25196 m 0,2.83466 v 4.25197 m 0,2.83464 v 4.25197 m 0,2.83464 v 4.25197 m 0,2.83465 v 4.25197 m 0,2.83464 v 4.25197 m 0,2.83464 v 4.25197 m 0,2.83465 v 4.25197 m 0,2.83464 v 4.25197 m 0,-111.1895 v 0 m 0,112.53543 v 0 h 3.11813 m 2.83463,0 h 4.25198 m 2.83463,0 h 4.25198 m 2.83465,0 h 4.25196 m 2.83465,0 h 4.25196 m 2.83465,0 h 4.25196 m 2.83465,0 h 4.25199 m 2.83462,0 h 4.25198 m 2.83463,0 h 4.25198 m 2.83466,0 h 4.25195 m 2.83466,0 h 4.25195 m 2.83466,0 h 4.25195 m 2.83466,0 h 4.25198 m 2.83462,0 h 4.25199"
       style="fill:none;stroke:#000000;stroke-width:0.3685;stroke-linecap:round;stroke-linejoin:round;stroke-miterlimit:10;stroke-dasharray:none;stroke-opacity:1"
       id="path22" /><path
       d="m 255.1181,126.07034 h 4.25199 m 2.83462,0 h 4.25199 m -109.41733,0 v 0 m 111.1181,0 v 0"
       style="fill:none;stroke:#000000;stroke-width:0.3685;stroke-linecap:round;stroke-linejoin:round;stroke-miterlimit:10;stroke-dasharray:none;stroke-opacity:1"
       id="path24" /><path
       d="m 155.90552,13.53491 -6.01319,-6.0132 m 6.01319,6.0132 6.01318,-6.0132 m -12.02637,0 h 12.02637 m 107.37262,6.0132 -6.01318,-6.0132 m 6.01318,6.0132 6.01321,-6.0132 m -12.02639,0 h 12.02639 M 261.23099,5.29044 h 15.87402"
       style="fill:none;stroke:#000000;stroke-width:0.28346;stroke-linecap:round;stroke-linejoin:round;stroke-miterlimit:10;stroke-dasharray:none;stroke-opacity:1"
       id="path26" /><path
       d="m 157.32285,13.53491 c 0,0.78276 -0.63456,1.41731 -1.41733,1.41731 m 0,0 c -0.78278,0 -1.41733,-0.63455 -1.41733,-1.41731 m 0,0 c 0,-0.78277 0.63455,-1.41733 1.41733,-1.41733 m 0,0 c 0.78277,0 1.41733,0.63456 1.41733,1.41733"
       style="fill:none;stroke:#000000;stroke-width:0.3685;stroke-linecap:round;stroke-linejoin:round;stroke-miterlimit:10;stroke-dasharray:none;stroke-opacity:1"
       id="path28" /><path
       d="m 270.70865,13.53491 c 0,0.78276 -0.63455,1.41731 -1.41733,1.41731 m 0,0 c -0.78274,0 -1.4173,-0.63455 -1.4173,-1.41731 m 0,0 c 0,-0.78277 0.63456,-1.41733 1.4173,-1.41733 m 0,0 c 0.78278,0 1.41733,0.63456 1.41733,1.41733"
       style="fill:none;stroke:#000000;stroke-width:0.3685;stroke-linecap:round;stroke-linejoin:round;stroke-miterlimit:10;stroke-dasharray:none;stroke-opacity:1"
       id="path30" /><path
       d="m 155.90552,126.92073 v 28.34645 l 113.3858,-28.34645 m -113.3858,0 H 127.55905 L 155.90552,13.53491"
       style="fill:none;stroke:#ff8000;stroke-width:0.3685;stroke-linecap:round;stroke-linejoin:round;stroke-miterlimit:10;stroke-dasharray:none;stroke-opacity:1"
       id="path32" /><path
       d="M 119.62206,126.92073 H 98.64568 m 5.45669,0 h 0.38976 m -5.84645,0 v 0 l 5.45669,-0.77953 v 1.55906 l -5.45669,-0.77953"
       style="fill:none;stroke:#ff0000;stroke-width:0.28346;stroke-linecap:round;stroke-linejoin:round;stroke-miterlimit:10;stroke-dasharray:none;stroke-opacity:1"
       id="path34" /><path
       d="m 104.10237,127.70026 -5.45669,-0.77953 5.45669,-0.77953 z"
       style="fill:#ff0000;fill-opacity:1;fill-rule:nonzero;stroke:none"
       id="path36" /><path
       d="m 112.24495,119.99553 h 4.25197"
       style="fill:none;stroke:#ff0000;stroke-width:0.28346;stroke-linecap:round;stroke-linejoin:round;stroke-miterlimit:10;stroke-dasharray:none;stroke-opacity:1"
       id="path38" /><path
       d="m 130.72748,154.31906 h 4.25198"
       style="fill:none;stroke:#ff8000;stroke-width:0.28346;stroke-linecap:round;stroke-linejoin:round;stroke-miterlimit:10;stroke-dasharray:none;stroke-opacity:1"
       id="path40" /><path
       d="m 155.90552,122.46738 4.45334,4.45335 m 108.93246,-4.45335 -4.45334,4.45335"
       style="fill:none;stroke:#000000;stroke-width:0.99213;stroke-linecap:round;stroke-linejoin:round;stroke-miterlimit:10;stroke-dasharray:none;stroke-opacity:1"
       id="path42" /><g
       id="g44"><g
         id="g46"
         clip-path="url(#clipPath50)"><text
           transform="matrix(1,0,0,-1,59.06878,110.01446)"
           style="font-style:italic;font-variant:normal;font-weight:normal;font-stretch:normal;font-size:11.0078px;font-family:'Palatino Linotype';-inkscape-font-specification:PalatinoLinotype-Italic;writing-mode:lr-tb;fill:#ff0000;fill-opacity:1;fill-rule:nonzero;stroke:none"
           id="text54"><tspan
             x="0 6.1203589 8.8723192 14.376239 17.128199 22.632118"
             y="0"
             id="tspan52">F = 1 </tspan></text></g></g><g
       id="g56"><g
         id="g58"
         clip-path="url(#clipPath62)"><text
           transform="matrix(1,0,0,-1,85.11924,110.01446)"
           style="font-variant:normal;font-weight:normal;font-stretch:normal;font-size:11.1008px;font-family:'Palatino Linotype';-inkscape-font-specification:PalatinoLinotype-Roman;writing-mode:lr-tb;fill:#ff0000;fill-opacity:1;fill-rule:nonzero;stroke:none"
           id="text66"><tspan
             x="0 6.1387258 11.689111 20.947153 23.722345 26.497538"
             y="0"
             id="tspan64">bzw. 1</tspan></text></g></g><g
       id="g68"><g
         id="g70"
         clip-path="url(#clipPath74)"><text
           transform="matrix(1,0,0,-1,126.42269,131.36399)"
           style="font-variant:normal;font-weight:normal;font-stretch:normal;font-size:11.1008px;font-family:'Palatino Linotype';-inkscape-font-specification:PalatinoLinotype-Roman;writing-mode:lr-tb;fill:#ff8000;fill-opacity:1;fill-rule:nonzero;stroke:none"
           id="text78"><tspan
             x="0 3.6965563 9.2469416"
             y="0"
             id="tspan76">-1L</tspan></text></g></g><g
       id="g80"><g
         id="g82"
         clip-path="url(#clipPath86)"><text
           transform="matrix(1,0,0,-1,126.42269,144.40337)"
           style="font-variant:normal;font-weight:normal;font-stretch:normal;font-size:11.1008px;font-family:'Palatino Linotype';-inkscape-font-specification:PalatinoLinotype-Roman;writing-mode:lr-tb;fill:#ff8000;fill-opacity:1;fill-rule:nonzero;stroke:none"
           id="text90"><tspan
             x="0 3.6965563 9.2469416"
             y="0"
             id="tspan88">-1L</tspan></text></g></g></g></svg>
