<?xml version='1.0' encoding='ASCII' standalone='yes'?>
<svg xmlns="http://www.w3.org/2000/svg" xmlns:xlink="http://www.w3.org/1999/xlink" version="1.1" width="566.92932px" viewBox="0 0 566.92932 359.05466" height="359.05466px">
  <g>
    <g>
      <g transform="translate(0, 0) scale(1 1) ">
        <metadata xmlns:rdf="http://www.w3.org/1999/02/22-rdf-syntax-ns#" xmlns:cc="http://creativecommons.org/ns#" xmlns:dc="http://purl.org/dc/elements/1.1/" id="metadata8">
          <rdf:RDF>
            <cc:Work rdf:about="">
              <dc:format>image/svg+xml</dc:format>
              <dc:type rdf:resource="http://purl.org/dc/dcmitype/StillImage"/>
            </cc:Work>
          </rdf:RDF>
        </metadata>
        <defs id="defs6">
          <clipPath clipPathUnits="userSpaceOnUse" id="clipPath84">
            <path d="M -0.00426,-0.00269 V 269.29404 H 425.20111 V -0.00269 H -0.00426" clip-rule="evenodd" id="path82"/>
          </clipPath>
          <clipPath clipPathUnits="userSpaceOnUse" id="clipPath96">
            <path d="M -0.00426,-0.00269 V 269.29404 H 425.20111 V -0.00269 H -0.00426" clip-rule="evenodd" id="path94"/>
          </clipPath>
          <clipPath clipPathUnits="userSpaceOnUse" id="clipPath108">
            <path d="M -0.00426,-0.00269 V 269.29404 H 425.20111 V -0.00269 H -0.00426" clip-rule="evenodd" id="path106"/>
          </clipPath>
          <clipPath clipPathUnits="userSpaceOnUse" id="clipPath120">
            <path d="M -0.00426,-0.00269 V 269.29404 H 425.20111 V -0.00269 H -0.00426" clip-rule="evenodd" id="path118"/>
          </clipPath>
          <clipPath clipPathUnits="userSpaceOnUse" id="clipPath132">
            <path d="M -0.00426,-0.00269 V 269.29404 H 425.20111 V -0.00269 H -0.00426" clip-rule="evenodd" id="path130"/>
          </clipPath>
          <clipPath clipPathUnits="userSpaceOnUse" id="clipPath150">
            <path d="M -0.00426,-0.00269 V 269.29404 H 425.20111 V -0.00269 H -0.00426" clip-rule="evenodd" id="path148"/>
          </clipPath>
          <clipPath clipPathUnits="userSpaceOnUse" id="clipPath162">
            <path d="M -0.00426,-0.00269 V 269.29404 H 425.20111 V -0.00269 H -0.00426" clip-rule="evenodd" id="path160"/>
          </clipPath>
          <clipPath clipPathUnits="userSpaceOnUse" id="clipPath174">
            <path d="M -0.00426,-0.00269 V 269.29404 H 425.20111 V -0.00269 H -0.00426" clip-rule="evenodd" id="path172"/>
          </clipPath>
          <clipPath clipPathUnits="userSpaceOnUse" id="clipPath192">
            <path d="M -0.00426,-0.00269 V 269.29404 H 425.20111 V -0.00269 H -0.00426" clip-rule="evenodd" id="path190"/>
          </clipPath>
          <clipPath clipPathUnits="userSpaceOnUse" id="clipPath210">
            <path d="M -0.00426,-0.00269 V 269.29404 H 425.20111 V -0.00269 H -0.00426" clip-rule="evenodd" id="path208"/>
          </clipPath>
          <clipPath clipPathUnits="userSpaceOnUse" id="clipPath224">
            <path d="M -0.00426,-0.00269 V 269.29404 H 425.20111 V -0.00269 H -0.00426" clip-rule="evenodd" id="path222"/>
          </clipPath>
          <clipPath clipPathUnits="userSpaceOnUse" id="clipPath236">
            <path d="M -0.00426,-0.00269 V 269.29404 H 425.20111 V -0.00269 H -0.00426" clip-rule="evenodd" id="path234"/>
          </clipPath>
          <clipPath clipPathUnits="userSpaceOnUse" id="clipPath248">
            <path d="M -0.00426,-0.00269 V 269.29404 H 425.20111 V -0.00269 H -0.00426" clip-rule="evenodd" id="path246"/>
          </clipPath>
          <clipPath clipPathUnits="userSpaceOnUse" id="clipPath260">
            <path d="M -0.00426,-0.00269 V 269.29404 H 425.20111 V -0.00269 H -0.00426" clip-rule="evenodd" id="path258"/>
          </clipPath>
          <clipPath clipPathUnits="userSpaceOnUse" id="clipPath272">
            <path d="M -0.00426,-0.00269 V 269.29404 H 425.20111 V -0.00269 H -0.00426" clip-rule="evenodd" id="path270"/>
          </clipPath>
          <clipPath clipPathUnits="userSpaceOnUse" id="clipPath284">
            <path d="M -0.00426,-0.00269 V 269.29404 H 425.20111 V -0.00269 H -0.00426" clip-rule="evenodd" id="path282"/>
          </clipPath>
          <clipPath clipPathUnits="userSpaceOnUse" id="clipPath296">
            <path d="M -0.00426,-0.00269 V 269.29404 H 425.20111 V -0.00269 H -0.00426" clip-rule="evenodd" id="path294"/>
          </clipPath>
          <clipPath clipPathUnits="userSpaceOnUse" id="clipPath308">
            <path d="M -0.00426,-0.00269 V 269.29404 H 425.20111 V -0.00269 H -0.00426" clip-rule="evenodd" id="path306"/>
          </clipPath>
          <clipPath clipPathUnits="userSpaceOnUse" id="clipPath320">
            <path d="M -0.00426,-0.00269 V 269.29404 H 425.20111 V -0.00269 H -0.00426" clip-rule="evenodd" id="path318"/>
          </clipPath>
          <clipPath clipPathUnits="userSpaceOnUse" id="clipPath332">
            <path d="M -0.00426,-0.00269 V 269.29404 H 425.20111 V -0.00269 H -0.00426" clip-rule="evenodd" id="path330"/>
          </clipPath>
          <clipPath clipPathUnits="userSpaceOnUse" id="clipPath344">
            <path d="M -0.00426,-0.00269 V 269.29404 H 425.20111 V -0.00269 H -0.00426" clip-rule="evenodd" id="path342"/>
          </clipPath>
          <clipPath clipPathUnits="userSpaceOnUse" id="clipPath356">
            <path d="M -0.00426,-0.00269 V 269.29404 H 425.20111 V -0.00269 H -0.00426" clip-rule="evenodd" id="path354"/>
          </clipPath>
          <clipPath clipPathUnits="userSpaceOnUse" id="clipPath368">
            <path d="M -0.00426,-0.00269 V 269.29404 H 425.20111 V -0.00269 H -0.00426" clip-rule="evenodd" id="path366"/>
          </clipPath>
        </defs>
        <g id="g10" transform="matrix(1.3333333,0,0,-1.3333333,0,359.05467)">
          <path d="m 44.22047,239.95633 h 7.08661 m 7.65355,0 h 7.08661 m 7.65355,0 h 7.08661 m 7.65355,0 h 7.08661 m 7.65355,0 h 7.08661 m 7.65354,0 h 7.08661 m 7.65357,0 h 7.08661 m 7.65353,0 h 7.08661 m 7.65356,0 h 7.08661 m 7.65354,0 h 7.08661 m 7.65353,0 h 7.08664 m 7.65353,0 h 7.08661 m 7.65354,0 h 7.08664 m 7.65353,0 h 7.08661 m 7.65353,0 h 7.08661 m 7.65357,0 h 7.0866 m 7.65354,0 h 7.08661 m 7.65356,0 h 7.08661 m 7.65353,0 h 7.08661 m 7.65357,0 h 7.08661 m 7.65353,0 h 7.08661 m 7.65356,0 h 7.08661 m 7.65354,0 h 7.08661 m -320.59842,0 h 0.28346 m 14.45669,0 h 0.28347 m 14.45669,0 h 0.28347 m 14.45669,0 h 0.28346 m 14.4567,0 h 0.28346 m 14.45671,0 h 0.28345 m 14.45669,0 h 0.28348 m 14.4567,0 h 0.28345 m 14.45669,0 h 0.28348 m 14.45669,0 h 0.28345 m 14.4567,0 h 0.28348 m 14.45669,0 h 0.28345 m 14.45669,0 h 0.28348 m 14.45667,0 h 0.28347 m 14.4567,0 h 0.28345 m 14.45669,0 h 0.28348 m 14.4567,0 h 0.28344 m 14.4567,0 h 0.28348 m 14.45669,0 h 0.28345 m 14.45669,0 h 0.28348 m 14.4567,0 h 0.28345 m 14.45669,0 h 0.28348 m 14.45669,0 h 0.28345 m -337.03937,0 v 0 m 340.15747,0 v 0 M 44.22047,169.09018 h 7.08661 m 7.65355,0 h 7.08661" style="fill:none;stroke:#000000;stroke-width:0.3685;stroke-linecap:round;stroke-linejoin:round;stroke-miterlimit:10;stroke-dasharray:none;stroke-opacity:1" id="path12"/>
          <path d="m 73.70079,169.09018 h 7.08661 m 7.65355,0 h 7.08661 m 7.65355,0 h 7.08661 m 7.65354,0 h 7.08661 m 7.65357,0 h 7.08661 m 7.65353,0 h 7.08661 m 7.65356,0 h 7.08661 m 7.65354,0 h 7.08661 m 7.65353,0 h 7.08664 m 7.65353,0 h 7.08661 m 7.65354,0 h 7.08664 m 7.65353,0 h 7.08661 m 7.65353,0 h 7.08661 m 7.65357,0 h 7.0866 m 7.65354,0 h 7.08661 m 7.65356,0 h 7.08661 m 7.65353,0 h 7.08661 m 7.65357,0 h 7.08661 m 7.65353,0 h 7.08661 m 7.65356,0 h 7.08661 m 7.65354,0 h 7.08661 m -320.59842,0 h 0.28346 m 14.45669,0 h 0.28347 m 14.45669,0 h 0.28347 m 14.45669,0 h 0.28346 m 14.4567,0 h 0.28346 m 14.45671,0 h 0.28345 m 14.45669,0 h 0.28348 m 14.4567,0 h 0.28345 m 14.45669,0 h 0.28348 m 14.45669,0 h 0.28345 m 14.4567,0 h 0.28348 m 14.45669,0 h 0.28345 m 14.45669,0 h 0.28348 m 14.45667,0 h 0.28347 m 14.4567,0 h 0.28345 m 14.45669,0 h 0.28348 m 14.4567,0 h 0.28344 m 14.4567,0 h 0.28348 m 14.45669,0 h 0.28345 m 14.45669,0 h 0.28348 m 14.4567,0 h 0.28345 m 14.45669,0 h 0.28348 m 14.45669,0 h 0.28345 m -337.03937,0 v 0 m 340.15747,0 v 0 M 44.22047,98.22403 h 7.08661 m 7.65355,0 h 7.08661 m 7.65355,0 h 7.08661 m 7.65355,0 h 7.08661" style="fill:none;stroke:#000000;stroke-width:0.3685;stroke-linecap:round;stroke-linejoin:round;stroke-miterlimit:10;stroke-dasharray:none;stroke-opacity:1" id="path14"/>
          <path d="m 103.18111,98.22403 h 7.08661 m 7.65354,0 h 7.08661 m 7.65357,0 h 7.08661 m 7.65353,0 h 7.08661 m 7.65356,0 h 7.08661 m 7.65354,0 h 7.08661 m 7.65353,0 h 7.08664 m 7.65353,0 h 7.08661 m 7.65354,0 h 7.08664 m 7.65353,0 h 7.08661 m 7.65353,0 h 7.08661 m 7.65357,0 h 7.0866 m 7.65354,0 h 7.08661 m 7.65356,0 h 7.08661 m 7.65353,0 h 7.08661 m 7.65357,0 h 7.08661 m 7.65353,0 h 7.08661 m 7.65356,0 h 7.08661 m 7.65354,0 h 7.08661 m -320.59842,0 h 0.28346 m 14.45669,0 h 0.28347 m 14.45669,0 h 0.28347 m 14.45669,0 h 0.28346 m 14.4567,0 h 0.28346 m 14.45671,0 h 0.28345 m 14.45669,0 h 0.28348 m 14.4567,0 h 0.28345 m 14.45669,0 h 0.28348 m 14.45669,0 h 0.28345 m 14.4567,0 h 0.28348 m 14.45669,0 h 0.28345 m 14.45669,0 h 0.28348 m 14.45667,0 h 0.28347 m 14.4567,0 h 0.28345 m 14.45669,0 h 0.28348 m 14.4567,0 h 0.28344 m 14.4567,0 h 0.28348 m 14.45669,0 h 0.28345 m 14.45669,0 h 0.28348 m 14.4567,0 h 0.28345 m 14.45669,0 h 0.28348 m 14.45669,0 h 0.28345 m -337.03937,0 v 0 m 340.15747,0 v 0 M 44.22047,27.35789 h 7.08661 m 7.65355,0 h 7.08661 m 7.65355,0 h 7.08661 m 7.65355,0 h 7.08661 m 7.65355,0 h 7.08661 m 7.65354,0 h 7.08661" style="fill:none;stroke:#000000;stroke-width:0.3685;stroke-linecap:round;stroke-linejoin:round;stroke-miterlimit:10;stroke-dasharray:none;stroke-opacity:1" id="path16"/>
          <path d="m 132.66144,27.35789 h 7.08661 m 7.65353,0 h 7.08661 m 7.65356,0 h 7.08661 m 7.65354,0 h 7.08661 m 7.65353,0 h 7.08664 m 7.65353,0 h 7.08661 m 7.65354,0 h 7.08664 m 7.65353,0 h 7.08661 m 7.65353,0 h 7.08661 m 7.65357,0 h 7.0866 m 7.65354,0 h 7.08661 m 7.65356,0 h 7.08661 m 7.65353,0 h 7.08661 m 7.65357,0 h 7.08661 m 7.65353,0 h 7.08661 m 7.65356,0 h 7.08661 m 7.65354,0 h 7.08661 m -320.59842,0 h 0.28346 m 14.45669,0 h 0.28347 m 14.45669,0 h 0.28347 m 14.45669,0 h 0.28346 m 14.4567,0 h 0.28346 m 14.45671,0 h 0.28345 m 14.45669,0 h 0.28348 m 14.4567,0 h 0.28345 m 14.45669,0 h 0.28348 m 14.45669,0 h 0.28345 m 14.4567,0 h 0.28348 m 14.45669,0 h 0.28345 m 14.45669,0 h 0.28348 m 14.45667,0 h 0.28347 m 14.4567,0 h 0.28345 m 14.45669,0 h 0.28348 m 14.4567,0 h 0.28344 m 14.4567,0 h 0.28348 m 14.45669,0 h 0.28345 m 14.45669,0 h 0.28348 m 14.4567,0 h 0.28345 m 14.45669,0 h 0.28348 m 14.45669,0 h 0.28345 m -337.03937,0 v 0 m 340.15747,0 v 0 M 70.86615,0 v 7.08661 m 0,7.65355 v 7.08661 m 0,7.65355 v 7.08661 m 0,7.65354 v 7.08661 m 0,7.65355 v 7.08661 m 0,7.65355 v 7.08661 m 0,7.65355 v 7.08661 m 0,7.65355 v 7.08661" style="fill:none;stroke:#000000;stroke-width:0.3685;stroke-linecap:round;stroke-linejoin:round;stroke-miterlimit:10;stroke-dasharray:none;stroke-opacity:1" id="path18"/>
          <path d="m 70.86615,117.92126 v 7.08661 m 0,7.65357 v 7.08661 m 0,7.65353 v 7.08661 m 0,7.65356 v 7.08661 m 0,7.65354 v 7.08661 m 0,7.65353 v 7.08664 m 0,7.65353 v 7.08661 m 0,7.65354 v 7.08664 m 0,7.65353 v 7.08661 m 0,7.65353 v 7.08661 m 0,7.65357 v 0.85394 m 0,-255.40514 v 0.28346 m 0,14.4567 v 0.28346 m 0,14.4567 v 0.28346 m 0,14.4567 v 0.28346 m 0,14.45669 v 0.28347 m 0,14.45669 v 0.28347 m 0,14.45669 v 0.28346 m 0,14.4567 v 0.28346 m 0,14.45671 v 0.28345 m 0,14.45669 v 0.28348 m 0,14.4567 v 0.28345 m 0,14.45669 v 0.28348 m 0,14.45669 v 0.28345 m 0,14.4567 v 0.28348 m 0,14.45669 v 0.28345 m 0,14.45669 v 0.28348 m 0,14.45667 v 0.28347 m 0,14.4567 v 0.28345 m 0,4.539 v 0 M 127.55905,0 v 7.08661 m 0,7.65355 v 7.08661 m 0,7.65355 v 7.08661 m 0,7.65354 v 7.08661 m 0,7.65355 v 7.08661 m 0,7.65355 v 7.08661 m 0,7.65355 v 7.08661 m 0,7.65355 v 7.08661 m 0,7.65354 v 7.08661 m 0,7.65357 v 7.08661 m 0,7.65353 v 7.08661 m 0,7.65356 v 7.08661 m 0,7.65354 v 7.08661 m 0,7.65353 v 7.08664 m 0,7.65353 v 7.08661 m 0,7.65354 v 7.08664 m 0,7.65353 v 7.08661 m 0,7.65353 v 7.08661 m 0,7.65357 v 0.85394 m 0,-255.40514 v 0.28346" style="fill:none;stroke:#000000;stroke-width:0.3685;stroke-linecap:round;stroke-linejoin:round;stroke-miterlimit:10;stroke-dasharray:none;stroke-opacity:1" id="path20"/>
          <path d="m 127.55905,25.51181 v 0.28346 m 0,14.4567 v 0.28346 m 0,14.4567 v 0.28346 m 0,14.45669 v 0.28347 m 0,14.45669 v 0.28347 m 0,14.45669 v 0.28346 m 0,14.4567 v 0.28346 m 0,14.45671 v 0.28345 m 0,14.45669 v 0.28348 m 0,14.4567 v 0.28345 m 0,14.45669 v 0.28348 m 0,14.45669 v 0.28345 m 0,14.4567 v 0.28348 m 0,14.45669 v 0.28345 m 0,14.45669 v 0.28348 m 0,14.45667 v 0.28347 m 0,14.4567 v 0.28345 m 0,4.539 v 0 M 184.25198,0 v 7.08661 m 0,7.65355 v 7.08661 m 0,7.65355 v 7.08661 m 0,7.65354 v 7.08661 m 0,7.65355 v 7.08661 m 0,7.65355 v 7.08661 m 0,7.65355 v 7.08661 m 0,7.65355 v 7.08661 m 0,7.65354 v 7.08661 m 0,7.65357 v 7.08661 m 0,7.65353 v 7.08661 m 0,7.65356 v 7.08661 m 0,7.65354 v 7.08661 m 0,7.65353 v 7.08664 m 0,7.65353 v 7.08661 m 0,7.65354 v 7.08664 m 0,7.65353 v 7.08661 m 0,7.65353 v 7.08661 m 0,7.65357 v 0.85394 m 0,-255.40514 v 0.28346 m 0,14.4567 v 0.28346 m 0,14.4567 v 0.28346 m 0,14.4567 v 0.28346 m 0,14.45669 v 0.28347 m 0,14.45669 v 0.28347 m 0,14.45669 v 0.28346 m 0,14.4567 v 0.28346 m 0,14.45671 v 0.28345 m 0,14.45669 v 0.28348 m 0,14.4567 v 0.28345 m 0,14.45669 v 0.28348 m 0,14.45669 v 0.28345" style="fill:none;stroke:#000000;stroke-width:0.3685;stroke-linecap:round;stroke-linejoin:round;stroke-miterlimit:10;stroke-dasharray:none;stroke-opacity:1" id="path22"/>
          <path d="m 184.25198,202.39371 v 0.28348 m 0,14.45669 v 0.28345 m 0,14.45669 v 0.28348 m 0,14.45667 v 0.28347 m 0,14.4567 v 0.28345 m 0,4.539 v 0 M 240.94489,0 v 7.08661 m 0,7.65355 v 7.08661 m 0,7.65355 v 7.08661 m 0,7.65354 v 7.08661 m 0,7.65355 v 7.08661 m 0,7.65355 v 7.08661 m 0,7.65355 v 7.08661 m 0,7.65355 v 7.08661 m 0,7.65354 v 7.08661 m 0,7.65357 v 7.08661 m 0,7.65353 v 7.08661 m 0,7.65356 v 7.08661 m 0,7.65354 v 7.08661 m 0,7.65353 v 7.08664 m 0,7.65353 v 7.08661 m 0,7.65354 v 7.08664 m 0,7.65353 v 7.08661 m 0,7.65353 v 7.08661 m 0,7.65357 v 0.85394 m 0,-255.40514 v 0.28346 m 0,14.4567 v 0.28346 m 0,14.4567 v 0.28346 m 0,14.4567 v 0.28346 m 0,14.45669 v 0.28347 m 0,14.45669 v 0.28347 m 0,14.45669 v 0.28346 m 0,14.4567 v 0.28346 m 0,14.45671 v 0.28345 m 0,14.45669 v 0.28348 m 0,14.4567 v 0.28345 m 0,14.45669 v 0.28348 m 0,14.45669 v 0.28345 m 0,14.4567 v 0.28348 m 0,14.45669 v 0.28345 m 0,14.45669 v 0.28348 m 0,14.45667 v 0.28347 m 0,14.4567 v 0.28345 m 0,4.539 v 0 M 297.63779,0 v 7.08661 m 0,7.65355 v 7.08661 m 0,7.65355 v 7.08661 m 0,7.65354 v 7.08661 m 0,7.65355 v 7.08661 m 0,7.65355 v 7.08661" style="fill:none;stroke:#000000;stroke-width:0.3685;stroke-linecap:round;stroke-linejoin:round;stroke-miterlimit:10;stroke-dasharray:none;stroke-opacity:1" id="path24"/>
          <path d="m 297.63779,88.44095 v 7.08661 m 0,7.65355 v 7.08661 m 0,7.65354 v 7.08661 m 0,7.65357 v 7.08661 m 0,7.65353 v 7.08661 m 0,7.65356 v 7.08661 m 0,7.65354 v 7.08661 m 0,7.65353 v 7.08664 m 0,7.65353 v 7.08661 m 0,7.65354 v 7.08664 m 0,7.65353 v 7.08661 m 0,7.65353 v 7.08661 m 0,7.65357 v 0.85394 m 0,-255.40514 v 0.28346 m 0,14.4567 v 0.28346 m 0,14.4567 v 0.28346 m 0,14.4567 v 0.28346 m 0,14.45669 v 0.28347 m 0,14.45669 v 0.28347 m 0,14.45669 v 0.28346 m 0,14.4567 v 0.28346 m 0,14.45671 v 0.28345 m 0,14.45669 v 0.28348 m 0,14.4567 v 0.28345 m 0,14.45669 v 0.28348 m 0,14.45669 v 0.28345 m 0,14.4567 v 0.28348 m 0,14.45669 v 0.28345 m 0,14.45669 v 0.28348 m 0,14.45667 v 0.28347 m 0,14.4567 v 0.28345 m 0,4.539 v 0 M 354.33069,0 v 7.08661 m 0,7.65355 v 7.08661 m 0,7.65355 v 7.08661 m 0,7.65354 v 7.08661 m 0,7.65355 v 7.08661 m 0,7.65355 v 7.08661 m 0,7.65355 v 7.08661 m 0,7.65355 v 7.08661 m 0,7.65354 v 7.08661 m 0,7.65357 v 7.08661 m 0,7.65353 v 7.08661 m 0,7.65356 v 7.08661 m 0,7.65354 v 7.08661 m 0,7.65353 v 7.08664 m 0,7.65353 v 7.08661 m 0,7.65354 v 7.08664 m 0,7.65353 v 7.08661 m 0,7.65353 v 7.08661" style="fill:none;stroke:#000000;stroke-width:0.3685;stroke-linecap:round;stroke-linejoin:round;stroke-miterlimit:10;stroke-dasharray:none;stroke-opacity:1" id="path26"/>
          <path d="m 354.33069,265.32285 v 0.85394 m 0,-255.40514 v 0.28346 m 0,14.4567 v 0.28346 m 0,14.4567 v 0.28346 m 0,14.4567 v 0.28346 m 0,14.45669 v 0.28347 m 0,14.45669 v 0.28347 m 0,14.45669 v 0.28346 m 0,14.4567 v 0.28346 m 0,14.45671 v 0.28345 m 0,14.45669 v 0.28348 m 0,14.4567 v 0.28345 m 0,14.45669 v 0.28348 m 0,14.45669 v 0.28345 m 0,14.4567 v 0.28348 m 0,14.45669 v 0.28345 m 0,14.45669 v 0.28348 m 0,14.45667 v 0.28347 m 0,14.4567 v 0.28345 m 0,4.539 v 0" style="fill:none;stroke:#000000;stroke-width:0.3685;stroke-linecap:round;stroke-linejoin:round;stroke-miterlimit:10;stroke-dasharray:none;stroke-opacity:1" id="path28"/>
          <path d="M 68.74016,25.2319 H 356.4567 V 242.08231 H 68.74016 V 25.2319" style="fill:none;stroke:#000000;stroke-width:0.70866;stroke-linecap:round;stroke-linejoin:round;stroke-miterlimit:10;stroke-dasharray:none;stroke-opacity:1" id="path30"/>
          <path d="m 70.86615,27.35789 h 14.17322 m -5.95275,0 h -0.4252 m 6.37795,0 v 0 l -5.95275,0.85039 v -1.70077 l 5.95275,0.85038" style="fill:none;stroke:#000000;stroke-width:0.28346;stroke-linecap:round;stroke-linejoin:round;stroke-miterlimit:10;stroke-dasharray:none;stroke-opacity:1" id="path32"/>
          <path d="m 79.08662,26.50751 5.95275,0.85038 -5.95275,0.85039 z" style="fill:#000000;fill-opacity:1;fill-rule:nonzero;stroke:none" id="path34"/>
          <path d="m 70.86615,27.35789 v 14.17322 m 0,-5.95274 v -0.4252 m 0,6.37794 v 0 l -0.8504,-5.95274 h 1.70079 l -0.85039,5.95274" style="fill:none;stroke:#000000;stroke-width:0.28346;stroke-linecap:round;stroke-linejoin:round;stroke-miterlimit:10;stroke-dasharray:none;stroke-opacity:1" id="path36"/>
          <path d="m 71.71654,35.57837 -0.85039,5.95274 -0.8504,-5.95274 z" style="fill:#000000;fill-opacity:1;fill-rule:nonzero;stroke:none" id="path38"/>
          <path d="M 125.43307,169.09018 V 98.22403 h 4.25199 v 70.86615 z" style="fill:#dedede;fill-opacity:1;fill-rule:nonzero;stroke:none" id="path40"/>
          <path d="m 127.55905,237.83032 h 56.69293 v 4.25199 h -56.69293 z" style="fill:#dedede;fill-opacity:1;fill-rule:nonzero;stroke:none" id="path42"/>
          <path d="m 352.20471,242.08231 v -42.51969 h 4.25199 v 42.51969 z" style="fill:#dedede;fill-opacity:1;fill-rule:nonzero;stroke:none" id="path44"/>
          <path d="m 255.1181,25.2319 h 42.51969 v 4.25197 H 255.1181 Z" style="fill:#dedede;fill-opacity:1;fill-rule:nonzero;stroke:none" id="path46"/>
          <path d="m 72.99213,239.95633 -0.03231,0.36917 -0.0959,0.35794 -0.15661,0.33588 -0.21257,0.30356 -0.26204,0.26202 -0.30356,0.21259 -0.33586,0.15661 -0.35796,0.0959 -0.36917,0.0323 -0.36917,-0.0323 -0.35796,-0.0959 -0.33587,-0.15661 -0.30356,-0.21259 -0.26204,-0.26202 -0.21256,-0.30356 -0.15661,-0.33588 -0.09592,-0.35794 -0.0323,-0.36917 0.0323,-0.3692 0.09592,-0.35794 0.15661,-0.33588 0.21256,-0.30356 0.26204,-0.26202 0.30356,-0.21256 0.33587,-0.15661 0.35796,-0.0959 0.36917,-0.0323 0.36917,0.0323 0.35796,0.0959 0.33586,0.15661 0.30356,0.21256 0.26204,0.26202 0.21257,0.30356 0.15661,0.33588 0.0959,0.35794 z" style="fill:#dedede;fill-opacity:1;fill-rule:nonzero;stroke:none" id="path48"/>
          <path d="m 72.99213,169.09018 -0.03231,0.36917 -0.0959,0.35794 -0.15661,0.33588 -0.21257,0.30356 -0.26204,0.26205 -0.30356,0.21256 -0.33586,0.15661 -0.35796,0.0959 -0.36917,0.0323 -0.36917,-0.0323 -0.35796,-0.0959 -0.33587,-0.15661 -0.30356,-0.21256 -0.26204,-0.26205 -0.21256,-0.30356 -0.15661,-0.33588 -0.09592,-0.35794 -0.0323,-0.36917 0.0323,-0.36917 0.09592,-0.35797 0.15661,-0.33585 0.21256,-0.30356 0.26204,-0.26205 0.30356,-0.21256 0.33587,-0.15661 0.35796,-0.0959 0.36917,-0.0323 0.36917,0.0323 0.35796,0.0959 0.33586,0.15661 0.30356,0.21256 0.26204,0.26205 0.21257,0.30356 0.15661,0.33585 0.0959,0.35797 z" style="fill:#dedede;fill-opacity:1;fill-rule:nonzero;stroke:none" id="path50"/>
          <path d="m 72.99213,98.22403 -0.03231,0.36917 -0.0959,0.35796 -0.15661,0.33586 -0.21257,0.30357 -0.26204,0.26204 -0.30356,0.21256 -0.33586,0.15661 -0.35796,0.0959 -0.36917,0.0323 -0.36917,-0.0323 -0.35796,-0.0959 -0.33587,-0.15661 -0.30356,-0.21256 -0.26204,-0.26204 -0.21256,-0.30357 -0.15661,-0.33586 -0.09592,-0.35796 -0.0323,-0.36917 0.0323,-0.36917 0.09592,-0.35796 0.15661,-0.33586 0.21256,-0.30357 0.26204,-0.26204 0.30356,-0.21256 0.33587,-0.15661 0.35796,-0.09592 0.36917,-0.03229 0.36917,0.03229 0.35796,0.09592 0.33586,0.15661 0.30356,0.21256 0.26204,0.26204 0.21257,0.30357 0.15661,0.33586 0.0959,0.35796 z" style="fill:#dedede;fill-opacity:1;fill-rule:nonzero;stroke:none" id="path52"/>
          <path d="m 72.99213,27.35789 -0.03231,0.36918 -0.0959,0.35795 -0.15661,0.33586 -0.21257,0.30356 -0.26204,0.26204 -0.30356,0.21257 -0.33586,0.15662 -0.35796,0.0959 -0.36917,0.0323 -0.36917,-0.0323 -0.35796,-0.0959 -0.33587,-0.15662 -0.30356,-0.21257 -0.26204,-0.26204 -0.21256,-0.30356 -0.15661,-0.33586 -0.09592,-0.35795 -0.0323,-0.36918 0.0323,-0.36918 0.09592,-0.35796 0.15661,-0.33586 0.21256,-0.30356 0.26204,-0.26204 0.30356,-0.21255 0.33587,-0.15662 0.35796,-0.09591 0.36917,-0.03231 0.36917,0.03231 0.35796,0.09591 0.33586,0.15662 0.30356,0.21255 0.26204,0.26204 0.21257,0.30356 0.15661,0.33586 0.0959,0.35796 z" style="fill:#dedede;fill-opacity:1;fill-rule:nonzero;stroke:none" id="path54"/>
          <path d="m 129.68506,27.35789 -0.0323,0.36918 -0.0959,0.35795 -0.15661,0.33586 -0.21256,0.30356 -0.26202,0.26204 -0.30359,0.21257 -0.33585,0.15662 -0.35795,0.0959 -0.36919,0.0323 -0.36917,-0.0323 -0.35796,-0.0959 -0.33586,-0.15662 -0.30356,-0.21257 -0.26203,-0.26204 -0.21257,-0.30356 -0.15662,-0.33586 -0.0959,-0.35795 -0.0323,-0.36918 0.0323,-0.36918 0.0959,-0.35796 0.15662,-0.33586 0.21257,-0.30356 0.26203,-0.26204 0.30356,-0.21255 0.33586,-0.15662 0.35796,-0.09591 0.36917,-0.03231 0.36919,0.03231 0.35795,0.09591 0.33585,0.15662 0.30359,0.21255 0.26202,0.26204 0.21256,0.30356 0.15661,0.33586 0.0959,0.35796 z" style="fill:#dedede;fill-opacity:1;fill-rule:nonzero;stroke:none" id="path56"/>
          <path d="m 186.37796,27.35789 -0.0323,0.36918 -0.0959,0.35795 -0.15662,0.33586 -0.21256,0.30356 -0.26205,0.26204 -0.30356,0.21257 -0.33587,0.15662 -0.35795,0.0959 -0.36917,0.0323 -0.36917,-0.0323 -0.35797,-0.0959 -0.33584,-0.15662 -0.30359,-0.21257 -0.26203,-0.26204 -0.21255,-0.30356 -0.15662,-0.33586 -0.0959,-0.35795 -0.0323,-0.36918 0.0323,-0.36918 0.0959,-0.35796 0.15662,-0.33586 0.21255,-0.30356 0.26203,-0.26204 0.30359,-0.21255 0.33584,-0.15662 0.35797,-0.09591 0.36917,-0.03231 0.36917,0.03231 0.35795,0.09591 0.33587,0.15662 0.30356,0.21255 0.26205,0.26204 0.21256,0.30356 0.15662,0.33586 0.0959,0.35796 z" style="fill:#dedede;fill-opacity:1;fill-rule:nonzero;stroke:none" id="path58"/>
          <path d="m 299.76376,98.22403 -0.0323,0.36917 -0.0959,0.35796 -0.15662,0.33586 -0.21255,0.30357 -0.26206,0.26204 -0.30355,0.21256 -0.33585,0.15661 -0.35797,0.0959 -0.36917,0.0323 -0.36917,-0.0323 -0.35794,-0.0959 -0.33588,-0.15661 -0.30356,-0.21256 -0.26205,-0.26204 -0.21256,-0.30357 -0.15662,-0.33586 -0.0959,-0.35796 -0.0323,-0.36917 0.0323,-0.36917 0.0959,-0.35796 0.15662,-0.33586 0.21256,-0.30357 0.26205,-0.26204 0.30356,-0.21256 0.33588,-0.15661 0.35794,-0.09592 0.36917,-0.03229 0.36917,0.03229 0.35797,0.09592 0.33585,0.15661 0.30355,0.21256 0.26206,0.26204 0.21255,0.30357 0.15662,0.33586 0.0959,0.35796 z" style="fill:#dedede;fill-opacity:1;fill-rule:nonzero;stroke:none" id="path60"/>
          <path d="m 356.4567,27.35789 -0.0323,0.36918 -0.0959,0.35795 -0.15662,0.33586 -0.21255,0.30356 -0.26202,0.26204 -0.30356,0.21257 -0.33588,0.15662 -0.35794,0.0959 -0.3692,0.0323 -0.36917,-0.0323 -0.35794,-0.0959 -0.33588,-0.15662 -0.30356,-0.21257 -0.26202,-0.26204 -0.21259,-0.30356 -0.15661,-0.33586 -0.0959,-0.35795 -0.0323,-0.36918 0.0323,-0.36918 0.0959,-0.35796 0.15661,-0.33586 0.21259,-0.30356 0.26202,-0.26204 0.30356,-0.21255 0.33588,-0.15662 0.35794,-0.09591 0.36917,-0.03231 0.3692,0.03231 0.35794,0.09591 0.33588,0.15662 0.30356,0.21255 0.26202,0.26204 0.21255,0.30356 0.15662,0.33586 0.0959,0.35796 z" style="fill:#dedede;fill-opacity:1;fill-rule:nonzero;stroke:none" id="path62"/>
          <path d="m 356.4567,98.22403 -0.0323,0.36917 -0.0959,0.35796 -0.15662,0.33586 -0.21255,0.30357 -0.26202,0.26204 -0.30356,0.21256 -0.33588,0.15661 -0.35794,0.0959 -0.3692,0.0323 -0.36917,-0.0323 -0.35794,-0.0959 -0.33588,-0.15661 -0.30356,-0.21256 -0.26202,-0.26204 -0.21259,-0.30357 -0.15661,-0.33586 -0.0959,-0.35796 -0.0323,-0.36917 0.0323,-0.36917 0.0959,-0.35796 0.15661,-0.33586 0.21259,-0.30357 0.26202,-0.26204 0.30356,-0.21256 0.33588,-0.15661 0.35794,-0.09592 0.36917,-0.03229 0.3692,0.03229 0.35794,0.09592 0.33588,0.15661 0.30356,0.21256 0.26202,0.26204 0.21255,0.30357 0.15662,0.33586 0.0959,0.35796 z" style="fill:#dedede;fill-opacity:1;fill-rule:nonzero;stroke:none" id="path64"/>
          <path d="m 299.76376,169.09018 -0.0323,0.36917 -0.0959,0.35794 -0.15662,0.33588 -0.21255,0.30356 -0.26206,0.26205 -0.30355,0.21256 -0.33585,0.15661 -0.35797,0.0959 -0.36917,0.0323 -0.36917,-0.0323 -0.35794,-0.0959 -0.33588,-0.15661 -0.30356,-0.21256 -0.26205,-0.26205 -0.21256,-0.30356 -0.15662,-0.33588 -0.0959,-0.35794 -0.0323,-0.36917 0.0323,-0.36917 0.0959,-0.35797 0.15662,-0.33585 0.21256,-0.30356 0.26205,-0.26205 0.30356,-0.21256 0.33588,-0.15661 0.35794,-0.0959 0.36917,-0.0323 0.36917,0.0323 0.35797,0.0959 0.33585,0.15661 0.30355,0.21256 0.26206,0.26205 0.21255,0.30356 0.15662,0.33585 0.0959,0.35797 z" style="fill:#dedede;fill-opacity:1;fill-rule:nonzero;stroke:none" id="path66"/>
          <path d="m 356.4567,169.09018 -0.0323,0.36917 -0.0959,0.35794 -0.15662,0.33588 -0.21255,0.30356 -0.26202,0.26205 -0.30356,0.21256 -0.33588,0.15661 -0.35794,0.0959 -0.3692,0.0323 -0.36917,-0.0323 -0.35794,-0.0959 -0.33588,-0.15661 -0.30356,-0.21256 -0.26202,-0.26205 -0.21259,-0.30356 -0.15661,-0.33588 -0.0959,-0.35794 -0.0323,-0.36917 0.0323,-0.36917 0.0959,-0.35797 0.15661,-0.33585 0.21259,-0.30356 0.26202,-0.26205 0.30356,-0.21256 0.33588,-0.15661 0.35794,-0.0959 0.36917,-0.0323 0.3692,0.0323 0.35794,0.0959 0.33588,0.15661 0.30356,0.21256 0.26202,0.26205 0.21255,0.30356 0.15662,0.33585 0.0959,0.35797 z" style="fill:#dedede;fill-opacity:1;fill-rule:nonzero;stroke:none" id="path68"/>
          <path d="m 299.76376,239.95633 -0.0323,0.36917 -0.0959,0.35794 -0.15662,0.33588 -0.21255,0.30356 -0.26206,0.26202 -0.30355,0.21259 -0.33585,0.15661 -0.35797,0.0959 -0.36917,0.0323 -0.36917,-0.0323 -0.35794,-0.0959 -0.33588,-0.15661 -0.30356,-0.21259 -0.26205,-0.26202 -0.21256,-0.30356 -0.15662,-0.33588 -0.0959,-0.35794 -0.0323,-0.36917 0.0323,-0.3692 0.0959,-0.35794 0.15662,-0.33588 0.21256,-0.30356 0.26205,-0.26202 0.30356,-0.21256 0.33588,-0.15661 0.35794,-0.0959 0.36917,-0.0323 0.36917,0.0323 0.35797,0.0959 0.33585,0.15661 0.30355,0.21256 0.26206,0.26202 0.21255,0.30356 0.15662,0.33588 0.0959,0.35794 z" style="fill:#dedede;fill-opacity:1;fill-rule:nonzero;stroke:none" id="path70"/>
          <path d="m 243.07086,239.95633 -0.0323,0.36917 -0.0959,0.35794 -0.15662,0.33588 -0.21255,0.30356 -0.26206,0.26202 -0.30356,0.21259 -0.33584,0.15661 -0.35797,0.0959 -0.36917,0.0323 -0.36918,-0.0323 -0.35797,-0.0959 -0.33584,-0.15661 -0.30356,-0.21259 -0.26206,-0.26202 -0.21255,-0.30356 -0.15662,-0.33588 -0.0959,-0.35794 -0.0323,-0.36917 0.0323,-0.3692 0.0959,-0.35794 0.15662,-0.33588 0.21255,-0.30356 0.26206,-0.26202 0.30356,-0.21256 0.33584,-0.15661 0.35797,-0.0959 0.36918,-0.0323 0.36917,0.0323 0.35797,0.0959 0.33584,0.15661 0.30356,0.21256 0.26206,0.26202 0.21255,0.30356 0.15662,0.33588 0.0959,0.35794 z" style="fill:#dedede;fill-opacity:1;fill-rule:nonzero;stroke:none" id="path72"/>
          <path d="m 70.86615,256.25552 2.97638,0.42521 v -0.85041 l -2.97638,0.4252 m 56.6929,0 -2.97638,0.42521 v -0.85041 l 2.97638,0.4252 2.97638,0.42521 v -0.85041 l -2.97638,0.4252 m 56.69293,0 -2.97638,0.42521 v -0.85041 l 2.97638,0.4252 2.97638,0.42521 v -0.85041 l -2.97638,0.4252 m 56.69291,0 -2.97638,0.42521 v -0.85041 l 2.97638,0.4252 2.97637,0.42521 v -0.85041 l -2.97637,0.4252 m 56.6929,0 -2.97638,0.42521 v -0.85041 l 2.97638,0.4252 2.97638,0.42521 v -0.85041 l -2.97638,0.4252 m 56.6929,0 -2.97638,0.42521 v -0.85041 l 2.97638,0.4252" style="fill:none;stroke:#000000;stroke-width:0.56693;stroke-linecap:round;stroke-linejoin:round;stroke-miterlimit:10;stroke-dasharray:none;stroke-opacity:1" id="path74"/>
          <path d="m 70.86615,256.25552 v 2.12598 m 0,-2.12598 v -2.12597 m 56.6929,2.12597 v 2.12598 m 0,-2.12598 v -2.12597 m 0,2.12597 v 2.12598 m 0,-2.12598 v -2.12597 m 56.69293,2.12597 v 2.12598 m 0,-2.12598 v -2.12597 m 0,2.12597 v 2.12598 m 0,-2.12598 v -2.12597 m 56.69291,2.12597 v 2.12598 m 0,-2.12598 v -2.12597 m 0,2.12597 v 2.12598 m 0,-2.12598 v -2.12597 m 56.6929,2.12597 v 2.12598 m 0,-2.12598 v -2.12597 m 0,2.12597 v 2.12598 m 0,-2.12598 v -2.12597 m 56.6929,2.12597 v 2.12598 m 0,-2.12598 v -2.12597 m -283.46454,2.12597 v -11.33859 m 56.6929,11.33859 v -11.33859 m 56.69293,11.33859 v -11.33859 m 56.69291,11.33859 v -11.33859 m 56.6929,11.33859 v -11.33859 m 56.6929,11.33859 V 244.91693 M 70.86615,256.25552 v 0 m 283.46454,0 v 0" style="fill:none;stroke:#000000;stroke-width:0.28346;stroke-linecap:round;stroke-linejoin:round;stroke-miterlimit:10;stroke-dasharray:none;stroke-opacity:1" id="path76"/>
          <g id="g78">
            <g id="g80" clip-path="url(#clipPath84)">
              <text transform="matrix(1,0,0,-1,90.39203,259.29121)" style="font-variant:normal;font-weight:normal;font-stretch:normal;font-size:10.0916px;font-family:'Palatino Linotype';-inkscape-font-specification:PalatinoLinotype-Roman;writing-mode:lr-tb;fill:#000000;fill-opacity:1;fill-rule:nonzero;stroke:none" id="text88">
                <tspan x="0 5.045805 7.5687075 12.614512" y="0" id="tspan86">4.00</tspan>
              </text>
            </g>
          </g>
          <g id="g90">
            <g id="g92" clip-path="url(#clipPath96)">
              <text transform="matrix(1,0,0,-1,147.08494,259.29121)" style="font-variant:normal;font-weight:normal;font-stretch:normal;font-size:10.0916px;font-family:'Palatino Linotype';-inkscape-font-specification:PalatinoLinotype-Roman;writing-mode:lr-tb;fill:#000000;fill-opacity:1;fill-rule:nonzero;stroke:none" id="text100">
                <tspan x="0 5.045805 7.5687075 12.614512" y="0" id="tspan98">4.00</tspan>
              </text>
            </g>
          </g>
          <g id="g102">
            <g id="g104" clip-path="url(#clipPath108)">
              <text transform="matrix(1,0,0,-1,203.77785,259.29121)" style="font-variant:normal;font-weight:normal;font-stretch:normal;font-size:10.0916px;font-family:'Palatino Linotype';-inkscape-font-specification:PalatinoLinotype-Roman;writing-mode:lr-tb;fill:#000000;fill-opacity:1;fill-rule:nonzero;stroke:none" id="text112">
                <tspan x="0 5.045805 7.5687075 12.614512" y="0" id="tspan110">4.00</tspan>
              </text>
            </g>
          </g>
          <g id="g114">
            <g id="g116" clip-path="url(#clipPath120)">
              <text transform="matrix(1,0,0,-1,260.47077,259.29121)" style="font-variant:normal;font-weight:normal;font-stretch:normal;font-size:10.0916px;font-family:'Palatino Linotype';-inkscape-font-specification:PalatinoLinotype-Roman;writing-mode:lr-tb;fill:#000000;fill-opacity:1;fill-rule:nonzero;stroke:none" id="text124">
                <tspan x="0 5.045805 7.5687075 12.614512" y="0" id="tspan122">4.00</tspan>
              </text>
            </g>
          </g>
          <g id="g126">
            <g id="g128" clip-path="url(#clipPath132)">
              <text transform="matrix(1,0,0,-1,317.16368,259.29121)" style="font-variant:normal;font-weight:normal;font-stretch:normal;font-size:10.0916px;font-family:'Palatino Linotype';-inkscape-font-specification:PalatinoLinotype-Roman;writing-mode:lr-tb;fill:#000000;fill-opacity:1;fill-rule:nonzero;stroke:none" id="text136">
                <tspan x="0 5.045805 7.5687075 12.614512" y="0" id="tspan134">4.00</tspan>
              </text>
            </g>
          </g>
          <path d="m 70.86615,256.25552 h 15.14998 41.54292 56.69293 56.69291 56.6929 56.6929" style="fill:none;stroke:#000000;stroke-width:0.28346;stroke-linecap:round;stroke-linejoin:round;stroke-miterlimit:10;stroke-dasharray:none;stroke-opacity:1" id="path138"/>
          <path d="m 54.56693,27.35789 -0.42519,2.97637 h 0.85039 l -0.4252,-2.97637 m 0,70.86614 -0.42519,-2.97638 h 0.85039 l -0.4252,2.97638 -0.42519,2.97638 h 0.85039 l -0.4252,-2.97638 m 0,70.86615 -0.42519,-2.97638 h 0.85039 l -0.4252,2.97638 -0.42519,2.97638 h 0.85039 l -0.4252,-2.97638 m 0,70.86615 -0.42519,-2.97638 h 0.85039 l -0.4252,2.97638" style="fill:none;stroke:#000000;stroke-width:0.56693;stroke-linecap:round;stroke-linejoin:round;stroke-miterlimit:10;stroke-dasharray:none;stroke-opacity:1" id="path140"/>
          <path d="m 54.56693,27.35789 h -2.12598 m 2.12598,0 h 2.12599 m -2.12599,70.86614 h -2.12598 m 2.12598,0 h 2.12599 m -2.12599,0 h -2.12598 m 2.12598,0 h 2.12599 m -2.12599,70.86615 h -2.12598 m 2.12598,0 h 2.12599 m -2.12599,0 h -2.12598 m 2.12598,0 h 2.12599 m -2.12599,70.86615 h -2.12598 m 2.12598,0 h 2.12599 M 54.56693,27.35789 H 65.90552 M 54.56693,98.22403 H 65.90552 M 54.56693,169.09018 H 65.90552 M 54.56693,239.95633 H 65.90552 M 54.56693,27.35789 v 0 m 0,212.59844 v 0" style="fill:none;stroke:#000000;stroke-width:0.28346;stroke-linecap:round;stroke-linejoin:round;stroke-miterlimit:10;stroke-dasharray:none;stroke-opacity:1" id="path142"/>
          <g id="g144">
            <g id="g146" clip-path="url(#clipPath150)">
              <text transform="matrix(0,1,1,0,51.53124,53.97039)" style="font-variant:normal;font-weight:normal;font-stretch:normal;font-size:10.0916px;font-family:'Palatino Linotype';-inkscape-font-specification:PalatinoLinotype-Roman;writing-mode:lr-tb;fill:#000000;fill-opacity:1;fill-rule:nonzero;stroke:none" id="text154">
                <tspan x="0 5.045805 7.5687075 12.614512" y="0" id="tspan152">5.00</tspan>
              </text>
            </g>
          </g>
          <g id="g156">
            <g id="g158" clip-path="url(#clipPath162)">
              <text transform="matrix(0,1,1,0,51.53124,124.83652)" style="font-variant:normal;font-weight:normal;font-stretch:normal;font-size:10.0916px;font-family:'Palatino Linotype';-inkscape-font-specification:PalatinoLinotype-Roman;writing-mode:lr-tb;fill:#000000;fill-opacity:1;fill-rule:nonzero;stroke:none" id="text166">
                <tspan x="0 5.045805 7.5687075 12.614512" y="0" id="tspan164">5.00</tspan>
              </text>
            </g>
          </g>
          <g id="g168">
            <g id="g170" clip-path="url(#clipPath174)">
              <text transform="matrix(0,1,1,0,51.53124,195.70266)" style="font-variant:normal;font-weight:normal;font-stretch:normal;font-size:10.0916px;font-family:'Palatino Linotype';-inkscape-font-specification:PalatinoLinotype-Roman;writing-mode:lr-tb;fill:#000000;fill-opacity:1;fill-rule:nonzero;stroke:none" id="text178">
                <tspan x="0 5.045805 7.5687075 12.614512" y="0" id="tspan176">5.00</tspan>
              </text>
            </g>
          </g>
          <path d="m 54.56693,27.35789 v 70.86614 70.86615 70.86615" style="fill:none;stroke:#000000;stroke-width:0.28346;stroke-linecap:round;stroke-linejoin:round;stroke-miterlimit:10;stroke-dasharray:none;stroke-opacity:1" id="path180"/>
          <path d="m 255.1181,41.53111 2.97638,0.4252 v -0.85038 l -2.97638,0.42518 m 42.51969,0 -2.97638,0.4252 v -0.85038 l 2.97638,0.42518" style="fill:none;stroke:#000000;stroke-width:0.56693;stroke-linecap:round;stroke-linejoin:round;stroke-miterlimit:10;stroke-dasharray:none;stroke-opacity:1" id="path182"/>
          <path d="m 255.1181,41.53111 v 2.12599 m 0,-2.12599 v -2.12597 m 42.51969,2.12597 v 2.12599 m 0,-2.12599 v -2.12597 m -42.51969,2.12597 v -0.07696 -9.13564 m 42.51969,9.2126 v -9.2126 m -42.51969,9.2126 v 0 m 42.51969,0 v 0" style="fill:none;stroke:#000000;stroke-width:0.28346;stroke-linecap:round;stroke-linejoin:round;stroke-miterlimit:10;stroke-dasharray:none;stroke-opacity:1" id="path184"/>
          <g id="g186">
            <g id="g188" clip-path="url(#clipPath192)">
              <text transform="matrix(1,0,0,-1,267.55738,44.5668)" style="font-variant:normal;font-weight:normal;font-stretch:normal;font-size:10.0916px;font-family:'Palatino Linotype';-inkscape-font-specification:PalatinoLinotype-Roman;writing-mode:lr-tb;fill:#000000;fill-opacity:1;fill-rule:nonzero;stroke:none" id="text196">
                <tspan x="0 5.045805 7.5687075 12.614512" y="0" id="tspan194">3.00</tspan>
              </text>
            </g>
          </g>
          <path d="m 255.1181,41.53111 h 42.51969" style="fill:none;stroke:#000000;stroke-width:0.28346;stroke-linecap:round;stroke-linejoin:round;stroke-miterlimit:10;stroke-dasharray:none;stroke-opacity:1" id="path198"/>
          <path d="m 338.03149,199.56262 -0.4252,2.97638 h 0.85041 l -0.42521,-2.97638 m 0,42.51969 -0.4252,-2.97638 h 0.85041 l -0.42521,2.97638" style="fill:none;stroke:#000000;stroke-width:0.56693;stroke-linecap:round;stroke-linejoin:round;stroke-miterlimit:10;stroke-dasharray:none;stroke-opacity:1" id="path200"/>
          <path d="m 338.03149,199.56262 h -2.12597 m 2.12597,0 h 2.12598 m -2.12598,42.51969 h -2.12597 m 2.12597,0 h 2.12598 m -2.12598,-42.51969 h 11.3386 m -11.3386,42.51969 h 11.3386 m -11.3386,-42.51969 v 0 m 0,42.51969 v 0" style="fill:none;stroke:#000000;stroke-width:0.28346;stroke-linecap:round;stroke-linejoin:round;stroke-miterlimit:10;stroke-dasharray:none;stroke-opacity:1" id="path202"/>
          <g id="g204">
            <g id="g206" clip-path="url(#clipPath210)">
              <text transform="matrix(0,1,1,0,334.99581,212.00188)" style="font-variant:normal;font-weight:normal;font-stretch:normal;font-size:10.0916px;font-family:'Palatino Linotype';-inkscape-font-specification:PalatinoLinotype-Roman;writing-mode:lr-tb;fill:#000000;fill-opacity:1;fill-rule:nonzero;stroke:none" id="text214">
                <tspan x="0 5.045805 7.5687075 12.614512" y="0" id="tspan212">3.00</tspan>
              </text>
            </g>
          </g>
          <path d="m 338.03149,199.56262 v 42.51969" style="fill:none;stroke:#000000;stroke-width:0.28346;stroke-linecap:round;stroke-linejoin:round;stroke-miterlimit:10;stroke-dasharray:none;stroke-opacity:1" id="path216"/>
          <g id="g218">
            <g id="g220" clip-path="url(#clipPath224)">
              <text transform="matrix(1,0,0,-1,65.14961,17.22403)" style="font-style:italic;font-variant:normal;font-weight:normal;font-stretch:normal;font-size:11.0078px;font-family:'Palatino Linotype';-inkscape-font-specification:PalatinoLinotype-Italic;writing-mode:lr-tb;fill:#000000;fill-opacity:1;fill-rule:nonzero;stroke:none" id="text228">
                <tspan x="0" y="0" id="tspan226">z</tspan>
              </text>
            </g>
          </g>
          <g id="g230">
            <g id="g232" clip-path="url(#clipPath236)">
              <text transform="matrix(1,0,0,-1,61.65354,45.52558)" style="font-style:italic;font-variant:normal;font-weight:normal;font-stretch:normal;font-size:11.0078px;font-family:'Palatino Linotype';-inkscape-font-specification:PalatinoLinotype-Italic;writing-mode:lr-tb;fill:#000000;fill-opacity:1;fill-rule:nonzero;stroke:none" id="text240">
                <tspan x="0" y="0" id="tspan238">y</tspan>
              </text>
            </g>
          </g>
          <g id="g242">
            <g id="g244" clip-path="url(#clipPath248)">
              <text transform="matrix(1,0,0,-1,87.45922,18.83038)" style="font-style:italic;font-variant:normal;font-weight:normal;font-stretch:normal;font-size:11.0078px;font-family:'Palatino Linotype';-inkscape-font-specification:PalatinoLinotype-Italic;writing-mode:lr-tb;fill:#000000;fill-opacity:1;fill-rule:nonzero;stroke:none" id="text252">
                <tspan x="0" y="0" id="tspan250">x</tspan>
              </text>
            </g>
          </g>
          <g id="g254">
            <g id="g256" clip-path="url(#clipPath260)">
              <text transform="matrix(1,0,0,-1,74.50187,5.55657)" style="font-variant:normal;font-weight:normal;font-stretch:normal;font-size:11.1008px;font-family:'Palatino Linotype';-inkscape-font-specification:PalatinoLinotype-Roman;writing-mode:lr-tb;fill:#000000;fill-opacity:1;fill-rule:nonzero;stroke:none" id="text264">
                <tspan x="0 3.6965563 13.498536" y="0" id="tspan262">[m]</tspan>
              </text>
            </g>
          </g>
          <g id="g266">
            <g id="g268" clip-path="url(#clipPath272)">
              <text transform="matrix(1,0,0,-1,216.19457,139.27828)" style="font-style:italic;font-variant:normal;font-weight:normal;font-stretch:normal;font-size:11.0078px;font-family:'Palatino Linotype';-inkscape-font-specification:PalatinoLinotype-Italic;writing-mode:lr-tb;fill:#000000;fill-opacity:1;fill-rule:nonzero;stroke:none" id="text276">
                <tspan x="0" y="0" id="tspan274">M</tspan>
              </text>
            </g>
          </g>
          <g id="g278">
            <g id="g280" clip-path="url(#clipPath284)">
              <text transform="matrix(1,0,0,-1,134.22047,129.56458)" style="font-style:italic;font-variant:normal;font-weight:normal;font-stretch:normal;font-size:11.0078px;font-family:'Palatino Linotype';-inkscape-font-specification:PalatinoLinotype-Italic;writing-mode:lr-tb;fill:#000000;fill-opacity:1;fill-rule:nonzero;stroke:none" id="text288">
                <tspan x="0" y="0" id="tspan286">W</tspan>
              </text>
            </g>
          </g>
          <g id="g290">
            <g id="g292" clip-path="url(#clipPath296)">
              <text transform="matrix(1,0,0,-1,145.54297,125.01733)" style="font-style:italic;font-variant:normal;font-weight:normal;font-stretch:normal;font-size:6.6047px;font-family:'Palatino Linotype';-inkscape-font-specification:PalatinoLinotype-Italic;writing-mode:lr-tb;fill:#000000;fill-opacity:1;fill-rule:nonzero;stroke:none" id="text300">
                <tspan x="0" y="0" id="tspan298">3</tspan>
              </text>
            </g>
          </g>
          <g id="g302">
            <g id="g304" clip-path="url(#clipPath308)">
              <text transform="matrix(1,0,0,-1,148.44516,226.07543)" style="font-style:italic;font-variant:normal;font-weight:normal;font-stretch:normal;font-size:11.0078px;font-family:'Palatino Linotype';-inkscape-font-specification:PalatinoLinotype-Italic;writing-mode:lr-tb;fill:#000000;fill-opacity:1;fill-rule:nonzero;stroke:none" id="text312">
                <tspan x="0" y="0" id="tspan310">W</tspan>
              </text>
            </g>
          </g>
          <g id="g314">
            <g id="g316" clip-path="url(#clipPath320)">
              <text transform="matrix(1,0,0,-1,159.76766,221.52817)" style="font-style:italic;font-variant:normal;font-weight:normal;font-stretch:normal;font-size:6.6047px;font-family:'Palatino Linotype';-inkscape-font-specification:PalatinoLinotype-Italic;writing-mode:lr-tb;fill:#000000;fill-opacity:1;fill-rule:nonzero;stroke:none" id="text324">
                <tspan x="0" y="0" id="tspan322">1</tspan>
              </text>
            </g>
          </g>
          <g id="g326">
            <g id="g328" clip-path="url(#clipPath332)">
              <text transform="matrix(1,0,0,-1,360.99212,216.72993)" style="font-style:italic;font-variant:normal;font-weight:normal;font-stretch:normal;font-size:11.0078px;font-family:'Palatino Linotype';-inkscape-font-specification:PalatinoLinotype-Italic;writing-mode:lr-tb;fill:#000000;fill-opacity:1;fill-rule:nonzero;stroke:none" id="text336">
                <tspan x="0" y="0" id="tspan334">W</tspan>
              </text>
            </g>
          </g>
          <g id="g338">
            <g id="g340" clip-path="url(#clipPath344)">
              <text transform="matrix(1,0,0,-1,372.31464,212.1827)" style="font-style:italic;font-variant:normal;font-weight:normal;font-stretch:normal;font-size:6.6047px;font-family:'Palatino Linotype';-inkscape-font-specification:PalatinoLinotype-Italic;writing-mode:lr-tb;fill:#000000;fill-opacity:1;fill-rule:nonzero;stroke:none" id="text348">
                <tspan x="0" y="0" id="tspan346">4</tspan>
              </text>
            </g>
          </g>
          <g id="g350">
            <g id="g352" clip-path="url(#clipPath356)">
              <text transform="matrix(1,0,0,-1,268.78677,13.26475)" style="font-style:italic;font-variant:normal;font-weight:normal;font-stretch:normal;font-size:11.0078px;font-family:'Palatino Linotype';-inkscape-font-specification:PalatinoLinotype-Italic;writing-mode:lr-tb;fill:#000000;fill-opacity:1;fill-rule:nonzero;stroke:none" id="text360">
                <tspan x="0" y="0" id="tspan358">W</tspan>
              </text>
            </g>
          </g>
          <g id="g362">
            <g id="g364" clip-path="url(#clipPath368)">
              <text transform="matrix(1,0,0,-1,280.10928,8.71751)" style="font-style:italic;font-variant:normal;font-weight:normal;font-stretch:normal;font-size:6.6047px;font-family:'Palatino Linotype';-inkscape-font-specification:PalatinoLinotype-Italic;writing-mode:lr-tb;fill:#000000;fill-opacity:1;fill-rule:nonzero;stroke:none" id="text372">
                <tspan x="0" y="0" id="tspan370">2</tspan>
              </text>
            </g>
          </g>
          <path d="m 127.55905,237.83032 h 56.69293 v 4.25199 h -56.69293 v -4.25199 M 255.1181,25.2319 h 42.51969 v 4.25197 H 255.1181 V 25.2319 m 97.08661,216.85041 v -42.51969 h 4.25199 v 42.51969 h -4.25199 M 125.43307,169.09018 V 98.22403 h 4.25199 v 70.86615 h -4.25199" style="fill:none;stroke:#000000;stroke-width:0.99213;stroke-linecap:round;stroke-linejoin:round;stroke-miterlimit:10;stroke-dasharray:none;stroke-opacity:1" id="path374"/>
          <path d="m 72.99213,239.95633 c 0,1.17413 -0.95183,2.12598 -2.12598,2.12598 m 0,0 c -1.17415,0 -2.12599,-0.95185 -2.12599,-2.12598 m 0,0 c 0,-1.17416 0.95184,-2.12601 2.12599,-2.12601 m 0,0 c 1.17415,0 2.12598,0.95185 2.12598,2.12601" style="fill:none;stroke:#000000;stroke-width:0.99213;stroke-linecap:round;stroke-linejoin:round;stroke-miterlimit:10;stroke-dasharray:none;stroke-opacity:1" id="path376"/>
          <path d="m 243.07086,239.95633 c 0,1.17413 -0.95184,2.12598 -2.12597,2.12598 m 0,0 c -1.17417,0 -2.12598,-0.95185 -2.12598,-2.12598 m 0,0 c 0,-1.17416 0.95181,-2.12601 2.12598,-2.12601 m 0,0 c 1.17413,0 2.12597,0.95185 2.12597,2.12601" style="fill:none;stroke:#000000;stroke-width:0.99213;stroke-linecap:round;stroke-linejoin:round;stroke-miterlimit:10;stroke-dasharray:none;stroke-opacity:1" id="path378"/>
          <path d="m 299.76376,239.95633 c 0,1.17413 -0.95181,2.12598 -2.12597,2.12598 m 0,0 c -1.17414,0 -2.12598,-0.95185 -2.12598,-2.12598 m 0,0 c 0,-1.17416 0.95184,-2.12601 2.12598,-2.12601 m 0,0 c 1.17416,0 2.12597,0.95185 2.12597,2.12601" style="fill:none;stroke:#000000;stroke-width:0.99213;stroke-linecap:round;stroke-linejoin:round;stroke-miterlimit:10;stroke-dasharray:none;stroke-opacity:1" id="path380"/>
          <path d="m 299.76376,169.09018 c 0,1.17413 -0.95181,2.12598 -2.12597,2.12598 m 0,0 c -1.17414,0 -2.12598,-0.95185 -2.12598,-2.12598 m 0,0 c 0,-1.17416 0.95184,-2.12598 2.12598,-2.12598 m 0,0 c 1.17416,0 2.12597,0.95182 2.12597,2.12598" style="fill:none;stroke:#000000;stroke-width:0.99213;stroke-linecap:round;stroke-linejoin:round;stroke-miterlimit:10;stroke-dasharray:none;stroke-opacity:1" id="path382"/>
          <path d="m 299.76376,98.22403 c 0,1.17415 -0.95181,2.12599 -2.12597,2.12599 m 0,0 c -1.17414,0 -2.12598,-0.95184 -2.12598,-2.12599 m 0,0 c 0,-1.17415 0.95184,-2.12598 2.12598,-2.12598 m 0,0 c 1.17416,0 2.12597,0.95183 2.12597,2.12598" style="fill:none;stroke:#000000;stroke-width:0.99213;stroke-linecap:round;stroke-linejoin:round;stroke-miterlimit:10;stroke-dasharray:none;stroke-opacity:1" id="path384"/>
          <path d="m 356.4567,169.09018 c 0,1.17413 -0.95185,2.12598 -2.12601,2.12598 m 0,0 c -1.17413,0 -2.12598,-0.95185 -2.12598,-2.12598 m 0,0 c 0,-1.17416 0.95185,-2.12598 2.12598,-2.12598 m 0,0 c 1.17416,0 2.12601,0.95182 2.12601,2.12598" style="fill:none;stroke:#000000;stroke-width:0.99213;stroke-linecap:round;stroke-linejoin:round;stroke-miterlimit:10;stroke-dasharray:none;stroke-opacity:1" id="path386"/>
          <path d="m 356.4567,98.22403 c 0,1.17415 -0.95185,2.12599 -2.12601,2.12599 m 0,0 c -1.17413,0 -2.12598,-0.95184 -2.12598,-2.12599 m 0,0 c 0,-1.17415 0.95185,-2.12598 2.12598,-2.12598 m 0,0 c 1.17416,0 2.12601,0.95183 2.12601,2.12598" style="fill:none;stroke:#000000;stroke-width:0.99213;stroke-linecap:round;stroke-linejoin:round;stroke-miterlimit:10;stroke-dasharray:none;stroke-opacity:1" id="path388"/>
          <path d="m 356.4567,27.35789 c 0,1.17415 -0.95185,2.12598 -2.12601,2.12598 m 0,0 c -1.17413,0 -2.12598,-0.95183 -2.12598,-2.12598 m 0,0 c 0,-1.17414 0.95185,-2.12599 2.12598,-2.12599 m 0,0 c 1.17416,0 2.12601,0.95185 2.12601,2.12599" style="fill:none;stroke:#000000;stroke-width:0.99213;stroke-linecap:round;stroke-linejoin:round;stroke-miterlimit:10;stroke-dasharray:none;stroke-opacity:1" id="path390"/>
          <path d="m 186.37796,27.35789 c 0,1.17415 -0.95184,2.12598 -2.12598,2.12598 m 0,0 c -1.17416,0 -2.126,-0.95183 -2.126,-2.12598 m 0,0 c 0,-1.17414 0.95184,-2.12599 2.126,-2.12599 m 0,0 c 1.17414,0 2.12598,0.95185 2.12598,2.12599" style="fill:none;stroke:#000000;stroke-width:0.99213;stroke-linecap:round;stroke-linejoin:round;stroke-miterlimit:10;stroke-dasharray:none;stroke-opacity:1" id="path392"/>
          <path d="m 129.68506,27.35789 c 0,1.17415 -0.95184,2.12598 -2.12601,2.12598 m 0,0 c -1.17415,0 -2.12598,-0.95183 -2.12598,-2.12598 m 0,0 c 0,-1.17414 0.95183,-2.12599 2.12598,-2.12599 m 0,0 c 1.17417,0 2.12601,0.95185 2.12601,2.12599" style="fill:none;stroke:#000000;stroke-width:0.99213;stroke-linecap:round;stroke-linejoin:round;stroke-miterlimit:10;stroke-dasharray:none;stroke-opacity:1" id="path394"/>
          <path d="m 72.99213,27.35789 c 0,1.17415 -0.95183,2.12598 -2.12598,2.12598 m 0,0 c -1.17415,0 -2.12599,-0.95183 -2.12599,-2.12598 m 0,0 c 0,-1.17414 0.95184,-2.12599 2.12599,-2.12599 m 0,0 c 1.17415,0 2.12598,0.95185 2.12598,2.12599" style="fill:none;stroke:#000000;stroke-width:0.99213;stroke-linecap:round;stroke-linejoin:round;stroke-miterlimit:10;stroke-dasharray:none;stroke-opacity:1" id="path396"/>
          <path d="m 72.99213,98.22403 c 0,1.17415 -0.95183,2.12599 -2.12598,2.12599 m 0,0 c -1.17415,0 -2.12599,-0.95184 -2.12599,-2.12599 m 0,0 c 0,-1.17415 0.95184,-2.12598 2.12599,-2.12598 m 0,0 c 1.17415,0 2.12598,0.95183 2.12598,2.12598" style="fill:none;stroke:#000000;stroke-width:0.99213;stroke-linecap:round;stroke-linejoin:round;stroke-miterlimit:10;stroke-dasharray:none;stroke-opacity:1" id="path398"/>
          <path d="m 72.99213,169.09018 c 0,1.17413 -0.95183,2.12598 -2.12598,2.12598 m 0,0 c -1.17415,0 -2.12599,-0.95185 -2.12599,-2.12598 m 0,0 c 0,-1.17416 0.95184,-2.12598 2.12599,-2.12598 m 0,0 c 1.17415,0 2.12598,0.95182 2.12598,2.12598" style="fill:none;stroke:#000000;stroke-width:0.99213;stroke-linecap:round;stroke-linejoin:round;stroke-miterlimit:10;stroke-dasharray:none;stroke-opacity:1" id="path400"/>
          <path d="m 70.86615,27.35789 v 0" style="fill:none;stroke:#000000;stroke-width:0.28346;stroke-linecap:round;stroke-linejoin:round;stroke-miterlimit:10;stroke-dasharray:none;stroke-opacity:1" id="path402"/>
          <path d="m 69.44882,27.35789 c 0,-0.78277 0.63455,-1.41732 1.41733,-1.41732 m 0,0 c 0.78276,0 1.41731,0.63455 1.41731,1.41732 m 0,0 c 0,0.78277 -0.63455,1.41732 -1.41731,1.41732 m 0,0 c -0.78278,0 -1.41733,-0.63455 -1.41733,-1.41732" style="fill:none;stroke:#000000;stroke-width:0.28346;stroke-linecap:round;stroke-linejoin:round;stroke-miterlimit:10;stroke-dasharray:none;stroke-opacity:1" id="path404"/>
          <path d="m 211.18109,133.6571 c 0,-0.78277 0.63458,-1.41732 1.41733,-1.41732 m 0,0 c 0.78278,0 1.41733,0.63455 1.41733,1.41732 m 0,0 c 0,0.78278 -0.63455,1.41733 -1.41733,1.41733 m 0,0 c -0.78275,0 -1.41733,-0.63455 -1.41733,-1.41733" style="fill:none;stroke:#000000;stroke-width:0.28346;stroke-linecap:round;stroke-linejoin:round;stroke-miterlimit:10;stroke-dasharray:none;stroke-opacity:1" id="path406"/>
        </g>
      </g>
    </g>
    <g transform="translate(101.9, -35.5) scale(1 1) ">
      <g><metadata>
  <rdf:RDF xmlns:dc="http://purl.org/dc/elements/1.1/" xmlns:cc="http://creativecommons.org/ns#" xmlns:rdf="http://www.w3.org/1999/02/22-rdf-syntax-ns#">
   <cc:Work>
    <dc:type rdf:resource="http://purl.org/dc/dcmitype/StillImage"/>
    <dc:date>2023-08-22T14:08:41.924218</dc:date>
    <dc:format>image/svg+xml</dc:format>
    <dc:creator>
     <cc:Agent>
      <dc:title>Matplotlib v3.7.2, https://matplotlib.org/</dc:title>
     </cc:Agent>
    </dc:creator>
   </cc:Work>
  </rdf:RDF>
 </metadata>
 <defs>
  <style type="text/css">*{stroke-linejoin: round; stroke-linecap: butt}</style>
 </defs>
 <g id="figure_1">
  <g id="patch_1">
   <path d="M 0 428.4  L 428.4 428.4  L 428.4 0  L 0 0  L 0 428.4  z " style="fill: none"/>
  </g>
  <g id="axes_1">
   <g id="PathCollection_1">
    <defs>
     <path id="m576c23903f" d="M -3 0  L 3 0  M 0 3  L 0 -3  " style="stroke: #ff0000; stroke-width: 1.5"/>
    </defs>
    <g clip-path="url(#ped3885c920)">
     <use xlink:href="#m576c23903f" x="106.369773" y="74.860466" style="fill: #ff0000; stroke: #ff0000; stroke-width: 1.5"/>
     <use xlink:href="#m576c23903f" x="266.715511" y="357.823534" style="fill: #ff0000; stroke: #ff0000; stroke-width: 1.5"/>
     <use xlink:href="#m576c23903f" x="68.641364" y="216.342" style="fill: #ff0000; stroke: #ff0000; stroke-width: 1.5"/>
     <use xlink:href="#m576c23903f" x="370.468636" y="103.156773" style="fill: #ff0000; stroke: #ff0000; stroke-width: 1.5"/>
    </g>
   </g>
   <g id="PathCollection_2">
    <defs>
     <path id="m9358342714" d="M 0 3  C 0.795609 3 1.55874 2.683901 2.12132 2.12132  C 2.683901 1.55874 3 0.795609 3 0  C 3 -0.795609 2.683901 -1.55874 2.12132 -2.12132  C 1.55874 -2.683901 0.795609 -3 0 -3  C -0.795609 -3 -1.55874 -2.683901 -2.12132 -2.12132  C -2.683901 -1.55874 -3 -0.795609 -3 0  C -3 0.795609 -2.683901 1.55874 -2.12132 2.12132  C -1.55874 2.683901 -0.795609 3 0 3  z " style="stroke: #ff0000"/>
    </defs>
    <g clip-path="url(#ped3885c920)">
     <use xlink:href="#m9358342714" x="122.470666" y="158.938815" style="fill: #ff0000; stroke: #ff0000"/>
    </g>
   </g>
   <g id="text_1">
    <!-- $S$ (x = -3.15; y = 3.04) -->
    <g transform="translate(122.470666 147.458178) scale(0.1 -0.1)">
     <defs>
      <path id="URWPalladioL-Ital-53" d="M 2886 3454  L 3078 3454  C 3104 3803 3149 4049 3238 4326  C 2950 4479 2694 4544 2394 4544  C 1926 4544 1440 4345 1101 3997  C 826 3732 691 3403 691 3028  C 691 2479 934 2175 1472 2046  L 2080 1897  C 2426 1813 2598 1587 2598 1219  C 2598 605 2144 179 1485 179  C 1139 179 896 256 614 457  L 614 1096  L 422 1096  C 384 741 339 450 269 115  C 582 -45 922 -128 1261 -128  C 2253 -128 3104 625 3104 1497  C 3104 2007 2829 2279 2182 2421  L 1766 2511  C 1344 2602 1152 2841 1152 3267  C 1152 3829 1581 4236 2170 4236  C 2483 4236 2694 4152 2886 3945  L 2886 3454  z " transform="scale(0.015625)"/>
      <path id="URWPalladioL-Roma-28" d="M 1926 -1242  C 1466 -673 1299 -365 1133 211  C 998 672 934 1158 934 1702  C 934 2233 998 2688 1120 3104  C 1286 3635 1459 3936 1926 4480  L 1805 4646  C 1139 4051 877 3699 634 3072  C 467 2643 384 2188 384 1702  C 384 1017 544 371 851 -205  C 1075 -634 1280 -884 1805 -1377  L 1926 -1242  z " transform="scale(0.015625)"/>
      <path id="URWPalladioL-Roma-78" d="M 1843 1631  L 2752 2694  C 2790 2739 2861 2764 2970 2764  L 3059 2764  L 3059 2944  L 2534 2944  L 1741 1823  L 1254 2566  C 1158 2706 1088 2790 870 3008  L 128 2879  L 160 2713  L 294 2700  C 410 2693 550 2604 614 2514  L 1382 1398  L 429 269  C 384 211 301 172 237 172  L 128 172  L 128 0  L 678 0  C 723 70 736 96 813 211  C 915 390 1018 551 1062 602  L 1536 1231  L 2221 192  L 2227 179  C 2285 108 2336 44 2387 0  C 2720 0 2720 0 2778 0  C 2842 19 2842 19 3174 0  L 3174 172  L 3014 192  C 2938 198 2861 249 2790 345  L 1843 1631  z " transform="scale(0.015625)"/>
      <path id="URWPalladioL-Roma-3d" d="M 3552 2470  L 326 2470  L 326 2112  L 3552 2112  L 3552 2470  z M 3552 1216  L 326 1216  L 326 857  L 3552 857  L 3552 1216  z " transform="scale(0.015625)"/>
      <path id="URWPalladioL-Roma-2d" d="M 1805 1395  L 1997 1823  L 1965 1856  L 282 1856  L 109 1427  L 141 1395  L 1805 1395  z " transform="scale(0.015625)"/>
      <path id="URWPalladioL-Roma-33" d="M 275 3196  L 474 3196  L 589 3553  C 659 3770 1062 3987 1395 3987  C 1811 3987 2150 3649 2150 3247  C 2150 2769 1773 2368 1318 2368  C 1267 2368 1197 2374 1114 2380  L 1018 2387  L 941 2047  L 986 2008  C 1229 2118 1350 2150 1523 2150  C 2054 2150 2362 1808 2362 1222  C 2362 565 1971 134 1376 134  C 1082 134 819 231 627 411  C 474 553 390 701 269 1048  L 96 984  C 230 591 282 359 320 38  C 659 -77 941 -128 1178 -128  C 1690 -128 2278 160 2630 591  C 2848 855 2957 1139 2957 1441  C 2957 1750 2829 2021 2598 2182  C 2438 2297 2291 2348 1971 2406  C 2483 2801 2675 3094 2675 3470  C 2675 4038 2202 4416 1491 4416  C 1056 4416 768 4294 461 3987  L 275 3196  z " transform="scale(0.015625)"/>
      <path id="URWPalladioL-Roma-2e" d="M 794 678  C 602 678 429 499 429 307  C 429 115 602 -64 787 -64  C 992 -64 1171 108 1171 307  C 1171 499 992 678 794 678  z " transform="scale(0.015625)"/>
      <path id="URWPalladioL-Roma-31" d="M 429 3571  L 493 3571  L 1318 3942  C 1325 3949 1331 3949 1338 3949  C 1376 3949 1389 3891 1389 3737  L 1389 633  C 1389 300 1318 230 973 211  L 614 192  L 614 0  C 1600 0 1600 0 1670 0  C 1754 0 1894 0 2112 -7  C 2189 6 2413 6 2675 0  L 2675 192  L 2342 211  C 1990 229 1926 299 1926 628  L 1926 4383  L 1837 4416  C 1421 4199 966 4009 384 3807  L 429 3571  z " transform="scale(0.015625)"/>
      <path id="URWPalladioL-Roma-35" d="M 813 3891  C 1638 3865 1997 3859 2765 3859  L 2797 3891  C 2784 4006 2784 4057 2784 4140  C 2784 4230 2784 4281 2797 4396  L 2765 4428  C 2285 4403 1997 4396 1651 4396  C 1299 4396 1018 4403 538 4428  L 506 4396  C 512 4006 518 3724 518 3520  C 518 2976 499 2360 480 2076  L 608 2038  C 909 2341 1082 2432 1395 2432  C 2010 2432 2394 1992 2394 1295  C 2394 579 1984 160 1286 160  C 941 160 621 276 531 443  L 237 973  L 83 882  C 230 514 307 308 397 25  C 576 -71 832 -128 1107 -128  C 1536 -128 1990 57 2342 366  C 2733 715 2938 1153 2938 1631  C 2938 2360 2419 2873 1690 2873  C 1382 2873 1152 2790 755 2553  L 813 3891  z " transform="scale(0.015625)"/>
      <path id="URWPalladioL-Roma-3b" d="M 1306 799  C 1133 742 1018 703 678 607  C 634 121 474 -295 102 -909  L 192 -980  L 454 -858  C 973 -186 1216 217 1395 710  L 1306 799  z M 960 2918  C 768 2918 595 2739 595 2547  C 595 2355 768 2176 954 2176  C 1158 2176 1338 2348 1338 2540  C 1338 2739 1158 2918 960 2918  z " transform="scale(0.015625)"/>
      <path id="URWPalladioL-Roma-79" d="M 1901 569  C 1760 812 1690 960 1574 1273  L 1165 2349  C 1126 2457 1101 2553 1101 2617  C 1101 2707 1171 2758 1318 2765  L 1562 2777  L 1562 2957  C 941 2937 941 2937 819 2937  C 698 2937 698 2937 77 2957  L 77 2777  L 192 2765  C 352 2745 429 2675 525 2451  L 1222 774  C 1402 339 1466 185 1581 -135  L 1434 -525  C 1229 -1063 979 -1364 736 -1364  C 634 -1364 518 -1312 410 -1216  L 326 -1216  L 173 -1696  C 294 -1760 397 -1792 518 -1792  C 947 -1792 1222 -1562 1466 -1005  L 2765 1990  C 3021 2573 3142 2745 3302 2765  L 3482 2777  L 3482 2957  C 2976 2937 2976 2937 2874 2937  C 2771 2937 2771 2937 2266 2957  L 2266 2777  L 2432 2765  C 2611 2752 2701 2694 2701 2605  C 2701 2560 2688 2502 2662 2438  L 1901 569  z " transform="scale(0.015625)"/>
      <path id="URWPalladioL-Roma-30" d="M 1683 4416  C 691 4416 186 3628 186 2076  C 186 1326 320 679 544 365  C 768 51 1126 -128 1523 -128  C 2490 -128 2976 704 2976 2345  C 2976 3749 2560 4416 1683 4416  z M 1568 4191  C 2189 4191 2438 3563 2438 2025  C 2438 660 2195 96 1606 96  C 986 96 723 743 723 2307  C 723 3660 960 4191 1568 4191  z " transform="scale(0.015625)"/>
      <path id="URWPalladioL-Roma-34" d="M 1792 1152  L 1792 684  C 1792 310 1722 223 1408 210  L 1011 192  L 1011 0  C 1862 0 1862 0 2016 0  C 2170 19 2170 19 3021 0  L 3021 192  L 2714 210  C 2400 229 2330 310 2330 684  L 2330 1152  C 2707 1152 2842 1145 3021 1127  L 3021 1580  C 2720 1555 2598 1555 2502 1561  L 2483 1561  L 2330 1561  L 2330 2445  C 2330 3576 2342 4122 2374 4383  L 2298 4416  L 1824 4243  L 13 1299  L 83 1152  L 1792 1152  z M 1792 1561  L 416 1561  L 1792 3798  L 1792 1561  z " transform="scale(0.015625)"/>
      <path id="URWPalladioL-Roma-29" d="M 326 -1377  C 768 -961 954 -749 1152 -436  C 1542 185 1747 928 1747 1696  C 1747 2188 1664 2643 1498 3072  C 1254 3693 992 4045 326 4646  L 205 4480  C 672 3929 845 3629 1005 3104  C 1133 2688 1197 2233 1197 1702  C 1197 1158 1133 672 998 211  C 832 -365 666 -673 205 -1242  L 326 -1377  z " transform="scale(0.015625)"/>
     </defs>
     <use xlink:href="#URWPalladioL-Ital-53" transform="scale(0.996264)"/>
     <use xlink:href="#URWPalladioL-Roma-28" transform="translate(81.544261 0) scale(0.996264)"/>
     <use xlink:href="#URWPalladioL-Roma-78" transform="translate(114.719491 0) scale(0.996264)"/>
     <use xlink:href="#URWPalladioL-Roma-3d" transform="translate(191.032438 0) scale(0.996264)"/>
     <use xlink:href="#URWPalladioL-Roma-2d" transform="translate(276.312051 0) scale(0.996264)"/>
     <use xlink:href="#URWPalladioL-Roma-33" transform="translate(309.48728 0) scale(0.996264)"/>
     <use xlink:href="#URWPalladioL-Roma-2e" transform="translate(359.300481 0) scale(0.996264)"/>
     <use xlink:href="#URWPalladioL-Roma-31" transform="translate(384.207081 0) scale(0.996264)"/>
     <use xlink:href="#URWPalladioL-Roma-35" transform="translate(434.020282 0) scale(0.996264)"/>
     <use xlink:href="#URWPalladioL-Roma-3b" transform="translate(483.833482 0) scale(0.996264)"/>
     <use xlink:href="#URWPalladioL-Roma-79" transform="translate(533.646683 0) scale(0.996264)"/>
     <use xlink:href="#URWPalladioL-Roma-3d" transform="translate(613.94496 0) scale(0.996264)"/>
     <use xlink:href="#URWPalladioL-Roma-33" transform="translate(699.224572 0) scale(0.996264)"/>
     <use xlink:href="#URWPalladioL-Roma-2e" transform="translate(749.037773 0) scale(0.996264)"/>
     <use xlink:href="#URWPalladioL-Roma-30" transform="translate(773.944373 0) scale(0.996264)"/>
     <use xlink:href="#URWPalladioL-Roma-34" transform="translate(823.757574 0) scale(0.996264)"/>
     <use xlink:href="#URWPalladioL-Roma-29" transform="translate(873.570774 0) scale(0.996264)"/>
    </g>
   </g>
  </g>
 </g>
 <defs>
  <clipPath id="ped3885c920">
   <rect x="53.55" y="60.712313" width="332.01" height="311.259375"/>
  </clipPath>
 </defs>
</g>
    </g>
  </g>
</svg>
