<?xml version="1.0" encoding="utf-8" standalone="no"?>
<!DOCTYPE svg PUBLIC "-//W3C//DTD SVG 1.1//EN"
  "http://www.w3.org/Graphics/SVG/1.1/DTD/svg11.dtd">
<svg xmlns:xlink="http://www.w3.org/1999/xlink" width="424.8pt" height="216pt" viewBox="0 0 424.8 216" xmlns="http://www.w3.org/2000/svg" version="1.1">
 <metadata>
  <rdf:RDF xmlns:dc="http://purl.org/dc/elements/1.1/" xmlns:cc="http://creativecommons.org/ns#" xmlns:rdf="http://www.w3.org/1999/02/22-rdf-syntax-ns#">
   <cc:Work>
    <dc:type rdf:resource="http://purl.org/dc/dcmitype/StillImage"/>
    <dc:date>2023-08-07T10:04:03.513816</dc:date>
    <dc:format>image/svg+xml</dc:format>
    <dc:creator>
     <cc:Agent>
      <dc:title>Matplotlib v3.7.1, https://matplotlib.org/</dc:title>
     </cc:Agent>
    </dc:creator>
   </cc:Work>
  </rdf:RDF>
 </metadata>
 <defs>
  <style type="text/css">*{stroke-linejoin: round; stroke-linecap: butt}</style>
 </defs>
 <g id="figure_1">
  <g id="patch_1">
   <path d="M 0 216 
L 424.8 216 
L 424.8 0 
L 0 0 
z
" style="fill: #ffffff"/>
  </g>
  <g id="axes_1">
   <g id="patch_2">
    <path d="M 53.1 192.24 
L 382.32 192.24 
L 382.32 25.92 
L 53.1 25.92 
z
" style="fill: #ffffff"/>
   </g>
   <g id="matplotlib.axis_1">
    <g id="xtick_1">
     <g id="line2d_1">
      <defs>
       <path id="mfe977c2ede" d="M 0 0 
L 0 3.5 
" style="stroke: #000000; stroke-width: 0.8"/>
      </defs>
      <g>
       <use xlink:href="#mfe977c2ede" x="68.064545" y="109.039218" style="stroke: #000000; stroke-width: 0.8"/>
      </g>
     </g>
     <g id="text_1">
      <!-- 0 -->
      <g transform="translate(64.883295 123.637656) scale(0.1 -0.1)">
       <defs>
        <path id="DejaVuSans-30" d="M 2034 4250 
Q 1547 4250 1301 3770 
Q 1056 3291 1056 2328 
Q 1056 1369 1301 889 
Q 1547 409 2034 409 
Q 2525 409 2770 889 
Q 3016 1369 3016 2328 
Q 3016 3291 2770 3770 
Q 2525 4250 2034 4250 
z
M 2034 4750 
Q 2819 4750 3233 4129 
Q 3647 3509 3647 2328 
Q 3647 1150 3233 529 
Q 2819 -91 2034 -91 
Q 1250 -91 836 529 
Q 422 1150 422 2328 
Q 422 3509 836 4129 
Q 1250 4750 2034 4750 
z
" transform="scale(0.015625)"/>
       </defs>
       <use xlink:href="#DejaVuSans-30"/>
      </g>
     </g>
    </g>
    <g id="xtick_2">
     <g id="line2d_2">
      <g>
       <use xlink:href="#mfe977c2ede" x="117.946364" y="109.039218" style="stroke: #000000; stroke-width: 0.8"/>
      </g>
     </g>
     <g id="text_2">
      <!-- 1 -->
      <g transform="translate(114.765114 123.637656) scale(0.1 -0.1)">
       <defs>
        <path id="DejaVuSans-31" d="M 794 531 
L 1825 531 
L 1825 4091 
L 703 3866 
L 703 4441 
L 1819 4666 
L 2450 4666 
L 2450 531 
L 3481 531 
L 3481 0 
L 794 0 
L 794 531 
z
" transform="scale(0.015625)"/>
       </defs>
       <use xlink:href="#DejaVuSans-31"/>
      </g>
     </g>
    </g>
    <g id="xtick_3">
     <g id="line2d_3">
      <g>
       <use xlink:href="#mfe977c2ede" x="167.828182" y="109.039218" style="stroke: #000000; stroke-width: 0.8"/>
      </g>
     </g>
     <g id="text_3">
      <!-- 2 -->
      <g transform="translate(164.646932 123.637656) scale(0.1 -0.1)">
       <defs>
        <path id="DejaVuSans-32" d="M 1228 531 
L 3431 531 
L 3431 0 
L 469 0 
L 469 531 
Q 828 903 1448 1529 
Q 2069 2156 2228 2338 
Q 2531 2678 2651 2914 
Q 2772 3150 2772 3378 
Q 2772 3750 2511 3984 
Q 2250 4219 1831 4219 
Q 1534 4219 1204 4116 
Q 875 4013 500 3803 
L 500 4441 
Q 881 4594 1212 4672 
Q 1544 4750 1819 4750 
Q 2544 4750 2975 4387 
Q 3406 4025 3406 3419 
Q 3406 3131 3298 2873 
Q 3191 2616 2906 2266 
Q 2828 2175 2409 1742 
Q 1991 1309 1228 531 
z
" transform="scale(0.015625)"/>
       </defs>
       <use xlink:href="#DejaVuSans-32"/>
      </g>
     </g>
    </g>
    <g id="xtick_4">
     <g id="line2d_4">
      <g>
       <use xlink:href="#mfe977c2ede" x="217.71" y="109.039218" style="stroke: #000000; stroke-width: 0.8"/>
      </g>
     </g>
     <g id="text_4">
      <!-- 3 -->
      <g transform="translate(214.52875 123.637656) scale(0.1 -0.1)">
       <defs>
        <path id="DejaVuSans-33" d="M 2597 2516 
Q 3050 2419 3304 2112 
Q 3559 1806 3559 1356 
Q 3559 666 3084 287 
Q 2609 -91 1734 -91 
Q 1441 -91 1130 -33 
Q 819 25 488 141 
L 488 750 
Q 750 597 1062 519 
Q 1375 441 1716 441 
Q 2309 441 2620 675 
Q 2931 909 2931 1356 
Q 2931 1769 2642 2001 
Q 2353 2234 1838 2234 
L 1294 2234 
L 1294 2753 
L 1863 2753 
Q 2328 2753 2575 2939 
Q 2822 3125 2822 3475 
Q 2822 3834 2567 4026 
Q 2313 4219 1838 4219 
Q 1578 4219 1281 4162 
Q 984 4106 628 3988 
L 628 4550 
Q 988 4650 1302 4700 
Q 1616 4750 1894 4750 
Q 2613 4750 3031 4423 
Q 3450 4097 3450 3541 
Q 3450 3153 3228 2886 
Q 3006 2619 2597 2516 
z
" transform="scale(0.015625)"/>
       </defs>
       <use xlink:href="#DejaVuSans-33"/>
      </g>
     </g>
    </g>
    <g id="xtick_5">
     <g id="line2d_5">
      <g>
       <use xlink:href="#mfe977c2ede" x="267.591818" y="109.039218" style="stroke: #000000; stroke-width: 0.8"/>
      </g>
     </g>
     <g id="text_5">
      <!-- 4 -->
      <g transform="translate(264.410568 123.637656) scale(0.1 -0.1)">
       <defs>
        <path id="DejaVuSans-34" d="M 2419 4116 
L 825 1625 
L 2419 1625 
L 2419 4116 
z
M 2253 4666 
L 3047 4666 
L 3047 1625 
L 3713 1625 
L 3713 1100 
L 3047 1100 
L 3047 0 
L 2419 0 
L 2419 1100 
L 313 1100 
L 313 1709 
L 2253 4666 
z
" transform="scale(0.015625)"/>
       </defs>
       <use xlink:href="#DejaVuSans-34"/>
      </g>
     </g>
    </g>
    <g id="xtick_6">
     <g id="line2d_6">
      <g>
       <use xlink:href="#mfe977c2ede" x="317.473636" y="109.039218" style="stroke: #000000; stroke-width: 0.8"/>
      </g>
     </g>
     <g id="text_6">
      <!-- 5 -->
      <g transform="translate(314.292386 123.637656) scale(0.1 -0.1)">
       <defs>
        <path id="DejaVuSans-35" d="M 691 4666 
L 3169 4666 
L 3169 4134 
L 1269 4134 
L 1269 2991 
Q 1406 3038 1543 3061 
Q 1681 3084 1819 3084 
Q 2600 3084 3056 2656 
Q 3513 2228 3513 1497 
Q 3513 744 3044 326 
Q 2575 -91 1722 -91 
Q 1428 -91 1123 -41 
Q 819 9 494 109 
L 494 744 
Q 775 591 1075 516 
Q 1375 441 1709 441 
Q 2250 441 2565 725 
Q 2881 1009 2881 1497 
Q 2881 1984 2565 2268 
Q 2250 2553 1709 2553 
Q 1456 2553 1204 2497 
Q 953 2441 691 2322 
L 691 4666 
z
" transform="scale(0.015625)"/>
       </defs>
       <use xlink:href="#DejaVuSans-35"/>
      </g>
     </g>
    </g>
    <g id="xtick_7">
     <g id="line2d_7">
      <g>
       <use xlink:href="#mfe977c2ede" x="367.355455" y="109.039218" style="stroke: #000000; stroke-width: 0.8"/>
      </g>
     </g>
     <g id="text_7">
      <!-- 6 -->
      <g transform="translate(364.174205 123.637656) scale(0.1 -0.1)">
       <defs>
        <path id="DejaVuSans-36" d="M 2113 2584 
Q 1688 2584 1439 2293 
Q 1191 2003 1191 1497 
Q 1191 994 1439 701 
Q 1688 409 2113 409 
Q 2538 409 2786 701 
Q 3034 994 3034 1497 
Q 3034 2003 2786 2293 
Q 2538 2584 2113 2584 
z
M 3366 4563 
L 3366 3988 
Q 3128 4100 2886 4159 
Q 2644 4219 2406 4219 
Q 1781 4219 1451 3797 
Q 1122 3375 1075 2522 
Q 1259 2794 1537 2939 
Q 1816 3084 2150 3084 
Q 2853 3084 3261 2657 
Q 3669 2231 3669 1497 
Q 3669 778 3244 343 
Q 2819 -91 2113 -91 
Q 1303 -91 875 529 
Q 447 1150 447 2328 
Q 447 3434 972 4092 
Q 1497 4750 2381 4750 
Q 2619 4750 2861 4703 
Q 3103 4656 3366 4563 
z
" transform="scale(0.015625)"/>
       </defs>
       <use xlink:href="#DejaVuSans-36"/>
      </g>
     </g>
    </g>
    <g id="text_8">
     <!-- $t [s]$ -->
     <g transform="translate(209.21 137.315781) scale(0.1 -0.1)">
      <defs>
       <path id="DejaVuSans-Oblique-74" d="M 2706 3500 
L 2619 3053 
L 1472 3053 
L 1100 1153 
Q 1081 1047 1072 975 
Q 1063 903 1063 863 
Q 1063 663 1183 572 
Q 1303 481 1569 481 
L 2150 481 
L 2053 0 
L 1503 0 
Q 991 0 739 200 
Q 488 400 488 806 
Q 488 878 497 964 
Q 506 1050 525 1153 
L 897 3053 
L 409 3053 
L 500 3500 
L 978 3500 
L 1172 4494 
L 1747 4494 
L 1556 3500 
L 2706 3500 
z
" transform="scale(0.015625)"/>
       <path id="DejaVuSans-5b" d="M 550 4863 
L 1875 4863 
L 1875 4416 
L 1125 4416 
L 1125 -397 
L 1875 -397 
L 1875 -844 
L 550 -844 
L 550 4863 
z
" transform="scale(0.015625)"/>
       <path id="DejaVuSans-Oblique-73" d="M 3200 3397 
L 3091 2853 
Q 2863 2978 2609 3040 
Q 2356 3103 2088 3103 
Q 1634 3103 1373 2948 
Q 1113 2794 1113 2528 
Q 1113 2219 1719 2053 
Q 1766 2041 1788 2034 
L 1972 1978 
Q 2547 1819 2739 1644 
Q 2931 1469 2931 1166 
Q 2931 609 2489 259 
Q 2047 -91 1331 -91 
Q 1053 -91 747 -37 
Q 441 16 72 128 
L 184 722 
Q 500 559 806 475 
Q 1113 391 1394 391 
Q 1816 391 2080 572 
Q 2344 753 2344 1031 
Q 2344 1331 1650 1516 
L 1591 1531 
L 1394 1581 
Q 956 1697 753 1886 
Q 550 2075 550 2369 
Q 550 2928 970 3256 
Q 1391 3584 2113 3584 
Q 2397 3584 2667 3537 
Q 2938 3491 3200 3397 
z
" transform="scale(0.015625)"/>
       <path id="DejaVuSans-5d" d="M 1947 4863 
L 1947 -844 
L 622 -844 
L 622 -397 
L 1369 -397 
L 1369 4416 
L 622 4416 
L 622 4863 
L 1947 4863 
z
" transform="scale(0.015625)"/>
      </defs>
      <use xlink:href="#DejaVuSans-Oblique-74" transform="translate(0 0.015625)"/>
      <use xlink:href="#DejaVuSans-5b" transform="translate(39.208984 0.015625)"/>
      <use xlink:href="#DejaVuSans-Oblique-73" transform="translate(78.222656 0.015625)"/>
      <use xlink:href="#DejaVuSans-5d" transform="translate(130.322266 0.015625)"/>
     </g>
    </g>
   </g>
   <g id="matplotlib.axis_2">
    <g id="ytick_1">
     <g id="line2d_8">
      <defs>
       <path id="md569767cc3" d="M 0 0 
L -3.5 0 
" style="stroke: #000000; stroke-width: 0.8"/>
      </defs>
      <g>
       <use xlink:href="#md569767cc3" x="68.064545" y="175.399121" style="stroke: #000000; stroke-width: 0.8"/>
      </g>
     </g>
     <g id="text_9">
      <!-- −0.0075 -->
      <g transform="translate(17.694233 179.19834) scale(0.1 -0.1)">
       <defs>
        <path id="DejaVuSans-2212" d="M 678 2272 
L 4684 2272 
L 4684 1741 
L 678 1741 
L 678 2272 
z
" transform="scale(0.015625)"/>
        <path id="DejaVuSans-2e" d="M 684 794 
L 1344 794 
L 1344 0 
L 684 0 
L 684 794 
z
" transform="scale(0.015625)"/>
        <path id="DejaVuSans-37" d="M 525 4666 
L 3525 4666 
L 3525 4397 
L 1831 0 
L 1172 0 
L 2766 4134 
L 525 4134 
L 525 4666 
z
" transform="scale(0.015625)"/>
       </defs>
       <use xlink:href="#DejaVuSans-2212"/>
       <use xlink:href="#DejaVuSans-30" x="83.789062"/>
       <use xlink:href="#DejaVuSans-2e" x="147.412109"/>
       <use xlink:href="#DejaVuSans-30" x="179.199219"/>
       <use xlink:href="#DejaVuSans-30" x="242.822266"/>
       <use xlink:href="#DejaVuSans-37" x="306.445312"/>
       <use xlink:href="#DejaVuSans-35" x="370.068359"/>
      </g>
     </g>
    </g>
    <g id="ytick_2">
     <g id="line2d_9">
      <g>
       <use xlink:href="#md569767cc3" x="68.064545" y="153.279154" style="stroke: #000000; stroke-width: 0.8"/>
      </g>
     </g>
     <g id="text_10">
      <!-- −0.0050 -->
      <g transform="translate(17.694233 157.078372) scale(0.1 -0.1)">
       <use xlink:href="#DejaVuSans-2212"/>
       <use xlink:href="#DejaVuSans-30" x="83.789062"/>
       <use xlink:href="#DejaVuSans-2e" x="147.412109"/>
       <use xlink:href="#DejaVuSans-30" x="179.199219"/>
       <use xlink:href="#DejaVuSans-30" x="242.822266"/>
       <use xlink:href="#DejaVuSans-35" x="306.445312"/>
       <use xlink:href="#DejaVuSans-30" x="370.068359"/>
      </g>
     </g>
    </g>
    <g id="ytick_3">
     <g id="line2d_10">
      <g>
       <use xlink:href="#md569767cc3" x="68.064545" y="131.159186" style="stroke: #000000; stroke-width: 0.8"/>
      </g>
     </g>
     <g id="text_11">
      <!-- −0.0025 -->
      <g transform="translate(17.694233 134.958405) scale(0.1 -0.1)">
       <use xlink:href="#DejaVuSans-2212"/>
       <use xlink:href="#DejaVuSans-30" x="83.789062"/>
       <use xlink:href="#DejaVuSans-2e" x="147.412109"/>
       <use xlink:href="#DejaVuSans-30" x="179.199219"/>
       <use xlink:href="#DejaVuSans-30" x="242.822266"/>
       <use xlink:href="#DejaVuSans-32" x="306.445312"/>
       <use xlink:href="#DejaVuSans-35" x="370.068359"/>
      </g>
     </g>
    </g>
    <g id="ytick_4">
     <g id="line2d_11">
      <g>
       <use xlink:href="#md569767cc3" x="68.064545" y="109.039218" style="stroke: #000000; stroke-width: 0.8"/>
      </g>
     </g>
     <g id="text_12">
      <!-- 0.0000 -->
      <g transform="translate(26.07392 112.838437) scale(0.1 -0.1)">
       <use xlink:href="#DejaVuSans-30"/>
       <use xlink:href="#DejaVuSans-2e" x="63.623047"/>
       <use xlink:href="#DejaVuSans-30" x="95.410156"/>
       <use xlink:href="#DejaVuSans-30" x="159.033203"/>
       <use xlink:href="#DejaVuSans-30" x="222.65625"/>
       <use xlink:href="#DejaVuSans-30" x="286.279297"/>
      </g>
     </g>
    </g>
    <g id="ytick_5">
     <g id="line2d_12">
      <g>
       <use xlink:href="#md569767cc3" x="68.064545" y="86.91925" style="stroke: #000000; stroke-width: 0.8"/>
      </g>
     </g>
     <g id="text_13">
      <!-- 0.0025 -->
      <g transform="translate(26.07392 90.718469) scale(0.1 -0.1)">
       <use xlink:href="#DejaVuSans-30"/>
       <use xlink:href="#DejaVuSans-2e" x="63.623047"/>
       <use xlink:href="#DejaVuSans-30" x="95.410156"/>
       <use xlink:href="#DejaVuSans-30" x="159.033203"/>
       <use xlink:href="#DejaVuSans-32" x="222.65625"/>
       <use xlink:href="#DejaVuSans-35" x="286.279297"/>
      </g>
     </g>
    </g>
    <g id="ytick_6">
     <g id="line2d_13">
      <g>
       <use xlink:href="#md569767cc3" x="68.064545" y="64.799283" style="stroke: #000000; stroke-width: 0.8"/>
      </g>
     </g>
     <g id="text_14">
      <!-- 0.0050 -->
      <g transform="translate(26.07392 68.598501) scale(0.1 -0.1)">
       <use xlink:href="#DejaVuSans-30"/>
       <use xlink:href="#DejaVuSans-2e" x="63.623047"/>
       <use xlink:href="#DejaVuSans-30" x="95.410156"/>
       <use xlink:href="#DejaVuSans-30" x="159.033203"/>
       <use xlink:href="#DejaVuSans-35" x="222.65625"/>
       <use xlink:href="#DejaVuSans-30" x="286.279297"/>
      </g>
     </g>
    </g>
    <g id="ytick_7">
     <g id="line2d_14">
      <g>
       <use xlink:href="#md569767cc3" x="68.064545" y="42.679315" style="stroke: #000000; stroke-width: 0.8"/>
      </g>
     </g>
     <g id="text_15">
      <!-- 0.0075 -->
      <g transform="translate(26.07392 46.478534) scale(0.1 -0.1)">
       <use xlink:href="#DejaVuSans-30"/>
       <use xlink:href="#DejaVuSans-2e" x="63.623047"/>
       <use xlink:href="#DejaVuSans-30" x="95.410156"/>
       <use xlink:href="#DejaVuSans-30" x="159.033203"/>
       <use xlink:href="#DejaVuSans-37" x="222.65625"/>
       <use xlink:href="#DejaVuSans-35" x="286.279297"/>
      </g>
     </g>
    </g>
    <g id="text_16">
     <!-- $u(t)$ [m] -->
     <g transform="translate(11.614545 128.48) rotate(-90) scale(0.1 -0.1)">
      <defs>
       <path id="DejaVuSans-Oblique-75" d="M 428 1388 
L 838 3500 
L 1416 3500 
L 1006 1409 
Q 975 1256 961 1147 
Q 947 1038 947 966 
Q 947 700 1109 554 
Q 1272 409 1569 409 
Q 2031 409 2368 721 
Q 2706 1034 2809 1563 
L 3194 3500 
L 3769 3500 
L 3091 0 
L 2516 0 
L 2631 550 
Q 2388 244 2052 76 
Q 1716 -91 1338 -91 
Q 878 -91 622 161 
Q 366 413 366 863 
Q 366 956 381 1097 
Q 397 1238 428 1388 
z
" transform="scale(0.015625)"/>
       <path id="DejaVuSans-28" d="M 1984 4856 
Q 1566 4138 1362 3434 
Q 1159 2731 1159 2009 
Q 1159 1288 1364 580 
Q 1569 -128 1984 -844 
L 1484 -844 
Q 1016 -109 783 600 
Q 550 1309 550 2009 
Q 550 2706 781 3412 
Q 1013 4119 1484 4856 
L 1984 4856 
z
" transform="scale(0.015625)"/>
       <path id="DejaVuSans-29" d="M 513 4856 
L 1013 4856 
Q 1481 4119 1714 3412 
Q 1947 2706 1947 2009 
Q 1947 1309 1714 600 
Q 1481 -109 1013 -844 
L 513 -844 
Q 928 -128 1133 580 
Q 1338 1288 1338 2009 
Q 1338 2731 1133 3434 
Q 928 4138 513 4856 
z
" transform="scale(0.015625)"/>
       <path id="DejaVuSans-20" transform="scale(0.015625)"/>
       <path id="DejaVuSans-6d" d="M 3328 2828 
Q 3544 3216 3844 3400 
Q 4144 3584 4550 3584 
Q 5097 3584 5394 3201 
Q 5691 2819 5691 2113 
L 5691 0 
L 5113 0 
L 5113 2094 
Q 5113 2597 4934 2840 
Q 4756 3084 4391 3084 
Q 3944 3084 3684 2787 
Q 3425 2491 3425 1978 
L 3425 0 
L 2847 0 
L 2847 2094 
Q 2847 2600 2669 2842 
Q 2491 3084 2119 3084 
Q 1678 3084 1418 2786 
Q 1159 2488 1159 1978 
L 1159 0 
L 581 0 
L 581 3500 
L 1159 3500 
L 1159 2956 
Q 1356 3278 1631 3431 
Q 1906 3584 2284 3584 
Q 2666 3584 2933 3390 
Q 3200 3197 3328 2828 
z
" transform="scale(0.015625)"/>
      </defs>
      <use xlink:href="#DejaVuSans-Oblique-75" transform="translate(0 0.015625)"/>
      <use xlink:href="#DejaVuSans-28" transform="translate(63.378906 0.015625)"/>
      <use xlink:href="#DejaVuSans-Oblique-74" transform="translate(102.392578 0.015625)"/>
      <use xlink:href="#DejaVuSans-29" transform="translate(141.601562 0.015625)"/>
      <use xlink:href="#DejaVuSans-20" transform="translate(180.615234 0.015625)"/>
      <use xlink:href="#DejaVuSans-5b" transform="translate(212.402344 0.015625)"/>
      <use xlink:href="#DejaVuSans-6d" transform="translate(251.416016 0.015625)"/>
      <use xlink:href="#DejaVuSans-5d" transform="translate(348.828125 0.015625)"/>
     </g>
    </g>
   </g>
   <g id="line2d_15">
    <path d="M 68.064545 179.289911 
L 68.664327 177.063486 
L 69.264108 170.815366 
L 69.86389 161.327473 
L 71.063452 136.319074 
L 72.862797 97.713497 
L 73.462578 87.699812 
L 74.062359 79.993363 
L 74.662141 74.849176 
L 75.261922 72.337713 
L 75.861703 72.358495 
L 76.461485 74.663055 
L 77.061266 78.884857 
L 78.260829 91.231799 
L 80.060173 112.060591 
L 80.659954 117.847591 
L 81.259736 122.520812 
L 81.859517 125.897754 
L 82.459299 127.894509 
L 83.05908 128.521368 
L 83.658861 127.872984 
L 84.258643 126.11424 
L 84.858424 123.463117 
L 86.057987 116.508248 
L 87.857331 105.819898 
L 88.457112 103.057917 
L 89.056894 100.938268 
L 89.656675 99.53034 
L 90.256457 98.852399 
L 90.856238 98.875437 
L 91.456019 99.529595 
L 92.055801 100.712503 
L 93.255363 104.150363 
L 95.054708 109.921599 
L 96.25427 112.806744 
L 96.854052 113.733621 
L 97.453833 114.277487 
L 98.053615 114.441837 
L 98.653396 114.253474 
L 99.253177 113.758564 
L 100.45274 112.101542 
L 102.851866 108.124769 
L 104.051428 106.780049 
L 104.65121 106.39478 
L 105.250991 106.211909 
L 105.850772 106.223076 
L 106.450554 106.408644 
L 107.650117 107.182339 
L 110.649024 109.737368 
L 111.848586 110.346323 
L 113.048149 110.53736 
L 114.247712 110.343532 
L 115.447275 109.88151 
L 118.446181 108.569555 
L 119.645744 108.303837 
L 120.845307 108.258965 
L 122.644651 108.527711 
L 126.243339 109.333341 
L 128.042684 109.454634 
L 129.842028 109.341886 
L 134.640279 108.834731 
L 137.039404 108.863947 
L 143.636999 109.149842 
L 155.032846 109.045481 
L 161.630441 109.044498 
L 172.426506 109.04788 
L 367.355455 109.039218 
L 367.355455 109.039218 
" clip-path="url(#p10dba70af6)" style="fill: none; stroke: #808080; stroke-width: 1.5; stroke-linecap: square"/>
   </g>
   <g id="line2d_16">
    <path d="M 68.064545 38.788525 
L 68.664327 40.037836 
L 69.264108 43.741332 
L 69.86389 49.767292 
L 70.463671 57.901389 
L 71.663234 79.272073 
L 75.261922 154.063599 
L 75.861703 163.387553 
L 76.461485 170.778488 
L 77.061266 175.97353 
L 77.661048 178.787905 
L 78.260829 179.121515 
L 78.86061 176.962494 
L 79.460392 172.387631 
L 80.060173 165.559643 
L 80.659954 156.721381 
L 81.859517 134.331765 
L 84.858424 70.771767 
L 86.057987 51.740932 
L 86.657768 45.128591 
L 87.25755 40.789373 
L 87.857331 38.877611 
L 88.457112 39.461301 
L 89.056894 42.519683 
L 89.656675 47.943979 
L 90.256457 55.541261 
L 91.456019 76.106255 
L 93.255363 114.562047 
L 94.454926 140.002828 
L 95.654489 161.077623 
L 96.25427 169.01276 
L 96.854052 174.814806 
L 97.453833 178.277398 
L 98.053615 179.277381 
L 98.653396 177.77919 
L 99.253177 173.836109 
L 99.852959 167.588385 
L 100.45274 159.25823 
L 101.652303 137.59928 
L 105.250991 63.004419 
L 105.850772 53.859893 
L 106.450554 46.677942 
L 107.050335 41.714007 
L 107.650117 39.144642 
L 108.249898 39.061231 
L 108.849679 41.466741 
L 109.449461 46.275616 
L 110.049242 53.316817 
L 111.248805 73.023962 
L 113.048149 111.029224 
L 114.847493 148.412491 
L 116.047056 167.094926 
L 116.646837 173.48926 
L 117.246619 177.591287 
L 117.8464 179.255107 
L 118.446181 178.421546 
L 119.045963 175.120248 
L 119.645744 169.468633 
L 120.245526 161.667713 
L 121.445088 140.794361 
L 125.643558 56.118801 
L 126.243339 48.385454 
L 126.843121 42.809392 
L 127.442902 39.58894 
L 128.042684 38.83864 
L 128.642465 40.585179 
L 129.242246 44.766436 
L 129.842028 51.233696 
L 130.441809 59.756937 
L 131.641372 81.696427 
L 135.24006 156.068015 
L 135.839842 165.02985 
L 136.439623 172.000255 
L 137.039404 176.731312 
L 137.639186 179.054751 
L 138.238967 178.887933 
L 138.838748 176.236791 
L 139.43853 171.19562 
L 140.038311 163.943719 
L 141.237874 143.908904 
L 143.037218 105.72333 
L 144.836562 68.57417 
L 146.036125 50.246798 
L 146.635906 44.072751 
L 147.235688 40.20938 
L 147.835469 38.794094 
L 148.435251 39.877231 
L 149.035032 43.420266 
L 149.634813 49.297183 
L 150.234595 57.298958 
L 151.434157 78.473223 
L 155.032846 153.381041 
L 155.632627 162.82277 
L 156.232408 170.351567 
L 156.83219 175.699656 
L 157.431971 178.67682 
L 158.031753 179.177168 
L 158.631534 177.182906 
L 159.231315 172.764964 
L 159.831097 166.080475 
L 160.430878 157.367187 
L 161.630441 135.154984 
L 165.229129 61.033201 
L 165.828911 52.257252 
L 166.428692 45.500879 
L 167.028473 41.004388 
L 167.628255 38.927705 
L 168.228036 39.344692 
L 168.827817 42.240519 
L 169.427599 47.512189 
L 170.02738 54.972204 
L 171.226943 75.327542 
L 173.026287 113.679805 
L 174.825631 150.581608 
L 176.025194 168.547378 
L 176.624975 174.498935 
L 177.224757 178.122272 
L 177.824538 179.288519 
L 178.42432 177.956194 
L 179.024101 174.172685 
L 179.623882 168.072561 
L 180.223664 159.872786 
L 181.423226 138.405161 
L 185.021915 63.676228 
L 185.621696 54.411718 
L 186.221478 47.090155 
L 186.821259 41.971947 
L 187.42104 39.239134 
L 188.020822 38.988915 
L 188.620603 41.230189 
L 189.220384 45.883241 
L 189.820166 52.782575 
L 190.419947 61.6828 
L 191.61951 84.159793 
L 194.618417 147.676813 
L 195.81798 166.592263 
L 196.417761 173.132193 
L 197.017542 177.392515 
L 197.617324 179.221702 
L 198.217105 178.554693 
L 198.816887 175.415214 
L 199.416668 169.914926 
L 200.016449 162.24946 
L 201.216012 141.580859 
L 203.015356 103.075588 
L 204.214919 77.67922 
L 205.414482 56.704731 
L 206.014263 48.836546 
L 206.614044 43.109603 
L 207.213826 39.727591 
L 207.813607 38.8108 
L 208.413389 40.391838 
L 209.01317 44.414471 
L 209.612951 50.735625 
L 210.212733 59.130476 
L 211.412296 80.883802 
L 215.010984 155.407192 
L 215.610765 164.49118 
L 216.210547 171.602897 
L 216.810328 176.489399 
L 217.410109 178.976886 
L 218.009891 178.976886 
L 218.609672 176.489399 
L 219.209453 171.602897 
L 219.809235 164.49118 
L 221.008798 144.674025 
L 222.808142 106.607149 
L 224.607486 69.30044 
L 225.807049 50.735625 
L 226.40683 44.414471 
L 227.006611 40.391838 
L 227.606393 38.8108 
L 228.206174 39.727591 
L 228.805956 43.109603 
L 229.405737 48.836546 
L 230.005518 56.704731 
L 231.205081 77.67922 
L 235.403551 162.24946 
L 236.003332 169.914926 
L 236.603113 175.415214 
L 237.202895 178.554693 
L 237.802676 179.221702 
L 238.402458 177.392515 
L 239.002239 173.132193 
L 239.60202 166.592263 
L 240.201802 158.005332 
L 241.401365 135.974063 
L 245.000053 61.6828 
L 245.599834 52.782575 
L 246.199616 45.883241 
L 246.799397 41.230189 
L 247.399178 38.988915 
L 247.99896 39.239134 
L 248.598741 41.971947 
L 249.198522 47.090155 
L 249.798304 54.411718 
L 250.997867 74.554174 
L 252.797211 112.796827 
L 254.596555 149.865003 
L 255.796118 168.072561 
L 256.395899 174.172685 
L 256.99568 177.956194 
L 257.595462 179.288519 
L 258.195243 178.122272 
L 258.795025 174.498935 
L 259.394806 168.547378 
L 259.994587 160.479282 
L 261.19415 139.206386 
L 264.792838 64.35523 
L 265.39262 54.972204 
L 265.992401 47.512189 
L 266.592183 42.240519 
L 267.191964 39.344692 
L 267.791745 38.927705 
L 268.391527 41.004388 
L 268.991308 45.500879 
L 269.591089 52.257252 
L 270.190871 61.033201 
L 271.390434 83.334552 
L 274.989122 157.367187 
L 275.588903 166.080475 
L 276.188685 172.764964 
L 276.788466 177.182906 
L 277.388247 179.177168 
L 277.988029 178.67682 
L 278.58781 175.699656 
L 279.187592 170.351567 
L 279.787373 162.82277 
L 280.986936 142.362198 
L 282.78628 103.95741 
L 284.585624 67.140989 
L 285.185405 57.298958 
L 285.785187 49.297183 
L 286.384968 43.420266 
L 286.984749 39.877231 
L 287.584531 38.794094 
L 288.184312 40.20938 
L 288.784094 44.072751 
L 289.383875 50.246798 
L 289.983656 58.511927 
L 291.183219 80.075642 
L 294.781907 154.739018 
L 295.381689 163.943719 
L 295.98147 171.19562 
L 296.581252 176.236791 
L 297.181033 178.887933 
L 297.780814 179.054751 
L 298.380596 176.731312 
L 298.980377 172.000255 
L 299.580158 165.02985 
L 300.17994 156.068015 
L 301.379503 133.504536 
L 304.37841 70.033011 
L 305.577972 51.233696 
L 306.177754 44.766436 
L 306.777535 40.585179 
L 307.377316 38.83864 
L 307.977098 39.58894 
L 308.576879 42.809392 
L 309.176661 48.385454 
L 309.776442 56.118801 
L 310.976005 76.890189 
L 312.775349 115.443413 
L 313.974912 140.794361 
L 315.174474 161.667713 
L 315.774256 169.468633 
L 316.374037 175.120248 
L 316.973819 178.421546 
L 317.5736 179.255107 
L 318.173381 177.591287 
L 318.773163 173.48926 
L 319.372944 167.094926 
L 319.972725 158.635713 
L 321.172288 136.788871 
L 324.770976 62.339907 
L 325.370758 53.316817 
L 325.970539 46.275616 
L 326.570321 41.466741 
L 327.170102 39.061231 
L 327.769883 39.144642 
L 328.369665 41.714007 
L 328.969446 46.677942 
L 329.569228 53.859893 
L 330.76879 73.786273 
L 332.568134 111.913253 
L 334.367479 149.141926 
L 335.567041 167.588385 
L 336.166823 173.836109 
L 336.766604 177.77919 
L 337.366385 179.277381 
L 337.966167 178.277398 
L 338.565948 174.814806 
L 339.16573 169.01276 
L 339.765511 161.077623 
L 340.965074 140.002828 
L 345.163543 55.541261 
L 345.763325 47.943979 
L 346.363106 42.519683 
L 346.962888 39.461301 
L 347.562669 38.877611 
L 348.16245 40.789373 
L 348.762232 45.128591 
L 349.362013 51.740932 
L 349.961794 60.391213 
L 351.161357 82.513387 
L 354.760046 156.721381 
L 355.359827 165.559643 
L 355.959608 172.387631 
L 356.55939 176.962494 
L 357.159171 179.121515 
L 357.758952 178.787905 
L 358.358734 175.97353 
L 358.958515 170.778488 
L 359.558297 163.387553 
L 360.757859 143.138254 
L 362.557203 104.840037 
L 364.356548 67.854315 
L 365.55611 49.767292 
L 366.155892 43.741332 
L 366.755673 40.037836 
L 367.355455 38.788525 
L 367.355455 38.788525 
" clip-path="url(#p10dba70af6)" style="fill: none; stroke: #cccccc; stroke-width: 1.5; stroke-linecap: square"/>
   </g>
   <g id="line2d_17">
    <path d="M 68.064545 109.039218 
L 68.664327 108.062103 
L 69.264108 105.51748 
L 71.063452 95.13417 
L 71.663234 92.951043 
L 72.263015 92.301822 
L 72.862797 93.514316 
L 73.462578 96.741457 
L 74.062359 101.954247 
L 74.662141 108.948212 
L 75.861703 126.70683 
L 77.661048 154.32236 
L 78.260829 161.314096 
L 78.86061 166.272987 
L 79.460392 168.787382 
L 80.060173 168.581016 
L 80.659954 165.529754 
L 81.259736 159.668792 
L 81.859517 151.190301 
L 83.05908 127.857954 
L 86.057987 59.209962 
L 86.657768 48.826114 
L 87.25755 40.853112 
L 87.857331 35.658291 
L 88.457112 33.48 
L 89.056894 34.418733 
L 89.656675 38.435101 
L 90.256457 45.354443 
L 90.856238 54.877536 
L 92.055801 80.015811 
L 95.054708 152.174006 
L 95.654489 163.557838 
L 96.25427 172.780286 
L 96.854052 179.509208 
L 97.453833 183.515667 
L 98.053615 184.68 
L 98.653396 182.993445 
L 99.253177 178.555455 
L 99.852959 171.567037 
L 100.45274 162.320554 
L 101.652303 138.598098 
L 104.65121 71.141835 
L 105.850772 51.043751 
L 106.450554 44.047368 
L 107.050335 39.414815 
L 107.650117 37.287763 
L 108.249898 37.719204 
L 108.849679 40.672941 
L 109.449461 46.025996 
L 110.049242 53.573815 
L 111.248805 74.076696 
L 113.048149 112.527366 
L 114.847493 149.509888 
L 116.047056 167.654525 
L 116.646837 173.758888 
L 117.246619 177.582446 
L 117.8464 178.99553 
L 118.446181 177.951882 
L 119.045963 174.490273 
L 119.645744 168.733253 
L 120.245526 160.883042 
L 121.445088 140.066717 
L 125.643558 56.315263 
L 126.243339 48.679578 
L 126.843121 43.173316 
L 127.442902 39.993172 
L 128.042684 39.254056 
L 128.642465 40.9848 
L 129.242246 45.126901 
L 129.842028 51.536364 
L 130.441809 59.988589 
L 131.641372 81.76916 
L 135.24006 155.850252 
L 135.839842 164.813679 
L 136.439623 171.79899 
L 137.039404 176.556041 
L 137.639186 178.913858 
L 138.238967 178.786843 
L 138.838748 176.177918 
L 139.43853 171.178512 
L 140.038311 163.965365 
L 141.237874 143.991069 
L 143.037218 105.838515 
L 144.836562 68.657642 
L 146.036125 50.288694 
L 146.635906 44.092356 
L 147.235688 40.207649 
L 147.835469 38.773217 
L 148.435251 39.840377 
L 149.035032 43.371292 
L 149.634813 49.240325 
L 150.234595 57.238527 
L 151.434157 78.417556 
L 155.032846 153.387304 
L 155.632627 162.838314 
L 156.232408 170.374518 
L 156.83219 175.727861 
L 157.431971 178.708008 
L 158.031753 179.209105 
L 158.631534 177.213528 
L 159.231315 172.792491 
L 159.831097 166.103494 
L 160.430878 157.384704 
L 161.630441 135.160265 
L 165.229129 61.016431 
L 165.828911 52.240661 
L 166.428692 45.485483 
L 167.028473 40.991029 
L 167.628255 38.917018 
L 168.228036 39.337081 
L 168.827817 42.236159 
L 169.427599 47.511034 
L 170.02738 54.974012 
L 171.226943 75.333952 
L 173.026287 113.688659 
L 174.825631 150.587955 
L 176.025194 168.550512 
L 176.624975 174.500356 
L 177.224757 178.122059 
L 177.824538 179.286844 
L 178.42432 177.953304 
L 179.024101 174.168879 
L 179.623882 168.068166 
L 180.223664 159.868133 
L 181.423226 138.400903 
L 185.021915 63.67675 
L 185.621696 54.412946 
L 186.221478 47.091945 
L 186.821259 41.974132 
L 187.42104 39.24154 
L 188.020822 38.99137 
L 188.620603 41.232535 
L 189.220384 45.885343 
L 189.820166 52.784325 
L 190.419947 61.684124 
L 191.61951 84.160175 
L 194.618417 147.675591 
L 195.81798 166.59099 
L 196.417761 173.131015 
L 197.017542 177.391497 
L 197.617324 179.220891 
L 198.217105 178.554121 
L 198.816887 175.414892 
L 199.416668 169.91485 
L 200.016449 162.24961 
L 201.216012 141.581359 
L 203.015356 103.076268 
L 204.214919 77.679801 
L 205.414482 56.705095 
L 206.014263 48.836781 
L 206.614044 43.109705 
L 207.213826 39.727568 
L 207.813607 38.810666 
L 208.413389 40.391611 
L 209.01317 44.414175 
L 209.612951 50.735286 
L 210.212733 59.130117 
L 211.412296 80.883477 
L 215.010984 155.407235 
L 215.610765 164.491277 
L 216.210547 171.603037 
L 216.810328 176.489568 
L 217.410109 178.977072 
L 218.009891 178.977075 
L 218.609672 176.489578 
L 219.209453 171.603058 
L 219.809235 164.491313 
L 221.008798 144.674089 
L 222.808142 106.607111 
L 224.607486 69.300346 
L 225.807049 50.735528 
L 226.40683 44.414381 
L 227.006611 40.39176 
L 227.606393 38.810739 
L 228.206174 39.727548 
L 228.805956 43.109579 
L 229.405737 48.836541 
L 230.005518 56.704743 
L 231.205081 77.679259 
L 235.403551 162.249487 
L 236.003332 169.914944 
L 236.603113 175.415221 
L 237.202895 178.554691 
L 237.802676 179.221691 
L 238.402458 177.392497 
L 239.002239 173.13217 
L 239.60202 166.592236 
L 240.201802 158.005304 
L 241.401365 135.974038 
L 245.000053 61.682803 
L 245.599834 52.782582 
L 246.199616 45.883252 
L 246.799397 41.230202 
L 247.399178 38.988929 
L 247.99896 39.239148 
L 248.598741 41.97196 
L 249.198522 47.090167 
L 249.798304 54.411728 
L 250.997867 74.554178 
L 252.797211 112.796824 
L 254.596555 149.864996 
L 255.796118 168.072554 
L 256.395899 174.172678 
L 256.99568 177.956188 
L 257.595462 179.288514 
L 258.195243 178.122269 
L 258.795025 174.498933 
L 259.394806 168.547378 
L 259.994587 160.479283 
L 261.19415 139.206389 
L 264.792838 64.355233 
L 265.39262 54.972206 
L 265.992401 47.512191 
L 266.592183 42.24052 
L 267.191964 39.344692 
L 267.791745 38.927704 
L 268.391527 41.004386 
L 268.991308 45.500878 
L 269.591089 52.25725 
L 270.190871 61.033199 
L 271.390434 83.33455 
L 274.989122 157.367188 
L 275.588903 166.080475 
L 276.188685 172.764965 
L 276.788466 177.182907 
L 277.388247 179.17717 
L 277.988029 178.676821 
L 278.58781 175.699657 
L 279.187592 170.351568 
L 279.787373 162.82277 
L 280.986936 142.362199 
L 282.78628 103.957409 
L 284.585624 67.140989 
L 285.185405 57.298958 
L 285.785187 49.297183 
L 286.384968 43.420265 
L 286.984749 39.87723 
L 287.584531 38.794094 
L 288.184312 40.20938 
L 288.784094 44.072751 
L 289.383875 50.246798 
L 289.983656 58.511927 
L 291.183219 80.075642 
L 294.781907 154.739019 
L 295.381689 163.943719 
L 295.98147 171.19562 
L 296.581252 176.236791 
L 297.181033 178.887933 
L 297.780814 179.054751 
L 298.380596 176.731312 
L 298.980377 172.000255 
L 299.580158 165.02985 
L 300.17994 156.068015 
L 301.379503 133.504535 
L 304.37841 70.033011 
L 305.577972 51.233696 
L 306.177754 44.766436 
L 306.777535 40.585179 
L 307.377316 38.838641 
L 307.977098 39.58894 
L 308.576879 42.809393 
L 309.176661 48.385454 
L 309.776442 56.118801 
L 310.976005 76.890189 
L 312.775349 115.443413 
L 313.974912 140.794361 
L 315.174474 161.667713 
L 315.774256 169.468633 
L 316.374037 175.120248 
L 316.973819 178.421546 
L 317.5736 179.255107 
L 318.173381 177.591287 
L 318.773163 173.48926 
L 319.372944 167.094926 
L 319.972725 158.635713 
L 321.172288 136.788871 
L 324.770976 62.339907 
L 325.370758 53.316817 
L 325.970539 46.275616 
L 326.570321 41.466741 
L 327.170102 39.061231 
L 327.769883 39.144642 
L 328.369665 41.714007 
L 328.969446 46.677942 
L 329.569228 53.859893 
L 330.76879 73.786273 
L 332.568134 111.913253 
L 334.367479 149.141926 
L 335.567041 167.588385 
L 336.166823 173.836109 
L 336.766604 177.77919 
L 337.366385 179.277381 
L 337.966167 178.277398 
L 338.565948 174.814806 
L 339.16573 169.01276 
L 339.765511 161.077623 
L 340.965074 140.002828 
L 345.163543 55.541261 
L 345.763325 47.943979 
L 346.363106 42.519683 
L 346.962888 39.461301 
L 347.562669 38.877611 
L 348.16245 40.789373 
L 348.762232 45.128591 
L 349.362013 51.740932 
L 349.961794 60.391213 
L 351.161357 82.513387 
L 354.760046 156.721381 
L 355.359827 165.559643 
L 355.959608 172.387631 
L 356.55939 176.962494 
L 357.159171 179.121515 
L 357.758952 178.787905 
L 358.358734 175.97353 
L 358.958515 170.778488 
L 359.558297 163.387553 
L 360.757859 143.138254 
L 362.557203 104.840037 
L 364.356548 67.854315 
L 365.55611 49.767292 
L 366.155892 43.741332 
L 366.755673 40.037836 
L 367.355455 38.788525 
L 367.355455 38.788525 
" clip-path="url(#p10dba70af6)" style="fill: none; stroke: #1f77b4; stroke-width: 1.5; stroke-linecap: square"/>
   </g>
   <g id="patch_3">
    <path d="M 68.064545 192.24 
L 68.064545 25.92 
" style="fill: none; stroke: #000000; stroke-width: 0.8; stroke-linejoin: miter; stroke-linecap: square"/>
   </g>
   <g id="patch_4">
    <path d="M 382.32 192.24 
L 382.32 25.92 
" style="fill: none"/>
   </g>
   <g id="patch_5">
    <path d="M 53.1 109.039218 
L 382.32 109.039218 
" style="fill: none; stroke: #000000; stroke-width: 0.8; stroke-linejoin: miter; stroke-linecap: square"/>
   </g>
   <g id="patch_6">
    <path d="M 53.1 25.92 
L 382.32 25.92 
" style="fill: none"/>
   </g>
   <g id="legend_1">
    <g id="patch_7">
     <path d="M 60.1 77.954375 
L 179.957813 77.954375 
Q 181.957813 77.954375 181.957813 75.954375 
L 181.957813 32.92 
Q 181.957813 30.92 179.957813 30.92 
L 60.1 30.92 
Q 58.1 30.92 58.1 32.92 
L 58.1 75.954375 
Q 58.1 77.954375 60.1 77.954375 
z
" style="fill: #ffffff; opacity: 0.8; stroke: #cccccc; stroke-linejoin: miter"/>
    </g>
    <g id="line2d_18">
     <path d="M 62.1 39.018438 
L 72.1 39.018438 
L 82.1 39.018438 
" style="fill: none; stroke: #808080; stroke-width: 1.5; stroke-linecap: square"/>
    </g>
    <g id="text_17">
     <!-- Transienter Anteil -->
     <g transform="translate(90.1 42.518438) scale(0.1 -0.1)">
      <defs>
       <path id="DejaVuSans-54" d="M -19 4666 
L 3928 4666 
L 3928 4134 
L 2272 4134 
L 2272 0 
L 1638 0 
L 1638 4134 
L -19 4134 
L -19 4666 
z
" transform="scale(0.015625)"/>
       <path id="DejaVuSans-72" d="M 2631 2963 
Q 2534 3019 2420 3045 
Q 2306 3072 2169 3072 
Q 1681 3072 1420 2755 
Q 1159 2438 1159 1844 
L 1159 0 
L 581 0 
L 581 3500 
L 1159 3500 
L 1159 2956 
Q 1341 3275 1631 3429 
Q 1922 3584 2338 3584 
Q 2397 3584 2469 3576 
Q 2541 3569 2628 3553 
L 2631 2963 
z
" transform="scale(0.015625)"/>
       <path id="DejaVuSans-61" d="M 2194 1759 
Q 1497 1759 1228 1600 
Q 959 1441 959 1056 
Q 959 750 1161 570 
Q 1363 391 1709 391 
Q 2188 391 2477 730 
Q 2766 1069 2766 1631 
L 2766 1759 
L 2194 1759 
z
M 3341 1997 
L 3341 0 
L 2766 0 
L 2766 531 
Q 2569 213 2275 61 
Q 1981 -91 1556 -91 
Q 1019 -91 701 211 
Q 384 513 384 1019 
Q 384 1609 779 1909 
Q 1175 2209 1959 2209 
L 2766 2209 
L 2766 2266 
Q 2766 2663 2505 2880 
Q 2244 3097 1772 3097 
Q 1472 3097 1187 3025 
Q 903 2953 641 2809 
L 641 3341 
Q 956 3463 1253 3523 
Q 1550 3584 1831 3584 
Q 2591 3584 2966 3190 
Q 3341 2797 3341 1997 
z
" transform="scale(0.015625)"/>
       <path id="DejaVuSans-6e" d="M 3513 2113 
L 3513 0 
L 2938 0 
L 2938 2094 
Q 2938 2591 2744 2837 
Q 2550 3084 2163 3084 
Q 1697 3084 1428 2787 
Q 1159 2491 1159 1978 
L 1159 0 
L 581 0 
L 581 3500 
L 1159 3500 
L 1159 2956 
Q 1366 3272 1645 3428 
Q 1925 3584 2291 3584 
Q 2894 3584 3203 3211 
Q 3513 2838 3513 2113 
z
" transform="scale(0.015625)"/>
       <path id="DejaVuSans-73" d="M 2834 3397 
L 2834 2853 
Q 2591 2978 2328 3040 
Q 2066 3103 1784 3103 
Q 1356 3103 1142 2972 
Q 928 2841 928 2578 
Q 928 2378 1081 2264 
Q 1234 2150 1697 2047 
L 1894 2003 
Q 2506 1872 2764 1633 
Q 3022 1394 3022 966 
Q 3022 478 2636 193 
Q 2250 -91 1575 -91 
Q 1294 -91 989 -36 
Q 684 19 347 128 
L 347 722 
Q 666 556 975 473 
Q 1284 391 1588 391 
Q 1994 391 2212 530 
Q 2431 669 2431 922 
Q 2431 1156 2273 1281 
Q 2116 1406 1581 1522 
L 1381 1569 
Q 847 1681 609 1914 
Q 372 2147 372 2553 
Q 372 3047 722 3315 
Q 1072 3584 1716 3584 
Q 2034 3584 2315 3537 
Q 2597 3491 2834 3397 
z
" transform="scale(0.015625)"/>
       <path id="DejaVuSans-69" d="M 603 3500 
L 1178 3500 
L 1178 0 
L 603 0 
L 603 3500 
z
M 603 4863 
L 1178 4863 
L 1178 4134 
L 603 4134 
L 603 4863 
z
" transform="scale(0.015625)"/>
       <path id="DejaVuSans-65" d="M 3597 1894 
L 3597 1613 
L 953 1613 
Q 991 1019 1311 708 
Q 1631 397 2203 397 
Q 2534 397 2845 478 
Q 3156 559 3463 722 
L 3463 178 
Q 3153 47 2828 -22 
Q 2503 -91 2169 -91 
Q 1331 -91 842 396 
Q 353 884 353 1716 
Q 353 2575 817 3079 
Q 1281 3584 2069 3584 
Q 2775 3584 3186 3129 
Q 3597 2675 3597 1894 
z
M 3022 2063 
Q 3016 2534 2758 2815 
Q 2500 3097 2075 3097 
Q 1594 3097 1305 2825 
Q 1016 2553 972 2059 
L 3022 2063 
z
" transform="scale(0.015625)"/>
       <path id="DejaVuSans-74" d="M 1172 4494 
L 1172 3500 
L 2356 3500 
L 2356 3053 
L 1172 3053 
L 1172 1153 
Q 1172 725 1289 603 
Q 1406 481 1766 481 
L 2356 481 
L 2356 0 
L 1766 0 
Q 1100 0 847 248 
Q 594 497 594 1153 
L 594 3053 
L 172 3053 
L 172 3500 
L 594 3500 
L 594 4494 
L 1172 4494 
z
" transform="scale(0.015625)"/>
       <path id="DejaVuSans-41" d="M 2188 4044 
L 1331 1722 
L 3047 1722 
L 2188 4044 
z
M 1831 4666 
L 2547 4666 
L 4325 0 
L 3669 0 
L 3244 1197 
L 1141 1197 
L 716 0 
L 50 0 
L 1831 4666 
z
" transform="scale(0.015625)"/>
       <path id="DejaVuSans-6c" d="M 603 4863 
L 1178 4863 
L 1178 0 
L 603 0 
L 603 4863 
z
" transform="scale(0.015625)"/>
      </defs>
      <use xlink:href="#DejaVuSans-54"/>
      <use xlink:href="#DejaVuSans-72" x="46.333984"/>
      <use xlink:href="#DejaVuSans-61" x="87.447266"/>
      <use xlink:href="#DejaVuSans-6e" x="148.726562"/>
      <use xlink:href="#DejaVuSans-73" x="212.105469"/>
      <use xlink:href="#DejaVuSans-69" x="264.205078"/>
      <use xlink:href="#DejaVuSans-65" x="291.988281"/>
      <use xlink:href="#DejaVuSans-6e" x="353.511719"/>
      <use xlink:href="#DejaVuSans-74" x="416.890625"/>
      <use xlink:href="#DejaVuSans-65" x="456.099609"/>
      <use xlink:href="#DejaVuSans-72" x="517.623047"/>
      <use xlink:href="#DejaVuSans-20" x="558.736328"/>
      <use xlink:href="#DejaVuSans-41" x="590.523438"/>
      <use xlink:href="#DejaVuSans-6e" x="658.931641"/>
      <use xlink:href="#DejaVuSans-74" x="722.310547"/>
      <use xlink:href="#DejaVuSans-65" x="761.519531"/>
      <use xlink:href="#DejaVuSans-69" x="823.042969"/>
      <use xlink:href="#DejaVuSans-6c" x="850.826172"/>
     </g>
    </g>
    <g id="line2d_19">
     <path d="M 62.1 53.696562 
L 72.1 53.696562 
L 82.1 53.696562 
" style="fill: none; stroke: #cccccc; stroke-width: 1.5; stroke-linecap: square"/>
    </g>
    <g id="text_18">
     <!-- Stationärer Anteil -->
     <g transform="translate(90.1 57.196562) scale(0.1 -0.1)">
      <defs>
       <path id="DejaVuSans-53" d="M 3425 4513 
L 3425 3897 
Q 3066 4069 2747 4153 
Q 2428 4238 2131 4238 
Q 1616 4238 1336 4038 
Q 1056 3838 1056 3469 
Q 1056 3159 1242 3001 
Q 1428 2844 1947 2747 
L 2328 2669 
Q 3034 2534 3370 2195 
Q 3706 1856 3706 1288 
Q 3706 609 3251 259 
Q 2797 -91 1919 -91 
Q 1588 -91 1214 -16 
Q 841 59 441 206 
L 441 856 
Q 825 641 1194 531 
Q 1563 422 1919 422 
Q 2459 422 2753 634 
Q 3047 847 3047 1241 
Q 3047 1584 2836 1778 
Q 2625 1972 2144 2069 
L 1759 2144 
Q 1053 2284 737 2584 
Q 422 2884 422 3419 
Q 422 4038 858 4394 
Q 1294 4750 2059 4750 
Q 2388 4750 2728 4690 
Q 3069 4631 3425 4513 
z
" transform="scale(0.015625)"/>
       <path id="DejaVuSans-6f" d="M 1959 3097 
Q 1497 3097 1228 2736 
Q 959 2375 959 1747 
Q 959 1119 1226 758 
Q 1494 397 1959 397 
Q 2419 397 2687 759 
Q 2956 1122 2956 1747 
Q 2956 2369 2687 2733 
Q 2419 3097 1959 3097 
z
M 1959 3584 
Q 2709 3584 3137 3096 
Q 3566 2609 3566 1747 
Q 3566 888 3137 398 
Q 2709 -91 1959 -91 
Q 1206 -91 779 398 
Q 353 888 353 1747 
Q 353 2609 779 3096 
Q 1206 3584 1959 3584 
z
" transform="scale(0.015625)"/>
       <path id="DejaVuSans-e4" d="M 2194 1759 
Q 1497 1759 1228 1600 
Q 959 1441 959 1056 
Q 959 750 1161 570 
Q 1363 391 1709 391 
Q 2188 391 2477 730 
Q 2766 1069 2766 1631 
L 2766 1759 
L 2194 1759 
z
M 3341 1997 
L 3341 0 
L 2766 0 
L 2766 531 
Q 2569 213 2275 61 
Q 1981 -91 1556 -91 
Q 1019 -91 701 211 
Q 384 513 384 1019 
Q 384 1609 779 1909 
Q 1175 2209 1959 2209 
L 2766 2209 
L 2766 2266 
Q 2766 2663 2505 2880 
Q 2244 3097 1772 3097 
Q 1472 3097 1187 3025 
Q 903 2953 641 2809 
L 641 3341 
Q 956 3463 1253 3523 
Q 1550 3584 1831 3584 
Q 2591 3584 2966 3190 
Q 3341 2797 3341 1997 
z
M 2150 4850 
L 2784 4850 
L 2784 4219 
L 2150 4219 
L 2150 4850 
z
M 928 4850 
L 1563 4850 
L 1563 4219 
L 928 4219 
L 928 4850 
z
" transform="scale(0.015625)"/>
      </defs>
      <use xlink:href="#DejaVuSans-53"/>
      <use xlink:href="#DejaVuSans-74" x="63.476562"/>
      <use xlink:href="#DejaVuSans-61" x="102.685547"/>
      <use xlink:href="#DejaVuSans-74" x="163.964844"/>
      <use xlink:href="#DejaVuSans-69" x="203.173828"/>
      <use xlink:href="#DejaVuSans-6f" x="230.957031"/>
      <use xlink:href="#DejaVuSans-6e" x="292.138672"/>
      <use xlink:href="#DejaVuSans-e4" x="355.517578"/>
      <use xlink:href="#DejaVuSans-72" x="416.796875"/>
      <use xlink:href="#DejaVuSans-65" x="455.660156"/>
      <use xlink:href="#DejaVuSans-72" x="517.183594"/>
      <use xlink:href="#DejaVuSans-20" x="558.296875"/>
      <use xlink:href="#DejaVuSans-41" x="590.083984"/>
      <use xlink:href="#DejaVuSans-6e" x="658.492188"/>
      <use xlink:href="#DejaVuSans-74" x="721.871094"/>
      <use xlink:href="#DejaVuSans-65" x="761.080078"/>
      <use xlink:href="#DejaVuSans-69" x="822.603516"/>
      <use xlink:href="#DejaVuSans-6c" x="850.386719"/>
     </g>
    </g>
    <g id="line2d_20">
     <path d="M 62.1 68.374687 
L 72.1 68.374687 
L 82.1 68.374687 
" style="fill: none; stroke: #1f77b4; stroke-width: 1.5; stroke-linecap: square"/>
    </g>
    <g id="text_19">
     <!-- Gesamtantwort -->
     <g transform="translate(90.1 71.874687) scale(0.1 -0.1)">
      <defs>
       <path id="DejaVuSans-47" d="M 3809 666 
L 3809 1919 
L 2778 1919 
L 2778 2438 
L 4434 2438 
L 4434 434 
Q 4069 175 3628 42 
Q 3188 -91 2688 -91 
Q 1594 -91 976 548 
Q 359 1188 359 2328 
Q 359 3472 976 4111 
Q 1594 4750 2688 4750 
Q 3144 4750 3555 4637 
Q 3966 4525 4313 4306 
L 4313 3634 
Q 3963 3931 3569 4081 
Q 3175 4231 2741 4231 
Q 1884 4231 1454 3753 
Q 1025 3275 1025 2328 
Q 1025 1384 1454 906 
Q 1884 428 2741 428 
Q 3075 428 3337 486 
Q 3600 544 3809 666 
z
" transform="scale(0.015625)"/>
       <path id="DejaVuSans-77" d="M 269 3500 
L 844 3500 
L 1563 769 
L 2278 3500 
L 2956 3500 
L 3675 769 
L 4391 3500 
L 4966 3500 
L 4050 0 
L 3372 0 
L 2619 2869 
L 1863 0 
L 1184 0 
L 269 3500 
z
" transform="scale(0.015625)"/>
      </defs>
      <use xlink:href="#DejaVuSans-47"/>
      <use xlink:href="#DejaVuSans-65" x="77.490234"/>
      <use xlink:href="#DejaVuSans-73" x="139.013672"/>
      <use xlink:href="#DejaVuSans-61" x="191.113281"/>
      <use xlink:href="#DejaVuSans-6d" x="252.392578"/>
      <use xlink:href="#DejaVuSans-74" x="349.804688"/>
      <use xlink:href="#DejaVuSans-61" x="389.013672"/>
      <use xlink:href="#DejaVuSans-6e" x="450.292969"/>
      <use xlink:href="#DejaVuSans-74" x="513.671875"/>
      <use xlink:href="#DejaVuSans-77" x="552.880859"/>
      <use xlink:href="#DejaVuSans-6f" x="634.667969"/>
      <use xlink:href="#DejaVuSans-72" x="695.849609"/>
      <use xlink:href="#DejaVuSans-74" x="736.962891"/>
     </g>
    </g>
   </g>
  </g>
 </g>
 <defs>
  <clipPath id="p10dba70af6">
   <rect x="53.1" y="25.92" width="329.22" height="166.32"/>
  </clipPath>
 </defs>
</svg>
