<?xml version="1.0" encoding="utf-8" standalone="no"?>
<!DOCTYPE svg PUBLIC "-//W3C//DTD SVG 1.1//EN"
  "http://www.w3.org/Graphics/SVG/1.1/DTD/svg11.dtd">
<svg xmlns:xlink="http://www.w3.org/1999/xlink" width="424.8pt" height="216pt" viewBox="0 0 424.8 216" xmlns="http://www.w3.org/2000/svg" version="1.1">
 <metadata>
  <rdf:RDF xmlns:dc="http://purl.org/dc/elements/1.1/" xmlns:cc="http://creativecommons.org/ns#" xmlns:rdf="http://www.w3.org/1999/02/22-rdf-syntax-ns#">
   <cc:Work>
    <dc:type rdf:resource="http://purl.org/dc/dcmitype/StillImage"/>
    <dc:date>2023-08-07T10:04:00.574773</dc:date>
    <dc:format>image/svg+xml</dc:format>
    <dc:creator>
     <cc:Agent>
      <dc:title>Matplotlib v3.7.1, https://matplotlib.org/</dc:title>
     </cc:Agent>
    </dc:creator>
   </cc:Work>
  </rdf:RDF>
 </metadata>
 <defs>
  <style type="text/css">*{stroke-linejoin: round; stroke-linecap: butt}</style>
 </defs>
 <g id="figure_1">
  <g id="patch_1">
   <path d="M 0 216 
L 424.8 216 
L 424.8 0 
L 0 0 
z
" style="fill: #ffffff"/>
  </g>
  <g id="axes_1">
   <g id="patch_2">
    <path d="M 53.1 192.24 
L 382.32 192.24 
L 382.32 25.92 
L 53.1 25.92 
z
" style="fill: #ffffff"/>
   </g>
   <g id="matplotlib.axis_1">
    <g id="xtick_1">
     <g id="line2d_1">
      <defs>
       <path id="ma59731c653" d="M 0 0 
L 0 3.5 
" style="stroke: #000000; stroke-width: 0.8"/>
      </defs>
      <g>
       <use xlink:href="#ma59731c653" x="68.064545" y="113.140408" style="stroke: #000000; stroke-width: 0.8"/>
      </g>
     </g>
     <g id="text_1">
      <!-- 0 -->
      <g transform="translate(64.883295 127.738846) scale(0.1 -0.1)">
       <defs>
        <path id="DejaVuSans-30" d="M 2034 4250 
Q 1547 4250 1301 3770 
Q 1056 3291 1056 2328 
Q 1056 1369 1301 889 
Q 1547 409 2034 409 
Q 2525 409 2770 889 
Q 3016 1369 3016 2328 
Q 3016 3291 2770 3770 
Q 2525 4250 2034 4250 
z
M 2034 4750 
Q 2819 4750 3233 4129 
Q 3647 3509 3647 2328 
Q 3647 1150 3233 529 
Q 2819 -91 2034 -91 
Q 1250 -91 836 529 
Q 422 1150 422 2328 
Q 422 3509 836 4129 
Q 1250 4750 2034 4750 
z
" transform="scale(0.015625)"/>
       </defs>
       <use xlink:href="#DejaVuSans-30"/>
      </g>
     </g>
    </g>
    <g id="xtick_2">
     <g id="line2d_2">
      <g>
       <use xlink:href="#ma59731c653" x="127.922727" y="113.140408" style="stroke: #000000; stroke-width: 0.8"/>
      </g>
     </g>
     <g id="text_2">
      <!-- 2 -->
      <g transform="translate(124.741477 127.738846) scale(0.1 -0.1)">
       <defs>
        <path id="DejaVuSans-32" d="M 1228 531 
L 3431 531 
L 3431 0 
L 469 0 
L 469 531 
Q 828 903 1448 1529 
Q 2069 2156 2228 2338 
Q 2531 2678 2651 2914 
Q 2772 3150 2772 3378 
Q 2772 3750 2511 3984 
Q 2250 4219 1831 4219 
Q 1534 4219 1204 4116 
Q 875 4013 500 3803 
L 500 4441 
Q 881 4594 1212 4672 
Q 1544 4750 1819 4750 
Q 2544 4750 2975 4387 
Q 3406 4025 3406 3419 
Q 3406 3131 3298 2873 
Q 3191 2616 2906 2266 
Q 2828 2175 2409 1742 
Q 1991 1309 1228 531 
z
" transform="scale(0.015625)"/>
       </defs>
       <use xlink:href="#DejaVuSans-32"/>
      </g>
     </g>
    </g>
    <g id="xtick_3">
     <g id="line2d_3">
      <g>
       <use xlink:href="#ma59731c653" x="187.780909" y="113.140408" style="stroke: #000000; stroke-width: 0.8"/>
      </g>
     </g>
     <g id="text_3">
      <!-- 4 -->
      <g transform="translate(184.599659 127.738846) scale(0.1 -0.1)">
       <defs>
        <path id="DejaVuSans-34" d="M 2419 4116 
L 825 1625 
L 2419 1625 
L 2419 4116 
z
M 2253 4666 
L 3047 4666 
L 3047 1625 
L 3713 1625 
L 3713 1100 
L 3047 1100 
L 3047 0 
L 2419 0 
L 2419 1100 
L 313 1100 
L 313 1709 
L 2253 4666 
z
" transform="scale(0.015625)"/>
       </defs>
       <use xlink:href="#DejaVuSans-34"/>
      </g>
     </g>
    </g>
    <g id="xtick_4">
     <g id="line2d_4">
      <g>
       <use xlink:href="#ma59731c653" x="247.639091" y="113.140408" style="stroke: #000000; stroke-width: 0.8"/>
      </g>
     </g>
     <g id="text_4">
      <!-- 6 -->
      <g transform="translate(244.457841 127.738846) scale(0.1 -0.1)">
       <defs>
        <path id="DejaVuSans-36" d="M 2113 2584 
Q 1688 2584 1439 2293 
Q 1191 2003 1191 1497 
Q 1191 994 1439 701 
Q 1688 409 2113 409 
Q 2538 409 2786 701 
Q 3034 994 3034 1497 
Q 3034 2003 2786 2293 
Q 2538 2584 2113 2584 
z
M 3366 4563 
L 3366 3988 
Q 3128 4100 2886 4159 
Q 2644 4219 2406 4219 
Q 1781 4219 1451 3797 
Q 1122 3375 1075 2522 
Q 1259 2794 1537 2939 
Q 1816 3084 2150 3084 
Q 2853 3084 3261 2657 
Q 3669 2231 3669 1497 
Q 3669 778 3244 343 
Q 2819 -91 2113 -91 
Q 1303 -91 875 529 
Q 447 1150 447 2328 
Q 447 3434 972 4092 
Q 1497 4750 2381 4750 
Q 2619 4750 2861 4703 
Q 3103 4656 3366 4563 
z
" transform="scale(0.015625)"/>
       </defs>
       <use xlink:href="#DejaVuSans-36"/>
      </g>
     </g>
    </g>
    <g id="xtick_5">
     <g id="line2d_5">
      <g>
       <use xlink:href="#ma59731c653" x="307.497273" y="113.140408" style="stroke: #000000; stroke-width: 0.8"/>
      </g>
     </g>
     <g id="text_5">
      <!-- 8 -->
      <g transform="translate(304.316023 127.738846) scale(0.1 -0.1)">
       <defs>
        <path id="DejaVuSans-38" d="M 2034 2216 
Q 1584 2216 1326 1975 
Q 1069 1734 1069 1313 
Q 1069 891 1326 650 
Q 1584 409 2034 409 
Q 2484 409 2743 651 
Q 3003 894 3003 1313 
Q 3003 1734 2745 1975 
Q 2488 2216 2034 2216 
z
M 1403 2484 
Q 997 2584 770 2862 
Q 544 3141 544 3541 
Q 544 4100 942 4425 
Q 1341 4750 2034 4750 
Q 2731 4750 3128 4425 
Q 3525 4100 3525 3541 
Q 3525 3141 3298 2862 
Q 3072 2584 2669 2484 
Q 3125 2378 3379 2068 
Q 3634 1759 3634 1313 
Q 3634 634 3220 271 
Q 2806 -91 2034 -91 
Q 1263 -91 848 271 
Q 434 634 434 1313 
Q 434 1759 690 2068 
Q 947 2378 1403 2484 
z
M 1172 3481 
Q 1172 3119 1398 2916 
Q 1625 2713 2034 2713 
Q 2441 2713 2670 2916 
Q 2900 3119 2900 3481 
Q 2900 3844 2670 4047 
Q 2441 4250 2034 4250 
Q 1625 4250 1398 4047 
Q 1172 3844 1172 3481 
z
" transform="scale(0.015625)"/>
       </defs>
       <use xlink:href="#DejaVuSans-38"/>
      </g>
     </g>
    </g>
    <g id="xtick_6">
     <g id="line2d_6">
      <g>
       <use xlink:href="#ma59731c653" x="367.355455" y="113.140408" style="stroke: #000000; stroke-width: 0.8"/>
      </g>
     </g>
     <g id="text_6">
      <!-- 10 -->
      <g transform="translate(360.992955 127.738846) scale(0.1 -0.1)">
       <defs>
        <path id="DejaVuSans-31" d="M 794 531 
L 1825 531 
L 1825 4091 
L 703 3866 
L 703 4441 
L 1819 4666 
L 2450 4666 
L 2450 531 
L 3481 531 
L 3481 0 
L 794 0 
L 794 531 
z
" transform="scale(0.015625)"/>
       </defs>
       <use xlink:href="#DejaVuSans-31"/>
       <use xlink:href="#DejaVuSans-30" x="63.623047"/>
      </g>
     </g>
    </g>
    <g id="text_7">
     <!-- $t [s]$ -->
     <g transform="translate(209.21 141.416971) scale(0.1 -0.1)">
      <defs>
       <path id="DejaVuSans-Oblique-74" d="M 2706 3500 
L 2619 3053 
L 1472 3053 
L 1100 1153 
Q 1081 1047 1072 975 
Q 1063 903 1063 863 
Q 1063 663 1183 572 
Q 1303 481 1569 481 
L 2150 481 
L 2053 0 
L 1503 0 
Q 991 0 739 200 
Q 488 400 488 806 
Q 488 878 497 964 
Q 506 1050 525 1153 
L 897 3053 
L 409 3053 
L 500 3500 
L 978 3500 
L 1172 4494 
L 1747 4494 
L 1556 3500 
L 2706 3500 
z
" transform="scale(0.015625)"/>
       <path id="DejaVuSans-5b" d="M 550 4863 
L 1875 4863 
L 1875 4416 
L 1125 4416 
L 1125 -397 
L 1875 -397 
L 1875 -844 
L 550 -844 
L 550 4863 
z
" transform="scale(0.015625)"/>
       <path id="DejaVuSans-Oblique-73" d="M 3200 3397 
L 3091 2853 
Q 2863 2978 2609 3040 
Q 2356 3103 2088 3103 
Q 1634 3103 1373 2948 
Q 1113 2794 1113 2528 
Q 1113 2219 1719 2053 
Q 1766 2041 1788 2034 
L 1972 1978 
Q 2547 1819 2739 1644 
Q 2931 1469 2931 1166 
Q 2931 609 2489 259 
Q 2047 -91 1331 -91 
Q 1053 -91 747 -37 
Q 441 16 72 128 
L 184 722 
Q 500 559 806 475 
Q 1113 391 1394 391 
Q 1816 391 2080 572 
Q 2344 753 2344 1031 
Q 2344 1331 1650 1516 
L 1591 1531 
L 1394 1581 
Q 956 1697 753 1886 
Q 550 2075 550 2369 
Q 550 2928 970 3256 
Q 1391 3584 2113 3584 
Q 2397 3584 2667 3537 
Q 2938 3491 3200 3397 
z
" transform="scale(0.015625)"/>
       <path id="DejaVuSans-5d" d="M 1947 4863 
L 1947 -844 
L 622 -844 
L 622 -397 
L 1369 -397 
L 1369 4416 
L 622 4416 
L 622 4863 
L 1947 4863 
z
" transform="scale(0.015625)"/>
      </defs>
      <use xlink:href="#DejaVuSans-Oblique-74" transform="translate(0 0.015625)"/>
      <use xlink:href="#DejaVuSans-5b" transform="translate(39.208984 0.015625)"/>
      <use xlink:href="#DejaVuSans-Oblique-73" transform="translate(78.222656 0.015625)"/>
      <use xlink:href="#DejaVuSans-5d" transform="translate(130.322266 0.015625)"/>
     </g>
    </g>
   </g>
   <g id="matplotlib.axis_2">
    <g id="ytick_1">
     <g id="line2d_7">
      <defs>
       <path id="m8ccb6f7664" d="M 0 0 
L -3.5 0 
" style="stroke: #000000; stroke-width: 0.8"/>
      </defs>
      <g>
       <use xlink:href="#m8ccb6f7664" x="68.064545" y="187.780102" style="stroke: #000000; stroke-width: 0.8"/>
      </g>
     </g>
     <g id="text_8">
      <!-- −0.15 -->
      <g transform="translate(30.419233 191.579321) scale(0.1 -0.1)">
       <defs>
        <path id="DejaVuSans-2212" d="M 678 2272 
L 4684 2272 
L 4684 1741 
L 678 1741 
L 678 2272 
z
" transform="scale(0.015625)"/>
        <path id="DejaVuSans-2e" d="M 684 794 
L 1344 794 
L 1344 0 
L 684 0 
L 684 794 
z
" transform="scale(0.015625)"/>
        <path id="DejaVuSans-35" d="M 691 4666 
L 3169 4666 
L 3169 4134 
L 1269 4134 
L 1269 2991 
Q 1406 3038 1543 3061 
Q 1681 3084 1819 3084 
Q 2600 3084 3056 2656 
Q 3513 2228 3513 1497 
Q 3513 744 3044 326 
Q 2575 -91 1722 -91 
Q 1428 -91 1123 -41 
Q 819 9 494 109 
L 494 744 
Q 775 591 1075 516 
Q 1375 441 1709 441 
Q 2250 441 2565 725 
Q 2881 1009 2881 1497 
Q 2881 1984 2565 2268 
Q 2250 2553 1709 2553 
Q 1456 2553 1204 2497 
Q 953 2441 691 2322 
L 691 4666 
z
" transform="scale(0.015625)"/>
       </defs>
       <use xlink:href="#DejaVuSans-2212"/>
       <use xlink:href="#DejaVuSans-30" x="83.789062"/>
       <use xlink:href="#DejaVuSans-2e" x="147.412109"/>
       <use xlink:href="#DejaVuSans-31" x="179.199219"/>
       <use xlink:href="#DejaVuSans-35" x="242.822266"/>
      </g>
     </g>
    </g>
    <g id="ytick_2">
     <g id="line2d_8">
      <g>
       <use xlink:href="#m8ccb6f7664" x="68.064545" y="162.900204" style="stroke: #000000; stroke-width: 0.8"/>
      </g>
     </g>
     <g id="text_9">
      <!-- −0.10 -->
      <g transform="translate(30.419233 166.699423) scale(0.1 -0.1)">
       <use xlink:href="#DejaVuSans-2212"/>
       <use xlink:href="#DejaVuSans-30" x="83.789062"/>
       <use xlink:href="#DejaVuSans-2e" x="147.412109"/>
       <use xlink:href="#DejaVuSans-31" x="179.199219"/>
       <use xlink:href="#DejaVuSans-30" x="242.822266"/>
      </g>
     </g>
    </g>
    <g id="ytick_3">
     <g id="line2d_9">
      <g>
       <use xlink:href="#m8ccb6f7664" x="68.064545" y="138.020306" style="stroke: #000000; stroke-width: 0.8"/>
      </g>
     </g>
     <g id="text_10">
      <!-- −0.05 -->
      <g transform="translate(30.419233 141.819525) scale(0.1 -0.1)">
       <use xlink:href="#DejaVuSans-2212"/>
       <use xlink:href="#DejaVuSans-30" x="83.789062"/>
       <use xlink:href="#DejaVuSans-2e" x="147.412109"/>
       <use xlink:href="#DejaVuSans-30" x="179.199219"/>
       <use xlink:href="#DejaVuSans-35" x="242.822266"/>
      </g>
     </g>
    </g>
    <g id="ytick_4">
     <g id="line2d_10">
      <g>
       <use xlink:href="#m8ccb6f7664" x="68.064545" y="113.140408" style="stroke: #000000; stroke-width: 0.8"/>
      </g>
     </g>
     <g id="text_11">
      <!-- 0.00 -->
      <g transform="translate(38.79892 116.939627) scale(0.1 -0.1)">
       <use xlink:href="#DejaVuSans-30"/>
       <use xlink:href="#DejaVuSans-2e" x="63.623047"/>
       <use xlink:href="#DejaVuSans-30" x="95.410156"/>
       <use xlink:href="#DejaVuSans-30" x="159.033203"/>
      </g>
     </g>
    </g>
    <g id="ytick_5">
     <g id="line2d_11">
      <g>
       <use xlink:href="#m8ccb6f7664" x="68.064545" y="88.26051" style="stroke: #000000; stroke-width: 0.8"/>
      </g>
     </g>
     <g id="text_12">
      <!-- 0.05 -->
      <g transform="translate(38.79892 92.059729) scale(0.1 -0.1)">
       <use xlink:href="#DejaVuSans-30"/>
       <use xlink:href="#DejaVuSans-2e" x="63.623047"/>
       <use xlink:href="#DejaVuSans-30" x="95.410156"/>
       <use xlink:href="#DejaVuSans-35" x="159.033203"/>
      </g>
     </g>
    </g>
    <g id="ytick_6">
     <g id="line2d_12">
      <g>
       <use xlink:href="#m8ccb6f7664" x="68.064545" y="63.380612" style="stroke: #000000; stroke-width: 0.8"/>
      </g>
     </g>
     <g id="text_13">
      <!-- 0.10 -->
      <g transform="translate(38.79892 67.179831) scale(0.1 -0.1)">
       <use xlink:href="#DejaVuSans-30"/>
       <use xlink:href="#DejaVuSans-2e" x="63.623047"/>
       <use xlink:href="#DejaVuSans-31" x="95.410156"/>
       <use xlink:href="#DejaVuSans-30" x="159.033203"/>
      </g>
     </g>
    </g>
    <g id="ytick_7">
     <g id="line2d_13">
      <g>
       <use xlink:href="#m8ccb6f7664" x="68.064545" y="38.500714" style="stroke: #000000; stroke-width: 0.8"/>
      </g>
     </g>
     <g id="text_14">
      <!-- 0.15 -->
      <g transform="translate(38.79892 42.299933) scale(0.1 -0.1)">
       <use xlink:href="#DejaVuSans-30"/>
       <use xlink:href="#DejaVuSans-2e" x="63.623047"/>
       <use xlink:href="#DejaVuSans-31" x="95.410156"/>
       <use xlink:href="#DejaVuSans-35" x="159.033203"/>
      </g>
     </g>
    </g>
    <g id="text_15">
     <!-- $u(t)$ [m] -->
     <g transform="translate(24.339545 128.48) rotate(-90) scale(0.1 -0.1)">
      <defs>
       <path id="DejaVuSans-Oblique-75" d="M 428 1388 
L 838 3500 
L 1416 3500 
L 1006 1409 
Q 975 1256 961 1147 
Q 947 1038 947 966 
Q 947 700 1109 554 
Q 1272 409 1569 409 
Q 2031 409 2368 721 
Q 2706 1034 2809 1563 
L 3194 3500 
L 3769 3500 
L 3091 0 
L 2516 0 
L 2631 550 
Q 2388 244 2052 76 
Q 1716 -91 1338 -91 
Q 878 -91 622 161 
Q 366 413 366 863 
Q 366 956 381 1097 
Q 397 1238 428 1388 
z
" transform="scale(0.015625)"/>
       <path id="DejaVuSans-28" d="M 1984 4856 
Q 1566 4138 1362 3434 
Q 1159 2731 1159 2009 
Q 1159 1288 1364 580 
Q 1569 -128 1984 -844 
L 1484 -844 
Q 1016 -109 783 600 
Q 550 1309 550 2009 
Q 550 2706 781 3412 
Q 1013 4119 1484 4856 
L 1984 4856 
z
" transform="scale(0.015625)"/>
       <path id="DejaVuSans-29" d="M 513 4856 
L 1013 4856 
Q 1481 4119 1714 3412 
Q 1947 2706 1947 2009 
Q 1947 1309 1714 600 
Q 1481 -109 1013 -844 
L 513 -844 
Q 928 -128 1133 580 
Q 1338 1288 1338 2009 
Q 1338 2731 1133 3434 
Q 928 4138 513 4856 
z
" transform="scale(0.015625)"/>
       <path id="DejaVuSans-20" transform="scale(0.015625)"/>
       <path id="DejaVuSans-6d" d="M 3328 2828 
Q 3544 3216 3844 3400 
Q 4144 3584 4550 3584 
Q 5097 3584 5394 3201 
Q 5691 2819 5691 2113 
L 5691 0 
L 5113 0 
L 5113 2094 
Q 5113 2597 4934 2840 
Q 4756 3084 4391 3084 
Q 3944 3084 3684 2787 
Q 3425 2491 3425 1978 
L 3425 0 
L 2847 0 
L 2847 2094 
Q 2847 2600 2669 2842 
Q 2491 3084 2119 3084 
Q 1678 3084 1418 2786 
Q 1159 2488 1159 1978 
L 1159 0 
L 581 0 
L 581 3500 
L 1159 3500 
L 1159 2956 
Q 1356 3278 1631 3431 
Q 1906 3584 2284 3584 
Q 2666 3584 2933 3390 
Q 3200 3197 3328 2828 
z
" transform="scale(0.015625)"/>
      </defs>
      <use xlink:href="#DejaVuSans-Oblique-75" transform="translate(0 0.015625)"/>
      <use xlink:href="#DejaVuSans-28" transform="translate(63.378906 0.015625)"/>
      <use xlink:href="#DejaVuSans-Oblique-74" transform="translate(102.392578 0.015625)"/>
      <use xlink:href="#DejaVuSans-29" transform="translate(141.601562 0.015625)"/>
      <use xlink:href="#DejaVuSans-20" transform="translate(180.615234 0.015625)"/>
      <use xlink:href="#DejaVuSans-5b" transform="translate(212.402344 0.015625)"/>
      <use xlink:href="#DejaVuSans-6d" transform="translate(251.416016 0.015625)"/>
      <use xlink:href="#DejaVuSans-5d" transform="translate(348.828125 0.015625)"/>
     </g>
    </g>
   </g>
   <g id="line2d_14">
    <path d="M 68.064545 113.140408 
L 68.664327 109.601231 
L 69.264108 109.849926 
L 69.86389 121.439833 
L 70.463671 125.656913 
L 71.663234 91.03417 
L 72.263015 107.020937 
L 72.862797 138.532634 
L 73.462578 136.027824 
L 74.062359 95.379396 
L 74.662141 75.32032 
L 75.261922 112.215839 
L 75.861703 156.389193 
L 76.461485 138.822211 
L 77.061266 78.944575 
L 77.661048 65.238681 
L 78.260829 124.001359 
L 78.86061 171.628239 
L 79.460392 133.945841 
L 80.060173 61.670683 
L 80.659954 62.351708 
L 81.259736 139.824392 
L 81.859517 181.569247 
L 82.459299 122.721958 
L 83.05908 46.792749 
L 83.658861 66.796961 
L 84.258643 156.554466 
L 84.858424 184.68 
L 86.057987 36.895469 
L 86.657768 77.354422 
L 87.25755 171.097149 
L 87.857331 180.783807 
L 88.457112 91.421419 
L 89.056894 33.48 
L 89.656675 91.759171 
L 90.256457 180.960951 
L 90.856238 171.003896 
L 91.456019 77.278349 
L 92.055801 36.758248 
L 93.255363 184.676459 
L 93.855145 157.472282 
L 94.454926 67.52739 
L 95.054708 45.697695 
L 96.25427 182.000201 
L 96.854052 142.871993 
L 97.453833 63.605655 
L 98.053615 58.292239 
L 98.653396 130.304571 
L 99.253177 173.879738 
L 99.852959 129.907684 
L 100.45274 65.784777 
L 101.052521 71.994518 
L 101.652303 134.279173 
L 102.252084 162.201922 
L 103.451647 73.196709 
L 104.051428 84.219715 
L 104.65121 132.432556 
L 105.250991 149.384727 
L 106.450554 84.067508 
L 107.050335 92.823485 
L 107.650117 125.558393 
L 108.249898 137.897911 
L 109.449461 96.102557 
L 110.049242 96.467797 
L 110.649024 115.323768 
L 111.248805 129.805312 
L 111.848586 125.143334 
L 112.448368 106.94254 
L 113.048149 94.814657 
L 113.64793 103.905712 
L 114.247712 126.411568 
L 114.847493 134.922587 
L 115.447275 114.601671 
L 116.047056 88.523279 
L 116.646837 93.557567 
L 117.246619 128.071471 
L 117.8464 145.900031 
L 118.446181 117.80872 
L 119.045963 79.063986 
L 119.645744 86.189492 
L 120.245526 134.186439 
L 120.845307 155.92399 
L 121.445088 116.194424 
L 122.04487 68.395001 
L 122.644651 83.039373 
L 123.244433 143.376608 
L 123.844214 163.157549 
L 125.043777 58.570502 
L 125.643558 84.488803 
L 126.243339 153.785454 
L 126.843121 166.396023 
L 127.442902 101.42214 
L 128.042684 51.356488 
L 128.642465 90.048539 
L 129.242246 163.452301 
L 129.842028 165.247468 
L 130.441809 91.318139 
L 131.04159 47.924649 
L 131.641372 98.505107 
L 132.241153 170.679773 
L 132.840935 160.151961 
L 133.440716 81.859813 
L 134.040497 48.675451 
L 135.24006 174.328927 
L 135.839842 152.246553 
L 136.439623 74.678139 
L 137.039404 53.214603 
L 138.238967 173.992459 
L 138.838748 143.110803 
L 139.43853 70.879619 
L 140.038311 60.477249 
L 140.638093 124.329373 
L 141.237874 170.022075 
L 141.837655 134.447436 
L 142.437437 70.87683 
L 143.037218 68.967456 
L 143.636999 128.140483 
L 144.236781 163.414441 
L 144.836562 127.761114 
L 145.436344 74.357641 
L 146.036125 77.061419 
L 146.635906 128.338366 
L 147.235688 155.585913 
L 147.835469 124.094516 
L 148.435251 80.389752 
L 149.035032 83.314491 
L 149.634813 125.198419 
L 150.234595 148.084694 
L 150.834376 123.866568 
L 151.434157 87.632518 
L 152.033939 86.715287 
L 152.63372 119.592208 
L 153.233502 142.297461 
L 153.833283 126.835932 
L 154.433064 94.610125 
L 155.032846 86.843576 
L 156.232408 139.204763 
L 156.83219 132.188326 
L 157.431971 99.991873 
L 158.031753 83.909148 
L 158.631534 106.193432 
L 159.231315 139.227046 
L 159.831097 138.723572 
L 160.430878 102.827542 
L 161.03066 78.67227 
L 161.630441 101.084064 
L 162.230222 142.183712 
L 162.830004 145.101473 
L 163.429785 102.697466 
L 164.029566 72.268038 
L 164.629348 98.380693 
L 165.229129 147.365413 
L 165.828911 150.097458 
L 166.428692 99.75525 
L 167.028473 65.973198 
L 167.628255 98.501313 
L 168.228036 153.698913 
L 168.827817 152.820343 
L 169.427599 94.662251 
L 170.02738 60.962065 
L 170.627162 101.317254 
L 171.226943 159.96817 
L 171.826724 152.85461 
L 172.426506 88.432913 
L 173.026287 58.097155 
L 173.626069 106.21238 
L 174.22585 165.047326 
L 174.825631 150.305923 
L 175.425413 82.225207 
L 176.025194 57.790785 
L 177.224757 168.101946 
L 177.824538 145.747819 
L 178.42432 77.11828 
L 179.024101 59.958486 
L 180.223664 168.723578 
L 180.823445 140.085789 
L 181.423226 73.919071 
L 182.023008 64.066833 
L 182.622789 123.280023 
L 183.222571 166.977199 
L 183.822352 134.369133 
L 184.422133 73.031566 
L 185.021915 69.260761 
L 185.621696 126.502036 
L 186.221478 163.35848 
L 186.821259 129.588586 
L 187.42104 74.408681 
L 188.020822 74.541763 
L 188.620603 127.529099 
L 189.220384 158.674605 
L 189.820166 126.497878 
L 190.419947 77.590252 
L 191.019729 78.960903 
L 191.61951 126.391912 
L 192.219291 153.875529 
L 192.819073 125.490489 
L 193.418854 81.814546 
L 194.018635 81.790151 
L 194.618417 123.517263 
L 195.218198 149.869942 
L 195.81798 126.550693 
L 196.417761 86.177994 
L 197.017542 82.641951 
L 197.617324 119.623763 
L 198.217105 147.360789 
L 198.816887 129.283055 
L 199.416668 89.810642 
L 200.016449 81.518378 
L 201.216012 146.729329 
L 201.815793 133.009864 
L 202.415575 92.034005 
L 203.015356 78.785427 
L 204.214919 147.98591 
L 204.8147 136.914163 
L 205.414482 92.473437 
L 206.014263 75.082021 
L 207.213826 150.792176 
L 207.813607 140.199093 
L 208.413389 91.107304 
L 209.01317 71.184736 
L 210.212733 154.545975 
L 210.812514 142.233178 
L 211.412296 88.248024 
L 212.012077 67.855985 
L 213.21164 158.509283 
L 213.811421 142.655752 
L 214.411202 84.46288 
L 215.010984 65.704685 
L 216.210547 161.952797 
L 216.810328 141.425703 
L 217.410109 80.453103 
L 218.009891 65.08422 
L 219.209453 164.28953 
L 219.809235 138.808271 
L 220.409016 76.916169 
L 221.008798 66.044036 
L 221.608579 121.631697 
L 222.20836 165.173543 
L 222.808142 135.306347 
L 223.407923 74.417741 
L 224.007704 68.340303 
L 224.607486 125.157889 
L 225.207267 164.547907 
L 225.807049 131.552515 
L 226.40683 73.296186 
L 227.006611 71.499833 
L 227.606393 127.71124 
L 228.206174 162.636394 
L 228.805956 128.18426 
L 229.405737 73.615108 
L 230.005518 74.922029 
L 230.6053 128.961069 
L 231.205081 159.884056 
L 231.804862 125.726383 
L 232.404644 75.169513 
L 233.004425 77.997655 
L 233.604207 128.83785 
L 234.203988 156.860975 
L 234.803769 124.501793 
L 235.403551 77.540986 
L 236.003332 80.221465 
L 236.603113 127.529019 
L 237.202895 154.149257 
L 237.802676 124.585231 
L 238.402458 80.188543 
L 239.002239 81.278389 
L 239.60202 125.427783 
L 240.201802 152.235168 
L 240.801583 125.805664 
L 241.401365 82.556118 
L 242.001146 81.089119 
L 242.600927 123.047399 
L 243.200709 151.425912 
L 243.80049 127.79373 
L 244.400271 84.175845 
L 245.000053 79.809378 
L 245.599834 120.918949 
L 246.199616 151.804756 
L 246.799397 130.062583 
L 247.399178 84.748394 
L 247.99896 77.785983 
L 248.598741 119.492476 
L 249.198522 153.230268 
L 249.798304 132.105098 
L 250.398085 84.187089 
L 250.997867 75.480625 
L 252.197429 155.376943 
L 252.797211 133.488487 
L 253.396992 82.620026 
L 253.996774 73.37746 
L 255.196336 157.807051 
L 255.796118 133.929085 
L 256.395899 80.352558 
L 256.99568 71.892584 
L 257.595462 121.326877 
L 258.195243 160.058449 
L 258.795025 133.334848 
L 259.394806 77.7996 
L 259.994587 71.301908 
L 260.594369 123.625366 
L 261.19415 161.731192 
L 261.793931 131.809835 
L 262.393713 75.402182 
L 262.993494 71.69951 
L 263.593276 126.211763 
L 264.193057 162.557055 
L 264.792838 129.62232 
L 265.39262 73.54463 
L 265.992401 72.992145 
L 266.592183 128.665276 
L 267.191964 162.44032 
L 267.791745 127.144778 
L 268.391527 72.48755 
L 268.991308 74.928572 
L 269.591089 130.616698 
L 270.190871 161.464164 
L 270.790652 124.778589 
L 271.390434 72.327935 
L 271.990215 77.156041 
L 272.589996 131.812964 
L 273.189778 159.863731 
L 273.789559 122.878338 
L 274.38934 72.991966 
L 274.989122 79.291776 
L 275.588903 132.15615 
L 276.188685 157.972996 
L 276.788466 121.689627 
L 277.388247 74.259695 
L 277.988029 80.99534 
L 278.58781 131.711396 
L 279.187592 156.156903 
L 279.787373 121.310985 
L 280.387154 75.815013 
L 280.986936 82.028505 
L 281.586717 130.684312 
L 282.186498 154.742215 
L 282.78628 121.685316 
L 283.386061 77.310053 
L 283.985843 82.292429 
L 284.585624 129.374023 
L 285.185405 153.959888 
L 285.785187 122.620522 
L 286.384968 78.431257 
L 286.984749 81.836769 
L 287.584531 128.112048 
L 288.184312 153.908811 
L 288.784094 123.833621 
L 289.383875 78.954825 
L 289.983656 80.840894 
L 290.583438 127.19921 
L 291.183219 154.5462 
L 291.783001 125.008725 
L 292.382782 78.782058 
L 292.982563 79.572449 
L 293.582345 126.852281 
L 294.182126 155.704682 
L 294.781907 125.857291 
L 295.381689 77.949384 
L 295.98147 78.332376 
L 296.581252 127.169564 
L 297.181033 157.131178 
L 297.780814 126.169435 
L 298.380596 76.612877 
L 298.980377 77.397385 
L 299.580158 128.120504 
L 300.17994 158.539039 
L 300.779721 125.847429 
L 301.379503 75.011772 
L 301.979284 76.970622 
L 302.579065 129.559679 
L 303.178847 159.662953 
L 303.778628 124.9164 
L 304.37841 73.419051 
L 304.978191 77.149074 
L 305.577972 131.261015 
L 306.177754 160.306373 
L 306.777535 123.511727 
L 307.377316 72.089035 
L 307.977098 77.912626 
L 308.576879 132.964606 
L 309.176661 160.373197 
L 309.776442 121.846975 
L 310.376223 71.21182 
L 310.976005 79.135367 
L 311.575786 134.426726 
L 312.175567 159.878922 
L 312.775349 120.169529 
L 313.37513 70.882479 
L 313.974912 80.615629 
L 314.574693 135.463599 
L 315.174474 158.940539 
L 316.374037 71.089758 
L 316.973819 82.118002 
L 317.5736 135.981312 
L 318.173381 157.748413 
L 319.372944 71.72506 
L 319.972725 83.418829 
L 320.572507 135.987233 
L 321.172288 156.526496 
L 322.371851 72.608752 
L 322.971632 84.346584 
L 323.571414 135.582076 
L 324.171195 155.488946 
L 325.370758 73.527833 
L 325.970539 84.81003 
L 326.570321 134.93529 
L 327.170102 154.80137 
L 328.369665 74.27729 
L 328.969446 84.809777 
L 329.569228 134.249421 
L 330.169009 154.553514 
L 331.368572 74.697293 
L 331.968353 84.432197 
L 332.568134 133.720688 
L 333.167916 154.747686 
L 333.767697 118.458936 
L 334.367479 74.699667 
L 334.96726 83.827953 
L 335.567041 133.503296 
L 336.166823 155.304021 
L 336.766604 118.902212 
L 337.366385 74.279452 
L 337.966167 83.180101 
L 338.565948 133.683792 
L 339.16573 156.08051 
L 339.765511 119.050502 
L 340.365292 73.510414 
L 340.965074 82.668302 
L 341.564855 134.269537 
L 342.164637 156.903172 
L 342.764418 118.818929 
L 343.364199 72.526358 
L 343.963981 82.435989 
L 344.563762 135.192494 
L 345.163543 157.600131 
L 345.763325 118.197955 
L 346.363106 71.492612 
L 346.962888 82.566327 
L 347.562669 136.326638 
L 348.16245 158.033108 
L 349.362013 70.573566 
L 349.961794 83.070836 
L 350.561576 137.514904 
L 351.161357 158.120668 
L 352.36092 69.902499 
L 352.960701 83.891912 
L 353.560483 138.600095 
L 354.160264 157.849514 
L 355.359827 69.559082 
L 355.959608 84.917922 
L 356.55939 139.453799 
L 357.159171 157.272499 
L 358.358734 69.55821 
L 358.958515 86.007242 
L 359.558297 139.998137 
L 360.158078 156.494612 
L 361.357641 69.851475 
L 361.957422 87.016255 
L 362.557203 140.216796 
L 363.156985 155.650269 
L 364.356548 70.34019 
L 364.956329 87.825896 
L 365.55611 140.154029 
L 366.155892 154.87668 
L 367.355455 70.896813 
L 367.355455 70.896813 
" clip-path="url(#p6f6ff1dbd7)" style="fill: none; stroke: #1f77b4; stroke-width: 1.5; stroke-linecap: square"/>
   </g>
   <g id="patch_3">
    <path d="M 68.064545 192.24 
L 68.064545 25.92 
" style="fill: none; stroke: #000000; stroke-width: 0.8; stroke-linejoin: miter; stroke-linecap: square"/>
   </g>
   <g id="patch_4">
    <path d="M 382.32 192.24 
L 382.32 25.92 
" style="fill: none"/>
   </g>
   <g id="patch_5">
    <path d="M 53.1 113.140408 
L 382.32 113.140408 
" style="fill: none; stroke: #000000; stroke-width: 0.8; stroke-linejoin: miter; stroke-linecap: square"/>
   </g>
   <g id="patch_6">
    <path d="M 53.1 25.92 
L 382.32 25.92 
" style="fill: none"/>
   </g>
  </g>
 </g>
 <defs>
  <clipPath id="p6f6ff1dbd7">
   <rect x="53.1" y="25.92" width="329.22" height="166.32"/>
  </clipPath>
 </defs>
</svg>
