<?xml version="1.0" encoding="utf-8" standalone="no"?>
<!DOCTYPE svg PUBLIC "-//W3C//DTD SVG 1.1//EN"
  "http://www.w3.org/Graphics/SVG/1.1/DTD/svg11.dtd">
<svg xmlns:xlink="http://www.w3.org/1999/xlink" width="424.8pt" height="216pt" viewBox="0 0 424.8 216" xmlns="http://www.w3.org/2000/svg" version="1.1">
 <metadata>
  <rdf:RDF xmlns:dc="http://purl.org/dc/elements/1.1/" xmlns:cc="http://creativecommons.org/ns#" xmlns:rdf="http://www.w3.org/1999/02/22-rdf-syntax-ns#">
   <cc:Work>
    <dc:type rdf:resource="http://purl.org/dc/dcmitype/StillImage"/>
    <dc:date>2023-08-07T10:04:05.798519</dc:date>
    <dc:format>image/svg+xml</dc:format>
    <dc:creator>
     <cc:Agent>
      <dc:title>Matplotlib v3.7.1, https://matplotlib.org/</dc:title>
     </cc:Agent>
    </dc:creator>
   </cc:Work>
  </rdf:RDF>
 </metadata>
 <defs>
  <style type="text/css">*{stroke-linejoin: round; stroke-linecap: butt}</style>
 </defs>
 <g id="figure_1">
  <g id="patch_1">
   <path d="M 0 216 
L 424.8 216 
L 424.8 0 
L 0 0 
z
" style="fill: #ffffff"/>
  </g>
  <g id="axes_1">
   <g id="patch_2">
    <path d="M 53.1 192.24 
L 382.32 192.24 
L 382.32 25.92 
L 53.1 25.92 
z
" style="fill: #ffffff"/>
   </g>
   <g id="matplotlib.axis_1">
    <g id="xtick_1">
     <g id="line2d_1">
      <defs>
       <path id="m2853daf436" d="M 0 0 
L 0 3.5 
" style="stroke: #000000; stroke-width: 0.8"/>
      </defs>
      <g>
       <use xlink:href="#m2853daf436" x="68.064545" y="109.08" style="stroke: #000000; stroke-width: 0.8"/>
      </g>
     </g>
     <g id="text_1">
      <!-- 0.00 -->
      <g transform="translate(56.931733 123.678438) scale(0.1 -0.1)">
       <defs>
        <path id="DejaVuSans-30" d="M 2034 4250 
Q 1547 4250 1301 3770 
Q 1056 3291 1056 2328 
Q 1056 1369 1301 889 
Q 1547 409 2034 409 
Q 2525 409 2770 889 
Q 3016 1369 3016 2328 
Q 3016 3291 2770 3770 
Q 2525 4250 2034 4250 
z
M 2034 4750 
Q 2819 4750 3233 4129 
Q 3647 3509 3647 2328 
Q 3647 1150 3233 529 
Q 2819 -91 2034 -91 
Q 1250 -91 836 529 
Q 422 1150 422 2328 
Q 422 3509 836 4129 
Q 1250 4750 2034 4750 
z
" transform="scale(0.015625)"/>
        <path id="DejaVuSans-2e" d="M 684 794 
L 1344 794 
L 1344 0 
L 684 0 
L 684 794 
z
" transform="scale(0.015625)"/>
       </defs>
       <use xlink:href="#DejaVuSans-30"/>
       <use xlink:href="#DejaVuSans-2e" x="63.623047"/>
       <use xlink:href="#DejaVuSans-30" x="95.410156"/>
       <use xlink:href="#DejaVuSans-30" x="159.033203"/>
      </g>
     </g>
    </g>
    <g id="xtick_2">
     <g id="line2d_2">
      <g>
       <use xlink:href="#m2853daf436" x="105.475909" y="109.08" style="stroke: #000000; stroke-width: 0.8"/>
      </g>
     </g>
     <g id="text_2">
      <!-- 0.25 -->
      <g transform="translate(94.343097 123.678438) scale(0.1 -0.1)">
       <defs>
        <path id="DejaVuSans-32" d="M 1228 531 
L 3431 531 
L 3431 0 
L 469 0 
L 469 531 
Q 828 903 1448 1529 
Q 2069 2156 2228 2338 
Q 2531 2678 2651 2914 
Q 2772 3150 2772 3378 
Q 2772 3750 2511 3984 
Q 2250 4219 1831 4219 
Q 1534 4219 1204 4116 
Q 875 4013 500 3803 
L 500 4441 
Q 881 4594 1212 4672 
Q 1544 4750 1819 4750 
Q 2544 4750 2975 4387 
Q 3406 4025 3406 3419 
Q 3406 3131 3298 2873 
Q 3191 2616 2906 2266 
Q 2828 2175 2409 1742 
Q 1991 1309 1228 531 
z
" transform="scale(0.015625)"/>
        <path id="DejaVuSans-35" d="M 691 4666 
L 3169 4666 
L 3169 4134 
L 1269 4134 
L 1269 2991 
Q 1406 3038 1543 3061 
Q 1681 3084 1819 3084 
Q 2600 3084 3056 2656 
Q 3513 2228 3513 1497 
Q 3513 744 3044 326 
Q 2575 -91 1722 -91 
Q 1428 -91 1123 -41 
Q 819 9 494 109 
L 494 744 
Q 775 591 1075 516 
Q 1375 441 1709 441 
Q 2250 441 2565 725 
Q 2881 1009 2881 1497 
Q 2881 1984 2565 2268 
Q 2250 2553 1709 2553 
Q 1456 2553 1204 2497 
Q 953 2441 691 2322 
L 691 4666 
z
" transform="scale(0.015625)"/>
       </defs>
       <use xlink:href="#DejaVuSans-30"/>
       <use xlink:href="#DejaVuSans-2e" x="63.623047"/>
       <use xlink:href="#DejaVuSans-32" x="95.410156"/>
       <use xlink:href="#DejaVuSans-35" x="159.033203"/>
      </g>
     </g>
    </g>
    <g id="xtick_3">
     <g id="line2d_3">
      <g>
       <use xlink:href="#m2853daf436" x="142.887273" y="109.08" style="stroke: #000000; stroke-width: 0.8"/>
      </g>
     </g>
     <g id="text_3">
      <!-- 0.50 -->
      <g transform="translate(131.75446 123.678438) scale(0.1 -0.1)">
       <use xlink:href="#DejaVuSans-30"/>
       <use xlink:href="#DejaVuSans-2e" x="63.623047"/>
       <use xlink:href="#DejaVuSans-35" x="95.410156"/>
       <use xlink:href="#DejaVuSans-30" x="159.033203"/>
      </g>
     </g>
    </g>
    <g id="xtick_4">
     <g id="line2d_4">
      <g>
       <use xlink:href="#m2853daf436" x="180.298636" y="109.08" style="stroke: #000000; stroke-width: 0.8"/>
      </g>
     </g>
     <g id="text_4">
      <!-- 0.75 -->
      <g transform="translate(169.165824 123.678438) scale(0.1 -0.1)">
       <defs>
        <path id="DejaVuSans-37" d="M 525 4666 
L 3525 4666 
L 3525 4397 
L 1831 0 
L 1172 0 
L 2766 4134 
L 525 4134 
L 525 4666 
z
" transform="scale(0.015625)"/>
       </defs>
       <use xlink:href="#DejaVuSans-30"/>
       <use xlink:href="#DejaVuSans-2e" x="63.623047"/>
       <use xlink:href="#DejaVuSans-37" x="95.410156"/>
       <use xlink:href="#DejaVuSans-35" x="159.033203"/>
      </g>
     </g>
    </g>
    <g id="xtick_5">
     <g id="line2d_5">
      <g>
       <use xlink:href="#m2853daf436" x="217.71" y="109.08" style="stroke: #000000; stroke-width: 0.8"/>
      </g>
     </g>
     <g id="text_5">
      <!-- 1.00 -->
      <g transform="translate(206.577187 123.678438) scale(0.1 -0.1)">
       <defs>
        <path id="DejaVuSans-31" d="M 794 531 
L 1825 531 
L 1825 4091 
L 703 3866 
L 703 4441 
L 1819 4666 
L 2450 4666 
L 2450 531 
L 3481 531 
L 3481 0 
L 794 0 
L 794 531 
z
" transform="scale(0.015625)"/>
       </defs>
       <use xlink:href="#DejaVuSans-31"/>
       <use xlink:href="#DejaVuSans-2e" x="63.623047"/>
       <use xlink:href="#DejaVuSans-30" x="95.410156"/>
       <use xlink:href="#DejaVuSans-30" x="159.033203"/>
      </g>
     </g>
    </g>
    <g id="xtick_6">
     <g id="line2d_6">
      <g>
       <use xlink:href="#m2853daf436" x="255.121364" y="109.08" style="stroke: #000000; stroke-width: 0.8"/>
      </g>
     </g>
     <g id="text_6">
      <!-- 1.25 -->
      <g transform="translate(243.988551 123.678438) scale(0.1 -0.1)">
       <use xlink:href="#DejaVuSans-31"/>
       <use xlink:href="#DejaVuSans-2e" x="63.623047"/>
       <use xlink:href="#DejaVuSans-32" x="95.410156"/>
       <use xlink:href="#DejaVuSans-35" x="159.033203"/>
      </g>
     </g>
    </g>
    <g id="xtick_7">
     <g id="line2d_7">
      <g>
       <use xlink:href="#m2853daf436" x="292.532727" y="109.08" style="stroke: #000000; stroke-width: 0.8"/>
      </g>
     </g>
     <g id="text_7">
      <!-- 1.50 -->
      <g transform="translate(281.399915 123.678438) scale(0.1 -0.1)">
       <use xlink:href="#DejaVuSans-31"/>
       <use xlink:href="#DejaVuSans-2e" x="63.623047"/>
       <use xlink:href="#DejaVuSans-35" x="95.410156"/>
       <use xlink:href="#DejaVuSans-30" x="159.033203"/>
      </g>
     </g>
    </g>
    <g id="xtick_8">
     <g id="line2d_8">
      <g>
       <use xlink:href="#m2853daf436" x="329.944091" y="109.08" style="stroke: #000000; stroke-width: 0.8"/>
      </g>
     </g>
     <g id="text_8">
      <!-- 1.75 -->
      <g transform="translate(318.811278 123.678438) scale(0.1 -0.1)">
       <use xlink:href="#DejaVuSans-31"/>
       <use xlink:href="#DejaVuSans-2e" x="63.623047"/>
       <use xlink:href="#DejaVuSans-37" x="95.410156"/>
       <use xlink:href="#DejaVuSans-35" x="159.033203"/>
      </g>
     </g>
    </g>
    <g id="xtick_9">
     <g id="line2d_9">
      <g>
       <use xlink:href="#m2853daf436" x="367.355455" y="109.08" style="stroke: #000000; stroke-width: 0.8"/>
      </g>
     </g>
     <g id="text_9">
      <!-- 2.00 -->
      <g transform="translate(356.222642 123.678438) scale(0.1 -0.1)">
       <use xlink:href="#DejaVuSans-32"/>
       <use xlink:href="#DejaVuSans-2e" x="63.623047"/>
       <use xlink:href="#DejaVuSans-30" x="95.410156"/>
       <use xlink:href="#DejaVuSans-30" x="159.033203"/>
      </g>
     </g>
    </g>
    <g id="text_10">
     <!-- $t [s]$ -->
     <g transform="translate(209.21 137.356563) scale(0.1 -0.1)">
      <defs>
       <path id="DejaVuSans-Oblique-74" d="M 2706 3500 
L 2619 3053 
L 1472 3053 
L 1100 1153 
Q 1081 1047 1072 975 
Q 1063 903 1063 863 
Q 1063 663 1183 572 
Q 1303 481 1569 481 
L 2150 481 
L 2053 0 
L 1503 0 
Q 991 0 739 200 
Q 488 400 488 806 
Q 488 878 497 964 
Q 506 1050 525 1153 
L 897 3053 
L 409 3053 
L 500 3500 
L 978 3500 
L 1172 4494 
L 1747 4494 
L 1556 3500 
L 2706 3500 
z
" transform="scale(0.015625)"/>
       <path id="DejaVuSans-5b" d="M 550 4863 
L 1875 4863 
L 1875 4416 
L 1125 4416 
L 1125 -397 
L 1875 -397 
L 1875 -844 
L 550 -844 
L 550 4863 
z
" transform="scale(0.015625)"/>
       <path id="DejaVuSans-Oblique-73" d="M 3200 3397 
L 3091 2853 
Q 2863 2978 2609 3040 
Q 2356 3103 2088 3103 
Q 1634 3103 1373 2948 
Q 1113 2794 1113 2528 
Q 1113 2219 1719 2053 
Q 1766 2041 1788 2034 
L 1972 1978 
Q 2547 1819 2739 1644 
Q 2931 1469 2931 1166 
Q 2931 609 2489 259 
Q 2047 -91 1331 -91 
Q 1053 -91 747 -37 
Q 441 16 72 128 
L 184 722 
Q 500 559 806 475 
Q 1113 391 1394 391 
Q 1816 391 2080 572 
Q 2344 753 2344 1031 
Q 2344 1331 1650 1516 
L 1591 1531 
L 1394 1581 
Q 956 1697 753 1886 
Q 550 2075 550 2369 
Q 550 2928 970 3256 
Q 1391 3584 2113 3584 
Q 2397 3584 2667 3537 
Q 2938 3491 3200 3397 
z
" transform="scale(0.015625)"/>
       <path id="DejaVuSans-5d" d="M 1947 4863 
L 1947 -844 
L 622 -844 
L 622 -397 
L 1369 -397 
L 1369 4416 
L 622 4416 
L 622 4863 
L 1947 4863 
z
" transform="scale(0.015625)"/>
      </defs>
      <use xlink:href="#DejaVuSans-Oblique-74" transform="translate(0 0.015625)"/>
      <use xlink:href="#DejaVuSans-5b" transform="translate(39.208984 0.015625)"/>
      <use xlink:href="#DejaVuSans-Oblique-73" transform="translate(78.222656 0.015625)"/>
      <use xlink:href="#DejaVuSans-5d" transform="translate(130.322266 0.015625)"/>
     </g>
    </g>
   </g>
   <g id="matplotlib.axis_2">
    <g id="ytick_1">
     <g id="line2d_10">
      <defs>
       <path id="mec59e53d24" d="M 0 0 
L -3.5 0 
" style="stroke: #000000; stroke-width: 0.8"/>
      </defs>
      <g>
       <use xlink:href="#mec59e53d24" x="68.064545" y="172.697477" style="stroke: #000000; stroke-width: 0.8"/>
      </g>
     </g>
     <g id="text_11">
      <!-- −1000 -->
      <g transform="translate(27.234858 176.496695) scale(0.1 -0.1)">
       <defs>
        <path id="DejaVuSans-2212" d="M 678 2272 
L 4684 2272 
L 4684 1741 
L 678 1741 
L 678 2272 
z
" transform="scale(0.015625)"/>
       </defs>
       <use xlink:href="#DejaVuSans-2212"/>
       <use xlink:href="#DejaVuSans-31" x="83.789062"/>
       <use xlink:href="#DejaVuSans-30" x="147.412109"/>
       <use xlink:href="#DejaVuSans-30" x="211.035156"/>
       <use xlink:href="#DejaVuSans-30" x="274.658203"/>
      </g>
     </g>
    </g>
    <g id="ytick_2">
     <g id="line2d_11">
      <g>
       <use xlink:href="#mec59e53d24" x="68.064545" y="140.888738" style="stroke: #000000; stroke-width: 0.8"/>
      </g>
     </g>
     <g id="text_12">
      <!-- −500 -->
      <g transform="translate(33.597358 144.687957) scale(0.1 -0.1)">
       <use xlink:href="#DejaVuSans-2212"/>
       <use xlink:href="#DejaVuSans-35" x="83.789062"/>
       <use xlink:href="#DejaVuSans-30" x="147.412109"/>
       <use xlink:href="#DejaVuSans-30" x="211.035156"/>
      </g>
     </g>
    </g>
    <g id="ytick_3">
     <g id="line2d_12">
      <g>
       <use xlink:href="#mec59e53d24" x="68.064545" y="109.08" style="stroke: #000000; stroke-width: 0.8"/>
      </g>
     </g>
     <g id="text_13">
      <!-- 0 -->
      <g transform="translate(54.702045 112.879219) scale(0.1 -0.1)">
       <use xlink:href="#DejaVuSans-30"/>
      </g>
     </g>
    </g>
    <g id="ytick_4">
     <g id="line2d_13">
      <g>
       <use xlink:href="#mec59e53d24" x="68.064545" y="77.271262" style="stroke: #000000; stroke-width: 0.8"/>
      </g>
     </g>
     <g id="text_14">
      <!-- 500 -->
      <g transform="translate(41.977045 81.07048) scale(0.1 -0.1)">
       <use xlink:href="#DejaVuSans-35"/>
       <use xlink:href="#DejaVuSans-30" x="63.623047"/>
       <use xlink:href="#DejaVuSans-30" x="127.246094"/>
      </g>
     </g>
    </g>
    <g id="ytick_5">
     <g id="line2d_14">
      <g>
       <use xlink:href="#mec59e53d24" x="68.064545" y="45.462523" style="stroke: #000000; stroke-width: 0.8"/>
      </g>
     </g>
     <g id="text_15">
      <!-- 1000 -->
      <g transform="translate(35.614545 49.261742) scale(0.1 -0.1)">
       <use xlink:href="#DejaVuSans-31"/>
       <use xlink:href="#DejaVuSans-30" x="63.623047"/>
       <use xlink:href="#DejaVuSans-30" x="127.246094"/>
       <use xlink:href="#DejaVuSans-30" x="190.869141"/>
      </g>
     </g>
    </g>
    <g id="text_16">
     <!-- $F(t)$ [N] -->
     <g transform="translate(21.15517 127.08) rotate(-90) scale(0.1 -0.1)">
      <defs>
       <path id="DejaVuSans-Oblique-46" d="M 1081 4666 
L 3756 4666 
L 3653 4134 
L 1606 4134 
L 1338 2759 
L 3188 2759 
L 3084 2228 
L 1234 2228 
L 800 0 
L 172 0 
L 1081 4666 
z
" transform="scale(0.015625)"/>
       <path id="DejaVuSans-28" d="M 1984 4856 
Q 1566 4138 1362 3434 
Q 1159 2731 1159 2009 
Q 1159 1288 1364 580 
Q 1569 -128 1984 -844 
L 1484 -844 
Q 1016 -109 783 600 
Q 550 1309 550 2009 
Q 550 2706 781 3412 
Q 1013 4119 1484 4856 
L 1984 4856 
z
" transform="scale(0.015625)"/>
       <path id="DejaVuSans-29" d="M 513 4856 
L 1013 4856 
Q 1481 4119 1714 3412 
Q 1947 2706 1947 2009 
Q 1947 1309 1714 600 
Q 1481 -109 1013 -844 
L 513 -844 
Q 928 -128 1133 580 
Q 1338 1288 1338 2009 
Q 1338 2731 1133 3434 
Q 928 4138 513 4856 
z
" transform="scale(0.015625)"/>
       <path id="DejaVuSans-20" transform="scale(0.015625)"/>
       <path id="DejaVuSans-4e" d="M 628 4666 
L 1478 4666 
L 3547 763 
L 3547 4666 
L 4159 4666 
L 4159 0 
L 3309 0 
L 1241 3903 
L 1241 0 
L 628 0 
L 628 4666 
z
" transform="scale(0.015625)"/>
      </defs>
      <use xlink:href="#DejaVuSans-Oblique-46" transform="translate(0 0.015625)"/>
      <use xlink:href="#DejaVuSans-28" transform="translate(57.519531 0.015625)"/>
      <use xlink:href="#DejaVuSans-Oblique-74" transform="translate(96.533203 0.015625)"/>
      <use xlink:href="#DejaVuSans-29" transform="translate(135.742188 0.015625)"/>
      <use xlink:href="#DejaVuSans-20" transform="translate(174.755859 0.015625)"/>
      <use xlink:href="#DejaVuSans-5b" transform="translate(206.542969 0.015625)"/>
      <use xlink:href="#DejaVuSans-4e" transform="translate(245.556641 0.015625)"/>
      <use xlink:href="#DejaVuSans-5d" transform="translate(320.361328 0.015625)"/>
     </g>
    </g>
   </g>
   <g id="line2d_15">
    <path d="M 68.064545 109.08 
L 71.063452 79.410724 
L 72.862797 63.832652 
L 74.062359 54.964251 
L 75.261922 47.541638 
L 76.461485 41.684772 
L 77.661048 37.438063 
L 78.260829 35.911616 
L 78.86061 34.770239 
L 79.460392 33.998879 
L 80.060173 33.578492 
L 80.659954 33.48638 
L 81.259736 33.696584 
L 81.859517 34.180311 
L 82.459299 34.906402 
L 83.658861 36.952194 
L 84.858424 39.556608 
L 88.457112 47.974876 
L 89.656675 50.185398 
L 90.856238 51.804017 
L 91.456019 52.359356 
L 92.055801 52.735808 
L 92.655582 52.930925 
L 93.255363 52.945975 
L 93.855145 52.785817 
L 94.454926 52.458717 
L 95.654489 51.35229 
L 96.854052 49.750634 
L 98.653396 46.772448 
L 101.052521 42.686323 
L 102.252084 40.995708 
L 103.451647 39.740133 
L 104.051428 39.310124 
L 104.65121 39.024952 
L 105.250991 38.890584 
L 105.850772 38.90983 
L 106.450554 39.082287 
L 107.050335 39.404349 
L 108.249898 40.467305 
L 109.449461 42.009737 
L 111.248805 44.928767 
L 114.247712 49.97277 
L 115.447275 51.5206 
L 116.646837 52.55557 
L 117.246619 52.841887 
L 117.8464 52.958888 
L 118.446181 52.899139 
L 119.045963 52.658664 
L 119.645744 52.237113 
L 120.245526 51.637878 
L 121.445088 49.938862 
L 122.644651 47.663937 
L 124.443995 43.533273 
L 126.843121 37.87861 
L 128.042684 35.590207 
L 128.642465 34.703937 
L 129.242246 34.035405 
L 129.842028 33.617222 
L 130.441809 33.48 
L 131.04159 33.651867 
L 131.641372 34.158007 
L 132.241153 35.020236 
L 132.840935 36.256631 
L 133.440716 37.881202 
L 134.040497 39.903618 
L 135.24006 45.157772 
L 136.439623 52.003283 
L 137.639186 60.34823 
L 138.838748 70.027424 
L 140.638093 86.526192 
L 147.235688 150.665847 
L 148.435251 160.030745 
L 149.634813 168.013547 
L 150.834376 174.466878 
L 152.033939 179.31775 
L 152.63372 181.140314 
L 153.233502 182.569312 
L 153.833283 183.616612 
L 154.433064 184.298294 
L 155.032846 184.634351 
L 155.632627 184.648331 
L 156.232408 184.366946 
L 156.83219 183.819625 
L 157.431971 183.038043 
L 158.631534 180.906995 
L 160.430878 176.817621 
L 162.830004 171.137308 
L 164.029566 168.741162 
L 165.229129 166.886275 
L 165.828911 166.200654 
L 166.428692 165.6896 
L 167.028473 165.358399 
L 167.628255 165.208561 
L 168.228036 165.237905 
L 168.827817 165.440701 
L 169.427599 165.807869 
L 170.627162 166.983803 
L 171.826724 168.636791 
L 173.626069 171.650895 
L 176.025194 175.70421 
L 177.224757 177.347593 
L 178.42432 178.540505 
L 179.024101 178.935033 
L 179.623882 179.182942 
L 180.223664 179.279045 
L 180.823445 179.221333 
L 181.423226 179.011012 
L 182.023008 178.652482 
L 183.222571 177.523805 
L 184.422133 175.929839 
L 186.221478 172.969634 
L 188.620603 168.869166 
L 189.820166 167.167392 
L 191.019729 165.92398 
L 191.61951 165.517508 
L 192.219291 165.272642 
L 192.819073 165.199263 
L 193.418854 165.30396 
L 194.018635 165.589816 
L 194.618417 166.056253 
L 195.218198 166.698936 
L 196.417761 168.476746 
L 197.617324 170.813581 
L 199.416668 174.991201 
L 201.815793 180.598005 
L 203.015356 182.809929 
L 203.615138 183.644912 
L 204.214919 184.253845 
L 204.8147 184.604569 
L 205.414482 184.667048 
L 206.014263 184.413849 
L 206.614044 183.820592 
L 207.213826 182.866363 
L 207.813607 181.534071 
L 208.413389 179.810771 
L 209.612951 175.161537 
L 210.812514 168.906083 
L 212.012077 161.107891 
L 213.21164 151.905278 
L 215.010984 135.93903 
L 217.410109 112.138815 
L 220.409016 82.22097 
L 222.20836 66.254722 
L 223.407923 57.052109 
L 224.607486 49.253917 
L 225.807049 42.998463 
L 227.006611 38.349229 
L 227.606393 36.625929 
L 228.206174 35.293637 
L 228.805956 34.339408 
L 229.405737 33.746151 
L 230.005518 33.492952 
L 230.6053 33.555431 
L 231.205081 33.906155 
L 231.804862 34.515088 
L 232.404644 35.350071 
L 233.604207 37.561995 
L 235.403551 41.706509 
L 237.802676 47.346419 
L 239.002239 49.683254 
L 240.201802 51.461064 
L 240.801583 52.103747 
L 241.401365 52.570184 
L 242.001146 52.85604 
L 242.600927 52.960737 
L 243.200709 52.887358 
L 243.80049 52.642492 
L 244.400271 52.23602 
L 245.599834 50.992608 
L 246.799397 49.290834 
L 248.598741 46.245139 
L 250.997867 42.230161 
L 252.197429 40.636195 
L 253.396992 39.507518 
L 253.996774 39.148988 
L 254.596555 38.938667 
L 255.196336 38.880955 
L 255.796118 38.977058 
L 256.395899 39.224967 
L 256.99568 39.619495 
L 258.195243 40.812407 
L 259.394806 42.45579 
L 261.19415 45.453164 
L 263.593276 49.523209 
L 264.792838 51.176197 
L 265.992401 52.352131 
L 266.592183 52.719299 
L 267.191964 52.922095 
L 267.791745 52.951439 
L 268.391527 52.801601 
L 268.991308 52.4704 
L 269.591089 51.959346 
L 270.790652 50.422612 
L 271.990215 48.278879 
L 273.789559 44.257444 
L 276.788466 37.253005 
L 277.988029 35.121957 
L 278.58781 34.340375 
L 279.187592 33.793054 
L 279.787373 33.511669 
L 280.387154 33.525649 
L 280.986936 33.861706 
L 281.586717 34.543388 
L 282.186498 35.590688 
L 282.78628 37.019686 
L 283.386061 38.84225 
L 284.585624 43.693122 
L 285.785187 50.146453 
L 286.984749 58.129255 
L 288.184312 67.494153 
L 289.983656 83.644686 
L 292.982563 113.666455 
L 295.381689 137.350555 
L 297.181033 153.125932 
L 298.380596 162.163003 
L 299.580158 169.774418 
L 300.779721 175.831 
L 301.979284 180.278798 
L 302.579065 181.903369 
L 303.178847 183.139764 
L 303.778628 184.001993 
L 304.37841 184.508133 
L 304.978191 184.68 
L 305.577972 184.542778 
L 306.177754 184.124595 
L 306.777535 183.456063 
L 307.977098 181.499883 
L 309.176661 178.949803 
L 313.37513 169.295286 
L 314.574693 167.29186 
L 315.774256 165.922887 
L 316.374037 165.501336 
L 316.973819 165.260861 
L 317.5736 165.201112 
L 318.173381 165.318113 
L 318.773163 165.60443 
L 319.372944 166.049399 
L 320.572507 167.358184 
L 321.77207 169.106146 
L 324.171195 173.231233 
L 325.970539 176.150263 
L 327.170102 177.692695 
L 328.369665 178.755651 
L 328.969446 179.077713 
L 329.569228 179.25017 
L 330.169009 179.269416 
L 330.76879 179.135048 
L 331.368572 178.849876 
L 332.568134 177.854039 
L 333.767697 176.365187 
L 334.96726 174.50879 
L 339.16573 167.555876 
L 340.365292 166.183895 
L 340.965074 165.701283 
L 341.564855 165.374183 
L 342.164637 165.214025 
L 342.764418 165.229075 
L 343.364199 165.424192 
L 343.963981 165.800644 
L 344.563762 166.355983 
L 345.763325 167.974602 
L 346.962888 170.185124 
L 348.762232 174.263685 
L 351.161357 179.957708 
L 352.36092 182.318175 
L 352.960701 183.253598 
L 353.560483 183.979689 
L 354.160264 184.463416 
L 354.760046 184.67362 
L 355.359827 184.581508 
L 355.959608 184.161121 
L 356.55939 183.389761 
L 357.159171 182.248384 
L 357.758952 180.721937 
L 358.358734 178.799644 
L 359.558297 173.747082 
L 360.757859 167.097016 
L 361.957422 158.931916 
L 363.156985 149.408116 
L 364.956329 133.080029 
L 367.355455 109.08 
L 367.355455 109.08 
" clip-path="url(#peeb1273aee)" style="fill: none; stroke: #1f77b4; stroke-width: 1.5; stroke-linecap: square"/>
   </g>
   <g id="patch_3">
    <path d="M 68.064545 192.24 
L 68.064545 25.92 
" style="fill: none; stroke: #000000; stroke-width: 0.8; stroke-linejoin: miter; stroke-linecap: square"/>
   </g>
   <g id="patch_4">
    <path d="M 382.32 192.24 
L 382.32 25.92 
" style="fill: none"/>
   </g>
   <g id="patch_5">
    <path d="M 53.1 109.08 
L 382.32 109.08 
" style="fill: none; stroke: #000000; stroke-width: 0.8; stroke-linejoin: miter; stroke-linecap: square"/>
   </g>
   <g id="patch_6">
    <path d="M 53.1 25.92 
L 382.32 25.92 
" style="fill: none"/>
   </g>
  </g>
 </g>
 <defs>
  <clipPath id="peeb1273aee">
   <rect x="53.1" y="25.92" width="329.22" height="166.32"/>
  </clipPath>
 </defs>
</svg>
