<?xml version='1.0' encoding='ASCII' standalone='yes'?>
<svg xmlns="http://www.w3.org/2000/svg" xmlns:xlink="http://www.w3.org/1999/xlink" version="1.1" width="566.92932px" viewBox="0 0 566.92932 359.05466" height="359.05466px">
  <g>
    <g>
      <g transform="translate(0, 0) scale(1 1) ">
        <metadata xmlns:rdf="http://www.w3.org/1999/02/22-rdf-syntax-ns#" xmlns:cc="http://creativecommons.org/ns#" xmlns:dc="http://purl.org/dc/elements/1.1/" id="metadata8">
          <rdf:RDF>
            <cc:Work rdf:about="">
              <dc:format>image/svg+xml</dc:format>
              <dc:type rdf:resource="http://purl.org/dc/dcmitype/StillImage"/>
            </cc:Work>
          </rdf:RDF>
        </metadata>
        <defs id="defs6">
          <clipPath clipPathUnits="userSpaceOnUse" id="clipPath84">
            <path d="M -0.00426,-0.00269 V 269.29404 H 425.20111 V -0.00269 H -0.00426" clip-rule="evenodd" id="path82"/>
          </clipPath>
          <clipPath clipPathUnits="userSpaceOnUse" id="clipPath96">
            <path d="M -0.00426,-0.00269 V 269.29404 H 425.20111 V -0.00269 H -0.00426" clip-rule="evenodd" id="path94"/>
          </clipPath>
          <clipPath clipPathUnits="userSpaceOnUse" id="clipPath108">
            <path d="M -0.00426,-0.00269 V 269.29404 H 425.20111 V -0.00269 H -0.00426" clip-rule="evenodd" id="path106"/>
          </clipPath>
          <clipPath clipPathUnits="userSpaceOnUse" id="clipPath120">
            <path d="M -0.00426,-0.00269 V 269.29404 H 425.20111 V -0.00269 H -0.00426" clip-rule="evenodd" id="path118"/>
          </clipPath>
          <clipPath clipPathUnits="userSpaceOnUse" id="clipPath132">
            <path d="M -0.00426,-0.00269 V 269.29404 H 425.20111 V -0.00269 H -0.00426" clip-rule="evenodd" id="path130"/>
          </clipPath>
          <clipPath clipPathUnits="userSpaceOnUse" id="clipPath150">
            <path d="M -0.00426,-0.00269 V 269.29404 H 425.20111 V -0.00269 H -0.00426" clip-rule="evenodd" id="path148"/>
          </clipPath>
          <clipPath clipPathUnits="userSpaceOnUse" id="clipPath162">
            <path d="M -0.00426,-0.00269 V 269.29404 H 425.20111 V -0.00269 H -0.00426" clip-rule="evenodd" id="path160"/>
          </clipPath>
          <clipPath clipPathUnits="userSpaceOnUse" id="clipPath174">
            <path d="M -0.00426,-0.00269 V 269.29404 H 425.20111 V -0.00269 H -0.00426" clip-rule="evenodd" id="path172"/>
          </clipPath>
          <clipPath clipPathUnits="userSpaceOnUse" id="clipPath192">
            <path d="M -0.00426,-0.00269 V 269.29404 H 425.20111 V -0.00269 H -0.00426" clip-rule="evenodd" id="path190"/>
          </clipPath>
          <clipPath clipPathUnits="userSpaceOnUse" id="clipPath210">
            <path d="M -0.00426,-0.00269 V 269.29404 H 425.20111 V -0.00269 H -0.00426" clip-rule="evenodd" id="path208"/>
          </clipPath>
          <clipPath clipPathUnits="userSpaceOnUse" id="clipPath224">
            <path d="M -0.00426,-0.00269 V 269.29404 H 425.20111 V -0.00269 H -0.00426" clip-rule="evenodd" id="path222"/>
          </clipPath>
          <clipPath clipPathUnits="userSpaceOnUse" id="clipPath236">
            <path d="M -0.00426,-0.00269 V 269.29404 H 425.20111 V -0.00269 H -0.00426" clip-rule="evenodd" id="path234"/>
          </clipPath>
          <clipPath clipPathUnits="userSpaceOnUse" id="clipPath248">
            <path d="M -0.00426,-0.00269 V 269.29404 H 425.20111 V -0.00269 H -0.00426" clip-rule="evenodd" id="path246"/>
          </clipPath>
          <clipPath clipPathUnits="userSpaceOnUse" id="clipPath260">
            <path d="M -0.00426,-0.00269 V 269.29404 H 425.20111 V -0.00269 H -0.00426" clip-rule="evenodd" id="path258"/>
          </clipPath>
          <clipPath clipPathUnits="userSpaceOnUse" id="clipPath272">
            <path d="M -0.00426,-0.00269 V 269.29404 H 425.20111 V -0.00269 H -0.00426" clip-rule="evenodd" id="path270"/>
          </clipPath>
          <clipPath clipPathUnits="userSpaceOnUse" id="clipPath284">
            <path d="M -0.00426,-0.00269 V 269.29404 H 425.20111 V -0.00269 H -0.00426" clip-rule="evenodd" id="path282"/>
          </clipPath>
          <clipPath clipPathUnits="userSpaceOnUse" id="clipPath296">
            <path d="M -0.00426,-0.00269 V 269.29404 H 425.20111 V -0.00269 H -0.00426" clip-rule="evenodd" id="path294"/>
          </clipPath>
          <clipPath clipPathUnits="userSpaceOnUse" id="clipPath308">
            <path d="M -0.00426,-0.00269 V 269.29404 H 425.20111 V -0.00269 H -0.00426" clip-rule="evenodd" id="path306"/>
          </clipPath>
          <clipPath clipPathUnits="userSpaceOnUse" id="clipPath320">
            <path d="M -0.00426,-0.00269 V 269.29404 H 425.20111 V -0.00269 H -0.00426" clip-rule="evenodd" id="path318"/>
          </clipPath>
          <clipPath clipPathUnits="userSpaceOnUse" id="clipPath332">
            <path d="M -0.00426,-0.00269 V 269.29404 H 425.20111 V -0.00269 H -0.00426" clip-rule="evenodd" id="path330"/>
          </clipPath>
          <clipPath clipPathUnits="userSpaceOnUse" id="clipPath344">
            <path d="M -0.00426,-0.00269 V 269.29404 H 425.20111 V -0.00269 H -0.00426" clip-rule="evenodd" id="path342"/>
          </clipPath>
          <clipPath clipPathUnits="userSpaceOnUse" id="clipPath356">
            <path d="M -0.00426,-0.00269 V 269.29404 H 425.20111 V -0.00269 H -0.00426" clip-rule="evenodd" id="path354"/>
          </clipPath>
          <clipPath clipPathUnits="userSpaceOnUse" id="clipPath368">
            <path d="M -0.00426,-0.00269 V 269.29404 H 425.20111 V -0.00269 H -0.00426" clip-rule="evenodd" id="path366"/>
          </clipPath>
        </defs>
        <g id="g10" transform="matrix(1.3333333,0,0,-1.3333333,0,359.05467)">
          <path d="m 44.22047,239.95633 h 7.08661 m 7.65355,0 h 7.08661 m 7.65355,0 h 7.08661 m 7.65355,0 h 7.08661 m 7.65355,0 h 7.08661 m 7.65354,0 h 7.08661 m 7.65357,0 h 7.08661 m 7.65353,0 h 7.08661 m 7.65356,0 h 7.08661 m 7.65354,0 h 7.08661 m 7.65353,0 h 7.08664 m 7.65353,0 h 7.08661 m 7.65354,0 h 7.08664 m 7.65353,0 h 7.08661 m 7.65353,0 h 7.08661 m 7.65357,0 h 7.0866 m 7.65354,0 h 7.08661 m 7.65356,0 h 7.08661 m 7.65353,0 h 7.08661 m 7.65357,0 h 7.08661 m 7.65353,0 h 7.08661 m 7.65356,0 h 7.08661 m 7.65354,0 h 7.08661 m -320.59842,0 h 0.28346 m 14.45669,0 h 0.28347 m 14.45669,0 h 0.28347 m 14.45669,0 h 0.28346 m 14.4567,0 h 0.28346 m 14.45671,0 h 0.28345 m 14.45669,0 h 0.28348 m 14.4567,0 h 0.28345 m 14.45669,0 h 0.28348 m 14.45669,0 h 0.28345 m 14.4567,0 h 0.28348 m 14.45669,0 h 0.28345 m 14.45669,0 h 0.28348 m 14.45667,0 h 0.28347 m 14.4567,0 h 0.28345 m 14.45669,0 h 0.28348 m 14.4567,0 h 0.28344 m 14.4567,0 h 0.28348 m 14.45669,0 h 0.28345 m 14.45669,0 h 0.28348 m 14.4567,0 h 0.28345 m 14.45669,0 h 0.28348 m 14.45669,0 h 0.28345 m -337.03937,0 v 0 m 340.15747,0 v 0 M 44.22047,169.09018 h 7.08661 m 7.65355,0 h 7.08661" style="fill:none;stroke:#000000;stroke-width:0.3685;stroke-linecap:round;stroke-linejoin:round;stroke-miterlimit:10;stroke-dasharray:none;stroke-opacity:1" id="path12"/>
          <path d="m 73.70079,169.09018 h 7.08661 m 7.65355,0 h 7.08661 m 7.65355,0 h 7.08661 m 7.65354,0 h 7.08661 m 7.65357,0 h 7.08661 m 7.65353,0 h 7.08661 m 7.65356,0 h 7.08661 m 7.65354,0 h 7.08661 m 7.65353,0 h 7.08664 m 7.65353,0 h 7.08661 m 7.65354,0 h 7.08664 m 7.65353,0 h 7.08661 m 7.65353,0 h 7.08661 m 7.65357,0 h 7.0866 m 7.65354,0 h 7.08661 m 7.65356,0 h 7.08661 m 7.65353,0 h 7.08661 m 7.65357,0 h 7.08661 m 7.65353,0 h 7.08661 m 7.65356,0 h 7.08661 m 7.65354,0 h 7.08661 m -320.59842,0 h 0.28346 m 14.45669,0 h 0.28347 m 14.45669,0 h 0.28347 m 14.45669,0 h 0.28346 m 14.4567,0 h 0.28346 m 14.45671,0 h 0.28345 m 14.45669,0 h 0.28348 m 14.4567,0 h 0.28345 m 14.45669,0 h 0.28348 m 14.45669,0 h 0.28345 m 14.4567,0 h 0.28348 m 14.45669,0 h 0.28345 m 14.45669,0 h 0.28348 m 14.45667,0 h 0.28347 m 14.4567,0 h 0.28345 m 14.45669,0 h 0.28348 m 14.4567,0 h 0.28344 m 14.4567,0 h 0.28348 m 14.45669,0 h 0.28345 m 14.45669,0 h 0.28348 m 14.4567,0 h 0.28345 m 14.45669,0 h 0.28348 m 14.45669,0 h 0.28345 m -337.03937,0 v 0 m 340.15747,0 v 0 M 44.22047,98.22403 h 7.08661 m 7.65355,0 h 7.08661 m 7.65355,0 h 7.08661 m 7.65355,0 h 7.08661" style="fill:none;stroke:#000000;stroke-width:0.3685;stroke-linecap:round;stroke-linejoin:round;stroke-miterlimit:10;stroke-dasharray:none;stroke-opacity:1" id="path14"/>
          <path d="m 103.18111,98.22403 h 7.08661 m 7.65354,0 h 7.08661 m 7.65357,0 h 7.08661 m 7.65353,0 h 7.08661 m 7.65356,0 h 7.08661 m 7.65354,0 h 7.08661 m 7.65353,0 h 7.08664 m 7.65353,0 h 7.08661 m 7.65354,0 h 7.08664 m 7.65353,0 h 7.08661 m 7.65353,0 h 7.08661 m 7.65357,0 h 7.0866 m 7.65354,0 h 7.08661 m 7.65356,0 h 7.08661 m 7.65353,0 h 7.08661 m 7.65357,0 h 7.08661 m 7.65353,0 h 7.08661 m 7.65356,0 h 7.08661 m 7.65354,0 h 7.08661 m -320.59842,0 h 0.28346 m 14.45669,0 h 0.28347 m 14.45669,0 h 0.28347 m 14.45669,0 h 0.28346 m 14.4567,0 h 0.28346 m 14.45671,0 h 0.28345 m 14.45669,0 h 0.28348 m 14.4567,0 h 0.28345 m 14.45669,0 h 0.28348 m 14.45669,0 h 0.28345 m 14.4567,0 h 0.28348 m 14.45669,0 h 0.28345 m 14.45669,0 h 0.28348 m 14.45667,0 h 0.28347 m 14.4567,0 h 0.28345 m 14.45669,0 h 0.28348 m 14.4567,0 h 0.28344 m 14.4567,0 h 0.28348 m 14.45669,0 h 0.28345 m 14.45669,0 h 0.28348 m 14.4567,0 h 0.28345 m 14.45669,0 h 0.28348 m 14.45669,0 h 0.28345 m -337.03937,0 v 0 m 340.15747,0 v 0 M 44.22047,27.35789 h 7.08661 m 7.65355,0 h 7.08661 m 7.65355,0 h 7.08661 m 7.65355,0 h 7.08661 m 7.65355,0 h 7.08661 m 7.65354,0 h 7.08661" style="fill:none;stroke:#000000;stroke-width:0.3685;stroke-linecap:round;stroke-linejoin:round;stroke-miterlimit:10;stroke-dasharray:none;stroke-opacity:1" id="path16"/>
          <path d="m 132.66144,27.35789 h 7.08661 m 7.65353,0 h 7.08661 m 7.65356,0 h 7.08661 m 7.65354,0 h 7.08661 m 7.65353,0 h 7.08664 m 7.65353,0 h 7.08661 m 7.65354,0 h 7.08664 m 7.65353,0 h 7.08661 m 7.65353,0 h 7.08661 m 7.65357,0 h 7.0866 m 7.65354,0 h 7.08661 m 7.65356,0 h 7.08661 m 7.65353,0 h 7.08661 m 7.65357,0 h 7.08661 m 7.65353,0 h 7.08661 m 7.65356,0 h 7.08661 m 7.65354,0 h 7.08661 m -320.59842,0 h 0.28346 m 14.45669,0 h 0.28347 m 14.45669,0 h 0.28347 m 14.45669,0 h 0.28346 m 14.4567,0 h 0.28346 m 14.45671,0 h 0.28345 m 14.45669,0 h 0.28348 m 14.4567,0 h 0.28345 m 14.45669,0 h 0.28348 m 14.45669,0 h 0.28345 m 14.4567,0 h 0.28348 m 14.45669,0 h 0.28345 m 14.45669,0 h 0.28348 m 14.45667,0 h 0.28347 m 14.4567,0 h 0.28345 m 14.45669,0 h 0.28348 m 14.4567,0 h 0.28344 m 14.4567,0 h 0.28348 m 14.45669,0 h 0.28345 m 14.45669,0 h 0.28348 m 14.4567,0 h 0.28345 m 14.45669,0 h 0.28348 m 14.45669,0 h 0.28345 m -337.03937,0 v 0 m 340.15747,0 v 0 M 70.86615,0 v 7.08661 m 0,7.65355 v 7.08661 m 0,7.65355 v 7.08661 m 0,7.65354 v 7.08661 m 0,7.65355 v 7.08661 m 0,7.65355 v 7.08661 m 0,7.65355 v 7.08661 m 0,7.65355 v 7.08661" style="fill:none;stroke:#000000;stroke-width:0.3685;stroke-linecap:round;stroke-linejoin:round;stroke-miterlimit:10;stroke-dasharray:none;stroke-opacity:1" id="path18"/>
          <path d="m 70.86615,117.92126 v 7.08661 m 0,7.65357 v 7.08661 m 0,7.65353 v 7.08661 m 0,7.65356 v 7.08661 m 0,7.65354 v 7.08661 m 0,7.65353 v 7.08664 m 0,7.65353 v 7.08661 m 0,7.65354 v 7.08664 m 0,7.65353 v 7.08661 m 0,7.65353 v 7.08661 m 0,7.65357 v 0.85394 m 0,-255.40514 v 0.28346 m 0,14.4567 v 0.28346 m 0,14.4567 v 0.28346 m 0,14.4567 v 0.28346 m 0,14.45669 v 0.28347 m 0,14.45669 v 0.28347 m 0,14.45669 v 0.28346 m 0,14.4567 v 0.28346 m 0,14.45671 v 0.28345 m 0,14.45669 v 0.28348 m 0,14.4567 v 0.28345 m 0,14.45669 v 0.28348 m 0,14.45669 v 0.28345 m 0,14.4567 v 0.28348 m 0,14.45669 v 0.28345 m 0,14.45669 v 0.28348 m 0,14.45667 v 0.28347 m 0,14.4567 v 0.28345 m 0,4.539 v 0 M 127.55905,0 v 7.08661 m 0,7.65355 v 7.08661 m 0,7.65355 v 7.08661 m 0,7.65354 v 7.08661 m 0,7.65355 v 7.08661 m 0,7.65355 v 7.08661 m 0,7.65355 v 7.08661 m 0,7.65355 v 7.08661 m 0,7.65354 v 7.08661 m 0,7.65357 v 7.08661 m 0,7.65353 v 7.08661 m 0,7.65356 v 7.08661 m 0,7.65354 v 7.08661 m 0,7.65353 v 7.08664 m 0,7.65353 v 7.08661 m 0,7.65354 v 7.08664 m 0,7.65353 v 7.08661 m 0,7.65353 v 7.08661 m 0,7.65357 v 0.85394 m 0,-255.40514 v 0.28346" style="fill:none;stroke:#000000;stroke-width:0.3685;stroke-linecap:round;stroke-linejoin:round;stroke-miterlimit:10;stroke-dasharray:none;stroke-opacity:1" id="path20"/>
          <path d="m 127.55905,25.51181 v 0.28346 m 0,14.4567 v 0.28346 m 0,14.4567 v 0.28346 m 0,14.45669 v 0.28347 m 0,14.45669 v 0.28347 m 0,14.45669 v 0.28346 m 0,14.4567 v 0.28346 m 0,14.45671 v 0.28345 m 0,14.45669 v 0.28348 m 0,14.4567 v 0.28345 m 0,14.45669 v 0.28348 m 0,14.45669 v 0.28345 m 0,14.4567 v 0.28348 m 0,14.45669 v 0.28345 m 0,14.45669 v 0.28348 m 0,14.45667 v 0.28347 m 0,14.4567 v 0.28345 m 0,4.539 v 0 M 184.25198,0 v 7.08661 m 0,7.65355 v 7.08661 m 0,7.65355 v 7.08661 m 0,7.65354 v 7.08661 m 0,7.65355 v 7.08661 m 0,7.65355 v 7.08661 m 0,7.65355 v 7.08661 m 0,7.65355 v 7.08661 m 0,7.65354 v 7.08661 m 0,7.65357 v 7.08661 m 0,7.65353 v 7.08661 m 0,7.65356 v 7.08661 m 0,7.65354 v 7.08661 m 0,7.65353 v 7.08664 m 0,7.65353 v 7.08661 m 0,7.65354 v 7.08664 m 0,7.65353 v 7.08661 m 0,7.65353 v 7.08661 m 0,7.65357 v 0.85394 m 0,-255.40514 v 0.28346 m 0,14.4567 v 0.28346 m 0,14.4567 v 0.28346 m 0,14.4567 v 0.28346 m 0,14.45669 v 0.28347 m 0,14.45669 v 0.28347 m 0,14.45669 v 0.28346 m 0,14.4567 v 0.28346 m 0,14.45671 v 0.28345 m 0,14.45669 v 0.28348 m 0,14.4567 v 0.28345 m 0,14.45669 v 0.28348 m 0,14.45669 v 0.28345" style="fill:none;stroke:#000000;stroke-width:0.3685;stroke-linecap:round;stroke-linejoin:round;stroke-miterlimit:10;stroke-dasharray:none;stroke-opacity:1" id="path22"/>
          <path d="m 184.25198,202.39371 v 0.28348 m 0,14.45669 v 0.28345 m 0,14.45669 v 0.28348 m 0,14.45667 v 0.28347 m 0,14.4567 v 0.28345 m 0,4.539 v 0 M 240.94489,0 v 7.08661 m 0,7.65355 v 7.08661 m 0,7.65355 v 7.08661 m 0,7.65354 v 7.08661 m 0,7.65355 v 7.08661 m 0,7.65355 v 7.08661 m 0,7.65355 v 7.08661 m 0,7.65355 v 7.08661 m 0,7.65354 v 7.08661 m 0,7.65357 v 7.08661 m 0,7.65353 v 7.08661 m 0,7.65356 v 7.08661 m 0,7.65354 v 7.08661 m 0,7.65353 v 7.08664 m 0,7.65353 v 7.08661 m 0,7.65354 v 7.08664 m 0,7.65353 v 7.08661 m 0,7.65353 v 7.08661 m 0,7.65357 v 0.85394 m 0,-255.40514 v 0.28346 m 0,14.4567 v 0.28346 m 0,14.4567 v 0.28346 m 0,14.4567 v 0.28346 m 0,14.45669 v 0.28347 m 0,14.45669 v 0.28347 m 0,14.45669 v 0.28346 m 0,14.4567 v 0.28346 m 0,14.45671 v 0.28345 m 0,14.45669 v 0.28348 m 0,14.4567 v 0.28345 m 0,14.45669 v 0.28348 m 0,14.45669 v 0.28345 m 0,14.4567 v 0.28348 m 0,14.45669 v 0.28345 m 0,14.45669 v 0.28348 m 0,14.45667 v 0.28347 m 0,14.4567 v 0.28345 m 0,4.539 v 0 M 297.63779,0 v 7.08661 m 0,7.65355 v 7.08661 m 0,7.65355 v 7.08661 m 0,7.65354 v 7.08661 m 0,7.65355 v 7.08661 m 0,7.65355 v 7.08661" style="fill:none;stroke:#000000;stroke-width:0.3685;stroke-linecap:round;stroke-linejoin:round;stroke-miterlimit:10;stroke-dasharray:none;stroke-opacity:1" id="path24"/>
          <path d="m 297.63779,88.44095 v 7.08661 m 0,7.65355 v 7.08661 m 0,7.65354 v 7.08661 m 0,7.65357 v 7.08661 m 0,7.65353 v 7.08661 m 0,7.65356 v 7.08661 m 0,7.65354 v 7.08661 m 0,7.65353 v 7.08664 m 0,7.65353 v 7.08661 m 0,7.65354 v 7.08664 m 0,7.65353 v 7.08661 m 0,7.65353 v 7.08661 m 0,7.65357 v 0.85394 m 0,-255.40514 v 0.28346 m 0,14.4567 v 0.28346 m 0,14.4567 v 0.28346 m 0,14.4567 v 0.28346 m 0,14.45669 v 0.28347 m 0,14.45669 v 0.28347 m 0,14.45669 v 0.28346 m 0,14.4567 v 0.28346 m 0,14.45671 v 0.28345 m 0,14.45669 v 0.28348 m 0,14.4567 v 0.28345 m 0,14.45669 v 0.28348 m 0,14.45669 v 0.28345 m 0,14.4567 v 0.28348 m 0,14.45669 v 0.28345 m 0,14.45669 v 0.28348 m 0,14.45667 v 0.28347 m 0,14.4567 v 0.28345 m 0,4.539 v 0 M 354.33069,0 v 7.08661 m 0,7.65355 v 7.08661 m 0,7.65355 v 7.08661 m 0,7.65354 v 7.08661 m 0,7.65355 v 7.08661 m 0,7.65355 v 7.08661 m 0,7.65355 v 7.08661 m 0,7.65355 v 7.08661 m 0,7.65354 v 7.08661 m 0,7.65357 v 7.08661 m 0,7.65353 v 7.08661 m 0,7.65356 v 7.08661 m 0,7.65354 v 7.08661 m 0,7.65353 v 7.08664 m 0,7.65353 v 7.08661 m 0,7.65354 v 7.08664 m 0,7.65353 v 7.08661 m 0,7.65353 v 7.08661" style="fill:none;stroke:#000000;stroke-width:0.3685;stroke-linecap:round;stroke-linejoin:round;stroke-miterlimit:10;stroke-dasharray:none;stroke-opacity:1" id="path26"/>
          <path d="m 354.33069,265.32285 v 0.85394 m 0,-255.40514 v 0.28346 m 0,14.4567 v 0.28346 m 0,14.4567 v 0.28346 m 0,14.4567 v 0.28346 m 0,14.45669 v 0.28347 m 0,14.45669 v 0.28347 m 0,14.45669 v 0.28346 m 0,14.4567 v 0.28346 m 0,14.45671 v 0.28345 m 0,14.45669 v 0.28348 m 0,14.4567 v 0.28345 m 0,14.45669 v 0.28348 m 0,14.45669 v 0.28345 m 0,14.4567 v 0.28348 m 0,14.45669 v 0.28345 m 0,14.45669 v 0.28348 m 0,14.45667 v 0.28347 m 0,14.4567 v 0.28345 m 0,4.539 v 0" style="fill:none;stroke:#000000;stroke-width:0.3685;stroke-linecap:round;stroke-linejoin:round;stroke-miterlimit:10;stroke-dasharray:none;stroke-opacity:1" id="path28"/>
          <path d="M 68.74016,25.2319 H 356.4567 V 242.08231 H 68.74016 V 25.2319" style="fill:none;stroke:#000000;stroke-width:0.70866;stroke-linecap:round;stroke-linejoin:round;stroke-miterlimit:10;stroke-dasharray:none;stroke-opacity:1" id="path30"/>
          <path d="m 70.86615,27.35789 h 14.17322 m -5.95275,0 h -0.4252 m 6.37795,0 v 0 l -5.95275,0.85039 v -1.70077 l 5.95275,0.85038" style="fill:none;stroke:#000000;stroke-width:0.28346;stroke-linecap:round;stroke-linejoin:round;stroke-miterlimit:10;stroke-dasharray:none;stroke-opacity:1" id="path32"/>
          <path d="m 79.08662,26.50751 5.95275,0.85038 -5.95275,0.85039 z" style="fill:#000000;fill-opacity:1;fill-rule:nonzero;stroke:none" id="path34"/>
          <path d="m 70.86615,27.35789 v 14.17322 m 0,-5.95274 v -0.4252 m 0,6.37794 v 0 l -0.8504,-5.95274 h 1.70079 l -0.85039,5.95274" style="fill:none;stroke:#000000;stroke-width:0.28346;stroke-linecap:round;stroke-linejoin:round;stroke-miterlimit:10;stroke-dasharray:none;stroke-opacity:1" id="path36"/>
          <path d="m 71.71654,35.57837 -0.85039,5.95274 -0.8504,-5.95274 z" style="fill:#000000;fill-opacity:1;fill-rule:nonzero;stroke:none" id="path38"/>
          <path d="M 125.43307,169.09018 V 98.22403 h 4.25199 v 70.86615 z" style="fill:#dedede;fill-opacity:1;fill-rule:nonzero;stroke:none" id="path40"/>
          <path d="m 127.55905,237.83032 h 56.69293 v 4.25199 h -56.69293 z" style="fill:#dedede;fill-opacity:1;fill-rule:nonzero;stroke:none" id="path42"/>
          <path d="m 352.20471,242.08231 v -42.51969 h 4.25199 v 42.51969 z" style="fill:#dedede;fill-opacity:1;fill-rule:nonzero;stroke:none" id="path44"/>
          <path d="m 255.1181,25.2319 h 42.51969 v 4.25197 H 255.1181 Z" style="fill:#dedede;fill-opacity:1;fill-rule:nonzero;stroke:none" id="path46"/>
          <path d="m 72.99213,239.95633 -0.03231,0.36917 -0.0959,0.35794 -0.15661,0.33588 -0.21257,0.30356 -0.26204,0.26202 -0.30356,0.21259 -0.33586,0.15661 -0.35796,0.0959 -0.36917,0.0323 -0.36917,-0.0323 -0.35796,-0.0959 -0.33587,-0.15661 -0.30356,-0.21259 -0.26204,-0.26202 -0.21256,-0.30356 -0.15661,-0.33588 -0.09592,-0.35794 -0.0323,-0.36917 0.0323,-0.3692 0.09592,-0.35794 0.15661,-0.33588 0.21256,-0.30356 0.26204,-0.26202 0.30356,-0.21256 0.33587,-0.15661 0.35796,-0.0959 0.36917,-0.0323 0.36917,0.0323 0.35796,0.0959 0.33586,0.15661 0.30356,0.21256 0.26204,0.26202 0.21257,0.30356 0.15661,0.33588 0.0959,0.35794 z" style="fill:#dedede;fill-opacity:1;fill-rule:nonzero;stroke:none" id="path48"/>
          <path d="m 72.99213,169.09018 -0.03231,0.36917 -0.0959,0.35794 -0.15661,0.33588 -0.21257,0.30356 -0.26204,0.26205 -0.30356,0.21256 -0.33586,0.15661 -0.35796,0.0959 -0.36917,0.0323 -0.36917,-0.0323 -0.35796,-0.0959 -0.33587,-0.15661 -0.30356,-0.21256 -0.26204,-0.26205 -0.21256,-0.30356 -0.15661,-0.33588 -0.09592,-0.35794 -0.0323,-0.36917 0.0323,-0.36917 0.09592,-0.35797 0.15661,-0.33585 0.21256,-0.30356 0.26204,-0.26205 0.30356,-0.21256 0.33587,-0.15661 0.35796,-0.0959 0.36917,-0.0323 0.36917,0.0323 0.35796,0.0959 0.33586,0.15661 0.30356,0.21256 0.26204,0.26205 0.21257,0.30356 0.15661,0.33585 0.0959,0.35797 z" style="fill:#dedede;fill-opacity:1;fill-rule:nonzero;stroke:none" id="path50"/>
          <path d="m 72.99213,98.22403 -0.03231,0.36917 -0.0959,0.35796 -0.15661,0.33586 -0.21257,0.30357 -0.26204,0.26204 -0.30356,0.21256 -0.33586,0.15661 -0.35796,0.0959 -0.36917,0.0323 -0.36917,-0.0323 -0.35796,-0.0959 -0.33587,-0.15661 -0.30356,-0.21256 -0.26204,-0.26204 -0.21256,-0.30357 -0.15661,-0.33586 -0.09592,-0.35796 -0.0323,-0.36917 0.0323,-0.36917 0.09592,-0.35796 0.15661,-0.33586 0.21256,-0.30357 0.26204,-0.26204 0.30356,-0.21256 0.33587,-0.15661 0.35796,-0.09592 0.36917,-0.03229 0.36917,0.03229 0.35796,0.09592 0.33586,0.15661 0.30356,0.21256 0.26204,0.26204 0.21257,0.30357 0.15661,0.33586 0.0959,0.35796 z" style="fill:#dedede;fill-opacity:1;fill-rule:nonzero;stroke:none" id="path52"/>
          <path d="m 72.99213,27.35789 -0.03231,0.36918 -0.0959,0.35795 -0.15661,0.33586 -0.21257,0.30356 -0.26204,0.26204 -0.30356,0.21257 -0.33586,0.15662 -0.35796,0.0959 -0.36917,0.0323 -0.36917,-0.0323 -0.35796,-0.0959 -0.33587,-0.15662 -0.30356,-0.21257 -0.26204,-0.26204 -0.21256,-0.30356 -0.15661,-0.33586 -0.09592,-0.35795 -0.0323,-0.36918 0.0323,-0.36918 0.09592,-0.35796 0.15661,-0.33586 0.21256,-0.30356 0.26204,-0.26204 0.30356,-0.21255 0.33587,-0.15662 0.35796,-0.09591 0.36917,-0.03231 0.36917,0.03231 0.35796,0.09591 0.33586,0.15662 0.30356,0.21255 0.26204,0.26204 0.21257,0.30356 0.15661,0.33586 0.0959,0.35796 z" style="fill:#dedede;fill-opacity:1;fill-rule:nonzero;stroke:none" id="path54"/>
          <path d="m 129.68506,27.35789 -0.0323,0.36918 -0.0959,0.35795 -0.15661,0.33586 -0.21256,0.30356 -0.26202,0.26204 -0.30359,0.21257 -0.33585,0.15662 -0.35795,0.0959 -0.36919,0.0323 -0.36917,-0.0323 -0.35796,-0.0959 -0.33586,-0.15662 -0.30356,-0.21257 -0.26203,-0.26204 -0.21257,-0.30356 -0.15662,-0.33586 -0.0959,-0.35795 -0.0323,-0.36918 0.0323,-0.36918 0.0959,-0.35796 0.15662,-0.33586 0.21257,-0.30356 0.26203,-0.26204 0.30356,-0.21255 0.33586,-0.15662 0.35796,-0.09591 0.36917,-0.03231 0.36919,0.03231 0.35795,0.09591 0.33585,0.15662 0.30359,0.21255 0.26202,0.26204 0.21256,0.30356 0.15661,0.33586 0.0959,0.35796 z" style="fill:#dedede;fill-opacity:1;fill-rule:nonzero;stroke:none" id="path56"/>
          <path d="m 186.37796,27.35789 -0.0323,0.36918 -0.0959,0.35795 -0.15662,0.33586 -0.21256,0.30356 -0.26205,0.26204 -0.30356,0.21257 -0.33587,0.15662 -0.35795,0.0959 -0.36917,0.0323 -0.36917,-0.0323 -0.35797,-0.0959 -0.33584,-0.15662 -0.30359,-0.21257 -0.26203,-0.26204 -0.21255,-0.30356 -0.15662,-0.33586 -0.0959,-0.35795 -0.0323,-0.36918 0.0323,-0.36918 0.0959,-0.35796 0.15662,-0.33586 0.21255,-0.30356 0.26203,-0.26204 0.30359,-0.21255 0.33584,-0.15662 0.35797,-0.09591 0.36917,-0.03231 0.36917,0.03231 0.35795,0.09591 0.33587,0.15662 0.30356,0.21255 0.26205,0.26204 0.21256,0.30356 0.15662,0.33586 0.0959,0.35796 z" style="fill:#dedede;fill-opacity:1;fill-rule:nonzero;stroke:none" id="path58"/>
          <path d="m 299.76376,98.22403 -0.0323,0.36917 -0.0959,0.35796 -0.15662,0.33586 -0.21255,0.30357 -0.26206,0.26204 -0.30355,0.21256 -0.33585,0.15661 -0.35797,0.0959 -0.36917,0.0323 -0.36917,-0.0323 -0.35794,-0.0959 -0.33588,-0.15661 -0.30356,-0.21256 -0.26205,-0.26204 -0.21256,-0.30357 -0.15662,-0.33586 -0.0959,-0.35796 -0.0323,-0.36917 0.0323,-0.36917 0.0959,-0.35796 0.15662,-0.33586 0.21256,-0.30357 0.26205,-0.26204 0.30356,-0.21256 0.33588,-0.15661 0.35794,-0.09592 0.36917,-0.03229 0.36917,0.03229 0.35797,0.09592 0.33585,0.15661 0.30355,0.21256 0.26206,0.26204 0.21255,0.30357 0.15662,0.33586 0.0959,0.35796 z" style="fill:#dedede;fill-opacity:1;fill-rule:nonzero;stroke:none" id="path60"/>
          <path d="m 356.4567,27.35789 -0.0323,0.36918 -0.0959,0.35795 -0.15662,0.33586 -0.21255,0.30356 -0.26202,0.26204 -0.30356,0.21257 -0.33588,0.15662 -0.35794,0.0959 -0.3692,0.0323 -0.36917,-0.0323 -0.35794,-0.0959 -0.33588,-0.15662 -0.30356,-0.21257 -0.26202,-0.26204 -0.21259,-0.30356 -0.15661,-0.33586 -0.0959,-0.35795 -0.0323,-0.36918 0.0323,-0.36918 0.0959,-0.35796 0.15661,-0.33586 0.21259,-0.30356 0.26202,-0.26204 0.30356,-0.21255 0.33588,-0.15662 0.35794,-0.09591 0.36917,-0.03231 0.3692,0.03231 0.35794,0.09591 0.33588,0.15662 0.30356,0.21255 0.26202,0.26204 0.21255,0.30356 0.15662,0.33586 0.0959,0.35796 z" style="fill:#dedede;fill-opacity:1;fill-rule:nonzero;stroke:none" id="path62"/>
          <path d="m 356.4567,98.22403 -0.0323,0.36917 -0.0959,0.35796 -0.15662,0.33586 -0.21255,0.30357 -0.26202,0.26204 -0.30356,0.21256 -0.33588,0.15661 -0.35794,0.0959 -0.3692,0.0323 -0.36917,-0.0323 -0.35794,-0.0959 -0.33588,-0.15661 -0.30356,-0.21256 -0.26202,-0.26204 -0.21259,-0.30357 -0.15661,-0.33586 -0.0959,-0.35796 -0.0323,-0.36917 0.0323,-0.36917 0.0959,-0.35796 0.15661,-0.33586 0.21259,-0.30357 0.26202,-0.26204 0.30356,-0.21256 0.33588,-0.15661 0.35794,-0.09592 0.36917,-0.03229 0.3692,0.03229 0.35794,0.09592 0.33588,0.15661 0.30356,0.21256 0.26202,0.26204 0.21255,0.30357 0.15662,0.33586 0.0959,0.35796 z" style="fill:#dedede;fill-opacity:1;fill-rule:nonzero;stroke:none" id="path64"/>
          <path d="m 299.76376,169.09018 -0.0323,0.36917 -0.0959,0.35794 -0.15662,0.33588 -0.21255,0.30356 -0.26206,0.26205 -0.30355,0.21256 -0.33585,0.15661 -0.35797,0.0959 -0.36917,0.0323 -0.36917,-0.0323 -0.35794,-0.0959 -0.33588,-0.15661 -0.30356,-0.21256 -0.26205,-0.26205 -0.21256,-0.30356 -0.15662,-0.33588 -0.0959,-0.35794 -0.0323,-0.36917 0.0323,-0.36917 0.0959,-0.35797 0.15662,-0.33585 0.21256,-0.30356 0.26205,-0.26205 0.30356,-0.21256 0.33588,-0.15661 0.35794,-0.0959 0.36917,-0.0323 0.36917,0.0323 0.35797,0.0959 0.33585,0.15661 0.30355,0.21256 0.26206,0.26205 0.21255,0.30356 0.15662,0.33585 0.0959,0.35797 z" style="fill:#dedede;fill-opacity:1;fill-rule:nonzero;stroke:none" id="path66"/>
          <path d="m 356.4567,169.09018 -0.0323,0.36917 -0.0959,0.35794 -0.15662,0.33588 -0.21255,0.30356 -0.26202,0.26205 -0.30356,0.21256 -0.33588,0.15661 -0.35794,0.0959 -0.3692,0.0323 -0.36917,-0.0323 -0.35794,-0.0959 -0.33588,-0.15661 -0.30356,-0.21256 -0.26202,-0.26205 -0.21259,-0.30356 -0.15661,-0.33588 -0.0959,-0.35794 -0.0323,-0.36917 0.0323,-0.36917 0.0959,-0.35797 0.15661,-0.33585 0.21259,-0.30356 0.26202,-0.26205 0.30356,-0.21256 0.33588,-0.15661 0.35794,-0.0959 0.36917,-0.0323 0.3692,0.0323 0.35794,0.0959 0.33588,0.15661 0.30356,0.21256 0.26202,0.26205 0.21255,0.30356 0.15662,0.33585 0.0959,0.35797 z" style="fill:#dedede;fill-opacity:1;fill-rule:nonzero;stroke:none" id="path68"/>
          <path d="m 299.76376,239.95633 -0.0323,0.36917 -0.0959,0.35794 -0.15662,0.33588 -0.21255,0.30356 -0.26206,0.26202 -0.30355,0.21259 -0.33585,0.15661 -0.35797,0.0959 -0.36917,0.0323 -0.36917,-0.0323 -0.35794,-0.0959 -0.33588,-0.15661 -0.30356,-0.21259 -0.26205,-0.26202 -0.21256,-0.30356 -0.15662,-0.33588 -0.0959,-0.35794 -0.0323,-0.36917 0.0323,-0.3692 0.0959,-0.35794 0.15662,-0.33588 0.21256,-0.30356 0.26205,-0.26202 0.30356,-0.21256 0.33588,-0.15661 0.35794,-0.0959 0.36917,-0.0323 0.36917,0.0323 0.35797,0.0959 0.33585,0.15661 0.30355,0.21256 0.26206,0.26202 0.21255,0.30356 0.15662,0.33588 0.0959,0.35794 z" style="fill:#dedede;fill-opacity:1;fill-rule:nonzero;stroke:none" id="path70"/>
          <path d="m 243.07086,239.95633 -0.0323,0.36917 -0.0959,0.35794 -0.15662,0.33588 -0.21255,0.30356 -0.26206,0.26202 -0.30356,0.21259 -0.33584,0.15661 -0.35797,0.0959 -0.36917,0.0323 -0.36918,-0.0323 -0.35797,-0.0959 -0.33584,-0.15661 -0.30356,-0.21259 -0.26206,-0.26202 -0.21255,-0.30356 -0.15662,-0.33588 -0.0959,-0.35794 -0.0323,-0.36917 0.0323,-0.3692 0.0959,-0.35794 0.15662,-0.33588 0.21255,-0.30356 0.26206,-0.26202 0.30356,-0.21256 0.33584,-0.15661 0.35797,-0.0959 0.36918,-0.0323 0.36917,0.0323 0.35797,0.0959 0.33584,0.15661 0.30356,0.21256 0.26206,0.26202 0.21255,0.30356 0.15662,0.33588 0.0959,0.35794 z" style="fill:#dedede;fill-opacity:1;fill-rule:nonzero;stroke:none" id="path72"/>
          <path d="m 70.86615,256.25552 2.97638,0.42521 v -0.85041 l -2.97638,0.4252 m 56.6929,0 -2.97638,0.42521 v -0.85041 l 2.97638,0.4252 2.97638,0.42521 v -0.85041 l -2.97638,0.4252 m 56.69293,0 -2.97638,0.42521 v -0.85041 l 2.97638,0.4252 2.97638,0.42521 v -0.85041 l -2.97638,0.4252 m 56.69291,0 -2.97638,0.42521 v -0.85041 l 2.97638,0.4252 2.97637,0.42521 v -0.85041 l -2.97637,0.4252 m 56.6929,0 -2.97638,0.42521 v -0.85041 l 2.97638,0.4252 2.97638,0.42521 v -0.85041 l -2.97638,0.4252 m 56.6929,0 -2.97638,0.42521 v -0.85041 l 2.97638,0.4252" style="fill:none;stroke:#000000;stroke-width:0.56693;stroke-linecap:round;stroke-linejoin:round;stroke-miterlimit:10;stroke-dasharray:none;stroke-opacity:1" id="path74"/>
          <path d="m 70.86615,256.25552 v 2.12598 m 0,-2.12598 v -2.12597 m 56.6929,2.12597 v 2.12598 m 0,-2.12598 v -2.12597 m 0,2.12597 v 2.12598 m 0,-2.12598 v -2.12597 m 56.69293,2.12597 v 2.12598 m 0,-2.12598 v -2.12597 m 0,2.12597 v 2.12598 m 0,-2.12598 v -2.12597 m 56.69291,2.12597 v 2.12598 m 0,-2.12598 v -2.12597 m 0,2.12597 v 2.12598 m 0,-2.12598 v -2.12597 m 56.6929,2.12597 v 2.12598 m 0,-2.12598 v -2.12597 m 0,2.12597 v 2.12598 m 0,-2.12598 v -2.12597 m 56.6929,2.12597 v 2.12598 m 0,-2.12598 v -2.12597 m -283.46454,2.12597 v -11.33859 m 56.6929,11.33859 v -11.33859 m 56.69293,11.33859 v -11.33859 m 56.69291,11.33859 v -11.33859 m 56.6929,11.33859 v -11.33859 m 56.6929,11.33859 V 244.91693 M 70.86615,256.25552 v 0 m 283.46454,0 v 0" style="fill:none;stroke:#000000;stroke-width:0.28346;stroke-linecap:round;stroke-linejoin:round;stroke-miterlimit:10;stroke-dasharray:none;stroke-opacity:1" id="path76"/>
          <g id="g78">
            <g id="g80" clip-path="url(#clipPath84)">
              <text transform="matrix(1,0,0,-1,90.39203,259.29121)" style="font-variant:normal;font-weight:normal;font-stretch:normal;font-size:10.0916px;font-family:'Palatino Linotype';-inkscape-font-specification:PalatinoLinotype-Roman;writing-mode:lr-tb;fill:#000000;fill-opacity:1;fill-rule:nonzero;stroke:none" id="text88">
                <tspan x="0 5.045805 7.5687075 12.614512" y="0" id="tspan86">4.00</tspan>
              </text>
            </g>
          </g>
          <g id="g90">
            <g id="g92" clip-path="url(#clipPath96)">
              <text transform="matrix(1,0,0,-1,147.08494,259.29121)" style="font-variant:normal;font-weight:normal;font-stretch:normal;font-size:10.0916px;font-family:'Palatino Linotype';-inkscape-font-specification:PalatinoLinotype-Roman;writing-mode:lr-tb;fill:#000000;fill-opacity:1;fill-rule:nonzero;stroke:none" id="text100">
                <tspan x="0 5.045805 7.5687075 12.614512" y="0" id="tspan98">4.00</tspan>
              </text>
            </g>
          </g>
          <g id="g102">
            <g id="g104" clip-path="url(#clipPath108)">
              <text transform="matrix(1,0,0,-1,203.77785,259.29121)" style="font-variant:normal;font-weight:normal;font-stretch:normal;font-size:10.0916px;font-family:'Palatino Linotype';-inkscape-font-specification:PalatinoLinotype-Roman;writing-mode:lr-tb;fill:#000000;fill-opacity:1;fill-rule:nonzero;stroke:none" id="text112">
                <tspan x="0 5.045805 7.5687075 12.614512" y="0" id="tspan110">4.00</tspan>
              </text>
            </g>
          </g>
          <g id="g114">
            <g id="g116" clip-path="url(#clipPath120)">
              <text transform="matrix(1,0,0,-1,260.47077,259.29121)" style="font-variant:normal;font-weight:normal;font-stretch:normal;font-size:10.0916px;font-family:'Palatino Linotype';-inkscape-font-specification:PalatinoLinotype-Roman;writing-mode:lr-tb;fill:#000000;fill-opacity:1;fill-rule:nonzero;stroke:none" id="text124">
                <tspan x="0 5.045805 7.5687075 12.614512" y="0" id="tspan122">4.00</tspan>
              </text>
            </g>
          </g>
          <g id="g126">
            <g id="g128" clip-path="url(#clipPath132)">
              <text transform="matrix(1,0,0,-1,317.16368,259.29121)" style="font-variant:normal;font-weight:normal;font-stretch:normal;font-size:10.0916px;font-family:'Palatino Linotype';-inkscape-font-specification:PalatinoLinotype-Roman;writing-mode:lr-tb;fill:#000000;fill-opacity:1;fill-rule:nonzero;stroke:none" id="text136">
                <tspan x="0 5.045805 7.5687075 12.614512" y="0" id="tspan134">4.00</tspan>
              </text>
            </g>
          </g>
          <path d="m 70.86615,256.25552 h 15.14998 41.54292 56.69293 56.69291 56.6929 56.6929" style="fill:none;stroke:#000000;stroke-width:0.28346;stroke-linecap:round;stroke-linejoin:round;stroke-miterlimit:10;stroke-dasharray:none;stroke-opacity:1" id="path138"/>
          <path d="m 54.56693,27.35789 -0.42519,2.97637 h 0.85039 l -0.4252,-2.97637 m 0,70.86614 -0.42519,-2.97638 h 0.85039 l -0.4252,2.97638 -0.42519,2.97638 h 0.85039 l -0.4252,-2.97638 m 0,70.86615 -0.42519,-2.97638 h 0.85039 l -0.4252,2.97638 -0.42519,2.97638 h 0.85039 l -0.4252,-2.97638 m 0,70.86615 -0.42519,-2.97638 h 0.85039 l -0.4252,2.97638" style="fill:none;stroke:#000000;stroke-width:0.56693;stroke-linecap:round;stroke-linejoin:round;stroke-miterlimit:10;stroke-dasharray:none;stroke-opacity:1" id="path140"/>
          <path d="m 54.56693,27.35789 h -2.12598 m 2.12598,0 h 2.12599 m -2.12599,70.86614 h -2.12598 m 2.12598,0 h 2.12599 m -2.12599,0 h -2.12598 m 2.12598,0 h 2.12599 m -2.12599,70.86615 h -2.12598 m 2.12598,0 h 2.12599 m -2.12599,0 h -2.12598 m 2.12598,0 h 2.12599 m -2.12599,70.86615 h -2.12598 m 2.12598,0 h 2.12599 M 54.56693,27.35789 H 65.90552 M 54.56693,98.22403 H 65.90552 M 54.56693,169.09018 H 65.90552 M 54.56693,239.95633 H 65.90552 M 54.56693,27.35789 v 0 m 0,212.59844 v 0" style="fill:none;stroke:#000000;stroke-width:0.28346;stroke-linecap:round;stroke-linejoin:round;stroke-miterlimit:10;stroke-dasharray:none;stroke-opacity:1" id="path142"/>
          <g id="g144">
            <g id="g146" clip-path="url(#clipPath150)">
              <text transform="matrix(0,1,1,0,51.53124,53.97039)" style="font-variant:normal;font-weight:normal;font-stretch:normal;font-size:10.0916px;font-family:'Palatino Linotype';-inkscape-font-specification:PalatinoLinotype-Roman;writing-mode:lr-tb;fill:#000000;fill-opacity:1;fill-rule:nonzero;stroke:none" id="text154">
                <tspan x="0 5.045805 7.5687075 12.614512" y="0" id="tspan152">5.00</tspan>
              </text>
            </g>
          </g>
          <g id="g156">
            <g id="g158" clip-path="url(#clipPath162)">
              <text transform="matrix(0,1,1,0,51.53124,124.83652)" style="font-variant:normal;font-weight:normal;font-stretch:normal;font-size:10.0916px;font-family:'Palatino Linotype';-inkscape-font-specification:PalatinoLinotype-Roman;writing-mode:lr-tb;fill:#000000;fill-opacity:1;fill-rule:nonzero;stroke:none" id="text166">
                <tspan x="0 5.045805 7.5687075 12.614512" y="0" id="tspan164">5.00</tspan>
              </text>
            </g>
          </g>
          <g id="g168">
            <g id="g170" clip-path="url(#clipPath174)">
              <text transform="matrix(0,1,1,0,51.53124,195.70266)" style="font-variant:normal;font-weight:normal;font-stretch:normal;font-size:10.0916px;font-family:'Palatino Linotype';-inkscape-font-specification:PalatinoLinotype-Roman;writing-mode:lr-tb;fill:#000000;fill-opacity:1;fill-rule:nonzero;stroke:none" id="text178">
                <tspan x="0 5.045805 7.5687075 12.614512" y="0" id="tspan176">5.00</tspan>
              </text>
            </g>
          </g>
          <path d="m 54.56693,27.35789 v 70.86614 70.86615 70.86615" style="fill:none;stroke:#000000;stroke-width:0.28346;stroke-linecap:round;stroke-linejoin:round;stroke-miterlimit:10;stroke-dasharray:none;stroke-opacity:1" id="path180"/>
          <path d="m 255.1181,41.53111 2.97638,0.4252 v -0.85038 l -2.97638,0.42518 m 42.51969,0 -2.97638,0.4252 v -0.85038 l 2.97638,0.42518" style="fill:none;stroke:#000000;stroke-width:0.56693;stroke-linecap:round;stroke-linejoin:round;stroke-miterlimit:10;stroke-dasharray:none;stroke-opacity:1" id="path182"/>
          <path d="m 255.1181,41.53111 v 2.12599 m 0,-2.12599 v -2.12597 m 42.51969,2.12597 v 2.12599 m 0,-2.12599 v -2.12597 m -42.51969,2.12597 v -0.07696 -9.13564 m 42.51969,9.2126 v -9.2126 m -42.51969,9.2126 v 0 m 42.51969,0 v 0" style="fill:none;stroke:#000000;stroke-width:0.28346;stroke-linecap:round;stroke-linejoin:round;stroke-miterlimit:10;stroke-dasharray:none;stroke-opacity:1" id="path184"/>
          <g id="g186">
            <g id="g188" clip-path="url(#clipPath192)">
              <text transform="matrix(1,0,0,-1,267.55738,44.5668)" style="font-variant:normal;font-weight:normal;font-stretch:normal;font-size:10.0916px;font-family:'Palatino Linotype';-inkscape-font-specification:PalatinoLinotype-Roman;writing-mode:lr-tb;fill:#000000;fill-opacity:1;fill-rule:nonzero;stroke:none" id="text196">
                <tspan x="0 5.045805 7.5687075 12.614512" y="0" id="tspan194">3.00</tspan>
              </text>
            </g>
          </g>
          <path d="m 255.1181,41.53111 h 42.51969" style="fill:none;stroke:#000000;stroke-width:0.28346;stroke-linecap:round;stroke-linejoin:round;stroke-miterlimit:10;stroke-dasharray:none;stroke-opacity:1" id="path198"/>
          <path d="m 338.03149,199.56262 -0.4252,2.97638 h 0.85041 l -0.42521,-2.97638 m 0,42.51969 -0.4252,-2.97638 h 0.85041 l -0.42521,2.97638" style="fill:none;stroke:#000000;stroke-width:0.56693;stroke-linecap:round;stroke-linejoin:round;stroke-miterlimit:10;stroke-dasharray:none;stroke-opacity:1" id="path200"/>
          <path d="m 338.03149,199.56262 h -2.12597 m 2.12597,0 h 2.12598 m -2.12598,42.51969 h -2.12597 m 2.12597,0 h 2.12598 m -2.12598,-42.51969 h 11.3386 m -11.3386,42.51969 h 11.3386 m -11.3386,-42.51969 v 0 m 0,42.51969 v 0" style="fill:none;stroke:#000000;stroke-width:0.28346;stroke-linecap:round;stroke-linejoin:round;stroke-miterlimit:10;stroke-dasharray:none;stroke-opacity:1" id="path202"/>
          <g id="g204">
            <g id="g206" clip-path="url(#clipPath210)">
              <text transform="matrix(0,1,1,0,334.99581,212.00188)" style="font-variant:normal;font-weight:normal;font-stretch:normal;font-size:10.0916px;font-family:'Palatino Linotype';-inkscape-font-specification:PalatinoLinotype-Roman;writing-mode:lr-tb;fill:#000000;fill-opacity:1;fill-rule:nonzero;stroke:none" id="text214">
                <tspan x="0 5.045805 7.5687075 12.614512" y="0" id="tspan212">3.00</tspan>
              </text>
            </g>
          </g>
          <path d="m 338.03149,199.56262 v 42.51969" style="fill:none;stroke:#000000;stroke-width:0.28346;stroke-linecap:round;stroke-linejoin:round;stroke-miterlimit:10;stroke-dasharray:none;stroke-opacity:1" id="path216"/>
          <g id="g218">
            <g id="g220" clip-path="url(#clipPath224)">
              <text transform="matrix(1,0,0,-1,65.14961,17.22403)" style="font-style:italic;font-variant:normal;font-weight:normal;font-stretch:normal;font-size:11.0078px;font-family:'Palatino Linotype';-inkscape-font-specification:PalatinoLinotype-Italic;writing-mode:lr-tb;fill:#000000;fill-opacity:1;fill-rule:nonzero;stroke:none" id="text228">
                <tspan x="0" y="0" id="tspan226">z</tspan>
              </text>
            </g>
          </g>
          <g id="g230">
            <g id="g232" clip-path="url(#clipPath236)">
              <text transform="matrix(1,0,0,-1,61.65354,45.52558)" style="font-style:italic;font-variant:normal;font-weight:normal;font-stretch:normal;font-size:11.0078px;font-family:'Palatino Linotype';-inkscape-font-specification:PalatinoLinotype-Italic;writing-mode:lr-tb;fill:#000000;fill-opacity:1;fill-rule:nonzero;stroke:none" id="text240">
                <tspan x="0" y="0" id="tspan238">y</tspan>
              </text>
            </g>
          </g>
          <g id="g242">
            <g id="g244" clip-path="url(#clipPath248)">
              <text transform="matrix(1,0,0,-1,87.45922,18.83038)" style="font-style:italic;font-variant:normal;font-weight:normal;font-stretch:normal;font-size:11.0078px;font-family:'Palatino Linotype';-inkscape-font-specification:PalatinoLinotype-Italic;writing-mode:lr-tb;fill:#000000;fill-opacity:1;fill-rule:nonzero;stroke:none" id="text252">
                <tspan x="0" y="0" id="tspan250">x</tspan>
              </text>
            </g>
          </g>
          <g id="g254">
            <g id="g256" clip-path="url(#clipPath260)">
              <text transform="matrix(1,0,0,-1,74.50187,5.55657)" style="font-variant:normal;font-weight:normal;font-stretch:normal;font-size:11.1008px;font-family:'Palatino Linotype';-inkscape-font-specification:PalatinoLinotype-Roman;writing-mode:lr-tb;fill:#000000;fill-opacity:1;fill-rule:nonzero;stroke:none" id="text264">
                <tspan x="0 3.6965563 13.498536" y="0" id="tspan262">[m]</tspan>
              </text>
            </g>
          </g>
          <g id="g266">
            <g id="g268" clip-path="url(#clipPath272)">
              <text transform="matrix(1,0,0,-1,216.19457,139.27828)" style="font-style:italic;font-variant:normal;font-weight:normal;font-stretch:normal;font-size:11.0078px;font-family:'Palatino Linotype';-inkscape-font-specification:PalatinoLinotype-Italic;writing-mode:lr-tb;fill:#000000;fill-opacity:1;fill-rule:nonzero;stroke:none" id="text276">
                <tspan x="0" y="0" id="tspan274">M</tspan>
              </text>
            </g>
          </g>
          <g id="g278">
            <g id="g280" clip-path="url(#clipPath284)">
              <text transform="matrix(1,0,0,-1,134.22047,129.56458)" style="font-style:italic;font-variant:normal;font-weight:normal;font-stretch:normal;font-size:11.0078px;font-family:'Palatino Linotype';-inkscape-font-specification:PalatinoLinotype-Italic;writing-mode:lr-tb;fill:#000000;fill-opacity:1;fill-rule:nonzero;stroke:none" id="text288">
                <tspan x="0" y="0" id="tspan286">W</tspan>
              </text>
            </g>
          </g>
          <g id="g290">
            <g id="g292" clip-path="url(#clipPath296)">
              <text transform="matrix(1,0,0,-1,145.54297,125.01733)" style="font-style:italic;font-variant:normal;font-weight:normal;font-stretch:normal;font-size:6.6047px;font-family:'Palatino Linotype';-inkscape-font-specification:PalatinoLinotype-Italic;writing-mode:lr-tb;fill:#000000;fill-opacity:1;fill-rule:nonzero;stroke:none" id="text300">
                <tspan x="0" y="0" id="tspan298">3</tspan>
              </text>
            </g>
          </g>
          <g id="g302">
            <g id="g304" clip-path="url(#clipPath308)">
              <text transform="matrix(1,0,0,-1,148.44516,226.07543)" style="font-style:italic;font-variant:normal;font-weight:normal;font-stretch:normal;font-size:11.0078px;font-family:'Palatino Linotype';-inkscape-font-specification:PalatinoLinotype-Italic;writing-mode:lr-tb;fill:#000000;fill-opacity:1;fill-rule:nonzero;stroke:none" id="text312">
                <tspan x="0" y="0" id="tspan310">W</tspan>
              </text>
            </g>
          </g>
          <g id="g314">
            <g id="g316" clip-path="url(#clipPath320)">
              <text transform="matrix(1,0,0,-1,159.76766,221.52817)" style="font-style:italic;font-variant:normal;font-weight:normal;font-stretch:normal;font-size:6.6047px;font-family:'Palatino Linotype';-inkscape-font-specification:PalatinoLinotype-Italic;writing-mode:lr-tb;fill:#000000;fill-opacity:1;fill-rule:nonzero;stroke:none" id="text324">
                <tspan x="0" y="0" id="tspan322">1</tspan>
              </text>
            </g>
          </g>
          <g id="g326">
            <g id="g328" clip-path="url(#clipPath332)">
              <text transform="matrix(1,0,0,-1,360.99212,216.72993)" style="font-style:italic;font-variant:normal;font-weight:normal;font-stretch:normal;font-size:11.0078px;font-family:'Palatino Linotype';-inkscape-font-specification:PalatinoLinotype-Italic;writing-mode:lr-tb;fill:#000000;fill-opacity:1;fill-rule:nonzero;stroke:none" id="text336">
                <tspan x="0" y="0" id="tspan334">W</tspan>
              </text>
            </g>
          </g>
          <g id="g338">
            <g id="g340" clip-path="url(#clipPath344)">
              <text transform="matrix(1,0,0,-1,372.31464,212.1827)" style="font-style:italic;font-variant:normal;font-weight:normal;font-stretch:normal;font-size:6.6047px;font-family:'Palatino Linotype';-inkscape-font-specification:PalatinoLinotype-Italic;writing-mode:lr-tb;fill:#000000;fill-opacity:1;fill-rule:nonzero;stroke:none" id="text348">
                <tspan x="0" y="0" id="tspan346">4</tspan>
              </text>
            </g>
          </g>
          <g id="g350">
            <g id="g352" clip-path="url(#clipPath356)">
              <text transform="matrix(1,0,0,-1,268.78677,13.26475)" style="font-style:italic;font-variant:normal;font-weight:normal;font-stretch:normal;font-size:11.0078px;font-family:'Palatino Linotype';-inkscape-font-specification:PalatinoLinotype-Italic;writing-mode:lr-tb;fill:#000000;fill-opacity:1;fill-rule:nonzero;stroke:none" id="text360">
                <tspan x="0" y="0" id="tspan358">W</tspan>
              </text>
            </g>
          </g>
          <g id="g362">
            <g id="g364" clip-path="url(#clipPath368)">
              <text transform="matrix(1,0,0,-1,280.10928,8.71751)" style="font-style:italic;font-variant:normal;font-weight:normal;font-stretch:normal;font-size:6.6047px;font-family:'Palatino Linotype';-inkscape-font-specification:PalatinoLinotype-Italic;writing-mode:lr-tb;fill:#000000;fill-opacity:1;fill-rule:nonzero;stroke:none" id="text372">
                <tspan x="0" y="0" id="tspan370">2</tspan>
              </text>
            </g>
          </g>
          <path d="m 127.55905,237.83032 h 56.69293 v 4.25199 h -56.69293 v -4.25199 M 255.1181,25.2319 h 42.51969 v 4.25197 H 255.1181 V 25.2319 m 97.08661,216.85041 v -42.51969 h 4.25199 v 42.51969 h -4.25199 M 125.43307,169.09018 V 98.22403 h 4.25199 v 70.86615 h -4.25199" style="fill:none;stroke:#000000;stroke-width:0.99213;stroke-linecap:round;stroke-linejoin:round;stroke-miterlimit:10;stroke-dasharray:none;stroke-opacity:1" id="path374"/>
          <path d="m 72.99213,239.95633 c 0,1.17413 -0.95183,2.12598 -2.12598,2.12598 m 0,0 c -1.17415,0 -2.12599,-0.95185 -2.12599,-2.12598 m 0,0 c 0,-1.17416 0.95184,-2.12601 2.12599,-2.12601 m 0,0 c 1.17415,0 2.12598,0.95185 2.12598,2.12601" style="fill:none;stroke:#000000;stroke-width:0.99213;stroke-linecap:round;stroke-linejoin:round;stroke-miterlimit:10;stroke-dasharray:none;stroke-opacity:1" id="path376"/>
          <path d="m 243.07086,239.95633 c 0,1.17413 -0.95184,2.12598 -2.12597,2.12598 m 0,0 c -1.17417,0 -2.12598,-0.95185 -2.12598,-2.12598 m 0,0 c 0,-1.17416 0.95181,-2.12601 2.12598,-2.12601 m 0,0 c 1.17413,0 2.12597,0.95185 2.12597,2.12601" style="fill:none;stroke:#000000;stroke-width:0.99213;stroke-linecap:round;stroke-linejoin:round;stroke-miterlimit:10;stroke-dasharray:none;stroke-opacity:1" id="path378"/>
          <path d="m 299.76376,239.95633 c 0,1.17413 -0.95181,2.12598 -2.12597,2.12598 m 0,0 c -1.17414,0 -2.12598,-0.95185 -2.12598,-2.12598 m 0,0 c 0,-1.17416 0.95184,-2.12601 2.12598,-2.12601 m 0,0 c 1.17416,0 2.12597,0.95185 2.12597,2.12601" style="fill:none;stroke:#000000;stroke-width:0.99213;stroke-linecap:round;stroke-linejoin:round;stroke-miterlimit:10;stroke-dasharray:none;stroke-opacity:1" id="path380"/>
          <path d="m 299.76376,169.09018 c 0,1.17413 -0.95181,2.12598 -2.12597,2.12598 m 0,0 c -1.17414,0 -2.12598,-0.95185 -2.12598,-2.12598 m 0,0 c 0,-1.17416 0.95184,-2.12598 2.12598,-2.12598 m 0,0 c 1.17416,0 2.12597,0.95182 2.12597,2.12598" style="fill:none;stroke:#000000;stroke-width:0.99213;stroke-linecap:round;stroke-linejoin:round;stroke-miterlimit:10;stroke-dasharray:none;stroke-opacity:1" id="path382"/>
          <path d="m 299.76376,98.22403 c 0,1.17415 -0.95181,2.12599 -2.12597,2.12599 m 0,0 c -1.17414,0 -2.12598,-0.95184 -2.12598,-2.12599 m 0,0 c 0,-1.17415 0.95184,-2.12598 2.12598,-2.12598 m 0,0 c 1.17416,0 2.12597,0.95183 2.12597,2.12598" style="fill:none;stroke:#000000;stroke-width:0.99213;stroke-linecap:round;stroke-linejoin:round;stroke-miterlimit:10;stroke-dasharray:none;stroke-opacity:1" id="path384"/>
          <path d="m 356.4567,169.09018 c 0,1.17413 -0.95185,2.12598 -2.12601,2.12598 m 0,0 c -1.17413,0 -2.12598,-0.95185 -2.12598,-2.12598 m 0,0 c 0,-1.17416 0.95185,-2.12598 2.12598,-2.12598 m 0,0 c 1.17416,0 2.12601,0.95182 2.12601,2.12598" style="fill:none;stroke:#000000;stroke-width:0.99213;stroke-linecap:round;stroke-linejoin:round;stroke-miterlimit:10;stroke-dasharray:none;stroke-opacity:1" id="path386"/>
          <path d="m 356.4567,98.22403 c 0,1.17415 -0.95185,2.12599 -2.12601,2.12599 m 0,0 c -1.17413,0 -2.12598,-0.95184 -2.12598,-2.12599 m 0,0 c 0,-1.17415 0.95185,-2.12598 2.12598,-2.12598 m 0,0 c 1.17416,0 2.12601,0.95183 2.12601,2.12598" style="fill:none;stroke:#000000;stroke-width:0.99213;stroke-linecap:round;stroke-linejoin:round;stroke-miterlimit:10;stroke-dasharray:none;stroke-opacity:1" id="path388"/>
          <path d="m 356.4567,27.35789 c 0,1.17415 -0.95185,2.12598 -2.12601,2.12598 m 0,0 c -1.17413,0 -2.12598,-0.95183 -2.12598,-2.12598 m 0,0 c 0,-1.17414 0.95185,-2.12599 2.12598,-2.12599 m 0,0 c 1.17416,0 2.12601,0.95185 2.12601,2.12599" style="fill:none;stroke:#000000;stroke-width:0.99213;stroke-linecap:round;stroke-linejoin:round;stroke-miterlimit:10;stroke-dasharray:none;stroke-opacity:1" id="path390"/>
          <path d="m 186.37796,27.35789 c 0,1.17415 -0.95184,2.12598 -2.12598,2.12598 m 0,0 c -1.17416,0 -2.126,-0.95183 -2.126,-2.12598 m 0,0 c 0,-1.17414 0.95184,-2.12599 2.126,-2.12599 m 0,0 c 1.17414,0 2.12598,0.95185 2.12598,2.12599" style="fill:none;stroke:#000000;stroke-width:0.99213;stroke-linecap:round;stroke-linejoin:round;stroke-miterlimit:10;stroke-dasharray:none;stroke-opacity:1" id="path392"/>
          <path d="m 129.68506,27.35789 c 0,1.17415 -0.95184,2.12598 -2.12601,2.12598 m 0,0 c -1.17415,0 -2.12598,-0.95183 -2.12598,-2.12598 m 0,0 c 0,-1.17414 0.95183,-2.12599 2.12598,-2.12599 m 0,0 c 1.17417,0 2.12601,0.95185 2.12601,2.12599" style="fill:none;stroke:#000000;stroke-width:0.99213;stroke-linecap:round;stroke-linejoin:round;stroke-miterlimit:10;stroke-dasharray:none;stroke-opacity:1" id="path394"/>
          <path d="m 72.99213,27.35789 c 0,1.17415 -0.95183,2.12598 -2.12598,2.12598 m 0,0 c -1.17415,0 -2.12599,-0.95183 -2.12599,-2.12598 m 0,0 c 0,-1.17414 0.95184,-2.12599 2.12599,-2.12599 m 0,0 c 1.17415,0 2.12598,0.95185 2.12598,2.12599" style="fill:none;stroke:#000000;stroke-width:0.99213;stroke-linecap:round;stroke-linejoin:round;stroke-miterlimit:10;stroke-dasharray:none;stroke-opacity:1" id="path396"/>
          <path d="m 72.99213,98.22403 c 0,1.17415 -0.95183,2.12599 -2.12598,2.12599 m 0,0 c -1.17415,0 -2.12599,-0.95184 -2.12599,-2.12599 m 0,0 c 0,-1.17415 0.95184,-2.12598 2.12599,-2.12598 m 0,0 c 1.17415,0 2.12598,0.95183 2.12598,2.12598" style="fill:none;stroke:#000000;stroke-width:0.99213;stroke-linecap:round;stroke-linejoin:round;stroke-miterlimit:10;stroke-dasharray:none;stroke-opacity:1" id="path398"/>
          <path d="m 72.99213,169.09018 c 0,1.17413 -0.95183,2.12598 -2.12598,2.12598 m 0,0 c -1.17415,0 -2.12599,-0.95185 -2.12599,-2.12598 m 0,0 c 0,-1.17416 0.95184,-2.12598 2.12599,-2.12598 m 0,0 c 1.17415,0 2.12598,0.95182 2.12598,2.12598" style="fill:none;stroke:#000000;stroke-width:0.99213;stroke-linecap:round;stroke-linejoin:round;stroke-miterlimit:10;stroke-dasharray:none;stroke-opacity:1" id="path400"/>
          <path d="m 70.86615,27.35789 v 0" style="fill:none;stroke:#000000;stroke-width:0.28346;stroke-linecap:round;stroke-linejoin:round;stroke-miterlimit:10;stroke-dasharray:none;stroke-opacity:1" id="path402"/>
          <path d="m 69.44882,27.35789 c 0,-0.78277 0.63455,-1.41732 1.41733,-1.41732 m 0,0 c 0.78276,0 1.41731,0.63455 1.41731,1.41732 m 0,0 c 0,0.78277 -0.63455,1.41732 -1.41731,1.41732 m 0,0 c -0.78278,0 -1.41733,-0.63455 -1.41733,-1.41732" style="fill:none;stroke:#000000;stroke-width:0.28346;stroke-linecap:round;stroke-linejoin:round;stroke-miterlimit:10;stroke-dasharray:none;stroke-opacity:1" id="path404"/>
          <path d="m 211.18109,133.6571 c 0,-0.78277 0.63458,-1.41732 1.41733,-1.41732 m 0,0 c 0.78278,0 1.41733,0.63455 1.41733,1.41732 m 0,0 c 0,0.78278 -0.63455,1.41733 -1.41733,1.41733 m 0,0 c -0.78275,0 -1.41733,-0.63455 -1.41733,-1.41733" style="fill:none;stroke:#000000;stroke-width:0.28346;stroke-linecap:round;stroke-linejoin:round;stroke-miterlimit:10;stroke-dasharray:none;stroke-opacity:1" id="path406"/>
        </g>
      </g>
    </g>
    <g transform="translate(98, -39) scale(1 1) ">
      <g><metadata>
  <rdf:RDF xmlns:dc="http://purl.org/dc/elements/1.1/" xmlns:cc="http://creativecommons.org/ns#" xmlns:rdf="http://www.w3.org/1999/02/22-rdf-syntax-ns#">
   <cc:Work>
    <dc:type rdf:resource="http://purl.org/dc/dcmitype/StillImage"/>
    <dc:date>2023-08-22T14:08:51.207645</dc:date>
    <dc:format>image/svg+xml</dc:format>
    <dc:creator>
     <cc:Agent>
      <dc:title>Matplotlib v3.7.2, https://matplotlib.org/</dc:title>
     </cc:Agent>
    </dc:creator>
   </cc:Work>
  </rdf:RDF>
 </metadata>
 <defs>
  <style type="text/css">*{stroke-linejoin: round; stroke-linecap: butt}</style>
 </defs>
 <g id="figure_1">
  <g id="patch_1">
   <path d="M 0 435.6  L 435.6 435.6  L 435.6 0  L 0 0  L 0 435.6  z " style="fill: none"/>
  </g>
  <g id="axes_1">
   <g id="PathCollection_1">
    <defs>
     <path id="mf172405482" d="M -3 0  L 3 0  M 0 3  L 0 -3  " style="stroke: #ff0000; stroke-width: 1.5"/>
    </defs>
    <g clip-path="url(#p071cd4541d)">
     <use xlink:href="#mf172405482" x="110.275675" y="79.237049" style="fill: #ff0000; stroke: #ff0000; stroke-width: 1.5"/>
     <use xlink:href="#mf172405482" x="270.315552" y="361.660362" style="fill: #ff0000; stroke: #ff0000; stroke-width: 1.5"/>
     <use xlink:href="#mf172405482" x="72.619233" y="220.448706" style="fill: #ff0000; stroke: #ff0000; stroke-width: 1.5"/>
     <use xlink:href="#mf172405482" x="373.870767" y="107.47938" style="fill: #ff0000; stroke: #ff0000; stroke-width: 1.5"/>
    </g>
   </g>
   <g id="patch_2">
    <path d="M 78.267699 79.237049  L 91.447454 76.412816  L 91.447454 79.227635  L 110.275675 79.227635  L 110.275675 79.246463  L 91.447454 79.246463  L 91.447454 82.061282  z " clip-path="url(#p071cd4541d)" style="fill: #ffa500; stroke: #ffa500; stroke-width: 3; stroke-linejoin: miter"/>
   </g>
   <g id="patch_3">
    <path d="M 302.323528 361.660362  L 289.143773 364.484595  L 289.143773 361.669776  L 270.315552 361.669776  L 270.315552 361.650948  L 289.143773 361.650948  L 289.143773 358.836129  z " clip-path="url(#p071cd4541d)" style="fill: #ffa500; stroke: #ffa500; stroke-width: 3; stroke-linejoin: miter"/>
   </g>
   <g id="patch_4">
    <path d="M 72.619233 188.44073  L 75.443466 201.620485  L 72.628647 201.620485  L 72.628647 220.448706  L 72.609819 220.448706  L 72.609819 201.620485  L 69.795 201.620485  z " clip-path="url(#p071cd4541d)" style="fill: #ffa500; stroke: #ffa500; stroke-width: 3; stroke-linejoin: miter"/>
   </g>
   <g id="patch_5">
    <path d="M 373.870767 75.471405  L 376.695 88.65116  L 373.880181 88.65116  L 373.880181 107.47938  L 373.861353 107.47938  L 373.861353 88.65116  L 371.046534 88.65116  z " clip-path="url(#p071cd4541d)" style="fill: #ffa500; stroke: #ffa500; stroke-width: 3; stroke-linejoin: miter"/>
   </g>
   <g id="patch_6">
    <path d="M 170.271242 222.433011  Q 168.223904 233.898474 175.665944 235.81763  L 176.127909 234.026237  Q 178.526562 235.746113 183.626507 235.91442  Q 179.050219 237.809398 175.129065 237.899519  L 175.59103 236.108126  Q 167.879687 234.119522 169.975914 222.380276  L 170.271242 222.433011  z " clip-path="url(#p071cd4541d)" style="fill: #ff0000; stroke: #ff0000; stroke-linecap: round"/>
   </g>
   <g id="patch_7">
    <path d="M 185.588558 188.44073  L 188.412791 201.620485  L 185.597972 201.620485  L 185.597972 220.448706  L 185.579144 220.448706  L 185.579144 201.620485  L 182.764325 201.620485  z " clip-path="url(#p071cd4541d)" style="fill: #ff0000; stroke: #ff0000; stroke-width: 3; stroke-linejoin: miter"/>
   </g>
   <g id="text_1">
    <!-- 78.928 kN -->
    <g style="fill: #ffa500" transform="translate(91.447454 69.822939) scale(0.12 -0.12)">
     <defs>
      <path id="URWPalladioL-Roma-37" d="M 358 83  L 416 0  C 666 0 666 0 710 0  C 755 19 755 19 1005 0  C 1274 700 1587 1369 2010 2141  L 3181 4255  L 3181 4448  C 2490 4422 2266 4416 1747 4416  C 1280 4416 966 4422 346 4448  L 282 4416  C 301 3807 301 3807 301 3743  C 301 3672 301 3672 282 3087  L 474 3087  L 518 3447  C 570 3846 614 3897 909 3897  L 2618 3897  C 2362 3370 2163 2996 1920 2604  L 358 83  z " transform="scale(0.015625)"/>
      <path id="URWPalladioL-Roma-38" d="M 1075 2211  C 813 2089 704 2019 563 1884  C 320 1640 192 1352 192 1019  C 192 358 723 -128 1446 -128  C 2278 -128 2970 525 2970 1320  C 2970 1833 2733 2108 2003 2442  C 2586 2839 2790 3108 2790 3493  C 2790 4044 2336 4416 1658 4416  C 896 4416 339 3929 339 3256  C 339 2820 512 2576 1075 2211  z M 1818 1890  C 2221 1711 2464 1397 2464 1051  C 2464 512 2061 89 1542 89  C 998 89 646 474 646 1070  C 646 1538 832 1833 1306 2121  L 1818 1890  z M 1427 2711  C 1024 2910 819 3166 819 3486  C 819 3910 1126 4198 1581 4198  C 2048 4198 2355 3890 2355 3422  C 2355 3057 2195 2807 1779 2538  L 1427 2711  z " transform="scale(0.015625)"/>
      <path id="URWPalladioL-Roma-2e" d="M 794 678  C 602 678 429 499 429 307  C 429 115 602 -64 787 -64  C 992 -64 1171 108 1171 307  C 1171 499 992 678 794 678  z " transform="scale(0.015625)"/>
      <path id="URWPalladioL-Roma-39" d="M 614 -128  C 1325 103 1632 252 1978 550  C 2598 1087 2925 1830 2925 2684  C 2925 3759 2406 4416 1562 4416  C 742 4416 128 3778 128 2925  C 128 2194 608 1657 1274 1657  C 1491 1657 1741 1727 1856 1823  L 2304 2194  C 2253 1113 1555 317 397 32  L 397 -20  L 614 -128  z M 1536 4204  C 1824 4204 2035 4083 2176 3829  C 2291 3625 2368 3314 2368 3027  C 2368 2442 2029 2048 1536 2048  C 1024 2048 678 2499 678 3161  C 678 3803 1011 4204 1536 4204  z " transform="scale(0.015625)"/>
      <path id="URWPalladioL-Roma-32" d="M 102 166  L 102 0  C 1299 0 1299 0 1530 0  C 1760 19 1760 19 2995 0  C 2982 134 2982 198 2982 287  C 2982 370 2982 434 2995 574  C 2259 542 1965 536 781 510  L 1946 1741  C 2566 2398 2758 2749 2758 3228  C 2758 3961 2259 4416 1446 4416  C 986 4416 672 4287 358 3967  L 250 3100  L 435 3100  L 518 3394  C 621 3763 851 3923 1280 3923  C 1830 3923 2182 3578 2182 3036  C 2182 2558 1914 2086 1190 1320  L 102 166  z " transform="scale(0.015625)"/>
      <path id="URWPalladioL-Roma-6b" d="M 147 4249  L 506 4249  C 621 4249 666 4179 666 3987  L 666 672  C 666 268 646 224 429 211  L 134 192  L 134 0  C 774 0 774 0 941 0  C 1120 19 1152 19 1722 0  L 1722 192  L 1440 211  C 1222 224 1203 268 1203 672  L 1203 1555  L 2899 -64  L 3514 121  L 3514 268  C 3360 268 3174 377 2970 576  L 2163 1376  C 1933 1600 1862 1683 1754 1811  L 2579 2457  C 2880 2688 3053 2764 3270 2758  L 3270 2950  L 2630 2950  C 2221 2540 1920 2259 1670 2060  L 1203 1683  L 1203 4608  L 1146 4659  C 864 4550 653 4499 147 4422  L 147 4249  z " transform="scale(0.015625)"/>
      <path id="URWPalladioL-Roma-4e" d="M 877 4396  C 518 4403 461 4403 109 4416  L 109 4223  L 390 4204  C 685 4185 717 4128 717 3633  L 717 782  C 717 287 685 230 390 211  L 109 192  L 109 0  C 742 0 742 0 851 0  C 947 19 947 19 1619 0  L 1619 192  L 1338 211  C 1043 230 1011 287 1011 782  L 1011 3722  L 4038 -7  L 4614 -109  C 4614 -84 4614 -77 4608 -33  C 4602 38 4595 89 4595 128  L 4595 3633  C 4595 4128 4627 4185 4922 4204  L 5203 4223  L 5203 4416  C 4531 4396 4531 4396 4435 4396  C 4326 4396 4326 4396 3693 4416  L 3693 4223  L 3974 4204  C 4269 4185 4301 4128 4301 3633  L 4301 642  L 1222 4416  L 877 4396  z " transform="scale(0.015625)"/>
     </defs>
     <use xlink:href="#URWPalladioL-Roma-37" transform="scale(0.996264)"/>
     <use xlink:href="#URWPalladioL-Roma-38" transform="translate(49.8132 0) scale(0.996264)"/>
     <use xlink:href="#URWPalladioL-Roma-2e" transform="translate(99.626401 0) scale(0.996264)"/>
     <use xlink:href="#URWPalladioL-Roma-39" transform="translate(124.533001 0) scale(0.996264)"/>
     <use xlink:href="#URWPalladioL-Roma-32" transform="translate(174.346202 0) scale(0.996264)"/>
     <use xlink:href="#URWPalladioL-Roma-38" transform="translate(224.159402 0) scale(0.996264)"/>
     <use xlink:href="#URWPalladioL-Roma-6b" transform="translate(298.879203 0) scale(0.996264)"/>
     <use xlink:href="#URWPalladioL-Roma-4e" transform="translate(354.27088 0) scale(0.996264)"/>
    </g>
   </g>
   <g id="text_2">
    <!-- 78.768 kN -->
    <g style="fill: #ffa500" transform="translate(289.143773 352.246252) scale(0.12 -0.12)">
     <defs>
      <path id="URWPalladioL-Roma-36" d="M 2662 4287  L 2426 4396  C 1811 4193 1549 4066 1222 3788  C 563 3237 205 2463 205 1585  C 205 526 717 -128 1542 -128  C 2374 -128 2995 532 2995 1405  C 2995 2143 2554 2624 1875 2624  C 1555 2624 1363 2540 986 2239  C 915 2182 909 2175 838 2124  C 973 3275 1510 3895 2662 4237  L 2662 4287  z M 1632 2239  C 2118 2239 2445 1816 2445 1180  C 2445 513 2118 83 1626 83  C 1082 83 787 551 787 1411  C 787 1636 813 1758 883 1867  C 1024 2085 1325 2239 1632 2239  z " transform="scale(0.015625)"/>
     </defs>
     <use xlink:href="#URWPalladioL-Roma-37" transform="scale(0.996264)"/>
     <use xlink:href="#URWPalladioL-Roma-38" transform="translate(49.8132 0) scale(0.996264)"/>
     <use xlink:href="#URWPalladioL-Roma-2e" transform="translate(99.626401 0) scale(0.996264)"/>
     <use xlink:href="#URWPalladioL-Roma-37" transform="translate(124.533001 0) scale(0.996264)"/>
     <use xlink:href="#URWPalladioL-Roma-36" transform="translate(174.346202 0) scale(0.996264)"/>
     <use xlink:href="#URWPalladioL-Roma-38" transform="translate(224.159402 0) scale(0.996264)"/>
     <use xlink:href="#URWPalladioL-Roma-6b" transform="translate(298.879203 0) scale(0.996264)"/>
     <use xlink:href="#URWPalladioL-Roma-4e" transform="translate(354.27088 0) scale(0.996264)"/>
    </g>
   </g>
   <g id="text_3">
    <!-- 296.704 kN -->
    <g style="fill: #ffa500" transform="translate(82.033344 201.620485) scale(0.12 -0.12)">
     <defs>
      <path id="URWPalladioL-Roma-30" d="M 1683 4416  C 691 4416 186 3628 186 2076  C 186 1326 320 679 544 365  C 768 51 1126 -128 1523 -128  C 2490 -128 2976 704 2976 2345  C 2976 3749 2560 4416 1683 4416  z M 1568 4191  C 2189 4191 2438 3563 2438 2025  C 2438 660 2195 96 1606 96  C 986 96 723 743 723 2307  C 723 3660 960 4191 1568 4191  z " transform="scale(0.015625)"/>
      <path id="URWPalladioL-Roma-34" d="M 1792 1152  L 1792 684  C 1792 310 1722 223 1408 210  L 1011 192  L 1011 0  C 1862 0 1862 0 2016 0  C 2170 19 2170 19 3021 0  L 3021 192  L 2714 210  C 2400 229 2330 310 2330 684  L 2330 1152  C 2707 1152 2842 1145 3021 1127  L 3021 1580  C 2720 1555 2598 1555 2502 1561  L 2483 1561  L 2330 1561  L 2330 2445  C 2330 3576 2342 4122 2374 4383  L 2298 4416  L 1824 4243  L 13 1299  L 83 1152  L 1792 1152  z M 1792 1561  L 416 1561  L 1792 3798  L 1792 1561  z " transform="scale(0.015625)"/>
     </defs>
     <use xlink:href="#URWPalladioL-Roma-32" transform="scale(0.996264)"/>
     <use xlink:href="#URWPalladioL-Roma-39" transform="translate(49.8132 0) scale(0.996264)"/>
     <use xlink:href="#URWPalladioL-Roma-36" transform="translate(99.626401 0) scale(0.996264)"/>
     <use xlink:href="#URWPalladioL-Roma-2e" transform="translate(149.439601 0) scale(0.996264)"/>
     <use xlink:href="#URWPalladioL-Roma-37" transform="translate(174.346202 0) scale(0.996264)"/>
     <use xlink:href="#URWPalladioL-Roma-30" transform="translate(224.159402 0) scale(0.996264)"/>
     <use xlink:href="#URWPalladioL-Roma-34" transform="translate(273.972603 0) scale(0.996264)"/>
     <use xlink:href="#URWPalladioL-Roma-6b" transform="translate(348.692403 0) scale(0.996264)"/>
     <use xlink:href="#URWPalladioL-Roma-4e" transform="translate(404.08408 0) scale(0.996264)"/>
    </g>
   </g>
   <g id="text_4">
    <!-- 183.648 kN -->
    <g style="fill: #ffa500" transform="translate(383.284877 88.65116) scale(0.12 -0.12)">
     <defs>
      <path id="URWPalladioL-Roma-31" d="M 429 3571  L 493 3571  L 1318 3942  C 1325 3949 1331 3949 1338 3949  C 1376 3949 1389 3891 1389 3737  L 1389 633  C 1389 300 1318 230 973 211  L 614 192  L 614 0  C 1600 0 1600 0 1670 0  C 1754 0 1894 0 2112 -7  C 2189 6 2413 6 2675 0  L 2675 192  L 2342 211  C 1990 229 1926 299 1926 628  L 1926 4383  L 1837 4416  C 1421 4199 966 4009 384 3807  L 429 3571  z " transform="scale(0.015625)"/>
      <path id="URWPalladioL-Roma-33" d="M 275 3196  L 474 3196  L 589 3553  C 659 3770 1062 3987 1395 3987  C 1811 3987 2150 3649 2150 3247  C 2150 2769 1773 2368 1318 2368  C 1267 2368 1197 2374 1114 2380  L 1018 2387  L 941 2047  L 986 2008  C 1229 2118 1350 2150 1523 2150  C 2054 2150 2362 1808 2362 1222  C 2362 565 1971 134 1376 134  C 1082 134 819 231 627 411  C 474 553 390 701 269 1048  L 96 984  C 230 591 282 359 320 38  C 659 -77 941 -128 1178 -128  C 1690 -128 2278 160 2630 591  C 2848 855 2957 1139 2957 1441  C 2957 1750 2829 2021 2598 2182  C 2438 2297 2291 2348 1971 2406  C 2483 2801 2675 3094 2675 3470  C 2675 4038 2202 4416 1491 4416  C 1056 4416 768 4294 461 3987  L 275 3196  z " transform="scale(0.015625)"/>
     </defs>
     <use xlink:href="#URWPalladioL-Roma-31" transform="scale(0.996264)"/>
     <use xlink:href="#URWPalladioL-Roma-38" transform="translate(49.8132 0) scale(0.996264)"/>
     <use xlink:href="#URWPalladioL-Roma-33" transform="translate(99.626401 0) scale(0.996264)"/>
     <use xlink:href="#URWPalladioL-Roma-2e" transform="translate(149.439601 0) scale(0.996264)"/>
     <use xlink:href="#URWPalladioL-Roma-36" transform="translate(174.346202 0) scale(0.996264)"/>
     <use xlink:href="#URWPalladioL-Roma-34" transform="translate(224.159402 0) scale(0.996264)"/>
     <use xlink:href="#URWPalladioL-Roma-38" transform="translate(273.972603 0) scale(0.996264)"/>
     <use xlink:href="#URWPalladioL-Roma-6b" transform="translate(348.692403 0) scale(0.996264)"/>
     <use xlink:href="#URWPalladioL-Roma-4e" transform="translate(404.08408 0) scale(0.996264)"/>
    </g>
   </g>
   <g id="text_5">
    <!-- 2761.7 kNm -->
    <g style="fill: #ff0000" transform="translate(147.932117 258.105147) scale(0.12 -0.12)">
     <defs>
      <path id="URWPalladioL-Roma-6d" d="M 115 2579  L 352 2579  C 608 2579 634 2534 634 2112  L 634 672  C 634 268 614 224 397 211  L 102 192  L 102 0  C 717 0 736 0 915 0  C 1094 19 1261 12 1677 0  L 1677 192  L 1408 211  C 1190 223 1171 268 1171 670  L 1171 2023  C 1171 2311 1594 2624 1978 2624  C 2323 2624 2560 2298 2560 1813  L 2560 670  C 2560 268 2541 223 2323 211  L 2029 192  L 2029 0  C 2669 0 2669 0 2829 0  C 2989 19 2989 19 3629 0  L 3629 192  L 3334 211  C 3117 223 3098 268 3098 670  L 3098 2023  C 3098 2311 3520 2624 3904 2624  C 4250 2624 4486 2298 4486 1813  L 4486 0  C 4877 0 4883 0 4992 0  C 5075 19 5075 19 5562 0  L 5562 192  L 5261 211  C 5043 223 5024 268 5024 670  L 5024 1985  C 5024 2617 4653 3014 4064 3014  C 3840 3014 3654 2956 3539 2854  L 3053 2419  C 2848 2841 2586 3014 2144 3014  C 1907 3014 1728 2956 1613 2854  L 1171 2445  L 1171 2988  L 1114 3008  C 787 2873 454 2783 115 2745  L 115 2579  z " transform="scale(0.015625)"/>
     </defs>
     <use xlink:href="#URWPalladioL-Roma-32" transform="scale(0.996264)"/>
     <use xlink:href="#URWPalladioL-Roma-37" transform="translate(49.8132 0) scale(0.996264)"/>
     <use xlink:href="#URWPalladioL-Roma-36" transform="translate(99.626401 0) scale(0.996264)"/>
     <use xlink:href="#URWPalladioL-Roma-31" transform="translate(149.439601 0) scale(0.996264)"/>
     <use xlink:href="#URWPalladioL-Roma-2e" transform="translate(199.252802 0) scale(0.996264)"/>
     <use xlink:href="#URWPalladioL-Roma-37" transform="translate(224.159402 0) scale(0.996264)"/>
     <use xlink:href="#URWPalladioL-Roma-6b" transform="translate(298.879203 0) scale(0.996264)"/>
     <use xlink:href="#URWPalladioL-Roma-4e" transform="translate(354.27088 0) scale(0.996264)"/>
     <use xlink:href="#URWPalladioL-Roma-6d" transform="translate(437.059787 0) scale(0.996264)"/>
    </g>
   </g>
   <g id="text_6">
    <!-- 482.8 kN -->
    <g style="fill: #ff0000" transform="translate(204.416779 201.620485) scale(0.12 -0.12)">
     <use xlink:href="#URWPalladioL-Roma-34" transform="scale(0.996264)"/>
     <use xlink:href="#URWPalladioL-Roma-38" transform="translate(49.8132 0) scale(0.996264)"/>
     <use xlink:href="#URWPalladioL-Roma-32" transform="translate(99.626401 0) scale(0.996264)"/>
     <use xlink:href="#URWPalladioL-Roma-2e" transform="translate(149.439601 0) scale(0.996264)"/>
     <use xlink:href="#URWPalladioL-Roma-38" transform="translate(174.346202 0) scale(0.996264)"/>
     <use xlink:href="#URWPalladioL-Roma-6b" transform="translate(249.066002 0) scale(0.996264)"/>
     <use xlink:href="#URWPalladioL-Roma-4e" transform="translate(304.457679 0) scale(0.996264)"/>
    </g>
   </g>
  </g>
 </g>
 <defs>
  <clipPath id="p071cd4541d">
   <rect x="54.45" y="61.020745" width="337.59" height="317.914509"/>
  </clipPath>
 </defs>
</g>
    </g>
  </g>
</svg>
