<?xml version="1.0" encoding="UTF-8" standalone="no"?>
<svg
   xmlns:dc="http://purl.org/dc/elements/1.1/"
   xmlns:cc="http://creativecommons.org/ns#"
   xmlns:rdf="http://www.w3.org/1999/02/22-rdf-syntax-ns#"
   xmlns:svg="http://www.w3.org/2000/svg"
   xmlns="http://www.w3.org/2000/svg"
   version="1.1"
   id="svg2"
   xml:space="preserve"
   width="566.92932"
   height="340.15732"
   viewBox="0 0 566.92932 340.15732"><metadata
     id="metadata8"><rdf:RDF><cc:Work
         rdf:about=""><dc:format>image/svg+xml</dc:format><dc:type
           rdf:resource="http://purl.org/dc/dcmitype/StillImage" /></cc:Work></rdf:RDF></metadata><defs
     id="defs6"><clipPath
       clipPathUnits="userSpaceOnUse"
       id="clipPath52"><path
         d="M -0.00426,-0.00255 V 255.12067 H 425.20111 V -0.00255 H -0.00426"
         clip-rule="evenodd"
         id="path50" /></clipPath><clipPath
       clipPathUnits="userSpaceOnUse"
       id="clipPath64"><path
         d="M -0.00426,-0.00255 V 255.12067 H 425.20111 V -0.00255 H -0.00426"
         clip-rule="evenodd"
         id="path62" /></clipPath><clipPath
       clipPathUnits="userSpaceOnUse"
       id="clipPath72"><path
         d="M -0.00426,-0.00255 V 255.12067 H 425.20111 V -0.00255 H -0.00426"
         clip-rule="evenodd"
         id="path70" /></clipPath><clipPath
       clipPathUnits="userSpaceOnUse"
       id="clipPath84"><path
         d="M -0.00426,-0.00255 V 255.12067 H 425.20111 V -0.00255 H -0.00426"
         clip-rule="evenodd"
         id="path82" /></clipPath><clipPath
       clipPathUnits="userSpaceOnUse"
       id="clipPath96"><path
         d="M -0.00426,-0.00255 V 255.12067 H 425.20111 V -0.00255 H -0.00426"
         clip-rule="evenodd"
         id="path94" /></clipPath><clipPath
       clipPathUnits="userSpaceOnUse"
       id="clipPath108"><path
         d="M -0.00426,-0.00255 V 255.12067 H 425.20111 V -0.00255 H -0.00426"
         clip-rule="evenodd"
         id="path106" /></clipPath><clipPath
       clipPathUnits="userSpaceOnUse"
       id="clipPath120"><path
         d="M -0.00426,-0.00255 V 255.12067 H 425.20111 V -0.00255 H -0.00426"
         clip-rule="evenodd"
         id="path118" /></clipPath><clipPath
       clipPathUnits="userSpaceOnUse"
       id="clipPath132"><path
         d="M -0.00426,-0.00255 V 255.12067 H 425.20111 V -0.00255 H -0.00426"
         clip-rule="evenodd"
         id="path130" /></clipPath><clipPath
       clipPathUnits="userSpaceOnUse"
       id="clipPath144"><path
         d="M -0.00426,-0.00255 V 255.12067 H 425.20111 V -0.00255 H -0.00426"
         clip-rule="evenodd"
         id="path142" /></clipPath><clipPath
       clipPathUnits="userSpaceOnUse"
       id="clipPath156"><path
         d="M -0.00426,-0.00255 V 255.12067 H 425.20111 V -0.00255 H -0.00426"
         clip-rule="evenodd"
         id="path154" /></clipPath><clipPath
       clipPathUnits="userSpaceOnUse"
       id="clipPath168"><path
         d="M -0.00426,-0.00255 V 255.12067 H 425.20111 V -0.00255 H -0.00426"
         clip-rule="evenodd"
         id="path166" /></clipPath><clipPath
       clipPathUnits="userSpaceOnUse"
       id="clipPath180"><path
         d="M -0.00426,-0.00255 V 255.12067 H 425.20111 V -0.00255 H -0.00426"
         clip-rule="evenodd"
         id="path178" /></clipPath><clipPath
       clipPathUnits="userSpaceOnUse"
       id="clipPath192"><path
         d="M -0.00426,-0.00255 V 255.12067 H 425.20111 V -0.00255 H -0.00426"
         clip-rule="evenodd"
         id="path190" /></clipPath><clipPath
       clipPathUnits="userSpaceOnUse"
       id="clipPath204"><path
         d="M -0.00426,-0.00255 V 255.12067 H 425.20111 V -0.00255 H -0.00426"
         clip-rule="evenodd"
         id="path202" /></clipPath><clipPath
       clipPathUnits="userSpaceOnUse"
       id="clipPath212"><path
         d="M -0.00426,-0.00255 V 255.12067 H 425.20111 V -0.00255 H -0.00426"
         clip-rule="evenodd"
         id="path210" /></clipPath><clipPath
       clipPathUnits="userSpaceOnUse"
       id="clipPath224"><path
         d="M -0.00426,-0.00255 V 255.12067 H 425.20111 V -0.00255 H -0.00426"
         clip-rule="evenodd"
         id="path222" /></clipPath><clipPath
       clipPathUnits="userSpaceOnUse"
       id="clipPath236"><path
         d="M -0.00426,-0.00255 V 255.12067 H 425.20111 V -0.00255 H -0.00426"
         clip-rule="evenodd"
         id="path234" /></clipPath><clipPath
       clipPathUnits="userSpaceOnUse"
       id="clipPath248"><path
         d="M -0.00426,-0.00255 V 255.12067 H 425.20111 V -0.00255 H -0.00426"
         clip-rule="evenodd"
         id="path246" /></clipPath><clipPath
       clipPathUnits="userSpaceOnUse"
       id="clipPath260"><path
         d="M -0.00426,-0.00255 V 255.12067 H 425.20111 V -0.00255 H -0.00426"
         clip-rule="evenodd"
         id="path258" /></clipPath><clipPath
       clipPathUnits="userSpaceOnUse"
       id="clipPath272"><path
         d="M -0.00426,-0.00255 V 255.12067 H 425.20111 V -0.00255 H -0.00426"
         clip-rule="evenodd"
         id="path270" /></clipPath><clipPath
       clipPathUnits="userSpaceOnUse"
       id="clipPath284"><path
         d="M -0.00426,-0.00255 V 255.12067 H 425.20111 V -0.00255 H -0.00426"
         clip-rule="evenodd"
         id="path282" /></clipPath><clipPath
       clipPathUnits="userSpaceOnUse"
       id="clipPath296"><path
         d="M -0.00426,-0.00255 V 255.12067 H 425.20111 V -0.00255 H -0.00426"
         clip-rule="evenodd"
         id="path294" /></clipPath><clipPath
       clipPathUnits="userSpaceOnUse"
       id="clipPath308"><path
         d="M -0.00426,-0.00255 V 255.12067 H 425.20111 V -0.00255 H -0.00426"
         clip-rule="evenodd"
         id="path306" /></clipPath><clipPath
       clipPathUnits="userSpaceOnUse"
       id="clipPath320"><path
         d="M -0.00426,-0.00255 V 255.12067 H 425.20111 V -0.00255 H -0.00426"
         clip-rule="evenodd"
         id="path318" /></clipPath><clipPath
       clipPathUnits="userSpaceOnUse"
       id="clipPath332"><path
         d="M -0.00426,-0.00255 V 255.12067 H 425.20111 V -0.00255 H -0.00426"
         clip-rule="evenodd"
         id="path330" /></clipPath><clipPath
       clipPathUnits="userSpaceOnUse"
       id="clipPath344"><path
         d="M -0.00426,-0.00255 V 255.12067 H 425.20111 V -0.00255 H -0.00426"
         clip-rule="evenodd"
         id="path342" /></clipPath><clipPath
       clipPathUnits="userSpaceOnUse"
       id="clipPath356"><path
         d="M -0.00426,-0.00255 V 255.12067 H 425.20111 V -0.00255 H -0.00426"
         clip-rule="evenodd"
         id="path354" /></clipPath><clipPath
       clipPathUnits="userSpaceOnUse"
       id="clipPath368"><path
         d="M -0.00426,-0.00255 V 255.12067 H 425.20111 V -0.00255 H -0.00426"
         clip-rule="evenodd"
         id="path366" /></clipPath><clipPath
       clipPathUnits="userSpaceOnUse"
       id="clipPath380"><path
         d="M -0.00426,-0.00255 V 255.12067 H 425.20111 V -0.00255 H -0.00426"
         clip-rule="evenodd"
         id="path378" /></clipPath><clipPath
       clipPathUnits="userSpaceOnUse"
       id="clipPath392"><path
         d="M -0.00426,-0.00255 V 255.12067 H 425.20111 V -0.00255 H -0.00426"
         clip-rule="evenodd"
         id="path390" /></clipPath><clipPath
       clipPathUnits="userSpaceOnUse"
       id="clipPath404"><path
         d="M -0.00426,-0.00255 V 255.12067 H 425.20111 V -0.00255 H -0.00426"
         clip-rule="evenodd"
         id="path402" /></clipPath><clipPath
       clipPathUnits="userSpaceOnUse"
       id="clipPath416"><path
         d="M -0.00426,-0.00255 V 255.12067 H 425.20111 V -0.00255 H -0.00426"
         clip-rule="evenodd"
         id="path414" /></clipPath></defs><g
     id="g10"
     transform="matrix(1.3333333,0,0,-1.3333333,0,340.15733)"><path
       d="m 74.6544,195.12292 h 113.38582 l -6.01318,-6.01318 m 6.01318,6.01318 6.01322,-6.01318 m -12.0264,0 h 12.0264 m -119.39904,6.01318 -6.01318,-6.01318 m 6.01318,6.01318 6.0132,-6.01318 m -12.02638,0 H 80.6676 m -14.07354,-2.23126 h 15.874 m 48.87926,8.24444 v 28.34647 m 0,-23.38583 v 0.35434 m 0,-5.31498 v 0 l -0.70865,4.96064 h 1.4173 l -0.70865,-4.96064"
       style="fill:none;stroke:#000000;stroke-width:0.28346;stroke-linecap:round;stroke-linejoin:round;stroke-miterlimit:10;stroke-dasharray:none;stroke-opacity:1"
       id="path12" /><path
       d="m 132.05597,200.08356 h -1.4173 l 0.70865,-4.96064 z"
       style="fill:#000000;fill-opacity:1;fill-rule:nonzero;stroke:none"
       id="path14" /><path
       d="m 74.6544,195.12292 14.17324,-6.6614 14.17323,-5.81104 7.08661,-2.32086 7.08661,-1.78937 7.08662,-1.15158 7.08661,-0.40747 7.08661,0.40747 7.08661,1.15158 7.08664,1.78937 7.08661,2.32086 14.17321,5.81104 14.17322,6.6614 m -113.38582,0 4.13922,-0.97268 m 2.75947,-0.6485 4.13922,-0.97272 m 2.75947,-0.64847 0.37586,-0.0883 3.78711,-0.77637 m 2.7769,-0.56928 4.16534,-0.85388 m 2.7769,-0.56927 0.66698,-0.13672 3.52417,-0.57709 m 2.79739,-0.45807 0.76505,-0.12527 3.44935,-0.43549 m 2.81232,-0.35504 0.82494,-0.10416 3.40925,-0.277 m 2.82534,-0.22956 0.85203,-0.0692 3.39572,-0.0976 m 2.83347,-0.0815 0.85742,-0.0247 3.39279,0.0976 m 2.8335,0.0814 0.86032,0.0247 3.38016,0.27466 m 2.82531,0.22955 0.88114,0.0716 3.3414,0.42185 m 2.81235,0.35507 0.93289,0.11777 3.26813,0.53515 m 2.79739,0.45807 1.02109,0.16721 3.15173,0.64612 m 2.77689,0.56924 4.16534,0.85391 m 2.77692,0.56925 1.30233,0.267 2.84504,0.66858 m 2.75949,0.64846 4.13919,0.97272 m 2.75949,0.64847 1.67001,0.39245"
       style="fill:none;stroke:#000000;stroke-width:0.85039;stroke-linecap:round;stroke-linejoin:round;stroke-miterlimit:10;stroke-dasharray:none;stroke-opacity:1"
       id="path16" /><path
       d="m 288.38669,195.12292 h 113.3858 l -6.01318,-6.01318 m 6.01318,6.01318 6.01322,-6.01318 m -12.0264,0 h 12.0264 m -119.39902,6.01318 -6.01319,-6.01318 m 6.01319,6.01318 6.01318,-6.01318 m -12.02637,0 h 12.02637 m -14.07355,-2.23126 h 15.87403 m 48.87924,8.24444 v 28.34647 m 0,-23.38583 v 0.35434 m 0,-5.31498 v 0 l -0.70865,4.96064 h 1.4173 l -0.70865,-4.96064"
       style="fill:none;stroke:#000000;stroke-width:0.28346;stroke-linecap:round;stroke-linejoin:round;stroke-miterlimit:10;stroke-dasharray:none;stroke-opacity:1"
       id="path18" /><path
       d="m 345.78824,200.08356 h -1.4173 l 0.70865,-4.96064 z"
       style="fill:#000000;fill-opacity:1;fill-rule:nonzero;stroke:none"
       id="path20" /><path
       d="m 288.38669,195.12292 14.17322,-6.6614 14.17321,-5.81104 7.08664,-2.32086 7.08661,-1.78937 7.08661,-1.15158 7.08661,-0.40747 7.08661,0.40747 7.08661,1.15158 7.08664,1.78937 7.08661,2.32086 14.17321,5.81104 14.17322,6.6614 m -169.22833,9.0709 5.66931,3.40155 5.66928,-3.40155 m -11.33859,-1.70081 h 11.33859 m -11.33859,-1.70077 h 11.33859"
       style="fill:none;stroke:#000000;stroke-width:0.85039;stroke-linecap:round;stroke-linejoin:round;stroke-miterlimit:10;stroke-dasharray:none;stroke-opacity:1"
       id="path22" /><path
       d="m 74.6544,69.26466 h 113.38582 l -6.01318,-6.01318 m 6.01318,6.01318 6.01322,-6.01318 m -12.0264,0 h 12.0264 M 74.6544,69.26466 68.64122,63.25148 m 6.01318,6.01318 6.0132,-6.01318 m -12.02638,0 H 80.6676 M 66.59406,61.0202 h 15.874 m 48.87926,8.24446 v 28.34647 m 0,-23.38583 v 0.35434 m 0,-5.31498 v 0 l -0.70865,4.96064 h 1.4173 l -0.70865,-4.96064"
       style="fill:none;stroke:#000000;stroke-width:0.28346;stroke-linecap:round;stroke-linejoin:round;stroke-miterlimit:10;stroke-dasharray:none;stroke-opacity:1"
       id="path24" /><path
       d="m 132.05597,74.2253 h -1.4173 l 0.70865,-4.96064 z"
       style="fill:#000000;fill-opacity:1;fill-rule:nonzero;stroke:none"
       id="path26" /><path
       d="m 232.54416,76.63475 h 11.33859 m -11.33859,-1.70079 h 11.33859 m -169.22835,-5.6693 4.72441,6.66143 4.72442,5.81102 2.36219,2.32087 2.36222,1.78937 2.36219,1.15157 2.36222,0.40748 2.3622,-0.40748 2.36221,-1.15157 2.3622,-1.78937 2.36221,-2.32087 4.7244,-5.81102 4.72441,-6.66143 4.72441,-6.6614 4.72441,-5.81104 2.36221,-2.32086 2.3622,-1.78937 2.3622,-1.15158 2.36221,-0.40747 2.36221,0.40747 2.36222,1.15158 2.36218,1.78937 2.36221,2.32086 4.7244,5.81104 4.72442,6.6614 4.7244,6.66143 4.72443,5.81102 2.36218,2.32087 2.36221,1.78937 2.36222,1.15157 2.36221,0.40748 2.36218,-0.40748 2.36221,-1.15157 2.36222,-1.78937 2.36221,-2.32087 4.7244,-5.81102 4.72439,-6.66143 m 47.36655,1.85939 5.97397,8.61649"
       style="fill:none;stroke:#000000;stroke-width:0.85039;stroke-linecap:round;stroke-linejoin:round;stroke-miterlimit:10;stroke-dasharray:none;stroke-opacity:1"
       id="path28" /><path
       d="m 288.38669,69.26466 h 113.3858 l -6.01318,-6.01318 m 6.01318,6.01318 6.01322,-6.01318 m -12.0264,0 h 12.0264 m -119.39902,6.01318 -6.01319,-6.01318 m 6.01319,6.01318 6.01318,-6.01318 m -12.02637,0 h 12.02637 M 280.32632,61.0202 h 15.87403 m 48.87924,8.24446 v 28.34647 m 0,-23.38583 v 0.35434 m 0,-5.31498 v 0 l -0.70865,4.96064 h 1.4173 l -0.70865,-4.96064"
       style="fill:none;stroke:#c0c0c0;stroke-width:0.28346;stroke-linecap:round;stroke-linejoin:round;stroke-miterlimit:10;stroke-dasharray:none;stroke-opacity:1"
       id="path30" /><path
       d="m 345.78824,74.2253 h -1.4173 l 0.70865,-4.96064 z"
       style="fill:#c0c0c0;fill-opacity:1;fill-rule:nonzero;stroke:none"
       id="path32" /><path
       d="m 288.38669,69.26466 4.72439,6.66143 4.72443,5.81102 2.36218,2.32087 2.36222,1.78937 2.36221,1.15157 2.36221,0.40748 2.36218,-0.40748 2.36222,-1.15157 2.36221,-1.78937 2.36218,-2.32087 4.72443,-5.81102 4.7244,-6.66143 4.72442,-6.6614 4.7244,-5.81104 2.36221,-2.32086 2.36221,-1.78937 2.36219,-1.15158 2.36221,-0.40747 2.36221,0.40747 2.36222,1.15158 2.36218,1.78937 2.36221,2.32086 4.7244,5.81104 4.72442,6.6614 4.7244,6.66143 4.72443,5.81102 2.36221,2.32087 2.36218,1.78937 2.36221,1.15157 2.36222,0.40748 2.36218,-0.40748 2.36221,-1.15157 2.36222,-1.78937 2.36221,-2.32087 4.7244,-5.81102 4.72439,-6.66143"
       style="fill:none;stroke:#c0c0c0;stroke-width:0.85039;stroke-linecap:round;stroke-linejoin:round;stroke-miterlimit:10;stroke-dasharray:none;stroke-opacity:1"
       id="path34" /><path
       d="m 26.59428,52.92014 v 0 h 28.34645 m -5.95275,0 h -0.42519 m 6.37794,0 v 0 l -5.95275,0.8504 v -1.70078 l 5.95275,0.85038"
       style="fill:none;stroke:#000000;stroke-width:0.28346;stroke-linecap:round;stroke-linejoin:round;stroke-miterlimit:10;stroke-dasharray:none;stroke-opacity:1"
       id="path36" /><path
       d="m 48.98798,52.06976 5.95275,0.85038 -5.95275,0.8504 z"
       style="fill:#000000;fill-opacity:1;fill-rule:nonzero;stroke:none"
       id="path38" /><path
       d="m 23.75963,52.92014 c 0,-1.56553 1.26912,-2.83465 2.83465,-2.83465 m 0,0 c 1.56553,0 2.83464,1.26912 2.83464,2.83465 m 0,0 c 0,1.56553 -1.26911,2.83465 -2.83464,2.83465 m 0,0 c -1.56553,0 -2.83465,-1.26912 -2.83465,-2.83465"
       style="fill:none;stroke:#000000;stroke-width:0.28346;stroke-linecap:round;stroke-linejoin:round;stroke-miterlimit:10;stroke-dasharray:none;stroke-opacity:1"
       id="path40" /><path
       d="M 26.59428,52.92014 V 24.57368 m 0,5.95276 v 0.4252 m 0,-6.37796 v 0 l 0.85039,5.95276 H 25.7439 l 0.85038,-5.95276"
       style="fill:none;stroke:#000000;stroke-width:0.28346;stroke-linecap:round;stroke-linejoin:round;stroke-miterlimit:10;stroke-dasharray:none;stroke-opacity:1"
       id="path42" /><path
       d="m 25.7439,30.52644 0.85038,-5.95276 0.85039,5.95276 z"
       style="fill:#000000;fill-opacity:1;fill-rule:nonzero;stroke:none"
       id="path44" /><g
       id="g46"><g
         id="g48"
         clip-path="url(#clipPath52)"><text
           transform="matrix(1,0,0,-1,121.73314,234.80796)"
           style="font-style:italic;font-variant:normal;font-weight:normal;font-stretch:normal;font-size:11.0078px;font-family:'Palatino Linotype';-inkscape-font-specification:PalatinoLinotype-Italic;writing-mode:lr-tb;fill:#000000;fill-opacity:1;fill-rule:nonzero;stroke:none"
           id="text56"><tspan
             x="0"
             y="0"
             id="tspan54">F</tspan></text></g></g><g
       id="g58"><g
         id="g60"
         clip-path="url(#clipPath64)" /></g><g
       id="g66"><g
         id="g68"
         clip-path="url(#clipPath72)"><text
           transform="matrix(1,0,0,-1,129.70606,234.80796)"
           style="font-variant:normal;font-weight:normal;font-stretch:normal;font-size:11.1008px;font-family:'Palatino Linotype';-inkscape-font-specification:PalatinoLinotype-Roman;writing-mode:lr-tb;fill:#000000;fill-opacity:1;fill-rule:nonzero;stroke:none"
           id="text76"><tspan
             x="0"
             y="0"
             id="tspan74">(</tspan></text></g></g><g
       id="g78"><g
         id="g80"
         clip-path="url(#clipPath84)"><text
           transform="matrix(1,0,0,-1,133.47654,234.80796)"
           style="font-style:italic;font-variant:normal;font-weight:normal;font-stretch:normal;font-size:11.0078px;font-family:'Palatino Linotype';-inkscape-font-specification:PalatinoLinotype-Italic;writing-mode:lr-tb;fill:#000000;fill-opacity:1;fill-rule:nonzero;stroke:none"
           id="text88"><tspan
             x="0"
             y="0"
             id="tspan86">t</tspan></text></g></g><g
       id="g90"><g
         id="g92"
         clip-path="url(#clipPath96)"><text
           transform="matrix(1,0,0,-1,137.23902,234.80796)"
           style="font-variant:normal;font-weight:normal;font-stretch:normal;font-size:11.1008px;font-family:'Palatino Linotype';-inkscape-font-specification:PalatinoLinotype-Roman;writing-mode:lr-tb;fill:#000000;fill-opacity:1;fill-rule:nonzero;stroke:none"
           id="text100"><tspan
             x="0"
             y="0"
             id="tspan98">)</tspan></text></g></g><g
       id="g102"><g
         id="g104"
         clip-path="url(#clipPath108)"><text
           transform="matrix(1,0,0,-1,68.64121,138.72391)"
           style="font-variant:normal;font-weight:normal;font-stretch:normal;font-size:11.1008px;font-family:'Palatino Linotype';-inkscape-font-specification:PalatinoLinotype-Roman;writing-mode:lr-tb;fill:#000000;fill-opacity:1;fill-rule:nonzero;stroke:none"
           id="text112"><tspan
             x="0 8.4698877 12.854692 19.548456 26.009104 32.791676 38.108944 41.339268 47.511295 52.828564 59.289211 62.985767 69.046791 73.431595"
             y="0"
             id="tspan110">Grundeigenform</tspan></text></g></g><g
       id="g114"><g
         id="g116"
         clip-path="url(#clipPath120)"><text
           transform="matrix(1,0,0,-1,74.6544,164.95167)"
           style="font-style:italic;font-variant:normal;font-weight:normal;font-stretch:normal;font-size:11.0078px;font-family:'Palatino Linotype';-inkscape-font-specification:PalatinoLinotype-Italic;writing-mode:lr-tb;fill:#000000;fill-opacity:1;fill-rule:nonzero;stroke:none"
           id="text124"><tspan
             x="0"
             y="0"
             id="tspan122">w</tspan></text></g></g><g
       id="g126"><g
         id="g128"
         clip-path="url(#clipPath132)"><text
           transform="matrix(1,0,0,-1,84.09719,160.40442)"
           style="font-style:italic;font-variant:normal;font-weight:normal;font-stretch:normal;font-size:6.6047px;font-family:'Palatino Linotype';-inkscape-font-specification:PalatinoLinotype-Italic;writing-mode:lr-tb;fill:#000000;fill-opacity:1;fill-rule:nonzero;stroke:none"
           id="text136"><tspan
             x="0 2.5692284 4.7685933 7.7010803"
             y="0"
             id="tspan134">stat</tspan></text></g></g><g
       id="g138"><g
         id="g140"
         clip-path="url(#clipPath144)"><text
           transform="matrix(1,0,0,-1,114.33944,164.95167)"
           style="font-style:italic;font-variant:normal;font-weight:normal;font-stretch:normal;font-size:11.0078px;font-family:'Palatino Linotype';-inkscape-font-specification:PalatinoLinotype-Italic;writing-mode:lr-tb;fill:#000000;fill-opacity:1;fill-rule:nonzero;stroke:none"
           id="text148"><tspan
             x="0"
             y="0"
             id="tspan146">w</tspan></text></g></g><g
       id="g150"><g
         id="g152"
         clip-path="url(#clipPath156)"><text
           transform="matrix(1,0,0,-1,123.78222,160.40442)"
           style="font-style:italic;font-variant:normal;font-weight:normal;font-stretch:normal;font-size:6.6047px;font-family:'Palatino Linotype';-inkscape-font-specification:PalatinoLinotype-Italic;writing-mode:lr-tb;fill:#000000;fill-opacity:1;fill-rule:nonzero;stroke:none"
           id="text160"><tspan
             x="0 3.30235 6.6047001 10.276914 11.928088"
             y="0"
             id="tspan158">dyn,1</tspan></text></g></g><g
       id="g162"><g
         id="g164"
         clip-path="url(#clipPath168)"><text
           transform="matrix(1,0,0,-1,328.07172,164.95167)"
           style="font-style:italic;font-variant:normal;font-weight:normal;font-stretch:normal;font-size:11.0078px;font-family:'Palatino Linotype';-inkscape-font-specification:PalatinoLinotype-Italic;writing-mode:lr-tb;fill:#000000;fill-opacity:1;fill-rule:nonzero;stroke:none"
           id="text172"><tspan
             x="0"
             y="0"
             id="tspan170">w</tspan></text></g></g><g
       id="g174"><g
         id="g176"
         clip-path="url(#clipPath180)"><text
           transform="matrix(1,0,0,-1,337.51451,160.40442)"
           style="font-style:italic;font-variant:normal;font-weight:normal;font-stretch:normal;font-size:6.6047px;font-family:'Palatino Linotype';-inkscape-font-specification:PalatinoLinotype-Italic;writing-mode:lr-tb;fill:#000000;fill-opacity:1;fill-rule:nonzero;stroke:none"
           id="text184"><tspan
             x="0 3.30235 6.6047001 10.276914 11.928088"
             y="0"
             id="tspan182">dyn,1</tspan></text></g></g><g
       id="g186"><g
         id="g188"
         clip-path="url(#clipPath192)"><text
           transform="matrix(1,0,0,-1,121.73314,108.94971)"
           style="font-style:italic;font-variant:normal;font-weight:normal;font-stretch:normal;font-size:11.0078px;font-family:'Palatino Linotype';-inkscape-font-specification:PalatinoLinotype-Italic;writing-mode:lr-tb;fill:#000000;fill-opacity:1;fill-rule:nonzero;stroke:none"
           id="text196"><tspan
             x="0"
             y="0"
             id="tspan194">F</tspan></text></g></g><g
       id="g198"><g
         id="g200"
         clip-path="url(#clipPath204)" /></g><g
       id="g206"><g
         id="g208"
         clip-path="url(#clipPath212)"><text
           transform="matrix(1,0,0,-1,129.70606,108.94971)"
           style="font-variant:normal;font-weight:normal;font-stretch:normal;font-size:11.1008px;font-family:'Palatino Linotype';-inkscape-font-specification:PalatinoLinotype-Roman;writing-mode:lr-tb;fill:#000000;fill-opacity:1;fill-rule:nonzero;stroke:none"
           id="text216"><tspan
             x="0"
             y="0"
             id="tspan214">(</tspan></text></g></g><g
       id="g218"><g
         id="g220"
         clip-path="url(#clipPath224)"><text
           transform="matrix(1,0,0,-1,133.47654,108.94971)"
           style="font-style:italic;font-variant:normal;font-weight:normal;font-stretch:normal;font-size:11.0078px;font-family:'Palatino Linotype';-inkscape-font-specification:PalatinoLinotype-Italic;writing-mode:lr-tb;fill:#000000;fill-opacity:1;fill-rule:nonzero;stroke:none"
           id="text228"><tspan
             x="0"
             y="0"
             id="tspan226">t</tspan></text></g></g><g
       id="g230"><g
         id="g232"
         clip-path="url(#clipPath236)"><text
           transform="matrix(1,0,0,-1,137.23902,108.94971)"
           style="font-variant:normal;font-weight:normal;font-stretch:normal;font-size:11.1008px;font-family:'Palatino Linotype';-inkscape-font-specification:PalatinoLinotype-Roman;writing-mode:lr-tb;fill:#000000;fill-opacity:1;fill-rule:nonzero;stroke:none"
           id="text240"><tspan
             x="0"
             y="0"
             id="tspan238">)</tspan></text></g></g><g
       id="g242"><g
         id="g244"
         clip-path="url(#clipPath248)"><text
           transform="matrix(1,0,0,-1,68.64121,12.86565)"
           style="font-variant:normal;font-weight:normal;font-stretch:normal;font-size:11.1008px;font-family:'Palatino Linotype';-inkscape-font-specification:PalatinoLinotype-Roman;writing-mode:lr-tb;fill:#000000;fill-opacity:1;fill-rule:nonzero;stroke:none"
           id="text252"><tspan
             x="0 5.550385 8.3255777 11.10077 17.883341 21.113665 27.285692 32.602962 39.06361 42.760166 48.821186 53.20599"
             y="0"
             id="tspan250">3. Eigenform</tspan></text></g></g><g
       id="g254"><g
         id="g256"
         clip-path="url(#clipPath260)"><text
           transform="matrix(1,0,0,-1,88.2607,39.09341)"
           style="font-style:italic;font-variant:normal;font-weight:normal;font-stretch:normal;font-size:11.0078px;font-family:'Palatino Linotype';-inkscape-font-specification:PalatinoLinotype-Italic;writing-mode:lr-tb;fill:#000000;fill-opacity:1;fill-rule:nonzero;stroke:none"
           id="text264"><tspan
             x="0"
             y="0"
             id="tspan262">w</tspan></text></g></g><g
       id="g266"><g
         id="g268"
         clip-path="url(#clipPath272)"><text
           transform="matrix(1,0,0,-1,97.70349,34.54616)"
           style="font-style:italic;font-variant:normal;font-weight:normal;font-stretch:normal;font-size:6.6047px;font-family:'Palatino Linotype';-inkscape-font-specification:PalatinoLinotype-Italic;writing-mode:lr-tb;fill:#000000;fill-opacity:1;fill-rule:nonzero;stroke:none"
           id="text276"><tspan
             x="0 3.30235 6.6047001 10.276914 11.928088"
             y="0"
             id="tspan274">dyn,3</tspan></text></g></g><g
       id="g278"><g
         id="g280"
         clip-path="url(#clipPath284)"><text
           transform="matrix(1,0,0,-1,301.99299,39.09341)"
           style="font-style:italic;font-variant:normal;font-weight:normal;font-stretch:normal;font-size:11.0078px;font-family:'Palatino Linotype';-inkscape-font-specification:PalatinoLinotype-Italic;writing-mode:lr-tb;fill:#c0c0c0;fill-opacity:1;fill-rule:nonzero;stroke:none"
           id="text288"><tspan
             x="0"
             y="0"
             id="tspan286">w</tspan></text></g></g><g
       id="g290"><g
         id="g292"
         clip-path="url(#clipPath296)"><text
           transform="matrix(1,0,0,-1,311.43576,34.54616)"
           style="font-style:italic;font-variant:normal;font-weight:normal;font-stretch:normal;font-size:6.6047px;font-family:'Palatino Linotype';-inkscape-font-specification:PalatinoLinotype-Italic;writing-mode:lr-tb;fill:#c0c0c0;fill-opacity:1;fill-rule:nonzero;stroke:none"
           id="text300"><tspan
             x="0 3.30235 6.6047001 10.276914 11.928088"
             y="0"
             id="tspan298">dyn,3</tspan></text></g></g><g
       id="g302"><g
         id="g304"
         clip-path="url(#clipPath308)"><text
           transform="matrix(1,0,0,-1,282.37348,12.67077)"
           style="font-style:italic;font-variant:normal;font-weight:normal;font-stretch:normal;font-size:11.0078px;font-family:'Palatino Linotype';-inkscape-font-specification:PalatinoLinotype-Italic;writing-mode:lr-tb;fill:#000000;fill-opacity:1;fill-rule:nonzero;stroke:none"
           id="text312"><tspan
             x="0"
             y="0"
             id="tspan310">F</tspan></text></g></g><g
       id="g314"><g
         id="g316"
         clip-path="url(#clipPath320)"><text
           transform="matrix(1,0,0,-1,288.65165,8.12352)"
           style="font-style:italic;font-variant:normal;font-weight:normal;font-stretch:normal;font-size:6.6047px;font-family:'Palatino Linotype';-inkscape-font-specification:PalatinoLinotype-Italic;writing-mode:lr-tb;fill:#000000;fill-opacity:1;fill-rule:nonzero;stroke:none"
           id="text324"><tspan
             x="0 2.5692284 5.1384568 7.707685"
             y="0"
             id="tspan322">ers </tspan></text></g></g><g
       id="g326"><g
         id="g328"
         clip-path="url(#clipPath332)"><text
           transform="matrix(1,0,0,-1,298.26084,12.67077)"
           style="font-variant:normal;font-weight:normal;font-stretch:normal;font-size:11.1008px;font-family:'Palatino Linotype';-inkscape-font-specification:PalatinoLinotype-Roman;writing-mode:lr-tb;fill:#000000;fill-opacity:1;fill-rule:nonzero;stroke:none"
           id="text336"><tspan
             x="0 3.230324 7.9370503 11.555902 14.331094 20.791742 24.022066 28.950808 35.411457 39.030308 41.8055 51.607479 57.668499 63.840527 67.070854 70.301178 75.229919 81.690567"
             y="0"
             id="tspan334">ist nicht möglich!</tspan></text></g></g><g
       id="g338"><g
         id="g340"
         clip-path="url(#clipPath344)"><text
           transform="matrix(1,0,0,-1,337.54416,108.94971)"
           style="font-style:italic;font-variant:normal;font-weight:normal;font-stretch:normal;font-size:11.0078px;font-family:'Palatino Linotype';-inkscape-font-specification:PalatinoLinotype-Italic;writing-mode:lr-tb;fill:#c0c0c0;fill-opacity:1;fill-rule:nonzero;stroke:none"
           id="text348"><tspan
             x="0"
             y="0"
             id="tspan346">F</tspan></text></g></g><g
       id="g350"><g
         id="g352"
         clip-path="url(#clipPath356)"><text
           transform="matrix(1,0,0,-1,343.84119,104.40246)"
           style="font-style:italic;font-variant:normal;font-weight:normal;font-stretch:normal;font-size:6.6047px;font-family:'Palatino Linotype';-inkscape-font-specification:PalatinoLinotype-Italic;writing-mode:lr-tb;fill:#c0c0c0;fill-opacity:1;fill-rule:nonzero;stroke:none"
           id="text360"><tspan
             x="0 2.5692284 5.1384568"
             y="0"
             id="tspan358">ers</tspan></text></g></g><g
       id="g362"><g
         id="g364"
         clip-path="url(#clipPath368)"><text
           transform="matrix(1,0,0,-1,337.54416,234.80796)"
           style="font-style:italic;font-variant:normal;font-weight:normal;font-stretch:normal;font-size:11.0078px;font-family:'Palatino Linotype';-inkscape-font-specification:PalatinoLinotype-Italic;writing-mode:lr-tb;fill:#000000;fill-opacity:1;fill-rule:nonzero;stroke:none"
           id="text372"><tspan
             x="0"
             y="0"
             id="tspan370">F</tspan></text></g></g><g
       id="g374"><g
         id="g376"
         clip-path="url(#clipPath380)"><text
           transform="matrix(1,0,0,-1,343.84119,230.26072)"
           style="font-style:italic;font-variant:normal;font-weight:normal;font-stretch:normal;font-size:6.6047px;font-family:'Palatino Linotype';-inkscape-font-specification:PalatinoLinotype-Italic;writing-mode:lr-tb;fill:#000000;fill-opacity:1;fill-rule:nonzero;stroke:none"
           id="text384"><tspan
             x="0 2.5692284 5.1384568"
             y="0"
             id="tspan382">ers</tspan></text></g></g><g
       id="g386"><g
         id="g388"
         clip-path="url(#clipPath392)"><text
           transform="matrix(1,0,0,-1,17.41114,55.33543)"
           style="font-style:italic;font-variant:normal;font-weight:normal;font-stretch:normal;font-size:11.0078px;font-family:'Palatino Linotype';-inkscape-font-specification:PalatinoLinotype-Italic;writing-mode:lr-tb;fill:#000000;fill-opacity:1;fill-rule:nonzero;stroke:none"
           id="text396"><tspan
             x="0"
             y="0"
             id="tspan394">y</tspan></text></g></g><g
       id="g398"><g
         id="g400"
         clip-path="url(#clipPath404)"><text
           transform="matrix(1,0,0,-1,57.86789,50.68919)"
           style="font-style:italic;font-variant:normal;font-weight:normal;font-stretch:normal;font-size:11.0078px;font-family:'Palatino Linotype';-inkscape-font-specification:PalatinoLinotype-Italic;writing-mode:lr-tb;fill:#000000;fill-opacity:1;fill-rule:nonzero;stroke:none"
           id="text408"><tspan
             x="0"
             y="0"
             id="tspan406">x</tspan></text></g></g><g
       id="g410"><g
         id="g412"
         clip-path="url(#clipPath416)"><text
           transform="matrix(1,0,0,-1,23.98174,16.4537)"
           style="font-style:italic;font-variant:normal;font-weight:normal;font-stretch:normal;font-size:11.0078px;font-family:'Palatino Linotype';-inkscape-font-specification:PalatinoLinotype-Italic;writing-mode:lr-tb;fill:#000000;fill-opacity:1;fill-rule:nonzero;stroke:none"
           id="text420"><tspan
             x="0"
             y="0"
             id="tspan418">z</tspan></text></g></g><path
       d="m 94.79221,168.77136 19.15716,18.431 m 0.76602,0.737 v 0 m -1.53204,-1.47397 v 0 m 0.029,1.50302 v 0 m 1.47399,-1.53207 v 0"
       style="fill:none;stroke:#000000;stroke-width:0.28346;stroke-linecap:round;stroke-linejoin:round;stroke-miterlimit:10;stroke-dasharray:none;stroke-opacity:1"
       id="path422" /><path
       d="m 114.71539,187.93936 c -0.40703,0.42307 -1.07995,0.43607 -1.50302,0.0291 m 0,0 c -0.42306,-0.40704 -0.43606,-1.07995 -0.029,-1.50302 m 0,0 c 0.40705,-0.42306 1.07996,-0.43606 1.50303,-0.0291 m 0,0 c 0.42306,0.40704 0.43606,1.07996 0.029,1.50302 m 0,0 c 0,0 0,0 0,0"
       style="fill:none;stroke:#000000;stroke-width:0.28346;stroke-linecap:round;stroke-linejoin:round;stroke-miterlimit:10;stroke-dasharray:none;stroke-opacity:1"
       id="path424" /><path
       d="m 113.65909,186.18555 -0.737,0.76602 0.26126,-0.48618 z"
       style="fill:#000000;fill-opacity:1;fill-rule:nonzero;stroke:none"
       id="path426" /><path
       d="m 112.92209,186.95157 0.737,-0.76602 0.54107,-0.0104 -1.27807,0.77646 z"
       style="fill:#000000;fill-opacity:1;fill-rule:nonzero;stroke:none"
       id="path428" /><path
       d="m 112.92209,186.95157 1.27807,-0.77646 -1.26762,1.31757 -0.0105,-0.54111 z"
       style="fill:#000000;fill-opacity:1;fill-rule:nonzero;stroke:none"
       id="path430" /><path
       d="m 112.93254,187.49268 1.26762,-1.31757 0.4862,0.26123 z"
       style="fill:#000000;fill-opacity:1;fill-rule:nonzero;stroke:none"
       id="path432" /><path
       d="m 112.93254,187.49268 1.75382,-1.05634 -1.47399,1.53207 z"
       style="fill:#000000;fill-opacity:1;fill-rule:nonzero;stroke:none"
       id="path434" /><path
       d="m 113.21237,187.96841 1.47399,-1.53207 0.27983,0.47577 z"
       style="fill:#000000;fill-opacity:1;fill-rule:nonzero;stroke:none"
       id="path436" /><path
       d="m 113.21237,187.96841 1.75382,-1.0563 -1.26763,1.31753 z"
       style="fill:#000000;fill-opacity:1;fill-rule:nonzero;stroke:none"
       id="path438" /><path
       d="m 113.69856,188.22964 1.26763,-1.31753 0.0105,0.54108 -1.27808,0.77645 z"
       style="fill:#000000;fill-opacity:1;fill-rule:nonzero;stroke:none"
       id="path440" /><path
       d="m 113.69856,188.22964 1.27808,-0.77645 -0.73699,0.76602 -0.54109,0.0104 z"
       style="fill:#000000;fill-opacity:1;fill-rule:nonzero;stroke:none"
       id="path442" /><path
       d="m 114.23965,188.21921 0.73699,-0.76602 -0.26125,0.48617 z"
       style="fill:#000000;fill-opacity:1;fill-rule:nonzero;stroke:none"
       id="path444" /><path
       d="m 140.71347,168.77136 10.20905,11.08078 m 0.72027,0.78177 v 0 m -1.44055,-1.56354 v 0 m -0.0615,1.50205 v 0 m 1.56353,-1.44055 v 0"
       style="fill:none;stroke:#000000;stroke-width:0.28346;stroke-linecap:round;stroke-linejoin:round;stroke-miterlimit:10;stroke-dasharray:none;stroke-opacity:1"
       id="path446" /><path
       d="m 151.64279,180.63391 c -0.43176,0.3978 -1.10425,0.37027 -1.50204,-0.0615 m 0,0 c -0.3978,-0.43176 -0.37027,-1.10425 0.0615,-1.50205 m 0,0 c 0.43176,-0.39779 1.10425,-0.37027 1.50204,0.0615 m 0,0 c 0.3978,0.43176 0.37027,1.10424 -0.0615,1.50204 m 0,0 c 0,0 0,0 0,0"
       style="fill:none;stroke:#000000;stroke-width:0.28346;stroke-linecap:round;stroke-linejoin:round;stroke-miterlimit:10;stroke-dasharray:none;stroke-opacity:1"
       id="path448" /><path
       d="m 150.69397,178.8197 -0.78177,0.72025 0.29004,-0.46958 z"
       style="fill:#000000;fill-opacity:1;fill-rule:nonzero;stroke:none"
       id="path450" /><path
       d="m 149.9122,179.53995 0.78177,-0.72025 0.54074,0.0221 -1.32251,0.69812 z"
       style="fill:#000000;fill-opacity:1;fill-rule:nonzero;stroke:none"
       id="path452" /><path
       d="m 149.9122,179.53995 1.32251,-0.69812 -1.34463,1.23886 0.0221,-0.54074 z"
       style="fill:#000000;fill-opacity:1;fill-rule:nonzero;stroke:none"
       id="path454" /><path
       d="m 149.89008,180.08069 1.34463,-1.23886 0.46957,0.29004 z"
       style="fill:#000000;fill-opacity:1;fill-rule:nonzero;stroke:none"
       id="path456" /><path
       d="m 149.89008,180.08069 1.8142,-0.94882 -1.56353,1.44055 z"
       style="fill:#000000;fill-opacity:1;fill-rule:nonzero;stroke:none"
       id="path458" /><path
       d="m 150.14075,180.57242 1.56353,-1.44055 0.25068,0.49173 z"
       style="fill:#000000;fill-opacity:1;fill-rule:nonzero;stroke:none"
       id="path460" /><path
       d="m 150.14075,180.57242 1.81421,-0.94882 -1.34464,1.23886 z"
       style="fill:#000000;fill-opacity:1;fill-rule:nonzero;stroke:none"
       id="path462" /><path
       d="m 150.61032,180.86246 1.34464,-1.23886 -0.0221,0.54074 -1.32251,0.69812 z"
       style="fill:#000000;fill-opacity:1;fill-rule:nonzero;stroke:none"
       id="path464" /><path
       d="m 150.61032,180.86246 1.32251,-0.69812 -0.78177,0.72024 -0.54074,-0.0221 z"
       style="fill:#000000;fill-opacity:1;fill-rule:nonzero;stroke:none"
       id="path466" /><path
       d="m 151.15106,180.88458 0.78177,-0.72024 -0.29004,0.46957 z"
       style="fill:#000000;fill-opacity:1;fill-rule:nonzero;stroke:none"
       id="path468" /><path
       d="m 354.44574,168.77136 10.20905,11.08078 m 0.72027,0.78177 v 0 m -1.44055,-1.56354 v 0 m -0.0615,1.50205 v 0 m 1.56353,-1.44055 v 0"
       style="fill:none;stroke:#000000;stroke-width:0.28346;stroke-linecap:round;stroke-linejoin:round;stroke-miterlimit:10;stroke-dasharray:none;stroke-opacity:1"
       id="path470" /><path
       d="m 365.37506,180.63391 c -0.43176,0.3978 -1.10425,0.37027 -1.50204,-0.0615 m 0,0 c -0.3978,-0.43176 -0.37027,-1.10425 0.0615,-1.50205 m 0,0 c 0.43176,-0.39779 1.10425,-0.37027 1.50204,0.0615 m 0,0 c 0.3978,0.43176 0.37027,1.10424 -0.0615,1.50204 m 0,0 c 0,0 0,0 0,0"
       style="fill:none;stroke:#000000;stroke-width:0.28346;stroke-linecap:round;stroke-linejoin:round;stroke-miterlimit:10;stroke-dasharray:none;stroke-opacity:1"
       id="path472" /><path
       d="m 364.42624,178.8197 -0.78177,0.72025 0.29004,-0.46958 z"
       style="fill:#000000;fill-opacity:1;fill-rule:nonzero;stroke:none"
       id="path474" /><path
       d="m 363.64447,179.53995 0.78177,-0.72025 0.54074,0.0221 -1.32251,0.69812 z"
       style="fill:#000000;fill-opacity:1;fill-rule:nonzero;stroke:none"
       id="path476" /><path
       d="m 363.64447,179.53995 1.32251,-0.69812 -1.34464,1.23886 0.0221,-0.54074 z"
       style="fill:#000000;fill-opacity:1;fill-rule:nonzero;stroke:none"
       id="path478" /><path
       d="m 363.62234,180.08069 1.34464,-1.23886 0.46957,0.29004 z"
       style="fill:#000000;fill-opacity:1;fill-rule:nonzero;stroke:none"
       id="path480" /><path
       d="m 363.62234,180.08069 1.81421,-0.94882 -1.56353,1.44055 z"
       style="fill:#000000;fill-opacity:1;fill-rule:nonzero;stroke:none"
       id="path482" /><path
       d="m 363.87302,180.57242 1.56353,-1.44055 0.25068,0.49173 z"
       style="fill:#000000;fill-opacity:1;fill-rule:nonzero;stroke:none"
       id="path484" /><path
       d="m 363.87302,180.57242 1.81421,-0.94882 -1.34464,1.23886 z"
       style="fill:#000000;fill-opacity:1;fill-rule:nonzero;stroke:none"
       id="path486" /><path
       d="m 364.34259,180.86246 1.34464,-1.23886 -0.0221,0.54074 -1.32251,0.69812 z"
       style="fill:#000000;fill-opacity:1;fill-rule:nonzero;stroke:none"
       id="path488" /><path
       d="m 364.34259,180.86246 1.32251,-0.69812 -0.78177,0.72024 -0.54074,-0.0221 z"
       style="fill:#000000;fill-opacity:1;fill-rule:nonzero;stroke:none"
       id="path490" /><path
       d="m 364.88333,180.88458 0.78177,-0.72024 -0.29004,0.46957 z"
       style="fill:#000000;fill-opacity:1;fill-rule:nonzero;stroke:none"
       id="path492" /><path
       d="m 114.63472,42.91309 10.20905,11.08078 m 0.72027,0.78176 v 0 M 124.1235,53.2121 v 0 m -0.0615,1.50204 v 0 m 1.56353,-1.44053 v 0"
       style="fill:none;stroke:#000000;stroke-width:0.28346;stroke-linecap:round;stroke-linejoin:round;stroke-miterlimit:10;stroke-dasharray:none;stroke-opacity:1"
       id="path494" /><path
       d="m 125.56404,54.77563 c -0.43176,0.3978 -1.10425,0.37026 -1.50204,-0.06149 m 0,0 c -0.39778,-0.43176 -0.37026,-1.10425 0.0615,-1.50204 m 0,0 c 0.43177,-0.3978 1.10425,-0.37026 1.50205,0.06151 m 0,0 c 0.39778,0.43174 0.37025,1.10423 -0.0615,1.50202 m 0,0 c 0,0 0,0 0,0"
       style="fill:none;stroke:#000000;stroke-width:0.28346;stroke-linecap:round;stroke-linejoin:round;stroke-miterlimit:10;stroke-dasharray:none;stroke-opacity:1"
       id="path496" /><path
       d="m 124.61522,52.96143 -0.78175,0.72026 0.29003,-0.46959 z"
       style="fill:#000000;fill-opacity:1;fill-rule:nonzero;stroke:none"
       id="path498" /><path
       d="m 123.83347,53.68169 0.78175,-0.72026 0.54074,0.02214 z"
       style="fill:#000000;fill-opacity:1;fill-rule:nonzero;stroke:none"
       id="path500" /><path
       d="m 123.83347,53.68169 1.32249,-0.69812 -1.34463,1.23884 0.0221,-0.54072 z"
       style="fill:#000000;fill-opacity:1;fill-rule:nonzero;stroke:none"
       id="path502" /><path
       d="m 123.81133,54.22241 1.34463,-1.23884 0.46957,0.29004 z"
       style="fill:#000000;fill-opacity:1;fill-rule:nonzero;stroke:none"
       id="path504" /><path
       d="m 123.81133,54.22241 1.8142,-0.9488 -1.56353,1.44053 z"
       style="fill:#000000;fill-opacity:1;fill-rule:nonzero;stroke:none"
       id="path506" /><path
       d="m 124.062,54.71414 1.56353,-1.44053 0.25069,0.49171 z"
       style="fill:#000000;fill-opacity:1;fill-rule:nonzero;stroke:none"
       id="path508" /><path
       d="m 124.062,54.71414 1.81422,-0.94882 -1.34463,1.23886 z"
       style="fill:#000000;fill-opacity:1;fill-rule:nonzero;stroke:none"
       id="path510" /><path
       d="m 124.53159,55.00418 1.34463,-1.23886 -0.0221,0.54074 -1.32249,0.69812 z"
       style="fill:#000000;fill-opacity:1;fill-rule:nonzero;stroke:none"
       id="path512" /><path
       d="m 124.53159,55.00418 1.32249,-0.69812 -0.78177,0.72026 z"
       style="fill:#000000;fill-opacity:1;fill-rule:nonzero;stroke:none"
       id="path514" /><path
       d="m 125.07231,55.02632 0.78177,-0.72026 -0.29004,0.46957 z"
       style="fill:#000000;fill-opacity:1;fill-rule:nonzero;stroke:none"
       id="path516" /><path
       d="m 328.367,42.91309 10.20905,11.08078 m 0.72028,0.78176 v 0 m -1.44056,-1.56353 v 0 m -0.0615,1.50204 v 0 m 1.56354,-1.44053 v 0"
       style="fill:none;stroke:#c0c0c0;stroke-width:0.28346;stroke-linecap:round;stroke-linejoin:round;stroke-miterlimit:10;stroke-dasharray:none;stroke-opacity:1"
       id="path518" /><path
       d="m 339.29633,54.77563 c -0.43177,0.3978 -1.10425,0.37026 -1.50205,-0.06149 m 0,0 c -0.3978,-0.43176 -0.37027,-1.10425 0.0615,-1.50204 m 0,0 c 0.43177,-0.3978 1.10425,-0.37026 1.50205,0.06151 m 0,0 c 0.3978,0.43174 0.37027,1.10423 -0.0615,1.50202 m 0,0 c 0,0 0,0 0,0"
       style="fill:none;stroke:#c0c0c0;stroke-width:0.28346;stroke-linecap:round;stroke-linejoin:round;stroke-miterlimit:10;stroke-dasharray:none;stroke-opacity:1"
       id="path520" /><path
       d="m 338.3475,52.96143 -0.78177,0.72026 0.29004,-0.46959 z"
       style="fill:#c0c0c0;fill-opacity:1;fill-rule:nonzero;stroke:none"
       id="path522" /><path
       d="m 337.56573,53.68169 0.78177,-0.72026 0.54074,0.02214 z"
       style="fill:#c0c0c0;fill-opacity:1;fill-rule:nonzero;stroke:none"
       id="path524" /><path
       d="m 337.56573,53.68169 1.32251,-0.69812 -1.34466,1.23884 0.0221,-0.54072 z"
       style="fill:#c0c0c0;fill-opacity:1;fill-rule:nonzero;stroke:none"
       id="path526" /><path
       d="m 337.54358,54.22241 1.34466,-1.23884 0.46958,0.29004 z"
       style="fill:#c0c0c0;fill-opacity:1;fill-rule:nonzero;stroke:none"
       id="path528" /><path
       d="m 337.54358,54.22241 1.81424,-0.9488 -1.56354,1.44053 z"
       style="fill:#c0c0c0;fill-opacity:1;fill-rule:nonzero;stroke:none"
       id="path530" /><path
       d="m 337.79428,54.71414 1.56354,-1.44053 0.25067,0.49171 z"
       style="fill:#c0c0c0;fill-opacity:1;fill-rule:nonzero;stroke:none"
       id="path532" /><path
       d="m 337.79428,54.71414 1.81421,-0.94882 -1.34464,1.23886 z"
       style="fill:#c0c0c0;fill-opacity:1;fill-rule:nonzero;stroke:none"
       id="path534" /><path
       d="m 338.26385,55.00418 1.34464,-1.23886 -0.0221,0.54074 -1.32251,0.69812 z"
       style="fill:#c0c0c0;fill-opacity:1;fill-rule:nonzero;stroke:none"
       id="path536" /><path
       d="m 338.26385,55.00418 1.32251,-0.69812 -0.78176,0.72026 z"
       style="fill:#c0c0c0;fill-opacity:1;fill-rule:nonzero;stroke:none"
       id="path538" /><path
       d="m 338.8046,55.02632 0.78176,-0.72026 -0.29003,0.46957 z"
       style="fill:#c0c0c0;fill-opacity:1;fill-rule:nonzero;stroke:none"
       id="path540" /></g></svg>
