<?xml version="1.0" encoding="UTF-8" standalone="no"?>
<svg
   xmlns:dc="http://purl.org/dc/elements/1.1/"
   xmlns:cc="http://creativecommons.org/ns#"
   xmlns:rdf="http://www.w3.org/1999/02/22-rdf-syntax-ns#"
   xmlns:svg="http://www.w3.org/2000/svg"
   xmlns="http://www.w3.org/2000/svg"
   version="1.1"
   id="svg2"
   xml:space="preserve"
   width="566.92932"
   height="359.05466"
   viewBox="0 0 566.92932 359.05466"><metadata
     id="metadata8"><rdf:RDF><cc:Work
         rdf:about=""><dc:format>image/svg+xml</dc:format><dc:type
           rdf:resource="http://purl.org/dc/dcmitype/StillImage" /></cc:Work></rdf:RDF></metadata><defs
     id="defs6"><clipPath
       clipPathUnits="userSpaceOnUse"
       id="clipPath36"><path
         d="M -0.00426,-0.00269 V 269.29404 H 425.20111 V -0.00269 H -0.00426"
         clip-rule="evenodd"
         id="path34" /></clipPath><clipPath
       clipPathUnits="userSpaceOnUse"
       id="clipPath48"><path
         d="M -0.00426,-0.00269 V 269.29404 H 425.20111 V -0.00269 H -0.00426"
         clip-rule="evenodd"
         id="path46" /></clipPath><clipPath
       clipPathUnits="userSpaceOnUse"
       id="clipPath60"><path
         d="M -0.00426,-0.00269 V 269.29404 H 425.20111 V -0.00269 H -0.00426"
         clip-rule="evenodd"
         id="path58" /></clipPath><clipPath
       clipPathUnits="userSpaceOnUse"
       id="clipPath72"><path
         d="M -0.00426,-0.00269 V 269.29404 H 425.20111 V -0.00269 H -0.00426"
         clip-rule="evenodd"
         id="path70" /></clipPath><clipPath
       clipPathUnits="userSpaceOnUse"
       id="clipPath84"><path
         d="M -0.00426,-0.00269 V 269.29404 H 425.20111 V -0.00269 H -0.00426"
         clip-rule="evenodd"
         id="path82" /></clipPath><clipPath
       clipPathUnits="userSpaceOnUse"
       id="clipPath96"><path
         d="M -0.00426,-0.00269 V 269.29404 H 425.20111 V -0.00269 H -0.00426"
         clip-rule="evenodd"
         id="path94" /></clipPath></defs><g
     id="g10"
     transform="matrix(1.3333333,0,0,-1.3333333,0,359.05467)"><path
       d="m 204.4252,44.23312 h 185.95273 -4.25195 m 4.25195,0 v 0 l -3.40155,1.95591 m 0,-3.91181 3.40155,1.9559"
       style="fill:none;stroke:#000000;stroke-width:0.28346;stroke-linecap:round;stroke-linejoin:round;stroke-miterlimit:10;stroke-dasharray:none;stroke-opacity:1"
       id="path12" /><path
       d="m 204.4252,44.23312 5.52658,20.90313"
       style="fill:none;stroke:#000000;stroke-width:0.85039;stroke-linecap:round;stroke-linejoin:round;stroke-miterlimit:10;stroke-dasharray:none;stroke-opacity:1"
       id="path14" /><path
       d="M 204.4252,81.08351 V 7.38274"
       style="fill:none;stroke:#000000;stroke-width:0.28346;stroke-linecap:round;stroke-linejoin:round;stroke-miterlimit:10;stroke-dasharray:none;stroke-opacity:1"
       id="path16" /><path
       d="m 209.95178,65.13625 4.5835,-53.13128 7.11062,39.14701 5.68854,-12.6006 m 13.07462,-3.55532 2.60724,10.94144 4.97744,-3.35675 3.0813,13.07463 8.29572,-16.39293 v 6.23622 l 4.97748,-4.10302 3.08126,2.8827 2.84427,-2.64569 6.07929,43.88744 m 5.40024,-44.83553 4.74041,7.62314 M 276.35306,85.5201 281.7533,40.68457 m 18.07449,5.96399 4.05182,-2.24918 5.92554,9.77115 3.06646,-12.80058 3.55533,4.54185 5.21448,-16.39292 3.5553,25.87379 6.63662,-33.45848 5.21445,41.51721 7.58472,-47.44275 5.45147,49.57594 7.82172,-46.9687 m -71.41199,29.69182 9.59299,-41.51721 3.74109,39.85806 m -72.49335,-8.09718 8.2637,33.93254 4.81092,-37.48786 m 117.49664,-16.38017 3.52246,28.10677 2.96277,-7.91942 5.03671,16.21518 2.96277,-20.06678 4.74045,10.88219"
       style="fill:none;stroke:#000000;stroke-width:0.85039;stroke-linecap:round;stroke-linejoin:round;stroke-miterlimit:10;stroke-dasharray:none;stroke-opacity:1"
       id="path18" /><path
       d="m 204.4252,134.9418 h 185.95273 -4.25195 m 4.25195,0 v 0 l -3.40155,1.95591 m 0,-3.91181 3.40155,1.9559"
       style="fill:none;stroke:#000000;stroke-width:0.28346;stroke-linecap:round;stroke-linejoin:round;stroke-miterlimit:10;stroke-dasharray:none;stroke-opacity:1"
       id="path20" /><path
       d="m 244.34305,134.9418 h 30.04724 m 39.91785,0 h 30.04724 m -139.93018,0 7.42505,17.28119 2.5788,-5.00589 2.27539,10.01178 3.94403,-11.68042 v 6.80316 l 2.4053,-5.61233 3.17853,6.01321 2.83466,-5.10238 3.14059,9.99441 v -9.07086 l 2.23294,5.09039 1.65042,-4.56292 2.23294,4.07751 6.0192,-18.23685 m 30.04724,0 7.42505,17.28119 2.57879,-5.00589 2.2754,10.01178 3.94403,-11.68042 v 6.80316 l 2.40527,-5.61233 3.17856,6.01321 2.83465,-5.10238 3.1406,9.99441 v -9.07086 l 2.23291,5.09039 1.65045,-4.56292 2.23291,4.07751 6.01923,-18.23685 m 30.04724,0 7.42505,17.28119 2.57879,-5.00589 2.27539,10.01178 3.94403,-11.68042 v 6.80316 l 2.40528,-5.61233 3.17856,6.01321 2.83465,-5.10238 3.1406,9.99441 v -9.07086 l 2.23294,5.09039 1.65042,-4.56292 2.23291,4.07751 6.01922,-18.23685"
       style="fill:none;stroke:#000000;stroke-width:0.85039;stroke-linecap:round;stroke-linejoin:round;stroke-miterlimit:10;stroke-dasharray:none;stroke-opacity:1"
       id="path22" /><path
       d="m 204.4252,171.79218 v -73.7008 m 0,127.55907 h 185.95273 -4.25195 m 4.25195,0 v 0 l -3.40155,1.9559 m 0,-3.9118 3.40155,1.9559 M 204.4252,262.50082 v -73.70077"
       style="fill:none;stroke:#000000;stroke-width:0.28346;stroke-linecap:round;stroke-linejoin:round;stroke-miterlimit:10;stroke-dasharray:none;stroke-opacity:1"
       id="path24" /><path
       d="m 204.4252,225.65045 4.25195,9.36762 4.25199,8.17175 2.12597,3.2637 2.12598,2.51633 2.12601,1.61938 2.12597,0.57303 2.12598,-0.57303 2.12598,-1.61938 2.12601,-2.51633 2.12597,-3.2637 4.25195,-8.17175 4.25199,-9.36762 4.25195,-9.36761 4.25199,-8.17176 2.12597,-3.26373 2.12598,-2.5163 2.12601,-1.61938 2.12597,-0.57303 2.12598,0.57303 2.12598,1.61938 2.12597,2.5163 2.12601,3.26373 4.25195,8.17176 4.25199,9.36761 4.25195,9.36762 4.25198,8.17175 2.12598,3.2637 2.12598,2.51633 2.12597,1.61938 2.12601,0.57303 2.12598,-0.57303 2.12597,-1.61938 2.12598,-2.51633 2.12601,-3.2637 4.25195,-8.17175 4.25198,-9.36762 4.25196,-9.36761 4.25198,-8.17176 2.12598,-3.26373 2.12597,-2.5163 2.12598,-1.61938 2.12601,-0.57303 2.12597,0.57303 2.12598,1.61938 2.12598,2.5163 2.126,3.26373 4.25196,8.17176 4.25198,9.36761 4.25195,9.36762 4.25199,8.17175"
       style="fill:none;stroke:#000000;stroke-width:0.85039;stroke-linecap:round;stroke-linejoin:round;stroke-miterlimit:10;stroke-dasharray:none;stroke-opacity:1"
       id="path26" /><path
       d="m 348.99213,243.18982 2.12597,3.2637 2.12598,2.51633 2.12601,1.61938 2.12597,0.57303 2.12598,-0.57303 2.12598,-1.61938 2.126,-2.51633 2.12598,-3.2637 4.25195,-8.17175 4.25199,-9.36762"
       style="fill:none;stroke:#000000;stroke-width:0.85039;stroke-linecap:round;stroke-linejoin:round;stroke-miterlimit:10;stroke-dasharray:none;stroke-opacity:1"
       id="path28" /><g
       id="g30"><g
         id="g32"
         clip-path="url(#clipPath36)"><text
           transform="matrix(1,0,0,-1,394.34646,40.33548)"
           style="font-style:italic;font-variant:normal;font-weight:normal;font-stretch:normal;font-size:11.0078px;font-family:'Palatino Linotype';-inkscape-font-specification:PalatinoLinotype-Italic;writing-mode:lr-tb;fill:#000000;fill-opacity:1;fill-rule:nonzero;stroke:none"
           id="text40"><tspan
             x="0"
             y="0"
             id="tspan38">t</tspan></text></g></g><g
       id="g42"><g
         id="g44"
         clip-path="url(#clipPath48)"><text
           transform="matrix(1,0,0,-1,394.34646,131.04414)"
           style="font-style:italic;font-variant:normal;font-weight:normal;font-stretch:normal;font-size:11.0078px;font-family:'Palatino Linotype';-inkscape-font-specification:PalatinoLinotype-Italic;writing-mode:lr-tb;fill:#000000;fill-opacity:1;fill-rule:nonzero;stroke:none"
           id="text52"><tspan
             x="0"
             y="0"
             id="tspan50">t</tspan></text></g></g><g
       id="g54"><g
         id="g56"
         clip-path="url(#clipPath60)"><text
           transform="matrix(1,0,0,-1,394.34646,221.7528)"
           style="font-style:italic;font-variant:normal;font-weight:normal;font-stretch:normal;font-size:11.0078px;font-family:'Palatino Linotype';-inkscape-font-specification:PalatinoLinotype-Italic;writing-mode:lr-tb;fill:#000000;fill-opacity:1;fill-rule:nonzero;stroke:none"
           id="text64"><tspan
             x="0"
             y="0"
             id="tspan62">t</tspan></text></g></g><g
       id="g66"><g
         id="g68"
         clip-path="url(#clipPath72)"><text
           transform="matrix(1,0,0,-1,27.54331,40.33548)"
           style="font-variant:normal;font-weight:normal;font-stretch:normal;font-size:11.1008px;font-family:'Palatino Linotype';-inkscape-font-specification:PalatinoLinotype-Roman;writing-mode:lr-tb;fill:#000000;fill-opacity:1;fill-rule:nonzero;stroke:none"
           id="text76"><tspan
             x="0 6.7825704 11.167375 15.874101 20.802843 27.263491 33.957256 37.576107 41.194958 46.512226 50.89703 57.590794 64.051445"
             y="0"
             id="tspan74">Erschütterung</tspan></text></g></g><g
       id="g78"><g
         id="g80"
         clip-path="url(#clipPath84)"><text
           transform="matrix(1,0,0,-1,27.54331,131.04414)"
           style="font-variant:normal;font-weight:normal;font-stretch:normal;font-size:11.1008px;font-family:'Palatino Linotype';-inkscape-font-specification:PalatinoLinotype-Roman;writing-mode:lr-tb;fill:#000000;fill-opacity:1;fill-rule:nonzero;stroke:none"
           id="text88"><tspan
             x="0 5.8279042 9.4467554 15.507775 20.214502 24.921228"
             y="0"
             id="tspan86">Stösse</tspan></text></g></g><g
       id="g90"><g
         id="g92"
         clip-path="url(#clipPath96)"><text
           transform="matrix(1,0,0,-1,27.54331,221.7528)"
           style="font-variant:normal;font-weight:normal;font-stretch:normal;font-size:11.1008px;font-family:'Palatino Linotype';-inkscape-font-specification:PalatinoLinotype-Roman;writing-mode:lr-tb;fill:#000000;fill-opacity:1;fill-rule:nonzero;stroke:none"
           id="text100"><tspan
             x="0 5.8279042 10.756646 17.217295 26.475336 29.70566 36.166309 42.338337 49.032101 55.492748 61.664776 66.982048"
             y="0"
             id="tspan98">Schwingungen</tspan></text></g></g></g></svg>
