<?xml version="1.0" encoding="UTF-8" standalone="no"?>
<svg
   xmlns:dc="http://purl.org/dc/elements/1.1/"
   xmlns:cc="http://creativecommons.org/ns#"
   xmlns:rdf="http://www.w3.org/1999/02/22-rdf-syntax-ns#"
   xmlns:svg="http://www.w3.org/2000/svg"
   xmlns="http://www.w3.org/2000/svg"
   version="1.1"
   id="svg2"
   xml:space="preserve"
   width="566.92932"
   height="264.56668"
   viewBox="0 0 566.92932 264.56668"><metadata
     id="metadata8"><rdf:RDF><cc:Work
         rdf:about=""><dc:format>image/svg+xml</dc:format><dc:type
           rdf:resource="http://purl.org/dc/dcmitype/StillImage" /></cc:Work></rdf:RDF></metadata><defs
     id="defs6"><clipPath
       clipPathUnits="userSpaceOnUse"
       id="clipPath144"><path
         d="M -0.00426,-0.00198 V 198.42719 H 425.20111 V -0.00198 H -0.00426"
         clip-rule="evenodd"
         id="path142" /></clipPath><clipPath
       clipPathUnits="userSpaceOnUse"
       id="clipPath156"><path
         d="M -0.00426,-0.00198 V 198.42719 H 425.20111 V -0.00198 H -0.00426"
         clip-rule="evenodd"
         id="path154" /></clipPath><clipPath
       clipPathUnits="userSpaceOnUse"
       id="clipPath168"><path
         d="M -0.00426,-0.00198 V 198.42719 H 425.20111 V -0.00198 H -0.00426"
         clip-rule="evenodd"
         id="path166" /></clipPath><clipPath
       clipPathUnits="userSpaceOnUse"
       id="clipPath180"><path
         d="M -0.00426,-0.00198 V 198.42719 H 425.20111 V -0.00198 H -0.00426"
         clip-rule="evenodd"
         id="path178" /></clipPath><clipPath
       clipPathUnits="userSpaceOnUse"
       id="clipPath192"><path
         d="M -0.00426,-0.00198 V 198.42719 H 425.20111 V -0.00198 H -0.00426"
         clip-rule="evenodd"
         id="path190" /></clipPath><clipPath
       clipPathUnits="userSpaceOnUse"
       id="clipPath204"><path
         d="M -0.00426,-0.00198 V 198.42719 H 425.20111 V -0.00198 H -0.00426"
         clip-rule="evenodd"
         id="path202" /></clipPath><clipPath
       clipPathUnits="userSpaceOnUse"
       id="clipPath216"><path
         d="M -0.00426,-0.00198 V 198.42719 H 425.20111 V -0.00198 H -0.00426"
         clip-rule="evenodd"
         id="path214" /></clipPath><clipPath
       clipPathUnits="userSpaceOnUse"
       id="clipPath228"><path
         d="M -0.00426,-0.00198 V 198.42719 H 425.20111 V -0.00198 H -0.00426"
         clip-rule="evenodd"
         id="path226" /></clipPath><clipPath
       clipPathUnits="userSpaceOnUse"
       id="clipPath240"><path
         d="M -0.00426,-0.00198 V 198.42719 H 425.20111 V -0.00198 H -0.00426"
         clip-rule="evenodd"
         id="path238" /></clipPath><clipPath
       clipPathUnits="userSpaceOnUse"
       id="clipPath252"><path
         d="M -0.00426,-0.00198 V 198.42719 H 425.20111 V -0.00198 H -0.00426"
         clip-rule="evenodd"
         id="path250" /></clipPath><clipPath
       clipPathUnits="userSpaceOnUse"
       id="clipPath264"><path
         d="M -0.00426,-0.00198 V 198.42719 H 425.20111 V -0.00198 H -0.00426"
         clip-rule="evenodd"
         id="path262" /></clipPath><clipPath
       clipPathUnits="userSpaceOnUse"
       id="clipPath276"><path
         d="M -0.00426,-0.00198 V 198.42719 H 425.20111 V -0.00198 H -0.00426"
         clip-rule="evenodd"
         id="path274" /></clipPath><clipPath
       clipPathUnits="userSpaceOnUse"
       id="clipPath288"><path
         d="M -0.00426,-0.00198 V 198.42719 H 425.20111 V -0.00198 H -0.00426"
         clip-rule="evenodd"
         id="path286" /></clipPath><clipPath
       clipPathUnits="userSpaceOnUse"
       id="clipPath300"><path
         d="M -0.00426,-0.00198 V 198.42719 H 425.20111 V -0.00198 H -0.00426"
         clip-rule="evenodd"
         id="path298" /></clipPath><clipPath
       clipPathUnits="userSpaceOnUse"
       id="clipPath312"><path
         d="M -0.00426,-0.00198 V 198.42719 H 425.20111 V -0.00198 H -0.00426"
         clip-rule="evenodd"
         id="path310" /></clipPath><clipPath
       clipPathUnits="userSpaceOnUse"
       id="clipPath324"><path
         d="M -0.00426,-0.00198 V 198.42719 H 425.20111 V -0.00198 H -0.00426"
         clip-rule="evenodd"
         id="path322" /></clipPath><clipPath
       clipPathUnits="userSpaceOnUse"
       id="clipPath336"><path
         d="M -0.00426,-0.00198 V 198.42719 H 425.20111 V -0.00198 H -0.00426"
         clip-rule="evenodd"
         id="path334" /></clipPath><clipPath
       clipPathUnits="userSpaceOnUse"
       id="clipPath348"><path
         d="M -0.00426,-0.00198 V 198.42719 H 425.20111 V -0.00198 H -0.00426"
         clip-rule="evenodd"
         id="path346" /></clipPath><clipPath
       clipPathUnits="userSpaceOnUse"
       id="clipPath360"><path
         d="M -0.00426,-0.00198 V 198.42719 H 425.20111 V -0.00198 H -0.00426"
         clip-rule="evenodd"
         id="path358" /></clipPath><clipPath
       clipPathUnits="userSpaceOnUse"
       id="clipPath372"><path
         d="M -0.00426,-0.00198 V 198.42719 H 425.20111 V -0.00198 H -0.00426"
         clip-rule="evenodd"
         id="path370" /></clipPath><clipPath
       clipPathUnits="userSpaceOnUse"
       id="clipPath384"><path
         d="M -0.00426,-0.00198 V 198.42719 H 425.20111 V -0.00198 H -0.00426"
         clip-rule="evenodd"
         id="path382" /></clipPath><clipPath
       clipPathUnits="userSpaceOnUse"
       id="clipPath396"><path
         d="M -0.00426,-0.00198 V 198.42719 H 425.20111 V -0.00198 H -0.00426"
         clip-rule="evenodd"
         id="path394" /></clipPath></defs><g
     id="g10"
     transform="matrix(1.3333333,0,0,-1.3333333,0,264.56667)"><path
       d="m 262.3923,69.31149 c 0,31.31064 -25.38229,56.69292 -56.6929,56.69292 m 0,0 c -31.31064,0 -56.69293,-25.38228 -56.69293,-56.69292 m 0,0 c 0,-31.31062 25.38229,-56.69291 56.69293,-56.69291 m 0,0 c 31.31061,0 56.6929,25.38229 56.6929,56.69291"
       style="fill:none;stroke:#000000;stroke-width:0.28346;stroke-linecap:round;stroke-linejoin:round;stroke-miterlimit:10;stroke-dasharray:none;stroke-opacity:1"
       id="path12" /><path
       d="m 205.6994,69.31149 33.59439,45.6673 M 206.32928,70.16776 v 0 m -1.25979,-1.71251 v 0 m -0.22635,1.48614 v 0 m 1.71249,-1.25978 v 0"
       style="fill:none;stroke:#000000;stroke-width:0.28346;stroke-linecap:round;stroke-linejoin:round;stroke-miterlimit:10;stroke-dasharray:none;stroke-opacity:1"
       id="path14" /><path
       d="m 206.32928,70.16776 c -0.4729,0.34788 -1.13827,0.24653 -1.48614,-0.22637 m 0,0 c -0.3479,-0.4729 -0.24655,-1.13827 0.22635,-1.48616 m 0,0 c 0.4729,-0.34788 1.13827,-0.24654 1.48617,0.22636 m 0,0 c 0.34787,0.47291 0.24653,1.13828 -0.22638,1.48617 m 0,0 c 0,0 0,0 0,0"
       style="fill:none;stroke:#000000;stroke-width:0.28346;stroke-linecap:round;stroke-linejoin:round;stroke-miterlimit:10;stroke-dasharray:none;stroke-opacity:1"
       id="path16" /><path
       d="m 205.58582,68.26018 -0.85627,0.62988 0.33994,-0.43481 z"
       style="fill:#000000;fill-opacity:1;fill-rule:nonzero;stroke:none"
       id="path18" /><path
       d="m 204.72955,68.89006 0.85627,-0.62988 0.535,0.08148 z"
       style="fill:#000000;fill-opacity:1;fill-rule:nonzero;stroke:none"
       id="path20" /><path
       d="m 204.72955,68.89006 1.39127,-0.5484 -1.47275,1.08342 0.0815,-0.53502 z"
       style="fill:#000000;fill-opacity:1;fill-rule:nonzero;stroke:none"
       id="path22" /><path
       d="m 204.64807,69.42508 1.47275,-1.08342 0.43481,0.33995 z"
       style="fill:#000000;fill-opacity:1;fill-rule:nonzero;stroke:none"
       id="path24" /><path
       d="m 204.64807,69.42508 1.90756,-0.74347 -1.71249,1.25978 z"
       style="fill:#000000;fill-opacity:1;fill-rule:nonzero;stroke:none"
       id="path26" /><path
       d="m 204.84314,69.94139 1.71249,-1.25978 0.1951,0.51631 z"
       style="fill:#000000;fill-opacity:1;fill-rule:nonzero;stroke:none"
       id="path28" /><path
       d="m 204.84314,69.94139 1.90759,-0.74347 -1.47278,1.08342 z"
       style="fill:#000000;fill-opacity:1;fill-rule:nonzero;stroke:none"
       id="path30" /><path
       d="m 205.27795,70.28134 1.47278,-1.08342 -0.0815,0.53502 -1.39127,0.5484 z"
       style="fill:#000000;fill-opacity:1;fill-rule:nonzero;stroke:none"
       id="path32" /><path
       d="m 205.27795,70.28134 1.39127,-0.5484 -0.85626,0.62988 z"
       style="fill:#000000;fill-opacity:1;fill-rule:nonzero;stroke:none"
       id="path34" /><path
       d="m 205.81296,70.36282 0.85626,-0.62988 -0.33994,0.43482 z"
       style="fill:#000000;fill-opacity:1;fill-rule:nonzero;stroke:none"
       id="path36" /><path
       d="m 239.92371,115.83505 v 0 m -1.2598,-1.71251 v 0 m -0.22638,1.48615 v 0 m 1.71252,-1.25978 v 0"
       style="fill:none;stroke:#000000;stroke-width:0.28346;stroke-linecap:round;stroke-linejoin:round;stroke-miterlimit:10;stroke-dasharray:none;stroke-opacity:1"
       id="path38" /><path
       d="m 239.92371,115.83505 c -0.4729,0.34789 -1.13828,0.24654 -1.48618,-0.22636 m 0,0 c -0.34787,-0.4729 -0.24652,-1.13828 0.22638,-1.48616 m 0,0 c 0.4729,-0.34789 1.13828,-0.24654 1.48614,0.22636 m 0,0 c 0.34791,0.4729 0.24656,1.13828 -0.22634,1.48616 m 0,0 c 0,0 0,0 0,0"
       style="fill:none;stroke:#000000;stroke-width:0.28346;stroke-linecap:round;stroke-linejoin:round;stroke-miterlimit:10;stroke-dasharray:none;stroke-opacity:1"
       id="path40" /><path
       d="m 239.18021,113.92747 -0.85624,0.62989 0.33994,-0.43482 z"
       style="fill:#000000;fill-opacity:1;fill-rule:nonzero;stroke:none"
       id="path42" /><path
       d="m 238.32397,114.55736 0.85624,-0.62989 0.53503,0.0815 -1.39127,0.5484 z"
       style="fill:#000000;fill-opacity:1;fill-rule:nonzero;stroke:none"
       id="path44" /><path
       d="m 238.32397,114.55736 1.39127,-0.5484 -1.47278,1.08342 0.0815,-0.53502 z"
       style="fill:#000000;fill-opacity:1;fill-rule:nonzero;stroke:none"
       id="path46" /><path
       d="m 238.24246,115.09238 1.47278,-1.08342 0.43481,0.33995 z"
       style="fill:#000000;fill-opacity:1;fill-rule:nonzero;stroke:none"
       id="path48" /><path
       d="m 238.24246,115.09238 1.90759,-0.74347 -1.71252,1.25978 z"
       style="fill:#000000;fill-opacity:1;fill-rule:nonzero;stroke:none"
       id="path50" /><path
       d="m 238.43753,115.60869 1.71252,-1.25978 0.19507,0.51631 z"
       style="fill:#000000;fill-opacity:1;fill-rule:nonzero;stroke:none"
       id="path52" /><path
       d="m 238.43753,115.60869 1.90759,-0.74347 -1.47274,1.08342 z"
       style="fill:#000000;fill-opacity:1;fill-rule:nonzero;stroke:none"
       id="path54" /><path
       d="m 238.87238,115.94864 1.47274,-1.08342 -0.0815,0.53502 -1.39126,0.5484 z"
       style="fill:#000000;fill-opacity:1;fill-rule:nonzero;stroke:none"
       id="path56" /><path
       d="m 238.87238,115.94864 1.39126,-0.5484 -0.85626,0.62988 -0.535,-0.0815 z"
       style="fill:#000000;fill-opacity:1;fill-rule:nonzero;stroke:none"
       id="path58" /><path
       d="m 239.40738,116.03012 0.85626,-0.62988 -0.33993,0.43481 z"
       style="fill:#000000;fill-opacity:1;fill-rule:nonzero;stroke:none"
       id="path60" /><path
       d="m 205.6994,69.31149 h 56.6929 m -55.62991,0 v 0 m -2.12598,0 v 0 m 1.06299,1.06299 v 0 m 0,-2.12598 v 0"
       style="fill:none;stroke:#000000;stroke-width:0.28346;stroke-linecap:round;stroke-linejoin:round;stroke-miterlimit:10;stroke-dasharray:none;stroke-opacity:1"
       id="path62" /><path
       d="m 206.76239,69.31149 c 0,0.58708 -0.47592,1.06299 -1.06299,1.06299 m 0,0 c -0.5871,0 -1.06299,-0.47591 -1.06299,-1.06299 m 0,0 c 0,-0.58706 0.47589,-1.06299 1.06299,-1.06299 m 0,0 c 0.58707,0 1.06299,0.47593 1.06299,1.06299 m 0,0 c 0,0 0,0 0,0"
       style="fill:none;stroke:#000000;stroke-width:0.28346;stroke-linecap:round;stroke-linejoin:round;stroke-miterlimit:10;stroke-dasharray:none;stroke-opacity:1"
       id="path64" /><path
       d="m 204.78522,68.78 v 1.06299 l -0.14881,-0.5315 z"
       style="fill:#000000;fill-opacity:1;fill-rule:nonzero;stroke:none"
       id="path66" /><path
       d="M 204.78522,69.84299 V 68.78 l 0.38269,-0.38268 z"
       style="fill:#000000;fill-opacity:1;fill-rule:nonzero;stroke:none"
       id="path68" /><path
       d="m 204.78522,69.84299 0.38269,-1.44567 v 1.82834 z"
       style="fill:#000000;fill-opacity:1;fill-rule:nonzero;stroke:none"
       id="path70" /><path
       d="M 205.16791,70.22566 V 68.39732 L 205.6994,68.2485 Z"
       style="fill:#000000;fill-opacity:1;fill-rule:nonzero;stroke:none"
       id="path72" /><path
       d="m 205.16791,70.22566 0.53149,-1.97716 v 2.12598 z"
       style="fill:#000000;fill-opacity:1;fill-rule:nonzero;stroke:none"
       id="path74" /><path
       d="M 205.6994,70.37448 V 68.2485 l 0.5315,0.14882 z"
       style="fill:#000000;fill-opacity:1;fill-rule:nonzero;stroke:none"
       id="path76" /><path
       d="m 205.6994,70.37448 0.5315,-1.97716 v 1.82834 z"
       style="fill:#000000;fill-opacity:1;fill-rule:nonzero;stroke:none"
       id="path78" /><path
       d="M 206.2309,70.22566 V 68.39732 L 206.61356,68.78 Z"
       style="fill:#000000;fill-opacity:1;fill-rule:nonzero;stroke:none"
       id="path80" /><path
       d="M 206.2309,70.22566 206.61356,68.78 v 1.06299 z"
       style="fill:#000000;fill-opacity:1;fill-rule:nonzero;stroke:none"
       id="path82" /><path
       d="M 206.61356,69.84299 V 68.78 l 0.14883,0.53149 z"
       style="fill:#000000;fill-opacity:1;fill-rule:nonzero;stroke:none"
       id="path84" /><path
       d="m 263.45529,69.31149 v 0 m -2.12597,0 v 0 m 1.06298,1.06299 v 0 m 0,-2.12598 v 0"
       style="fill:none;stroke:#000000;stroke-width:0.28346;stroke-linecap:round;stroke-linejoin:round;stroke-miterlimit:10;stroke-dasharray:none;stroke-opacity:1"
       id="path86" /><path
       d="m 263.45529,69.31149 c 0,0.58708 -0.47592,1.06299 -1.06299,1.06299 m 0,0 c -0.58709,0 -1.06298,-0.47591 -1.06298,-1.06299 m 0,0 c 0,-0.58706 0.47589,-1.06299 1.06298,-1.06299 m 0,0 c 0.58707,0 1.06299,0.47593 1.06299,1.06299 m 0,0 c 0,0 0,0 0,0"
       style="fill:none;stroke:#000000;stroke-width:0.28346;stroke-linecap:round;stroke-linejoin:round;stroke-miterlimit:10;stroke-dasharray:none;stroke-opacity:1"
       id="path88" /><path
       d="m 261.47812,68.78 v 1.06299 l -0.1488,-0.5315 z"
       style="fill:#000000;fill-opacity:1;fill-rule:nonzero;stroke:none"
       id="path90" /><path
       d="M 261.47812,69.84299 V 68.78 l 0.38269,-0.38268 z"
       style="fill:#000000;fill-opacity:1;fill-rule:nonzero;stroke:none"
       id="path92" /><path
       d="m 261.47812,69.84299 0.38269,-1.44567 v 1.82834 z"
       style="fill:#000000;fill-opacity:1;fill-rule:nonzero;stroke:none"
       id="path94" /><path
       d="M 261.86081,70.22566 V 68.39732 L 262.3923,68.2485 Z"
       style="fill:#000000;fill-opacity:1;fill-rule:nonzero;stroke:none"
       id="path96" /><path
       d="m 261.86081,70.22566 0.53149,-1.97716 v 2.12598 z"
       style="fill:#000000;fill-opacity:1;fill-rule:nonzero;stroke:none"
       id="path98" /><path
       d="M 262.3923,70.37448 V 68.2485 l 0.5315,0.14882 z"
       style="fill:#000000;fill-opacity:1;fill-rule:nonzero;stroke:none"
       id="path100" /><path
       d="m 262.3923,70.37448 0.5315,-1.97716 v 1.82834 z"
       style="fill:#000000;fill-opacity:1;fill-rule:nonzero;stroke:none"
       id="path102" /><path
       d="M 262.9238,70.22566 V 68.39732 L 263.30646,68.78 Z"
       style="fill:#000000;fill-opacity:1;fill-rule:nonzero;stroke:none"
       id="path104" /><path
       d="M 262.9238,70.22566 263.30646,68.78 v 1.06299 z"
       style="fill:#000000;fill-opacity:1;fill-rule:nonzero;stroke:none"
       id="path106" /><path
       d="M 263.30646,69.84299 V 68.78 l 0.14883,0.53149 z"
       style="fill:#000000;fill-opacity:1;fill-rule:nonzero;stroke:none"
       id="path108" /><path
       d="m 262.3923,69.31149 -23.09851,45.6673 m 2.23899,-4.4266 0.15991,-0.31618 m -2.3989,4.74278 v 0 l 1.6066,-4.74646 1.26474,0.63971 -2.87134,4.10675"
       style="fill:none;stroke:#ff0000;stroke-width:0.28346;stroke-linecap:round;stroke-linejoin:round;stroke-miterlimit:10;stroke-dasharray:none;stroke-opacity:1"
       id="path110" /><path
       d="m 242.16513,110.87204 -2.87134,4.10675 1.6066,-4.74646 z"
       style="fill:#ff0000;fill-opacity:1;fill-rule:nonzero;stroke:none"
       id="path112" /><path
       d="m 239.29379,114.97879 -45.66729,33.59442 m 3.99588,-2.93951 0.28543,-0.20996 m -4.28131,3.14947 v 0 l 3.57595,-3.51034 0.83988,1.14166 -4.41583,2.36868"
       style="fill:none;stroke:#000000;stroke-width:0.28346;stroke-linecap:round;stroke-linejoin:round;stroke-miterlimit:10;stroke-dasharray:none;stroke-opacity:1"
       id="path114" /><path
       d="m 198.04233,146.20453 -4.41583,2.36868 3.57595,-3.51034 z"
       style="fill:#000000;fill-opacity:1;fill-rule:nonzero;stroke:none"
       id="path116" /><path
       d="m 262.3923,69.31149 v 56.69292 m 0,-4.96063 v -0.35433 m 0,5.31496 v 0 l -0.70868,-4.96063 h 1.41733 l -0.70865,4.96063"
       style="fill:none;stroke:#000000;stroke-width:0.28346;stroke-linecap:round;stroke-linejoin:round;stroke-miterlimit:10;stroke-dasharray:none;stroke-opacity:1"
       id="path118" /><path
       d="m 263.10095,121.04378 -0.70865,4.96063 -0.70868,-4.96063 z"
       style="fill:#000000;fill-opacity:1;fill-rule:nonzero;stroke:none"
       id="path120" /><path
       d="M 239.29379,171.67172 193.6265,148.57321 m 4.4266,2.23898 0.31619,0.15992 m -4.74279,-2.3989 v 0 l 4.74646,1.6066 -0.63971,1.26474 -4.10675,-2.87134"
       style="fill:none;stroke:#ff0000;stroke-width:0.28346;stroke-linecap:round;stroke-linejoin:round;stroke-miterlimit:10;stroke-dasharray:none;stroke-opacity:1"
       id="path122" /><path
       d="m 197.73325,151.44455 -4.10675,-2.87134 4.74646,1.6066 z"
       style="fill:#ff0000;fill-opacity:1;fill-rule:nonzero;stroke:none"
       id="path124" /><path
       d="m 239.29379,114.97879 v 56.69293 m 0,-4.96063 v -0.35434 m 0,5.31497 v 0 l -0.70865,-4.96063 h 1.4173 l -0.70865,4.96063"
       style="fill:none;stroke:#8c8cff;stroke-width:0.28346;stroke-linecap:round;stroke-linejoin:round;stroke-miterlimit:10;stroke-dasharray:none;stroke-opacity:1"
       id="path126" /><path
       d="m 240.00244,166.71109 -0.70865,4.96063 -0.70865,-4.96063 z"
       style="fill:#8c8cff;fill-opacity:1;fill-rule:nonzero;stroke:none"
       id="path128" /><path
       d="m 225.17822,69.31149 c 0,6.1946 -2.94641,12.01987 -7.93631,15.6906"
       style="fill:none;stroke:#000000;stroke-width:0.28346;stroke-linecap:round;stroke-linejoin:round;stroke-miterlimit:10;stroke-dasharray:none;stroke-opacity:1"
       id="path130" /><path
       d="m 227.29996,69.31149 h -4.24771 m 2.12597,-2.12173 v 4.24772 m 1.27133,-3.39732 -2.54693,2.54692 m -5.40341,16.1241 -2.51706,-3.42161 m 2.96887,0.45524 -3.42163,2.51708 m 3.48999,-0.98906 -3.56085,-0.54238"
       style="fill:none;stroke:#000000;stroke-width:0.28346;stroke-linecap:round;stroke-linejoin:round;stroke-miterlimit:10;stroke-dasharray:none;stroke-opacity:1"
       id="path132" /><path
       d="m 239.29379,136.29245 c -6.7781,0 -13.1521,-3.22397 -17.16858,-8.68387"
       style="fill:none;stroke:#000000;stroke-width:0.28346;stroke-linecap:round;stroke-linejoin:round;stroke-miterlimit:10;stroke-dasharray:none;stroke-opacity:1"
       id="path134" /><path
       d="m 239.29379,138.41418 v -4.24771 m 2.12174,2.12598 h -4.24771 m 3.3973,1.27133 -2.5469,-2.54693 m -17.60211,-6.15101 3.42163,-2.51705 m -0.45526,2.9689 -2.51706,-3.42163 m 0.98907,3.48996 0.54236,-3.56082"
       style="fill:none;stroke:#000000;stroke-width:0.28346;stroke-linecap:round;stroke-linejoin:round;stroke-miterlimit:10;stroke-dasharray:none;stroke-opacity:1"
       id="path136" /><g
       id="g138"><g
         id="g140"
         clip-path="url(#clipPath144)"><text
           transform="matrix(1,0,0,-1,242.87097,153.9089)"
           style="font-style:italic;font-variant:normal;font-weight:normal;font-stretch:normal;font-size:11.0078px;font-family:'Palatino Linotype';-inkscape-font-specification:PalatinoLinotype-Italic;writing-mode:lr-tb;fill:#8c8cff;fill-opacity:1;fill-rule:nonzero;stroke:none"
           id="text148"><tspan
             x="0 5.5039201"
             y="0"
             id="tspan146">v'</tspan></text></g></g><g
       id="g150"><g
         id="g152"
         clip-path="url(#clipPath156)"><text
           transform="matrix(1,0,0,-1,251.62268,149.36165)"
           style="font-style:italic;font-variant:normal;font-weight:normal;font-stretch:normal;font-size:6.6047px;font-family:'Palatino Linotype';-inkscape-font-specification:PalatinoLinotype-Italic;writing-mode:lr-tb;fill:#8c8cff;fill-opacity:1;fill-rule:nonzero;stroke:none"
           id="text160"><tspan
             x="0"
             y="0"
             id="tspan158">1</tspan></text></g></g><g
       id="g162"><g
         id="g164"
         clip-path="url(#clipPath168)"><text
           transform="matrix(1,0,0,-1,265.96949,108.2416)"
           style="font-style:italic;font-variant:normal;font-weight:normal;font-stretch:normal;font-size:11.0078px;font-family:'Palatino Linotype';-inkscape-font-specification:PalatinoLinotype-Italic;writing-mode:lr-tb;fill:#000000;fill-opacity:1;fill-rule:nonzero;stroke:none"
           id="text172"><tspan
             x="0"
             y="0"
             id="tspan170">v</tspan></text></g></g><g
       id="g174"><g
         id="g176"
         clip-path="url(#clipPath180)"><text
           transform="matrix(1,0,0,-1,272.36602,103.69435)"
           style="font-style:italic;font-variant:normal;font-weight:normal;font-stretch:normal;font-size:6.6047px;font-family:'Palatino Linotype';-inkscape-font-specification:PalatinoLinotype-Italic;writing-mode:lr-tb;fill:#000000;fill-opacity:1;fill-rule:nonzero;stroke:none"
           id="text184"><tspan
             x="0"
             y="0"
             id="tspan182">1</tspan></text></g></g><g
       id="g186"><g
         id="g188"
         clip-path="url(#clipPath192)"><text
           transform="matrix(1,0,0,-1,207.93678,164.2847)"
           style="font-variant:normal;font-weight:normal;font-stretch:normal;font-size:11.1008px;font-family:'Palatino Linotype';-inkscape-font-specification:PalatinoLinotype-Roman;writing-mode:lr-tb;fill:#ff0000;fill-opacity:1;fill-rule:nonzero;stroke:none"
           id="text196"><tspan
             x="0"
             y="0"
             id="tspan194">Δ</tspan></text></g></g><g
       id="g198"><g
         id="g200"
         clip-path="url(#clipPath204)"><text
           transform="matrix(1,0,0,-1,215.73757,164.2847)"
           style="font-style:italic;font-variant:normal;font-weight:normal;font-stretch:normal;font-size:11.0078px;font-family:'Palatino Linotype';-inkscape-font-specification:PalatinoLinotype-Italic;writing-mode:lr-tb;fill:#ff0000;fill-opacity:1;fill-rule:nonzero;stroke:none"
           id="text208"><tspan
             x="0"
             y="0"
             id="tspan206">v</tspan></text></g></g><g
       id="g210"><g
         id="g212"
         clip-path="url(#clipPath216)"><text
           transform="matrix(1,0,0,-1,243.05227,176.13339)"
           style="font-style:italic;font-variant:normal;font-weight:normal;font-stretch:normal;font-size:11.0078px;font-family:'Palatino Linotype';-inkscape-font-specification:PalatinoLinotype-Italic;writing-mode:lr-tb;fill:#000000;fill-opacity:1;fill-rule:nonzero;stroke:none"
           id="text220"><tspan
             x="0"
             y="0"
             id="tspan218">Q</tspan></text></g></g><g
       id="g222"><g
         id="g224"
         clip-path="url(#clipPath228)"><text
           transform="matrix(1,0,0,-1,251.95325,171.58614)"
           style="font-style:italic;font-variant:normal;font-weight:normal;font-stretch:normal;font-size:6.6047px;font-family:'Palatino Linotype';-inkscape-font-specification:PalatinoLinotype-Italic;writing-mode:lr-tb;fill:#000000;fill-opacity:1;fill-rule:nonzero;stroke:none"
           id="text232"><tspan
             x="0"
             y="0"
             id="tspan230">1</tspan></text></g></g><g
       id="g234"><g
         id="g236"
         clip-path="url(#clipPath240)"><text
           transform="matrix(1,0,0,-1,238.81459,85.27246)"
           style="font-variant:normal;font-weight:normal;font-stretch:normal;font-size:11.1008px;font-family:'Palatino Linotype';-inkscape-font-specification:PalatinoLinotype-Roman;writing-mode:lr-tb;fill:#ff0000;fill-opacity:1;fill-rule:nonzero;stroke:none"
           id="text244"><tspan
             x="0"
             y="0"
             id="tspan242">Δ</tspan></text></g></g><g
       id="g246"><g
         id="g248"
         clip-path="url(#clipPath252)"><text
           transform="matrix(1,0,0,-1,246.61538,85.27246)"
           style="font-style:italic;font-variant:normal;font-weight:normal;font-stretch:normal;font-size:11.0078px;font-family:'Palatino Linotype';-inkscape-font-specification:PalatinoLinotype-Italic;writing-mode:lr-tb;fill:#ff0000;fill-opacity:1;fill-rule:nonzero;stroke:none"
           id="text256"><tspan
             x="0"
             y="0"
             id="tspan254">s</tspan></text></g></g><g
       id="g258"><g
         id="g260"
         clip-path="url(#clipPath264)"><text
           transform="matrix(1,0,0,-1,213.85919,97.56782)"
           style="font-style:italic;font-variant:normal;font-weight:normal;font-stretch:normal;font-size:11.0078px;font-family:'Palatino Linotype';-inkscape-font-specification:PalatinoLinotype-Italic;writing-mode:lr-tb;fill:#000000;fill-opacity:1;fill-rule:nonzero;stroke:none"
           id="text268"><tspan
             x="0"
             y="0"
             id="tspan266">r</tspan></text></g></g><g
       id="g270"><g
         id="g272"
         clip-path="url(#clipPath276)"><text
           transform="matrix(1,0,0,-1,218.3318,93.02057)"
           style="font-style:italic;font-variant:normal;font-weight:normal;font-stretch:normal;font-size:6.6047px;font-family:'Palatino Linotype';-inkscape-font-specification:PalatinoLinotype-Italic;writing-mode:lr-tb;fill:#000000;fill-opacity:1;fill-rule:nonzero;stroke:none"
           id="text280"><tspan
             x="0"
             y="0"
             id="tspan278">2</tspan></text></g></g><g
       id="g282"><g
         id="g284"
         clip-path="url(#clipPath288)"><text
           transform="matrix(1,0,0,-1,229.96532,61.93301)"
           style="font-style:italic;font-variant:normal;font-weight:normal;font-stretch:normal;font-size:11.0078px;font-family:'Palatino Linotype';-inkscape-font-specification:PalatinoLinotype-Italic;writing-mode:lr-tb;fill:#000000;fill-opacity:1;fill-rule:nonzero;stroke:none"
           id="text292"><tspan
             x="0"
             y="0"
             id="tspan290">r</tspan></text></g></g><g
       id="g294"><g
         id="g296"
         clip-path="url(#clipPath300)"><text
           transform="matrix(1,0,0,-1,234.43793,57.38577)"
           style="font-style:italic;font-variant:normal;font-weight:normal;font-stretch:normal;font-size:6.6047px;font-family:'Palatino Linotype';-inkscape-font-specification:PalatinoLinotype-Italic;writing-mode:lr-tb;fill:#000000;fill-opacity:1;fill-rule:nonzero;stroke:none"
           id="text304"><tspan
             x="0"
             y="0"
             id="tspan302">1</tspan></text></g></g><g
       id="g306"><g
         id="g308"
         clip-path="url(#clipPath312)"><text
           transform="matrix(1,0,0,-1,266.85966,65.24685)"
           style="font-style:italic;font-variant:normal;font-weight:normal;font-stretch:normal;font-size:11.0078px;font-family:'Palatino Linotype';-inkscape-font-specification:PalatinoLinotype-Italic;writing-mode:lr-tb;fill:#000000;fill-opacity:1;fill-rule:nonzero;stroke:none"
           id="text316"><tspan
             x="0"
             y="0"
             id="tspan314">P</tspan></text></g></g><g
       id="g318"><g
         id="g320"
         clip-path="url(#clipPath324)"><text
           transform="matrix(1,0,0,-1,273.6985,60.6996)"
           style="font-style:italic;font-variant:normal;font-weight:normal;font-stretch:normal;font-size:6.6047px;font-family:'Palatino Linotype';-inkscape-font-specification:PalatinoLinotype-Italic;writing-mode:lr-tb;fill:#000000;fill-opacity:1;fill-rule:nonzero;stroke:none"
           id="text328"><tspan
             x="0"
             y="0"
             id="tspan326">1</tspan></text></g></g><g
       id="g330"><g
         id="g332"
         clip-path="url(#clipPath336)"><text
           transform="matrix(1,0,0,-1,242.08361,115.0755)"
           style="font-style:italic;font-variant:normal;font-weight:normal;font-stretch:normal;font-size:11.0078px;font-family:'Palatino Linotype';-inkscape-font-specification:PalatinoLinotype-Italic;writing-mode:lr-tb;fill:#000000;fill-opacity:1;fill-rule:nonzero;stroke:none"
           id="text340"><tspan
             x="0"
             y="0"
             id="tspan338">P</tspan></text></g></g><g
       id="g342"><g
         id="g344"
         clip-path="url(#clipPath348)"><text
           transform="matrix(1,0,0,-1,248.92245,110.52826)"
           style="font-style:italic;font-variant:normal;font-weight:normal;font-stretch:normal;font-size:6.6047px;font-family:'Palatino Linotype';-inkscape-font-specification:PalatinoLinotype-Italic;writing-mode:lr-tb;fill:#000000;fill-opacity:1;fill-rule:nonzero;stroke:none"
           id="text352"><tspan
             x="0"
             y="0"
             id="tspan350">2</tspan></text></g></g><g
       id="g354"><g
         id="g356"
         clip-path="url(#clipPath360)"><text
           transform="matrix(1,0,0,-1,225.20984,78.75405)"
           style="font-variant:normal;font-weight:normal;font-stretch:normal;font-size:11.1008px;font-family:'Palatino Linotype';-inkscape-font-specification:PalatinoLinotype-Roman;writing-mode:lr-tb;fill:#000000;fill-opacity:1;fill-rule:nonzero;stroke:none"
           id="text364"><tspan
             x="0"
             y="0"
             id="tspan362">α</tspan></text></g></g><g
       id="g366"><g
         id="g368"
         clip-path="url(#clipPath372)"><text
           transform="matrix(1,0,0,-1,224.28213,136.9938)"
           style="font-variant:normal;font-weight:normal;font-stretch:normal;font-size:11.1008px;font-family:'Palatino Linotype';-inkscape-font-specification:PalatinoLinotype-Roman;writing-mode:lr-tb;fill:#000000;fill-opacity:1;fill-rule:nonzero;stroke:none"
           id="text376"><tspan
             x="0"
             y="0"
             id="tspan374">α</tspan></text></g></g><g
       id="g378"><g
         id="g380"
         clip-path="url(#clipPath384)"><text
           transform="matrix(1,0,0,-1,196.42612,134.57366)"
           style="font-style:italic;font-variant:normal;font-weight:normal;font-stretch:normal;font-size:11.0078px;font-family:'Palatino Linotype';-inkscape-font-specification:PalatinoLinotype-Italic;writing-mode:lr-tb;fill:#000000;fill-opacity:1;fill-rule:nonzero;stroke:none"
           id="text388"><tspan
             x="0"
             y="0"
             id="tspan386">v</tspan></text></g></g><g
       id="g390"><g
         id="g392"
         clip-path="url(#clipPath396)"><text
           transform="matrix(1,0,0,-1,202.82267,130.02643)"
           style="font-style:italic;font-variant:normal;font-weight:normal;font-stretch:normal;font-size:6.6047px;font-family:'Palatino Linotype';-inkscape-font-specification:PalatinoLinotype-Italic;writing-mode:lr-tb;fill:#000000;fill-opacity:1;fill-rule:nonzero;stroke:none"
           id="text400"><tspan
             x="0"
             y="0"
             id="tspan398">2</tspan></text></g></g></g></svg>
