<?xml version="1.0" encoding="UTF-8" standalone="no"?>
<svg
   xmlns:dc="http://purl.org/dc/elements/1.1/"
   xmlns:cc="http://creativecommons.org/ns#"
   xmlns:rdf="http://www.w3.org/1999/02/22-rdf-syntax-ns#"
   xmlns:svg="http://www.w3.org/2000/svg"
   xmlns="http://www.w3.org/2000/svg"
   version="1.1"
   id="svg2"
   xml:space="preserve"
   width="566.92932"
   height="207.87466"
   viewBox="0 0 566.92932 207.87466"><metadata
     id="metadata8"><rdf:RDF><cc:Work
         rdf:about=""><dc:format>image/svg+xml</dc:format><dc:type
           rdf:resource="http://purl.org/dc/dcmitype/StillImage" /></cc:Work></rdf:RDF></metadata><defs
     id="defs6"><clipPath
       clipPathUnits="userSpaceOnUse"
       id="clipPath38"><path
         d="M -0.00426,-0.00156 V 155.90707 H 425.20111 V -0.00156 H -0.00426"
         clip-rule="evenodd"
         id="path36" /></clipPath><clipPath
       clipPathUnits="userSpaceOnUse"
       id="clipPath50"><path
         d="M -0.00426,-0.00156 V 155.90707 H 425.20111 V -0.00156 H -0.00426"
         clip-rule="evenodd"
         id="path48" /></clipPath><clipPath
       clipPathUnits="userSpaceOnUse"
       id="clipPath62"><path
         d="M -0.00426,-0.00156 V 155.90707 H 425.20111 V -0.00156 H -0.00426"
         clip-rule="evenodd"
         id="path60" /></clipPath><clipPath
       clipPathUnits="userSpaceOnUse"
       id="clipPath74"><path
         d="M -0.00426,-0.00156 V 155.90707 H 425.20111 V -0.00156 H -0.00426"
         clip-rule="evenodd"
         id="path72" /></clipPath><clipPath
       clipPathUnits="userSpaceOnUse"
       id="clipPath86"><path
         d="M -0.00426,-0.00156 V 155.90707 H 425.20111 V -0.00156 H -0.00426"
         clip-rule="evenodd"
         id="path84" /></clipPath><clipPath
       clipPathUnits="userSpaceOnUse"
       id="clipPath98"><path
         d="M -0.00426,-0.00156 V 155.90707 H 425.20111 V -0.00156 H -0.00426"
         clip-rule="evenodd"
         id="path96" /></clipPath><clipPath
       clipPathUnits="userSpaceOnUse"
       id="clipPath110"><path
         d="M -0.00426,-0.00156 V 155.90707 H 425.20111 V -0.00156 H -0.00426"
         clip-rule="evenodd"
         id="path108" /></clipPath><clipPath
       clipPathUnits="userSpaceOnUse"
       id="clipPath122"><path
         d="M -0.00426,-0.00156 V 155.90707 H 425.20111 V -0.00156 H -0.00426"
         clip-rule="evenodd"
         id="path120" /></clipPath><clipPath
       clipPathUnits="userSpaceOnUse"
       id="clipPath138"><path
         d="M -0.00426,-0.00156 V 155.90707 H 425.20111 V -0.00156 H -0.00426"
         clip-rule="evenodd"
         id="path136" /></clipPath><clipPath
       clipPathUnits="userSpaceOnUse"
       id="clipPath160"><path
         d="M -0.00426,-0.00156 V 155.90707 H 425.20111 V -0.00156 H -0.00426"
         clip-rule="evenodd"
         id="path158" /></clipPath><clipPath
       clipPathUnits="userSpaceOnUse"
       id="clipPath172"><path
         d="M -0.00426,-0.00156 V 155.90707 H 425.20111 V -0.00156 H -0.00426"
         clip-rule="evenodd"
         id="path170" /></clipPath><clipPath
       clipPathUnits="userSpaceOnUse"
       id="clipPath184"><path
         d="M -0.00426,-0.00156 V 155.90707 H 425.20111 V -0.00156 H -0.00426"
         clip-rule="evenodd"
         id="path182" /></clipPath><clipPath
       clipPathUnits="userSpaceOnUse"
       id="clipPath196"><path
         d="M -0.00426,-0.00156 V 155.90707 H 425.20111 V -0.00156 H -0.00426"
         clip-rule="evenodd"
         id="path194" /></clipPath><clipPath
       clipPathUnits="userSpaceOnUse"
       id="clipPath208"><path
         d="M -0.00426,-0.00156 V 155.90707 H 425.20111 V -0.00156 H -0.00426"
         clip-rule="evenodd"
         id="path206" /></clipPath><clipPath
       clipPathUnits="userSpaceOnUse"
       id="clipPath220"><path
         d="M -0.00426,-0.00156 V 155.90707 H 425.20111 V -0.00156 H -0.00426"
         clip-rule="evenodd"
         id="path218" /></clipPath><clipPath
       clipPathUnits="userSpaceOnUse"
       id="clipPath232"><path
         d="M -0.00426,-0.00156 V 155.90707 H 425.20111 V -0.00156 H -0.00426"
         clip-rule="evenodd"
         id="path230" /></clipPath></defs><g
     id="g10"
     transform="matrix(1.3333333,0,0,-1.3333333,0,207.87467)"><path
       d="m 118.04155,5.43423 13.83919,13.83919 m 5.87076,-14.17323 14.17321,14.17323 m 5.87076,-14.17323 14.17322,14.17323 m -53.92714,-3.8172 3.8172,3.8172 m 5.87074,-14.17323 14.17325,14.17323 m 5.87073,-14.17323 14.17322,14.17323 m 5.87075,-14.17323 5.78318,5.78316 m 57.82675,7.71684 0.67322,0.67323 m 5.87075,-14.17323 14.17322,14.17323 m 5.87076,-14.17323 14.17322,14.17323 m 5.87073,-14.17323 8.92715,8.92714 M 231.42737,8.5782 242.12259,19.27342 m 5.87073,-14.17323 14.17324,14.17323 m 5.87073,-14.17323 14.17322,14.17323 m 62.60269,-7.55124 7.55121,7.55124 m 5.87076,-14.17323 14.17322,14.17323 m 5.87075,-14.17323 14.17322,14.17323 m 5.87076,-14.17323 2.04913,2.04913 M 348.2132,5.10019 362.38641,19.27342 m 5.87073,-14.17323 14.17325,14.17323 m 5.87073,-14.17323 12.07113,12.07112"
       style="fill:none;stroke:#000000;stroke-width:0.3685;stroke-linecap:round;stroke-linejoin:round;stroke-miterlimit:10;stroke-dasharray:none;stroke-opacity:1"
       id="path12" /><path
       d="m 118.04155,19.27342 h 55.55907 m -55.55907,0 h 55.55907 m 57.82675,0 h 55.55905 m -55.55905,0 h 55.55905 m 57.82678,0 h 55.55905 m -55.55905,0 h 55.55905 m -260.22046,0 h 11.33857 V 132.65924 H 140.15179 V 19.27342 m 113.38581,0 h 11.33859 V 96.37578 H 253.5376 V 19.27342 m 5.66931,105.44882 V 96.37578 m 0,4.96063 v 0.35434 m 0,-5.31497 v 0 l 0.70865,4.96063 h -1.41733 l 0.70868,-4.96063"
       style="fill:none;stroke:#000000;stroke-width:0.28346;stroke-linecap:round;stroke-linejoin:round;stroke-miterlimit:10;stroke-dasharray:none;stroke-opacity:1"
       id="path14" /><path
       d="m 258.49823,101.33641 0.70868,-4.96063 0.70865,4.96063 z"
       style="fill:#000000;fill-opacity:1;fill-rule:nonzero;stroke:none"
       id="path16" /><path
       d="m 370.89194,19.27342 h 3.40158 v 77.10236 h -3.40158 V 19.27342 m -28.34647,77.10236 h 28.34647 m -4.96064,0 h -0.35433 m 5.31497,0 v 0 l -4.96064,0.70866 v -1.41731 l 4.96064,0.70865"
       style="fill:none;stroke:#000000;stroke-width:0.28346;stroke-linecap:round;stroke-linejoin:round;stroke-miterlimit:10;stroke-dasharray:none;stroke-opacity:1"
       id="path18" /><path
       d="m 365.9313,95.66713 4.96064,0.70865 -4.96064,0.70866 z"
       style="fill:#000000;fill-opacity:1;fill-rule:nonzero;stroke:none"
       id="path20" /><path
       d="m 372.59271,19.27342 0.19046,4.2477 m 0.12699,2.8318 0.19046,4.2477 m 0.12695,2.8318 0.0146,0.32477 0.37832,3.90861 m 0.2731,2.82146 0.40964,4.23219 m 0.27307,2.82146 0.0379,0.39111 0.65426,3.80316 m 0.48062,2.79361 0.0479,0.27826 0.94311,3.85594 m 0.67349,2.75348 0.0177,0.07254 1.33545,3.95809 m 0.92545,2.6783 1.75921,3.87097 m 1.22062,2.55574 2.16348,3.6604 m 1.49957,2.40314 2.46079,3.46754 m 1.68524,2.27808 2.64441,3.32962 m 1.78674,2.20031 2.73151,3.25855 M 32.43524,19.27342 v 0 h 28.34647 m -5.95276,0 h -0.4252 m 6.37796,0 v 0 l -5.95276,0.85039 v -1.70078 l 5.95276,0.85039"
       style="fill:none;stroke:#000000;stroke-width:0.28346;stroke-linecap:round;stroke-linejoin:round;stroke-miterlimit:10;stroke-dasharray:none;stroke-opacity:1"
       id="path22" /><path
       d="m 54.82895,18.42303 5.95276,0.85039 -5.95276,0.85039 z"
       style="fill:#000000;fill-opacity:1;fill-rule:nonzero;stroke:none"
       id="path24" /><path
       d="m 29.6006,19.27342 c 0,-1.56553 1.26912,-2.83464 2.83464,-2.83464 m 0,0 c 1.56554,0 2.83466,1.26911 2.83466,2.83464 m 0,0 c 0,1.56554 -1.26912,2.83464 -2.83466,2.83464 m 0,0 c -1.56552,0 -2.83464,-1.2691 -2.83464,-2.83464"
       style="fill:none;stroke:#000000;stroke-width:0.28346;stroke-linecap:round;stroke-linejoin:round;stroke-miterlimit:10;stroke-dasharray:none;stroke-opacity:1"
       id="path26" /><path
       d="m 32.43524,19.27342 v 28.34645 m 0,-5.95276 v -0.42518 m 0,6.37794 v 0 l -0.85039,-5.95276 h 1.70078 l -0.85039,5.95276"
       style="fill:none;stroke:#000000;stroke-width:0.28346;stroke-linecap:round;stroke-linejoin:round;stroke-miterlimit:10;stroke-dasharray:none;stroke-opacity:1"
       id="path28" /><path
       d="m 33.28563,41.66711 -0.85039,5.95276 -0.85039,-5.95276 z"
       style="fill:#000000;fill-opacity:1;fill-rule:nonzero;stroke:none"
       id="path30" /><g
       id="g32"><g
         id="g34"
         clip-path="url(#clipPath38)"><text
           transform="matrix(1,0,0,-1,241.47264,131.52539)"
           style="font-style:italic;font-variant:normal;font-weight:normal;font-stretch:normal;font-size:11.0078px;font-family:'Palatino Linotype';-inkscape-font-specification:PalatinoLinotype-Italic;writing-mode:lr-tb;fill:#000000;fill-opacity:1;fill-rule:nonzero;stroke:none"
           id="text42"><tspan
             x="0"
             y="0"
             id="tspan40">F</tspan></text></g></g><g
       id="g44"><g
         id="g46"
         clip-path="url(#clipPath50)"><text
           transform="matrix(1,0,0,-1,247.75078,126.97814)"
           style="font-style:italic;font-variant:normal;font-weight:normal;font-stretch:normal;font-size:6.6047px;font-family:'Palatino Linotype';-inkscape-font-specification:PalatinoLinotype-Italic;writing-mode:lr-tb;fill:#000000;fill-opacity:1;fill-rule:nonzero;stroke:none"
           id="text54"><tspan
             x="0 2.9324868"
             y="0"
             id="tspan52">z </tspan></text></g></g><g
       id="g56"><g
         id="g58"
         clip-path="url(#clipPath62)"><text
           transform="matrix(1,0,0,-1,254.14922,131.52539)"
           style="font-variant:normal;font-weight:normal;font-stretch:normal;font-size:11.1008px;font-family:'Palatino Linotype';-inkscape-font-specification:PalatinoLinotype-Roman;writing-mode:lr-tb;fill:#000000;fill-opacity:1;fill-rule:nonzero;stroke:none"
           id="text66"><tspan
             x="0 5.550385 8.3255777 13.875962 16.651155"
             y="0"
             id="tspan64">= 1.0</tspan></text></g></g><g
       id="g68"><g
         id="g70"
         clip-path="url(#clipPath74)"><text
           transform="matrix(1,0,0,-1,311.91442,100.74758)"
           style="font-style:italic;font-variant:normal;font-weight:normal;font-stretch:normal;font-size:11.0078px;font-family:'Palatino Linotype';-inkscape-font-specification:PalatinoLinotype-Italic;writing-mode:lr-tb;fill:#000000;fill-opacity:1;fill-rule:nonzero;stroke:none"
           id="text78"><tspan
             x="0"
             y="0"
             id="tspan76">F</tspan></text></g></g><g
       id="g80"><g
         id="g82"
         clip-path="url(#clipPath86)"><text
           transform="matrix(1,0,0,-1,318.19257,96.20034)"
           style="font-style:italic;font-variant:normal;font-weight:normal;font-stretch:normal;font-size:6.6047px;font-family:'Palatino Linotype';-inkscape-font-specification:PalatinoLinotype-Italic;writing-mode:lr-tb;fill:#000000;fill-opacity:1;fill-rule:nonzero;stroke:none"
           id="text90"><tspan
             x="0 3.30235"
             y="0"
             id="tspan88">x </tspan></text></g></g><g
       id="g92"><g
         id="g94"
         clip-path="url(#clipPath98)"><text
           transform="matrix(1,0,0,-1,324.97165,100.74758)"
           style="font-variant:normal;font-weight:normal;font-stretch:normal;font-size:11.1008px;font-family:'Palatino Linotype';-inkscape-font-specification:PalatinoLinotype-Roman;writing-mode:lr-tb;fill:#000000;fill-opacity:1;fill-rule:nonzero;stroke:none"
           id="text102"><tspan
             x="0 5.550385 8.3255777 13.875962 16.651155"
             y="0"
             id="tspan100">= 1.0</tspan></text></g></g><g
       id="g104"><g
         id="g106"
         clip-path="url(#clipPath110)"><text
           transform="matrix(1,0,0,-1,381.79238,140.16476)"
           style="font-style:italic;font-variant:normal;font-weight:normal;font-stretch:normal;font-size:11.0078px;font-family:'Palatino Linotype';-inkscape-font-specification:PalatinoLinotype-Italic;writing-mode:lr-tb;fill:#000000;fill-opacity:1;fill-rule:nonzero;stroke:none"
           id="text114"><tspan
             x="0"
             y="0"
             id="tspan112">u</tspan></text></g></g><g
       id="g116"><g
         id="g118"
         clip-path="url(#clipPath122)"><text
           transform="matrix(1,0,0,-1,388.62012,135.61753)"
           style="font-style:italic;font-variant:normal;font-weight:normal;font-stretch:normal;font-size:6.6047px;font-family:'Palatino Linotype';-inkscape-font-specification:PalatinoLinotype-Italic;writing-mode:lr-tb;fill:#000000;fill-opacity:1;fill-rule:nonzero;stroke:none"
           id="text126"><tspan
             x="0"
             y="0"
             id="tspan124">x</tspan></text></g></g><path
       d="m 112.12178,19.27342 -0.42519,2.97638 h 0.85039 l -0.4252,-2.97638 m 0,113.38582 -0.42519,-2.97638 h 0.85039 l -0.4252,2.97638"
       style="fill:none;stroke:#000000;stroke-width:0.56693;stroke-linecap:round;stroke-linejoin:round;stroke-miterlimit:10;stroke-dasharray:none;stroke-opacity:1"
       id="path128" /><path
       d="m 112.12178,19.27342 h -2.12598 m 2.12598,0 h 2.12599 m -2.12599,113.38582 h -2.12598 m 2.12598,0 h 2.12599 M 112.12178,19.27342 h 6.80316 m -6.80316,113.38582 h 6.80316 M 112.12178,19.27342 v 0 m 0,113.38582 v 0"
       style="fill:none;stroke:#000000;stroke-width:0.28346;stroke-linecap:round;stroke-linejoin:round;stroke-miterlimit:10;stroke-dasharray:none;stroke-opacity:1"
       id="path130" /><g
       id="g132"><g
         id="g134"
         clip-path="url(#clipPath138)"><text
           transform="matrix(0,1,1,0,109.12163,74.56782)"
           style="font-style:italic;font-variant:normal;font-weight:normal;font-stretch:normal;font-size:11.0078px;font-family:'Palatino Linotype';-inkscape-font-specification:PalatinoLinotype-Italic;writing-mode:lr-tb;fill:#000000;fill-opacity:1;fill-rule:nonzero;stroke:none"
           id="text142"><tspan
             x="0"
             y="0"
             id="tspan140">l</tspan></text></g></g><path
       d="M 112.12178,19.27342 V 132.65924"
       style="fill:none;stroke:#000000;stroke-width:0.28346;stroke-linecap:round;stroke-linejoin:round;stroke-miterlimit:10;stroke-dasharray:none;stroke-opacity:1"
       id="path144" /><path
       d="m 225.50763,96.37578 -0.4252,2.97638 h 0.85037 l -0.42517,-2.97638 m 0,36.28346 -0.4252,-2.97638 h 0.85037 l -0.42517,2.97638"
       style="fill:none;stroke:#000000;stroke-width:0.56693;stroke-linecap:round;stroke-linejoin:round;stroke-miterlimit:10;stroke-dasharray:none;stroke-opacity:1"
       id="path146" /><path
       d="m 225.50763,96.37578 h -2.12601 m 2.12601,0 h 2.12598 m -2.12598,36.28346 h -2.12601 m 2.12601,0 h 2.12598 m -2.12598,-36.28346 h 11.33856 m -11.33856,36.28346 h -11.33859 m 11.33859,-36.28346 v 0 m 0,36.28346 v 0 m 0,-36.28346 v 36.28346"
       style="fill:none;stroke:#000000;stroke-width:0.28346;stroke-linecap:round;stroke-linejoin:round;stroke-miterlimit:10;stroke-dasharray:none;stroke-opacity:1"
       id="path148" /><path
       d="m 374.29352,132.65924 2.97638,0.4252 v -0.85037 l -2.97638,0.42517 m 24.37793,0 -2.97638,0.4252 v -0.85037 l 2.97638,0.42517"
       style="fill:none;stroke:#000000;stroke-width:0.56693;stroke-linecap:round;stroke-linejoin:round;stroke-miterlimit:10;stroke-dasharray:none;stroke-opacity:1"
       id="path150" /><path
       d="m 374.29352,132.65924 v 2.12601 m 0,-2.12601 v -2.12598 m 24.37793,2.12598 v 2.12601 m 0,-2.12601 v -2.12598 m -24.37793,2.12598 v -11.33858 m 24.37793,11.33858 v -11.33858 m -24.37793,11.33858 v 0 m 24.37793,0 v 0 m -24.37793,0 h 24.37793"
       style="fill:none;stroke:#000000;stroke-width:0.28346;stroke-linecap:round;stroke-linejoin:round;stroke-miterlimit:10;stroke-dasharray:none;stroke-opacity:1"
       id="path152" /><g
       id="g154"><g
         id="g156"
         clip-path="url(#clipPath160)"><text
           transform="matrix(1,0,0,-1,211.23074,113.91773)"
           style="font-style:italic;font-variant:normal;font-weight:normal;font-stretch:normal;font-size:11.0078px;font-family:'Palatino Linotype';-inkscape-font-specification:PalatinoLinotype-Italic;writing-mode:lr-tb;fill:#000000;fill-opacity:1;fill-rule:nonzero;stroke:none"
           id="text164"><tspan
             x="0"
             y="0"
             id="tspan162">u</tspan></text></g></g><g
       id="g166"><g
         id="g168"
         clip-path="url(#clipPath172)"><text
           transform="matrix(1,0,0,-1,218.05852,109.37049)"
           style="font-style:italic;font-variant:normal;font-weight:normal;font-stretch:normal;font-size:6.6047px;font-family:'Palatino Linotype';-inkscape-font-specification:PalatinoLinotype-Italic;writing-mode:lr-tb;fill:#000000;fill-opacity:1;fill-rule:nonzero;stroke:none"
           id="text176"><tspan
             x="0"
             y="0"
             id="tspan174">z</tspan></text></g></g><g
       id="g178"><g
         id="g180"
         clip-path="url(#clipPath184)"><text
           transform="matrix(1,0,0,-1,168.48805,72.32853)"
           style="font-style:italic;font-variant:normal;font-weight:normal;font-stretch:normal;font-size:11.0078px;font-family:'Palatino Linotype';-inkscape-font-specification:PalatinoLinotype-Italic;writing-mode:lr-tb;fill:#000000;fill-opacity:1;fill-rule:nonzero;stroke:none"
           id="text188"><tspan
             x="0 6.72579"
             y="0"
             id="tspan186">EA</tspan></text></g></g><g
       id="g190"><g
         id="g192"
         clip-path="url(#clipPath196)"><text
           transform="matrix(1,0,0,-1,391.29118,72.32853)"
           style="font-style:italic;font-variant:normal;font-weight:normal;font-stretch:normal;font-size:11.0078px;font-family:'Palatino Linotype';-inkscape-font-specification:PalatinoLinotype-Italic;writing-mode:lr-tb;fill:#000000;fill-opacity:1;fill-rule:nonzero;stroke:none"
           id="text200"><tspan
             x="0 6.72579"
             y="0"
             id="tspan198">EI</tspan></text></g></g><g
       id="g202"><g
         id="g204"
         clip-path="url(#clipPath208)"><text
           transform="matrix(1,0,0,-1,29.82271,49.12569)"
           style="font-style:italic;font-variant:normal;font-weight:normal;font-stretch:normal;font-size:11.0078px;font-family:'Palatino Linotype';-inkscape-font-specification:PalatinoLinotype-Italic;writing-mode:lr-tb;fill:#000000;fill-opacity:1;fill-rule:nonzero;stroke:none"
           id="text212"><tspan
             x="0"
             y="0"
             id="tspan210">z</tspan></text></g></g><g
       id="g214"><g
         id="g216"
         clip-path="url(#clipPath220)"><text
           transform="matrix(1,0,0,-1,23.25211,21.6887)"
           style="font-style:italic;font-variant:normal;font-weight:normal;font-stretch:normal;font-size:11.0078px;font-family:'Palatino Linotype';-inkscape-font-specification:PalatinoLinotype-Italic;writing-mode:lr-tb;fill:#000000;fill-opacity:1;fill-rule:nonzero;stroke:none"
           id="text224"><tspan
             x="0"
             y="0"
             id="tspan222">y</tspan></text></g></g><g
       id="g226"><g
         id="g228"
         clip-path="url(#clipPath232)"><text
           transform="matrix(1,0,0,-1,63.70886,17.04247)"
           style="font-style:italic;font-variant:normal;font-weight:normal;font-stretch:normal;font-size:11.0078px;font-family:'Palatino Linotype';-inkscape-font-specification:PalatinoLinotype-Italic;writing-mode:lr-tb;fill:#000000;fill-opacity:1;fill-rule:nonzero;stroke:none"
           id="text236"><tspan
             x="0"
             y="0"
             id="tspan234">x</tspan></text></g></g><path
       d="m 168.48804,75.96634 h -16.99768 m -1.06299,0 v 0 m 2.12597,0 v 0 m -1.06298,-1.063 v 0 m 0,2.12599 v 0"
       style="fill:none;stroke:#000000;stroke-width:0.28346;stroke-linecap:round;stroke-linejoin:round;stroke-miterlimit:10;stroke-dasharray:none;stroke-opacity:1"
       id="path238" /><path
       d="m 150.42737,75.96634 c 0,-0.58708 0.47592,-1.063 1.06299,-1.063 m 0,0 c 0.58709,0 1.06302,0.47592 1.06302,1.063 m 0,0 c 0,0.58707 -0.47593,1.06299 -1.06302,1.06299 m 0,0 c -0.58707,0 -1.06299,-0.47592 -1.06299,-1.06299 m 0,0 c 0,0 0,0 0,0"
       style="fill:none;stroke:#000000;stroke-width:0.28346;stroke-linecap:round;stroke-linejoin:round;stroke-miterlimit:10;stroke-dasharray:none;stroke-opacity:1"
       id="path240" /><path
       d="m 152.40454,76.49782 v -1.06298 l 0.1488,0.5315 z"
       style="fill:#000000;fill-opacity:1;fill-rule:nonzero;stroke:none"
       id="path242" /><path
       d="m 152.40454,75.43484 v 1.06298 l -0.38269,0.38269 z"
       style="fill:#000000;fill-opacity:1;fill-rule:nonzero;stroke:none"
       id="path244" /><path
       d="m 152.40454,75.43484 -0.38269,1.44567 v -1.82836 z"
       style="fill:#000000;fill-opacity:1;fill-rule:nonzero;stroke:none"
       id="path246" /><path
       d="m 152.02185,75.05215 v 1.82836 l -0.53149,0.14882 z"
       style="fill:#000000;fill-opacity:1;fill-rule:nonzero;stroke:none"
       id="path248" /><path
       d="m 152.02185,75.05215 -0.53149,1.97718 v -2.12599 z"
       style="fill:#000000;fill-opacity:1;fill-rule:nonzero;stroke:none"
       id="path250" /><path
       d="m 151.49036,74.90334 v 2.12599 l -0.5315,-0.14882 z"
       style="fill:#000000;fill-opacity:1;fill-rule:nonzero;stroke:none"
       id="path252" /><path
       d="m 151.49036,74.90334 -0.5315,1.97717 v -1.82836 z"
       style="fill:#000000;fill-opacity:1;fill-rule:nonzero;stroke:none"
       id="path254" /><path
       d="m 150.95886,75.05215 v 1.82836 l -0.38266,-0.38269 z"
       style="fill:#000000;fill-opacity:1;fill-rule:nonzero;stroke:none"
       id="path256" /><path
       d="m 150.95886,75.05215 -0.38266,1.44567 v -1.06298 z"
       style="fill:#000000;fill-opacity:1;fill-rule:nonzero;stroke:none"
       id="path258" /><path
       d="m 150.5762,75.43484 v 1.06298 l -0.14883,-0.53148 z"
       style="fill:#000000;fill-opacity:1;fill-rule:nonzero;stroke:none"
       id="path260" /><path
       d="m 391.2912,75.96634 h -16.99768 m -1.06302,0 v 0 m 2.12598,0 v 0 m -1.06296,-1.063 v 0 m 0,2.12599 v 0"
       style="fill:none;stroke:#000000;stroke-width:0.28346;stroke-linecap:round;stroke-linejoin:round;stroke-miterlimit:10;stroke-dasharray:none;stroke-opacity:1"
       id="path262" /><path
       d="m 373.2305,75.96634 c 0,-0.58708 0.47592,-1.063 1.06302,-1.063 m 0,0 c 0.58706,0 1.06299,0.47592 1.06299,1.063 m 0,0 c 0,0.58707 -0.47593,1.06299 -1.06299,1.06299 m 0,0 c -0.5871,0 -1.06302,-0.47592 -1.06302,-1.06299 m 0,0 c 0,0 0,0 0,0"
       style="fill:none;stroke:#000000;stroke-width:0.28346;stroke-linecap:round;stroke-linejoin:round;stroke-miterlimit:10;stroke-dasharray:none;stroke-opacity:1"
       id="path264" /><path
       d="m 375.20767,76.49782 v -1.06298 l 0.14881,0.5315 z"
       style="fill:#000000;fill-opacity:1;fill-rule:nonzero;stroke:none"
       id="path266" /><path
       d="m 375.20767,75.43484 v 1.06298 l -0.38269,0.38269 z"
       style="fill:#000000;fill-opacity:1;fill-rule:nonzero;stroke:none"
       id="path268" /><path
       d="m 375.20767,75.43484 -0.38269,1.44567 v -1.82836 z"
       style="fill:#000000;fill-opacity:1;fill-rule:nonzero;stroke:none"
       id="path270" /><path
       d="m 374.82498,75.05215 v 1.82836 l -0.53146,0.14882 z"
       style="fill:#000000;fill-opacity:1;fill-rule:nonzero;stroke:none"
       id="path272" /><path
       d="m 374.82498,75.05215 -0.53146,1.97718 v -2.12599 z"
       style="fill:#000000;fill-opacity:1;fill-rule:nonzero;stroke:none"
       id="path274" /><path
       d="m 374.29352,74.90334 v 2.12599 l -0.5315,-0.14882 z"
       style="fill:#000000;fill-opacity:1;fill-rule:nonzero;stroke:none"
       id="path276" /><path
       d="m 374.29352,74.90334 -0.5315,1.97717 v -1.82836 z"
       style="fill:#000000;fill-opacity:1;fill-rule:nonzero;stroke:none"
       id="path278" /><path
       d="m 373.76202,75.05215 v 1.82836 l -0.38269,-0.38269 z"
       style="fill:#000000;fill-opacity:1;fill-rule:nonzero;stroke:none"
       id="path280" /><path
       d="m 373.76202,75.05215 -0.38269,1.44567 v -1.06298 z"
       style="fill:#000000;fill-opacity:1;fill-rule:nonzero;stroke:none"
       id="path282" /><path
       d="m 373.37933,75.43484 v 1.06298 l -0.14883,-0.53148 z"
       style="fill:#000000;fill-opacity:1;fill-rule:nonzero;stroke:none"
       id="path284" /></g></svg>
