<?xml version="1.0" encoding="UTF-8" standalone="no"?>
<svg
   xmlns:dc="http://purl.org/dc/elements/1.1/"
   xmlns:cc="http://creativecommons.org/ns#"
   xmlns:rdf="http://www.w3.org/1999/02/22-rdf-syntax-ns#"
   xmlns:svg="http://www.w3.org/2000/svg"
   xmlns="http://www.w3.org/2000/svg"
   version="1.1"
   id="svg2"
   xml:space="preserve"
   width="566.92932"
   height="170.07867"
   viewBox="0 0 566.92932 170.07867"><metadata
     id="metadata8"><rdf:RDF><cc:Work
         rdf:about=""><dc:format>image/svg+xml</dc:format><dc:type
           rdf:resource="http://purl.org/dc/dcmitype/StillImage" /></cc:Work></rdf:RDF></metadata><defs
     id="defs6"><clipPath
       clipPathUnits="userSpaceOnUse"
       id="clipPath40"><path
         d="M -0.00426,-0.00128 V 127.56033 H 425.20111 V -0.00128 H -0.00426"
         clip-rule="evenodd"
         id="path38" /></clipPath><clipPath
       clipPathUnits="userSpaceOnUse"
       id="clipPath52"><path
         d="M -0.00426,-0.00128 V 127.56033 H 425.20111 V -0.00128 H -0.00426"
         clip-rule="evenodd"
         id="path50" /></clipPath><clipPath
       clipPathUnits="userSpaceOnUse"
       id="clipPath68"><path
         d="M -0.00426,-0.00128 V 127.56033 H 425.20111 V -0.00128 H -0.00426"
         clip-rule="evenodd"
         id="path66" /></clipPath><clipPath
       clipPathUnits="userSpaceOnUse"
       id="clipPath82"><path
         d="M -0.00426,-0.00128 V 127.56033 H 425.20111 V -0.00128 H -0.00426"
         clip-rule="evenodd"
         id="path80" /></clipPath><clipPath
       clipPathUnits="userSpaceOnUse"
       id="clipPath98"><path
         d="M -0.00426,-0.00128 V 127.56033 H 425.20111 V -0.00128 H -0.00426"
         clip-rule="evenodd"
         id="path96" /></clipPath><clipPath
       clipPathUnits="userSpaceOnUse"
       id="clipPath112"><path
         d="M -0.00426,-0.00128 V 127.56033 H 425.20111 V -0.00128 H -0.00426"
         clip-rule="evenodd"
         id="path110" /></clipPath><clipPath
       clipPathUnits="userSpaceOnUse"
       id="clipPath124"><path
         d="M -0.00426,-0.00128 V 127.56033 H 425.20111 V -0.00128 H -0.00426"
         clip-rule="evenodd"
         id="path122" /></clipPath><clipPath
       clipPathUnits="userSpaceOnUse"
       id="clipPath136"><path
         d="M -0.00426,-0.00128 V 127.56033 H 425.20111 V -0.00128 H -0.00426"
         clip-rule="evenodd"
         id="path134" /></clipPath></defs><g
     id="g10"
     transform="matrix(1.3333333,0,0,-1.3333333,0,170.07867)"><path
       d="m 53.78775,71.06081 -6.01318,-6.01319 m 6.01318,6.01319 6.0132,-6.01319 m -12.02638,0 H 59.80095 M 45.7274,62.81633 h 15.87403 m 275.65089,8.24448 -6.01318,-6.01319 m 6.01318,6.01319 6.01318,-6.01319 m -12.02636,0 H 343.2655 M 53.78775,71.06081 H 337.25232 V 85.23404 H 53.78775 V 71.06081"
       style="fill:none;stroke:#000000;stroke-width:0.28346;stroke-linecap:round;stroke-linejoin:round;stroke-miterlimit:10;stroke-dasharray:none;stroke-opacity:1"
       id="path12" /><path
       d="m 53.78775,71.06081 4.03487,-1.34131 m 2.68991,-0.89421 4.03486,-1.34131 m 2.68991,-0.8942 4.03487,-1.34131 m 2.69612,-0.87519 4.04776,-1.30188 m 2.6985,-0.86792 4.04776,-1.30188 m 2.69852,-0.86792 2.78218,-0.89484 1.27335,-0.38202 m 2.71507,-0.81459 4.07263,-1.22189 m 2.71507,-0.81459 4.07262,-1.22188 m 2.71509,-0.81459 0.66083,-0.19826 3.44096,-0.92082 m 2.73828,-0.73279 4.10745,-1.09917 m 2.73829,-0.73278 4.10743,-1.09917 m 2.75051,-0.6844 4.13778,-0.9787 m 2.75855,-0.65245 0.55066,-0.13025 3.60583,-0.76514 m 2.77289,-0.58839 2.72876,-0.57903 1.43802,-0.26625 m 2.78726,-0.51607 4.18094,-0.77409 m 2.79758,-0.45555 4.20153,-0.65288 m 2.80103,-0.43527 0.004,-6.1e-4 4.21621,-0.51825 m 2.81348,-0.34583 2.07288,-0.25479 2.15521,-0.18905 m 2.82379,-0.2477 4.12164,-0.36156 m 2.9455,-0.14668 4.2467,-0.21149 m 2.83225,-0.10342 4.2518,-0.03891 m 2.83453,-0.02594 1.08408,-0.0099 3.1662,0.10199 m 2.83316,0.09128 2.61969,0.08438 1.62686,0.11516 m 2.82757,0.20012 4.1626,0.29461 m 2.89713,0.30938 4.22793,0.45149 m 2.81324,0.34466 4.21075,0.5905 m 2.80719,0.39367 0.27237,0.03819 3.91037,0.72455 m 2.7872,0.51643 4.18082,0.77464 m 2.7872,0.51644 3.55658,0.65898 0.61776,0.14628 m 2.75837,0.65319 4.13754,0.97978 m 2.75836,0.6532 4.13754,0.97978 m 2.75837,0.65318 0.0489,0.01157 4.04816,1.12555 m 2.73105,0.75934 4.09659,1.139 m 2.73105,0.75934 3.60568,1.00252 0.48679,0.15042 m 2.70831,0.83681 4.06247,1.25522 m 2.70831,0.8368 4.06247,1.25522 m 2.70831,0.83683 0.47269,0.14604 3.56839,1.17619"
       style="fill:none;stroke:#000000;stroke-width:0.56693;stroke-linecap:round;stroke-linejoin:round;stroke-miterlimit:10;stroke-dasharray:none;stroke-opacity:1"
       id="path14" /><path
       d="m 309.09958,61.60378 4.03827,1.33105 m 2.69217,0.88737 4.03827,1.33106 m 2.68435,0.91067 4.02573,1.36847 m 2.68384,0.91233 4.02572,1.36847 m 2.68381,0.9123 1.28058,0.43531"
       style="fill:none;stroke:#000000;stroke-width:0.56693;stroke-linecap:round;stroke-linejoin:round;stroke-miterlimit:10;stroke-dasharray:none;stroke-opacity:1"
       id="path16" /><path
       d="m 195.58707,113.58041 -0.067,-28.34637 m 0.0117,4.96062 8.5e-4,0.35432 m -0.0126,-5.31494 v 0 l 0.72037,4.95894 -1.4173,0.0033 0.69693,-4.96229"
       style="fill:none;stroke:#000000;stroke-width:0.28346;stroke-linecap:round;stroke-linejoin:round;stroke-miterlimit:10;stroke-dasharray:none;stroke-opacity:1"
       id="path18" /><path
       d="m 194.82312,90.19633 0.69693,-4.96229 0.72037,4.95894 -1.4173,0.0033 z"
       style="fill:#000000;fill-opacity:1;fill-rule:nonzero;stroke:none"
       id="path20" /><path
       d="M 34.54555,109.86208 H 62.892 m -5.95276,0 h -0.42519 m 6.37795,0 v 0 l -5.95276,0.8504 v -1.70079 l 5.95276,0.85039"
       style="fill:none;stroke:#000000;stroke-width:0.28346;stroke-linecap:round;stroke-linejoin:round;stroke-miterlimit:10;stroke-dasharray:none;stroke-opacity:1"
       id="path22" /><path
       d="m 56.93924,109.01169 5.95276,0.85039 -5.95276,0.8504 z"
       style="fill:#000000;fill-opacity:1;fill-rule:nonzero;stroke:none"
       id="path24" /><path
       d="m 34.54555,109.86208 v 0"
       style="fill:none;stroke:#000000;stroke-width:0.28346;stroke-linecap:round;stroke-linejoin:round;stroke-miterlimit:10;stroke-dasharray:none;stroke-opacity:1"
       id="path26" /><path
       d="m 31.71089,109.86208 c 0,-1.56554 1.26912,-2.83464 2.83466,-2.83464 m 0,0 c 1.56553,0 2.83464,1.2691 2.83464,2.83464 m 0,0 c 0,1.56553 -1.26911,2.83464 -2.83464,2.83464 m 0,0 c -1.56554,0 -2.83466,-1.26911 -2.83466,-2.83464"
       style="fill:none;stroke:#000000;stroke-width:0.28346;stroke-linecap:round;stroke-linejoin:round;stroke-miterlimit:10;stroke-dasharray:none;stroke-opacity:1"
       id="path28" /><path
       d="M 34.54555,109.86208 V 81.51563 m 0,5.95275 v 0.42519 m 0,-6.37794 v 0 l 0.85039,5.95275 h -1.70078 l 0.85039,-5.95275"
       style="fill:none;stroke:#000000;stroke-width:0.28346;stroke-linecap:round;stroke-linejoin:round;stroke-miterlimit:10;stroke-dasharray:none;stroke-opacity:1"
       id="path30" /><path
       d="m 33.69516,87.46838 0.85039,-5.95275 0.85039,5.95275 z"
       style="fill:#000000;fill-opacity:1;fill-rule:nonzero;stroke:none"
       id="path32" /><g
       id="g34"><g
         id="g36"
         clip-path="url(#clipPath40)"><text
           transform="matrix(1,0,0,-1,199.94957,106.32028)"
           style="font-style:italic;font-variant:normal;font-weight:normal;font-stretch:normal;font-size:11.0078px;font-family:'Palatino Linotype';-inkscape-font-specification:PalatinoLinotype-Italic;writing-mode:lr-tb;fill:#000000;fill-opacity:1;fill-rule:nonzero;stroke:none"
           id="text44"><tspan
             x="0 6.1203589 8.8723192 14.376239"
             y="0"
             id="tspan42">F = </tspan></text></g></g><g
       id="g46"><g
         id="g48"
         clip-path="url(#clipPath52)"><text
           transform="matrix(1,0,0,-1,217.52618,106.32028)"
           style="font-variant:normal;font-weight:normal;font-stretch:normal;font-size:11.1008px;font-family:'Palatino Linotype';-inkscape-font-specification:PalatinoLinotype-Roman;writing-mode:lr-tb;fill:#000000;fill-opacity:1;fill-rule:nonzero;stroke:none"
           id="text56"><tspan
             x="0 5.550385 8.3255777"
             y="0"
             id="tspan54">1.0</tspan></text></g></g><path
       d="m 53.78775,10.65891 2.97638,0.4252 v -0.85039 l -2.97638,0.42519 m 283.46457,0 -2.97638,0.4252 v -0.85039 l 2.97638,0.42519"
       style="fill:none;stroke:#000000;stroke-width:0.56693;stroke-linecap:round;stroke-linejoin:round;stroke-miterlimit:10;stroke-dasharray:none;stroke-opacity:1"
       id="path58" /><path
       d="m 53.78775,10.65891 v 2.12599 m 0,-2.12599 V 8.53293 m 283.46457,2.12598 v 2.12599 m 0,-2.12599 V 8.53293 M 53.78775,10.65891 V 21.9975 M 337.25232,10.65891 V 21.9975 M 53.78775,10.65891 v 0 m 283.46457,0 v 0"
       style="fill:none;stroke:#000000;stroke-width:0.28346;stroke-linecap:round;stroke-linejoin:round;stroke-miterlimit:10;stroke-dasharray:none;stroke-opacity:1"
       id="path60" /><g
       id="g62"><g
         id="g64"
         clip-path="url(#clipPath68)"><text
           transform="matrix(1,0,0,-1,194.12152,13.65906)"
           style="font-style:italic;font-variant:normal;font-weight:normal;font-stretch:normal;font-size:11.0078px;font-family:'Palatino Linotype';-inkscape-font-specification:PalatinoLinotype-Italic;writing-mode:lr-tb;fill:#000000;fill-opacity:1;fill-rule:nonzero;stroke:none"
           id="text72"><tspan
             x="0"
             y="0"
             id="tspan70">l</tspan></text></g></g><path
       d="m 53.78775,10.65891 h 100.8429 182.62167"
       style="fill:none;stroke:#000000;stroke-width:0.28346;stroke-linecap:round;stroke-linejoin:round;stroke-miterlimit:10;stroke-dasharray:none;stroke-opacity:1"
       id="path74" /><g
       id="g76"><g
         id="g78"
         clip-path="url(#clipPath82)"><text
           transform="matrix(1,0,0,-1,89.41346,94.90602)"
           style="font-style:italic;font-variant:normal;font-weight:normal;font-stretch:normal;font-size:11.0078px;font-family:'Palatino Linotype';-inkscape-font-specification:PalatinoLinotype-Italic;writing-mode:lr-tb;fill:#000000;fill-opacity:1;fill-rule:nonzero;stroke:none"
           id="text86"><tspan
             x="0 6.72579"
             y="0"
             id="tspan84">EI</tspan></text></g></g><path
       d="m 377.34344,39.15367 -0.4252,2.97638 h 0.85041 l -0.42521,-2.97638 m 0,31.90714 -0.4252,-2.97638 h 0.85041 l -0.42521,2.97638"
       style="fill:none;stroke:#000000;stroke-width:0.56693;stroke-linecap:round;stroke-linejoin:round;stroke-miterlimit:10;stroke-dasharray:none;stroke-opacity:1"
       id="path88" /><path
       d="m 377.34344,39.15367 h -2.12597 m 2.12597,0 h 2.12598 m -2.12598,31.90714 h -2.12597 m 2.12597,0 h 2.12598 m -2.12598,-31.90714 h -11.33856 m 11.33856,31.90714 h -11.33856 m 11.33856,-31.90714 v 0 m 0,31.90714 v 0"
       style="fill:none;stroke:#000000;stroke-width:0.28346;stroke-linecap:round;stroke-linejoin:round;stroke-miterlimit:10;stroke-dasharray:none;stroke-opacity:1"
       id="path90" /><g
       id="g92"><g
         id="g94"
         clip-path="url(#clipPath98)"><text
           transform="matrix(0,1,1,0,374.3157,51.1765)"
           style="font-style:italic;font-variant:normal;font-weight:normal;font-stretch:normal;font-size:11.0078px;font-family:'Palatino Linotype';-inkscape-font-specification:PalatinoLinotype-Italic;writing-mode:lr-tb;fill:#000000;fill-opacity:1;fill-rule:nonzero;stroke:none"
           id="text102"><tspan
             x="0"
             y="0"
             id="tspan100">w</tspan></text></g></g><path
       d="M 377.34344,39.15367 V 71.06081"
       style="fill:none;stroke:#000000;stroke-width:0.28346;stroke-linecap:round;stroke-linejoin:round;stroke-miterlimit:10;stroke-dasharray:none;stroke-opacity:1"
       id="path104" /><g
       id="g106"><g
         id="g108"
         clip-path="url(#clipPath112)"><text
           transform="matrix(1,0,0,-1,31.93301,73.39563)"
           style="font-style:italic;font-variant:normal;font-weight:normal;font-stretch:normal;font-size:11.0078px;font-family:'Palatino Linotype';-inkscape-font-specification:PalatinoLinotype-Italic;writing-mode:lr-tb;fill:#000000;fill-opacity:1;fill-rule:nonzero;stroke:none"
           id="text116"><tspan
             x="0"
             y="0"
             id="tspan114">z</tspan></text></g></g><g
       id="g118"><g
         id="g120"
         clip-path="url(#clipPath124)"><text
           transform="matrix(1,0,0,-1,65.81915,107.63112)"
           style="font-style:italic;font-variant:normal;font-weight:normal;font-stretch:normal;font-size:11.0078px;font-family:'Palatino Linotype';-inkscape-font-specification:PalatinoLinotype-Italic;writing-mode:lr-tb;fill:#000000;fill-opacity:1;fill-rule:nonzero;stroke:none"
           id="text128"><tspan
             x="0"
             y="0"
             id="tspan126">x</tspan></text></g></g><g
       id="g130"><g
         id="g132"
         clip-path="url(#clipPath136)"><text
           transform="matrix(1,0,0,-1,25.36241,112.27735)"
           style="font-style:italic;font-variant:normal;font-weight:normal;font-stretch:normal;font-size:11.0078px;font-family:'Palatino Linotype';-inkscape-font-specification:PalatinoLinotype-Italic;writing-mode:lr-tb;fill:#000000;fill-opacity:1;fill-rule:nonzero;stroke:none"
           id="text140"><tspan
             x="0"
             y="0"
             id="tspan138">y</tspan></text></g></g><path
       d="m 100.067,98.54382 h 16.02919 V 85.23404 m 0,-1.06299 v 0 m 0,2.12598 v 0 m 1.06299,-1.06299 v 0 m -2.12598,0 v 0"
       style="fill:none;stroke:#000000;stroke-width:0.28346;stroke-linecap:round;stroke-linejoin:round;stroke-miterlimit:10;stroke-dasharray:none;stroke-opacity:1"
       id="path142" /><path
       d="m 116.09619,84.17105 c 0.58707,0 1.06299,0.47591 1.06299,1.06299 m 0,0 c 0,0.58707 -0.47592,1.06299 -1.06299,1.06299 m 0,0 c -0.58708,0 -1.063,-0.47592 -1.063,-1.06299 m 0,0 c 0,-0.58708 0.47592,-1.06299 1.063,-1.06299 m 0,0 c 0,0 0,0 0,0"
       style="fill:none;stroke:#000000;stroke-width:0.28346;stroke-linecap:round;stroke-linejoin:round;stroke-miterlimit:10;stroke-dasharray:none;stroke-opacity:1"
       id="path144" /><path
       d="m 115.5647,86.14821 h 1.06299 l -0.5315,0.14882 z"
       style="fill:#000000;fill-opacity:1;fill-rule:nonzero;stroke:none"
       id="path146" /><path
       d="m 116.62769,86.14821 h -1.06299 l -0.38268,-0.38268 z"
       style="fill:#000000;fill-opacity:1;fill-rule:nonzero;stroke:none"
       id="path148" /><path
       d="m 116.62769,86.14821 -1.44567,-0.38268 h 1.82834 z"
       style="fill:#000000;fill-opacity:1;fill-rule:nonzero;stroke:none"
       id="path150" /><path
       d="m 117.01036,85.76553 h -1.82834 l -0.14882,-0.53149 z"
       style="fill:#000000;fill-opacity:1;fill-rule:nonzero;stroke:none"
       id="path152" /><path
       d="m 117.01036,85.76553 -1.97716,-0.53149 h 2.12598 z"
       style="fill:#000000;fill-opacity:1;fill-rule:nonzero;stroke:none"
       id="path154" /><path
       d="m 117.15918,85.23404 h -2.12598 l 0.14882,-0.53149 z"
       style="fill:#000000;fill-opacity:1;fill-rule:nonzero;stroke:none"
       id="path156" /><path
       d="m 117.15918,85.23404 -1.97716,-0.53149 h 1.82834 z"
       style="fill:#000000;fill-opacity:1;fill-rule:nonzero;stroke:none"
       id="path158" /><path
       d="m 117.01036,84.70255 h -1.82834 l 0.38268,-0.38268 z"
       style="fill:#000000;fill-opacity:1;fill-rule:nonzero;stroke:none"
       id="path160" /><path
       d="m 117.01036,84.70255 -1.44566,-0.38268 h 1.06299 z"
       style="fill:#000000;fill-opacity:1;fill-rule:nonzero;stroke:none"
       id="path162" /><path
       d="m 116.62769,84.31987 h -1.06299 l 0.53149,-0.14882 z"
       style="fill:#000000;fill-opacity:1;fill-rule:nonzero;stroke:none"
       id="path164" /></g></svg>
