<?xml version="1.0" encoding="UTF-8" standalone="no"?>
<svg
   xmlns:dc="http://purl.org/dc/elements/1.1/"
   xmlns:cc="http://creativecommons.org/ns#"
   xmlns:rdf="http://www.w3.org/1999/02/22-rdf-syntax-ns#"
   xmlns:svg="http://www.w3.org/2000/svg"
   xmlns="http://www.w3.org/2000/svg"
   version="1.1"
   id="svg2"
   xml:space="preserve"
   width="264.56668"
   height="170.07867"
   viewBox="0 0 264.56668 170.07867"><metadata
     id="metadata8"><rdf:RDF><cc:Work
         rdf:about=""><dc:format>image/svg+xml</dc:format><dc:type
           rdf:resource="http://purl.org/dc/dcmitype/StillImage" /></cc:Work></rdf:RDF></metadata><defs
     id="defs6"><clipPath
       clipPathUnits="userSpaceOnUse"
       id="clipPath54"><path
         d="M -0.00198,-0.00128 V 127.56033 H 198.42719 V -0.00128 H -0.00198"
         clip-rule="evenodd"
         id="path52" /></clipPath><clipPath
       clipPathUnits="userSpaceOnUse"
       id="clipPath66"><path
         d="M -0.00198,-0.00128 V 127.56033 H 198.42719 V -0.00128 H -0.00198"
         clip-rule="evenodd"
         id="path64" /></clipPath><clipPath
       clipPathUnits="userSpaceOnUse"
       id="clipPath78"><path
         d="M -0.00198,-0.00128 V 127.56033 H 198.42719 V -0.00128 H -0.00198"
         clip-rule="evenodd"
         id="path76" /></clipPath><clipPath
       clipPathUnits="userSpaceOnUse"
       id="clipPath90"><path
         d="M -0.00198,-0.00128 V 127.56033 H 198.42719 V -0.00128 H -0.00198"
         clip-rule="evenodd"
         id="path88" /></clipPath><clipPath
       clipPathUnits="userSpaceOnUse"
       id="clipPath102"><path
         d="M -0.00198,-0.00128 V 127.56033 H 198.42719 V -0.00128 H -0.00198"
         clip-rule="evenodd"
         id="path100" /></clipPath><clipPath
       clipPathUnits="userSpaceOnUse"
       id="clipPath114"><path
         d="M -0.00198,-0.00128 V 127.56033 H 198.42719 V -0.00128 H -0.00198"
         clip-rule="evenodd"
         id="path112" /></clipPath><clipPath
       clipPathUnits="userSpaceOnUse"
       id="clipPath126"><path
         d="M -0.00198,-0.00128 V 127.56033 H 198.42719 V -0.00128 H -0.00198"
         clip-rule="evenodd"
         id="path124" /></clipPath><clipPath
       clipPathUnits="userSpaceOnUse"
       id="clipPath138"><path
         d="M -0.00198,-0.00128 V 127.56033 H 198.42719 V -0.00128 H -0.00198"
         clip-rule="evenodd"
         id="path136" /></clipPath><clipPath
       clipPathUnits="userSpaceOnUse"
       id="clipPath150"><path
         d="M -0.00198,-0.00128 V 127.56033 H 198.42719 V -0.00128 H -0.00198"
         clip-rule="evenodd"
         id="path148" /></clipPath><clipPath
       clipPathUnits="userSpaceOnUse"
       id="clipPath162"><path
         d="M -0.00198,-0.00128 V 127.56033 H 198.42719 V -0.00128 H -0.00198"
         clip-rule="evenodd"
         id="path160" /></clipPath></defs><g
     id="g10"
     transform="matrix(1.3333333,0,0,-1.3333333,0,170.07867)"><path
       d="m 78.79781,40.39552 h 56.69291 V 74.41127 H 78.79781 Z"
       style="fill:#dedede;fill-opacity:1;fill-rule:nonzero;stroke:none"
       id="path12" /><path
       d="m 22.10489,79.00674 2.20767,2.20768 m -2.20767,-22.25165 2.83464,2.83465 m -2.83464,-22.87861 2.83464,2.83464 m -0.02261,-20.06659 2.83464,2.83464 m 17.20933,-2.83464 2.83464,2.83464 m 17.20934,-2.83464 2.83464,2.83464 m 17.20933,-2.83464 2.83464,2.83464 m 17.20932,-2.83464 2.83466,2.83464 m 17.20932,-2.83464 2.83464,2.83464 m 17.20934,-2.83464 2.83465,2.83464 m 17.20932,-2.83464 2.83466,2.83464 m 17.20932,-2.83464 2.83462,2.83464 m -165.99844,44.46326 2.83464,2.83465 m -2.83464,-22.87863 2.83464,2.83466 m -2.83464,-22.87862 2.83464,2.83464 m 9.99937,-10.0446 2.83464,2.83464 m 17.20934,-2.83464 2.83464,2.83464 m 17.20934,-2.83464 2.83464,2.83464 m 17.20932,-2.83464 2.83465,2.83464 m 17.20932,-2.83464 2.83464,2.83464 m 17.20935,-2.83464 2.83463,2.83464 m 17.20932,-2.83464 2.83465,2.83464 m 17.20932,-2.83464 2.83466,2.83464"
       style="fill:none;stroke:#000000;stroke-width:0.3685;stroke-linecap:round;stroke-linejoin:round;stroke-miterlimit:10;stroke-dasharray:none;stroke-opacity:1"
       id="path14" /><path
       d="M 24.93953,81.21442 V 24.5215 H 191.6167"
       style="fill:none;stroke:#000000;stroke-width:0.85039;stroke-linecap:round;stroke-linejoin:round;stroke-miterlimit:10;stroke-dasharray:none;stroke-opacity:1"
       id="path16" /><path
       d="m 94.67181,32.45851 c 0,4.38349 -3.55351,7.93701 -7.93701,7.93701 m 0,0 c -4.38348,0 -7.93699,-3.55352 -7.93699,-7.93701 m 0,0 c 0,-4.38348 3.55351,-7.93701 7.93699,-7.93701 m 0,0 c 4.3835,0 7.93701,3.55353 7.93701,7.93701"
       style="fill:none;stroke:#000000;stroke-width:0.28346;stroke-linecap:round;stroke-linejoin:round;stroke-miterlimit:10;stroke-dasharray:none;stroke-opacity:1"
       id="path18" /><path
       d="M 24.93953,46.06482 H 53.286 M 39.11276,68.74197 H 24.93953 m 14.17323,0 0.7672,2.1538 0.74379,1.85919 0.69696,1.27003 0.32359,0.32203 0.3031,0.06425 0.25942,-0.19077 0.24109,-0.40914 0.4335,-1.34551 0.71649,-3.90364 0.5999,-3.81377 0.28777,-1.23314 0.14636,-0.33612 0.15013,-0.10649 0.1551,0.14432 0.16004,0.37306 0.33308,1.3008 0.70653,3.89921 0.73781,3.87517 0.37219,1.27072 0.18544,0.35352 0.18445,0.12178 0.1831,-0.13187 0.1818,-0.36337 0.36011,-1.28876 0.70938,-3.89795 0.70083,-3.89163 0.34944,-1.28085 0.17487,-0.35823 0.17511,-0.12592 0.17545,0.12845 0.17578,0.36069 0.35246,1.28535 0.70795,3.89733 0.7108,3.89605 0.35601,1.28379 0.17809,0.35966 0.17812,0.12726 0.1781,-0.12726 0.17808,-0.35966 0.35602,-1.28379 0.7108,-3.89605 0.70795,-3.89733 0.35246,-1.28535 0.17578,-0.36069 0.17545,-0.12845 0.17511,0.12592 0.17486,0.35823 0.34944,1.28085"
       style="fill:none;stroke:#000000;stroke-width:0.28346;stroke-linecap:round;stroke-linejoin:round;stroke-miterlimit:10;stroke-dasharray:none;stroke-opacity:1"
       id="path20" /><path
       d="m 56.82005,64.83769 0.70084,3.89163 0.70938,3.89795 0.36011,1.28876 0.18179,0.36337 0.18311,0.13187 0.18444,-0.12178 0.18544,-0.35352 0.3722,-1.27072 0.73781,-3.87517 0.70652,-3.89921 0.33309,-1.3008 0.16003,-0.37306 0.15512,-0.14432 0.15012,0.10649 0.14636,0.33612 0.28778,1.23314 0.59989,3.81377 0.71649,3.90364 0.4335,1.34551 0.24109,0.40914 0.25941,0.19077 0.3031,-0.06425 0.32361,-0.32203 0.69695,-1.27003 0.74379,-1.85919 0.76719,-2.1538 h 11.3386 M 53.286,48.89946 v -5.6693 m -6.80317,8.50394 h 11.3386 V 40.39552 h -11.3386 m 11.3386,5.6693 h 20.97638"
       style="fill:none;stroke:#000000;stroke-width:0.28346;stroke-linecap:round;stroke-linejoin:round;stroke-miterlimit:10;stroke-dasharray:none;stroke-opacity:1"
       id="path22" /><path
       d="m 78.79781,40.39552 h 56.69291 V 74.41127 H 78.79781 V 40.39552"
       style="fill:none;stroke:#000000;stroke-width:0.85039;stroke-linecap:round;stroke-linejoin:round;stroke-miterlimit:10;stroke-dasharray:none;stroke-opacity:1"
       id="path24" /><path
       d="m 119.6167,32.45851 c 0,-4.38348 3.55351,-7.93701 7.93701,-7.93701 m 0,0 c 4.38348,0 7.93701,3.55353 7.93701,7.93701 m 0,0 c 0,4.38349 -3.55353,7.93701 -7.93701,7.93701 m 0,0 c -4.3835,0 -7.93701,-3.55352 -7.93701,-7.93701"
       style="fill:none;stroke:#000000;stroke-width:0.28346;stroke-linecap:round;stroke-linejoin:round;stroke-miterlimit:10;stroke-dasharray:none;stroke-opacity:1"
       id="path26" /><path
       d="m 135.49072,57.4034 h 36.74488 m -4.96064,0 h -0.35434 m 5.31498,0 v 0 l -4.96064,0.70866 v -1.41731 l 4.96064,0.70865"
       style="fill:none;stroke:#000000;stroke-width:0.28346;stroke-linecap:round;stroke-linejoin:round;stroke-miterlimit:10;stroke-dasharray:none;stroke-opacity:1"
       id="path28" /><path
       d="m 167.27496,56.69475 4.96064,0.70865 -4.96064,0.70866 z"
       style="fill:#000000;fill-opacity:1;fill-rule:nonzero;stroke:none"
       id="path30" /><path
       d="m 12.44847,11.29305 h 28.34647 m -5.95276,0 h -0.4252 m 6.37796,0 v 0 l -5.95276,0.85038 v -1.70077 l 5.95276,0.85039"
       style="fill:none;stroke:#000000;stroke-width:0.28346;stroke-linecap:round;stroke-linejoin:round;stroke-miterlimit:10;stroke-dasharray:none;stroke-opacity:1"
       id="path32" /><path
       d="m 34.84218,10.44266 5.95276,0.85039 -5.95276,0.85038 z"
       style="fill:#000000;fill-opacity:1;fill-rule:nonzero;stroke:none"
       id="path34" /><path
       d="m 12.44847,11.29305 v 0"
       style="fill:none;stroke:#000000;stroke-width:0.28346;stroke-linecap:round;stroke-linejoin:round;stroke-miterlimit:10;stroke-dasharray:none;stroke-opacity:1"
       id="path36" /><path
       d="m 9.61383,11.29305 c 0,-1.56554 1.26912,-2.83466 2.83464,-2.83466 m 0,0 c 1.56554,0 2.83466,1.26912 2.83466,2.83466 m 0,0 c 0,1.56552 -1.26912,2.83464 -2.83466,2.83464 m 0,0 c -1.56552,0 -2.83464,-1.26912 -2.83464,-2.83464"
       style="fill:none;stroke:#000000;stroke-width:0.28346;stroke-linecap:round;stroke-linejoin:round;stroke-miterlimit:10;stroke-dasharray:none;stroke-opacity:1"
       id="path38" /><path
       d="M 12.44847,11.29305 V 39.6395 m 0,-5.95276 v -0.42519 m 0,6.37795 v 0 l -0.85039,-5.95276 h 1.70078 l -0.85039,5.95276"
       style="fill:none;stroke:#000000;stroke-width:0.28346;stroke-linecap:round;stroke-linejoin:round;stroke-miterlimit:10;stroke-dasharray:none;stroke-opacity:1"
       id="path40" /><path
       d="M 13.29886,33.68674 12.44847,39.6395 11.59808,33.68674 Z"
       style="fill:#000000;fill-opacity:1;fill-rule:nonzero;stroke:none"
       id="path42" /><path
       d="m 24.93953,104.04486 2.97638,0.4252 v -0.85039 l -2.97638,0.42519 m 36.8504,0 -2.97638,0.4252 v -0.85039 l 2.97638,0.42519 2.97638,0.4252 v -0.85039 l -2.97638,0.42519 m 17.00788,0 -2.97638,0.4252 v -0.85039 l 2.97638,0.42519"
       style="fill:none;stroke:#000000;stroke-width:0.56693;stroke-linecap:round;stroke-linejoin:round;stroke-miterlimit:10;stroke-dasharray:none;stroke-opacity:1"
       id="path44" /><path
       d="m 24.93953,104.04486 v 2.12599 m 0,-2.12599 v -2.12598 m 36.8504,2.12598 v 2.12599 m 0,-2.12599 v -2.12598 m 0,2.12598 v 2.12599 m 0,-2.12599 v -2.12598 m 17.00788,2.12598 v 2.12599 m 0,-2.12599 v -2.12598 m -53.85828,2.12598 V 92.70628 m 36.8504,11.33858 V 92.70628 m 17.00788,11.33858 V 92.70628 m -53.85828,11.33858 v 0 m 53.85828,0 v 0 m -53.85828,0 h 36.8504 17.00788"
       style="fill:none;stroke:#000000;stroke-width:0.28346;stroke-linecap:round;stroke-linejoin:round;stroke-miterlimit:10;stroke-dasharray:none;stroke-opacity:1"
       id="path46" /><g
       id="g48"><g
         id="g50"
         clip-path="url(#clipPath54)"><text
           transform="matrix(1,0,0,-1,102.14228,53.50575)"
           style="font-style:italic;font-variant:normal;font-weight:normal;font-stretch:normal;font-size:11.0078px;font-family:'Palatino Linotype';-inkscape-font-specification:PalatinoLinotype-Italic;writing-mode:lr-tb;fill:#000000;fill-opacity:1;fill-rule:nonzero;stroke:none"
           id="text58"><tspan
             x="0"
             y="0"
             id="tspan56">m</tspan></text></g></g><g
       id="g60"><g
         id="g62"
         clip-path="url(#clipPath66)"><text
           transform="matrix(1,0,0,-1,49.93818,78.61044)"
           style="font-style:italic;font-variant:normal;font-weight:normal;font-stretch:normal;font-size:11.0078px;font-family:'Palatino Linotype';-inkscape-font-specification:PalatinoLinotype-Italic;writing-mode:lr-tb;fill:#000000;fill-opacity:1;fill-rule:nonzero;stroke:none"
           id="text70"><tspan
             x="0"
             y="0"
             id="tspan68">k</tspan></text></g></g><g
       id="g72"><g
         id="g74"
         clip-path="url(#clipPath78)"><text
           transform="matrix(1,0,0,-1,50.52282,28.87351)"
           style="font-style:italic;font-variant:normal;font-weight:normal;font-stretch:normal;font-size:11.0078px;font-family:'Palatino Linotype';-inkscape-font-specification:PalatinoLinotype-Italic;writing-mode:lr-tb;fill:#000000;fill-opacity:1;fill-rule:nonzero;stroke:none"
           id="text82"><tspan
             x="0"
             y="0"
             id="tspan80">c</tspan></text></g></g><g
       id="g84"><g
         id="g86"
         clip-path="url(#clipPath90)"><text
           transform="matrix(1,0,0,-1,177.23072,54.76685)"
           style="font-style:italic;font-variant:normal;font-weight:normal;font-stretch:normal;font-size:11.0078px;font-family:'Palatino Linotype';-inkscape-font-specification:PalatinoLinotype-Italic;writing-mode:lr-tb;fill:#000000;fill-opacity:1;fill-rule:nonzero;stroke:none"
           id="text94"><tspan
             x="0 5.5039201 9.1695309 12.835141"
             y="0"
             id="tspan92">p(t)</tspan></text></g></g><g
       id="g96"><g
         id="g98"
         clip-path="url(#clipPath102)"><text
           transform="matrix(1,0,0,-1,62.51294,110.90956)"
           style="font-style:italic;font-variant:normal;font-weight:normal;font-stretch:normal;font-size:11.0078px;font-family:'Palatino Linotype';-inkscape-font-specification:PalatinoLinotype-Italic;writing-mode:lr-tb;fill:#000000;fill-opacity:1;fill-rule:nonzero;stroke:none"
           id="text106"><tspan
             x="0 5.5039201 9.1695309 12.835141"
             y="0"
             id="tspan104">x(t)</tspan></text></g></g><g
       id="g108"><g
         id="g110"
         clip-path="url(#clipPath114)"><text
           transform="matrix(1,0,0,-1,41.06412,110.71468)"
           style="font-style:italic;font-variant:normal;font-weight:normal;font-stretch:normal;font-size:11.0078px;font-family:'Palatino Linotype';-inkscape-font-specification:PalatinoLinotype-Italic;writing-mode:lr-tb;fill:#000000;fill-opacity:1;fill-rule:nonzero;stroke:none"
           id="text118"><tspan
             x="0"
             y="0"
             id="tspan116">l</tspan></text></g></g><g
       id="g120"><g
         id="g122"
         clip-path="url(#clipPath126)"><text
           transform="matrix(1,0,0,-1,44.35914,106.16743)"
           style="font-style:italic;font-variant:normal;font-weight:normal;font-stretch:normal;font-size:6.6047px;font-family:'Palatino Linotype';-inkscape-font-specification:PalatinoLinotype-Italic;writing-mode:lr-tb;fill:#000000;fill-opacity:1;fill-rule:nonzero;stroke:none"
           id="text130"><tspan
             x="0"
             y="0"
             id="tspan128">0</tspan></text></g></g><g
       id="g132"><g
         id="g134"
         clip-path="url(#clipPath138)"><text
           transform="matrix(1,0,0,-1,43.72209,9.06209)"
           style="font-style:italic;font-variant:normal;font-weight:normal;font-stretch:normal;font-size:11.0078px;font-family:'Palatino Linotype';-inkscape-font-specification:PalatinoLinotype-Italic;writing-mode:lr-tb;fill:#000000;fill-opacity:1;fill-rule:nonzero;stroke:none"
           id="text142"><tspan
             x="0"
             y="0"
             id="tspan140">x</tspan></text></g></g><g
       id="g144"><g
         id="g146"
         clip-path="url(#clipPath150)"><text
           transform="matrix(1,0,0,-1,9.83594,41.14531)"
           style="font-style:italic;font-variant:normal;font-weight:normal;font-stretch:normal;font-size:11.0078px;font-family:'Palatino Linotype';-inkscape-font-specification:PalatinoLinotype-Italic;writing-mode:lr-tb;fill:#000000;fill-opacity:1;fill-rule:nonzero;stroke:none"
           id="text154"><tspan
             x="0"
             y="0"
             id="tspan152">z</tspan></text></g></g><g
       id="g156"><g
         id="g158"
         clip-path="url(#clipPath162)"><text
           transform="matrix(1,0,0,-1,3.26534,13.70833)"
           style="font-style:italic;font-variant:normal;font-weight:normal;font-stretch:normal;font-size:11.0078px;font-family:'Palatino Linotype';-inkscape-font-specification:PalatinoLinotype-Italic;writing-mode:lr-tb;fill:#000000;fill-opacity:1;fill-rule:nonzero;stroke:none"
           id="text166"><tspan
             x="0"
             y="0"
             id="tspan164">y</tspan></text></g></g></g></svg>
