<?xml version="1.0" encoding="utf-8" standalone="no"?>
<!DOCTYPE svg PUBLIC "-//W3C//DTD SVG 1.1//EN"
  "http://www.w3.org/Graphics/SVG/1.1/DTD/svg11.dtd">
<svg xmlns:xlink="http://www.w3.org/1999/xlink" width="425.19672pt" height="252pt" viewBox="0 0 425.19672 252" xmlns="http://www.w3.org/2000/svg" version="1.1">
 <metadata>
  <rdf:RDF xmlns:dc="http://purl.org/dc/elements/1.1/" xmlns:cc="http://creativecommons.org/ns#" xmlns:rdf="http://www.w3.org/1999/02/22-rdf-syntax-ns#">
   <cc:Work>
    <dc:type rdf:resource="http://purl.org/dc/dcmitype/StillImage"/>
    <dc:date>2023-08-08T08:17:41.530331</dc:date>
    <dc:format>image/svg+xml</dc:format>
    <dc:creator>
     <cc:Agent>
      <dc:title>Matplotlib v3.7.1, https://matplotlib.org/</dc:title>
     </cc:Agent>
    </dc:creator>
   </cc:Work>
  </rdf:RDF>
 </metadata>
 <defs>
  <style type="text/css">*{stroke-linejoin: round; stroke-linecap: butt}</style>
 </defs>
 <g id="figure_1">
  <g id="patch_1">
   <path d="M 0 252 
L 425.19672 252 
L 425.19672 0 
L 0 0 
z
" style="fill: #ffffff"/>
  </g>
  <g id="axes_1">
   <g id="patch_2">
    <path d="M 53.14959 201.6 
L 382.677048 201.6 
L 382.677048 30.24 
L 53.14959 30.24 
z
" style="fill: #ffffff"/>
   </g>
   <g id="matplotlib.axis_1">
    <g id="xtick_1">
     <g id="line2d_1">
      <path d="M 53.14959 201.6 
L 53.14959 30.24 
" clip-path="url(#p60f67c5798)" style="fill: none; stroke: #b0b0b0; stroke-width: 0.8; stroke-linecap: square"/>
     </g>
     <g id="line2d_2">
      <defs>
       <path id="m21c7fd0692" d="M 0 0 
L 0 3.5 
" style="stroke: #000000; stroke-width: 0.8"/>
      </defs>
      <g>
       <use xlink:href="#m21c7fd0692" x="53.14959" y="201.6" style="stroke: #000000; stroke-width: 0.8"/>
      </g>
     </g>
     <g id="text_1">
      <!-- 0 -->
      <g transform="translate(49.96834 216.198437) scale(0.1 -0.1)">
       <defs>
        <path id="DejaVuSans-30" d="M 2034 4250 
Q 1547 4250 1301 3770 
Q 1056 3291 1056 2328 
Q 1056 1369 1301 889 
Q 1547 409 2034 409 
Q 2525 409 2770 889 
Q 3016 1369 3016 2328 
Q 3016 3291 2770 3770 
Q 2525 4250 2034 4250 
z
M 2034 4750 
Q 2819 4750 3233 4129 
Q 3647 3509 3647 2328 
Q 3647 1150 3233 529 
Q 2819 -91 2034 -91 
Q 1250 -91 836 529 
Q 422 1150 422 2328 
Q 422 3509 836 4129 
Q 1250 4750 2034 4750 
z
" transform="scale(0.015625)"/>
       </defs>
       <use xlink:href="#DejaVuSans-30"/>
      </g>
     </g>
    </g>
    <g id="xtick_2">
     <g id="line2d_3">
      <path d="M 119.055082 201.6 
L 119.055082 30.24 
" clip-path="url(#p60f67c5798)" style="fill: none; stroke: #b0b0b0; stroke-width: 0.8; stroke-linecap: square"/>
     </g>
     <g id="line2d_4">
      <g>
       <use xlink:href="#m21c7fd0692" x="119.055082" y="201.6" style="stroke: #000000; stroke-width: 0.8"/>
      </g>
     </g>
     <g id="text_2">
      <!-- 2 -->
      <g transform="translate(115.873832 216.198437) scale(0.1 -0.1)">
       <defs>
        <path id="DejaVuSans-32" d="M 1228 531 
L 3431 531 
L 3431 0 
L 469 0 
L 469 531 
Q 828 903 1448 1529 
Q 2069 2156 2228 2338 
Q 2531 2678 2651 2914 
Q 2772 3150 2772 3378 
Q 2772 3750 2511 3984 
Q 2250 4219 1831 4219 
Q 1534 4219 1204 4116 
Q 875 4013 500 3803 
L 500 4441 
Q 881 4594 1212 4672 
Q 1544 4750 1819 4750 
Q 2544 4750 2975 4387 
Q 3406 4025 3406 3419 
Q 3406 3131 3298 2873 
Q 3191 2616 2906 2266 
Q 2828 2175 2409 1742 
Q 1991 1309 1228 531 
z
" transform="scale(0.015625)"/>
       </defs>
       <use xlink:href="#DejaVuSans-32"/>
      </g>
     </g>
    </g>
    <g id="xtick_3">
     <g id="line2d_5">
      <path d="M 184.960573 201.6 
L 184.960573 30.24 
" clip-path="url(#p60f67c5798)" style="fill: none; stroke: #b0b0b0; stroke-width: 0.8; stroke-linecap: square"/>
     </g>
     <g id="line2d_6">
      <g>
       <use xlink:href="#m21c7fd0692" x="184.960573" y="201.6" style="stroke: #000000; stroke-width: 0.8"/>
      </g>
     </g>
     <g id="text_3">
      <!-- 4 -->
      <g transform="translate(181.779323 216.198437) scale(0.1 -0.1)">
       <defs>
        <path id="DejaVuSans-34" d="M 2419 4116 
L 825 1625 
L 2419 1625 
L 2419 4116 
z
M 2253 4666 
L 3047 4666 
L 3047 1625 
L 3713 1625 
L 3713 1100 
L 3047 1100 
L 3047 0 
L 2419 0 
L 2419 1100 
L 313 1100 
L 313 1709 
L 2253 4666 
z
" transform="scale(0.015625)"/>
       </defs>
       <use xlink:href="#DejaVuSans-34"/>
      </g>
     </g>
    </g>
    <g id="xtick_4">
     <g id="line2d_7">
      <path d="M 250.866065 201.6 
L 250.866065 30.24 
" clip-path="url(#p60f67c5798)" style="fill: none; stroke: #b0b0b0; stroke-width: 0.8; stroke-linecap: square"/>
     </g>
     <g id="line2d_8">
      <g>
       <use xlink:href="#m21c7fd0692" x="250.866065" y="201.6" style="stroke: #000000; stroke-width: 0.8"/>
      </g>
     </g>
     <g id="text_4">
      <!-- 6 -->
      <g transform="translate(247.684815 216.198437) scale(0.1 -0.1)">
       <defs>
        <path id="DejaVuSans-36" d="M 2113 2584 
Q 1688 2584 1439 2293 
Q 1191 2003 1191 1497 
Q 1191 994 1439 701 
Q 1688 409 2113 409 
Q 2538 409 2786 701 
Q 3034 994 3034 1497 
Q 3034 2003 2786 2293 
Q 2538 2584 2113 2584 
z
M 3366 4563 
L 3366 3988 
Q 3128 4100 2886 4159 
Q 2644 4219 2406 4219 
Q 1781 4219 1451 3797 
Q 1122 3375 1075 2522 
Q 1259 2794 1537 2939 
Q 1816 3084 2150 3084 
Q 2853 3084 3261 2657 
Q 3669 2231 3669 1497 
Q 3669 778 3244 343 
Q 2819 -91 2113 -91 
Q 1303 -91 875 529 
Q 447 1150 447 2328 
Q 447 3434 972 4092 
Q 1497 4750 2381 4750 
Q 2619 4750 2861 4703 
Q 3103 4656 3366 4563 
z
" transform="scale(0.015625)"/>
       </defs>
       <use xlink:href="#DejaVuSans-36"/>
      </g>
     </g>
    </g>
    <g id="xtick_5">
     <g id="line2d_9">
      <path d="M 316.771556 201.6 
L 316.771556 30.24 
" clip-path="url(#p60f67c5798)" style="fill: none; stroke: #b0b0b0; stroke-width: 0.8; stroke-linecap: square"/>
     </g>
     <g id="line2d_10">
      <g>
       <use xlink:href="#m21c7fd0692" x="316.771556" y="201.6" style="stroke: #000000; stroke-width: 0.8"/>
      </g>
     </g>
     <g id="text_5">
      <!-- 8 -->
      <g transform="translate(313.590306 216.198437) scale(0.1 -0.1)">
       <defs>
        <path id="DejaVuSans-38" d="M 2034 2216 
Q 1584 2216 1326 1975 
Q 1069 1734 1069 1313 
Q 1069 891 1326 650 
Q 1584 409 2034 409 
Q 2484 409 2743 651 
Q 3003 894 3003 1313 
Q 3003 1734 2745 1975 
Q 2488 2216 2034 2216 
z
M 1403 2484 
Q 997 2584 770 2862 
Q 544 3141 544 3541 
Q 544 4100 942 4425 
Q 1341 4750 2034 4750 
Q 2731 4750 3128 4425 
Q 3525 4100 3525 3541 
Q 3525 3141 3298 2862 
Q 3072 2584 2669 2484 
Q 3125 2378 3379 2068 
Q 3634 1759 3634 1313 
Q 3634 634 3220 271 
Q 2806 -91 2034 -91 
Q 1263 -91 848 271 
Q 434 634 434 1313 
Q 434 1759 690 2068 
Q 947 2378 1403 2484 
z
M 1172 3481 
Q 1172 3119 1398 2916 
Q 1625 2713 2034 2713 
Q 2441 2713 2670 2916 
Q 2900 3119 2900 3481 
Q 2900 3844 2670 4047 
Q 2441 4250 2034 4250 
Q 1625 4250 1398 4047 
Q 1172 3844 1172 3481 
z
" transform="scale(0.015625)"/>
       </defs>
       <use xlink:href="#DejaVuSans-38"/>
      </g>
     </g>
    </g>
    <g id="xtick_6">
     <g id="line2d_11">
      <path d="M 382.677048 201.6 
L 382.677048 30.24 
" clip-path="url(#p60f67c5798)" style="fill: none; stroke: #b0b0b0; stroke-width: 0.8; stroke-linecap: square"/>
     </g>
     <g id="line2d_12">
      <g>
       <use xlink:href="#m21c7fd0692" x="382.677048" y="201.6" style="stroke: #000000; stroke-width: 0.8"/>
      </g>
     </g>
     <g id="text_6">
      <!-- 10 -->
      <g transform="translate(376.314548 216.198437) scale(0.1 -0.1)">
       <defs>
        <path id="DejaVuSans-31" d="M 794 531 
L 1825 531 
L 1825 4091 
L 703 3866 
L 703 4441 
L 1819 4666 
L 2450 4666 
L 2450 531 
L 3481 531 
L 3481 0 
L 794 0 
L 794 531 
z
" transform="scale(0.015625)"/>
       </defs>
       <use xlink:href="#DejaVuSans-31"/>
       <use xlink:href="#DejaVuSans-30" x="63.623047"/>
      </g>
     </g>
    </g>
    <g id="text_7">
     <!-- Zeit [s] -->
     <g transform="translate(199.967225 229.876562) scale(0.1 -0.1)">
      <defs>
       <path id="DejaVuSans-5a" d="M 359 4666 
L 4025 4666 
L 4025 4184 
L 1075 531 
L 4097 531 
L 4097 0 
L 288 0 
L 288 481 
L 3238 4134 
L 359 4134 
L 359 4666 
z
" transform="scale(0.015625)"/>
       <path id="DejaVuSans-65" d="M 3597 1894 
L 3597 1613 
L 953 1613 
Q 991 1019 1311 708 
Q 1631 397 2203 397 
Q 2534 397 2845 478 
Q 3156 559 3463 722 
L 3463 178 
Q 3153 47 2828 -22 
Q 2503 -91 2169 -91 
Q 1331 -91 842 396 
Q 353 884 353 1716 
Q 353 2575 817 3079 
Q 1281 3584 2069 3584 
Q 2775 3584 3186 3129 
Q 3597 2675 3597 1894 
z
M 3022 2063 
Q 3016 2534 2758 2815 
Q 2500 3097 2075 3097 
Q 1594 3097 1305 2825 
Q 1016 2553 972 2059 
L 3022 2063 
z
" transform="scale(0.015625)"/>
       <path id="DejaVuSans-69" d="M 603 3500 
L 1178 3500 
L 1178 0 
L 603 0 
L 603 3500 
z
M 603 4863 
L 1178 4863 
L 1178 4134 
L 603 4134 
L 603 4863 
z
" transform="scale(0.015625)"/>
       <path id="DejaVuSans-74" d="M 1172 4494 
L 1172 3500 
L 2356 3500 
L 2356 3053 
L 1172 3053 
L 1172 1153 
Q 1172 725 1289 603 
Q 1406 481 1766 481 
L 2356 481 
L 2356 0 
L 1766 0 
Q 1100 0 847 248 
Q 594 497 594 1153 
L 594 3053 
L 172 3053 
L 172 3500 
L 594 3500 
L 594 4494 
L 1172 4494 
z
" transform="scale(0.015625)"/>
       <path id="DejaVuSans-20" transform="scale(0.015625)"/>
       <path id="DejaVuSans-5b" d="M 550 4863 
L 1875 4863 
L 1875 4416 
L 1125 4416 
L 1125 -397 
L 1875 -397 
L 1875 -844 
L 550 -844 
L 550 4863 
z
" transform="scale(0.015625)"/>
       <path id="DejaVuSans-73" d="M 2834 3397 
L 2834 2853 
Q 2591 2978 2328 3040 
Q 2066 3103 1784 3103 
Q 1356 3103 1142 2972 
Q 928 2841 928 2578 
Q 928 2378 1081 2264 
Q 1234 2150 1697 2047 
L 1894 2003 
Q 2506 1872 2764 1633 
Q 3022 1394 3022 966 
Q 3022 478 2636 193 
Q 2250 -91 1575 -91 
Q 1294 -91 989 -36 
Q 684 19 347 128 
L 347 722 
Q 666 556 975 473 
Q 1284 391 1588 391 
Q 1994 391 2212 530 
Q 2431 669 2431 922 
Q 2431 1156 2273 1281 
Q 2116 1406 1581 1522 
L 1381 1569 
Q 847 1681 609 1914 
Q 372 2147 372 2553 
Q 372 3047 722 3315 
Q 1072 3584 1716 3584 
Q 2034 3584 2315 3537 
Q 2597 3491 2834 3397 
z
" transform="scale(0.015625)"/>
       <path id="DejaVuSans-5d" d="M 1947 4863 
L 1947 -844 
L 622 -844 
L 622 -397 
L 1369 -397 
L 1369 4416 
L 622 4416 
L 622 4863 
L 1947 4863 
z
" transform="scale(0.015625)"/>
      </defs>
      <use xlink:href="#DejaVuSans-5a"/>
      <use xlink:href="#DejaVuSans-65" x="68.505859"/>
      <use xlink:href="#DejaVuSans-69" x="130.029297"/>
      <use xlink:href="#DejaVuSans-74" x="157.8125"/>
      <use xlink:href="#DejaVuSans-20" x="197.021484"/>
      <use xlink:href="#DejaVuSans-5b" x="228.808594"/>
      <use xlink:href="#DejaVuSans-73" x="267.822266"/>
      <use xlink:href="#DejaVuSans-5d" x="319.921875"/>
     </g>
    </g>
   </g>
   <g id="matplotlib.axis_2">
    <g id="ytick_1">
     <g id="line2d_13">
      <path d="M 53.14959 164.099044 
L 382.677048 164.099044 
" clip-path="url(#p60f67c5798)" style="fill: none; stroke: #b0b0b0; stroke-width: 0.8; stroke-linecap: square"/>
     </g>
     <g id="line2d_14">
      <defs>
       <path id="m8fb46209fe" d="M 0 0 
L -3.5 0 
" style="stroke: #000000; stroke-width: 0.8"/>
      </defs>
      <g>
       <use xlink:href="#m8fb46209fe" x="53.14959" y="164.099044" style="stroke: #000000; stroke-width: 0.8"/>
      </g>
     </g>
     <g id="text_8">
      <!-- −10 -->
      <g transform="translate(25.044902 167.898263) scale(0.1 -0.1)">
       <defs>
        <path id="DejaVuSans-2212" d="M 678 2272 
L 4684 2272 
L 4684 1741 
L 678 1741 
L 678 2272 
z
" transform="scale(0.015625)"/>
       </defs>
       <use xlink:href="#DejaVuSans-2212"/>
       <use xlink:href="#DejaVuSans-31" x="83.789062"/>
       <use xlink:href="#DejaVuSans-30" x="147.412109"/>
      </g>
     </g>
    </g>
    <g id="ytick_2">
     <g id="line2d_15">
      <path d="M 53.14959 122.075726 
L 382.677048 122.075726 
" clip-path="url(#p60f67c5798)" style="fill: none; stroke: #b0b0b0; stroke-width: 0.8; stroke-linecap: square"/>
     </g>
     <g id="line2d_16">
      <g>
       <use xlink:href="#m8fb46209fe" x="53.14959" y="122.075726" style="stroke: #000000; stroke-width: 0.8"/>
      </g>
     </g>
     <g id="text_9">
      <!-- 0 -->
      <g transform="translate(39.78709 125.874945) scale(0.1 -0.1)">
       <use xlink:href="#DejaVuSans-30"/>
      </g>
     </g>
    </g>
    <g id="ytick_3">
     <g id="line2d_17">
      <path d="M 53.14959 80.052409 
L 382.677048 80.052409 
" clip-path="url(#p60f67c5798)" style="fill: none; stroke: #b0b0b0; stroke-width: 0.8; stroke-linecap: square"/>
     </g>
     <g id="line2d_18">
      <g>
       <use xlink:href="#m8fb46209fe" x="53.14959" y="80.052409" style="stroke: #000000; stroke-width: 0.8"/>
      </g>
     </g>
     <g id="text_10">
      <!-- 10 -->
      <g transform="translate(33.42459 83.851627) scale(0.1 -0.1)">
       <use xlink:href="#DejaVuSans-31"/>
       <use xlink:href="#DejaVuSans-30" x="63.623047"/>
      </g>
     </g>
    </g>
    <g id="ytick_4">
     <g id="line2d_19">
      <path d="M 53.14959 38.029091 
L 382.677048 38.029091 
" clip-path="url(#p60f67c5798)" style="fill: none; stroke: #b0b0b0; stroke-width: 0.8; stroke-linecap: square"/>
     </g>
     <g id="line2d_20">
      <g>
       <use xlink:href="#m8fb46209fe" x="53.14959" y="38.029091" style="stroke: #000000; stroke-width: 0.8"/>
      </g>
     </g>
     <g id="text_11">
      <!-- 20 -->
      <g transform="translate(33.42459 41.82831) scale(0.1 -0.1)">
       <use xlink:href="#DejaVuSans-32"/>
       <use xlink:href="#DejaVuSans-30" x="63.623047"/>
      </g>
     </g>
    </g>
    <g id="text_12">
     <!-- Verschiebung -->
     <g transform="translate(18.965215 149.759063) rotate(-90) scale(0.1 -0.1)">
      <defs>
       <path id="DejaVuSans-56" d="M 1831 0 
L 50 4666 
L 709 4666 
L 2188 738 
L 3669 4666 
L 4325 4666 
L 2547 0 
L 1831 0 
z
" transform="scale(0.015625)"/>
       <path id="DejaVuSans-72" d="M 2631 2963 
Q 2534 3019 2420 3045 
Q 2306 3072 2169 3072 
Q 1681 3072 1420 2755 
Q 1159 2438 1159 1844 
L 1159 0 
L 581 0 
L 581 3500 
L 1159 3500 
L 1159 2956 
Q 1341 3275 1631 3429 
Q 1922 3584 2338 3584 
Q 2397 3584 2469 3576 
Q 2541 3569 2628 3553 
L 2631 2963 
z
" transform="scale(0.015625)"/>
       <path id="DejaVuSans-63" d="M 3122 3366 
L 3122 2828 
Q 2878 2963 2633 3030 
Q 2388 3097 2138 3097 
Q 1578 3097 1268 2742 
Q 959 2388 959 1747 
Q 959 1106 1268 751 
Q 1578 397 2138 397 
Q 2388 397 2633 464 
Q 2878 531 3122 666 
L 3122 134 
Q 2881 22 2623 -34 
Q 2366 -91 2075 -91 
Q 1284 -91 818 406 
Q 353 903 353 1747 
Q 353 2603 823 3093 
Q 1294 3584 2113 3584 
Q 2378 3584 2631 3529 
Q 2884 3475 3122 3366 
z
" transform="scale(0.015625)"/>
       <path id="DejaVuSans-68" d="M 3513 2113 
L 3513 0 
L 2938 0 
L 2938 2094 
Q 2938 2591 2744 2837 
Q 2550 3084 2163 3084 
Q 1697 3084 1428 2787 
Q 1159 2491 1159 1978 
L 1159 0 
L 581 0 
L 581 4863 
L 1159 4863 
L 1159 2956 
Q 1366 3272 1645 3428 
Q 1925 3584 2291 3584 
Q 2894 3584 3203 3211 
Q 3513 2838 3513 2113 
z
" transform="scale(0.015625)"/>
       <path id="DejaVuSans-62" d="M 3116 1747 
Q 3116 2381 2855 2742 
Q 2594 3103 2138 3103 
Q 1681 3103 1420 2742 
Q 1159 2381 1159 1747 
Q 1159 1113 1420 752 
Q 1681 391 2138 391 
Q 2594 391 2855 752 
Q 3116 1113 3116 1747 
z
M 1159 2969 
Q 1341 3281 1617 3432 
Q 1894 3584 2278 3584 
Q 2916 3584 3314 3078 
Q 3713 2572 3713 1747 
Q 3713 922 3314 415 
Q 2916 -91 2278 -91 
Q 1894 -91 1617 61 
Q 1341 213 1159 525 
L 1159 0 
L 581 0 
L 581 4863 
L 1159 4863 
L 1159 2969 
z
" transform="scale(0.015625)"/>
       <path id="DejaVuSans-75" d="M 544 1381 
L 544 3500 
L 1119 3500 
L 1119 1403 
Q 1119 906 1312 657 
Q 1506 409 1894 409 
Q 2359 409 2629 706 
Q 2900 1003 2900 1516 
L 2900 3500 
L 3475 3500 
L 3475 0 
L 2900 0 
L 2900 538 
Q 2691 219 2414 64 
Q 2138 -91 1772 -91 
Q 1169 -91 856 284 
Q 544 659 544 1381 
z
M 1991 3584 
L 1991 3584 
z
" transform="scale(0.015625)"/>
       <path id="DejaVuSans-6e" d="M 3513 2113 
L 3513 0 
L 2938 0 
L 2938 2094 
Q 2938 2591 2744 2837 
Q 2550 3084 2163 3084 
Q 1697 3084 1428 2787 
Q 1159 2491 1159 1978 
L 1159 0 
L 581 0 
L 581 3500 
L 1159 3500 
L 1159 2956 
Q 1366 3272 1645 3428 
Q 1925 3584 2291 3584 
Q 2894 3584 3203 3211 
Q 3513 2838 3513 2113 
z
" transform="scale(0.015625)"/>
       <path id="DejaVuSans-67" d="M 2906 1791 
Q 2906 2416 2648 2759 
Q 2391 3103 1925 3103 
Q 1463 3103 1205 2759 
Q 947 2416 947 1791 
Q 947 1169 1205 825 
Q 1463 481 1925 481 
Q 2391 481 2648 825 
Q 2906 1169 2906 1791 
z
M 3481 434 
Q 3481 -459 3084 -895 
Q 2688 -1331 1869 -1331 
Q 1566 -1331 1297 -1286 
Q 1028 -1241 775 -1147 
L 775 -588 
Q 1028 -725 1275 -790 
Q 1522 -856 1778 -856 
Q 2344 -856 2625 -561 
Q 2906 -266 2906 331 
L 2906 616 
Q 2728 306 2450 153 
Q 2172 0 1784 0 
Q 1141 0 747 490 
Q 353 981 353 1791 
Q 353 2603 747 3093 
Q 1141 3584 1784 3584 
Q 2172 3584 2450 3431 
Q 2728 3278 2906 2969 
L 2906 3500 
L 3481 3500 
L 3481 434 
z
" transform="scale(0.015625)"/>
      </defs>
      <use xlink:href="#DejaVuSans-56"/>
      <use xlink:href="#DejaVuSans-65" x="60.658203"/>
      <use xlink:href="#DejaVuSans-72" x="122.181641"/>
      <use xlink:href="#DejaVuSans-73" x="163.294922"/>
      <use xlink:href="#DejaVuSans-63" x="215.394531"/>
      <use xlink:href="#DejaVuSans-68" x="270.375"/>
      <use xlink:href="#DejaVuSans-69" x="333.753906"/>
      <use xlink:href="#DejaVuSans-65" x="361.537109"/>
      <use xlink:href="#DejaVuSans-62" x="423.060547"/>
      <use xlink:href="#DejaVuSans-75" x="486.537109"/>
      <use xlink:href="#DejaVuSans-6e" x="549.916016"/>
      <use xlink:href="#DejaVuSans-67" x="613.294922"/>
     </g>
    </g>
   </g>
   <g id="line2d_21">
    <path d="M 53.14959 38.029091 
L 53.479447 38.406629 
L 53.809305 39.613894 
L 54.139162 41.630598 
L 54.798877 47.972207 
L 55.458591 57.118857 
L 56.448163 75.161213 
L 57.767592 104.47802 
L 60.076594 156.640859 
L 61.066166 174.231831 
L 61.72588 183.184807 
L 62.385595 189.54351 
L 63.045309 193.107878 
L 63.375167 193.810909 
L 63.705024 193.792331 
L 64.034881 193.059518 
L 64.364739 191.626882 
L 65.024453 186.75366 
L 65.684168 179.419067 
L 66.67374 164.564968 
L 67.993169 139.904755 
L 70.30217 94.950621 
L 71.291742 79.392411 
L 71.951457 71.303524 
L 72.611172 65.382969 
L 73.270886 61.821919 
L 73.600744 60.959474 
L 73.930601 60.714443 
L 74.260458 61.083117 
L 74.590315 62.05571 
L 74.920173 63.616519 
L 75.579887 68.411723 
L 76.239602 75.234251 
L 77.229174 88.573816 
L 78.548603 110.088574 
L 80.857604 148.039488 
L 81.847176 160.715727 
L 82.506891 167.115097 
L 83.166606 171.606354 
L 83.496463 173.089502 
L 83.82632 174.049692 
L 84.156178 174.482569 
L 84.486035 174.389071 
L 84.815892 173.775374 
L 85.14575 172.652771 
L 85.805464 168.950604 
L 86.465179 163.467951 
L 87.454751 152.472602 
L 88.77418 134.361517 
L 91.083181 101.633617 
L 92.072753 90.410606 
L 92.732468 84.618944 
L 93.392182 80.423465 
L 94.051897 77.958459 
L 94.381754 77.397457 
L 94.711612 77.287115 
L 95.041469 77.624044 
L 95.371326 78.400433 
L 96.031041 81.219008 
L 96.690756 85.597567 
L 97.680328 94.630084 
L 98.999757 109.843613 
L 101.638615 141.558012 
L 102.628187 150.689087 
L 103.287902 155.260163 
L 103.947617 158.428217 
L 104.277474 159.453268 
L 104.607331 160.095764 
L 104.937189 160.353116 
L 105.267046 160.226596 
L 105.596903 159.721288 
L 105.92676 158.845998 
L 106.586475 156.038528 
L 107.24619 151.943503 
L 108.235762 143.808042 
L 109.555191 130.510451 
L 111.864192 106.689246 
L 112.853764 98.596406 
L 113.513479 94.452029 
L 114.173193 91.482293 
L 114.832908 89.781367 
L 115.162765 89.421936 
L 115.492623 89.391372 
L 115.82248 89.686705 
L 116.152337 90.301748 
L 116.812052 92.450715 
L 117.471766 95.728734 
L 118.461338 102.420229 
L 119.780768 113.598997 
L 122.419626 136.680005 
L 123.409198 143.254767 
L 124.068913 146.517627 
L 124.728627 148.749155 
L 125.058485 149.455237 
L 125.388342 149.881539 
L 125.718199 150.026601 
L 126.048057 149.891779 
L 126.377914 149.481205 
L 126.707771 148.801714 
L 127.367486 146.676262 
L 128.027201 143.620007 
L 129.016773 137.60313 
L 130.336202 127.842368 
L 132.645203 110.508084 
L 133.634775 104.674563 
L 134.29449 101.710778 
L 134.954204 99.611157 
L 135.613919 98.441608 
L 135.943776 98.215812 
L 136.273633 98.229952 
L 136.603491 98.481495 
L 136.933348 98.965572 
L 137.593063 100.600601 
L 138.252777 103.052547 
L 139.242349 108.00748 
L 140.561779 116.219233 
L 142.87078 131.160143 
L 143.860352 136.320714 
L 144.520066 138.999439 
L 145.179781 140.95575 
L 145.839496 142.126594 
L 146.169353 142.406574 
L 146.49921 142.481235 
L 146.829068 142.351879 
L 147.158925 142.021825 
L 147.818639 140.782668 
L 148.478354 138.828227 
L 149.467926 134.761891 
L 150.787355 127.868135 
L 153.426214 113.388681 
L 154.415786 109.185339 
L 155.0755 107.0672 
L 155.735215 105.58462 
L 156.39493 104.783637 
L 156.724787 104.645523 
L 157.054644 104.682419 
L 157.384502 104.892215 
L 158.044216 105.813612 
L 158.703931 107.3599 
L 159.363646 109.457539 
L 160.353217 113.427835 
L 162.002504 121.26879 
L 163.651791 128.920044 
L 164.641363 132.642361 
L 165.301077 134.560089 
L 165.960792 135.946059 
L 166.620506 136.755997 
L 166.950364 136.937571 
L 167.280221 136.969287 
L 167.610078 136.852322 
L 168.269793 136.184361 
L 168.929508 134.971653 
L 169.589222 133.272958 
L 170.578794 129.985836 
L 172.228081 123.350708 
L 173.877367 116.73442 
L 174.866939 113.447407 
L 175.856511 111.018428 
L 176.516226 109.972958 
L 177.175941 109.426864 
L 177.505798 109.345543 
L 177.835655 109.391847 
L 178.49537 109.859162 
L 179.155084 110.80037 
L 179.814799 112.168854 
L 180.804371 114.882112 
L 182.1238 119.309627 
L 184.432801 127.225997 
L 185.422373 129.909919 
L 186.082088 131.282017 
L 186.741803 132.262818 
L 187.401517 132.821286 
L 188.061232 132.943707 
L 188.720947 132.633881 
L 189.380661 131.912629 
L 190.040376 130.816631 
L 191.029948 128.584353 
L 192.349377 124.86169 
L 194.988236 117.191489 
L 195.977808 115.01173 
L 196.637522 113.932079 
L 197.297237 113.195903 
L 197.956951 112.825509 
L 198.616666 112.828296 
L 199.276381 113.196755 
L 199.936095 113.909068 
L 200.59581 114.930248 
L 201.585382 116.936754 
L 203.234668 121.046273 
L 205.213812 125.946776 
L 206.203384 127.881253 
L 207.192956 129.246605 
L 207.852671 129.787 
L 208.512386 130.011709 
L 209.1721 129.918102 
L 209.831815 129.51619 
L 210.491529 128.82798 
L 211.481101 127.33342 
L 212.800531 124.718999 
L 215.769246 118.41859 
L 216.758818 116.849857 
L 217.418533 116.07988 
L 218.078248 115.562295 
L 218.737962 115.312571 
L 219.397677 115.335274 
L 220.057392 115.624107 
L 220.717106 116.162371 
L 221.706678 117.377758 
L 223.026107 119.561084 
L 226.324681 125.487146 
L 227.314252 126.751587 
L 227.973967 127.349267 
L 228.633682 127.726537 
L 229.293396 127.872844 
L 229.953111 127.786979 
L 230.612826 127.476941 
L 231.27254 126.959434 
L 232.262112 125.849818 
L 233.581541 123.92632 
L 236.550257 119.339819 
L 237.539829 118.211308 
L 238.529401 117.456924 
L 239.189116 117.190841 
L 239.84883 117.123224 
L 240.508545 117.252816 
L 241.16826 117.570581 
L 242.157832 118.362608 
L 243.147404 119.458604 
L 245.126548 122.125618 
L 246.775834 124.255622 
L 247.765406 125.259422 
L 248.754978 125.952806 
L 249.414693 126.215595 
L 250.074407 126.309447 
L 250.734122 126.233998 
L 251.393837 125.995587 
L 252.383408 125.361691 
L 253.37298 124.45681 
L 255.022267 122.591383 
L 257.001411 120.351887 
L 258.32084 119.21924 
L 259.310412 118.683644 
L 260.299984 118.462985 
L 261.289556 118.567405 
L 262.279128 118.978078 
L 263.2687 119.649735 
L 264.588129 120.833223 
L 267.886702 123.972261 
L 268.876274 124.624051 
L 269.865846 125.031862 
L 270.855418 125.166955 
L 271.84499 125.025485 
L 272.834562 124.628108 
L 274.153991 123.776473 
L 276.133135 122.122067 
L 278.112279 120.548359 
L 279.431708 119.814118 
L 280.42128 119.509152 
L 281.410852 119.439514 
L 282.400424 119.604381 
L 283.389996 119.98228 
L 284.709425 120.746914 
L 289.327428 123.81855 
L 290.317 124.169525 
L 291.306572 124.325498 
L 292.296144 124.278485 
L 293.285716 124.038637 
L 294.605145 123.467351 
L 296.584289 122.286817 
L 298.89329 120.935847 
L 300.212719 120.409212 
L 301.532148 120.161665 
L 302.52172 120.177509 
L 303.84115 120.455006 
L 305.160579 120.972928 
L 307.799437 122.351214 
L 309.778581 123.252294 
L 311.098011 123.613761 
L 312.41744 123.722546 
L 313.736869 123.571697 
L 315.056298 123.194797 
L 317.035442 122.359253 
L 319.674301 121.225652 
L 321.323587 120.784459 
L 322.643017 120.667719 
L 323.962446 120.773894 
L 325.611732 121.178727 
L 327.920734 122.039113 
L 330.229735 122.857938 
L 331.879021 123.205203 
L 333.198451 123.277305 
L 334.51788 123.160255 
L 336.167167 122.78934 
L 342.104598 121.126727 
L 343.753885 121.05371 
L 345.403171 121.228803 
L 347.382315 121.687025 
L 351.67046 122.779426 
L 353.319747 122.946214 
L 354.969034 122.896572 
L 356.948177 122.586286 
L 362.885609 121.37847 
L 364.534896 121.330855 
L 366.51404 121.509133 
L 369.152898 122.007844 
L 372.451471 122.595432 
L 374.430615 122.716961 
L 376.409759 122.613575 
L 379.048618 122.218163 
L 382.677048 121.646005 
L 382.677048 121.646005 
" clip-path="url(#p60f67c5798)" style="fill: none; stroke: #1f77b4; stroke-width: 1.5; stroke-linecap: square"/>
   </g>
   <g id="patch_3">
    <path d="M 53.14959 201.6 
L 53.14959 30.24 
" style="fill: none; stroke: #000000; stroke-width: 0.8; stroke-linejoin: miter; stroke-linecap: square"/>
   </g>
   <g id="patch_4">
    <path d="M 382.677048 201.6 
L 382.677048 30.24 
" style="fill: none; stroke: #000000; stroke-width: 0.8; stroke-linejoin: miter; stroke-linecap: square"/>
   </g>
   <g id="patch_5">
    <path d="M 53.14959 201.6 
L 382.677048 201.6 
" style="fill: none; stroke: #000000; stroke-width: 0.8; stroke-linejoin: miter; stroke-linecap: square"/>
   </g>
   <g id="patch_6">
    <path d="M 53.14959 30.24 
L 382.677048 30.24 
" style="fill: none; stroke: #000000; stroke-width: 0.8; stroke-linejoin: miter; stroke-linecap: square"/>
   </g>
   <g id="patch_7">
    <path d="M 114.289196 59.04075 
Q 105.049633 59.04075 95.81007 59.04075 
" style="fill: none; stroke: #000000; stroke-linecap: round"/>
    <path d="M 110.289196 57.04075 
L 114.289196 59.04075 
L 110.289196 61.04075 
" style="fill: none; stroke: #000000; stroke-linecap: round"/>
    <path d="M 99.81007 61.04075 
L 95.81007 59.04075 
L 99.81007 57.04075 
" style="fill: none; stroke: #000000; stroke-linecap: round"/>
   </g>
   <g id="patch_8">
    <path d="M 115.40723 59.04075 
Q 105.049633 59.04075 94.692036 59.04075 
" style="fill: none; stroke: #000000; stroke-linecap: round"/>
    <path d="M 115.40723 69.04075 
L 115.40723 69.04075 
L 115.40723 49.04075 
L 115.40723 49.04075 
" style="fill: none; stroke: #000000; stroke-linecap: round"/>
    <path d="M 94.692036 49.04075 
L 94.692036 49.04075 
L 94.692036 69.04075 
L 94.692036 69.04075 
" style="fill: none; stroke: #000000; stroke-linecap: round"/>
   </g>
   <g id="text_13">
    <g id="patch_9">
     <path d="M 95.600165 55.272817 
L 114.500165 55.272817 
L 114.500165 37.594692 
L 95.600165 37.594692 
z
" style="fill: #ffffff"/>
    </g>
    <!-- $T_d$ -->
    <g transform="translate(99.600165 49.193129) scale(0.1 -0.1)">
     <defs>
      <path id="DejaVuSans-Oblique-54" d="M 378 4666 
L 4325 4666 
L 4225 4134 
L 2559 4134 
L 1759 0 
L 1125 0 
L 1925 4134 
L 275 4134 
L 378 4666 
z
" transform="scale(0.015625)"/>
      <path id="DejaVuSans-Oblique-64" d="M 2675 525 
Q 2444 222 2128 65 
Q 1813 -91 1428 -91 
Q 903 -91 598 267 
Q 294 625 294 1247 
Q 294 1766 478 2236 
Q 663 2706 1013 3078 
Q 1244 3325 1534 3454 
Q 1825 3584 2144 3584 
Q 2481 3584 2739 3421 
Q 2997 3259 3138 2956 
L 3513 4863 
L 4091 4863 
L 3144 0 
L 2566 0 
L 2675 525 
z
M 891 1350 
Q 891 897 1095 644 
Q 1300 391 1663 391 
Q 1931 391 2161 520 
Q 2391 650 2566 903 
Q 2750 1166 2856 1509 
Q 2963 1853 2963 2188 
Q 2963 2622 2758 2865 
Q 2553 3109 2194 3109 
Q 1922 3109 1687 2981 
Q 1453 2853 1288 2613 
Q 1106 2353 998 2009 
Q 891 1666 891 1350 
z
" transform="scale(0.015625)"/>
     </defs>
     <use xlink:href="#DejaVuSans-Oblique-54" transform="translate(0 0.09375)"/>
     <use xlink:href="#DejaVuSans-Oblique-64" transform="translate(61.083984 -16.3125) scale(0.7)"/>
    </g>
   </g>
   <g id="text_14">
    <!-- $u_0$ -->
    <g style="fill: #ff0000" transform="translate(99.283434 84.25474) scale(0.1 -0.1)">
     <defs>
      <path id="DejaVuSans-Oblique-75" d="M 428 1388 
L 838 3500 
L 1416 3500 
L 1006 1409 
Q 975 1256 961 1147 
Q 947 1038 947 966 
Q 947 700 1109 554 
Q 1272 409 1569 409 
Q 2031 409 2368 721 
Q 2706 1034 2809 1563 
L 3194 3500 
L 3769 3500 
L 3091 0 
L 2516 0 
L 2631 550 
Q 2388 244 2052 76 
Q 1716 -91 1338 -91 
Q 878 -91 622 161 
Q 366 413 366 863 
Q 366 956 381 1097 
Q 397 1238 428 1388 
z
" transform="scale(0.015625)"/>
     </defs>
     <use xlink:href="#DejaVuSans-Oblique-75" transform="translate(0 0.3125)"/>
     <use xlink:href="#DejaVuSans-30" transform="translate(63.378906 -16.09375) scale(0.7)"/>
    </g>
   </g>
   <g id="text_15">
    <!-- $u_1$ -->
    <g style="fill: #0000ff" transform="translate(120.702719 92.659404) scale(0.1 -0.1)">
     <use xlink:href="#DejaVuSans-Oblique-75" transform="translate(0 0.3125)"/>
     <use xlink:href="#DejaVuSans-31" transform="translate(63.378906 -16.09375) scale(0.7)"/>
    </g>
   </g>
   <g id="legend_1">
    <g id="patch_10">
     <path d="M 266.062985 52.918125 
L 375.677048 52.918125 
Q 377.677048 52.918125 377.677048 50.918125 
L 377.677048 37.24 
Q 377.677048 35.24 375.677048 35.24 
L 266.062985 35.24 
Q 264.062985 35.24 264.062985 37.24 
L 264.062985 50.918125 
Q 264.062985 52.918125 266.062985 52.918125 
z
" style="fill: #ffffff; opacity: 0.8; stroke: #cccccc; stroke-linejoin: miter"/>
    </g>
    <g id="line2d_22">
     <path d="M 268.062985 43.338438 
L 278.062985 43.338438 
L 288.062985 43.338438 
" style="fill: none; stroke: #1f77b4; stroke-width: 1.5; stroke-linecap: square"/>
    </g>
    <g id="text_16">
     <!-- Gesamtantwort -->
     <g transform="translate(296.062985 46.838438) scale(0.1 -0.1)">
      <defs>
       <path id="DejaVuSans-47" d="M 3809 666 
L 3809 1919 
L 2778 1919 
L 2778 2438 
L 4434 2438 
L 4434 434 
Q 4069 175 3628 42 
Q 3188 -91 2688 -91 
Q 1594 -91 976 548 
Q 359 1188 359 2328 
Q 359 3472 976 4111 
Q 1594 4750 2688 4750 
Q 3144 4750 3555 4637 
Q 3966 4525 4313 4306 
L 4313 3634 
Q 3963 3931 3569 4081 
Q 3175 4231 2741 4231 
Q 1884 4231 1454 3753 
Q 1025 3275 1025 2328 
Q 1025 1384 1454 906 
Q 1884 428 2741 428 
Q 3075 428 3337 486 
Q 3600 544 3809 666 
z
" transform="scale(0.015625)"/>
       <path id="DejaVuSans-61" d="M 2194 1759 
Q 1497 1759 1228 1600 
Q 959 1441 959 1056 
Q 959 750 1161 570 
Q 1363 391 1709 391 
Q 2188 391 2477 730 
Q 2766 1069 2766 1631 
L 2766 1759 
L 2194 1759 
z
M 3341 1997 
L 3341 0 
L 2766 0 
L 2766 531 
Q 2569 213 2275 61 
Q 1981 -91 1556 -91 
Q 1019 -91 701 211 
Q 384 513 384 1019 
Q 384 1609 779 1909 
Q 1175 2209 1959 2209 
L 2766 2209 
L 2766 2266 
Q 2766 2663 2505 2880 
Q 2244 3097 1772 3097 
Q 1472 3097 1187 3025 
Q 903 2953 641 2809 
L 641 3341 
Q 956 3463 1253 3523 
Q 1550 3584 1831 3584 
Q 2591 3584 2966 3190 
Q 3341 2797 3341 1997 
z
" transform="scale(0.015625)"/>
       <path id="DejaVuSans-6d" d="M 3328 2828 
Q 3544 3216 3844 3400 
Q 4144 3584 4550 3584 
Q 5097 3584 5394 3201 
Q 5691 2819 5691 2113 
L 5691 0 
L 5113 0 
L 5113 2094 
Q 5113 2597 4934 2840 
Q 4756 3084 4391 3084 
Q 3944 3084 3684 2787 
Q 3425 2491 3425 1978 
L 3425 0 
L 2847 0 
L 2847 2094 
Q 2847 2600 2669 2842 
Q 2491 3084 2119 3084 
Q 1678 3084 1418 2786 
Q 1159 2488 1159 1978 
L 1159 0 
L 581 0 
L 581 3500 
L 1159 3500 
L 1159 2956 
Q 1356 3278 1631 3431 
Q 1906 3584 2284 3584 
Q 2666 3584 2933 3390 
Q 3200 3197 3328 2828 
z
" transform="scale(0.015625)"/>
       <path id="DejaVuSans-77" d="M 269 3500 
L 844 3500 
L 1563 769 
L 2278 3500 
L 2956 3500 
L 3675 769 
L 4391 3500 
L 4966 3500 
L 4050 0 
L 3372 0 
L 2619 2869 
L 1863 0 
L 1184 0 
L 269 3500 
z
" transform="scale(0.015625)"/>
       <path id="DejaVuSans-6f" d="M 1959 3097 
Q 1497 3097 1228 2736 
Q 959 2375 959 1747 
Q 959 1119 1226 758 
Q 1494 397 1959 397 
Q 2419 397 2687 759 
Q 2956 1122 2956 1747 
Q 2956 2369 2687 2733 
Q 2419 3097 1959 3097 
z
M 1959 3584 
Q 2709 3584 3137 3096 
Q 3566 2609 3566 1747 
Q 3566 888 3137 398 
Q 2709 -91 1959 -91 
Q 1206 -91 779 398 
Q 353 888 353 1747 
Q 353 2609 779 3096 
Q 1206 3584 1959 3584 
z
" transform="scale(0.015625)"/>
      </defs>
      <use xlink:href="#DejaVuSans-47"/>
      <use xlink:href="#DejaVuSans-65" x="77.490234"/>
      <use xlink:href="#DejaVuSans-73" x="139.013672"/>
      <use xlink:href="#DejaVuSans-61" x="191.113281"/>
      <use xlink:href="#DejaVuSans-6d" x="252.392578"/>
      <use xlink:href="#DejaVuSans-74" x="349.804688"/>
      <use xlink:href="#DejaVuSans-61" x="389.013672"/>
      <use xlink:href="#DejaVuSans-6e" x="450.292969"/>
      <use xlink:href="#DejaVuSans-74" x="513.671875"/>
      <use xlink:href="#DejaVuSans-77" x="552.880859"/>
      <use xlink:href="#DejaVuSans-6f" x="634.667969"/>
      <use xlink:href="#DejaVuSans-72" x="695.849609"/>
      <use xlink:href="#DejaVuSans-74" x="736.962891"/>
     </g>
    </g>
   </g>
  </g>
 </g>
 <defs>
  <clipPath id="p60f67c5798">
   <rect x="53.14959" y="30.24" width="329.527458" height="171.36"/>
  </clipPath>
 </defs>
</svg>
