<?xml version="1.0" encoding="UTF-8" standalone="no"?>
<svg
   xmlns:dc="http://purl.org/dc/elements/1.1/"
   xmlns:cc="http://creativecommons.org/ns#"
   xmlns:rdf="http://www.w3.org/1999/02/22-rdf-syntax-ns#"
   xmlns:svg="http://www.w3.org/2000/svg"
   xmlns="http://www.w3.org/2000/svg"
   version="1.1"
   id="svg2"
   xml:space="preserve"
   width="576"
   height="336"
   viewBox="0 0 576 336"><metadata
     id="metadata8"><rdf:RDF><cc:Work
         rdf:about=""><dc:format>image/svg+xml</dc:format><dc:type
           rdf:resource="http://purl.org/dc/dcmitype/StillImage" /></cc:Work></rdf:RDF></metadata><defs
     id="defs6"><clipPath
       clipPathUnits="userSpaceOnUse"
       id="clipPath22"><path
         d="M 54,50.4 H 388.8 V 221.76 H 54 Z"
         id="path20" /></clipPath><clipPath
       clipPathUnits="userSpaceOnUse"
       id="clipPath40"><path
         d="M 54,50.4 H 388.8 V 221.76 H 54 Z"
         id="path38" /></clipPath><clipPath
       clipPathUnits="userSpaceOnUse"
       id="clipPath58"><path
         d="M 54,50.4 H 388.8 V 221.76 H 54 Z"
         id="path56" /></clipPath><clipPath
       clipPathUnits="userSpaceOnUse"
       id="clipPath76"><path
         d="M 54,50.4 H 388.8 V 221.76 H 54 Z"
         id="path74" /></clipPath><clipPath
       clipPathUnits="userSpaceOnUse"
       id="clipPath94"><path
         d="M 54,50.4 H 388.8 V 221.76 H 54 Z"
         id="path92" /></clipPath><clipPath
       clipPathUnits="userSpaceOnUse"
       id="clipPath112"><path
         d="M 54,50.4 H 388.8 V 221.76 H 54 Z"
         id="path110" /></clipPath><clipPath
       clipPathUnits="userSpaceOnUse"
       id="clipPath134"><path
         d="M 54,50.4 H 388.8 V 221.76 H 54 Z"
         id="path132" /></clipPath><clipPath
       clipPathUnits="userSpaceOnUse"
       id="clipPath156"><path
         d="M 54,50.4 H 388.8 V 221.76 H 54 Z"
         id="path154" /></clipPath><clipPath
       clipPathUnits="userSpaceOnUse"
       id="clipPath174"><path
         d="M 54,50.4 H 388.8 V 221.76 H 54 Z"
         id="path172" /></clipPath><clipPath
       clipPathUnits="userSpaceOnUse"
       id="clipPath192"><path
         d="M 54,50.4 H 388.8 V 221.76 H 54 Z"
         id="path190" /></clipPath><clipPath
       clipPathUnits="userSpaceOnUse"
       id="clipPath214"><path
         d="M 54,50.4 H 388.8 V 221.76 H 54 Z"
         id="path212" /></clipPath></defs><g
     id="g10"
     transform="matrix(1.3333333,0,0,-1.3333333,0,336)"><path
       d="M 0,0 H 432 V 252 H 0 Z"
       style="fill:#ffffff;fill-opacity:1;fill-rule:nonzero;stroke:none"
       id="path12" /><path
       d="M 54,50.4 H 388.8 V 221.76 H 54 Z"
       style="fill:#ffffff;fill-opacity:1;fill-rule:nonzero;stroke:none"
       id="path14" /><g
       id="g16"><g
         id="g18"
         clip-path="url(#clipPath22)"><path
           d="M 54,50.4 V 221.76"
           style="fill:none;stroke:#b0b0b0;stroke-width:0.8;stroke-linecap:square;stroke-linejoin:round;stroke-miterlimit:10;stroke-dasharray:none;stroke-opacity:1"
           id="path24" /></g></g><g
       id="g26"><path
         d="M 54,50.4 V 46.9"
         style="fill:#000000;fill-opacity:1;fill-rule:nonzero;stroke:#000000;stroke-width:0.8;stroke-linecap:butt;stroke-linejoin:round;stroke-miterlimit:10;stroke-dasharray:none;stroke-opacity:1"
         id="path28" /><text
         transform="matrix(1,0,0,-1,51.260266,35.789653)"
         style="font-variant:normal;font-weight:normal;font-size:10.9589px;font-family:'Computer Modern';-inkscape-font-specification:CMR10;writing-mode:lr-tb;fill:#000000;fill-opacity:1;fill-rule:nonzero;stroke:none"
         id="text32"><tspan
           x="0"
           y="0"
           id="tspan30">0</tspan></text></g><g
       id="g34"><g
         id="g36"
         clip-path="url(#clipPath40)"><path
           d="M 120.96,50.4 V 221.76"
           style="fill:none;stroke:#b0b0b0;stroke-width:0.8;stroke-linecap:square;stroke-linejoin:round;stroke-miterlimit:10;stroke-dasharray:none;stroke-opacity:1"
           id="path42" /></g></g><g
       id="g44"><path
         d="M 120.96,50.4 V 46.9"
         style="fill:#000000;fill-opacity:1;fill-rule:nonzero;stroke:#000000;stroke-width:0.8;stroke-linecap:butt;stroke-linejoin:round;stroke-miterlimit:10;stroke-dasharray:none;stroke-opacity:1"
         id="path46" /><text
         transform="matrix(1,0,0,-1,118.22027,35.789653)"
         style="font-variant:normal;font-weight:normal;font-size:10.9589px;font-family:'Computer Modern';-inkscape-font-specification:CMR10;writing-mode:lr-tb;fill:#000000;fill-opacity:1;fill-rule:nonzero;stroke:none"
         id="text50"><tspan
           x="0"
           y="0"
           id="tspan48">2</tspan></text></g><g
       id="g52"><g
         id="g54"
         clip-path="url(#clipPath58)"><path
           d="M 187.92,50.4 V 221.76"
           style="fill:none;stroke:#b0b0b0;stroke-width:0.8;stroke-linecap:square;stroke-linejoin:round;stroke-miterlimit:10;stroke-dasharray:none;stroke-opacity:1"
           id="path60" /></g></g><g
       id="g62"><path
         d="M 187.92,50.4 V 46.9"
         style="fill:#000000;fill-opacity:1;fill-rule:nonzero;stroke:#000000;stroke-width:0.8;stroke-linecap:butt;stroke-linejoin:round;stroke-miterlimit:10;stroke-dasharray:none;stroke-opacity:1"
         id="path64" /><text
         transform="matrix(1,0,0,-1,185.18027,35.789653)"
         style="font-variant:normal;font-weight:normal;font-size:10.9589px;font-family:'Computer Modern';-inkscape-font-specification:CMR10;writing-mode:lr-tb;fill:#000000;fill-opacity:1;fill-rule:nonzero;stroke:none"
         id="text68"><tspan
           x="0"
           y="0"
           id="tspan66">4</tspan></text></g><g
       id="g70"><g
         id="g72"
         clip-path="url(#clipPath76)"><path
           d="M 254.88,50.4 V 221.76"
           style="fill:none;stroke:#b0b0b0;stroke-width:0.8;stroke-linecap:square;stroke-linejoin:round;stroke-miterlimit:10;stroke-dasharray:none;stroke-opacity:1"
           id="path78" /></g></g><g
       id="g80"><path
         d="M 254.88,50.4 V 46.9"
         style="fill:#000000;fill-opacity:1;fill-rule:nonzero;stroke:#000000;stroke-width:0.8;stroke-linecap:butt;stroke-linejoin:round;stroke-miterlimit:10;stroke-dasharray:none;stroke-opacity:1"
         id="path82" /><text
         transform="matrix(1,0,0,-1,252.14027,35.789653)"
         style="font-variant:normal;font-weight:normal;font-size:10.9589px;font-family:'Computer Modern';-inkscape-font-specification:CMR10;writing-mode:lr-tb;fill:#000000;fill-opacity:1;fill-rule:nonzero;stroke:none"
         id="text86"><tspan
           x="0"
           y="0"
           id="tspan84">6</tspan></text></g><g
       id="g88"><g
         id="g90"
         clip-path="url(#clipPath94)"><path
           d="M 321.84,50.4 V 221.76"
           style="fill:none;stroke:#b0b0b0;stroke-width:0.8;stroke-linecap:square;stroke-linejoin:round;stroke-miterlimit:10;stroke-dasharray:none;stroke-opacity:1"
           id="path96" /></g></g><g
       id="g98"><path
         d="M 321.84,50.4 V 46.9"
         style="fill:#000000;fill-opacity:1;fill-rule:nonzero;stroke:#000000;stroke-width:0.8;stroke-linecap:butt;stroke-linejoin:round;stroke-miterlimit:10;stroke-dasharray:none;stroke-opacity:1"
         id="path100" /><text
         transform="matrix(1,0,0,-1,319.10027,35.789653)"
         style="font-variant:normal;font-weight:normal;font-size:10.9589px;font-family:'Computer Modern';-inkscape-font-specification:CMR10;writing-mode:lr-tb;fill:#000000;fill-opacity:1;fill-rule:nonzero;stroke:none"
         id="text104"><tspan
           x="0"
           y="0"
           id="tspan102">8</tspan></text></g><g
       id="g106"><g
         id="g108"
         clip-path="url(#clipPath112)"><path
           d="M 388.8,50.4 V 221.76"
           style="fill:none;stroke:#b0b0b0;stroke-width:0.8;stroke-linecap:square;stroke-linejoin:round;stroke-miterlimit:10;stroke-dasharray:none;stroke-opacity:1"
           id="path114" /></g></g><g
       id="g116"><path
         d="M 388.8,50.4 V 46.9"
         style="fill:#000000;fill-opacity:1;fill-rule:nonzero;stroke:#000000;stroke-width:0.8;stroke-linecap:butt;stroke-linejoin:round;stroke-miterlimit:10;stroke-dasharray:none;stroke-opacity:1"
         id="path118" /><text
         transform="matrix(1,0,0,-1,383.32053,35.789653)"
         style="font-variant:normal;font-weight:normal;font-size:10.9589px;font-family:'Computer Modern';-inkscape-font-specification:CMR10;writing-mode:lr-tb;fill:#000000;fill-opacity:1;fill-rule:nonzero;stroke:none"
         id="text122"><tspan
           x="0 5.4794521"
           y="0"
           id="tspan120">10</tspan></text><text
         transform="matrix(1,0,0,-1,204.93118,21.439581)"
         style="font-variant:normal;font-weight:normal;font-size:10.9589px;font-family:'Computer Modern';-inkscape-font-specification:CMR10;writing-mode:lr-tb;fill:#000000;fill-opacity:1;fill-rule:nonzero;stroke:none"
         id="text126"><tspan
           x="0 6.6958904 11.561644 14.59726 22.502289 25.537905 29.855713"
           y="0"
           id="tspan124">Zeit[s]</tspan></text></g><g
       id="g128"><g
         id="g130"
         clip-path="url(#clipPath134)"><path
           d="M 54,87.900956 H 388.8"
           style="fill:none;stroke:#b0b0b0;stroke-width:0.8;stroke-linecap:square;stroke-linejoin:round;stroke-miterlimit:10;stroke-dasharray:none;stroke-opacity:1"
           id="path136" /></g></g><g
       id="g138"><path
         d="M 54,87.900956 H 50.5"
         style="fill:#000000;fill-opacity:1;fill-rule:nonzero;stroke:#000000;stroke-width:0.8;stroke-linecap:butt;stroke-linejoin:round;stroke-miterlimit:10;stroke-dasharray:none;stroke-opacity:1"
         id="path140" /><text
         transform="matrix(1,0,0,-1,27.517457,84.095782)"
         style="font-style:italic;font-variant:normal;font-weight:normal;font-size:10.9589px;font-family:'Computer Modern';-inkscape-font-specification:CMSY10;writing-mode:lr-tb;fill:#000000;fill-opacity:1;fill-rule:nonzero;stroke:none"
         id="text144"><tspan
           x="0"
           y="0"
           id="tspan142">−</tspan></text><text
         transform="matrix(1,0,0,-1,36.041065,84.095782)"
         style="font-variant:normal;font-weight:normal;font-size:10.9589px;font-family:'Computer Modern';-inkscape-font-specification:CMR10;writing-mode:lr-tb;fill:#000000;fill-opacity:1;fill-rule:nonzero;stroke:none"
         id="text148"><tspan
           x="0 5.4794521"
           y="0"
           id="tspan146">10</tspan></text></g><g
       id="g150"><g
         id="g152"
         clip-path="url(#clipPath156)"><path
           d="M 54,129.92427 H 388.8"
           style="fill:none;stroke:#b0b0b0;stroke-width:0.8;stroke-linecap:square;stroke-linejoin:round;stroke-miterlimit:10;stroke-dasharray:none;stroke-opacity:1"
           id="path158" /></g></g><g
       id="g160"><path
         d="M 54,129.92427 H 50.5"
         style="fill:#000000;fill-opacity:1;fill-rule:nonzero;stroke:#000000;stroke-width:0.8;stroke-linecap:butt;stroke-linejoin:round;stroke-miterlimit:10;stroke-dasharray:none;stroke-opacity:1"
         id="path162" /><text
         transform="matrix(1,0,0,-1,41.520533,126.1191)"
         style="font-variant:normal;font-weight:normal;font-size:10.9589px;font-family:'Computer Modern';-inkscape-font-specification:CMR10;writing-mode:lr-tb;fill:#000000;fill-opacity:1;fill-rule:nonzero;stroke:none"
         id="text166"><tspan
           x="0"
           y="0"
           id="tspan164">0</tspan></text></g><g
       id="g168"><g
         id="g170"
         clip-path="url(#clipPath174)"><path
           d="M 54,171.94759 H 388.8"
           style="fill:none;stroke:#b0b0b0;stroke-width:0.8;stroke-linecap:square;stroke-linejoin:round;stroke-miterlimit:10;stroke-dasharray:none;stroke-opacity:1"
           id="path176" /></g></g><g
       id="g178"><path
         d="M 54,171.94759 H 50.5"
         style="fill:#000000;fill-opacity:1;fill-rule:nonzero;stroke:#000000;stroke-width:0.8;stroke-linecap:butt;stroke-linejoin:round;stroke-miterlimit:10;stroke-dasharray:none;stroke-opacity:1"
         id="path180" /><text
         transform="matrix(1,0,0,-1,36.041065,168.14242)"
         style="font-variant:normal;font-weight:normal;font-size:10.9589px;font-family:'Computer Modern';-inkscape-font-specification:CMR10;writing-mode:lr-tb;fill:#000000;fill-opacity:1;fill-rule:nonzero;stroke:none"
         id="text184"><tspan
           x="0 5.4794521"
           y="0"
           id="tspan182">10</tspan></text></g><g
       id="g186"><g
         id="g188"
         clip-path="url(#clipPath192)"><path
           d="M 54,213.97091 H 388.8"
           style="fill:none;stroke:#b0b0b0;stroke-width:0.8;stroke-linecap:square;stroke-linejoin:round;stroke-miterlimit:10;stroke-dasharray:none;stroke-opacity:1"
           id="path194" /></g></g><g
       id="g196"><path
         d="M 54,213.97091 H 50.5"
         style="fill:#000000;fill-opacity:1;fill-rule:nonzero;stroke:#000000;stroke-width:0.8;stroke-linecap:butt;stroke-linejoin:round;stroke-miterlimit:10;stroke-dasharray:none;stroke-opacity:1"
         id="path198" /><text
         transform="matrix(1,0,0,-1,36.041065,210.16574)"
         style="font-variant:normal;font-weight:normal;font-size:10.9589px;font-family:'Computer Modern';-inkscape-font-specification:CMR10;writing-mode:lr-tb;fill:#000000;fill-opacity:1;fill-rule:nonzero;stroke:none"
         id="text202"><tspan
           x="0 5.4794521"
           y="0"
           id="tspan200">20</tspan></text><text
         transform="matrix(0,1,1,0,21.386562,104.52742)"
         style="font-variant:normal;font-weight:normal;font-size:10.9589px;font-family:'Computer Modern';-inkscape-font-specification:CMR10;writing-mode:lr-tb;fill:#000000;fill-opacity:1;fill-rule:nonzero;stroke:none"
         id="text206"><tspan
           x="0 7.3059158 12.171669 16.4566 20.774408 25.335732 31.417923 34.453541 39.319294 45.401485 51.483677 57.565868"
           y="0"
           id="tspan204">Verschiebung</tspan></text></g><g
       id="g208"><g
         id="g210"
         clip-path="url(#clipPath214)"><path
           d="m 54,213.97091 0.335135,-0.37754 0.335135,-1.20726 0.335135,-2.01671 0.670271,-6.34161 0.67027,-9.14665 1.005405,-18.04235 1.340541,-29.31681 2.345946,-52.162839 1.005405,-17.590972 0.670271,-8.952976 0.67027,-6.358703 0.67027,-3.564368 0.335135,-0.703031 0.335135,0.01858 0.335135,0.732813 0.335136,1.432636 0.67027,4.873222 0.67027,7.334593 1.005406,14.854099 1.34054,24.660216 2.345946,44.95413 1.005405,15.55821 0.670271,8.08889 0.67027,5.92055 0.67027,3.56105 0.335135,0.86245 0.335136,0.24503 0.335135,-0.36868 0.335135,-0.97259 0.335135,-1.56081 0.67027,-4.7952 0.67027,-6.82253 1.005406,-13.33957 1.34054,-21.51475 2.345946,-37.95092 1.005406,-12.676235 0.67027,-6.39937 0.67027,-4.491257 0.335135,-1.483148 0.335136,-0.96019 0.335135,-0.432877 0.335135,0.0935 0.335135,0.613697 0.335135,1.122603 0.67027,3.702167 0.670271,5.482653 1.005405,10.995349 1.340541,18.111078 2.345946,32.7279 1.005405,11.22301 0.67027,5.79167 0.67027,4.19547 0.670271,2.46501 0.335135,0.561 0.335135,0.11034 0.335135,-0.33692 0.335135,-0.77639 0.670271,-2.81858 0.67027,-4.37856 1.005405,-9.03251 1.340537,-15.21353 2.68109,-31.7144 1.0054,-9.13108 0.67027,-4.571069 0.67027,-3.168054 0.33514,-1.025051 0.33513,-0.642496 0.33514,-0.257352 0.33513,0.12652 0.33514,0.505308 0.33513,0.87529 0.67027,2.80747 0.67027,4.095024 1.00541,8.13546 1.34054,13.29759 2.34594,23.8212 1.00541,8.09284 0.67027,4.14438 0.67027,2.96974 0.67027,1.70092 0.33513,0.35943 0.33514,0.0306 0.33514,-0.29534 0.33513,-0.61504 0.67027,-2.14897 0.67027,-3.27801 1.00541,-6.6915 1.34054,-11.17877 2.68108,-23.081 1.0054,-6.57477 0.67027,-3.26286 0.67027,-2.23153 0.33514,-0.70608 0.33514,-0.4263 0.33513,-0.14506 0.33513,0.13482 0.33514,0.41057 0.33513,0.6795 0.67027,2.12545 0.67028,3.05625 1.0054,6.01688 1.34054,9.76076 2.34595,17.33429 1.0054,5.83352 0.67027,2.96378 0.67027,2.09962 0.67027,1.16955 0.33514,0.2258 0.33513,-0.0141 0.33514,-0.25155 0.33513,-0.48407 0.67027,-1.63503 0.67027,-2.45195 1.00541,-4.95493 1.34054,-8.21175 2.34595,-14.94091 1.0054,-5.16057 0.67027,-2.67873 0.67027,-1.95631 0.67027,-1.17084 0.33514,-0.27998 0.33513,-0.0747 0.33514,0.12935 0.33513,0.33005 0.67027,1.23916 0.67027,1.95444 1.00541,4.06634 1.34054,6.89376 2.68108,14.47945 1.00541,4.20334 0.67027,2.11814 0.67027,1.48258 0.67027,0.80098 0.33513,0.13812 0.33514,-0.0369 0.33513,-0.2098 0.67027,-0.92139 0.67027,-1.54629 0.67027,-2.09764 1.00541,-3.9703 1.67567,-7.84095 1.67568,-7.65125 1.00541,-3.72232 0.67027,-1.91773 0.67027,-1.38597 0.67027,-0.80994 0.33513,-0.18157 0.33514,-0.0317 0.33513,0.11697 0.33514,0.263 0.67027,0.94643 0.67027,1.46425 1.0054,3.01355 1.34054,5.0666 2.68108,10.53977 1.00541,3.02753 0.67027,1.51276 0.67027,1.04547 0.67027,0.5461 0.33514,0.0813 0.33513,-0.0463 0.67027,-0.46731 0.67027,-0.94121 0.67027,-1.36848 1.00541,-2.71326 1.34054,-4.42752 2.34594,-7.91637 1.00541,-2.68392 0.67027,-1.3721 0.67027,-0.9808 0.67027,-0.55847 0.67027,-0.12242 0.67027,0.30983 0.67027,0.72125 0.67027,1.096 1.00541,2.23228 1.34054,3.72266 2.68108,7.6702 1.0054,2.17976 0.67027,1.07965 0.67027,0.73618 0.67027,0.37039 0.67027,-0.003 0.67027,-0.36846 0.67027,-0.71231 0.67027,-1.02118 1.00541,-2.0065 1.67568,-4.10952 2.01081,-4.90051 1.0054,-1.93447 0.67027,-0.9811 0.67027,-0.69325 0.67027,-0.38368 0.67027,-0.0651 0.67027,0.24978 0.67027,0.54852 0.67027,0.81965 1.00541,1.6528 1.34054,2.73445 2.34595,4.96569 1.0054,1.7117 1.00541,1.24189 0.67027,0.51758 0.67027,0.24973 0.67027,-0.0227 0.67027,-0.28884 0.67027,-0.53826 1.0054,-1.21539 1.00541,-1.59367 4.02162,-6.98172 1.00541,-1.12381 0.67027,-0.48937 0.67027,-0.26253 0.67027,-0.0298 0.67027,0.19951 0.67027,0.41637 1.0054,0.98372 1.00541,1.32348 2.01081,3.1442 1.67567,2.45154 1.00541,1.12851 1.00541,0.75439 0.67027,0.26608 0.67027,0.0676 0.67027,-0.1296 0.67027,-0.31776 1.0054,-0.79203 1.00541,-1.09599 2.01081,-2.66702 1.67567,-2.13 1.00541,-1.0038 1.0054,-0.69339 0.67027,-0.26278 0.67028,-0.0939 0.67027,0.0755 0.67027,0.23841 1.0054,0.6339 1.00541,0.90488 1.67567,1.86543 2.01081,2.23949 1.34054,1.13265 1.00541,0.5356 1.00541,0.22065 1.0054,-0.10442 1.00541,-0.41067 1.0054,-0.67166 1.34054,-1.18348 3.35135,-3.13904 1.00541,-0.65179 1.0054,-0.40781 1.00541,-0.13509 1.0054,0.14147 1.00541,0.39737 1.34054,0.85164 2.01081,1.6544 2.01081,1.57371 1.34054,0.73424 1.00541,0.30497 1.0054,0.0696 1.00541,-0.16487 1.0054,-0.3779 1.34055,-0.76463 4.69189,-3.07164 1.0054,-0.35098 1.00541,-0.15597 1.0054,0.047 1.00541,0.23984 1.34054,0.57129 2.01081,1.18053 2.34595,1.35097 1.34054,0.52664 1.34054,0.24755 1.0054,-0.0159 1.34054,-0.2775 1.34054,-0.51792 2.68108,-1.37828 2.01081,-0.90108 1.34055,-0.36147 1.34054,-0.10879 1.34054,0.15085 1.34054,0.3769 2.01081,0.83555 2.68108,1.1336 1.67568,0.44119 1.34053,0.11674 1.34055,-0.10617 1.67567,-0.40484 2.34595,-0.86038 2.34594,-0.81883 1.67568,-0.34726 1.34054,-0.0721 1.34054,0.11705 1.67568,0.37092 6.03243,1.66261 1.67567,0.073 1.67568,-0.17509 2.01081,-0.45823 4.35676,-1.0924 1.67567,-0.16678 1.67568,0.0496 2.01081,0.31028 6.03243,1.20782 1.67568,0.0476 2.01081,-0.17827 2.68108,-0.49871 3.35135,-0.58759 2.01081,-0.12153 2.01081,0.10339 2.68108,0.39541 3.68649,0.57215 v 0"
           style="fill:none;stroke:#1f77b4;stroke-width:1.5;stroke-linecap:square;stroke-linejoin:round;stroke-miterlimit:10;stroke-dasharray:none;stroke-opacity:1"
           id="path216" /></g></g><g
       id="g218"><path
         d="M 54,50.4 V 221.76"
         style="fill:none;stroke:#000000;stroke-width:0.8;stroke-linecap:square;stroke-linejoin:miter;stroke-miterlimit:10;stroke-dasharray:none;stroke-opacity:1"
         id="path220" /><path
         d="M 388.8,50.4 V 221.76"
         style="fill:none;stroke:#000000;stroke-width:0.8;stroke-linecap:square;stroke-linejoin:miter;stroke-miterlimit:10;stroke-dasharray:none;stroke-opacity:1"
         id="path222" /><path
         d="M 54,50.4 H 388.8"
         style="fill:none;stroke:#000000;stroke-width:0.8;stroke-linecap:square;stroke-linejoin:miter;stroke-miterlimit:10;stroke-dasharray:none;stroke-opacity:1"
         id="path224" /><path
         d="M 54,221.76 H 388.8"
         style="fill:none;stroke:#000000;stroke-width:0.8;stroke-linecap:square;stroke-linejoin:miter;stroke-miterlimit:10;stroke-dasharray:none;stroke-opacity:1"
         id="path226" /><path
         d="m 116.1664,192.95925 c -6.29079,0 -12.58159,0 -18.872381,0"
         style="fill:none;stroke:#000000;stroke-width:1;stroke-linecap:round;stroke-linejoin:round;stroke-miterlimit:10;stroke-dasharray:none;stroke-opacity:1"
         id="path228" /><path
         d="m 111.7664,195.15925 4.4,-2.2 -4.4,-2.2"
         style="fill:none;stroke:#000000;stroke-width:1;stroke-linecap:round;stroke-linejoin:round;stroke-miterlimit:10;stroke-dasharray:none;stroke-opacity:1"
         id="path230" /><path
         d="m 101.69402,190.75925 -4.400001,2.2 4.400001,2.2"
         style="fill:none;stroke:#000000;stroke-width:1;stroke-linecap:round;stroke-linejoin:round;stroke-miterlimit:10;stroke-dasharray:none;stroke-opacity:1"
         id="path232" /><path
         d="m 117.28443,192.95925 c -7.03615,0 -14.07229,0 -21.108445,0"
         style="fill:none;stroke:#000000;stroke-width:1;stroke-linecap:round;stroke-linejoin:round;stroke-miterlimit:10;stroke-dasharray:none;stroke-opacity:1"
         id="path234" /><path
         d="m 117.28443,181.95925 v 0 22 0"
         style="fill:none;stroke:#000000;stroke-width:1;stroke-linecap:round;stroke-linejoin:round;stroke-miterlimit:10;stroke-dasharray:none;stroke-opacity:1"
         id="path236" /><path
         d="m 96.175985,203.95925 v 0 -22 0"
         style="fill:none;stroke:#000000;stroke-width:1;stroke-linecap:round;stroke-linejoin:round;stroke-miterlimit:10;stroke-dasharray:none;stroke-opacity:1"
         id="path238" /><path
         d="m 97.28793,196.73562 h 18.88614 v 17.66125 H 97.28793 Z"
         style="fill:#ffffff;fill-opacity:1;fill-rule:nonzero;stroke:none"
         id="path240" /><text
         transform="matrix(1,0,0,-1,101.24793,202.82652)"
         style="font-style:italic;font-variant:normal;font-weight:normal;font-size:10.9589px;font-family:'Computer Modern';-inkscape-font-specification:CMMI10;writing-mode:lr-tb;fill:#000000;fill-opacity:1;fill-rule:nonzero;stroke:none"
         id="text244"><tspan
           x="0"
           y="0"
           id="tspan242">T</tspan></text><text
         transform="matrix(1,0,0,-1,107.65205,201.18269)"
         style="font-style:italic;font-variant:normal;font-weight:normal;font-size:7.6712px;font-family:'Computer Modern';-inkscape-font-specification:CMMI7;writing-mode:lr-tb;fill:#000000;fill-opacity:1;fill-rule:nonzero;stroke:none"
         id="text248"><tspan
           x="0"
           y="0"
           id="tspan246">d</tspan></text><text
         transform="matrix(1,0,0,-1,100.872,167.74526)"
         style="font-style:italic;font-variant:normal;font-weight:normal;font-size:10.9589px;font-family:'Computer Modern';-inkscape-font-specification:CMMI10;writing-mode:lr-tb;fill:#ff0000;fill-opacity:1;fill-rule:nonzero;stroke:none"
         id="text252"><tspan
           x="0"
           y="0"
           id="tspan250">u</tspan></text><text
         transform="matrix(1,0,0,-1,107.1455,166.10143)"
         style="font-variant:normal;font-weight:normal;font-size:7.6712px;font-family:'Computer Modern';-inkscape-font-specification:CMR7;writing-mode:lr-tb;fill:#ff0000;fill-opacity:1;fill-rule:nonzero;stroke:none"
         id="text256"><tspan
           x="0"
           y="0"
           id="tspan254">0</tspan></text><text
         transform="matrix(1,0,0,-1,122.634,159.3406)"
         style="font-style:italic;font-variant:normal;font-weight:normal;font-size:10.9589px;font-family:'Computer Modern';-inkscape-font-specification:CMMI10;writing-mode:lr-tb;fill:#0000ff;fill-opacity:1;fill-rule:nonzero;stroke:none"
         id="text260"><tspan
           x="0"
           y="0"
           id="tspan258">u</tspan></text><text
         transform="matrix(1,0,0,-1,128.9075,157.69677)"
         style="font-variant:normal;font-weight:normal;font-size:7.6712px;font-family:'Computer Modern';-inkscape-font-specification:CMR7;writing-mode:lr-tb;fill:#0000ff;fill-opacity:1;fill-rule:nonzero;stroke:none"
         id="text264"><tspan
           x="0"
           y="0"
           id="tspan262">1</tspan></text><path
         d="M 272.6731,197.6291 H 381.1 c 1.46667,0 2.2,0.73334 2.2,2.2 V 214.06 c 0,1.46667 -0.73333,2.2 -2.2,2.2 H 272.6731 c -1.46666,0 -2.2,-0.73333 -2.2,-2.2 v -14.2309 c 0,-1.46666 0.73334,-2.2 2.2,-2.2 z"
         style="fill:#ffffff;fill-opacity:0.8;fill-rule:nonzero;stroke:#cccccc;stroke-width:1;stroke-linecap:butt;stroke-linejoin:miter;stroke-miterlimit:10;stroke-dasharray:none;stroke-opacity:0.8"
         id="path266" /><path
         d="m 274.8731,208.01 h 11 11"
         style="fill:none;stroke:#1f77b4;stroke-width:1.5;stroke-linecap:square;stroke-linejoin:round;stroke-miterlimit:10;stroke-dasharray:none;stroke-opacity:1"
         id="path268" /><text
         transform="matrix(1,0,0,-1,305.67311,204.16)"
         style="font-variant:normal;font-weight:normal;font-size:10.9589px;font-family:'Computer Modern';-inkscape-font-specification:CMR10;writing-mode:lr-tb;fill:#000000;fill-opacity:1;fill-rule:nonzero;stroke:none"
         id="text272"><tspan
           x="0 8.5917807 13.457534 17.775343 23.254795 32.079132 36.331184 41.810638 47.588398 51.536022 59.143921 64.623375 68.908302"
           y="0"
           id="tspan270">Gesamtantwort</tspan></text></g></g></svg>
