<?xml version="1.0" encoding="UTF-8" standalone="no"?>
<svg
   xmlns:dc="http://purl.org/dc/elements/1.1/"
   xmlns:cc="http://creativecommons.org/ns#"
   xmlns:rdf="http://www.w3.org/1999/02/22-rdf-syntax-ns#"
   xmlns:svg="http://www.w3.org/2000/svg"
   xmlns="http://www.w3.org/2000/svg"
   version="1.1"
   id="svg2"
   xml:space="preserve"
   width="566.92932"
   height="286.86667"
   viewBox="0 0 566.92932 286.86667"><metadata
     id="metadata8"><rdf:RDF><cc:Work
         rdf:about=""><dc:format>image/svg+xml</dc:format><dc:type
           rdf:resource="http://purl.org/dc/dcmitype/StillImage" /></cc:Work></rdf:RDF></metadata><defs
     id="defs6"><clipPath
       clipPathUnits="userSpaceOnUse"
       id="clipPath44"><path
         d="M 27.9543,208.94812 V 6.20149 H 397.24255 V 208.94812 H 27.9543"
         clip-rule="evenodd"
         id="path42" /></clipPath><clipPath
       clipPathUnits="userSpaceOnUse"
       id="clipPath56"><path
         d="M 27.9543,208.94812 V 6.20149 H 397.24255 V 208.94812 H 27.9543"
         clip-rule="evenodd"
         id="path54" /></clipPath><clipPath
       clipPathUnits="userSpaceOnUse"
       id="clipPath68"><path
         d="M 27.9543,208.94812 V 6.20149 H 397.24255 V 208.94812 H 27.9543"
         clip-rule="evenodd"
         id="path66" /></clipPath><clipPath
       clipPathUnits="userSpaceOnUse"
       id="clipPath80"><path
         d="M 27.9543,208.94812 V 6.20149 H 397.24255 V 208.94812 H 27.9543"
         clip-rule="evenodd"
         id="path78" /></clipPath><clipPath
       clipPathUnits="userSpaceOnUse"
       id="clipPath92"><path
         d="M 27.9543,208.94812 V 6.20149 H 397.24255 V 208.94812 H 27.9543"
         clip-rule="evenodd"
         id="path90" /></clipPath><clipPath
       clipPathUnits="userSpaceOnUse"
       id="clipPath104"><path
         d="M 27.9543,208.94812 V 6.20149 H 397.24255 V 208.94812 H 27.9543"
         clip-rule="evenodd"
         id="path102" /></clipPath><clipPath
       clipPathUnits="userSpaceOnUse"
       id="clipPath116"><path
         d="M 27.9543,208.94812 V 6.20149 H 397.24255 V 208.94812 H 27.9543"
         clip-rule="evenodd"
         id="path114" /></clipPath><clipPath
       clipPathUnits="userSpaceOnUse"
       id="clipPath128"><path
         d="M 27.9543,208.94812 V 6.20149 H 397.24255 V 208.94812 H 27.9543"
         clip-rule="evenodd"
         id="path126" /></clipPath><clipPath
       clipPathUnits="userSpaceOnUse"
       id="clipPath140"><path
         d="M 27.9543,208.94812 V 6.20149 H 397.24255 V 208.94812 H 27.9543"
         clip-rule="evenodd"
         id="path138" /></clipPath><clipPath
       clipPathUnits="userSpaceOnUse"
       id="clipPath152"><path
         d="M 27.9543,208.94812 V 6.20149 H 397.24255 V 208.94812 H 27.9543"
         clip-rule="evenodd"
         id="path150" /></clipPath><clipPath
       clipPathUnits="userSpaceOnUse"
       id="clipPath164"><path
         d="M 27.9543,208.94812 V 6.20149 H 397.24255 V 208.94812 H 27.9543"
         clip-rule="evenodd"
         id="path162" /></clipPath><clipPath
       clipPathUnits="userSpaceOnUse"
       id="clipPath176"><path
         d="M 27.9543,208.94812 V 6.20149 H 397.24255 V 208.94812 H 27.9543"
         clip-rule="evenodd"
         id="path174" /></clipPath><clipPath
       clipPathUnits="userSpaceOnUse"
       id="clipPath188"><path
         d="M 27.9543,208.94812 V 6.20149 H 397.24255 V 208.94812 H 27.9543"
         clip-rule="evenodd"
         id="path186" /></clipPath><clipPath
       clipPathUnits="userSpaceOnUse"
       id="clipPath200"><path
         d="M 27.9543,208.94812 V 6.20149 H 397.24255 V 208.94812 H 27.9543"
         clip-rule="evenodd"
         id="path198" /></clipPath><clipPath
       clipPathUnits="userSpaceOnUse"
       id="clipPath212"><path
         d="M 27.9543,208.94812 V 6.20149 H 397.24255 V 208.94812 H 27.9543"
         clip-rule="evenodd"
         id="path210" /></clipPath><clipPath
       clipPathUnits="userSpaceOnUse"
       id="clipPath224"><path
         d="M 27.9543,208.94812 V 6.20149 H 397.24255 V 208.94812 H 27.9543"
         clip-rule="evenodd"
         id="path222" /></clipPath><clipPath
       clipPathUnits="userSpaceOnUse"
       id="clipPath236"><path
         d="M 27.9543,208.94812 V 6.20149 H 397.24255 V 208.94812 H 27.9543"
         clip-rule="evenodd"
         id="path234" /></clipPath><clipPath
       clipPathUnits="userSpaceOnUse"
       id="clipPath248"><path
         d="M 27.9543,208.94812 V 6.20149 H 397.24255 V 208.94812 H 27.9543"
         clip-rule="evenodd"
         id="path246" /></clipPath></defs><g
     id="g10"
     transform="matrix(1.3333333,0,0,-1.3333333,0,286.86667)"><path
       d="M 86.23102,33.46988 61.68227,19.29665 m 4.29602,2.48031 0.30687,0.17717 m -4.60289,-2.65748 v 0 l 4.65036,1.86659 -0.70867,1.22743 -3.94169,-3.09402"
       style="fill:none;stroke:#000000;stroke-width:0.28346;stroke-linecap:round;stroke-linejoin:round;stroke-miterlimit:10;stroke-dasharray:none;stroke-opacity:1"
       id="path12" /><path
       d="m 65.62396,22.39067 -3.94169,-3.09402 4.65036,1.86659 z"
       style="fill:#000000;fill-opacity:1;fill-rule:nonzero;stroke:none"
       id="path14" /><path
       d="m 197.9913,33.46988 24.54874,-14.17323 m -4.29602,2.48031 -0.30686,0.17717 m 4.60288,-2.65748 v 0 l -3.94171,3.09404 -0.70865,-1.22744 4.65036,-1.8666"
       style="fill:none;stroke:#000000;stroke-width:0.28346;stroke-linecap:round;stroke-linejoin:round;stroke-miterlimit:10;stroke-dasharray:none;stroke-opacity:1"
       id="path16" /><path
       d="m 217.88968,21.16325 4.65036,-1.8666 -3.94171,3.09404 z"
       style="fill:#000000;fill-opacity:1;fill-rule:nonzero;stroke:none"
       id="path18" /><path
       d="m 154.53842,59.85855 v 87.64758 m 0.0599,4.89701 1.54364,-0.89124 m 0,-92.57913 -1.60352,0.92578 m 1.60352,-0.92578 v 92.57913 m 8.01758,4.62897 8.0176,4.62894 m -16.03518,-9.25791 8.01758,4.62897 m 8.0176,4.62894 -1.54364,0.89123 m 1.54364,-93.47037 -16.03518,-9.2579 m 16.03518,9.2579 v 92.57914 m -61.23564,3.70605 v 4.88214 m 0,-4.88214 0.0914,-1.94855 m 0,4.88214 -0.0914,1.94855 0.27402,1.94281 m 0.27319,-5.82278 -0.45578,1.93142 m 0,-4.88214 0.45578,-1.93139 m -0.27319,10.70489 0.63623,1.91434 m 0.45178,-9.62879 -0.81482,1.89167 m 0,-4.88211 0.81482,-1.89167 m -0.45178,14.5109 0.991,1.8634 m 0.62506,-13.32187 -1.16428,1.82968 m 0,-4.88211 1.16428,-1.82968 m -0.62506,18.20398 0.74611,1.00141 m 1.37904,-16.06955 -1.50009,1.74627 m 0,-4.88211 1.50009,-1.7463 m 1.81833,3.23971 -1.81833,1.64243 m 0,-4.88214 1.81833,-1.6424 m 2.11523,3.36282 -2.11523,1.51929 m 0,-4.88211 2.11523,-1.51929 m 2.38735,3.50379 -2.38735,1.37832 m 0,-4.88211 2.38735,-1.37832 m 2.63147,3.66089 -2.63147,1.22122 m 0,-4.88211 2.63147,-1.22126 m 2.84475,3.83231 -2.84475,1.04984 m 0,-4.88215 2.84475,-1.0498 3.02466,-0.86609 m 0,4.88214 -3.02466,0.86606 m 3.02466,-5.7482 3.16913,-0.67218 m 0,4.88211 -3.16913,0.67221 m 3.16913,-5.55432 3.27643,-0.47043 m 0,4.88211 -3.27643,0.47043 m 6.62174,-0.73358 -3.34531,0.26315 m 0,-4.88211 3.34531,-0.26315 m 3.37497,4.82931 -3.37497,0.0528 m 0,-4.88211 3.37497,-0.0528 m 3.36511,5.04032 -3.36511,-0.15821 m 0,-4.88211 3.36511,0.15821 m 3.3157,5.24945 -3.3157,-0.36734 m 0,-4.88211 3.3157,0.36734 m 3.22751,5.45425 -3.22751,-0.57214 m 0,-4.88211 3.22751,0.57214"
       style="fill:none;stroke:#000000;stroke-width:1.41733;stroke-linecap:round;stroke-linejoin:round;stroke-miterlimit:10;stroke-dasharray:none;stroke-opacity:1"
       id="path20" /><path
       d="m 154.5983,152.40314 -1.73447,-0.43079 m 0,-4.88211 1.73447,0.43076 m 0,4.88214 V 147.521 m 14.33053,30.50369 0.3256,-0.2941 1.50009,-1.74628 m 0.62506,-13.3219 -0.7461,-1.00137 m 0.12104,14.32327 1.16427,-1.82971 m 0.25833,-14.87466 0.19345,0.36377 m 0,4.88211 -0.99099,-1.86341 m 0.53921,11.49219 0.81482,-1.89163 m 0.2732,-5.82281 -0.63624,-1.91434 m 0,-4.88211 0.63624,1.91433 m -0.2732,10.70493 0.45578,-1.93143 m 0.0914,-6.83065 v 4.88211 m -0.27401,-6.82496 0.27401,1.94285 m -0.0914,6.83065 0.0914,-1.94854 -0.27401,-1.94284 m -60.96161,7.13879 v 3.39221 m 0,-92.57913 v 74.91193 m 1.54364,16.776 -1.54364,0.8912 m 1.60351,-93.50493 v 73.19771 m -1.60351,-72.27191 1.60351,-0.9258 m -1.60351,93.50493 3.63212,2.09702 m -2.02861,-95.60195 16.03519,9.25792 m 0,50.68918 V 92.72415 M 81.97923,71.6624 v 4.62895 m 30.06597,17.3586 -30.06597,-17.3586 m 51.31258,29.62532 -3.60791,-2.08302 m 12.42725,-66.88843 v 4.62895 M 81.97923,76.29135 142.11115,41.57417 M 81.97923,71.6624 142.11115,36.94522 m 60.13192,34.71718 v 4.62895 m -47.70465,27.5423 -3.60791,2.08302 m 51.31256,-29.62532 -30.06595,17.3586 M 142.11115,41.57417 202.24307,76.29135 M 142.11115,36.94522 202.24307,71.6624 m -68.95126,8.79501 v 61.49977 m 0,-61.49977 16.03519,-9.25792 m 0,70.2703 v -70.2703 m 1.60351,0.9258 v 69.83174 m -1.60351,-70.75754 1.60351,0.9258 m -37.13708,96.41591 v 0.93194 l 0.0459,1.31665 m 0.0918,-3.56307 -0.13772,1.31448 m 0.0459,2.24859 0.18335,1.85145 0.22779,1.30172 m 0.001,-8.02011 -0.32047,1.30387 m 0.31935,6.71624 0.36257,1.81006 m 0.13971,-11.11487 -0.50116,1.2847 m 0.36145,9.83017 0.54088,1.76541"
       style="fill:none;stroke:#000000;stroke-width:1.41733;stroke-linecap:round;stroke-linejoin:round;stroke-miterlimit:10;stroke-dasharray:none;stroke-opacity:1"
       id="path22" /><path
       d="m 115.43137,163.38086 -0.67859,1.25729 m 0.40117,12.88028 0.39524,1.24521 0.70522,1.67627 m 0.0286,-18.28073 -0.85162,1.22168 m 0.82304,17.05905 0.55244,1.19034 m 0.49526,-20.6492 -1.01912,1.17813 m 0.52386,19.47107 0.85427,1.56103 0.69235,1.12162 m 0.12865,-24.45884 -1.18001,1.12699 m 1.05136,23.33185 0.98415,1.42172 m 0.38752,-34.25339 -0.0114,0.0164 m 0.10165,7.28793 -1.33326,1.06851 m 0.8555,25.88056 0.81137,1.04083 m 0.45945,-36.31537 -0.8833,1.02115 m 0.42385,35.29422 1.09152,1.26062 m 0.0527,-30.2536 -1.47786,1.00308 m 1.86176,-9.56094 -1.0687,1.23547 m 0.63207,37.57599 0.9064,0.95008 m 0.50215,-40.68979 -0.97192,0.92825 m 1.22897,7.62665 -1.61287,0.93121 m 0.85367,31.20368 1.17359,1.08047 m 0.47264,-42.82376 -1.14408,1.0535 m 0.67144,41.77026 0.97497,0.85171 m 0.34807,-34.92031 -1.73743,0.85324 m 1.92061,-10.43677 -1.03358,0.82837 m 0.50233,43.67547 1.09053,0.80362 m 0.63234,-46.1636 -1.19162,0.85614 m 1.66751,8.81378 -1.85069,0.76975 m 0.74246,35.72393 1.15306,0.82889 m 0.54598,-47.71652 -1.0667,0.72403 m 0.52072,46.99249 1.11634,0.69864 m 0.59378,-49.08728 -1.16414,0.67212 m 1.36119,9.71268 -1.952,0.68127 m 1.16117,38.02121 1.21008,0.64453 m 0.50003,-50.32434 -1.11633,0.59253 m 0.6163,49.73181 1.06668,0.56714 m 0.55469,-40.50256 -2.04062,0.58841 m 2.07236,-11.54358 -1.15308,0.56625 m 0.56665,50.89148 1.19162,0.539 m 0.62305,-52.5076 -1.22824,0.51087 m 0.60519,51.99673 1.26288,0.48188 m 0.21618,-42.01511 -2.11599,0.49167 m 2.55542,-11.91815 -1.29544,0.45211 m 0.63983,52.98948 0.91479,0.30514 m 0.59394,-54.03134 -0.85312,0.28461 m 0.25918,53.74673 1.20121,0.38199 m 0.27783,-43.09403 -2.17765,0.39179 m 2.51944,-12.06482 -1.22689,0.35373 m 0.60727,54.41333 1.25054,0.32495 m 0.64127,-55.38763 -1.27219,0.29562"
       style="fill:none;stroke:#000000;stroke-width:1.41733;stroke-linecap:round;stroke-linejoin:round;stroke-miterlimit:10;stroke-dasharray:none;stroke-opacity:1"
       id="path24" /><path
       d="m 137.00571,152.7858 -2.22522,0.28933 m 0.97271,43.41898 1.29181,0.26581 m 0.65873,-55.88901 -1.30927,0.23557 m 0.65054,55.65344 1.32462,0.20489 m 0.67197,-56.26785 -1.33786,0.17395 m 1.56027,11.72986 -2.2583,0.18503 m 1.36392,44.17901 1.34891,0.14273 m 0.68084,-56.52182 -1.35778,0.11124 m 0.67694,56.41058 1.36444,0.0796 m 0.45782,-44.66589 -2.27679,0.0795 m 2.50424,-12.06287 -1.36887,0.0478 m 0.6836,56.60141 1.37109,0.016 m 0.68527,-56.64923 -1.37109,-0.016 m 2.05304,12.00986 -2.28049,-0.0265 m 0.91327,44.68185 1.36887,-0.0478 m 0.68081,-56.52182 -1.36441,-0.0796 m 0.6836,56.60141 1.35775,-0.11123 m 0.67197,-56.26789 -1.34891,-0.1427 m 1.58692,12.0467 -2.26938,-0.13239 m 1.3594,44.49628 1.33786,-0.17398 m 0.65876,-55.88898 -1.32465,-0.20493 m 0.66589,56.09391 1.3093,-0.23554 m 0.50641,-43.71701 -2.24359,-0.23736 m 2.37842,-11.43326 -1.29178,-0.26581 m 0.65054,55.65344 1.27219,-0.29562 m 0.6196,-54.76706 -1.25055,-0.32495 m 0.63095,55.09201 1.22686,-0.35376 m 0.21058,-42.72678 -2.20322,-0.34085 m 2.58661,-10.96368 -1.20123,-0.38199 m 1.46038,54.12872 -0.85312,0.28458 m 0.59397,-54.03131 0.91476,0.30514 m -0.65561,53.44159 1.29547,-0.45215 m 0.21055,-41.54797 -2.14856,-0.44208 m 2.56103,-10.51752 -1.26288,-0.48187 m 0.63986,52.98944 1.22825,-0.51083 m 0.58639,-51.45773 -1.19162,-0.53901 m 1.19162,0.53901 0.24829,0.13202 m 0.2276,10.82907 -2.07998,-0.5405 m 1.0177,41.03714 1.15304,-0.56628 m 1.11633,-0.59253 -1.11633,0.59253 m 1.90717,-39.29502 -1.99793,-0.63534 m 1.20709,39.33783 1.16416,-0.67212 1.06671,-0.72403 m 0.46286,-36.58023 -1.90289,-0.72611 m 2.63162,36.4502 -1.19159,0.85614 m 1.19159,-0.85614 1.0336,-0.82834 m 0.0332,-34.08359 -1.79553,-0.81216 m 2.9064,33.84225 -1.14407,1.0535 m 1.70968,-33.19064 -1.67648,-0.89295 m 1.11087,33.03009 0.97193,-0.92825"
       style="fill:none;stroke:#000000;stroke-width:1.41733;stroke-linecap:round;stroke-linejoin:round;stroke-miterlimit:10;stroke-dasharray:none;stroke-opacity:1"
       id="path26" /><path
       d="m 162.54517,188.51639 0.83941,-0.97037 m 0.30091,-29.2706 -1.54664,-0.96792 m 2.35831,28.95227 -1.11258,1.28625 m 1.70761,-28.23395 -1.4067,-1.03665 m 0.81167,27.98435 0.73813,-1.05887 m 0.9993,-1.44477 -0.9993,1.44477 m 1.11456,-24.79019 -1.25766,-1.09864 m 1.98523,22.90274 -0.84283,1.54132 m 1.21573,-22.19192 -1.10047,-1.1535 m 0.72757,21.8041 0.63501,-1.17654 m 0.67401,-18.27319 -0.93612,-1.20087 m 0.96039,17.81412 -0.69828,1.65994 m 0.69828,-1.65994 0.48175,-1.23499 m 0.2597,-14.13779 -0.76572,-1.24047 m 1.04337,13.62536 -0.53735,1.7529 m 0.85006,-12.86575 -0.59036,-1.27204 m 0.27765,12.38489 0.31427,-1.2785 m 0.36432,-1.81851 -0.36432,1.81851 m 0.40958,-8.53903 -0.41114,-1.29532 m 0.36588,8.01584 0.13684,-1.30597 m 0.13769,-4.10431 -0.22927,-1.31024 m 0.2752,2.62689 -0.0459,-1.31665 m 0.0459,1.31665 v 0.93194 l -0.18362,1.85572 M 335.95572,59.85855 v 87.64758 m 0.0599,4.89701 1.54364,-0.89124 m 0,-92.57913 -1.60351,0.92578 m 1.60351,-0.92578 v 92.57913 m 8.01761,4.62897 8.01758,4.62894 m -16.03519,-9.25791 8.01761,4.62897 m 8.01758,4.62894 -1.54364,0.89123 m 1.54364,-93.47037 -16.03519,-9.2579 m 16.03519,9.2579 v 92.57914 m -61.23562,3.70605 v 4.88214 m 0,-4.88214 0.0914,-1.94855 m 0,4.88214 -0.0914,1.94855 0.27401,1.94281 m 0.2732,-5.82278 -0.45578,1.93142 m 0,-4.88214 0.45578,-1.93139 m -0.2732,10.70489 0.63623,1.91434 m 0.45179,-9.62879 -0.81482,1.89167 m 0,-4.88211 0.81482,-1.89167 m -0.45179,14.5109 0.991,1.8634 m 0.62506,-13.32187 -1.16427,1.82968 m 0,-4.88211 1.16427,-1.82968 m -0.62506,18.20398 0.74609,1.00141 m 1.37906,-16.06955 -1.50009,1.74627 m 0,-4.88211 1.50009,-1.7463 m 1.81833,3.23971 -1.81833,1.64243 m 0,-4.88214 1.81833,-1.6424"
       style="fill:none;stroke:#000000;stroke-width:1.41733;stroke-linecap:round;stroke-linejoin:round;stroke-miterlimit:10;stroke-dasharray:none;stroke-opacity:1"
       id="path28" /><path
       d="m 300.31876,156.84869 -2.11524,1.51929 m 0,-4.88211 2.11524,-1.51929 m 2.38736,3.50379 -2.38736,1.37832 m 0,-4.88211 2.38736,-1.37832 m 2.63147,3.66089 -2.63147,1.22122 m 0,-4.88211 2.63147,-1.22126 m 2.84472,3.83231 -2.84472,1.04984 m 0,-4.88215 2.84472,-1.0498 3.02469,-0.86609 m 0,4.88214 -3.02469,0.86606 m 3.02469,-5.7482 3.1691,-0.67218 m 0,4.88211 -3.1691,0.67221 m 3.1691,-5.55432 3.27643,-0.47043 m 0,4.88211 -3.27643,0.47043 m 6.62173,-0.73358 -3.3453,0.26315 m 0,-4.88211 3.3453,-0.26315 m 3.375,4.82931 -3.375,0.0528 m 0,-4.88211 3.375,-0.0528 m 3.36509,5.04032 -3.36509,-0.15821 m 0,-4.88211 3.36509,0.15821 m 3.31573,5.24945 -3.31573,-0.36734 m 0,-4.88211 3.31573,0.36734 m 3.22751,5.45425 -3.22751,-0.57214 m 0,-4.88211 3.22751,0.57214 m 1.73443,5.3129 -1.73443,-0.43079 m 0,-4.88211 1.73443,0.43076 m 0,4.88214 V 147.521 m 14.33054,30.50369 0.32559,-0.2941 1.50009,-1.74628 m 0.6251,-13.3219 -0.74613,-1.00137 m 0.12103,14.32327 1.16431,-1.82971 m 0.2583,-14.87466 0.19348,0.36377 m 0,4.88211 -0.99099,-1.86341 m 0.53921,11.49219 0.81479,-1.89163 m 0.27322,-5.82281 -0.63623,-1.91434 m 0,-4.88211 0.63623,1.91433 m -0.27322,10.70493 0.45581,-1.93143 m 0.0914,-6.83065 v 4.88211 m -0.27399,-6.82496 0.27399,1.94285 m -0.0914,6.83065 0.0914,-1.94854 -0.27399,-1.94284 m -60.96164,7.13879 v 3.39221 m 0,-92.57913 v 74.91193 m 1.54364,16.776 -1.54364,0.8912 m 1.60355,-93.50493 v 73.19771 m -1.60355,-72.27191 1.60355,-0.9258 m -1.60355,93.50493 3.63215,2.09702 m -2.0286,-95.60195 16.03516,9.25792 m 0,50.68918 V 92.72415 M 263.39655,71.6624 v 4.62895"
       style="fill:none;stroke:#000000;stroke-width:1.41733;stroke-linecap:round;stroke-linejoin:round;stroke-miterlimit:10;stroke-dasharray:none;stroke-opacity:1"
       id="path30" /><path
       d="m 293.46249,93.64995 -30.06594,-17.3586 m 51.31256,29.62532 -3.60791,-2.08302 m 12.42727,-66.88843 v 4.62895 M 263.39655,76.29135 323.52847,41.57417 M 263.39655,71.6624 323.52847,36.94522 m 60.1319,34.71718 v 4.62895 m -47.70465,27.5423 -3.60791,2.08302 m 51.31256,-29.62532 -30.06595,17.3586 m -30.06595,-52.07578 60.1319,34.71718 m -60.1319,-39.34613 60.1319,34.71718 m -68.95126,8.79501 v 61.49977 m 0,-61.49977 16.03518,-9.25792 m 0,70.2703 v -70.2703 m 1.60352,0.9258 v 69.83174 m -1.60352,-70.75754 1.60352,0.9258 m -37.13706,96.41591 v 0.93194 l 0.0459,1.31665 m 0.0918,-3.56307 -0.1377,1.31448 m 0.0459,2.24859 0.18335,1.85145 0.22779,1.30172 m 10e-4,-8.02011 -0.3205,1.30387 m 0.31937,6.71624 0.36254,1.81006 m 0.13974,-11.11487 -0.50115,1.2847 m 0.36141,9.83017 0.5409,1.76541 m 0.27743,-14.13757 -0.67859,1.25729 m 0.40116,12.88028 0.39523,1.24521 0.70523,1.67627 m 0.0286,-18.28073 -0.8516,1.22168 m 0.82303,17.05905 0.55243,1.19034 m 0.49527,-20.6492 -1.01913,1.17813 m 0.52386,19.47107 0.85428,1.56103 0.69235,1.12162 m 0.12866,-24.45884 -1.18002,1.12699 m 1.05136,23.33185 0.98416,1.42172 m 0.38752,-34.25339 -0.0114,0.0164 m 0.10166,7.28793 -1.33326,1.06851 m 0.8555,25.88056 0.81137,1.04083 m 0.45945,-36.31537 -0.8833,1.02115 m 0.42385,35.29422 1.09153,1.26062 m 0.0527,-30.2536 -1.47787,1.00308 m 1.86175,-9.56094 -1.06869,1.23547 m 0.63208,37.57599 0.90637,0.95008 m 0.50217,-40.68979 -0.97193,0.92825 m 1.22898,7.62665 -1.61286,0.93121 m 0.85364,31.20368 1.17361,1.08047 m 0.47263,-42.82376 -1.14407,1.0535 m 0.67144,41.77026 0.97498,0.85171 m 0.34805,-34.92031 -1.73742,0.85324 m 1.92062,-10.43677 -1.0336,0.82837 m 0.50235,43.67547 1.09051,0.80362"
       style="fill:none;stroke:#000000;stroke-width:1.41733;stroke-linecap:round;stroke-linejoin:round;stroke-miterlimit:10;stroke-dasharray:none;stroke-opacity:1"
       id="path32" /><path
       d="m 307.43564,145.55835 -1.19159,0.85614 m 1.66751,8.81378 -1.85071,0.76975 m 0.74246,35.72393 1.15305,0.82889 m 0.54599,-47.71652 -1.06671,0.72403 m 0.52072,46.99249 1.11633,0.69864 m 0.59381,-49.08728 -1.16415,0.67212 m 1.36121,9.71268 -1.952,0.68127 m 1.16113,38.02121 1.21009,0.64453 m 0.50006,-50.32434 -1.11634,0.59253 m 0.61628,49.73181 1.06671,0.56714 m 0.55465,-40.50256 -2.04058,0.58841 m 2.07232,-11.54358 -1.15304,0.56625 m 0.56665,50.89148 1.19162,0.539 m 0.62301,-52.5076 -1.22824,0.51087 m 0.60523,51.99673 1.26288,0.48188 m 0.21615,-42.01511 -2.116,0.49167 m 2.55545,-11.91815 -1.29547,0.45211 m 0.63987,52.98948 0.91476,0.30514 m 0.59396,-54.03134 -0.85312,0.28461 m 0.25916,53.74673 1.20123,0.38199 m 0.27783,-43.09403 -2.17767,0.39179 m 2.51944,-12.06482 -1.22687,0.35373 m 0.60727,54.41333 1.25055,0.32495 m 0.64124,-55.38763 -1.27219,0.29562 m 1.88342,11.3837 -2.22519,0.28933 m 0.97272,43.41898 1.29178,0.26581 m 0.65875,-55.88901 -1.30929,0.23557 m 0.65054,55.65344 1.32465,0.20489 m 0.67196,-56.26785 -1.33786,0.17395 m 1.56028,11.72986 -2.25834,0.18503 m 1.36396,44.17901 1.3489,0.14273 m 0.68082,-56.52182 -1.35776,0.11124 m 0.67694,56.41058 1.36441,0.0796 m 0.45783,-44.66589 -2.27676,0.0795 m 2.50421,-12.06287 -1.36887,0.0478 m 0.68359,56.60141 1.3711,0.016 m 0.68527,-56.64923 -1.37109,-0.016 m 2.05304,12.00986 -2.28049,-0.0265 m 0.91327,44.68185 1.36886,-0.0478 m 0.68085,-56.52182 -1.36444,-0.0796 m 0.68359,56.60141 1.35779,-0.11123 m 0.67197,-56.26789 -1.34891,-0.1427 m 1.58692,12.0467 -2.26941,-0.13239 m 1.35943,44.49628 1.33786,-0.17398 m 0.65872,-55.88898 -1.32461,-0.20493 m 0.66589,56.09391 1.30927,-0.23554 m 0.50641,-43.71701 -2.24356,-0.23736 m 2.37841,-11.43326 -1.29181,-0.26581 m 0.65055,55.65344 1.27221,-0.29562 m 0.6196,-54.76706 -1.25055,-0.32495"
       style="fill:none;stroke:#000000;stroke-width:1.41733;stroke-linecap:round;stroke-linejoin:round;stroke-miterlimit:10;stroke-dasharray:none;stroke-opacity:1"
       id="path34" /><path
       d="m 330.51736,196.3389 1.22687,-0.35376 m 0.21054,-42.72678 -2.20321,-0.34085 m 2.58661,-10.96368 -1.20121,-0.38199 m 1.46039,54.12872 -0.85312,0.28458 m 0.59394,-54.03131 0.91479,0.30514 m -0.65561,53.44159 1.29544,-0.45215 m 0.21057,-41.54797 -2.14859,-0.44208 m 2.56107,-10.51752 -1.26288,-0.48187 m 0.63983,52.98944 1.22824,-0.51083 m 0.58643,-51.45773 -1.19162,-0.53901 m 1.19162,0.53901 0.24826,0.13202 m 0.22763,10.82907 -2.07999,-0.5405 m 1.01767,41.03714 1.15308,-0.56628 m 1.11633,-0.59253 -1.11633,0.59253 m 1.90716,-39.29502 -1.99792,-0.63534 m 1.20709,39.33783 1.16413,-0.67212 1.06671,-0.72403 m 0.46289,-36.58023 -1.9029,-0.72611 m 2.63163,36.4502 -1.19162,0.85614 m 1.19162,-0.85614 1.0336,-0.82834 m 0.0332,-34.08359 -1.7955,-0.81216 m 2.9064,33.84225 -1.14407,1.0535 m 1.70968,-33.19064 -1.67651,-0.89295 m 1.1109,33.03009 0.97192,-0.92825 0.83939,-0.97037 m 0.3009,-29.2706 -1.5466,-0.96792 m 2.35828,28.95227 -1.11258,1.28625 m 1.70761,-28.23395 -1.40671,-1.03665 m 0.81168,27.98435 0.73813,-1.05887 m 0.9993,-1.44477 -0.9993,1.44477 m 1.11456,-24.79019 -1.25766,-1.09864 m 1.98526,22.90274 -0.84286,1.54132 m 1.21572,-22.19192 -1.10046,-1.1535 m 0.7276,21.8041 0.63501,-1.17654 m 0.67398,-18.27319 -0.93613,-1.20087 m 0.96039,17.81412 -0.69824,1.65994 m 0.69824,-1.65994 0.48175,-1.23499 m 0.25971,-14.13779 -0.76572,-1.24047 m 1.0434,13.62536 -0.53739,1.7529 m 0.85007,-12.86575 -0.59036,-1.27204 m 0.27768,12.38489 0.31424,-1.2785 m 0.36432,-1.81851 -0.36432,1.81851 m 0.4096,-8.53903 -0.41116,-1.29532 m 0.36588,8.01584 0.13684,-1.30597 m 0.13772,-4.10431 -0.22928,-1.31024 m 0.27521,2.62689 -0.0459,-1.31665 m 0.0459,1.31665 v 0.93194 l -0.18365,1.85572"
       style="fill:none;stroke:#000000;stroke-width:1.41733;stroke-linecap:round;stroke-linejoin:round;stroke-miterlimit:10;stroke-dasharray:none;stroke-opacity:1"
       id="path36" /><g
       id="g38"><g
         id="g40"
         clip-path="url(#clipPath44)"><text
           transform="matrix(1,0,0,-1,131.80463,169.40425)"
           style="font-variant:normal;font-weight:normal;font-stretch:normal;font-size:11.1008px;font-family:'Palatino Linotype';-inkscape-font-specification:PalatinoLinotype-Roman;writing-mode:lr-tb;fill:#000000;fill-opacity:1;fill-rule:nonzero;stroke:none"
           id="text48"><tspan
             x="0 6.7825704 12.099839 17.417109"
             y="0"
             id="tspan46">Leer</tspan></text></g></g><g
       id="g50"><g
         id="g52"
         clip-path="url(#clipPath56)"><text
           transform="matrix(1,0,0,-1,119.11505,12.89138)"
           style="font-style:italic;font-variant:normal;font-weight:normal;font-stretch:normal;font-size:11.0078px;font-family:'Palatino Linotype';-inkscape-font-specification:PalatinoLinotype-Italic;writing-mode:lr-tb;fill:#000000;fill-opacity:1;fill-rule:nonzero;stroke:none"
           id="text60"><tspan
             x="0"
             y="0"
             id="tspan58">m</tspan></text></g></g><g
       id="g62"><g
         id="g64"
         clip-path="url(#clipPath68)"><text
           transform="matrix(1,0,0,-1,129.11069,8.34414)"
           style="font-style:italic;font-variant:normal;font-weight:normal;font-stretch:normal;font-size:6.6047px;font-family:'Palatino Linotype';-inkscape-font-specification:PalatinoLinotype-Italic;writing-mode:lr-tb;fill:#000000;fill-opacity:1;fill-rule:nonzero;stroke:none"
           id="text72"><tspan
             x="0 3.30235 4.9535251"
             y="0"
             id="tspan70">1, </tspan></text></g></g><g
       id="g74"><g
         id="g76"
         clip-path="url(#clipPath80)"><text
           transform="matrix(1,0,0,-1,135.9042,12.89138)"
           style="font-style:italic;font-variant:normal;font-weight:normal;font-stretch:normal;font-size:11.0078px;font-family:'Palatino Linotype';-inkscape-font-specification:PalatinoLinotype-Italic;writing-mode:lr-tb;fill:#000000;fill-opacity:1;fill-rule:nonzero;stroke:none"
           id="text84"><tspan
             x="0 2.75196 5.5039201"
             y="0"
             id="tspan82">, k</tspan></text></g></g><g
       id="g86"><g
         id="g88"
         clip-path="url(#clipPath92)"><text
           transform="matrix(1,0,0,-1,147.86248,8.34414)"
           style="font-style:italic;font-variant:normal;font-weight:normal;font-stretch:normal;font-size:6.6047px;font-family:'Palatino Linotype';-inkscape-font-specification:PalatinoLinotype-Italic;writing-mode:lr-tb;fill:#000000;fill-opacity:1;fill-rule:nonzero;stroke:none"
           id="text96"><tspan
             x="0"
             y="0"
             id="tspan94">1</tspan></text></g></g><g
       id="g98"><g
         id="g100"
         clip-path="url(#clipPath104)"><text
           transform="matrix(1,0,0,-1,154.01118,12.89138)"
           style="font-style:italic;font-variant:normal;font-weight:normal;font-stretch:normal;font-size:11.0078px;font-family:'Palatino Linotype';-inkscape-font-specification:PalatinoLinotype-Italic;writing-mode:lr-tb;fill:#000000;fill-opacity:1;fill-rule:nonzero;stroke:none"
           id="text108"><tspan
             x="0 2.75196 5.5039201"
             y="0"
             id="tspan106">, c</tspan></text></g></g><g
       id="g110"><g
         id="g112"
         clip-path="url(#clipPath116)"><text
           transform="matrix(1,0,0,-1,164.77657,8.34414)"
           style="font-style:italic;font-variant:normal;font-weight:normal;font-stretch:normal;font-size:6.6047px;font-family:'Palatino Linotype';-inkscape-font-specification:PalatinoLinotype-Italic;writing-mode:lr-tb;fill:#000000;fill-opacity:1;fill-rule:nonzero;stroke:none"
           id="text120"><tspan
             x="0"
             y="0"
             id="tspan118">1</tspan></text></g></g><g
       id="g122"><g
         id="g124"
         clip-path="url(#clipPath128)"><text
           transform="matrix(1,0,0,-1,288.12489,12.89138)"
           style="font-style:italic;font-variant:normal;font-weight:normal;font-stretch:normal;font-size:11.0078px;font-family:'Palatino Linotype';-inkscape-font-specification:PalatinoLinotype-Italic;writing-mode:lr-tb;fill:#ff0000;fill-opacity:1;fill-rule:nonzero;stroke:none"
           id="text132"><tspan
             x="0"
             y="0"
             id="tspan130">m</tspan></text></g></g><g
       id="g134"><g
         id="g136"
         clip-path="url(#clipPath140)"><text
           transform="matrix(1,0,0,-1,298.12052,8.34414)"
           style="font-style:italic;font-variant:normal;font-weight:normal;font-stretch:normal;font-size:6.6047px;font-family:'Palatino Linotype';-inkscape-font-specification:PalatinoLinotype-Italic;writing-mode:lr-tb;fill:#ff0000;fill-opacity:1;fill-rule:nonzero;stroke:none"
           id="text144"><tspan
             x="0"
             y="0"
             id="tspan142">2</tspan></text></g></g><g
       id="g146"><g
         id="g148"
         clip-path="url(#clipPath152)"><text
           transform="matrix(1,0,0,-1,304.26925,12.89138)"
           style="font-style:italic;font-variant:normal;font-weight:normal;font-stretch:normal;font-size:11.0078px;font-family:'Palatino Linotype';-inkscape-font-specification:PalatinoLinotype-Italic;writing-mode:lr-tb;fill:#000000;fill-opacity:1;fill-rule:nonzero;stroke:none"
           id="text156"><tspan
             x="0 5.5039201 8.2558804"
             y="0"
             id="tspan154">&gt; m</tspan></text></g></g><g
       id="g158"><g
         id="g160"
         clip-path="url(#clipPath164)"><text
           transform="matrix(1,0,0,-1,322.83544,8.34414)"
           style="font-style:italic;font-variant:normal;font-weight:normal;font-stretch:normal;font-size:6.6047px;font-family:'Palatino Linotype';-inkscape-font-specification:PalatinoLinotype-Italic;writing-mode:lr-tb;fill:#000000;fill-opacity:1;fill-rule:nonzero;stroke:none"
           id="text168"><tspan
             x="0 3.30235 4.9535251"
             y="0"
             id="tspan166">1, </tspan></text></g></g><g
       id="g170"><g
         id="g172"
         clip-path="url(#clipPath176)"><text
           transform="matrix(1,0,0,-1,329.62892,12.89138)"
           style="font-style:italic;font-variant:normal;font-weight:normal;font-stretch:normal;font-size:11.0078px;font-family:'Palatino Linotype';-inkscape-font-specification:PalatinoLinotype-Italic;writing-mode:lr-tb;fill:#000000;fill-opacity:1;fill-rule:nonzero;stroke:none"
           id="text180"><tspan
             x="0 2.75196 5.5039201"
             y="0"
             id="tspan178">, k</tspan></text></g></g><g
       id="g182"><g
         id="g184"
         clip-path="url(#clipPath188)"><text
           transform="matrix(1,0,0,-1,341.58722,8.34414)"
           style="font-style:italic;font-variant:normal;font-weight:normal;font-stretch:normal;font-size:6.6047px;font-family:'Palatino Linotype';-inkscape-font-specification:PalatinoLinotype-Italic;writing-mode:lr-tb;fill:#000000;fill-opacity:1;fill-rule:nonzero;stroke:none"
           id="text192"><tspan
             x="0"
             y="0"
             id="tspan190">1</tspan></text></g></g><g
       id="g194"><g
         id="g196"
         clip-path="url(#clipPath200)"><text
           transform="matrix(1,0,0,-1,347.73592,12.89138)"
           style="font-style:italic;font-variant:normal;font-weight:normal;font-stretch:normal;font-size:11.0078px;font-family:'Palatino Linotype';-inkscape-font-specification:PalatinoLinotype-Italic;writing-mode:lr-tb;fill:#000000;fill-opacity:1;fill-rule:nonzero;stroke:none"
           id="text204"><tspan
             x="0 2.75196 5.5039201"
             y="0"
             id="tspan202">, c</tspan></text></g></g><g
       id="g206"><g
         id="g208"
         clip-path="url(#clipPath212)"><text
           transform="matrix(1,0,0,-1,358.5013,8.34414)"
           style="font-style:italic;font-variant:normal;font-weight:normal;font-stretch:normal;font-size:6.6047px;font-family:'Palatino Linotype';-inkscape-font-specification:PalatinoLinotype-Italic;writing-mode:lr-tb;fill:#000000;fill-opacity:1;fill-rule:nonzero;stroke:none"
           id="text216"><tspan
             x="0"
             y="0"
             id="tspan214">1</tspan></text></g></g><g
       id="g218"><g
         id="g220"
         clip-path="url(#clipPath224)"><text
           transform="matrix(1,0,0,-1,312.7377,169.40425)"
           style="font-variant:normal;font-weight:normal;font-stretch:normal;font-size:11.1008px;font-family:'Palatino Linotype';-inkscape-font-specification:PalatinoLinotype-Roman;writing-mode:lr-tb;fill:#ff0000;fill-opacity:1;fill-rule:nonzero;stroke:none"
           id="text228"><tspan
             x="0 8.0147562 14.075776 17.306101"
             y="0"
             id="tspan226">Voll</tspan></text></g></g><g
       id="g230"><g
         id="g232"
         clip-path="url(#clipPath236)"><text
           transform="matrix(0.86602524,0.50000029,0.50000029,-0.86602524,35.74681,15.18567)"
           style="font-variant:normal;font-weight:normal;font-stretch:normal;font-size:11.1008px;font-family:'Palatino Linotype';-inkscape-font-specification:PalatinoLinotype-Roman;writing-mode:lr-tb;fill:#000000;fill-opacity:1;fill-rule:nonzero;stroke:none"
           id="text240"><tspan
             x="0 6.7825727 12.332959 18.79361 24.965639 29.672367 34.057175 37.287498 42.21624 48.676891 52.295746 58.98951 65.450157"
             y="0"
             id="tspan238">Längsrichtung</tspan></text></g></g><g
       id="g242"><g
         id="g244"
         clip-path="url(#clipPath248)"><text
           transform="matrix(0.86602524,-0.50000029,-0.50000029,-0.86602524,193.14934,46.62177)"
           style="font-variant:normal;font-weight:normal;font-stretch:normal;font-size:11.1008px;font-family:'Palatino Linotype';-inkscape-font-specification:PalatinoLinotype-Roman;writing-mode:lr-tb;fill:#000000;fill-opacity:1;fill-rule:nonzero;stroke:none"
           id="text252"><tspan
             x="0 8.7252083 15.418975 20.736244 25.12105 29.505856 32.736179 37.664925 44.125576 47.744427 54.438194 60.898842"
             y="0"
             id="tspan250">Querrichtung</tspan></text></g></g></g></svg>
