<?xml version="1.0" encoding="UTF-8" standalone="no"?>
<svg
   xmlns:dc="http://purl.org/dc/elements/1.1/"
   xmlns:cc="http://creativecommons.org/ns#"
   xmlns:rdf="http://www.w3.org/1999/02/22-rdf-syntax-ns#"
   xmlns:svg="http://www.w3.org/2000/svg"
   xmlns="http://www.w3.org/2000/svg"
   version="1.1"
   id="svg2"
   xml:space="preserve"
   width="566.92932"
   height="529.1333"
   viewBox="0 0 566.92932 529.1333"><metadata
     id="metadata8"><rdf:RDF><cc:Work
         rdf:about=""><dc:format>image/svg+xml</dc:format><dc:type
           rdf:resource="http://purl.org/dc/dcmitype/StillImage" /></cc:Work></rdf:RDF></metadata><defs
     id="defs6"><clipPath
       clipPathUnits="userSpaceOnUse"
       id="clipPath40"><path
         d="m 37.399,234.095 h 378.72 v 144.48 H 37.399 Z"
         id="path38" /></clipPath><clipPath
       clipPathUnits="userSpaceOnUse"
       id="clipPath56"><path
         d="M 0,396.85 H 425.197 V 0 H 0 Z"
         id="path54" /></clipPath><clipPath
       clipPathUnits="userSpaceOnUse"
       id="clipPath90"><path
         d="M 0,396.85 H 425.197 V 0 H 0 Z"
         id="path88" /></clipPath><clipPath
       clipPathUnits="userSpaceOnUse"
       id="clipPath100"><path
         d="m 9.261,4.284 h 415.936 v 198.36 H 9.261 Z"
         id="path98" /></clipPath><clipPath
       clipPathUnits="userSpaceOnUse"
       id="clipPath128"><path
         d="m 37.701,47.124 h 378.72 v 144.48 H 37.701 Z"
         id="path126" /></clipPath><clipPath
       clipPathUnits="userSpaceOnUse"
       id="clipPath178"><path
         d="M 0,396.85 H 425.197 V 0 H 0 Z"
         id="path176" /></clipPath><clipPath
       clipPathUnits="userSpaceOnUse"
       id="clipPath192"><path
         d="M 0,396.85 H 425.197 V 0 H 0 Z"
         id="path190" /></clipPath><clipPath
       clipPathUnits="userSpaceOnUse"
       id="clipPath208"><path
         d="M 0,396.85 H 425.197 V 0 H 0 Z"
         id="path206" /></clipPath><clipPath
       clipPathUnits="userSpaceOnUse"
       id="clipPath240"><path
         d="M 0,396.85 H 425.197 V 0 H 0 Z"
         id="path238" /></clipPath></defs><g
     id="g10"
     transform="matrix(1.3333333,0,0,-1.3333333,0,529.13333)"><path
       d="M 9.078,191.135 H 425.197 V 389.616 H 9.078 Z"
       style="fill:#ffffff;fill-opacity:1;fill-rule:nonzero;stroke:none"
       id="path12" /><g
       id="g14"
       transform="translate(37.4584,378.5151)"><path
         d="M 0,0 H 377.88 M 0,-17.88 H 377.88 M 0,-35.88 H 377.88 M 0,-53.88 H 377.88 M 0,-71.76 H 377.88 M 0,-89.76 H 377.88 M 0,-107.76 H 377.88 M 0,-125.76 h 377.88"
         style="fill:none;stroke:#040606;stroke-width:0.1;stroke-linecap:butt;stroke-linejoin:round;stroke-miterlimit:10;stroke-dasharray:none;stroke-opacity:1"
         id="path16" /></g><g
       id="g18"
       transform="translate(415.3384,378.5151)"><path
         d="M 0,0 V -143.64 M -94.44,0 V -143.64 M -188.88,0 V -143.64 M -283.44,0 v -143.64"
         style="fill:none;stroke:#040606;stroke-width:0.1;stroke-linecap:butt;stroke-linejoin:round;stroke-miterlimit:10;stroke-dasharray:none;stroke-opacity:1"
         id="path20" /></g><g
       id="g22"
       transform="translate(37.4584,234.8751)"><path
         d="M 0,0 V 143.64"
         style="fill:none;stroke:#040606;stroke-width:0.1;stroke-linecap:butt;stroke-linejoin:round;stroke-miterlimit:10;stroke-dasharray:none;stroke-opacity:1"
         id="path24" /></g><g
       id="g26"
       transform="translate(37.4584,234.8751)"><path
         d="M 0,0 H 377.88"
         style="fill:none;stroke:#040606;stroke-width:0.1;stroke-linecap:butt;stroke-linejoin:round;stroke-miterlimit:10;stroke-dasharray:none;stroke-opacity:1"
         id="path28" /></g><g
       id="g30"
       transform="translate(415.3384,237.5151)"><path
         d="M 0,0 V -2.64 M -94.44,0 V -2.64 M -188.88,0 V -2.64 M -283.44,0 V -2.64 M -377.88,0 V -2.64 M 0,-0.72 v -1.92 m -18.84,1.92 v -1.92 m -18.84,1.92 v -1.92 m -18.96,1.92 v -1.92 m -18.84,1.92 v -1.92 m -18.96,1.92 v -1.92 m -18.84,1.92 v -1.92 m -18.96,1.92 v -1.92 m -18.84,1.92 v -1.92 m -18.96,1.92 v -1.92 m -18.84,1.92 v -1.92 m -18.96,1.92 v -1.92 m -18.84,1.92 v -1.92 m -18.96,1.92 v -1.92 m -18.84,1.92 v -1.92 m -18.96,1.92 v -1.92 m -18.84,1.92 v -1.92 m -18.84,1.92 v -1.92 m -18.96,1.92 v -1.92 m -18.84,1.92 v -1.92 m -18.96,1.92 v -1.92"
         style="fill:none;stroke:#040606;stroke-width:0.1;stroke-linecap:butt;stroke-linejoin:round;stroke-miterlimit:10;stroke-dasharray:none;stroke-opacity:1"
         id="path32" /></g><g
       id="g34"><g
         id="g36"
         clip-path="url(#clipPath40)"><g
           id="g42"
           transform="translate(37.4584,331.544)"><path
             d="m 0,0 c 0.63,-0.156 1.26,-0.158 1.889,-0.467 0.63,-0.308 1.26,-0.778 1.89,-1.383 0.63,-0.605 1.259,-1.368 1.889,-2.248 0.63,-0.879 1.26,-1.907 1.89,-3.027 0.629,-1.12 1.259,-2.375 1.889,-3.693 0.63,-1.32 1.26,-2.753 1.889,-4.221 0.63,-1.469 1.26,-3.027 1.89,-4.59 0.63,-1.562 1.259,-3.187 1.889,-4.785 0.63,-1.598 1.26,-3.229 1.89,-4.802 0.629,-1.573 1.259,-3.149 1.889,-4.638 0.63,-1.49 1.26,-2.95 1.889,-4.3 0.63,-1.349 1.26,-2.64 1.89,-3.799 0.63,-1.159 1.259,-2.231 1.889,-3.157 0.63,-0.925 1.26,-1.738 1.89,-2.395 0.629,-0.657 1.259,-1.181 1.889,-1.544 0.63,-0.363 1.26,-0.578 1.889,-0.634 0.63,-0.056 1.26,0.045 1.89,0.298 0.63,0.254 1.259,0.668 1.889,1.221 0.63,0.553 1.26,1.265 1.89,2.097 0.629,0.832 1.259,1.815 1.889,2.895 0.63,1.079 1.26,2.296 1.889,3.583 0.63,1.286 1.26,2.691 1.89,4.136 0.63,1.446 1.259,2.986 1.889,4.536 0.63,1.55 1.26,3.167 1.89,4.763 0.629,1.596 1.259,3.23 1.889,4.813 0.63,1.582 1.26,3.171 1.889,4.68 0.63,1.509 1.26,2.994 1.89,4.373 0.63,1.379 1.259,2.704 1.889,3.901 0.63,1.197 1.26,2.312 1.89,3.282 0.629,0.97 1.259,1.833 1.889,2.54 0.63,0.707 1.26,1.286 1.889,1.703 0.63,0.417 1.26,0.689 1.89,0.801 0.63,0.112 1.259,0.068 1.889,-0.13 0.63,-0.198 1.26,-0.557 1.89,-1.057 0.629,-0.5 1.259,-1.16 1.889,-1.944 0.63,-0.784 1.26,-1.72 1.889,-2.758 0.63,-1.037 1.26,-2.215 1.89,-3.468 0.63,-1.252 1.259,-2.627 1.889,-4.048 0.63,-1.42 1.26,-2.94 1.89,-4.475 0.629,-1.536 1.259,-3.144 1.889,-4.736 0.63,-1.592 1.26,-3.228 1.889,-4.817 0.63,-1.589 1.26,-3.191 1.89,-4.717 0.63,-1.527 1.259,-3.035 1.889,-4.441 0.63,-1.407 1.26,-2.764 1.89,-3.998 0.629,-1.233 1.259,-2.389 1.889,-3.403 0.63,-1.015 1.26,-1.925 1.889,-2.682 0.63,-0.757 1.26,-1.389 1.89,-1.86 0.63,-0.471 1.259,-0.799 1.889,-0.967 0.63,-0.167 1.26,-0.18 1.89,-0.038 0.629,0.142 1.259,0.445 1.889,0.892 0.63,0.447 1.26,1.054 1.889,1.788 0.63,0.735 1.26,1.624 1.89,2.618 0.63,0.995 1.259,2.132 1.889,3.349 0.63,1.217 1.26,2.56 1.89,3.954 0.629,1.394 1.259,2.892 1.889,4.41 0.63,1.519 1.26,3.116 1.889,4.702 0.63,1.586 1.26,3.222 1.89,4.816 0.63,1.594 1.259,3.206 1.889,4.748 0.63,1.542 1.26,3.072 1.89,4.504 0.629,1.432 1.259,2.821 1.889,4.089 0.63,1.268 1.26,2.464 1.889,3.521 0.63,1.057 1.26,2.015 1.89,2.82 0.63,0.806 1.259,1.49 1.889,2.014 0.63,0.524 1.26,0.909 1.89,1.132 0.629,0.223 1.259,0.293 1.889,0.207 0.63,-0.087 1.26,-0.333 1.889,-0.726 0.63,-0.392 1.26,-0.946 1.89,-1.63 0.63,-0.685 1.259,-1.525 1.889,-2.475 0.63,-0.95 1.26,-2.045 1.89,-3.226 0.629,-1.18 1.259,-2.489 1.889,-3.855 0.63,-1.366 1.26,-2.84 1.889,-4.34 0.63,-1.5 1.26,-3.084 1.89,-4.662 0.63,-1.578 1.259,-3.211 1.889,-4.808 0.63,-1.598 1.26,-3.219 1.89,-4.775 0.629,-1.555 1.259,-3.104 1.889,-4.56 0.63,-1.456 1.26,-2.874 1.889,-4.176 0.63,-1.301 1.26,-2.535 1.89,-3.634 0.63,-1.098 1.259,-2.102 1.889,-2.955 0.63,-0.854 1.26,-1.589 1.89,-2.166 0.629,-0.577 1.259,-1.016 1.889,-1.295 0.63,-0.278 1.26,-0.406 1.889,-0.375 0.63,0.03 1.26,0.22 1.89,0.558 0.63,0.339 1.259,0.838 1.889,1.471 0.63,0.634 1.26,1.424 1.89,2.329 0.629,0.904 1.259,1.956 1.889,3.098 0.63,1.142 1.26,2.416 1.889,3.752 0.63,1.336 1.26,2.784 1.89,4.264 0.63,1.48 1.259,3.048 1.889,4.617 0.63,1.568 1.26,3.197 1.89,4.795 0.629,1.598 1.259,3.226 1.889,4.794 0.63,1.567 1.26,3.134 1.889,4.612 0.63,1.478 1.26,2.924 1.89,4.257 0.63,1.333 1.259,2.604 1.889,3.742 0.63,1.139 1.26,2.187 1.89,3.087 0.629,0.9 1.259,1.687 1.889,2.315 0.63,0.629 1.26,1.123 1.889,1.457 0.63,0.333 1.26,0.517 1.89,0.543 0.63,0.025 1.259,-0.107 1.889,-0.391 0.63,-0.283 1.26,-0.728 1.89,-1.309 0.629,-0.582 1.259,-1.322 1.889,-2.18 0.63,-0.857 1.26,-1.865 1.889,-2.967 0.63,-1.102 1.26,-2.339 1.89,-3.644 0.63,-1.304 1.259,-2.725 1.889,-4.183 0.63,-1.458 1.26,-3.008 1.89,-4.565 0.629,-1.557 1.259,-3.179 1.889,-4.777 0.63,-1.597 1.26,-3.229 1.889,-4.807 0.63,-1.578 1.26,-3.159 1.89,-4.658 0.63,-1.499 1.259,-2.97 1.889,-4.334 0.63,-1.363 1.26,-2.669 1.89,-3.846 0.629,-1.176 1.259,-2.268 1.889,-3.214 0.63,-0.946 1.26,-1.782 1.889,-2.462 0.63,-0.679 1.26,-1.228 1.89,-1.616 0.63,-0.388 1.259,-0.629 1.889,-0.71 0.63,-0.082 1.26,-0.006 1.89,0.222 0.629,0.228 1.259,0.617 1.889,1.146 0.63,0.529 1.26,1.218 1.889,2.028 0.63,0.81 1.26,1.772 1.89,2.832 0.63,1.061 1.259,2.26 1.889,3.532 0.63,1.271 1.26,2.662 1.89,4.097 0.629,1.434 1.259,2.965 1.889,4.509 0.63,1.543 1.26,3.157 1.889,4.751 0.63,1.595 1.26,3.23 1.89,4.815 0.63,1.586 1.259,3.181 1.889,4.698 0.63,1.518 1.26,3.013 1.89,4.405 0.629,1.392 1.259,2.731 1.889,3.945 0.63,1.214 1.26,2.348 1.889,3.338 0.63,0.991 1.26,1.875 1.89,2.605 0.63,0.73 1.259,1.333 1.889,1.774 0.63,0.442 1.26,0.74 1.89,0.877 0.629,0.138 1.259,0.119 1.889,-0.053 0.63,-0.173 1.26,-0.506 1.889,-0.982 0.63,-0.476 1.26,-1.112 1.89,-1.874 0.63,-0.761 1.259,-1.676 1.889,-2.694 0.63,-1.018 1.26,-2.178 1.89,-3.414 0.629,-1.237 1.259,-2.598 1.889,-4.006 0.63,-1.409 1.26,-2.919 1.889,-4.447 0.63,-1.528 1.26,-3.131 1.89,-4.721 0.63,-1.589 1.259,-3.225 1.889,-4.817 0.63,-1.592 1.26,-3.199 1.89,-4.733 0.629,-1.533 1.259,-3.051 1.889,-4.469 0.63,-1.419 1.26,-2.791 1.889,-4.04 0.63,-1.25 1.26,-2.424 1.89,-3.458 0.63,-1.033 1.259,-1.966 1.889,-2.745 0.63,-0.779 1.26,-1.434 1.89,-1.93 0.629,-0.495 1.259,-0.849 1.889,-1.042 0.63,-0.193 1.26,-0.232 1.889,-0.115 0.63,0.117 1.26,0.394 1.89,0.816 0.63,0.422 1.259,1.005 1.889,1.717 0.63,0.712 1.26,1.579 1.89,2.553 0.629,0.975 1.259,2.093 1.889,3.293 0.63,1.201 1.26,2.529 1.889,3.91 0.63,1.382 1.26,2.869 1.89,4.379 0.63,1.511 1.259,3.102 1.889,4.684 0.63,1.583 1.26,3.218 1.89,4.814 0.629,1.595 1.259,3.212 1.889,4.761 0.63,1.548 1.26,3.087 1.889,4.53 0.63,1.443 1.26,2.845 1.89,4.129 0.63,1.284 1.259,2.497 1.889,3.573 0.63,1.076 1.26,2.054 1.89,2.882 0.629,0.828 1.259,1.535 1.889,2.083 0.63,0.549 1.26,0.958 1.889,1.206 0.63,0.249 1.26,0.345 1.89,0.284 0.63,-0.061 1.259,-0.282 1.889,-0.65 0.63,-0.368 1.26,-0.897 1.89,-1.558 0.629,-0.661 1.259,-1.479 1.889,-2.408 0.63,-0.93 1.26,-2.006 1.889,-3.169 0.63,-1.162 1.26,-2.456 1.89,-3.808 0.63,-1.353 1.259,-2.815 1.889,-4.307 0.63,-1.491 1.26,-3.067 1.89,-4.642 0.629,-1.574 1.259,-3.205 1.889,-4.803 0.63,-1.598 1.26,-3.222 1.889,-4.784 0.63,-1.561 1.26,-3.118 1.89,-4.584 0.63,-1.467 1.259,-2.898 1.889,-4.214 0.63,-1.316 1.26,-2.567 1.89,-3.683 0.629,-1.117 1.259,-2.141 1.889,-3.016 0.63,-0.875 1.26,-1.634 1.889,-2.234 0.63,-0.601 1.26,-1.065 1.89,-1.369 0.63,-0.303 1.259,-0.456 1.889,-0.451 0.63,0.005 1.26,0.168 1.89,0.482 0.629,0.313 1.259,0.788 1.889,1.397 0.63,0.61 1.26,1.378 1.889,2.261 0.63,0.884 1.26,1.916 1.89,3.04 0.63,1.123 1.259,2.381 1.889,3.703 0.63,1.322 1.26,2.758 1.89,4.228 0.629,1.47 1.259,3.03 1.889,4.594 0.63,1.563 1.26,3.189 1.889,4.787 0.63,1.598 1.26,3.228 1.89,4.801 0.63,1.572 1.259,3.146 1.889,4.634 0.63,1.487 1.26,2.945 1.89,4.292 0.629,1.347 1.259,2.634 1.889,3.79 0.63,1.156 1.26,2.224 1.889,3.145 0.63,0.922 1.26,1.731 1.89,2.383 0.63,0.651 1.259,1.171 1.889,1.529 0.63,0.358 1.26,0.569 1.89,0.619 0.629,0.051 1.259,-0.055 1.889,-0.314 0.63,-0.258 1.26,-0.677 1.889,-1.235 0.63,-0.558 1.26,-1.275 1.89,-2.111 0.63,-0.836 1.259,-1.823 1.889,-2.906 0.63,-1.083 1.26,-2.304 1.89,-3.593 0.629,-1.29 1.259,-2.763 1.889,-4.145"
             style="fill:none;stroke:#293d9b;stroke-width:0.75;stroke-linecap:round;stroke-linejoin:round;stroke-miterlimit:10;stroke-dasharray:1, 2;stroke-dashoffset:0;stroke-opacity:1"
             id="path44" /></g><g
           id="g46"
           transform="translate(37.4584,281.8659)"><path
             d="m 0,0 c 0.56,0.931 1.329,1.395 1.889,3.139 0.63,1.961 1.26,5.199 1.89,8.624 0.63,3.425 1.259,7.904 1.889,11.928 0.63,4.024 1.26,8.611 1.89,12.215 0.629,3.605 1.259,7.14 1.889,9.415 0.618,2.233 1.271,3.87 1.889,4.232 0.499,0.292 1.391,-0.73 1.89,-2.02 0.63,-1.63 1.259,-4.544 1.889,-7.761 0.63,-3.217 1.26,-7.55 1.89,-11.54 0.629,-3.99 1.259,-8.646 1.889,-12.401 0.63,-3.754 1.26,-7.556 1.889,-10.125 0.63,-2.569 1.26,-4.555 1.89,-5.29 0.458,-0.535 1.431,-0.053 1.889,0.884 0.63,1.286 1.26,3.851 1.89,6.833 0.629,2.981 1.259,7.132 1.889,11.055 0.63,3.923 1.26,8.61 1.889,12.482 0.63,3.872 1.26,7.909 1.89,10.751 0.63,2.843 1.259,5.209 1.889,6.303 0.476,0.827 1.414,0.964 1.89,0.26 0.629,-0.931 1.259,-3.127 1.889,-5.848 0.63,-2.72 1.26,-6.655 1.889,-10.477 0.63,-3.823 1.26,-8.5 1.89,-12.458 0.63,-3.957 1.259,-8.196 1.889,-11.287 0.63,-3.092 1.26,-5.819 1.89,-7.263 0.47,-1.079 1.419,-1.827 1.889,-1.402 0.63,0.568 1.26,2.376 1.889,4.813 0.63,2.438 1.26,6.122 1.89,9.812 0.63,3.691 1.259,8.32 1.889,12.33 0.63,4.009 1.26,8.413 1.89,11.728 0.629,3.315 1.259,6.38 1.889,8.162 0.526,1.49 1.363,2.7 1.889,2.532 0.593,-0.189 1.297,-1.73 1.89,-3.739 0.63,-2.134 1.259,-5.537 1.889,-9.064 0.63,-3.527 1.26,-8.069 1.89,-12.097 0.629,-4.028 1.259,-8.561 1.889,-12.071 0.63,-3.511 1.26,-6.888 1.889,-8.993 0.588,-1.965 1.302,-3.484 1.89,-3.641 0.532,-0.141 1.357,1.103 1.889,2.633 0.63,1.812 1.26,4.906 1.89,8.24 0.629,3.334 1.259,7.751 1.889,11.764 0.63,4.013 1.26,8.636 1.889,12.312 0.63,3.677 1.26,7.337 1.89,9.748 0.63,2.412 1.259,4.183 1.889,4.719 0.474,0.403 1.415,-0.394 1.89,-1.505 0.629,-1.475 1.259,-4.233 1.889,-7.346 0.63,-3.113 1.26,-7.368 1.889,-11.332 0.63,-3.963 1.26,-8.638 1.89,-12.45 0.63,-3.812 1.259,-7.725 1.889,-10.421 0.63,-2.696 1.26,-4.858 1.89,-5.757 C 93.05,-0.044 94,0.15 94.47,0.99 c 0.63,1.125 1.26,3.525 1.889,6.391 0.63,2.866 1.26,6.923 1.89,10.804 0.63,3.881 1.259,8.569 1.889,12.484 0.63,3.915 1.26,8.048 1.89,11.007 0.629,2.959 1.259,5.492 1.889,6.746 0.459,0.914 1.431,1.339 1.889,0.781 0.63,-0.767 1.26,-2.789 1.89,-5.383 0.63,-2.595 1.259,-6.419 1.889,-10.186 0.63,-3.766 1.26,-8.426 1.89,-12.412 0.629,-3.985 1.259,-8.303 1.889,-11.5 0.63,-3.197 1.26,-6.081 1.889,-7.68 0.493,-1.253 1.397,-2.233 1.89,-1.918 0.623,0.398 1.266,2.051 1.889,4.329 0.63,2.302 1.26,5.862 1.89,9.482 0.629,3.619 1.259,8.214 1.889,12.236 0.63,4.022 1.26,8.489 1.889,11.897 0.63,3.408 1.26,6.618 1.89,8.549 0.554,1.701 1.334,3.069 1.889,3.039 0.566,-0.03 1.324,-1.451 1.89,-3.239 0.629,-1.989 1.259,-5.255 1.889,-8.698 0.63,-3.443 1.26,-7.933 1.889,-11.958 0.63,-4.025 1.26,-8.604 1.89,-12.194 0.63,-3.59 1.259,-7.099 1.889,-9.346 0.614,-2.188 1.276,-3.808 1.89,-4.135 0.503,-0.268 1.385,0.794 1.889,2.122 0.63,1.66 1.26,4.605 1.889,7.842 0.63,3.236 1.26,7.584 1.89,11.579 0.63,3.994 1.259,8.646 1.889,12.388 0.63,3.742 1.26,7.521 1.89,10.065 0.629,2.543 1.259,4.494 1.889,5.196 0.46,0.512 1.43,-0.025 1.889,-0.987 0.63,-1.317 1.26,-3.916 1.89,-6.919 0.63,-3.004 1.259,-7.173 1.889,-11.103 0.63,-3.93 1.26,-8.616 1.89,-12.479 0.629,-3.862 1.259,-7.88 1.889,-10.698 0.63,-2.819 1.26,-5.152 1.889,-6.214 0.484,-0.815 1.406,-0.897 1.89,-0.157 0.63,0.964 1.259,3.194 1.889,5.939 0.63,2.745 1.26,6.7 1.89,10.533 0.629,3.833 1.259,8.513 1.889,12.465 0.63,3.951 1.26,8.172 1.889,11.243 0.63,3.07 1.26,5.766 1.89,7.178 0.467,1.048 1.422,1.746 1.889,1.3 0.63,-0.602 1.26,-2.445 1.89,-4.909 0.629,-2.464 1.259,-6.172 1.889,-9.876 0.63,-3.703 1.26,-8.338 1.889,-12.345 0.63,-4.006 1.26,-8.396 1.89,-11.693 0.63,-3.296 1.259,-6.331 1.889,-8.083 0.521,-1.449 1.369,-2.625 1.89,-2.431 0.598,0.223 1.291,1.784 1.889,3.837 0.63,2.162 1.26,5.592 1.889,9.135 0.63,3.543 1.26,8.095 1.89,12.122 0.63,4.028 1.259,8.551 1.889,12.045 0.63,3.494 1.26,6.844 1.89,8.921 0.582,1.92 1.307,3.417 1.889,3.541 0.537,0.115 1.352,-1.161 1.889,-2.733 0.63,-1.842 1.26,-4.965 1.89,-8.317 0.63,-3.353 1.259,-7.783 1.889,-11.798 0.63,-4.016 1.26,-8.632 1.89,-12.295 0.629,-3.663 1.259,-7.299 1.889,-9.683 0.63,-2.385 1.26,-4.12 1.889,-4.623 0.479,-0.382 1.411,0.463 1.89,1.607 0.63,1.506 1.259,4.296 1.889,7.43 0.63,3.134 1.26,7.405 1.89,11.374 0.629,3.969 1.259,8.641 1.889,12.442 0.63,3.801 1.26,7.693 1.889,10.364 0.63,2.672 1.26,4.799 1.89,5.665 0.465,0.64 1.424,0.388 1.889,-0.467 0.63,-1.157 1.26,-3.59 1.89,-6.48 0.629,-2.889 1.259,-6.965 1.889,-10.855 0.63,-3.89 1.26,-8.578 1.889,-12.485 0.63,-3.907 1.26,-8.021 1.89,-10.958 0.63,-2.936 1.259,-5.436 1.889,-6.659 0.46,-0.892 1.43,-1.261 1.89,-0.678 0.629,0.8 1.259,2.856 1.889,5.476 0.63,2.62 1.26,6.467 1.889,10.245 0.63,3.778 1.26,8.443 1.89,12.423 0.63,3.98 1.259,8.283 1.889,11.46 0.63,3.176 1.26,6.029 1.89,7.598 0.488,1.216 1.401,2.153 1.889,1.816 0.628,-0.434 1.261,-2.103 1.889,-4.426 0.63,-2.329 1.26,-5.914 1.89,-9.548 0.63,-3.635 1.259,-8.237 1.889,-12.257 0.63,-4.02 1.26,-8.475 1.89,-11.865 0.629,-3.39 1.259,-6.572 1.889,-8.474 0.549,-1.658 1.34,-2.997 1.889,-2.939 0.572,0.061 1.318,1.508 1.89,3.339 0.63,2.018 1.259,5.312 1.889,8.772 0.63,3.46 1.26,7.961 1.89,11.987 0.629,4.027 1.259,8.597 1.889,12.171 0.63,3.575 1.26,7.059 1.889,9.278 0.609,2.144 1.281,3.745 1.89,4.037 0.509,0.245 1.38,-0.856 1.889,-2.223 0.63,-1.691 1.26,-4.665 1.89,-7.922 0.629,-3.256 1.259,-7.618 1.889,-11.617 0.63,-3.999 1.26,-8.645 1.889,-12.375 0.63,-3.73 1.26,-7.486 1.89,-10.003 0.63,-2.518 1.259,-4.434 1.889,-5.102 0.461,-0.49 1.428,0.101 1.89,1.089 0.629,1.349 1.259,3.979 1.889,7.005 0.63,3.026 1.26,7.212 1.889,11.15 0.63,3.937 1.26,8.621 1.89,12.474 0.63,3.854 1.259,7.851 1.889,10.645 0.63,2.795 1.26,5.095 1.89,6.124 0.493,0.807 1.396,0.834 1.889,0.054 0.63,-0.996 1.26,-3.26 1.889,-6.029 0.63,-2.77 1.26,-6.746 1.89,-10.589 0.63,-3.843 1.259,-8.525 1.889,-12.47 0.63,-3.944 1.26,-8.149 1.89,-11.197 0.629,-3.049 1.259,-5.713 1.889,-7.095 0.464,-1.017 1.426,-1.663 1.889,-1.196 0.63,0.634 1.26,2.513 1.89,5.003 0.63,2.491 1.259,6.222 1.889,9.939 0.63,3.716 1.26,8.357 1.89,12.36 0.629,4.003 1.259,8.379 1.889,11.656 0.63,3.277 1.26,6.283 1.889,8.005 0.515,1.408 1.375,2.548 1.89,2.329 0.603,-0.256 1.286,-1.837 1.889,-3.935 0.63,-2.19 1.26,-5.646 1.89,-9.205 0.629,-3.558 1.259,-8.119 1.889,-12.146 0.63,-4.028 1.26,-8.54 1.889,-12.017 0.63,-3.478 1.26,-6.8 1.89,-8.849 0.577,-1.877 1.312,-3.349 1.889,-3.442 0.543,-0.088 1.346,1.22 1.89,2.834 0.629,1.871 1.259,5.023 1.889,8.394 0.63,3.371 1.26,7.813 1.889,11.831 0.63,4.018 1.26,8.628 1.89,12.277 0.63,3.649 1.259,7.26 1.889,9.617 0.63,2.358 1.26,4.057 1.89,4.527 0.483,0.36 1.406,-0.53 1.889,-1.709 0.63,-1.537 1.26,-4.358 1.889,-7.513 0.63,-3.155 1.26,-7.441 1.89,-11.416 0.63,-3.975 1.259,-8.644 1.889,-12.433 0.63,-3.79 1.26,-7.66 1.89,-10.307 0.629,-2.646 1.259,-4.738 1.889,-5.572 0.462,-0.611 1.428,-0.303 1.889,0.57 0.63,1.189 1.26,3.655 1.89,6.568 0.63,2.912 1.259,7.007 1.889,10.905 0.63,3.899 1.26,8.587 1.89,12.486 0.629,3.899 1.259,7.995 1.889,10.908 0.63,2.913 1.26,5.381 1.889,6.572 0.462,0.873 1.428,1.184 1.89,0.574 0.63,-0.832 1.259,-2.923 1.889,-5.568 0.63,-2.646 1.26,-6.514 1.89,-10.304 0.629,-3.789 1.259,-8.457 1.889,-12.432 0.63,-3.976 1.26,-8.263 1.889,-11.419 0.63,-3.155 1.26,-5.978 1.89,-7.516 0.483,-1.18 1.406,-2.073 1.889,-1.714 0.63,0.468 1.26,2.166 1.89,4.522 0.629,2.357 1.259,6.41 1.889,9.615"
             style="fill:none;stroke:#ed1c24;stroke-width:0.5;stroke-linecap:round;stroke-linejoin:round;stroke-miterlimit:10;stroke-dasharray:5, 5;stroke-dashoffset:0;stroke-opacity:1"
             id="path48" /></g></g></g><g
       id="g50"><g
         id="g52"
         clip-path="url(#clipPath56)"><g
           id="g58"
           transform="translate(37.4584,306.6953)"><path
             d="m 0,0 c 0.583,0.826 1.307,1.145 1.889,2.676 0.63,1.654 1.26,4.427 1.89,7.251 0.63,2.824 1.259,6.545 1.889,9.694 0.63,3.149 1.26,6.713 1.89,9.202 0.629,2.489 1.259,4.773 1.889,5.731 0.47,0.714 1.419,0.835 1.889,0.015 0.63,-1.1 1.26,-3.418 1.89,-6.614 0.63,-3.195 1.259,-7.739 1.889,-12.558 0.63,-4.819 1.26,-10.789 1.89,-16.358 0.629,-5.569 1.259,-11.807 1.889,-17.056 0.63,-5.249 1.26,-10.516 1.889,-14.439 0.63,-3.923 1.26,-7.202 1.89,-9.097 0.466,-1.403 1.423,-2.542 1.889,-2.274 0.63,0.363 1.26,2.118 1.89,4.446 0.629,2.328 1.259,5.96 1.889,9.524 0.63,3.565 1.26,8.042 1.889,11.862 0.63,3.822 1.26,7.965 1.89,11.064 0.63,3.1 1.259,5.884 1.889,7.532 0.54,1.412 1.35,2.445 1.89,2.359 0.628,-0.1 1.261,-1.32 1.889,-2.96 0.63,-1.644 1.26,-4.366 1.889,-6.906 0.63,-2.54 1.26,-5.818 1.89,-8.335 0.63,-2.516 1.259,-5.219 1.889,-6.764 0.593,-1.454 1.297,-2.648 1.89,-2.507 0.547,0.131 1.341,1.54 1.889,3.411 0.63,2.152 1.26,5.552 1.889,9.502 0.63,3.95 1.26,9.125 1.89,14.199 0.63,5.074 1.259,11.034 1.889,16.247 0.63,5.212 1.26,10.736 1.89,15.026 0.629,4.29 1.259,8.222 1.889,10.714 0.569,2.249 1.321,4.043 1.889,4.238 0.52,0.178 1.37,-1.272 1.89,-2.942 0.63,-2.025 1.259,-5.476 1.889,-9.206 0.63,-3.729 1.26,-8.636 1.89,-13.169 0.629,-4.534 1.259,-9.732 1.889,-14.031 0.63,-4.299 1.26,-8.617 1.889,-11.763 0.63,-3.146 1.26,-5.693 1.89,-7.114 0.478,-1.079 1.411,-1.712 1.889,-1.414 0.63,0.394 1.26,1.971 1.89,3.773 0.629,1.802 1.259,4.616 1.889,7.041 0.63,2.425 1.26,5.417 1.889,7.509 0.63,2.091 1.26,4.153 1.89,5.04 0.553,0.78 1.336,1.047 1.889,0.282 0.63,-0.871 1.26,-2.795 1.89,-5.506 0.629,-2.71 1.259,-6.629 1.889,-10.76 0.63,-4.132 1.26,-9.303 1.889,-14.029 0.63,-4.725 1.26,-10.037 1.89,-14.325 0.63,-4.288 1.259,-8.535 1.889,-11.402 0.63,-2.867 1.26,-5.044 1.89,-5.802 0.421,-0.507 1.467,0.202 1.889,1.256 0.63,1.574 1.26,4.585 1.889,8.189 0.63,3.604 1.26,8.555 1.89,13.436 0.63,4.881 1.259,10.711 1.889,15.849 0.63,5.138 1.26,10.619 1.89,14.976 0.629,4.357 1.259,8.392 1.889,11.167 0.63,2.776 1.26,4.667 1.889,5.485 0.526,0.683 1.365,0.265 1.89,-0.572 0.63,-1.003 1.259,-3.219 1.889,-5.447 0.63,-2.228 1.26,-5.365 1.89,-7.922 0.629,-2.558 1.259,-5.492 1.889,-7.424 0.63,-1.932 1.26,-3.623 1.889,-4.167 0.484,-0.419 1.406,-0.028 1.89,0.901 0.63,1.208 1.259,3.52 1.889,6.349 0.63,2.829 1.26,6.778 1.89,10.625 0.629,3.848 1.259,8.518 1.889,12.459 0.63,3.941 1.26,8.167 1.889,11.186 0.63,3.019 1.26,5.679 1.89,6.928 0.444,0.882 1.445,1.262 1.889,0.568 0.63,-0.984 1.26,-3.298 1.89,-6.47 0.629,-3.173 1.259,-7.753 1.889,-12.566 0.63,-4.813 1.26,-10.784 1.889,-16.315 0.63,-5.531 1.26,-11.699 1.89,-16.872 0.63,-5.174 1.259,-10.321 1.889,-14.168 0.63,-3.848 1.26,-7.024 1.89,-8.916 0.487,-1.464 1.402,-2.598 1.889,-2.439 0.63,0.206 1.26,1.736 1.889,3.674 0.63,1.939 1.26,5.058 1.89,7.958 0.63,2.901 1.259,6.555 1.889,9.447 0.63,2.893 1.26,5.941 1.89,7.911 0.629,1.97 1.259,3.483 1.889,3.907 0.512,0.344 1.378,-0.316 1.889,-1.363 0.63,-1.289 1.26,-3.7 1.89,-6.37 0.63,-2.669 1.259,-6.343 1.889,-9.645 0.63,-3.301 1.26,-7.201 1.89,-10.164 0.629,-2.963 1.259,-5.932 1.889,-7.612 0.546,-1.456 1.344,-2.705 1.889,-2.468 0.564,0.245 1.326,1.918 1.89,4.108 0.63,2.446 1.259,6.247 1.889,10.565 0.63,4.318 1.26,9.907 1.89,15.344 0.629,5.436 1.259,11.751 1.889,17.275 0.63,5.524 1.26,11.318 1.889,15.871 0.63,4.553 1.26,8.698 1.89,11.446 0.601,2.626 1.288,4.533 1.889,5.045 0.491,0.418 1.399,-0.607 1.89,-1.827 0.629,-1.566 1.259,-4.492 1.889,-7.572 0.63,-3.079 1.26,-7.225 1.889,-10.903 0.63,-3.678 1.26,-7.889 1.89,-11.164 0.63,-3.274 1.259,-6.446 1.889,-8.484 0.619,-2.004 1.27,-3.403 1.89,-3.744 0.546,-0.301 1.342,0.528 1.889,1.662 0.63,1.307 1.26,3.733 1.889,6.177 0.63,2.445 1.26,5.765 1.89,8.493 0.63,2.727 1.259,5.834 1.889,7.874 0.63,2.04 1.26,3.843 1.89,4.365 0.446,0.37 1.443,-0.196 1.889,-1.233 0.63,-1.463 1.26,-4.124 1.889,-7.546 0.63,-3.422 1.26,-8.131 1.89,-12.987 0.63,-4.856 1.259,-10.764 1.889,-16.148 0.63,-5.384 1.26,-11.313 1.89,-16.158 0.629,-4.844 1.259,-9.577 1.889,-12.91 0.63,-3.334 1.26,-5.908 1.889,-7.091 0.445,-0.835 1.445,-0.799 1.89,-0.008 0.63,1.12 1.259,3.672 1.889,6.728 0.63,3.056 1.26,7.408 1.89,11.61 0.629,4.203 1.259,9.27 1.889,13.605 0.63,4.335 1.26,8.92 1.889,12.405 0.63,3.485 1.26,6.577 1.89,8.506 0.559,1.712 1.33,2.965 1.889,3.065 0.604,0.108 1.285,-0.991 1.89,-2.389 0.629,-1.458 1.259,-4.007 1.889,-6.358 0.63,-2.351 1.26,-5.43 1.889,-7.747 0.63,-2.317 1.26,-4.801 1.89,-6.154 0.575,-1.238 1.314,-2.236 1.889,-1.968 0.577,0.269 1.313,1.719 1.89,3.728 0.629,2.193 1.259,5.592 1.889,9.429 0.63,3.838 1.26,8.824 1.889,13.597 0.63,4.774 1.26,10.329 1.89,15.044 0.63,4.716 1.259,9.627 1.889,13.249 0.63,3.622 1.26,6.777 1.89,8.485 0.447,1.214 1.442,2.197 1.889,1.765 0.627,-0.606 1.262,-2.616 1.889,-5.414 0.63,-2.808 1.26,-7.034 1.89,-11.434 0.63,-4.401 1.259,-9.924 1.889,-14.968 0.63,-5.043 1.26,-10.664 1.89,-15.295 0.629,-4.631 1.259,-9.178 1.889,-12.492 0.63,-3.313 1.26,-5.929 1.889,-7.391 0.464,-1.075 1.427,-1.696 1.89,-1.38 0.63,0.431 1.259,2.092 1.889,3.964 0.63,1.872 1.26,4.771 1.89,7.268 0.629,2.497 1.259,5.554 1.889,7.714 0.63,2.16 1.26,4.276 1.889,5.247 0.538,0.831 1.352,1.209 1.89,0.584 0.63,-0.731 1.259,-2.5 1.889,-4.972 0.63,-2.473 1.26,-6.106 1.89,-9.863 0.629,-3.756 1.259,-8.477 1.889,-12.674 0.63,-4.196 1.26,-8.887 1.889,-12.505 0.63,-3.617 1.26,-7.101 1.89,-9.199 0.558,-1.859 1.331,-3.428 1.889,-3.391 0.537,0.036 1.353,1.663 1.89,3.645 0.629,2.326 1.259,6.078 1.889,10.308 0.63,4.231 1.26,9.751 1.889,15.075 0.63,5.324 1.26,11.502 1.89,16.871 0.63,5.369 1.259,10.963 1.889,15.344 0.63,4.382 1.26,8.32 1.89,10.947 0.603,2.516 1.286,4.288 1.889,4.817 0.517,0.453 1.372,-0.413 1.889,-1.505 0.63,-1.329 1.26,-3.907 1.89,-6.471 0.63,-2.564 1.259,-6.038 1.889,-8.911 0.63,-2.873 1.26,-6.104 1.89,-8.328 0.629,-2.225 1.259,-4.184 1.889,-5.019 0.549,-0.728 1.341,-0.761 1.889,0.009 0.63,0.883 1.26,2.861 1.89,5.293 0.63,2.432 1.259,5.948 1.889,9.301 0.63,3.353 1.26,7.47 1.89,10.816 0.629,3.346 1.259,6.91 1.889,9.261 0.63,2.351 1.26,4.284 1.889,4.846 0.435,0.387 1.455,-0.36 1.89,-1.479 0.63,-1.621 1.259,-4.563 1.889,-8.248 0.63,-3.684 1.26,-8.722 1.89,-13.86 0.629,-5.137 1.259,-11.336 1.889,-16.966 0.63,-5.631 1.26,-11.774 1.889,-16.818 0.63,-5.044 1.26,-9.928 1.89,-13.446 0.63,-3.518 1.259,-6.243 1.889,-7.662 0.421,-0.947 1.469,-1.352 1.89,-0.847 0.629,0.757 1.259,2.888 1.889,5.388 0.63,2.499 1.26,6.188 1.889,9.61 0.63,3.423 1.26,7.573 1.89,10.923 0.63,3.35 1.259,6.812 1.889,9.177 0.63,2.366 1.26,4.231 1.89,5.015 0.537,0.669 1.351,0.48 1.889,-0.313 0.63,-0.929 1.26,-2.985 1.889,-5.26 0.63,-2.275 1.26,-5.534 1.89,-8.39 0.63,-2.856 1.259,-6.272 1.889,-8.744 0.63,-2.472 1.26,-4.91 1.89,-6.089 0.502,-0.94 1.387,-1.565 1.889,-0.984 0.626,0.725 1.264,2.588 1.889,5.36 0.63,2.79 1.26,6.89 1.89,11.379 0.63,4.489 1.259,10.163 1.889,15.555 0.63,5.391 1.26,11.543 1.89,16.795 0.629,5.251 1.259,10.639 1.889,14.713 0.63,4.073 1.26,7.612 1.889,9.726 0.502,1.683 1.389,3.103 1.89,2.959 0.592,-0.171 1.297,-1.893 1.889,-4.046 0.63,-2.29 1.26,-5.953 1.89,-9.696 0.629,-3.743 1.259,-8.524 1.889,-12.762 0.63,-4.239 1.26,-8.951 1.889,-12.669 0.63,-3.717 1.26,-7.26 1.89,-9.637 0.63,-2.377 1.259,-4.008 1.889,-4.624 0.535,-0.522 1.354,0.025 1.89,0.934 0.629,1.069 1.259,3.653 1.889,5.48"
             style="fill:none;stroke:#231f20;stroke-width:1;stroke-linecap:round;stroke-linejoin:round;stroke-miterlimit:10;stroke-dasharray:none;stroke-opacity:1"
             id="path60" /></g></g></g><text
       transform="matrix(1,0,0,-1,15.5684,232.0088)"
       style="font-variant:normal;font-weight:normal;font-stretch:normal;font-size:9px;font-family:'Times New Roman';-inkscape-font-specification:TimesNewRomanPSMT;writing-mode:lr-tb;fill:#040606;fill-opacity:1;fill-rule:nonzero;stroke:none"
       id="text82"><tspan
         x="0 2.997 7.4429998 9.7200003"
         y="0"
         id="tspan62">-0.8</tspan><tspan
         x="0 2.997 7.4429998 9.7200003"
         y="-17.973"
         id="tspan64">-0.6</tspan><tspan
         x="0 2.997 7.4429998 9.7200003"
         y="-35.945999"
         id="tspan66">-0.4</tspan><tspan
         x="0 2.997 7.4429998 9.7200003"
         y="-53.918999"
         id="tspan68">-0.2</tspan><tspan
         x="2.9879999 7.5419998 9.7019997"
         y="-71.891998"
         id="tspan70">0.0</tspan><tspan
         x="2.9879999 7.5419998 9.7019997"
         y="-89.864998"
         id="tspan72">0.2</tspan><tspan
         x="2.9879999 7.5419998 9.7019997"
         y="-107.838"
         id="tspan74">0.4</tspan><tspan
         x="2.9879999 7.5419998 9.7019997"
         y="-125.811"
         id="tspan76">0.6</tspan><tspan
         x="2.9879999 7.5419998 9.7019997"
         y="-143.784"
         id="tspan78">0.8</tspan><tspan
         x="16.271999 20.826 22.986 110.754 115.308 117.468 202.98599 207.53999 211.98599 214.263 297.45901 302.013 306.45901 308.73599 391.94101 396.495 400.94101 403.21799"
         y="10.539"
         id="tspan80">0.05.010.015.020.0</tspan></text><g
       id="g84"><g
         id="g86"
         clip-path="url(#clipPath90)"><path
           d="m 9.381,202.644 h 425.16 V 4.164 H 9.381 Z"
           style="fill:#ffffff;fill-opacity:1;fill-rule:evenodd;stroke:none"
           id="path92" /></g></g><g
       id="g94"><g
         id="g96"
         clip-path="url(#clipPath100)"><g
           id="g102"
           transform="translate(37.7606,191.5441)"><path
             d="M 0,0 H 377.88 M 0,-17.88 H 377.88 M 0,-35.88 H 377.88 M 0,-53.88 H 377.88 M 0,-71.76 H 377.88 M 0,-89.76 H 377.88 M 0,-107.76 H 377.88 M 0,-125.76 h 377.88"
             style="fill:none;stroke:#040606;stroke-width:0.1;stroke-linecap:butt;stroke-linejoin:round;stroke-miterlimit:10;stroke-dasharray:none;stroke-opacity:1"
             id="path104" /></g><g
           id="g106"
           transform="translate(415.6406,191.5441)"><path
             d="M 0,0 V -143.64 M -94.44,0 V -143.64 M -188.88,0 V -143.64 M -283.44,0 v -143.64"
             style="fill:none;stroke:#040606;stroke-width:0.1;stroke-linecap:butt;stroke-linejoin:round;stroke-miterlimit:10;stroke-dasharray:none;stroke-opacity:1"
             id="path108" /></g><g
           id="g110"
           transform="translate(37.7606,47.904)"><path
             d="M 0,0 V 143.64"
             style="fill:none;stroke:#040606;stroke-width:0.1;stroke-linecap:butt;stroke-linejoin:round;stroke-miterlimit:10;stroke-dasharray:none;stroke-opacity:1"
             id="path112" /></g><g
           id="g114"
           transform="translate(37.7606,47.904)"><path
             d="M 0,0 H 377.88"
             style="fill:none;stroke:#040606;stroke-width:0.25;stroke-linecap:butt;stroke-linejoin:round;stroke-miterlimit:10;stroke-dasharray:none;stroke-opacity:1"
             id="path116" /></g><g
           id="g118"
           transform="translate(415.6406,50.5441)"><path
             d="M 0,0 V -2.64 M -94.44,0 V -2.64 M -188.88,0 V -2.64 M -283.44,0 V -2.64 M -377.88,0 V -2.64 M 0,-0.72 v -1.92 m -18.84,1.92 v -1.92 m -18.84,1.92 v -1.92 m -18.96,1.92 v -1.92 m -18.84,1.92 v -1.92 m -18.96,1.92 v -1.92 m -18.84,1.92 v -1.92 m -18.96,1.92 v -1.92 m -18.84,1.92 v -1.92 m -18.96,1.92 v -1.92 m -18.84,1.92 v -1.92 m -18.96,1.92 v -1.92 m -18.84,1.92 v -1.92 m -18.96,1.92 v -1.92 m -18.84,1.92 v -1.92 m -18.96,1.92 v -1.92 m -18.84,1.92 v -1.92 m -18.84,1.92 v -1.92 m -18.96,1.92 v -1.92 m -18.84,1.92 v -1.92 m -18.96,1.92 v -1.92"
             style="fill:none;stroke:#040606;stroke-width:0.1;stroke-linecap:butt;stroke-linejoin:round;stroke-miterlimit:10;stroke-dasharray:none;stroke-opacity:1"
             id="path120" /></g></g></g><g
       id="g122"><g
         id="g124"
         clip-path="url(#clipPath128)"><g
           id="g130"
           transform="translate(37.8206,135.0525)"><path
             d="m 0,0 c 0.63,-0.096 1.26,-0.098 1.889,-0.288 0.63,-0.19 1.26,-0.48 1.89,-0.853 0.63,-0.374 1.259,-0.844 1.889,-1.387 0.63,-0.542 1.26,-1.176 1.89,-1.867 0.629,-0.691 1.259,-1.465 1.889,-2.279 0.63,-0.813 1.26,-1.697 1.889,-2.603 0.63,-0.906 1.26,-1.867 1.89,-2.831 0.63,-0.964 1.259,-1.967 1.889,-2.952 0.63,-0.986 1.26,-1.992 1.89,-2.963 0.629,-0.97 1.259,-1.942 1.889,-2.86 0.63,-0.919 1.26,-1.82 1.889,-2.653 0.63,-0.832 1.26,-1.628 1.89,-2.343 0.63,-0.716 1.259,-1.377 1.889,-1.948 0.63,-0.571 1.26,-1.072 1.89,-1.477 0.629,-0.405 1.259,-0.729 1.889,-0.953 0.63,-0.224 1.26,-0.357 1.889,-0.391 0.63,-0.034 1.26,0.028 1.89,0.184 0.63,0.157 1.259,0.412 1.889,0.753 0.63,0.341 1.26,0.781 1.89,1.294 0.629,0.513 1.259,1.119 1.889,1.785 0.63,0.666 1.26,1.417 1.889,2.21 0.63,0.794 1.26,1.661 1.89,2.552 0.63,0.892 1.259,1.842 1.889,2.798 0.63,0.956 1.26,1.954 1.89,2.939 0.629,0.984 1.259,1.992 1.889,2.968 0.63,0.976 1.26,1.957 1.889,2.887 0.63,0.931 1.26,1.847 1.89,2.698 0.63,0.851 1.259,1.668 1.889,2.406 0.63,0.739 1.26,1.426 1.89,2.025 0.629,0.599 1.259,1.131 1.889,1.567 0.63,0.436 1.26,0.793 1.889,1.05 0.63,0.258 1.26,0.425 1.89,0.494 0.63,0.069 1.259,0.042 1.889,-0.08 0.63,-0.122 1.26,-0.343 1.89,-0.652 0.629,-0.308 1.259,-0.716 1.889,-1.199 0.63,-0.484 1.26,-1.061 1.889,-1.701 0.63,-0.64 1.26,-1.367 1.89,-2.14 0.63,-0.772 1.259,-1.62 1.889,-2.497 0.63,-0.876 1.26,-1.813 1.89,-2.761 0.629,-0.947 1.259,-1.938 1.889,-2.921 0.63,-0.982 1.26,-1.991 1.889,-2.971 0.63,-0.98 1.26,-1.969 1.89,-2.91 0.63,-0.942 1.259,-1.872 1.889,-2.74 0.63,-0.867 1.26,-1.705 1.89,-2.465 0.629,-0.761 1.259,-1.474 1.889,-2.1 0.63,-0.626 1.26,-1.187 1.889,-1.654 0.63,-0.467 1.26,-0.857 1.89,-1.147 0.63,-0.291 1.259,-0.494 1.889,-0.597 0.63,-0.103 1.26,-0.111 1.89,-0.024 0.629,0.088 1.259,0.275 1.889,0.55 0.63,0.276 1.26,0.651 1.889,1.104 0.63,0.453 1.26,1.001 1.89,1.615 0.63,0.613 1.259,1.315 1.889,2.065 0.63,0.751 1.26,1.58 1.89,2.439 0.629,0.86 1.259,1.784 1.889,2.721 0.63,0.937 1.26,1.922 1.889,2.9 0.63,0.979 1.26,1.988 1.89,2.971 0.63,0.983 1.259,1.978 1.889,2.929 0.63,0.952 1.26,1.895 1.89,2.778 0.629,0.884 1.259,1.74 1.889,2.523 0.63,0.782 1.26,1.52 1.889,2.172 0.63,0.652 1.26,1.243 1.89,1.74 0.63,0.497 1.259,0.918 1.889,1.242 0.63,0.323 1.26,0.56 1.89,0.698 0.629,0.138 1.259,0.181 1.889,0.128 0.63,-0.054 1.26,-0.206 1.889,-0.448 0.63,-0.242 1.26,-0.584 1.89,-1.006 0.63,-0.422 1.259,-0.94 1.889,-1.526 0.63,-0.587 1.26,-1.262 1.89,-1.99 0.629,-0.728 1.259,-1.536 1.889,-2.378 0.63,-0.843 1.26,-1.752 1.889,-2.678 0.63,-0.925 1.26,-1.902 1.89,-2.875 0.63,-0.974 1.259,-1.981 1.889,-2.967 0.63,-0.985 1.26,-1.985 1.89,-2.945 0.629,-0.959 1.259,-1.915 1.889,-2.813 0.63,-0.898 1.26,-1.773 1.889,-2.576 0.63,-0.803 1.26,-1.564 1.89,-2.241 0.63,-0.678 1.259,-1.297 1.889,-1.823 0.63,-0.527 1.26,-0.981 1.89,-1.336 0.629,-0.356 1.259,-0.627 1.889,-0.799 0.63,-0.172 1.26,-0.25 1.889,-0.232 0.63,0.019 1.26,0.136 1.89,0.345 0.63,0.208 1.259,0.517 1.889,0.907 0.63,0.391 1.26,0.879 1.89,1.437 0.629,0.558 1.259,1.207 1.889,1.911 0.63,0.704 1.26,1.49 1.889,2.314 0.63,0.824 1.26,1.718 1.89,2.631 0.63,0.913 1.259,1.88 1.889,2.847 0.63,0.968 1.26,1.973 1.89,2.958 0.629,0.986 1.259,1.991 1.889,2.958 0.63,0.967 1.26,1.933 1.889,2.845 0.63,0.912 1.26,1.803 1.89,2.626 0.63,0.822 1.259,1.606 1.889,2.308 0.63,0.702 1.26,1.349 1.89,1.904 0.629,0.556 1.259,1.041 1.889,1.428 0.63,0.388 1.26,0.693 1.889,0.899 0.63,0.206 1.26,0.319 1.89,0.335 0.63,0.016 1.259,-0.066 1.889,-0.241 0.63,-0.175 1.26,-0.449 1.89,-0.808 0.629,-0.358 1.259,-0.815 1.889,-1.344 0.63,-0.529 1.26,-1.151 1.889,-1.83 0.63,-0.68 1.26,-1.443 1.89,-2.248 0.63,-0.805 1.259,-1.681 1.889,-2.581 0.63,-0.899 1.26,-1.856 1.89,-2.816 0.629,-0.96 1.259,-1.961 1.889,-2.946 0.63,-0.986 1.26,-1.993 1.889,-2.966 0.63,-0.973 1.26,-1.949 1.89,-2.873 0.63,-0.925 1.259,-1.832 1.889,-2.673 0.63,-0.841 1.26,-1.647 1.89,-2.373 0.629,-0.726 1.259,-1.399 1.889,-1.983 0.63,-0.583 1.26,-1.099 1.889,-1.518 0.63,-0.419 1.26,-0.758 1.89,-0.997 0.63,-0.239 1.259,-0.388 1.889,-0.439 0.63,-0.05 1.26,-0.003 1.89,0.138 0.629,0.14 1.259,0.38 1.889,0.707 0.63,0.326 1.26,0.751 1.889,1.25 0.63,0.5 1.26,1.094 1.89,1.748 0.63,0.654 1.259,1.394 1.889,2.178 0.63,0.784 1.26,1.643 1.89,2.528 0.629,0.884 1.259,1.829 1.889,2.781 0.63,0.952 1.26,1.947 1.889,2.931 0.63,0.983 1.26,1.992 1.89,2.97 0.63,0.978 1.259,1.962 1.889,2.898 0.63,0.936 1.26,1.859 1.89,2.717 0.629,0.859 1.259,1.685 1.889,2.434 0.63,0.749 1.26,1.448 1.889,2.059 0.63,0.611 1.26,1.157 1.89,1.607 0.63,0.45 1.259,0.822 1.889,1.094 0.63,0.273 1.26,0.457 1.89,0.541 0.629,0.085 1.259,0.074 1.889,-0.033 0.63,-0.106 1.26,-0.312 1.889,-0.605 0.63,-0.294 1.26,-0.686 1.89,-1.156 0.63,-0.47 1.259,-1.034 1.889,-1.662 0.63,-0.628 1.26,-1.343 1.89,-2.106 0.629,-0.763 1.259,-1.602 1.889,-2.471 0.63,-0.869 1.26,-1.801 1.889,-2.743 0.63,-0.943 1.26,-1.932 1.89,-2.913 0.63,-0.98 1.259,-1.989 1.889,-2.971 0.63,-0.982 1.26,-1.973 1.89,-2.919 0.629,-0.947 1.259,-1.883 1.889,-2.758 0.63,-0.875 1.26,-1.721 1.889,-2.492 0.63,-0.77 1.26,-1.495 1.89,-2.133 0.63,-0.637 1.259,-1.212 1.889,-1.693 0.63,-0.481 1.26,-0.885 1.89,-1.191 0.629,-0.305 1.259,-0.524 1.889,-0.642 0.63,-0.119 1.26,-0.143 1.889,-0.071 0.63,0.072 1.26,0.243 1.89,0.503 0.63,0.261 1.259,0.62 1.889,1.059 0.63,0.439 1.26,0.974 1.89,1.575 0.629,0.601 1.259,1.291 1.889,2.032 0.63,0.74 1.26,1.559 1.889,2.411 0.63,0.853 1.26,1.77 1.89,2.702 0.63,0.932 1.259,1.913 1.889,2.889 0.63,0.977 1.26,1.985 1.89,2.969 0.629,0.985 1.259,1.982 1.889,2.937 0.63,0.956 1.26,1.905 1.889,2.795 0.63,0.89 1.26,1.755 1.89,2.547 0.63,0.792 1.259,1.54 1.889,2.204 0.63,0.664 1.26,1.267 1.89,1.778 0.629,0.51 1.259,0.947 1.889,1.285 0.63,0.338 1.26,0.591 1.889,0.744 0.63,0.153 1.26,0.212 1.89,0.175 0.63,-0.038 1.259,-0.174 1.889,-0.401 0.63,-0.227 1.26,-0.553 1.89,-0.961 0.629,-0.408 1.259,-0.912 1.889,-1.486 0.63,-0.573 1.26,-1.237 1.889,-1.954 0.63,-0.718 1.26,-1.515 1.89,-2.35 0.63,-0.834 1.259,-1.736 1.889,-2.656 0.63,-0.92 1.26,-1.893 1.89,-2.864 0.629,-0.971 1.259,-1.977 1.889,-2.963 0.63,-0.985 1.26,-1.987 1.889,-2.951 0.63,-0.963 1.26,-1.923 1.89,-2.828 0.63,-0.904 1.259,-1.787 1.889,-2.599 0.63,-0.812 1.26,-1.583 1.89,-2.272 0.629,-0.689 1.259,-1.321 1.889,-1.86 0.63,-0.54 1.26,-1.008 1.889,-1.378 0.63,-0.371 1.26,-0.658 1.89,-0.845 0.63,-0.187 1.259,-0.281 1.889,-0.278 0.63,0.003 1.26,0.104 1.89,0.297 0.629,0.193 1.259,0.486 1.889,0.862 0.63,0.376 1.26,0.85 1.889,1.395 0.63,0.545 1.26,1.181 1.89,1.875 0.63,0.693 1.259,1.469 1.889,2.284 0.63,0.816 1.26,1.701 1.89,2.608 0.629,0.907 1.259,1.87 1.889,2.834 0.63,0.965 1.26,1.968 1.889,2.953 0.63,0.986 1.26,1.992 1.89,2.962 0.63,0.97 1.259,1.94 1.889,2.858 0.63,0.918 1.26,1.817 1.89,2.648 0.629,0.831 1.259,1.625 1.889,2.338 0.63,0.713 1.26,1.372 1.889,1.94 0.63,0.569 1.26,1.067 1.89,1.47 0.63,0.402 1.259,0.722 1.889,0.943 0.63,0.221 1.26,0.351 1.89,0.382 0.629,0.032 1.259,-0.034 1.889,-0.193 0.63,-0.16 1.26,-0.419 1.889,-0.763 0.63,-0.344 1.26,-0.786 1.89,-1.302 0.63,-0.515 1.259,-1.124 1.889,-1.793 0.63,-0.668 1.26,-1.42 1.89,-2.216 0.629,-0.796 1.259,-1.704 1.889,-2.557"
             style="fill:none;stroke:#293d9b;stroke-width:1;stroke-linecap:round;stroke-linejoin:round;stroke-miterlimit:10;stroke-dasharray:1, 3;stroke-dashoffset:0;stroke-opacity:1"
             id="path132" /></g><g
           id="g134"
           transform="translate(37.8206,159.9181)"><path
             d="M 0,0 C 0.286,-0.77 0.663,-1.418 1.031,-2.274"
             style="fill:none;stroke:#ee252c;stroke-width:0.5;stroke-linecap:round;stroke-linejoin:round;stroke-miterlimit:4;stroke-dasharray:none;stroke-opacity:1"
             id="path136" /></g><g
           id="g138"
           transform="translate(40.0683,152.8194)"><path
             d="m 0,0 c 0.51,-3.156 1.021,-7.451 1.531,-11.944 0.63,-5.545 1.26,-12.795 1.89,-19.309 0.629,-6.514 1.259,-13.94 1.889,-19.775 0.63,-5.836 1.259,-11.558 1.889,-15.24 0.599,-3.503 1.29,-6.284 1.89,-6.852 0.438,-0.415 1.451,1.433 1.889,3.27 0.63,2.639 1.26,7.357 1.89,12.564 0.629,5.208 1.259,12.222 1.889,18.682 0.63,6.459 1.259,13.997 1.889,20.074 0.63,6.078 1.26,12.233 1.89,16.392 0.629,4.159 1.259,7.374 1.889,8.563 0.343,0.648 1.546,-0.296 1.89,-1.43 0.629,-2.082 1.259,-6.236 1.889,-11.062 0.63,-4.827 1.259,-11.546 1.889,-17.897 0.63,-6.35 1.26,-13.937 1.89,-20.206 0.63,-6.268 1.259,-12.803 1.889,-17.405 0.63,-4.601 1.26,-8.432 1.89,-10.203 0.324,-0.912 1.564,-1.198 1.889,-0.422 0.63,1.508 1.259,5.063 1.889,9.468 0.63,4.404 1.26,10.773 1.89,16.961 0.63,6.188 1.259,13.761 1.889,20.167 0.63,6.407 1.26,13.268 1.89,18.273 0.629,5.005 1.259,9.42 1.889,11.758 0.384,1.426 1.505,2.831 1.889,2.269 0.63,-0.92 1.26,-3.846 1.89,-7.792 0.63,-3.947 1.259,-9.911 1.889,-15.885 0.63,-5.974 1.26,-13.468 1.89,-19.959 0.629,-6.491 1.259,-13.62 1.889,-18.987 0.63,-5.366 1.259,-10.328 1.889,-13.213 0.482,-2.205 1.408,-4.347 1.89,-4.098 0.568,0.294 1.32,2.933 1.889,6.052 0.63,3.455 1.26,8.964 1.89,14.674 0.629,5.709 1.259,13.062 1.889,19.583 0.63,6.521 1.259,13.859 1.889,19.542 0.63,5.683 1.26,11.149 1.89,14.558 0.562,3.043 1.327,5.65 1.889,5.893 0.489,0.211 1.4,-1.983 1.889,-4.262 0.63,-2.934 1.26,-7.942 1.89,-13.34 0.63,-5.397 1.259,-12.547 1.889,-19.043 0.63,-6.496 1.26,-13.98 1.89,-19.932 0.629,-5.952 1.259,-11.877 1.889,-15.78 0.627,-3.885 1.263,-6.776 1.889,-7.639 0.394,-0.541 1.497,0.945 1.89,2.436 0.63,2.388 1.259,6.854 1.889,11.893 0.63,5.039 1.26,11.927 1.89,18.344 0.629,6.416 1.259,13.984 1.889,20.155 0.63,6.171 1.26,12.505 1.889,16.87 0.63,4.365 1.26,7.864 1.89,9.319 0.323,0.747 1.566,0.347 1.889,-0.588 0.63,-1.823 1.26,-5.708 1.89,-10.348 0.629,-4.639 1.259,-11.206 1.889,-17.489 0.63,-6.283 1.26,-13.871 1.889,-20.209 0.63,-6.338 1.26,-13.029 1.89,-17.819 0.63,-4.79 1.259,-8.891 1.889,-10.922 0.337,-1.085 1.553,-1.927 1.89,-1.263 0.629,1.242 1.259,4.514 1.889,8.714 0.63,4.201 1.26,10.392 1.889,16.489 0.63,6.097 1.26,13.642 1.89,20.093 0.63,6.452 1.259,13.442 1.889,18.617 0.63,5.175 1.26,9.844 1.89,12.433 0.429,1.766 1.46,3.549 1.889,3.105 0.605,-0.625 1.285,-3.43 1.889,-7.008 0.63,-3.726 1.26,-9.49 1.89,-15.35 0.63,-5.859 1.259,-13.297 1.889,-19.808 0.63,-6.512 1.26,-13.743 1.89,-19.26 0.629,-5.516 1.259,-10.713 1.889,-13.839 0.52,-2.584 1.369,-4.965 1.889,-4.92 0.535,0.046 1.355,2.508 1.89,5.243 0.63,3.221 1.259,8.508 1.889,14.081 0.63,5.574 1.26,12.842 1.89,19.358 0.629,6.517 1.259,13.928 1.889,19.74 0.63,5.812 1.26,11.493 1.889,15.13 0.594,3.427 1.297,6.182 1.89,6.694 0.447,0.386 1.442,-1.526 1.889,-3.435 0.63,-2.688 1.26,-7.454 1.89,-12.694 0.629,-5.24 1.259,-12.278 1.889,-18.745 0.63,-6.466 1.26,-13.996 1.89,-20.054 0.629,-6.058 1.259,-12.176 1.889,-16.293 0.63,-4.118 1.259,-7.276 1.889,-8.412 0.351,-0.632 1.539,0.41 1.89,1.597 0.629,2.133 1.259,6.339 1.889,11.201 0.63,4.863 1.26,11.611 1.89,17.974 0.629,6.362 1.259,13.947 1.889,20.201 0.63,6.253 1.259,12.756 1.889,17.319 0.63,4.563 1.26,8.34 1.89,10.059 0.328,0.896 1.561,1.067 1.889,0.255 0.63,-1.56 1.26,-5.17 1.89,-9.615 0.629,-4.444 1.259,-10.847 1.889,-17.052 0.63,-6.205 1.259,-13.781 1.889,-20.177 0.63,-6.397 1.26,-13.231 1.89,-18.201 0.63,-4.97 1.259,-9.334 1.889,-11.621 0.375,-1.364 1.514,-2.684 1.89,-2.104 0.629,0.974 1.259,3.958 1.889,7.947 0.63,3.989 1.259,9.991 1.889,15.987 0.63,5.995 1.26,13.499 1.89,19.984 0.629,6.486 1.259,13.594 1.889,18.929 0.63,5.336 1.26,10.25 1.89,13.087 0.473,2.131 1.416,4.22 1.889,3.935 0.575,-0.347 1.314,-3.017 1.889,-6.212 0.63,-3.5 1.26,-9.053 1.89,-14.788 0.629,-5.735 1.259,-13.104 1.889,-19.624 0.63,-6.521 1.26,-13.842 1.889,-19.498 0.63,-5.657 1.26,-11.08 1.89,-14.442 0.555,-2.967 1.334,-5.541 1.889,-5.733 0.497,-0.172 1.392,2.071 1.89,4.425 0.629,2.982 1.259,8.037 1.889,13.464 0.63,5.428 1.26,12.599 1.889,19.099 0.63,6.501 1.26,13.974 1.89,19.904 0.63,5.93 1.259,11.816 1.889,15.675 0.622,3.809 1.268,6.681 1.89,7.483 0.402,0.52 1.487,-1.044 1.889,-2.601 0.63,-2.438 1.26,-6.954 1.889,-12.028 0.63,-5.073 1.26,-11.987 1.89,-18.413 0.63,-6.425 1.259,-13.988 1.889,-20.142 0.63,-6.153 1.26,-12.453 1.89,-16.777 0.629,-4.325 1.259,-7.768 1.889,-9.171 0.324,-0.722 1.565,-0.209 1.889,0.755 0.63,1.875 1.26,5.814 1.89,10.491 0.63,4.677 1.259,11.275 1.889,17.573 0.63,6.297 1.26,13.886 1.89,20.211 0.629,6.325 1.259,12.986 1.889,17.739 0.63,4.753 1.26,8.801 1.889,10.781 0.332,1.041 1.559,1.778 1.89,1.097 0.63,-1.295 1.259,-4.624 1.889,-8.865 0.63,-4.242 1.26,-10.469 1.89,-16.585 0.629,-6.116 1.259,-13.667 1.889,-20.111 0.63,-6.443 1.26,-13.409 1.889,-18.551 0.63,-5.142 1.26,-9.761 1.89,-12.301 0.42,-1.696 1.469,-3.41 1.889,-2.939 0.611,0.682 1.279,3.51 1.89,7.164 0.629,3.771 1.259,9.575 1.889,15.458 0.63,5.883 1.26,13.333 1.89,19.841 0.629,6.508 1.259,13.721 1.889,19.208 0.63,5.488 1.259,10.638 1.889,13.717 0.513,2.508 1.377,4.846 1.89,4.758 0.541,-0.092 1.347,-2.593 1.889,-5.404 0.63,-3.268 1.26,-8.6 1.89,-14.201 0.629,-5.601 1.259,-12.887 1.889,-19.405 0.63,-6.518 1.259,-13.917 1.889,-19.704 0.63,-5.787 1.26,-11.426 1.89,-15.018 0.587,-3.351 1.302,-6.08 1.889,-6.536 0.456,-0.354 1.434,1.618 1.89,3.599 0.629,2.737 1.259,7.552 1.889,12.824 0.63,5.272 1.259,12.333 1.889,18.807 0.63,6.473 1.26,13.995 1.89,20.032 0.629,6.038 1.259,12.119 1.889,16.194 0.63,4.076 1.26,7.177 1.89,8.26 0.358,0.616 1.531,-0.522 1.889,-1.763 0.63,-2.184 1.259,-6.442 1.889,-11.341 0.63,-4.898 1.26,-11.675 1.89,-18.049 0.63,-6.374 1.259,-13.957 1.889,-20.195 0.63,-6.238 1.26,-12.708 1.89,-17.233 0.629,-4.524 1.259,-8.247 1.889,-9.913 0.334,-0.885 1.555,-0.944 1.889,-0.088 0.63,1.613 1.26,5.278 1.89,9.761 0.629,4.484 1.259,10.92 1.889,17.141 0.63,6.222 1.26,13.801 1.89,20.187 0.629,6.386 1.259,13.192 1.889,18.127 0.63,4.936 1.259,9.248 1.889,11.485 0.367,1.302 1.523,2.535 1.89,1.937 0.63,-1.027 1.259,-4.068 1.889,-8.1 0.63,-4.031 1.26,-10.072 1.89,-16.089 0.629,-6.016 1.259,-13.529 1.889,-20.009 0.63,-6.48 1.259,-13.565 1.889,-18.869 0.63,-5.305 1.26,-10.171 1.89,-12.959 0.464,-2.057 1.424,-4.09 1.889,-3.771 0.581,0.4 1.308,3.1 1.889,6.371 0.63,3.545 1.26,9.14 1.89,14.901 0.63,5.761 1.259,13.144 1.889,19.664 0.63,6.519 1.26,13.824 1.89,19.453 0.629,5.63 1.259,11.008 1.889,14.324 0.549,2.891 1.34,5.43 1.889,5.573 0.505,0.132 1.385,-2.159 1.89,-4.588 0.63,-3.029 1.259,-8.132 1.889,-13.589 0.63,-5.456 1.26,-12.648 1.89,-19.152 0.629,-6.505 1.259,-13.967 1.889,-19.874 0.63,-5.908 1.26,-11.754 1.889,-15.57 0.617,-3.733 1.274,-6.584 1.89,-7.328 0.411,-0.496 1.478,1.143 1.889,2.767 0.63,2.488 1.26,7.055 1.89,12.162 0.629,5.107 1.259,12.047 1.889,18.481 0.63,6.435 1.26,13.993 1.89,20.128 0.629,6.135 1.259,12.4 1.889,16.684 0.63,4.284 1.259,7.671 1.889,9.021 0.327,0.701 1.563,0.077 1.89,-0.922 0.629,-1.926 1.259,-5.918 1.889,-10.633 0.63,-4.715 1.26,-11.344 1.89,-17.655 0.629,-6.311 1.259,-13.9 1.889,-20.212 0.63,-6.311 1.259,-12.942 1.889,-17.658 0.63,-4.716 1.26,-8.711 1.89,-10.639 0.327,-1.001 1.562,-1.63 1.889,-0.93 0.63,1.347 1.26,4.732 1.889,9.015 0.63,4.282 1.26,10.545 1.89,16.679 0.63,6.135 1.259,13.692 1.889,20.127 0.63,6.435 1.26,13.376 1.89,18.484 0.629,5.109 1.259,9.678 1.889,12.168 0.412,1.627 1.478,3.269 1.89,2.774 0.615,-0.741 1.273,-3.59 1.889,-7.32 0.439,-2.662 0.879,-6.66 1.318,-10.597"
             style="fill:none;stroke:#ee252c;stroke-width:0.5;stroke-linecap:round;stroke-linejoin:round;stroke-miterlimit:4;stroke-dasharray:4.994, 4.994;stroke-dashoffset:0;stroke-opacity:1"
             id="path140" /></g><g
           id="g142"
           transform="translate(415.4095,139.2409)"><path
             d="M 0,0 C 0.097,-0.849 0.194,-1.681 0.291,-2.481"
             style="fill:none;stroke:#ee252c;stroke-width:0.5;stroke-linecap:round;stroke-linejoin:round;stroke-miterlimit:4;stroke-dasharray:none;stroke-opacity:1"
             id="path144" /></g><g
           id="g146"
           transform="translate(37.8206,175.284)"><path
             d="m 0,0 c 0.524,-1.488 1.366,-2.571 1.889,-5.368 0.63,-3.363 1.26,-8.893 1.89,-14.81 0.63,-5.916 1.259,-13.635 1.889,-20.69 0.63,-7.054 1.26,-15.111 1.89,-21.637 0.629,-6.525 1.259,-13.02 1.889,-17.515 0.63,-4.495 1.26,-7.952 1.889,-9.455 0.342,-0.816 1.548,-0.473 1.89,0.434 0.63,1.673 1.259,5.385 1.889,9.604 0.63,4.218 1.26,10.223 1.89,15.708 0.629,5.485 1.259,12.047 1.889,17.203 0.63,5.155 1.26,10.406 1.889,13.729 0.605,3.191 1.285,5.761 1.89,6.214 0.447,0.335 1.442,-1.496 1.889,-3.379 0.63,-2.653 1.26,-7.307 1.89,-12.537 0.629,-5.23 1.259,-12.271 1.889,-18.843 0.63,-6.573 1.26,-14.289 1.889,-20.59 0.63,-6.301 1.26,-12.771 1.89,-17.214 0.63,-4.443 1.259,-8.017 1.889,-9.445 0.31,-0.703 1.58,-0.12 1.89,0.873 0.629,2.021 1.259,6.182 1.889,11.251 0.63,5.07 1.26,12.188 1.889,19.168 0.63,6.981 1.26,15.418 1.89,22.714 0.63,7.297 1.259,15.107 1.889,21.067 0.63,5.96 1.26,11.372 1.89,14.695 0.518,2.737 1.37,5.194 1.889,5.24 0.537,0.049 1.352,-2.329 1.889,-4.898 0.63,-3.013 1.26,-8.058 1.89,-13.178 0.63,-5.12 1.259,-11.793 1.889,-17.542 0.63,-5.749 1.26,-12.187 1.89,-16.952 0.629,-4.766 1.259,-9.192 1.889,-11.64 0.447,-1.735 1.443,-3.459 1.889,-3.045 0.6,0.555 1.29,3.192 1.89,6.545 0.63,3.522 1.259,9.002 1.889,14.587 0.63,5.585 1.26,12.714 1.89,18.923 0.629,6.21 1.259,13.137 1.889,18.334 0.63,5.197 1.26,10.082 1.889,12.849 0.466,2.047 1.424,4.12 1.89,3.749 0.572,-0.456 1.317,-3.298 1.889,-6.761 0.63,-3.809 1.26,-9.755 1.89,-16.098 0.629,-6.343 1.259,-14.484 1.889,-21.96 0.63,-7.477 1.26,-15.968 1.889,-22.899 0.63,-6.931 1.26,-13.844 1.89,-18.688 0.63,-4.844 1.259,-8.643 1.889,-10.378 0.323,-0.888 1.567,-0.866 1.89,-0.034 0.629,1.625 1.259,5.375 1.889,9.786 0.63,4.411 1.26,10.734 1.889,16.68 0.63,5.947 1.26,13.122 1.89,18.999 0.63,5.878 1.259,12.007 1.889,16.267 0.63,4.259 1.26,7.749 1.89,9.292 0.356,0.873 1.532,0.837 1.889,-0.038 0.63,-1.546 1.26,-5.054 1.889,-9.239 0.63,-4.184 1.26,-10.199 1.89,-15.866 0.63,-5.666 1.259,-12.549 1.889,-18.133 0.63,-5.583 1.26,-11.442 1.89,-15.369 0.629,-3.927 1.259,-7.102 1.889,-8.194 0.341,-0.592 1.548,0.437 1.889,1.641 0.63,2.221 1.26,6.501 1.89,11.685 0.63,5.183 1.259,12.368 1.889,19.415 0.63,7.047 1.26,15.533 1.89,22.867 0.629,7.333 1.259,15.178 1.889,21.135 0.63,5.956 1.26,11.361 1.889,14.602 0.496,2.553 1.394,4.966 1.89,4.846 0.552,-0.134 1.337,-2.781 1.889,-5.762 0.63,-3.401 1.26,-8.925 1.89,-14.645 0.629,-5.719 1.259,-13.111 1.889,-19.673 0.63,-6.562 1.26,-13.943 1.889,-19.7 0.63,-5.757 1.26,-11.293 1.89,-14.841 0.587,-3.307 1.302,-5.95 1.889,-6.446 0.461,-0.39 1.429,1.427 1.89,3.249 0.629,2.491 1.259,6.967 1.889,11.694 0.63,4.728 1.26,11.083 1.889,16.671 0.63,5.587 1.26,12.018 1.89,16.852 0.63,4.835 1.259,9.505 1.889,12.155 0.485,2.039 1.405,4.064 1.89,3.743 0.564,-0.375 1.324,-3.035 1.889,-6.25 0.63,-3.586 1.26,-9.227 1.889,-15.269 0.63,-6.041 1.26,-13.839 1.89,-20.981 0.63,-7.142 1.259,-15.289 1.889,-21.872 0.63,-6.582 1.26,-13.152 1.89,-17.624 0.629,-4.472 1.259,-7.901 1.889,-9.208 0.327,-0.68 1.562,0.246 1.889,1.364 0.63,2.151 1.26,6.473 1.89,11.542 0.63,5.07 1.259,12.124 1.889,18.875 0.63,6.751 1.26,14.822 1.89,21.631 0.629,6.81 1.259,13.96 1.889,19.227 0.63,5.266 1.26,9.828 1.889,12.372 0.415,1.674 1.475,3.312 1.89,2.887 0.626,-0.641 1.263,-3.306 1.889,-6.759 0.63,-3.474 1.26,-8.869 1.89,-14.084 0.629,-5.215 1.259,-11.783 1.889,-17.209 0.63,-5.426 1.26,-11.29 1.889,-15.345 0.63,-4.056 1.26,-7.525 1.89,-8.988 0.334,-0.777 1.555,-0.681 1.889,0.209 0.63,1.676 1.26,5.306 1.89,9.849 0.629,4.544 1.259,11.03 1.889,17.411 0.63,6.381 1.26,14.187 1.889,20.876 0.63,6.689 1.26,13.908 1.89,19.257 0.63,5.35 1.259,10.18 1.889,12.84 0.421,1.777 1.469,3.618 1.89,3.125 0.601,-0.705 1.288,-3.708 1.889,-7.555 0.63,-4.029 1.26,-10.201 1.889,-16.615 0.63,-6.413 1.26,-14.543 1.89,-21.867 0.63,-7.323 1.259,-15.519 1.889,-22.074 0.63,-6.555 1.26,-12.933 1.89,-17.255 0.629,-4.323 1.259,-7.477 1.889,-8.681 0.357,-0.683 1.532,0.317 1.889,1.454 0.63,2.007 1.26,6.083 1.89,10.583 0.63,4.499 1.259,10.759 1.889,16.415 0.63,5.656 1.26,12.32 1.89,17.52 0.629,5.201 1.259,10.411 1.889,13.685 0.59,3.07 1.299,5.591 1.889,5.96 0.466,0.291 1.424,-1.621 1.89,-3.599 0.63,-2.676 1.259,-7.34 1.889,-12.462 0.63,-5.121 1.26,-11.986 1.89,-18.268 0.629,-6.283 1.259,-13.602 1.889,-19.427 0.63,-5.824 1.26,-11.696 1.889,-15.518 0.623,-3.777 1.268,-6.68 1.89,-7.418 0.402,-0.477 1.487,1.237 1.889,2.936 0.63,2.659 1.26,7.455 1.89,13.017 0.629,5.561 1.259,13.102 1.889,20.35 0.63,7.248 1.26,15.831 1.889,23.138 0.63,7.307 1.26,14.975 1.89,20.706 0.63,5.73 1.259,10.762 1.889,13.678 0.45,2.081 1.44,4.127 1.89,3.816 0.594,-0.41 1.294,-3.129 1.889,-6.425 0.63,-3.49 1.26,-9.015 1.889,-14.516 0.63,-5.502 1.26,-12.504 1.89,-18.494 0.63,-5.991 1.259,-12.582 1.889,-17.449 0.63,-4.867 1.26,-9.3 1.89,-11.754 0.437,-1.705 1.451,-3.387 1.889,-2.972 0.608,0.577 1.281,3.199 1.889,6.556 0.63,3.475 1.26,8.884 1.89,14.294 0.63,5.411 1.259,12.293 1.889,18.17 0.63,5.877 1.26,12.37 1.89,17.092 0.629,4.721 1.259,9.03 1.889,11.238 0.378,1.326 1.511,2.641 1.889,2.009 0.626,-1.044 1.264,-4.099 1.89,-8.318 0.63,-4.248 1.259,-10.588 1.889,-17.17 0.63,-6.581 1.26,-14.857 1.89,-22.32 0.629,-7.463 1.259,-15.796 1.889,-22.456 0.63,-6.661 1.26,-13.145 1.889,-17.508 0.63,-4.362 1.26,-7.541 1.89,-8.669 0.36,-0.645 1.529,0.611 1.889,1.903 0.63,2.255 1.26,6.663 1.89,11.627 0.629,4.964 1.259,11.804 1.889,18.155 0.63,6.352 1.26,13.847 1.889,19.954 0.63,6.108 1.26,12.357 1.89,16.692 0.63,4.335 1.259,7.795 1.889,9.317 0.351,0.848 1.538,0.696 1.89,-0.186 0.629,-1.581 1.259,-5.147 1.889,-9.302 0.63,-4.155 1.26,-10.11 1.889,-15.628 0.63,-5.518 1.26,-12.18 1.89,-17.482 0.63,-5.303 1.259,-10.788 1.889,-14.334 0.629,-3.539 1.261,-6.257 1.89,-6.937 0.407,-0.44 1.481,1.192 1.889,2.853 0.63,2.568 1.26,7.182 1.889,12.555 0.63,5.374 1.26,12.673 1.89,19.685 0.63,7.011 1.259,15.337 1.889,22.385 0.63,7.048 1.26,14.456 1.89,19.9 0.629,5.445 1.259,10.192 1.889,12.767 0.39,1.593 1.5,3.222 1.889,2.681 0.623,-0.864 1.267,-3.897 1.89,-7.921 0.63,-4.068 1.259,-10.243 1.889,-16.484 0.63,-6.241 1.26,-14.078 1.89,-20.964 0.629,-6.885 1.259,-14.473 1.889,-20.349 0.63,-5.877 1.26,-11.405 1.889,-14.911 0.567,-3.152 1.323,-5.759 1.89,-6.121 0.486,-0.31 1.403,1.685 1.889,3.709 0.63,2.623 1.26,7.242 1.89,12.028 0.629,4.786 1.259,11.159 1.889,16.69 0.63,5.53 1.26,11.828 1.889,16.491 0.63,4.663 1.26,9.078 1.89,11.487 0.445,1.702 1.444,3.427 1.889,2.968 0.594,-0.612 1.295,-3.352 1.89,-6.861 0.629,-3.718 1.259,-9.45 1.889,-15.445 0.63,-5.995 1.26,-13.653 1.889,-20.525 0.63,-6.873 1.26,-14.62 1.89,-20.712 0.63,-6.092 1.259,-12.03 1.889,-15.842 0.593,-3.59 1.296,-6.494 1.89,-7.027 0.439,-0.395 1.45,1.631 1.889,3.629 0.63,2.863 1.26,7.902 1.889,13.553 0.63,5.651 1.26,13.225 1.89,20.351 0.63,7.126 1.259,15.458 1.889,22.407 0.63,6.949 1.26,14.098 1.89,19.288 0.629,5.191 1.259,9.54 1.889,11.855 0.364,1.34 1.525,2.578 1.889,2.035 0.63,-0.938 1.26,-3.922 1.89,-7.664 0.63,-3.742 1.259,-9.396 1.889,-14.786 0.63,-5.39 1.26,-12.076 1.89,-17.553 0.629,-5.477 1.259,-11.31 1.889,-15.311 0.63,-4 1.26,-7.334 1.889,-8.692 0.333,-0.718 1.557,-0.383 1.89,0.541 0.63,1.75 1.259,5.454 1.889,9.956 0.63,4.502 1.26,10.892 1.89,17.056 0.629,6.163 1.259,13.652 1.889,19.925 0.63,6.273 1.26,12.952 1.889,17.714 0.63,4.762 1.26,8.887 1.89,10.859 0.323,1.014 1.566,1.711 1.889,0.979 0.63,-1.427 1.26,-4.928 1.89,-9.538 0.629,-4.609 1.259,-12.078 1.889,-18.118"
             style="fill:none;stroke:#040606;stroke-width:0.75;stroke-linecap:round;stroke-linejoin:round;stroke-miterlimit:10;stroke-dasharray:none;stroke-opacity:1"
             id="path148" /></g></g></g><text
       transform="matrix(1,0,0,-1,15.8706,45.0371)"
       style="font-variant:normal;font-weight:normal;font-stretch:normal;font-size:9px;font-family:'Times New Roman';-inkscape-font-specification:TimesNewRomanPSMT;writing-mode:lr-tb;fill:#040606;fill-opacity:1;fill-rule:nonzero;stroke:none"
       id="text170"><tspan
         x="0 2.997 7.4429998 9.7200003"
         y="0"
         id="tspan150">-0.8</tspan><tspan
         x="0 2.997 7.4429998 9.7200003"
         y="-17.973"
         id="tspan152">-0.6</tspan><tspan
         x="0 2.997 7.4429998 9.7200003"
         y="-35.945999"
         id="tspan154">-0.4</tspan><tspan
         x="0 2.997 7.4429998 9.7200003"
         y="-53.918999"
         id="tspan156">-0.2</tspan><tspan
         x="2.9879999 7.5419998 9.7019997"
         y="-71.891998"
         id="tspan158">0.0</tspan><tspan
         x="2.9879999 7.5419998 9.7019997"
         y="-89.864998"
         id="tspan160">0.2</tspan><tspan
         x="2.9879999 7.5419998 9.7019997"
         y="-107.838"
         id="tspan162">0.4</tspan><tspan
         x="2.9879999 7.5419998 9.7019997"
         y="-125.811"
         id="tspan164">0.6</tspan><tspan
         x="2.9879999 7.5419998 9.7019997"
         y="-143.784"
         id="tspan166">0.8</tspan><tspan
         x="16.271999 20.826 22.986 110.754 115.308 117.468 202.98599 207.53999 211.98599 214.263 297.45901 302.013 306.45901 308.73599 391.94101 396.495 400.94101 403.21799"
         y="10.539"
         id="tspan168">0.05.010.015.020.0</tspan></text><g
       id="g172"><g
         id="g174"
         clip-path="url(#clipPath178)"><path
           d="M 415.556,191.604 H 37.701 V 47.882 h 377.855 z"
           style="fill:none;stroke:#231f20;stroke-width:0.75;stroke-linecap:butt;stroke-linejoin:miter;stroke-miterlimit:10;stroke-dasharray:none;stroke-opacity:1"
           id="path180" /></g></g><text
       transform="matrix(1,0,0,-1,214.731,22.8604)"
       style="font-variant:normal;font-weight:normal;font-stretch:normal;font-size:9px;font-family:'Times New Roman';-inkscape-font-specification:TimesNewRomanPSMT;writing-mode:lr-tb;fill:#231f20;fill-opacity:1;fill-rule:nonzero;stroke:none"
       id="text184"><tspan
         x="0 5.4990001 9.4949999 11.997 14.499 16.749001 19.746 23.247"
         y="0"
         id="tspan182">Zeit [s]</tspan></text><g
       id="g186"><g
         id="g188"
         clip-path="url(#clipPath192)"><text
           transform="matrix(0,1,1,0,9.3804,84.5938)"
           style="font-variant:normal;font-weight:normal;font-stretch:normal;font-size:9px;font-family:'Times New Roman';-inkscape-font-specification:TimesNewRomanPSMT;writing-mode:lr-tb;fill:#231f20;fill-opacity:1;fill-rule:nonzero;stroke:none"
           id="text196"><tspan
             x="0 5.5016999 9.4976997 12.4947 15.9957 19.991699 24.491699 26.9937 30.9897 35.4897 39.9897 44.4897 48.9897 51.2397 55.7397 60.2397 62.4897 65.486702 72.488701"
             y="0"
             id="tspan194">Verschiebung u1 [m]</tspan></text></g></g><text
       transform="matrix(1,0,0,-1,112.3618,8.0098)"
       style="font-variant:normal;font-weight:normal;font-stretch:normal;font-size:9px;font-family:'Times New Roman';-inkscape-font-specification:TimesNewRomanPSMT;writing-mode:lr-tb;fill:#231f20;fill-opacity:1;fill-rule:nonzero;stroke:none"
       id="text200"><tspan
         x="0 4.5 6.75 9 14.499 17.000999 21.500999 25.497 29.997 32.993999 37.493999 40.491001 93.752998 98.252998 100.503 102.753 108.252 110.754 115.254 119.25 123.75 126.747 131.24699 134.244 188.037 194.535 198.53101 202.032 206.028 213.03 215.532 220.032 224.028 227.02499 230.526 234.522 239.022 241.524 245.52 250.02 254.52 259.01999"
         y="0"
         id="tspan198">1. Eigenform2. EigenformGesamtverschiebung</tspan></text><g
       id="g202"><g
         id="g204"
         clip-path="url(#clipPath208)"><g
           id="g210"
           transform="translate(78.8888,10.6501)"><path
             d="M 0,0 H 28.346"
             style="fill:none;stroke:#293d9b;stroke-width:1;stroke-linecap:round;stroke-linejoin:round;stroke-miterlimit:10;stroke-dasharray:1, 3;stroke-dashoffset:0;stroke-opacity:1"
             id="path212" /></g><g
           id="g214"
           transform="translate(171.4064,10.6501)"><path
             d="M 0,0 H 2.5"
             style="fill:none;stroke:#ed1c24;stroke-width:0.5;stroke-linecap:round;stroke-linejoin:round;stroke-miterlimit:4;stroke-dasharray:none;stroke-opacity:1"
             id="path216" /></g><g
           id="g218"
           transform="translate(178.5757,10.6501)"><path
             d="M 0,0 H 16.343"
             style="fill:none;stroke:#ed1c24;stroke-width:0.5;stroke-linecap:round;stroke-linejoin:round;stroke-miterlimit:4;stroke-dasharray:4.669, 4.669;stroke-dashoffset:0;stroke-opacity:1"
             id="path220" /></g><g
           id="g222"
           transform="translate(197.2528,10.6501)"><path
             d="M 0,0 H 2.5"
             style="fill:none;stroke:#ed1c24;stroke-width:0.5;stroke-linecap:round;stroke-linejoin:round;stroke-miterlimit:4;stroke-dasharray:none;stroke-opacity:1"
             id="path224" /></g><g
           id="g226"
           transform="translate(265.8829,10.6501)"><path
             d="M 0,0 H 28.346"
             style="fill:#2e3192;fill-opacity:1;fill-rule:nonzero;stroke:#231f20;stroke-width:0.75;stroke-linecap:round;stroke-linejoin:round;stroke-miterlimit:10;stroke-dasharray:none;stroke-opacity:1"
             id="path228" /></g></g></g><text
       transform="matrix(1,0,0,-1,214.0815,209.0068)"
       style="font-variant:normal;font-weight:normal;font-stretch:normal;font-size:9px;font-family:'Times New Roman';-inkscape-font-specification:TimesNewRomanPSMT;writing-mode:lr-tb;fill:#231f20;fill-opacity:1;fill-rule:nonzero;stroke:none"
       id="text232"><tspan
         x="0 5.4990001 9.4949999 11.997 14.499 16.749001 19.746 23.247"
         y="0"
         id="tspan230">Zeit [s]</tspan></text><g
       id="g234"><g
         id="g236"
         clip-path="url(#clipPath240)"><text
           transform="matrix(0,1,1,0,8.731,270.7412)"
           style="font-variant:normal;font-weight:normal;font-stretch:normal;font-size:9px;font-family:'Times New Roman';-inkscape-font-specification:TimesNewRomanPSMT;writing-mode:lr-tb;fill:#231f20;fill-opacity:1;fill-rule:nonzero;stroke:none"
           id="text244"><tspan
             x="0 5.5016999 9.4976997 12.4947 15.9957 19.991699 24.491699 26.9937 30.9897 35.4897 39.9897 44.4897 48.9897 51.2397 55.7397 60.2397 62.4897 65.486702 72.488701"
             y="0"
             id="tspan242">Verschiebung u2 [m]</tspan></text><path
           d="M 415.338,378.515 H 37.458 v -143.64 h 377.88 z"
           style="fill:none;stroke:#231f20;stroke-width:0.75;stroke-linecap:butt;stroke-linejoin:miter;stroke-miterlimit:10;stroke-dasharray:none;stroke-opacity:1"
           id="path246" /></g></g></g></svg>
