<?xml version="1.0" encoding="UTF-8" standalone="no"?>
<svg
   xmlns:dc="http://purl.org/dc/elements/1.1/"
   xmlns:cc="http://creativecommons.org/ns#"
   xmlns:rdf="http://www.w3.org/1999/02/22-rdf-syntax-ns#"
   xmlns:svg="http://www.w3.org/2000/svg"
   xmlns="http://www.w3.org/2000/svg"
   version="1.1"
   id="svg2"
   xml:space="preserve"
   width="566.92932"
   height="132.28346"
   viewBox="0 0 566.92932 132.28346"><metadata
     id="metadata8"><rdf:RDF><cc:Work
         rdf:about=""><dc:format>image/svg+xml</dc:format><dc:type
           rdf:resource="http://purl.org/dc/dcmitype/StillImage" /></cc:Work></rdf:RDF></metadata><defs
     id="defs6"><clipPath
       clipPathUnits="userSpaceOnUse"
       id="clipPath104"><path
         d="M -0.00426,-9.9e-4 V 99.21359 H 425.20111 V -9.9e-4 H -0.00426"
         clip-rule="evenodd"
         id="path102" /></clipPath><clipPath
       clipPathUnits="userSpaceOnUse"
       id="clipPath116"><path
         d="M -0.00426,-9.9e-4 V 99.21359 H 425.20111 V -9.9e-4 H -0.00426"
         clip-rule="evenodd"
         id="path114" /></clipPath><clipPath
       clipPathUnits="userSpaceOnUse"
       id="clipPath128"><path
         d="M -0.00426,-9.9e-4 V 99.21359 H 425.20111 V -9.9e-4 H -0.00426"
         clip-rule="evenodd"
         id="path126" /></clipPath><clipPath
       clipPathUnits="userSpaceOnUse"
       id="clipPath140"><path
         d="M -0.00426,-9.9e-4 V 99.21359 H 425.20111 V -9.9e-4 H -0.00426"
         clip-rule="evenodd"
         id="path138" /></clipPath><clipPath
       clipPathUnits="userSpaceOnUse"
       id="clipPath152"><path
         d="M -0.00426,-9.9e-4 V 99.21359 H 425.20111 V -9.9e-4 H -0.00426"
         clip-rule="evenodd"
         id="path150" /></clipPath><clipPath
       clipPathUnits="userSpaceOnUse"
       id="clipPath164"><path
         d="M -0.00426,-9.9e-4 V 99.21359 H 425.20111 V -9.9e-4 H -0.00426"
         clip-rule="evenodd"
         id="path162" /></clipPath><clipPath
       clipPathUnits="userSpaceOnUse"
       id="clipPath176"><path
         d="M -0.00426,-9.9e-4 V 99.21359 H 425.20111 V -9.9e-4 H -0.00426"
         clip-rule="evenodd"
         id="path174" /></clipPath><clipPath
       clipPathUnits="userSpaceOnUse"
       id="clipPath188"><path
         d="M -0.00426,-9.9e-4 V 99.21359 H 425.20111 V -9.9e-4 H -0.00426"
         clip-rule="evenodd"
         id="path186" /></clipPath><clipPath
       clipPathUnits="userSpaceOnUse"
       id="clipPath200"><path
         d="M -0.00426,-9.9e-4 V 99.21359 H 425.20111 V -9.9e-4 H -0.00426"
         clip-rule="evenodd"
         id="path198" /></clipPath><clipPath
       clipPathUnits="userSpaceOnUse"
       id="clipPath212"><path
         d="M -0.00426,-9.9e-4 V 99.21359 H 425.20111 V -9.9e-4 H -0.00426"
         clip-rule="evenodd"
         id="path210" /></clipPath><clipPath
       clipPathUnits="userSpaceOnUse"
       id="clipPath224"><path
         d="M -0.00426,-9.9e-4 V 99.21359 H 425.20111 V -9.9e-4 H -0.00426"
         clip-rule="evenodd"
         id="path222" /></clipPath><clipPath
       clipPathUnits="userSpaceOnUse"
       id="clipPath236"><path
         d="M -0.00426,-9.9e-4 V 99.21359 H 425.20111 V -9.9e-4 H -0.00426"
         clip-rule="evenodd"
         id="path234" /></clipPath><clipPath
       clipPathUnits="userSpaceOnUse"
       id="clipPath248"><path
         d="M -0.00426,-9.9e-4 V 99.21359 H 425.20111 V -9.9e-4 H -0.00426"
         clip-rule="evenodd"
         id="path246" /></clipPath><clipPath
       clipPathUnits="userSpaceOnUse"
       id="clipPath260"><path
         d="M -0.00426,-9.9e-4 V 99.21359 H 425.20111 V -9.9e-4 H -0.00426"
         clip-rule="evenodd"
         id="path258" /></clipPath><clipPath
       clipPathUnits="userSpaceOnUse"
       id="clipPath272"><path
         d="M -0.00426,-9.9e-4 V 99.21359 H 425.20111 V -9.9e-4 H -0.00426"
         clip-rule="evenodd"
         id="path270" /></clipPath><clipPath
       clipPathUnits="userSpaceOnUse"
       id="clipPath284"><path
         d="M -0.00426,-9.9e-4 V 99.21359 H 425.20111 V -9.9e-4 H -0.00426"
         clip-rule="evenodd"
         id="path282" /></clipPath><clipPath
       clipPathUnits="userSpaceOnUse"
       id="clipPath296"><path
         d="M -0.00426,-9.9e-4 V 99.21359 H 425.20111 V -9.9e-4 H -0.00426"
         clip-rule="evenodd"
         id="path294" /></clipPath><clipPath
       clipPathUnits="userSpaceOnUse"
       id="clipPath308"><path
         d="M -0.00426,-9.9e-4 V 99.21359 H 425.20111 V -9.9e-4 H -0.00426"
         clip-rule="evenodd"
         id="path306" /></clipPath><clipPath
       clipPathUnits="userSpaceOnUse"
       id="clipPath320"><path
         d="M -0.00426,-9.9e-4 V 99.21359 H 425.20111 V -9.9e-4 H -0.00426"
         clip-rule="evenodd"
         id="path318" /></clipPath><clipPath
       clipPathUnits="userSpaceOnUse"
       id="clipPath332"><path
         d="M -0.00426,-9.9e-4 V 99.21359 H 425.20111 V -9.9e-4 H -0.00426"
         clip-rule="evenodd"
         id="path330" /></clipPath><clipPath
       clipPathUnits="userSpaceOnUse"
       id="clipPath344"><path
         d="M -0.00426,-9.9e-4 V 99.21359 H 425.20111 V -9.9e-4 H -0.00426"
         clip-rule="evenodd"
         id="path342" /></clipPath><clipPath
       clipPathUnits="userSpaceOnUse"
       id="clipPath356"><path
         d="M -0.00426,-9.9e-4 V 99.21359 H 425.20111 V -9.9e-4 H -0.00426"
         clip-rule="evenodd"
         id="path354" /></clipPath><clipPath
       clipPathUnits="userSpaceOnUse"
       id="clipPath368"><path
         d="M -0.00426,-9.9e-4 V 99.21359 H 425.20111 V -9.9e-4 H -0.00426"
         clip-rule="evenodd"
         id="path366" /></clipPath><clipPath
       clipPathUnits="userSpaceOnUse"
       id="clipPath380"><path
         d="M -0.00426,-9.9e-4 V 99.21359 H 425.20111 V -9.9e-4 H -0.00426"
         clip-rule="evenodd"
         id="path378" /></clipPath><clipPath
       clipPathUnits="userSpaceOnUse"
       id="clipPath392"><path
         d="M -0.00426,-9.9e-4 V 99.21359 H 425.20111 V -9.9e-4 H -0.00426"
         clip-rule="evenodd"
         id="path390" /></clipPath><clipPath
       clipPathUnits="userSpaceOnUse"
       id="clipPath404"><path
         d="M -0.00426,-9.9e-4 V 99.21359 H 425.20111 V -9.9e-4 H -0.00426"
         clip-rule="evenodd"
         id="path402" /></clipPath><clipPath
       clipPathUnits="userSpaceOnUse"
       id="clipPath416"><path
         d="M -0.00426,-9.9e-4 V 99.21359 H 425.20111 V -9.9e-4 H -0.00426"
         clip-rule="evenodd"
         id="path414" /></clipPath><clipPath
       clipPathUnits="userSpaceOnUse"
       id="clipPath428"><path
         d="M -0.00426,-9.9e-4 V 99.21359 H 425.20111 V -9.9e-4 H -0.00426"
         clip-rule="evenodd"
         id="path426" /></clipPath><clipPath
       clipPathUnits="userSpaceOnUse"
       id="clipPath440"><path
         d="M -0.00426,-9.9e-4 V 99.21359 H 425.20111 V -9.9e-4 H -0.00426"
         clip-rule="evenodd"
         id="path438" /></clipPath><clipPath
       clipPathUnits="userSpaceOnUse"
       id="clipPath452"><path
         d="M -0.00426,-9.9e-4 V 99.21359 H 425.20111 V -9.9e-4 H -0.00426"
         clip-rule="evenodd"
         id="path450" /></clipPath><clipPath
       clipPathUnits="userSpaceOnUse"
       id="clipPath464"><path
         d="M -0.00426,-9.9e-4 V 99.21359 H 425.20111 V -9.9e-4 H -0.00426"
         clip-rule="evenodd"
         id="path462" /></clipPath><clipPath
       clipPathUnits="userSpaceOnUse"
       id="clipPath476"><path
         d="M -0.00426,-9.9e-4 V 99.21359 H 425.20111 V -9.9e-4 H -0.00426"
         clip-rule="evenodd"
         id="path474" /></clipPath><clipPath
       clipPathUnits="userSpaceOnUse"
       id="clipPath488"><path
         d="M -0.00426,-9.9e-4 V 99.21359 H 425.20111 V -9.9e-4 H -0.00426"
         clip-rule="evenodd"
         id="path486" /></clipPath><clipPath
       clipPathUnits="userSpaceOnUse"
       id="clipPath500"><path
         d="M -0.00426,-9.9e-4 V 99.21359 H 425.20111 V -9.9e-4 H -0.00426"
         clip-rule="evenodd"
         id="path498" /></clipPath><clipPath
       clipPathUnits="userSpaceOnUse"
       id="clipPath512"><path
         d="M -0.00426,-9.9e-4 V 99.21359 H 425.20111 V -9.9e-4 H -0.00426"
         clip-rule="evenodd"
         id="path510" /></clipPath><clipPath
       clipPathUnits="userSpaceOnUse"
       id="clipPath524"><path
         d="M -0.00426,-9.9e-4 V 99.21359 H 425.20111 V -9.9e-4 H -0.00426"
         clip-rule="evenodd"
         id="path522" /></clipPath><clipPath
       clipPathUnits="userSpaceOnUse"
       id="clipPath536"><path
         d="M -0.00426,-9.9e-4 V 99.21359 H 425.20111 V -9.9e-4 H -0.00426"
         clip-rule="evenodd"
         id="path534" /></clipPath><clipPath
       clipPathUnits="userSpaceOnUse"
       id="clipPath548"><path
         d="M -0.00426,-9.9e-4 V 99.21359 H 425.20111 V -9.9e-4 H -0.00426"
         clip-rule="evenodd"
         id="path546" /></clipPath><clipPath
       clipPathUnits="userSpaceOnUse"
       id="clipPath560"><path
         d="M -0.00426,-9.9e-4 V 99.21359 H 425.20111 V -9.9e-4 H -0.00426"
         clip-rule="evenodd"
         id="path558" /></clipPath></defs><g
     id="g10"
     transform="matrix(1.3333333,0,0,-1.3333333,0,132.28347)"><path
       d="m 142.64813,44.15254 h 56.6929 v 34.01575 h -56.6929 z"
       style="fill:#dedede;fill-opacity:1;fill-rule:nonzero;stroke:none"
       id="path12" /><path
       d="m 253.19931,44.15254 h 56.6929 v 34.01575 h -56.6929 z"
       style="fill:#dedede;fill-opacity:1;fill-rule:nonzero;stroke:none"
       id="path14" /><path
       d="m 85.95522,82.76376 2.20767,2.20768 m -2.20767,-22.25165 2.83464,2.83465 m -2.83464,-22.87861 2.83464,2.83464 m -0.02262,-20.06659 2.83464,2.83464 m 17.20934,-2.83464 2.83464,2.83464 m 17.20933,-2.83464 2.83463,2.83464 m 17.20935,-2.83464 2.83463,2.83464 m 17.20935,-2.83464 2.83462,2.83464 m 17.20932,-2.83464 2.83466,2.83464 m 17.20932,-2.83464 2.83465,2.83464 m 17.20932,-2.83464 2.83466,2.83464 m 17.20932,-2.83464 2.83465,2.83464 m 17.20932,-2.83464 2.83463,2.83464 m 17.20932,-2.83464 2.83466,2.83464 m 17.20932,-2.83464 2.83465,2.83464 m 17.20932,-2.83464 2.83466,2.83464 m 17.20932,-2.83464 2.83465,2.83464 m -266.2183,44.46326 2.83464,2.83465 m -2.83464,-22.87863 2.83464,2.83466 m -2.83464,-22.87862 2.83464,2.83464 m 9.99937,-10.0446 2.83464,2.83464 m 17.20932,-2.83464 2.83466,2.83464 m 17.20932,-2.83464 2.83465,2.83464 m 17.20932,-2.83464 2.83466,2.83464 m 17.20932,-2.83464 2.83465,2.83464 m 17.20932,-2.83464 2.83463,2.83464 m 17.20935,-2.83464 2.83463,2.83464 m 17.20935,-2.83464 2.83462,2.83464 m 17.20932,-2.83464 2.83466,2.83464 m 17.20932,-2.83464 2.83465,2.83464 m 17.20932,-2.83464 2.83466,2.83464 m 17.20932,-2.83464 2.83462,2.83464 m 17.20935,-2.83464 2.83463,2.83464"
       style="fill:none;stroke:#000000;stroke-width:0.3685;stroke-linecap:round;stroke-linejoin:round;stroke-miterlimit:10;stroke-dasharray:none;stroke-opacity:1"
       id="path16" /><path
       d="m 158.52213,36.21553 c 0,4.3835 -3.5535,7.93701 -7.93699,7.93701 m 0,0 c -4.38351,0 -7.93701,-3.55351 -7.93701,-7.93701 m 0,0 c 0,-4.38348 3.5535,-7.93701 7.93701,-7.93701 m 0,0 c 4.38349,0 7.93699,3.55353 7.93699,7.93701"
       style="fill:none;stroke:#000000;stroke-width:0.28346;stroke-linecap:round;stroke-linejoin:round;stroke-miterlimit:10;stroke-dasharray:none;stroke-opacity:1"
       id="path18" /><path
       d="m 142.64813,44.15254 h 56.6929 v 34.01575 h -56.6929 V 44.15254"
       style="fill:none;stroke:#000000;stroke-width:0.85039;stroke-linecap:round;stroke-linejoin:round;stroke-miterlimit:10;stroke-dasharray:none;stroke-opacity:1"
       id="path20" /><path
       d="m 183.46701,36.21553 c 0,-4.38348 3.55353,-7.93701 7.93701,-7.93701 m 0,0 c 4.38349,0 7.93701,3.55353 7.93701,7.93701 m 0,0 c 0,4.3835 -3.55352,7.93701 -7.93701,7.93701 m 0,0 c -4.38348,0 -7.93701,-3.55351 -7.93701,-7.93701"
       style="fill:none;stroke:#000000;stroke-width:0.28346;stroke-linecap:round;stroke-linejoin:round;stroke-miterlimit:10;stroke-dasharray:none;stroke-opacity:1"
       id="path22" /><path
       d="m 269.0733,36.21553 c 0,4.3835 -3.55349,7.93701 -7.93701,7.93701 m 0,0 c -4.38348,0 -7.93698,-3.55351 -7.93698,-7.93701 m 0,0 c 0,-4.38348 3.5535,-7.93701 7.93698,-7.93701 m 0,0 c 4.38352,0 7.93701,3.55353 7.93701,7.93701"
       style="fill:none;stroke:#000000;stroke-width:0.28346;stroke-linecap:round;stroke-linejoin:round;stroke-miterlimit:10;stroke-dasharray:none;stroke-opacity:1"
       id="path24" /><path
       d="m 253.19931,44.15254 h 56.6929 v 34.01575 h -56.6929 V 44.15254"
       style="fill:none;stroke:#000000;stroke-width:0.85039;stroke-linecap:round;stroke-linejoin:round;stroke-miterlimit:10;stroke-dasharray:none;stroke-opacity:1"
       id="path26" /><path
       d="m 294.01819,36.21553 c 0,-4.38348 3.55353,-7.93701 7.93701,-7.93701 m 0,0 c 4.38348,0 7.93701,3.55353 7.93701,7.93701 m 0,0 c 0,4.3835 -3.55353,7.93701 -7.93701,7.93701 m 0,0 c -4.38348,0 -7.93701,-3.55351 -7.93701,-7.93701"
       style="fill:none;stroke:#000000;stroke-width:0.28346;stroke-linecap:round;stroke-linejoin:round;stroke-miterlimit:10;stroke-dasharray:none;stroke-opacity:1"
       id="path28" /><path
       d="m 199.34103,61.16042 h 10.09922 m -4.96064,0 h -0.35434 m 5.31498,0 v 0 l -4.96064,0.70866 v -1.41731 l 4.96064,0.70865"
       style="fill:none;stroke:#000000;stroke-width:0.28346;stroke-linecap:round;stroke-linejoin:round;stroke-miterlimit:10;stroke-dasharray:none;stroke-opacity:1"
       id="path30" /><path
       d="m 204.47961,60.45177 4.96064,0.70865 -4.96064,0.70866 z"
       style="fill:#000000;fill-opacity:1;fill-rule:nonzero;stroke:none"
       id="path32" /><path
       d="m 199.34103,72.49899 h 10.09922 m -4.96064,0 h -0.35434 m 5.31498,0 v 0 l -4.96064,0.70867 v -1.41732 l 4.96064,0.70865"
       style="fill:none;stroke:#000000;stroke-width:0.28346;stroke-linecap:round;stroke-linejoin:round;stroke-miterlimit:10;stroke-dasharray:none;stroke-opacity:1"
       id="path34" /><path
       d="m 204.47961,71.79034 4.96064,0.70865 -4.96064,0.70867 z"
       style="fill:#000000;fill-opacity:1;fill-rule:nonzero;stroke:none"
       id="path36" /><path
       d="m 199.34103,49.82184 h 10.09922 m -4.96064,0 h -0.35434 m 5.31498,0 v 0 l -4.96064,0.70865 v -1.41732 l 4.96064,0.70867"
       style="fill:none;stroke:#000000;stroke-width:0.28346;stroke-linecap:round;stroke-linejoin:round;stroke-miterlimit:10;stroke-dasharray:none;stroke-opacity:1"
       id="path38" /><path
       d="m 204.47961,49.11317 4.96064,0.70867 -4.96064,0.70865 z"
       style="fill:#000000;fill-opacity:1;fill-rule:nonzero;stroke:none"
       id="path40" /><path
       d="M 253.19931,49.82184 H 243.1001 m 4.96063,0 h 0.35434 m -5.31497,0 v 0 l 4.96063,-0.70867 v 1.41732 l -4.96063,-0.70865"
       style="fill:none;stroke:#000000;stroke-width:0.28346;stroke-linecap:round;stroke-linejoin:round;stroke-miterlimit:10;stroke-dasharray:none;stroke-opacity:1"
       id="path42" /><path
       d="m 248.06073,50.53049 -4.96063,-0.70865 4.96063,-0.70867 z"
       style="fill:#000000;fill-opacity:1;fill-rule:nonzero;stroke:none"
       id="path44" /><path
       d="M 253.19931,72.49899 H 243.1001 m 4.96063,0 h 0.35434 m -5.31497,0 v 0 l 4.96063,-0.70865 v 1.41732 l -4.96063,-0.70867"
       style="fill:none;stroke:#000000;stroke-width:0.28346;stroke-linecap:round;stroke-linejoin:round;stroke-miterlimit:10;stroke-dasharray:none;stroke-opacity:1"
       id="path46" /><path
       d="m 248.06073,73.20766 -4.96063,-0.70867 4.96063,-0.70865 z"
       style="fill:#000000;fill-opacity:1;fill-rule:nonzero;stroke:none"
       id="path48" /><path
       d="m 288.83383,58.3304 h -17.00787 m 4.96063,0 h 0.35431 m -5.31494,0 v 0 l 4.96063,-0.70867 v 1.41733 l -4.96063,-0.70866"
       style="fill:none;stroke:#000000;stroke-width:0.28346;stroke-linecap:round;stroke-linejoin:round;stroke-miterlimit:10;stroke-dasharray:none;stroke-opacity:1"
       id="path50" /><path
       d="m 276.78659,59.03906 -4.96063,-0.70866 4.96063,-0.70867 z"
       style="fill:#000000;fill-opacity:1;fill-rule:nonzero;stroke:none"
       id="path52" /><path
       d="m 309.89221,61.16042 h 10.09921 m -4.96063,0 h -0.35434 m 5.31497,0 v 0 l -4.96063,0.70866 v -1.41731 l 4.96063,0.70865"
       style="fill:none;stroke:#000000;stroke-width:0.28346;stroke-linecap:round;stroke-linejoin:round;stroke-miterlimit:10;stroke-dasharray:none;stroke-opacity:1"
       id="path54" /><path
       d="m 315.03079,60.45177 4.96063,0.70865 -4.96063,0.70866 z"
       style="fill:#000000;fill-opacity:1;fill-rule:nonzero;stroke:none"
       id="path56" /><path
       d="m 142.64813,72.49899 h -10.09921 m 4.96063,0 h 0.35434 m -5.31497,0 v 0 l 4.96063,-0.70865 v 1.41732 l -4.96063,-0.70867"
       style="fill:none;stroke:#000000;stroke-width:0.28346;stroke-linecap:round;stroke-linejoin:round;stroke-miterlimit:10;stroke-dasharray:none;stroke-opacity:1"
       id="path58" /><path
       d="m 137.50955,73.20766 -4.96063,-0.70867 4.96063,-0.70865 z"
       style="fill:#000000;fill-opacity:1;fill-rule:nonzero;stroke:none"
       id="path60" /><path
       d="m 142.64813,49.82184 h -10.09921 m 4.96063,0 h 0.35434 m -5.31497,0 v 0 l 4.96063,-0.70867 v 1.41732 l -4.96063,-0.70865"
       style="fill:none;stroke:#000000;stroke-width:0.28346;stroke-linecap:round;stroke-linejoin:round;stroke-miterlimit:10;stroke-dasharray:none;stroke-opacity:1"
       id="path62" /><path
       d="m 137.50955,50.53049 -4.96063,-0.70865 4.96063,-0.70867 z"
       style="fill:#000000;fill-opacity:1;fill-rule:nonzero;stroke:none"
       id="path64" /><path
       d="m 178.28265,58.3304 h -17.00787 m 4.96063,0 h 0.35431 m -5.31494,0 v 0 l 4.96063,-0.70867 v 1.41733 l -4.96063,-0.70866"
       style="fill:none;stroke:#000000;stroke-width:0.28346;stroke-linecap:round;stroke-linejoin:round;stroke-miterlimit:10;stroke-dasharray:none;stroke-opacity:1"
       id="path66" /><path
       d="m 166.23541,59.03906 -4.96063,-0.70866 4.96063,-0.70867 z"
       style="fill:#000000;fill-opacity:1;fill-rule:nonzero;stroke:none"
       id="path68" /><path
       d="M 88.78986,84.97144 V 28.27852 h 269.29132"
       style="fill:none;stroke:#000000;stroke-width:0.85039;stroke-linecap:round;stroke-linejoin:round;stroke-miterlimit:10;stroke-dasharray:none;stroke-opacity:1"
       id="path70" /><path
       d="m 239.36667,85.25925 c 0,0.15654 -0.12692,0.28346 -0.28348,0.28346 m 0,0 c -0.15655,0 -0.28348,-0.12692 -0.28348,-0.28346 m 0,0 c 0,-0.15656 0.12693,-0.28348 0.28348,-0.28348 m 0,0 c 0.15656,0 0.28348,0.12692 0.28348,0.28348"
       style="fill:none;stroke:#000000;stroke-width:0.28346;stroke-linecap:round;stroke-linejoin:round;stroke-miterlimit:10;stroke-dasharray:none;stroke-opacity:1"
       id="path72" /><path
       d="m 226.89423,85.25925 c 0,0.15654 -0.12693,0.28346 -0.28348,0.28346 m 0,0 c -0.15656,0 -0.28345,-0.12692 -0.28345,-0.28346 m 0,0 c 0,-0.15656 0.12689,-0.28348 0.28345,-0.28348 m 0,0 c 0.15655,0 0.28348,0.12692 0.28348,0.28348"
       style="fill:none;stroke:#000000;stroke-width:0.28346;stroke-linecap:round;stroke-linejoin:round;stroke-miterlimit:10;stroke-dasharray:none;stroke-opacity:1"
       id="path74" /><path
       d="m 125.98083,85.25925 c 0,0.15654 -0.12692,0.28346 -0.28347,0.28346 m 0,0 c -0.15654,0 -0.28347,-0.12692 -0.28347,-0.28346 m 0,0 c 0,-0.15656 0.12693,-0.28348 0.28347,-0.28348 m 0,0 c 0.15655,0 0.28347,0.12692 0.28347,0.28348"
       style="fill:none;stroke:#000000;stroke-width:0.28346;stroke-linecap:round;stroke-linejoin:round;stroke-miterlimit:10;stroke-dasharray:none;stroke-opacity:1"
       id="path76" /><path
       d="m 176.091,72.74393 c 0,0.15655 -0.12692,0.28346 -0.28347,0.28346 m 0,0 c -0.15656,0 -0.28345,-0.12691 -0.28345,-0.28346 m 0,0 c 0,-0.15656 0.12689,-0.28347 0.28345,-0.28347 m 0,0 c 0.15655,0 0.28347,0.12691 0.28347,0.28347"
       style="fill:none;stroke:#000000;stroke-width:0.28346;stroke-linecap:round;stroke-linejoin:round;stroke-miterlimit:10;stroke-dasharray:none;stroke-opacity:1"
       id="path78" /><path
       d="m 177.22485,72.74393 c 0,0.15655 -0.12692,0.28346 -0.28344,0.28346 m 0,0 c -0.15656,0 -0.28348,-0.12691 -0.28348,-0.28346 m 0,0 c 0,-0.15656 0.12692,-0.28347 0.28348,-0.28347 m 0,0 c 0.15652,0 0.28344,0.12691 0.28344,0.28347"
       style="fill:none;stroke:#000000;stroke-width:0.28346;stroke-linecap:round;stroke-linejoin:round;stroke-miterlimit:10;stroke-dasharray:none;stroke-opacity:1"
       id="path80" /><path
       d="m 286.64218,72.74393 c 0,0.15655 -0.12692,0.28346 -0.28348,0.28346 m 0,0 c -0.15655,0 -0.28347,-0.12691 -0.28347,-0.28346 m 0,0 c 0,-0.15656 0.12692,-0.28347 0.28347,-0.28347 m 0,0 c 0.15656,0 0.28348,0.12691 0.28348,0.28347"
       style="fill:none;stroke:#000000;stroke-width:0.28346;stroke-linecap:round;stroke-linejoin:round;stroke-miterlimit:10;stroke-dasharray:none;stroke-opacity:1"
       id="path82" /><path
       d="m 287.77603,72.74393 c 0,0.15655 -0.12692,0.28346 -0.28348,0.28346 m 0,0 c -0.15655,0 -0.28344,-0.12691 -0.28344,-0.28346 m 0,0 c 0,-0.15656 0.12689,-0.28347 0.28344,-0.28347 m 0,0 c 0.15656,0 0.28348,0.12691 0.28348,0.28347"
       style="fill:none;stroke:#000000;stroke-width:0.28346;stroke-linecap:round;stroke-linejoin:round;stroke-miterlimit:10;stroke-dasharray:none;stroke-opacity:1"
       id="path84" /><path
       d="m 76.2988,15.05006 h 28.34645 m -5.95275,0 h -0.4252 m 6.37795,0 v 0 l -5.95275,0.85039 v -1.70077 l 5.95275,0.85038"
       style="fill:none;stroke:#000000;stroke-width:0.28346;stroke-linecap:round;stroke-linejoin:round;stroke-miterlimit:10;stroke-dasharray:none;stroke-opacity:1"
       id="path86" /><path
       d="m 98.6925,14.19968 5.95275,0.85038 -5.95275,0.85039 z"
       style="fill:#000000;fill-opacity:1;fill-rule:nonzero;stroke:none"
       id="path88" /><path
       d="m 76.2988,15.05006 v 0"
       style="fill:none;stroke:#000000;stroke-width:0.28346;stroke-linecap:round;stroke-linejoin:round;stroke-miterlimit:10;stroke-dasharray:none;stroke-opacity:1"
       id="path90" /><path
       d="m 73.46416,15.05006 c 0,-1.56553 1.2691,-2.83464 2.83464,-2.83464 m 0,0 c 1.56553,0 2.83464,1.26911 2.83464,2.83464 m 0,0 c 0,1.56554 -1.26911,2.83464 -2.83464,2.83464 m 0,0 c -1.56554,0 -2.83464,-1.2691 -2.83464,-2.83464"
       style="fill:none;stroke:#000000;stroke-width:0.28346;stroke-linecap:round;stroke-linejoin:round;stroke-miterlimit:10;stroke-dasharray:none;stroke-opacity:1"
       id="path92" /><path
       d="m 76.2988,15.05006 v 28.34645 m 0,-5.95275 v -0.42519 m 0,6.37794 v 0 l -0.85039,-5.95275 h 1.70078 l -0.85039,5.95275"
       style="fill:none;stroke:#000000;stroke-width:0.28346;stroke-linecap:round;stroke-linejoin:round;stroke-miterlimit:10;stroke-dasharray:none;stroke-opacity:1"
       id="path94" /><path
       d="M 77.14919,37.44376 76.2988,43.39651 75.44841,37.44376 Z"
       style="fill:#000000;fill-opacity:1;fill-rule:nonzero;stroke:none"
       id="path96" /><g
       id="g98"><g
         id="g100"
         clip-path="url(#clipPath104)"><text
           transform="matrix(1,0,0,-1,211.42086,58.68451)"
           style="font-style:italic;font-variant:normal;font-weight:normal;font-stretch:normal;font-size:11.0078px;font-family:'Palatino Linotype';-inkscape-font-specification:PalatinoLinotype-Italic;writing-mode:lr-tb;fill:#000000;fill-opacity:1;fill-rule:nonzero;stroke:none"
           id="text108"><tspan
             x="0"
             y="0"
             id="tspan106">f</tspan></text></g></g><g
       id="g110"><g
         id="g112"
         clip-path="url(#clipPath116)"><text
           transform="matrix(1,0,0,-1,215.19133,54.13727)"
           style="font-style:italic;font-variant:normal;font-weight:normal;font-stretch:normal;font-size:6.6047px;font-family:'Palatino Linotype';-inkscape-font-specification:PalatinoLinotype-Italic;writing-mode:lr-tb;fill:#000000;fill-opacity:1;fill-rule:nonzero;stroke:none"
           id="text120"><tspan
             x="0"
             y="0"
             id="tspan118">1</tspan></text></g></g><g
       id="g122"><g
         id="g124"
         clip-path="url(#clipPath128)"><text
           transform="matrix(1,0,0,-1,218.58807,58.68451)"
           style="font-style:italic;font-variant:normal;font-weight:normal;font-stretch:normal;font-size:11.0078px;font-family:'Palatino Linotype';-inkscape-font-specification:PalatinoLinotype-Italic;writing-mode:lr-tb;fill:#000000;fill-opacity:1;fill-rule:nonzero;stroke:none"
           id="text132"><tspan
             x="0 3.6656108 7.3312216"
             y="0"
             id="tspan130">(t)</tspan></text></g></g><g
       id="g134"><g
         id="g136"
         clip-path="url(#clipPath140)"><text
           transform="matrix(1,0,0,-1,209.44022,37.7923)"
           style="font-style:italic;font-variant:normal;font-weight:normal;font-stretch:normal;font-size:11.0078px;font-family:'Palatino Linotype';-inkscape-font-specification:PalatinoLinotype-Italic;writing-mode:lr-tb;fill:#000000;fill-opacity:1;fill-rule:nonzero;stroke:none"
           id="text144"><tspan
             x="0"
             y="0"
             id="tspan142">k</tspan></text></g></g><g
       id="g146"><g
         id="g148"
         clip-path="url(#clipPath152)"><text
           transform="matrix(1,0,0,-1,215.73727,33.24506)"
           style="font-style:italic;font-variant:normal;font-weight:normal;font-stretch:normal;font-size:6.6047px;font-family:'Palatino Linotype';-inkscape-font-specification:PalatinoLinotype-Italic;writing-mode:lr-tb;fill:#000000;fill-opacity:1;fill-rule:nonzero;stroke:none"
           id="text156"><tspan
             x="0 3.30235"
             y="0"
             id="tspan154">2 </tspan></text></g></g><g
       id="g158"><g
         id="g160"
         clip-path="url(#clipPath164)"><text
           transform="matrix(1,0,0,-1,220.8324,37.7923)"
           style="font-style:italic;font-variant:normal;font-weight:normal;font-stretch:normal;font-size:11.0078px;font-family:'Palatino Linotype';-inkscape-font-specification:PalatinoLinotype-Italic;writing-mode:lr-tb;fill:#000000;fill-opacity:1;fill-rule:nonzero;stroke:none"
           id="text168"><tspan
             x="0 3.6656108"
             y="0"
             id="tspan166">(x</tspan></text></g></g><g
       id="g170"><g
         id="g172"
         clip-path="url(#clipPath176)"><text
           transform="matrix(1,0,0,-1,230.44656,33.24506)"
           style="font-style:italic;font-variant:normal;font-weight:normal;font-stretch:normal;font-size:6.6047px;font-family:'Palatino Linotype';-inkscape-font-specification:PalatinoLinotype-Italic;writing-mode:lr-tb;fill:#000000;fill-opacity:1;fill-rule:nonzero;stroke:none"
           id="text180"><tspan
             x="0"
             y="0"
             id="tspan178">2</tspan></text></g></g><g
       id="g182"><g
         id="g184"
         clip-path="url(#clipPath188)"><text
           transform="matrix(1,0,0,-1,233.8433,37.7923)"
           style="font-style:italic;font-variant:normal;font-weight:normal;font-stretch:normal;font-size:11.0078px;font-family:'Palatino Linotype';-inkscape-font-specification:PalatinoLinotype-Italic;writing-mode:lr-tb;fill:#000000;fill-opacity:1;fill-rule:nonzero;stroke:none"
           id="text192"><tspan
             x="0 3.6656108"
             y="0"
             id="tspan190">-x</tspan></text></g></g><g
       id="g194"><g
         id="g196"
         clip-path="url(#clipPath200)"><text
           transform="matrix(1,0,0,-1,243.45749,33.24506)"
           style="font-style:italic;font-variant:normal;font-weight:normal;font-stretch:normal;font-size:6.6047px;font-family:'Palatino Linotype';-inkscape-font-specification:PalatinoLinotype-Italic;writing-mode:lr-tb;fill:#000000;fill-opacity:1;fill-rule:nonzero;stroke:none"
           id="text204"><tspan
             x="0"
             y="0"
             id="tspan202">1</tspan></text></g></g><g
       id="g206"><g
         id="g208"
         clip-path="url(#clipPath212)"><text
           transform="matrix(1,0,0,-1,246.85423,37.7923)"
           style="font-style:italic;font-variant:normal;font-weight:normal;font-stretch:normal;font-size:11.0078px;font-family:'Palatino Linotype';-inkscape-font-specification:PalatinoLinotype-Italic;writing-mode:lr-tb;fill:#000000;fill-opacity:1;fill-rule:nonzero;stroke:none"
           id="text216"><tspan
             x="0"
             y="0"
             id="tspan214">)</tspan></text></g></g><g
       id="g218"><g
         id="g220"
         clip-path="url(#clipPath224)"><text
           transform="matrix(1,0,0,-1,209.44022,78.6112)"
           style="font-style:italic;font-variant:normal;font-weight:normal;font-stretch:normal;font-size:11.0078px;font-family:'Palatino Linotype';-inkscape-font-specification:PalatinoLinotype-Italic;writing-mode:lr-tb;fill:#000000;fill-opacity:1;fill-rule:nonzero;stroke:none"
           id="text228"><tspan
             x="0"
             y="0"
             id="tspan226">c</tspan></text></g></g><g
       id="g230"><g
         id="g232"
         clip-path="url(#clipPath236)"><text
           transform="matrix(1,0,0,-1,214.46569,74.06396)"
           style="font-style:italic;font-variant:normal;font-weight:normal;font-stretch:normal;font-size:6.6047px;font-family:'Palatino Linotype';-inkscape-font-specification:PalatinoLinotype-Italic;writing-mode:lr-tb;fill:#000000;fill-opacity:1;fill-rule:nonzero;stroke:none"
           id="text240"><tspan
             x="0 3.30235"
             y="0"
             id="tspan238">2 </tspan></text></g></g><g
       id="g242"><g
         id="g244"
         clip-path="url(#clipPath248)"><text
           transform="matrix(1,0,0,-1,219.56082,78.6112)"
           style="font-style:italic;font-variant:normal;font-weight:normal;font-stretch:normal;font-size:11.0078px;font-family:'Palatino Linotype';-inkscape-font-specification:PalatinoLinotype-Italic;writing-mode:lr-tb;fill:#000000;fill-opacity:1;fill-rule:nonzero;stroke:none"
           id="text252"><tspan
             x="0 3.6656108"
             y="0"
             id="tspan250">(x</tspan></text></g></g><g
       id="g254"><g
         id="g256"
         clip-path="url(#clipPath260)"><text
           transform="matrix(1,0,0,-1,229.175,74.06396)"
           style="font-style:italic;font-variant:normal;font-weight:normal;font-stretch:normal;font-size:6.6047px;font-family:'Palatino Linotype';-inkscape-font-specification:PalatinoLinotype-Italic;writing-mode:lr-tb;fill:#000000;fill-opacity:1;fill-rule:nonzero;stroke:none"
           id="text264"><tspan
             x="0"
             y="0"
             id="tspan262">2</tspan></text></g></g><g
       id="g266"><g
         id="g268"
         clip-path="url(#clipPath272)"><text
           transform="matrix(1,0,0,-1,232.57174,78.6112)"
           style="font-style:italic;font-variant:normal;font-weight:normal;font-stretch:normal;font-size:11.0078px;font-family:'Palatino Linotype';-inkscape-font-specification:PalatinoLinotype-Italic;writing-mode:lr-tb;fill:#000000;fill-opacity:1;fill-rule:nonzero;stroke:none"
           id="text276"><tspan
             x="0 3.6656108"
             y="0"
             id="tspan274">-x</tspan></text></g></g><g
       id="g278"><g
         id="g280"
         clip-path="url(#clipPath284)"><text
           transform="matrix(1,0,0,-1,242.18593,74.06396)"
           style="font-style:italic;font-variant:normal;font-weight:normal;font-stretch:normal;font-size:6.6047px;font-family:'Palatino Linotype';-inkscape-font-specification:PalatinoLinotype-Italic;writing-mode:lr-tb;fill:#000000;fill-opacity:1;fill-rule:nonzero;stroke:none"
           id="text288"><tspan
             x="0"
             y="0"
             id="tspan286">1</tspan></text></g></g><g
       id="g290"><g
         id="g292"
         clip-path="url(#clipPath296)"><text
           transform="matrix(1,0,0,-1,245.58267,78.6112)"
           style="font-style:italic;font-variant:normal;font-weight:normal;font-stretch:normal;font-size:11.0078px;font-family:'Palatino Linotype';-inkscape-font-specification:PalatinoLinotype-Italic;writing-mode:lr-tb;fill:#000000;fill-opacity:1;fill-rule:nonzero;stroke:none"
           id="text300"><tspan
             x="0"
             y="0"
             id="tspan298">)</tspan></text></g></g><g
       id="g302"><g
         id="g304"
         clip-path="url(#clipPath308)"><text
           transform="matrix(1,0,0,-1,270.24261,66.70569)"
           style="font-style:italic;font-variant:normal;font-weight:normal;font-stretch:normal;font-size:11.0078px;font-family:'Palatino Linotype';-inkscape-font-specification:PalatinoLinotype-Italic;writing-mode:lr-tb;fill:#000000;fill-opacity:1;fill-rule:nonzero;stroke:none"
           id="text312"><tspan
             x="0"
             y="0"
             id="tspan310">m</tspan></text></g></g><g
       id="g314"><g
         id="g316"
         clip-path="url(#clipPath320)"><text
           transform="matrix(1,0,0,-1,280.23824,62.15844)"
           style="font-style:italic;font-variant:normal;font-weight:normal;font-stretch:normal;font-size:6.6047px;font-family:'Palatino Linotype';-inkscape-font-specification:PalatinoLinotype-Italic;writing-mode:lr-tb;fill:#000000;fill-opacity:1;fill-rule:nonzero;stroke:none"
           id="text324"><tspan
             x="0"
             y="0"
             id="tspan322">2</tspan></text></g></g><g
       id="g326"><g
         id="g328"
         clip-path="url(#clipPath332)"><text
           transform="matrix(1,0,0,-1,283.63501,66.70569)"
           style="font-style:italic;font-variant:normal;font-weight:normal;font-stretch:normal;font-size:11.0078px;font-family:'Palatino Linotype';-inkscape-font-specification:PalatinoLinotype-Italic;writing-mode:lr-tb;fill:#000000;fill-opacity:1;fill-rule:nonzero;stroke:none"
           id="text336"><tspan
             x="0"
             y="0"
             id="tspan334">x</tspan></text></g></g><g
       id="g338"><g
         id="g340"
         clip-path="url(#clipPath344)"><text
           transform="matrix(1,0,0,-1,289.47869,62.15844)"
           style="font-style:italic;font-variant:normal;font-weight:normal;font-stretch:normal;font-size:6.6047px;font-family:'Palatino Linotype';-inkscape-font-specification:PalatinoLinotype-Italic;writing-mode:lr-tb;fill:#000000;fill-opacity:1;fill-rule:nonzero;stroke:none"
           id="text348"><tspan
             x="0"
             y="0"
             id="tspan346">2</tspan></text></g></g><g
       id="g350"><g
         id="g352"
         clip-path="url(#clipPath356)"><text
           transform="matrix(1,0,0,-1,321.35265,59.44225)"
           style="font-style:italic;font-variant:normal;font-weight:normal;font-stretch:normal;font-size:11.0078px;font-family:'Palatino Linotype';-inkscape-font-specification:PalatinoLinotype-Italic;writing-mode:lr-tb;fill:#000000;fill-opacity:1;fill-rule:nonzero;stroke:none"
           id="text360"><tspan
             x="0"
             y="0"
             id="tspan358">f</tspan></text></g></g><g
       id="g362"><g
         id="g364"
         clip-path="url(#clipPath368)"><text
           transform="matrix(1,0,0,-1,325.12312,54.89501)"
           style="font-style:italic;font-variant:normal;font-weight:normal;font-stretch:normal;font-size:6.6047px;font-family:'Palatino Linotype';-inkscape-font-specification:PalatinoLinotype-Italic;writing-mode:lr-tb;fill:#000000;fill-opacity:1;fill-rule:nonzero;stroke:none"
           id="text372"><tspan
             x="0"
             y="0"
             id="tspan370">2</tspan></text></g></g><g
       id="g374"><g
         id="g376"
         clip-path="url(#clipPath380)"><text
           transform="matrix(1,0,0,-1,328.51989,59.44225)"
           style="font-style:italic;font-variant:normal;font-weight:normal;font-stretch:normal;font-size:11.0078px;font-family:'Palatino Linotype';-inkscape-font-specification:PalatinoLinotype-Italic;writing-mode:lr-tb;fill:#000000;fill-opacity:1;fill-rule:nonzero;stroke:none"
           id="text384"><tspan
             x="0 3.6656108 7.3312216"
             y="0"
             id="tspan382">(t)</tspan></text></g></g><g
       id="g386"><g
         id="g388"
         clip-path="url(#clipPath392)"><text
           transform="matrix(1,0,0,-1,113.86387,78.6112)"
           style="font-style:italic;font-variant:normal;font-weight:normal;font-stretch:normal;font-size:11.0078px;font-family:'Palatino Linotype';-inkscape-font-specification:PalatinoLinotype-Italic;writing-mode:lr-tb;fill:#000000;fill-opacity:1;fill-rule:nonzero;stroke:none"
           id="text396"><tspan
             x="0"
             y="0"
             id="tspan394">c</tspan></text></g></g><g
       id="g398"><g
         id="g400"
         clip-path="url(#clipPath404)"><text
           transform="matrix(1,0,0,-1,118.88934,74.06396)"
           style="font-style:italic;font-variant:normal;font-weight:normal;font-stretch:normal;font-size:6.6047px;font-family:'Palatino Linotype';-inkscape-font-specification:PalatinoLinotype-Italic;writing-mode:lr-tb;fill:#000000;fill-opacity:1;fill-rule:nonzero;stroke:none"
           id="text408"><tspan
             x="0"
             y="0"
             id="tspan406">1</tspan></text></g></g><g
       id="g410"><g
         id="g412"
         clip-path="url(#clipPath416)"><text
           transform="matrix(1,0,0,-1,122.28609,78.6112)"
           style="font-style:italic;font-variant:normal;font-weight:normal;font-stretch:normal;font-size:11.0078px;font-family:'Palatino Linotype';-inkscape-font-specification:PalatinoLinotype-Italic;writing-mode:lr-tb;fill:#000000;fill-opacity:1;fill-rule:nonzero;stroke:none"
           id="text420"><tspan
             x="0"
             y="0"
             id="tspan418">x</tspan></text></g></g><g
       id="g422"><g
         id="g424"
         clip-path="url(#clipPath428)"><text
           transform="matrix(1,0,0,-1,128.12978,74.06396)"
           style="font-style:italic;font-variant:normal;font-weight:normal;font-stretch:normal;font-size:6.6047px;font-family:'Palatino Linotype';-inkscape-font-specification:PalatinoLinotype-Italic;writing-mode:lr-tb;fill:#000000;fill-opacity:1;fill-rule:nonzero;stroke:none"
           id="text432"><tspan
             x="0"
             y="0"
             id="tspan430">1</tspan></text></g></g><g
       id="g434"><g
         id="g436"
         clip-path="url(#clipPath440)"><text
           transform="matrix(1,0,0,-1,113.86387,37.7923)"
           style="font-style:italic;font-variant:normal;font-weight:normal;font-stretch:normal;font-size:11.0078px;font-family:'Palatino Linotype';-inkscape-font-specification:PalatinoLinotype-Italic;writing-mode:lr-tb;fill:#000000;fill-opacity:1;fill-rule:nonzero;stroke:none"
           id="text444"><tspan
             x="0"
             y="0"
             id="tspan442">k</tspan></text></g></g><g
       id="g446"><g
         id="g448"
         clip-path="url(#clipPath452)"><text
           transform="matrix(1,0,0,-1,120.16091,33.24506)"
           style="font-style:italic;font-variant:normal;font-weight:normal;font-stretch:normal;font-size:6.6047px;font-family:'Palatino Linotype';-inkscape-font-specification:PalatinoLinotype-Italic;writing-mode:lr-tb;fill:#000000;fill-opacity:1;fill-rule:nonzero;stroke:none"
           id="text456"><tspan
             x="0"
             y="0"
             id="tspan454">1</tspan></text></g></g><g
       id="g458"><g
         id="g460"
         clip-path="url(#clipPath464)"><text
           transform="matrix(1,0,0,-1,123.55766,37.7923)"
           style="font-style:italic;font-variant:normal;font-weight:normal;font-stretch:normal;font-size:11.0078px;font-family:'Palatino Linotype';-inkscape-font-specification:PalatinoLinotype-Italic;writing-mode:lr-tb;fill:#000000;fill-opacity:1;fill-rule:nonzero;stroke:none"
           id="text468"><tspan
             x="0"
             y="0"
             id="tspan466">x</tspan></text></g></g><g
       id="g470"><g
         id="g472"
         clip-path="url(#clipPath476)"><text
           transform="matrix(1,0,0,-1,129.40135,33.24506)"
           style="font-style:italic;font-variant:normal;font-weight:normal;font-stretch:normal;font-size:6.6047px;font-family:'Palatino Linotype';-inkscape-font-specification:PalatinoLinotype-Italic;writing-mode:lr-tb;fill:#000000;fill-opacity:1;fill-rule:nonzero;stroke:none"
           id="text480"><tspan
             x="0"
             y="0"
             id="tspan478">1</tspan></text></g></g><g
       id="g482"><g
         id="g484"
         clip-path="url(#clipPath488)"><text
           transform="matrix(1,0,0,-1,159.69143,66.70569)"
           style="font-style:italic;font-variant:normal;font-weight:normal;font-stretch:normal;font-size:11.0078px;font-family:'Palatino Linotype';-inkscape-font-specification:PalatinoLinotype-Italic;writing-mode:lr-tb;fill:#000000;fill-opacity:1;fill-rule:nonzero;stroke:none"
           id="text492"><tspan
             x="0"
             y="0"
             id="tspan490">m</tspan></text></g></g><g
       id="g494"><g
         id="g496"
         clip-path="url(#clipPath500)"><text
           transform="matrix(1,0,0,-1,169.68707,62.15844)"
           style="font-style:italic;font-variant:normal;font-weight:normal;font-stretch:normal;font-size:6.6047px;font-family:'Palatino Linotype';-inkscape-font-specification:PalatinoLinotype-Italic;writing-mode:lr-tb;fill:#000000;fill-opacity:1;fill-rule:nonzero;stroke:none"
           id="text504"><tspan
             x="0"
             y="0"
             id="tspan502">1</tspan></text></g></g><g
       id="g506"><g
         id="g508"
         clip-path="url(#clipPath512)"><text
           transform="matrix(1,0,0,-1,173.08381,66.70569)"
           style="font-style:italic;font-variant:normal;font-weight:normal;font-stretch:normal;font-size:11.0078px;font-family:'Palatino Linotype';-inkscape-font-specification:PalatinoLinotype-Italic;writing-mode:lr-tb;fill:#000000;fill-opacity:1;fill-rule:nonzero;stroke:none"
           id="text516"><tspan
             x="0"
             y="0"
             id="tspan514">x</tspan></text></g></g><g
       id="g518"><g
         id="g520"
         clip-path="url(#clipPath524)"><text
           transform="matrix(1,0,0,-1,178.92751,62.15844)"
           style="font-style:italic;font-variant:normal;font-weight:normal;font-stretch:normal;font-size:6.6047px;font-family:'Palatino Linotype';-inkscape-font-specification:PalatinoLinotype-Italic;writing-mode:lr-tb;fill:#000000;fill-opacity:1;fill-rule:nonzero;stroke:none"
           id="text528"><tspan
             x="0"
             y="0"
             id="tspan526">1</tspan></text></g></g><g
       id="g530"><g
         id="g532"
         clip-path="url(#clipPath536)"><text
           transform="matrix(1,0,0,-1,107.5724,12.81911)"
           style="font-style:italic;font-variant:normal;font-weight:normal;font-stretch:normal;font-size:11.0078px;font-family:'Palatino Linotype';-inkscape-font-specification:PalatinoLinotype-Italic;writing-mode:lr-tb;fill:#000000;fill-opacity:1;fill-rule:nonzero;stroke:none"
           id="text540"><tspan
             x="0"
             y="0"
             id="tspan538">x</tspan></text></g></g><g
       id="g542"><g
         id="g544"
         clip-path="url(#clipPath548)"><text
           transform="matrix(1,0,0,-1,73.68626,44.90233)"
           style="font-style:italic;font-variant:normal;font-weight:normal;font-stretch:normal;font-size:11.0078px;font-family:'Palatino Linotype';-inkscape-font-specification:PalatinoLinotype-Italic;writing-mode:lr-tb;fill:#000000;fill-opacity:1;fill-rule:nonzero;stroke:none"
           id="text552"><tspan
             x="0"
             y="0"
             id="tspan550">z</tspan></text></g></g><g
       id="g554"><g
         id="g556"
         clip-path="url(#clipPath560)"><text
           transform="matrix(1,0,0,-1,67.11566,17.46535)"
           style="font-style:italic;font-variant:normal;font-weight:normal;font-stretch:normal;font-size:11.0078px;font-family:'Palatino Linotype';-inkscape-font-specification:PalatinoLinotype-Italic;writing-mode:lr-tb;fill:#000000;fill-opacity:1;fill-rule:nonzero;stroke:none"
           id="text564"><tspan
             x="0"
             y="0"
             id="tspan562">y</tspan></text></g></g></g></svg>
