<?xml version="1.0" encoding="UTF-8" standalone="no"?>
<svg
   xmlns:dc="http://purl.org/dc/elements/1.1/"
   xmlns:cc="http://creativecommons.org/ns#"
   xmlns:rdf="http://www.w3.org/1999/02/22-rdf-syntax-ns#"
   xmlns:svg="http://www.w3.org/2000/svg"
   xmlns="http://www.w3.org/2000/svg"
   version="1.1"
   id="svg2"
   xml:space="preserve"
   width="566.92932"
   height="151.18134"
   viewBox="0 0 566.92932 151.18134"><metadata
     id="metadata8"><rdf:RDF><cc:Work
         rdf:about=""><dc:format>image/svg+xml</dc:format><dc:type
           rdf:resource="http://purl.org/dc/dcmitype/StillImage" /></cc:Work></rdf:RDF></metadata><defs
     id="defs6"><clipPath
       clipPathUnits="userSpaceOnUse"
       id="clipPath108"><path
         d="M -0.00426,-0.00113 V 113.38696 H 425.20111 V -0.00113 H -0.00426"
         clip-rule="evenodd"
         id="path106" /></clipPath><clipPath
       clipPathUnits="userSpaceOnUse"
       id="clipPath122"><path
         d="M -0.00426,-0.00113 V 113.38696 H 425.20111 V -0.00113 H -0.00426"
         clip-rule="evenodd"
         id="path120" /></clipPath><clipPath
       clipPathUnits="userSpaceOnUse"
       id="clipPath134"><path
         d="M -0.00426,-0.00113 V 113.38696 H 425.20111 V -0.00113 H -0.00426"
         clip-rule="evenodd"
         id="path132" /></clipPath><clipPath
       clipPathUnits="userSpaceOnUse"
       id="clipPath146"><path
         d="M -0.00426,-0.00113 V 113.38696 H 425.20111 V -0.00113 H -0.00426"
         clip-rule="evenodd"
         id="path144" /></clipPath><clipPath
       clipPathUnits="userSpaceOnUse"
       id="clipPath158"><path
         d="M -0.00426,-0.00113 V 113.38696 H 425.20111 V -0.00113 H -0.00426"
         clip-rule="evenodd"
         id="path156" /></clipPath><clipPath
       clipPathUnits="userSpaceOnUse"
       id="clipPath170"><path
         d="M -0.00426,-0.00113 V 113.38696 H 425.20111 V -0.00113 H -0.00426"
         clip-rule="evenodd"
         id="path168" /></clipPath><clipPath
       clipPathUnits="userSpaceOnUse"
       id="clipPath182"><path
         d="M -0.00426,-0.00113 V 113.38696 H 425.20111 V -0.00113 H -0.00426"
         clip-rule="evenodd"
         id="path180" /></clipPath><clipPath
       clipPathUnits="userSpaceOnUse"
       id="clipPath194"><path
         d="M -0.00426,-0.00113 V 113.38696 H 425.20111 V -0.00113 H -0.00426"
         clip-rule="evenodd"
         id="path192" /></clipPath><clipPath
       clipPathUnits="userSpaceOnUse"
       id="clipPath206"><path
         d="M -0.00426,-0.00113 V 113.38696 H 425.20111 V -0.00113 H -0.00426"
         clip-rule="evenodd"
         id="path204" /></clipPath><clipPath
       clipPathUnits="userSpaceOnUse"
       id="clipPath218"><path
         d="M -0.00426,-0.00113 V 113.38696 H 425.20111 V -0.00113 H -0.00426"
         clip-rule="evenodd"
         id="path216" /></clipPath><clipPath
       clipPathUnits="userSpaceOnUse"
       id="clipPath230"><path
         d="M -0.00426,-0.00113 V 113.38696 H 425.20111 V -0.00113 H -0.00426"
         clip-rule="evenodd"
         id="path228" /></clipPath><clipPath
       clipPathUnits="userSpaceOnUse"
       id="clipPath242"><path
         d="M -0.00426,-0.00113 V 113.38696 H 425.20111 V -0.00113 H -0.00426"
         clip-rule="evenodd"
         id="path240" /></clipPath><clipPath
       clipPathUnits="userSpaceOnUse"
       id="clipPath254"><path
         d="M -0.00426,-0.00113 V 113.38696 H 425.20111 V -0.00113 H -0.00426"
         clip-rule="evenodd"
         id="path252" /></clipPath><clipPath
       clipPathUnits="userSpaceOnUse"
       id="clipPath266"><path
         d="M -0.00426,-0.00113 V 113.38696 H 425.20111 V -0.00113 H -0.00426"
         clip-rule="evenodd"
         id="path264" /></clipPath><clipPath
       clipPathUnits="userSpaceOnUse"
       id="clipPath278"><path
         d="M -0.00426,-0.00113 V 113.38696 H 425.20111 V -0.00113 H -0.00426"
         clip-rule="evenodd"
         id="path276" /></clipPath><clipPath
       clipPathUnits="userSpaceOnUse"
       id="clipPath290"><path
         d="M -0.00426,-0.00113 V 113.38696 H 425.20111 V -0.00113 H -0.00426"
         clip-rule="evenodd"
         id="path288" /></clipPath><clipPath
       clipPathUnits="userSpaceOnUse"
       id="clipPath302"><path
         d="M -0.00426,-0.00113 V 113.38696 H 425.20111 V -0.00113 H -0.00426"
         clip-rule="evenodd"
         id="path300" /></clipPath></defs><g
     id="g10"
     transform="matrix(1.3333333,0,0,-1.3333333,0,151.18133)"><path
       d="m 68.85289,19.41417 v 17.00787 m 0,-2.83464 v -0.70866 m 0,3.5433 v 0 L 67.22296,33.5874 h 3.25984 l -1.62991,2.83464"
       style="fill:none;stroke:#000000;stroke-width:0.28346;stroke-linecap:round;stroke-linejoin:round;stroke-miterlimit:10;stroke-dasharray:none;stroke-opacity:1"
       id="path12" /><path
       d="M 70.4828,33.5874 68.85289,36.42204 67.22296,33.5874 Z"
       style="fill:#000000;fill-opacity:1;fill-rule:nonzero;stroke:none"
       id="path14" /><path
       d="m 68.85289,19.41417 h 17.00787 m -2.83464,0 h -0.70866 m 3.5433,0 v 0 l -2.83464,1.62993 v -3.25984 l 2.83464,1.62991"
       style="fill:none;stroke:#000000;stroke-width:0.28346;stroke-linecap:round;stroke-linejoin:round;stroke-miterlimit:10;stroke-dasharray:none;stroke-opacity:1"
       id="path16" /><path
       d="m 83.02612,17.78426 2.83464,1.62991 -2.83464,1.62993 z"
       style="fill:#000000;fill-opacity:1;fill-rule:nonzero;stroke:none"
       id="path18" /><path
       d="m 352.31744,19.41417 v 17.00787 m 0,-2.83464 v -0.70866 m 0,3.5433 v 0 l -1.62991,-2.83464 h 3.25983 l -1.62992,2.83464"
       style="fill:none;stroke:#000000;stroke-width:0.28346;stroke-linecap:round;stroke-linejoin:round;stroke-miterlimit:10;stroke-dasharray:none;stroke-opacity:1"
       id="path20" /><path
       d="m 353.94736,33.5874 -1.62992,2.83464 -1.62991,-2.83464 z"
       style="fill:#000000;fill-opacity:1;fill-rule:nonzero;stroke:none"
       id="path22" /><path
       d="m 352.31744,19.41417 h 17.00788 m -2.83466,0 h -0.70865 m 3.54331,0 v 0 l -2.83466,1.62993 v -3.25984 l 2.83466,1.62991"
       style="fill:none;stroke:#000000;stroke-width:0.28346;stroke-linecap:round;stroke-linejoin:round;stroke-miterlimit:10;stroke-dasharray:none;stroke-opacity:1"
       id="path24" /><path
       d="m 366.49066,17.78426 2.83466,1.62991 -2.83466,1.62993 z"
       style="fill:#000000;fill-opacity:1;fill-rule:nonzero;stroke:none"
       id="path26" /><path
       d="m 68.85289,19.41417 h 283.46455 m -282.18896,0 v 0 m -2.55118,0 v 0 m 1.27559,1.27559 v 0 m 0,-2.55116 v 0"
       style="fill:none;stroke:#000000;stroke-width:0.85039;stroke-linecap:round;stroke-linejoin:round;stroke-miterlimit:10;stroke-dasharray:none;stroke-opacity:1"
       id="path28" /><path
       d="m 70.12848,19.41417 c 0,0.7045 -0.57111,1.27559 -1.27559,1.27559 m 0,0 c -0.70448,0 -1.27559,-0.57109 -1.27559,-1.27559 m 0,0 c 0,-0.70448 0.57111,-1.27559 1.27559,-1.27559 m 0,0 c 0.70448,0 1.27559,0.57111 1.27559,1.27559 m 0,0 c 0,0 0,0 0,0"
       style="fill:none;stroke:#000000;stroke-width:0.85039;stroke-linecap:round;stroke-linejoin:round;stroke-miterlimit:10;stroke-dasharray:none;stroke-opacity:1"
       id="path30" /><path
       d="m 67.75589,18.77638 v 1.27559 l -0.17859,-0.6378 z"
       style="fill:#000000;fill-opacity:1;fill-rule:nonzero;stroke:none"
       id="path32" /><path
       d="M 67.75589,20.05197 V 18.77638 L 68.2151,18.31717 Z"
       style="fill:#000000;fill-opacity:1;fill-rule:nonzero;stroke:none"
       id="path34" /><path
       d="m 67.75589,20.05197 0.45921,-1.7348 v 2.19401 z"
       style="fill:#000000;fill-opacity:1;fill-rule:nonzero;stroke:none"
       id="path36" /><path
       d="M 68.2151,20.51118 V 18.31717 L 68.85289,18.1386 Z"
       style="fill:#000000;fill-opacity:1;fill-rule:nonzero;stroke:none"
       id="path38" /><path
       d="m 68.2151,20.51118 0.63779,-2.37258 v 2.55116 z"
       style="fill:#000000;fill-opacity:1;fill-rule:nonzero;stroke:none"
       id="path40" /><path
       d="M 68.85289,20.68976 V 18.1386 l 0.63779,0.17857 z"
       style="fill:#000000;fill-opacity:1;fill-rule:nonzero;stroke:none"
       id="path42" /><path
       d="m 68.85289,20.68976 0.63779,-2.37259 v 2.19401 z"
       style="fill:#000000;fill-opacity:1;fill-rule:nonzero;stroke:none"
       id="path44" /><path
       d="m 69.49068,20.51118 v -2.19401 l 0.45921,0.45921 z"
       style="fill:#000000;fill-opacity:1;fill-rule:nonzero;stroke:none"
       id="path46" /><path
       d="m 69.49068,20.51118 0.45921,-1.7348 v 1.27559 z"
       style="fill:#000000;fill-opacity:1;fill-rule:nonzero;stroke:none"
       id="path48" /><path
       d="m 69.94989,20.05197 v -1.27559 l 0.17859,0.63779 z"
       style="fill:#000000;fill-opacity:1;fill-rule:nonzero;stroke:none"
       id="path50" /><path
       d="m 353.59305,19.41417 v 0 m -2.55118,0 v 0 m 1.27557,1.27559 v 0 m 0,-2.55116 v 0"
       style="fill:none;stroke:#000000;stroke-width:0.85039;stroke-linecap:round;stroke-linejoin:round;stroke-miterlimit:10;stroke-dasharray:none;stroke-opacity:1"
       id="path52" /><path
       d="m 353.59305,19.41417 c 0,0.7045 -0.57111,1.27559 -1.27561,1.27559 m 0,0 c -0.70449,0 -1.27557,-0.57109 -1.27557,-1.27559 m 0,0 c 0,-0.70448 0.57108,-1.27559 1.27557,-1.27559 m 0,0 c 0.7045,0 1.27561,0.57111 1.27561,1.27559 m 0,0 c 0,0 0,0 0,0"
       style="fill:none;stroke:#000000;stroke-width:0.85039;stroke-linecap:round;stroke-linejoin:round;stroke-miterlimit:10;stroke-dasharray:none;stroke-opacity:1"
       id="path54" /><path
       d="m 351.22046,18.77638 v 1.27559 l -0.17859,-0.6378 z"
       style="fill:#000000;fill-opacity:1;fill-rule:nonzero;stroke:none"
       id="path56" /><path
       d="m 351.22046,20.05197 v -1.27559 l 0.4592,-0.45921 z"
       style="fill:#000000;fill-opacity:1;fill-rule:nonzero;stroke:none"
       id="path58" /><path
       d="m 351.22046,20.05197 0.4592,-1.7348 v 2.19401 z"
       style="fill:#000000;fill-opacity:1;fill-rule:nonzero;stroke:none"
       id="path60" /><path
       d="m 351.67966,20.51118 v -2.19401 l 0.63778,-0.17857 z"
       style="fill:#000000;fill-opacity:1;fill-rule:nonzero;stroke:none"
       id="path62" /><path
       d="m 351.67966,20.51118 0.63778,-2.37258 v 2.55116 z"
       style="fill:#000000;fill-opacity:1;fill-rule:nonzero;stroke:none"
       id="path64" /><path
       d="M 352.31744,20.68976 V 18.1386 l 0.63779,0.17857 z"
       style="fill:#000000;fill-opacity:1;fill-rule:nonzero;stroke:none"
       id="path66" /><path
       d="m 352.31744,20.68976 0.63779,-2.37259 v 2.19401 z"
       style="fill:#000000;fill-opacity:1;fill-rule:nonzero;stroke:none"
       id="path68" /><path
       d="m 352.95523,20.51118 v -2.19401 l 0.45923,0.45921 z"
       style="fill:#000000;fill-opacity:1;fill-rule:nonzero;stroke:none"
       id="path70" /><path
       d="m 352.95523,20.51118 0.45923,-1.7348 v 1.27559 z"
       style="fill:#000000;fill-opacity:1;fill-rule:nonzero;stroke:none"
       id="path72" /><path
       d="m 353.41446,20.05197 v -1.27559 l 0.17859,0.63779 z"
       style="fill:#000000;fill-opacity:1;fill-rule:nonzero;stroke:none"
       id="path74" /><path
       d="M 58.1981,15.53615 C 60.33987,9.65167 66.84644,6.61761 72.73091,8.75938 m 0,0 c 5.88448,2.14179 8.91853,8.64833 6.77677,14.53281 m 0,0 c -2.14179,5.88448 -8.64834,8.91853 -14.53281,6.77676 m 0,0 C 64.3546,29.8432 63.75523,29.56371 63.18359,29.23367"
       style="fill:none;stroke:#000000;stroke-width:0.28346;stroke-linecap:round;stroke-linejoin:round;stroke-miterlimit:10;stroke-dasharray:none;stroke-opacity:1"
       id="path76" /><path
       d="m 58.49037,15.05035 -0.29227,0.4858 m 1.46131,-2.42896 0.36532,-0.60724 m -1.82663,3.0362 v 0 l 0.06466,-3.2692 2.79329,1.68048 -2.85795,1.58872"
       style="fill:none;stroke:#000000;stroke-width:0.28346;stroke-linecap:round;stroke-linejoin:round;stroke-miterlimit:10;stroke-dasharray:none;stroke-opacity:1"
       id="path78" /><path
       d="m 61.05605,13.94743 -2.85795,1.58872 0.06466,-3.2692 z"
       style="fill:#000000;fill-opacity:1;fill-rule:nonzero;stroke:none"
       id="path80" /><path
       d="m 341.66266,15.53615 c 2.14178,-5.88448 8.64834,-8.91854 14.53281,-6.77677 m 0,0 c 5.88449,2.14179 8.91854,8.64833 6.77676,14.53281 m 0,0 c -2.14179,5.88448 -8.64835,8.91853 -14.53281,6.77676 m 0,0 c -0.62027,-0.22575 -1.21963,-0.50524 -1.79126,-0.83528"
       style="fill:none;stroke:#000000;stroke-width:0.28346;stroke-linecap:round;stroke-linejoin:round;stroke-miterlimit:10;stroke-dasharray:none;stroke-opacity:1"
       id="path82" /><path
       d="m 341.95493,15.05035 -0.29227,0.4858 m 1.4613,-2.42896 0.36533,-0.60724 m -1.82663,3.0362 v 0 l 0.0647,-3.2692 2.79327,1.68048 -2.85794,1.58872"
       style="fill:none;stroke:#000000;stroke-width:0.28346;stroke-linecap:round;stroke-linejoin:round;stroke-miterlimit:10;stroke-dasharray:none;stroke-opacity:1"
       id="path84" /><path
       d="m 344.5206,13.94743 -2.85794,1.58872 0.0647,-3.2692 2.79327,1.68048 z"
       style="fill:#000000;fill-opacity:1;fill-rule:nonzero;stroke:none"
       id="path86" /><path
       d="m 59.38898,91.36374 v 0 h 28.34646 m -5.95276,0 h -0.4252 m 6.37796,0 v 0 l -5.95276,0.85039 v -1.70078 l 5.95276,0.85039"
       style="fill:none;stroke:#000000;stroke-width:0.28346;stroke-linecap:round;stroke-linejoin:round;stroke-miterlimit:10;stroke-dasharray:none;stroke-opacity:1"
       id="path88" /><path
       d="m 81.78268,90.51335 5.95276,0.85039 -5.95276,0.85039 z"
       style="fill:#000000;fill-opacity:1;fill-rule:nonzero;stroke:none"
       id="path90" /><path
       d="m 56.55434,91.36374 c 0,-1.56554 1.2691,-2.83466 2.83464,-2.83466 m 0,0 c 1.56553,0 2.83465,1.26912 2.83465,2.83466 m 0,0 c 0,1.56552 -1.26912,2.83464 -2.83465,2.83464 m 0,0 c -1.56554,0 -2.83464,-1.26912 -2.83464,-2.83464"
       style="fill:none;stroke:#000000;stroke-width:0.28346;stroke-linecap:round;stroke-linejoin:round;stroke-miterlimit:10;stroke-dasharray:none;stroke-opacity:1"
       id="path92" /><path
       d="M 59.38898,91.36374 V 63.01727 m 0,5.95276 v 0.4252 m 0,-6.37796 v 0 l 0.8504,5.95276 h -1.70079 l 0.85039,-5.95276"
       style="fill:none;stroke:#000000;stroke-width:0.28346;stroke-linecap:round;stroke-linejoin:round;stroke-miterlimit:10;stroke-dasharray:none;stroke-opacity:1"
       id="path94" /><path
       d="m 58.53859,68.97003 0.85039,-5.95276 0.8504,5.95276 z"
       style="fill:#000000;fill-opacity:1;fill-rule:nonzero;stroke:none"
       id="path96" /><path
       d="m 68.85289,81.71129 2.97638,0.4252 V 81.2861 l -2.97638,0.42519 m 283.46455,0 -2.97638,0.4252 V 81.2861 l 2.97638,0.42519"
       style="fill:none;stroke:#000000;stroke-width:0.56693;stroke-linecap:round;stroke-linejoin:round;stroke-miterlimit:10;stroke-dasharray:none;stroke-opacity:1"
       id="path98" /><path
       d="m 68.85289,81.71129 v 2.12599 m 0,-2.12599 v -2.12598 m 283.46455,2.12598 v 2.12599 m 0,-2.12599 V 79.58531 M 68.85289,81.71129 V 42.09134 M 352.31744,81.71129 V 42.09134 M 68.85289,81.71129 v 0 m 283.46455,0 v 0"
       style="fill:none;stroke:#000000;stroke-width:0.28346;stroke-linecap:round;stroke-linejoin:round;stroke-miterlimit:10;stroke-dasharray:none;stroke-opacity:1"
       id="path100" /><g
       id="g102"><g
         id="g104"
         clip-path="url(#clipPath108)"><text
           transform="matrix(1,0,0,-1,207.65298,84.58455)"
           style="font-style:italic;font-variant:normal;font-weight:normal;font-stretch:normal;font-size:11.0078px;font-family:'Palatino Linotype';-inkscape-font-specification:PalatinoLinotype-Italic;writing-mode:lr-tb;fill:#000000;fill-opacity:1;fill-rule:nonzero;stroke:none"
           id="text112"><tspan
             x="0"
             y="0"
             id="tspan110">L</tspan></text></g></g><path
       d="m 68.85289,81.71129 h 128.88695 154.5776"
       style="fill:none;stroke:#000000;stroke-width:0.28346;stroke-linecap:round;stroke-linejoin:round;stroke-miterlimit:10;stroke-dasharray:none;stroke-opacity:1"
       id="path114" /><g
       id="g116"><g
         id="g118"
         clip-path="url(#clipPath122)"><text
           transform="matrix(1,0,0,-1,46.48554,10.27329)"
           style="font-style:italic;font-variant:normal;font-weight:normal;font-stretch:normal;font-size:11.0078px;font-family:'Palatino Linotype';-inkscape-font-specification:PalatinoLinotype-Italic;writing-mode:lr-tb;fill:#000000;fill-opacity:1;fill-rule:nonzero;stroke:none"
           id="text126"><tspan
             x="0"
             y="0"
             id="tspan124">u</tspan></text></g></g><g
       id="g128"><g
         id="g130"
         clip-path="url(#clipPath134)"><text
           transform="matrix(1,0,0,-1,53.31332,5.72605)"
           style="font-style:italic;font-variant:normal;font-weight:normal;font-stretch:normal;font-size:6.6047px;font-family:'Palatino Linotype';-inkscape-font-specification:PalatinoLinotype-Italic;writing-mode:lr-tb;fill:#000000;fill-opacity:1;fill-rule:nonzero;stroke:none"
           id="text138"><tspan
             x="0"
             y="0"
             id="tspan136">3</tspan></text></g></g><g
       id="g140"><g
         id="g142"
         clip-path="url(#clipPath146)"><text
           transform="matrix(1,0,0,-1,85.91603,12.19882)"
           style="font-style:italic;font-variant:normal;font-weight:normal;font-stretch:normal;font-size:11.0078px;font-family:'Palatino Linotype';-inkscape-font-specification:PalatinoLinotype-Italic;writing-mode:lr-tb;fill:#000000;fill-opacity:1;fill-rule:nonzero;stroke:none"
           id="text150"><tspan
             x="0"
             y="0"
             id="tspan148">u</tspan></text></g></g><g
       id="g152"><g
         id="g154"
         clip-path="url(#clipPath158)"><text
           transform="matrix(1,0,0,-1,92.74381,7.65157)"
           style="font-style:italic;font-variant:normal;font-weight:normal;font-stretch:normal;font-size:6.6047px;font-family:'Palatino Linotype';-inkscape-font-specification:PalatinoLinotype-Italic;writing-mode:lr-tb;fill:#000000;fill-opacity:1;fill-rule:nonzero;stroke:none"
           id="text162"><tspan
             x="0"
             y="0"
             id="tspan160">1</tspan></text></g></g><g
       id="g164"><g
         id="g166"
         clip-path="url(#clipPath170)"><text
           transform="matrix(1,0,0,-1,72.38792,39.34937)"
           style="font-style:italic;font-variant:normal;font-weight:normal;font-stretch:normal;font-size:11.0078px;font-family:'Palatino Linotype';-inkscape-font-specification:PalatinoLinotype-Italic;writing-mode:lr-tb;fill:#000000;fill-opacity:1;fill-rule:nonzero;stroke:none"
           id="text174"><tspan
             x="0"
             y="0"
             id="tspan172">u</tspan></text></g></g><g
       id="g176"><g
         id="g178"
         clip-path="url(#clipPath182)"><text
           transform="matrix(1,0,0,-1,79.21569,34.80212)"
           style="font-style:italic;font-variant:normal;font-weight:normal;font-stretch:normal;font-size:6.6047px;font-family:'Palatino Linotype';-inkscape-font-specification:PalatinoLinotype-Italic;writing-mode:lr-tb;fill:#000000;fill-opacity:1;fill-rule:nonzero;stroke:none"
           id="text186"><tspan
             x="0"
             y="0"
             id="tspan184">2</tspan></text></g></g><g
       id="g188"><g
         id="g190"
         clip-path="url(#clipPath194)"><text
           transform="matrix(1,0,0,-1,369.38059,12.19882)"
           style="font-style:italic;font-variant:normal;font-weight:normal;font-stretch:normal;font-size:11.0078px;font-family:'Palatino Linotype';-inkscape-font-specification:PalatinoLinotype-Italic;writing-mode:lr-tb;fill:#000000;fill-opacity:1;fill-rule:nonzero;stroke:none"
           id="text198"><tspan
             x="0"
             y="0"
             id="tspan196">u</tspan></text></g></g><g
       id="g200"><g
         id="g202"
         clip-path="url(#clipPath206)"><text
           transform="matrix(1,0,0,-1,376.20838,7.65157)"
           style="font-style:italic;font-variant:normal;font-weight:normal;font-stretch:normal;font-size:6.6047px;font-family:'Palatino Linotype';-inkscape-font-specification:PalatinoLinotype-Italic;writing-mode:lr-tb;fill:#000000;fill-opacity:1;fill-rule:nonzero;stroke:none"
           id="text210"><tspan
             x="0"
             y="0"
             id="tspan208">4</tspan></text></g></g><g
       id="g212"><g
         id="g214"
         clip-path="url(#clipPath218)"><text
           transform="matrix(1,0,0,-1,355.85247,39.34937)"
           style="font-style:italic;font-variant:normal;font-weight:normal;font-stretch:normal;font-size:11.0078px;font-family:'Palatino Linotype';-inkscape-font-specification:PalatinoLinotype-Italic;writing-mode:lr-tb;fill:#000000;fill-opacity:1;fill-rule:nonzero;stroke:none"
           id="text222"><tspan
             x="0"
             y="0"
             id="tspan220">u</tspan></text></g></g><g
       id="g224"><g
         id="g226"
         clip-path="url(#clipPath230)"><text
           transform="matrix(1,0,0,-1,362.68025,34.80212)"
           style="font-style:italic;font-variant:normal;font-weight:normal;font-stretch:normal;font-size:6.6047px;font-family:'Palatino Linotype';-inkscape-font-specification:PalatinoLinotype-Italic;writing-mode:lr-tb;fill:#000000;fill-opacity:1;fill-rule:nonzero;stroke:none"
           id="text234"><tspan
             x="0"
             y="0"
             id="tspan232">5</tspan></text></g></g><g
       id="g236"><g
         id="g238"
         clip-path="url(#clipPath242)"><text
           transform="matrix(1,0,0,-1,329.9501,10.27329)"
           style="font-style:italic;font-variant:normal;font-weight:normal;font-stretch:normal;font-size:11.0078px;font-family:'Palatino Linotype';-inkscape-font-specification:PalatinoLinotype-Italic;writing-mode:lr-tb;fill:#000000;fill-opacity:1;fill-rule:nonzero;stroke:none"
           id="text246"><tspan
             x="0"
             y="0"
             id="tspan244">u</tspan></text></g></g><g
       id="g248"><g
         id="g250"
         clip-path="url(#clipPath254)"><text
           transform="matrix(1,0,0,-1,336.77789,5.72605)"
           style="font-style:italic;font-variant:normal;font-weight:normal;font-stretch:normal;font-size:6.6047px;font-family:'Palatino Linotype';-inkscape-font-specification:PalatinoLinotype-Italic;writing-mode:lr-tb;fill:#000000;fill-opacity:1;fill-rule:nonzero;stroke:none"
           id="text258"><tspan
             x="0"
             y="0"
             id="tspan256">6</tspan></text></g></g><g
       id="g260"><g
         id="g262"
         clip-path="url(#clipPath266)"><text
           transform="matrix(1,0,0,-1,104.47859,29.08616)"
           style="font-style:italic;font-variant:normal;font-weight:normal;font-stretch:normal;font-size:11.0078px;font-family:'Palatino Linotype';-inkscape-font-specification:PalatinoLinotype-Italic;writing-mode:lr-tb;fill:#000000;fill-opacity:1;fill-rule:nonzero;stroke:none"
           id="text270"><tspan
             x="0 6.72579"
             y="0"
             id="tspan268">EI</tspan></text></g></g><g
       id="g272"><g
         id="g274"
         clip-path="url(#clipPath278)"><text
           transform="matrix(1,0,0,-1,50.20584,93.77902)"
           style="font-style:italic;font-variant:normal;font-weight:normal;font-stretch:normal;font-size:11.0078px;font-family:'Palatino Linotype';-inkscape-font-specification:PalatinoLinotype-Italic;writing-mode:lr-tb;fill:#000000;fill-opacity:1;fill-rule:nonzero;stroke:none"
           id="text282"><tspan
             x="0"
             y="0"
             id="tspan280">y</tspan></text></g></g><g
       id="g284"><g
         id="g286"
         clip-path="url(#clipPath290)"><text
           transform="matrix(1,0,0,-1,90.66259,89.13278)"
           style="font-style:italic;font-variant:normal;font-weight:normal;font-stretch:normal;font-size:11.0078px;font-family:'Palatino Linotype';-inkscape-font-specification:PalatinoLinotype-Italic;writing-mode:lr-tb;fill:#000000;fill-opacity:1;fill-rule:nonzero;stroke:none"
           id="text294"><tspan
             x="0"
             y="0"
             id="tspan292">x</tspan></text></g></g><g
       id="g296"><g
         id="g298"
         clip-path="url(#clipPath302)"><text
           transform="matrix(1,0,0,-1,56.77644,54.89729)"
           style="font-style:italic;font-variant:normal;font-weight:normal;font-stretch:normal;font-size:11.0078px;font-family:'Palatino Linotype';-inkscape-font-specification:PalatinoLinotype-Italic;writing-mode:lr-tb;fill:#000000;fill-opacity:1;fill-rule:nonzero;stroke:none"
           id="text306"><tspan
             x="0"
             y="0"
             id="tspan304">z</tspan></text></g></g><path
       d="m 115.13214,32.72395 h 16.02918 V 19.41417 m 0,-1.06299 v 0 m 0,2.12598 v 0 m 1.06298,-1.06299 v 0 m -2.12597,0 v 0"
       style="fill:none;stroke:#000000;stroke-width:0.28346;stroke-linecap:round;stroke-linejoin:round;stroke-miterlimit:10;stroke-dasharray:none;stroke-opacity:1"
       id="path308" /><path
       d="m 131.16132,18.35118 c 0.58706,0 1.06298,0.47592 1.06298,1.06299 m 0,0 c 0,0.58708 -0.47592,1.06299 -1.06298,1.06299 m 0,0 c -0.58707,0 -1.06299,-0.47591 -1.06299,-1.06299 m 0,0 c 0,-0.58707 0.47592,-1.06299 1.06299,-1.06299 m 0,0 c 0,0 0,0 0,0"
       style="fill:none;stroke:#000000;stroke-width:0.28346;stroke-linecap:round;stroke-linejoin:round;stroke-miterlimit:10;stroke-dasharray:none;stroke-opacity:1"
       id="path310" /><path
       d="m 130.62982,20.32834 h 1.06299 l -0.53149,0.14882 z"
       style="fill:#000000;fill-opacity:1;fill-rule:nonzero;stroke:none"
       id="path312" /><path
       d="m 131.69281,20.32834 h -1.06299 l -0.38266,-0.38268 z"
       style="fill:#000000;fill-opacity:1;fill-rule:nonzero;stroke:none"
       id="path314" /><path
       d="m 131.69281,20.32834 -1.44565,-0.38268 h 1.82834 z"
       style="fill:#000000;fill-opacity:1;fill-rule:nonzero;stroke:none"
       id="path316" /><path
       d="m 132.0755,19.94566 h -1.82834 l -0.14883,-0.53149 z"
       style="fill:#000000;fill-opacity:1;fill-rule:nonzero;stroke:none"
       id="path318" /><path
       d="m 132.0755,19.94566 -1.97717,-0.53149 h 2.12597 z"
       style="fill:#000000;fill-opacity:1;fill-rule:nonzero;stroke:none"
       id="path320" /><path
       d="m 132.2243,19.41417 h -2.12597 l 0.14883,-0.53149 z"
       style="fill:#000000;fill-opacity:1;fill-rule:nonzero;stroke:none"
       id="path322" /><path
       d="m 132.2243,19.41417 -1.97714,-0.53149 h 1.82834 z"
       style="fill:#000000;fill-opacity:1;fill-rule:nonzero;stroke:none"
       id="path324" /><path
       d="m 132.0755,18.88268 h -1.82834 L 130.62982,18.5 Z"
       style="fill:#000000;fill-opacity:1;fill-rule:nonzero;stroke:none"
       id="path326" /><path
       d="M 132.0755,18.88268 130.62982,18.5 h 1.06299 z"
       style="fill:#000000;fill-opacity:1;fill-rule:nonzero;stroke:none"
       id="path328" /><path
       d="m 131.69281,18.5 h -1.06299 l 0.5315,-0.14882 z"
       style="fill:#000000;fill-opacity:1;fill-rule:nonzero;stroke:none"
       id="path330" /></g></svg>
