<?xml version="1.0" encoding="UTF-8" standalone="no"?>
<svg
   xmlns:dc="http://purl.org/dc/elements/1.1/"
   xmlns:cc="http://creativecommons.org/ns#"
   xmlns:rdf="http://www.w3.org/1999/02/22-rdf-syntax-ns#"
   xmlns:svg="http://www.w3.org/2000/svg"
   xmlns="http://www.w3.org/2000/svg"
   version="1.1"
   id="svg2"
   xml:space="preserve"
   width="566.92932"
   height="151.18134"
   viewBox="0 0 566.92932 151.18134"><metadata
     id="metadata8"><rdf:RDF><cc:Work
         rdf:about=""><dc:format>image/svg+xml</dc:format><dc:type
           rdf:resource="http://purl.org/dc/dcmitype/StillImage" /></cc:Work></rdf:RDF></metadata><defs
     id="defs6"><clipPath
       clipPathUnits="userSpaceOnUse"
       id="clipPath62"><path
         d="M -0.00426,-0.00113 V 113.38696 H 425.20111 V -0.00113 H -0.00426"
         clip-rule="evenodd"
         id="path60" /></clipPath><clipPath
       clipPathUnits="userSpaceOnUse"
       id="clipPath74"><path
         d="M -0.00426,-0.00113 V 113.38696 H 425.20111 V -0.00113 H -0.00426"
         clip-rule="evenodd"
         id="path72" /></clipPath><clipPath
       clipPathUnits="userSpaceOnUse"
       id="clipPath86"><path
         d="M -0.00426,-0.00113 V 113.38696 H 425.20111 V -0.00113 H -0.00426"
         clip-rule="evenodd"
         id="path84" /></clipPath><clipPath
       clipPathUnits="userSpaceOnUse"
       id="clipPath98"><path
         d="M -0.00426,-0.00113 V 113.38696 H 425.20111 V -0.00113 H -0.00426"
         clip-rule="evenodd"
         id="path96" /></clipPath><clipPath
       clipPathUnits="userSpaceOnUse"
       id="clipPath110"><path
         d="M -0.00426,-0.00113 V 113.38696 H 425.20111 V -0.00113 H -0.00426"
         clip-rule="evenodd"
         id="path108" /></clipPath><clipPath
       clipPathUnits="userSpaceOnUse"
       id="clipPath122"><path
         d="M -0.00426,-0.00113 V 113.38696 H 425.20111 V -0.00113 H -0.00426"
         clip-rule="evenodd"
         id="path120" /></clipPath><clipPath
       clipPathUnits="userSpaceOnUse"
       id="clipPath134"><path
         d="M -0.00426,-0.00113 V 113.38696 H 425.20111 V -0.00113 H -0.00426"
         clip-rule="evenodd"
         id="path132" /></clipPath><clipPath
       clipPathUnits="userSpaceOnUse"
       id="clipPath146"><path
         d="M -0.00426,-0.00113 V 113.38696 H 425.20111 V -0.00113 H -0.00426"
         clip-rule="evenodd"
         id="path144" /></clipPath><clipPath
       clipPathUnits="userSpaceOnUse"
       id="clipPath158"><path
         d="M -0.00426,-0.00113 V 113.38696 H 425.20111 V -0.00113 H -0.00426"
         clip-rule="evenodd"
         id="path156" /></clipPath><clipPath
       clipPathUnits="userSpaceOnUse"
       id="clipPath170"><path
         d="M -0.00426,-0.00113 V 113.38696 H 425.20111 V -0.00113 H -0.00426"
         clip-rule="evenodd"
         id="path168" /></clipPath><clipPath
       clipPathUnits="userSpaceOnUse"
       id="clipPath182"><path
         d="M -0.00426,-0.00113 V 113.38696 H 425.20111 V -0.00113 H -0.00426"
         clip-rule="evenodd"
         id="path180" /></clipPath><clipPath
       clipPathUnits="userSpaceOnUse"
       id="clipPath194"><path
         d="M -0.00426,-0.00113 V 113.38696 H 425.20111 V -0.00113 H -0.00426"
         clip-rule="evenodd"
         id="path192" /></clipPath><clipPath
       clipPathUnits="userSpaceOnUse"
       id="clipPath210"><path
         d="M -0.00426,-0.00113 V 113.38696 H 425.20111 V -0.00113 H -0.00426"
         clip-rule="evenodd"
         id="path208" /></clipPath><clipPath
       clipPathUnits="userSpaceOnUse"
       id="clipPath228"><path
         d="M -0.00426,-0.00113 V 113.38696 H 425.20111 V -0.00113 H -0.00426"
         clip-rule="evenodd"
         id="path226" /></clipPath><clipPath
       clipPathUnits="userSpaceOnUse"
       id="clipPath240"><path
         d="M -0.00426,-0.00113 V 113.38696 H 425.20111 V -0.00113 H -0.00426"
         clip-rule="evenodd"
         id="path238" /></clipPath><clipPath
       clipPathUnits="userSpaceOnUse"
       id="clipPath254"><path
         d="M -0.00426,-0.00113 V 113.38696 H 425.20111 V -0.00113 H -0.00426"
         clip-rule="evenodd"
         id="path252" /></clipPath><clipPath
       clipPathUnits="userSpaceOnUse"
       id="clipPath266"><path
         d="M -0.00426,-0.00113 V 113.38696 H 425.20111 V -0.00113 H -0.00426"
         clip-rule="evenodd"
         id="path264" /></clipPath><clipPath
       clipPathUnits="userSpaceOnUse"
       id="clipPath278"><path
         d="M -0.00426,-0.00113 V 113.38696 H 425.20111 V -0.00113 H -0.00426"
         clip-rule="evenodd"
         id="path276" /></clipPath><clipPath
       clipPathUnits="userSpaceOnUse"
       id="clipPath290"><path
         d="M -0.00426,-0.00113 V 113.38696 H 425.20111 V -0.00113 H -0.00426"
         clip-rule="evenodd"
         id="path288" /></clipPath></defs><g
     id="g10"
     transform="matrix(1.3333333,0,0,-1.3333333,0,151.18133)"><path
       d="m 360.82138,19.41417 -0.12918,1.4767 -0.38367,1.43182 -0.62646,1.34345 -0.85022,1.21426 -1.04819,1.04816 -1.21423,0.85023 -1.34348,0.62647 -1.43182,0.38365 -1.47669,0.1292 -1.47668,-0.1292 -1.43182,-0.38365 -1.34345,-0.62647 -1.21426,-0.85023 -1.04819,-1.04816 -0.85022,-1.21426 -0.62647,-1.34345 -0.38366,-1.43182 -0.12918,-1.4767 0.12918,-1.47669 0.38366,-1.43182 0.62647,-1.34346 0.85022,-1.21425 1.04819,-1.04817 1.21426,-0.85023 1.34345,-0.62647 1.43182,-0.38365 1.47668,-0.1292 1.47669,0.1292 1.43182,0.38365 1.34348,0.62647 1.21423,0.85023 1.04819,1.04817 0.85022,1.21425 0.62646,1.34346 0.38367,1.43182 z"
       style="fill:#dedede;fill-opacity:1;fill-rule:nonzero;stroke:none"
       id="path12" /><path
       d="m 210.58517,27.91811 v 8.50393 m 0,-2.83464 v -0.70866 m 0,3.5433 v 0 l -1.62991,-2.83464 h 3.25983 l -1.62992,2.83464"
       style="fill:none;stroke:#000000;stroke-width:0.28346;stroke-linecap:round;stroke-linejoin:round;stroke-miterlimit:10;stroke-dasharray:none;stroke-opacity:1"
       id="path14" /><path
       d="m 212.21509,33.5874 -1.62992,2.83464 -1.62991,-2.83464 z"
       style="fill:#000000;fill-opacity:1;fill-rule:nonzero;stroke:none"
       id="path16" /><path
       d="m 352.31744,27.91811 v 8.50393 m 0,-2.83464 v -0.70866 m 0,3.5433 v 0 l -1.62991,-2.83464 h 3.25983 l -1.62992,2.83464"
       style="fill:none;stroke:#000000;stroke-width:0.28346;stroke-linecap:round;stroke-linejoin:round;stroke-miterlimit:10;stroke-dasharray:none;stroke-opacity:1"
       id="path18" /><path
       d="m 353.94736,33.5874 -1.62992,2.83464 -1.62991,-2.83464 z"
       style="fill:#000000;fill-opacity:1;fill-rule:nonzero;stroke:none"
       id="path20" /><path
       d="m 61.4828,6.1597 7.37009,7.37009 m -7.37009,12.67388 7.37009,7.37009 m -7.37009,-17.39207 7.37009,7.37008"
       style="fill:none;stroke:#000000;stroke-width:0.3685;stroke-linecap:round;stroke-linejoin:round;stroke-miterlimit:10;stroke-dasharray:none;stroke-opacity:1"
       id="path22" /><path
       d="m 219.08911,19.41417 c 0,4.69659 -3.80734,8.50394 -8.50394,8.50394 m 0,0 c -4.69659,0 -8.50393,-3.80735 -8.50393,-8.50394 m 0,0 c 0,-4.69659 3.80734,-8.50394 8.50393,-8.50394 m 0,0 c 4.6966,0 8.50394,3.80735 8.50394,8.50394"
       style="fill:none;stroke:#000000;stroke-width:0.85039;stroke-linecap:round;stroke-linejoin:round;stroke-miterlimit:10;stroke-dasharray:none;stroke-opacity:1"
       id="path24" /><path
       d="M 68.85289,19.41417 H 202.08124"
       style="fill:none;stroke:#000000;stroke-width:0.85039;stroke-linecap:round;stroke-linejoin:round;stroke-miterlimit:10;stroke-dasharray:none;stroke-opacity:1"
       id="path26" /><path
       d="m 360.82138,19.41417 c 0,4.69659 -3.80734,8.50394 -8.50394,8.50394 m 0,0 c -4.69659,0 -8.50393,-3.80735 -8.50393,-8.50394 m 0,0 c 0,-4.69659 3.80734,-8.50394 8.50393,-8.50394 m 0,0 c 4.6966,0 8.50394,3.80735 8.50394,8.50394"
       style="fill:none;stroke:#000000;stroke-width:0.85039;stroke-linecap:round;stroke-linejoin:round;stroke-miterlimit:10;stroke-dasharray:none;stroke-opacity:1"
       id="path28" /><path
       d="m 219.08911,19.41417 h 124.7244"
       style="fill:none;stroke:#000000;stroke-width:0.85039;stroke-linecap:round;stroke-linejoin:round;stroke-miterlimit:10;stroke-dasharray:none;stroke-opacity:1"
       id="path30" /><path
       d="m 199.93039,15.53615 c 2.14178,-5.88448 8.64835,-8.91854 14.53281,-6.77677 m 0,0 c 5.88446,2.14179 8.91851,8.64833 6.77676,14.53281 m 0,0 c -2.14178,5.88448 -8.64835,8.91853 -14.53281,6.77676 m 0,0 c -0.62027,-0.22575 -1.21963,-0.50524 -1.79126,-0.83528"
       style="fill:none;stroke:#000000;stroke-width:0.28346;stroke-linecap:round;stroke-linejoin:round;stroke-miterlimit:10;stroke-dasharray:none;stroke-opacity:1"
       id="path32" /><path
       d="m 200.22266,15.05035 -0.29227,0.4858 m 1.4613,-2.42896 0.36533,-0.60724 m -1.82663,3.0362 v 0 l 0.0647,-3.2692 2.79327,1.68048 -2.85794,1.58872"
       style="fill:none;stroke:#000000;stroke-width:0.28346;stroke-linecap:round;stroke-linejoin:round;stroke-miterlimit:10;stroke-dasharray:none;stroke-opacity:1"
       id="path34" /><path
       d="m 202.78833,13.94743 -2.85794,1.58872 0.0647,-3.2692 2.79327,1.68048 z"
       style="fill:#000000;fill-opacity:1;fill-rule:nonzero;stroke:none"
       id="path36" /><path
       d="m 341.66266,15.53615 c 2.14178,-5.88448 8.64834,-8.91854 14.53281,-6.77677 m 0,0 c 5.88449,2.14179 8.91854,8.64833 6.77676,14.53281 m 0,0 c -2.14179,5.88448 -8.64835,8.91853 -14.53281,6.77676 m 0,0 c -0.62027,-0.22575 -1.21963,-0.50524 -1.79126,-0.83528"
       style="fill:none;stroke:#000000;stroke-width:0.28346;stroke-linecap:round;stroke-linejoin:round;stroke-miterlimit:10;stroke-dasharray:none;stroke-opacity:1"
       id="path38" /><path
       d="m 341.95493,15.05035 -0.29227,0.4858 m 1.4613,-2.42896 0.36533,-0.60724 m -1.82663,3.0362 v 0 l 0.0647,-3.2692 2.79327,1.68048 -2.85794,1.58872"
       style="fill:none;stroke:#000000;stroke-width:0.28346;stroke-linecap:round;stroke-linejoin:round;stroke-miterlimit:10;stroke-dasharray:none;stroke-opacity:1"
       id="path40" /><path
       d="m 344.5206,13.94743 -2.85794,1.58872 0.0647,-3.2692 2.79327,1.68048 z"
       style="fill:#000000;fill-opacity:1;fill-rule:nonzero;stroke:none"
       id="path42" /><path
       d="M 68.85289,33.5874 V 5.24094"
       style="fill:none;stroke:#000000;stroke-width:0.85039;stroke-linecap:round;stroke-linejoin:round;stroke-miterlimit:10;stroke-dasharray:none;stroke-opacity:1"
       id="path44" /><path
       d="m 59.38898,91.36374 v 0 h 28.34646 m -5.95276,0 h -0.4252 m 6.37796,0 v 0 l -5.95276,0.85039 v -1.70078 l 5.95276,0.85039"
       style="fill:none;stroke:#000000;stroke-width:0.28346;stroke-linecap:round;stroke-linejoin:round;stroke-miterlimit:10;stroke-dasharray:none;stroke-opacity:1"
       id="path46" /><path
       d="m 81.78268,90.51335 5.95276,0.85039 -5.95276,0.85039 z"
       style="fill:#000000;fill-opacity:1;fill-rule:nonzero;stroke:none"
       id="path48" /><path
       d="m 56.55434,91.36374 c 0,-1.56554 1.2691,-2.83466 2.83464,-2.83466 m 0,0 c 1.56553,0 2.83465,1.26912 2.83465,2.83466 m 0,0 c 0,1.56552 -1.26912,2.83464 -2.83465,2.83464 m 0,0 c -1.56554,0 -2.83464,-1.26912 -2.83464,-2.83464"
       style="fill:none;stroke:#000000;stroke-width:0.28346;stroke-linecap:round;stroke-linejoin:round;stroke-miterlimit:10;stroke-dasharray:none;stroke-opacity:1"
       id="path50" /><path
       d="M 59.38898,91.36374 V 63.01727 m 0,5.95276 v 0.4252 m 0,-6.37796 v 0 l 0.8504,5.95276 h -1.70079 l 0.85039,-5.95276"
       style="fill:none;stroke:#000000;stroke-width:0.28346;stroke-linecap:round;stroke-linejoin:round;stroke-miterlimit:10;stroke-dasharray:none;stroke-opacity:1"
       id="path52" /><path
       d="m 58.53859,68.97003 0.85039,-5.95276 0.8504,5.95276 z"
       style="fill:#000000;fill-opacity:1;fill-rule:nonzero;stroke:none"
       id="path54" /><g
       id="g56"><g
         id="g58"
         clip-path="url(#clipPath62)"><text
           transform="matrix(1,0,0,-1,214.1202,39.34937)"
           style="font-style:italic;font-variant:normal;font-weight:normal;font-stretch:normal;font-size:11.0078px;font-family:'Palatino Linotype';-inkscape-font-specification:PalatinoLinotype-Italic;writing-mode:lr-tb;fill:#000000;fill-opacity:1;fill-rule:nonzero;stroke:none"
           id="text66"><tspan
             x="0"
             y="0"
             id="tspan64">u</tspan></text></g></g><g
       id="g68"><g
         id="g70"
         clip-path="url(#clipPath74)"><text
           transform="matrix(1,0,0,-1,220.94797,34.80212)"
           style="font-style:italic;font-variant:normal;font-weight:normal;font-stretch:normal;font-size:6.6047px;font-family:'Palatino Linotype';-inkscape-font-specification:PalatinoLinotype-Italic;writing-mode:lr-tb;fill:#000000;fill-opacity:1;fill-rule:nonzero;stroke:none"
           id="text78"><tspan
             x="0"
             y="0"
             id="tspan76">1</tspan></text></g></g><g
       id="g80"><g
         id="g82"
         clip-path="url(#clipPath86)"><text
           transform="matrix(1,0,0,-1,188.21782,10.27329)"
           style="font-style:italic;font-variant:normal;font-weight:normal;font-stretch:normal;font-size:11.0078px;font-family:'Palatino Linotype';-inkscape-font-specification:PalatinoLinotype-Italic;writing-mode:lr-tb;fill:#000000;fill-opacity:1;fill-rule:nonzero;stroke:none"
           id="text90"><tspan
             x="0"
             y="0"
             id="tspan88">u</tspan></text></g></g><g
       id="g92"><g
         id="g94"
         clip-path="url(#clipPath98)"><text
           transform="matrix(1,0,0,-1,195.0456,5.72605)"
           style="font-style:italic;font-variant:normal;font-weight:normal;font-stretch:normal;font-size:6.6047px;font-family:'Palatino Linotype';-inkscape-font-specification:PalatinoLinotype-Italic;writing-mode:lr-tb;fill:#000000;fill-opacity:1;fill-rule:nonzero;stroke:none"
           id="text102"><tspan
             x="0"
             y="0"
             id="tspan100">2</tspan></text></g></g><g
       id="g104"><g
         id="g106"
         clip-path="url(#clipPath110)"><text
           transform="matrix(1,0,0,-1,355.85247,39.34937)"
           style="font-style:italic;font-variant:normal;font-weight:normal;font-stretch:normal;font-size:11.0078px;font-family:'Palatino Linotype';-inkscape-font-specification:PalatinoLinotype-Italic;writing-mode:lr-tb;fill:#000000;fill-opacity:1;fill-rule:nonzero;stroke:none"
           id="text114"><tspan
             x="0"
             y="0"
             id="tspan112">u</tspan></text></g></g><g
       id="g116"><g
         id="g118"
         clip-path="url(#clipPath122)"><text
           transform="matrix(1,0,0,-1,362.68025,34.80212)"
           style="font-style:italic;font-variant:normal;font-weight:normal;font-stretch:normal;font-size:6.6047px;font-family:'Palatino Linotype';-inkscape-font-specification:PalatinoLinotype-Italic;writing-mode:lr-tb;fill:#000000;fill-opacity:1;fill-rule:nonzero;stroke:none"
           id="text126"><tspan
             x="0"
             y="0"
             id="tspan124">3</tspan></text></g></g><g
       id="g128"><g
         id="g130"
         clip-path="url(#clipPath134)"><text
           transform="matrix(1,0,0,-1,329.9501,10.27329)"
           style="font-style:italic;font-variant:normal;font-weight:normal;font-stretch:normal;font-size:11.0078px;font-family:'Palatino Linotype';-inkscape-font-specification:PalatinoLinotype-Italic;writing-mode:lr-tb;fill:#000000;fill-opacity:1;fill-rule:nonzero;stroke:none"
           id="text138"><tspan
             x="0"
             y="0"
             id="tspan136">u</tspan></text></g></g><g
       id="g140"><g
         id="g142"
         clip-path="url(#clipPath146)"><text
           transform="matrix(1,0,0,-1,336.77789,5.72605)"
           style="font-style:italic;font-variant:normal;font-weight:normal;font-stretch:normal;font-size:6.6047px;font-family:'Palatino Linotype';-inkscape-font-specification:PalatinoLinotype-Italic;writing-mode:lr-tb;fill:#000000;fill-opacity:1;fill-rule:nonzero;stroke:none"
           id="text150"><tspan
             x="0"
             y="0"
             id="tspan148">4</tspan></text></g></g><g
       id="g152"><g
         id="g154"
         clip-path="url(#clipPath158)"><text
           transform="matrix(1,0,0,-1,168.48702,29.41687)"
           style="font-variant:normal;font-weight:normal;font-stretch:normal;font-size:11.1008px;font-family:'Palatino Linotype';-inkscape-font-specification:PalatinoLinotype-Roman;writing-mode:lr-tb;fill:#000000;fill-opacity:1;fill-rule:nonzero;stroke:none"
           id="text162"><tspan
             x="0 9.80198 16.584551 20.136797"
             y="0"
             id="tspan160">mL/2</tspan></text></g></g><g
       id="g164"><g
         id="g166"
         clip-path="url(#clipPath170)"><text
           transform="matrix(1,0,0,-1,315.32167,29.41687)"
           style="font-variant:normal;font-weight:normal;font-stretch:normal;font-size:11.1008px;font-family:'Palatino Linotype';-inkscape-font-specification:PalatinoLinotype-Roman;writing-mode:lr-tb;fill:#000000;fill-opacity:1;fill-rule:nonzero;stroke:none"
           id="text174"><tspan
             x="0 9.80198 16.584551 20.136797"
             y="0"
             id="tspan172">mL/4</tspan></text></g></g><g
       id="g176"><g
         id="g178"
         clip-path="url(#clipPath182)"><text
           transform="matrix(1,0,0,-1,133.10386,7.90014)"
           style="font-style:italic;font-variant:normal;font-weight:normal;font-stretch:normal;font-size:11.0078px;font-family:'Palatino Linotype';-inkscape-font-specification:PalatinoLinotype-Italic;writing-mode:lr-tb;fill:#000000;fill-opacity:1;fill-rule:nonzero;stroke:none"
           id="text186"><tspan
             x="0"
             y="0"
             id="tspan184">a</tspan></text></g></g><g
       id="g188"><g
         id="g190"
         clip-path="url(#clipPath194)"><text
           transform="matrix(1,0,0,-1,274.83615,7.90014)"
           style="font-style:italic;font-variant:normal;font-weight:normal;font-stretch:normal;font-size:11.0078px;font-family:'Palatino Linotype';-inkscape-font-specification:PalatinoLinotype-Italic;writing-mode:lr-tb;fill:#000000;fill-opacity:1;fill-rule:nonzero;stroke:none"
           id="text198"><tspan
             x="0"
             y="0"
             id="tspan196">b</tspan></text></g></g><path
       d="m 68.85289,81.71129 2.97638,0.4252 V 81.2861 l -2.97638,0.42519 m 283.46455,0 -2.97638,0.4252 V 81.2861 l 2.97638,0.42519"
       style="fill:none;stroke:#000000;stroke-width:0.56693;stroke-linecap:round;stroke-linejoin:round;stroke-miterlimit:10;stroke-dasharray:none;stroke-opacity:1"
       id="path200" /><path
       d="m 68.85289,81.71129 v 2.12599 m 0,-2.12599 v -2.12598 m 283.46455,2.12598 v 2.12599 m 0,-2.12599 V 79.58531 M 68.85289,81.71129 V 42.09134 M 352.31744,81.71129 V 42.09134 M 68.85289,81.71129 v 0 m 283.46455,0 v 0"
       style="fill:none;stroke:#000000;stroke-width:0.28346;stroke-linecap:round;stroke-linejoin:round;stroke-miterlimit:10;stroke-dasharray:none;stroke-opacity:1"
       id="path202" /><g
       id="g204"><g
         id="g206"
         clip-path="url(#clipPath210)"><text
           transform="matrix(1,0,0,-1,207.65298,84.58455)"
           style="font-style:italic;font-variant:normal;font-weight:normal;font-stretch:normal;font-size:11.0078px;font-family:'Palatino Linotype';-inkscape-font-specification:PalatinoLinotype-Italic;writing-mode:lr-tb;fill:#000000;fill-opacity:1;fill-rule:nonzero;stroke:none"
           id="text214"><tspan
             x="0"
             y="0"
             id="tspan212">L</tspan></text></g></g><path
       d="m 68.85289,81.71129 h 128.88695 154.5776"
       style="fill:none;stroke:#000000;stroke-width:0.28346;stroke-linecap:round;stroke-linejoin:round;stroke-miterlimit:10;stroke-dasharray:none;stroke-opacity:1"
       id="path216" /><path
       d="m 68.85289,59.26268 2.97638,0.4252 v -0.85039 l -2.97638,0.42519 m 141.73228,0 -2.97637,0.4252 v -0.85039 l 2.97637,0.42519 2.97638,0.4252 v -0.85039 l -2.97638,0.42519 m 141.73227,0 -2.97638,0.4252 v -0.85039 l 2.97638,0.42519"
       style="fill:none;stroke:#000000;stroke-width:0.56693;stroke-linecap:round;stroke-linejoin:round;stroke-miterlimit:10;stroke-dasharray:none;stroke-opacity:1"
       id="path218" /><path
       d="m 68.85289,59.26268 v 2.12599 m 0,-2.12599 V 57.1367 m 141.73228,2.12598 v 2.12599 m 0,-2.12599 V 57.1367 m 0,2.12598 v 2.12599 m 0,-2.12599 V 57.1367 m 141.73227,2.12598 v 2.12599 m 0,-2.12599 V 57.1367 M 68.85289,59.26268 V 42.09134 M 210.58517,59.26268 V 42.09134 M 352.31744,59.26268 V 42.09134 M 68.85289,59.26268 v 0 m 283.46455,0 v 0"
       style="fill:none;stroke:#000000;stroke-width:0.28346;stroke-linecap:round;stroke-linejoin:round;stroke-miterlimit:10;stroke-dasharray:none;stroke-opacity:1"
       id="path220" /><g
       id="g222"><g
         id="g224"
         clip-path="url(#clipPath228)"><text
           transform="matrix(1,0,0,-1,132.50854,62.24077)"
           style="font-style:italic;font-variant:normal;font-weight:normal;font-stretch:normal;font-size:11.0078px;font-family:'Palatino Linotype';-inkscape-font-specification:PalatinoLinotype-Italic;writing-mode:lr-tb;fill:#000000;fill-opacity:1;fill-rule:nonzero;stroke:none"
           id="text232"><tspan
             x="0 6.1203589 9.3786793"
             y="0"
             id="tspan230">L/2</tspan></text></g></g><g
       id="g234"><g
         id="g236"
         clip-path="url(#clipPath240)"><text
           transform="matrix(1,0,0,-1,274.24081,62.24077)"
           style="font-style:italic;font-variant:normal;font-weight:normal;font-stretch:normal;font-size:11.0078px;font-family:'Palatino Linotype';-inkscape-font-specification:PalatinoLinotype-Italic;writing-mode:lr-tb;fill:#000000;fill-opacity:1;fill-rule:nonzero;stroke:none"
           id="text244"><tspan
             x="0 6.1203589 9.3786793"
             y="0"
             id="tspan242">L/2</tspan></text></g></g><path
       d="m 68.85289,59.26268 h 54.5441 87.18818 141.73227"
       style="fill:none;stroke:#000000;stroke-width:0.28346;stroke-linecap:round;stroke-linejoin:round;stroke-miterlimit:10;stroke-dasharray:none;stroke-opacity:1"
       id="path246" /><g
       id="g248"><g
         id="g250"
         clip-path="url(#clipPath254)"><text
           transform="matrix(1,0,0,-1,104.47859,29.08616)"
           style="font-style:italic;font-variant:normal;font-weight:normal;font-stretch:normal;font-size:11.0078px;font-family:'Palatino Linotype';-inkscape-font-specification:PalatinoLinotype-Italic;writing-mode:lr-tb;fill:#000000;fill-opacity:1;fill-rule:nonzero;stroke:none"
           id="text258"><tspan
             x="0 6.72579"
             y="0"
             id="tspan256">EI</tspan></text></g></g><g
       id="g260"><g
         id="g262"
         clip-path="url(#clipPath266)"><text
           transform="matrix(1,0,0,-1,50.20584,93.77902)"
           style="font-style:italic;font-variant:normal;font-weight:normal;font-stretch:normal;font-size:11.0078px;font-family:'Palatino Linotype';-inkscape-font-specification:PalatinoLinotype-Italic;writing-mode:lr-tb;fill:#000000;fill-opacity:1;fill-rule:nonzero;stroke:none"
           id="text270"><tspan
             x="0"
             y="0"
             id="tspan268">y</tspan></text></g></g><g
       id="g272"><g
         id="g274"
         clip-path="url(#clipPath278)"><text
           transform="matrix(1,0,0,-1,90.66259,89.13278)"
           style="font-style:italic;font-variant:normal;font-weight:normal;font-stretch:normal;font-size:11.0078px;font-family:'Palatino Linotype';-inkscape-font-specification:PalatinoLinotype-Italic;writing-mode:lr-tb;fill:#000000;fill-opacity:1;fill-rule:nonzero;stroke:none"
           id="text282"><tspan
             x="0"
             y="0"
             id="tspan280">x</tspan></text></g></g><g
       id="g284"><g
         id="g286"
         clip-path="url(#clipPath290)"><text
           transform="matrix(1,0,0,-1,56.77644,54.89729)"
           style="font-style:italic;font-variant:normal;font-weight:normal;font-stretch:normal;font-size:11.0078px;font-family:'Palatino Linotype';-inkscape-font-specification:PalatinoLinotype-Italic;writing-mode:lr-tb;fill:#000000;fill-opacity:1;fill-rule:nonzero;stroke:none"
           id="text294"><tspan
             x="0"
             y="0"
             id="tspan292">z</tspan></text></g></g><path
       d="m 115.13214,32.72395 h 16.02918 V 19.41417 m 0,-1.06299 v 0 m 0,2.12598 v 0 m 1.06298,-1.06299 v 0 m -2.12597,0 v 0"
       style="fill:none;stroke:#000000;stroke-width:0.28346;stroke-linecap:round;stroke-linejoin:round;stroke-miterlimit:10;stroke-dasharray:none;stroke-opacity:1"
       id="path296" /><path
       d="m 131.16132,18.35118 c 0.58706,0 1.06298,0.47592 1.06298,1.06299 m 0,0 c 0,0.58708 -0.47592,1.06299 -1.06298,1.06299 m 0,0 c -0.58707,0 -1.06299,-0.47591 -1.06299,-1.06299 m 0,0 c 0,-0.58707 0.47592,-1.06299 1.06299,-1.06299 m 0,0 c 0,0 0,0 0,0"
       style="fill:none;stroke:#000000;stroke-width:0.28346;stroke-linecap:round;stroke-linejoin:round;stroke-miterlimit:10;stroke-dasharray:none;stroke-opacity:1"
       id="path298" /><path
       d="m 130.62982,20.32834 h 1.06299 l -0.53149,0.14882 z"
       style="fill:#000000;fill-opacity:1;fill-rule:nonzero;stroke:none"
       id="path300" /><path
       d="m 131.69281,20.32834 h -1.06299 l -0.38266,-0.38268 z"
       style="fill:#000000;fill-opacity:1;fill-rule:nonzero;stroke:none"
       id="path302" /><path
       d="m 131.69281,20.32834 -1.44565,-0.38268 h 1.82834 z"
       style="fill:#000000;fill-opacity:1;fill-rule:nonzero;stroke:none"
       id="path304" /><path
       d="m 132.0755,19.94566 h -1.82834 l -0.14883,-0.53149 z"
       style="fill:#000000;fill-opacity:1;fill-rule:nonzero;stroke:none"
       id="path306" /><path
       d="m 132.0755,19.94566 -1.97717,-0.53149 h 2.12597 z"
       style="fill:#000000;fill-opacity:1;fill-rule:nonzero;stroke:none"
       id="path308" /><path
       d="m 132.2243,19.41417 h -2.12597 l 0.14883,-0.53149 z"
       style="fill:#000000;fill-opacity:1;fill-rule:nonzero;stroke:none"
       id="path310" /><path
       d="m 132.2243,19.41417 -1.97714,-0.53149 h 1.82834 z"
       style="fill:#000000;fill-opacity:1;fill-rule:nonzero;stroke:none"
       id="path312" /><path
       d="m 132.0755,18.88268 h -1.82834 L 130.62982,18.5 Z"
       style="fill:#000000;fill-opacity:1;fill-rule:nonzero;stroke:none"
       id="path314" /><path
       d="M 132.0755,18.88268 130.62982,18.5 h 1.06299 z"
       style="fill:#000000;fill-opacity:1;fill-rule:nonzero;stroke:none"
       id="path316" /><path
       d="m 131.69281,18.5 h -1.06299 l 0.5315,-0.14882 z"
       style="fill:#000000;fill-opacity:1;fill-rule:nonzero;stroke:none"
       id="path318" /><path
       d="m 219.08911,19.41417 -0.12918,1.4767 -0.38367,1.43182 -0.62646,1.34345 -0.85022,1.21426 -1.04819,1.04816 -1.21426,0.85023 -1.34345,0.62647 -1.43182,0.38365 -1.47669,0.1292 -1.47668,-0.1292 -1.43182,-0.38365 -1.34348,-0.62647 -1.21423,-0.85023 -1.04819,-1.04816 -0.85022,-1.21426 -0.62646,-1.34345 -0.38367,-1.43182 -0.12918,-1.4767 0.12918,-1.47669 0.38367,-1.43182 0.62646,-1.34346 0.85022,-1.21425 1.04819,-1.04817 1.21423,-0.85023 1.34348,-0.62647 1.43182,-0.38365 1.47668,-0.1292 1.47669,0.1292 1.43182,0.38365 1.34345,0.62647 1.21426,0.85023 1.04819,1.04817 0.85022,1.21425 0.62646,1.34346 0.38367,1.43182 z"
       style="fill:#dedede;fill-opacity:1;fill-rule:nonzero;stroke:none"
       id="path320" /></g></svg>
