<?xml version="1.0" encoding="UTF-8" standalone="no"?>
<svg
   xmlns:dc="http://purl.org/dc/elements/1.1/"
   xmlns:cc="http://creativecommons.org/ns#"
   xmlns:rdf="http://www.w3.org/1999/02/22-rdf-syntax-ns#"
   xmlns:svg="http://www.w3.org/2000/svg"
   xmlns="http://www.w3.org/2000/svg"
   version="1.1"
   id="svg2"
   xml:space="preserve"
   width="566.92932"
   height="283.46399"
   viewBox="0 0 566.92932 283.46399"><metadata
     id="metadata8"><rdf:RDF><cc:Work
         rdf:about=""><dc:format>image/svg+xml</dc:format><dc:type
           rdf:resource="http://purl.org/dc/dcmitype/StillImage" /></cc:Work></rdf:RDF></metadata><defs
     id="defs6"><clipPath
       clipPathUnits="userSpaceOnUse"
       id="clipPath70"><path
         d="M -0.00426,-0.00212 V 212.60056 H 425.20111 V -0.00212 H -0.00426"
         clip-rule="evenodd"
         id="path68" /></clipPath><clipPath
       clipPathUnits="userSpaceOnUse"
       id="clipPath82"><path
         d="M -0.00426,-0.00212 V 212.60056 H 425.20111 V -0.00212 H -0.00426"
         clip-rule="evenodd"
         id="path80" /></clipPath><clipPath
       clipPathUnits="userSpaceOnUse"
       id="clipPath94"><path
         d="M -0.00426,-0.00212 V 212.60056 H 425.20111 V -0.00212 H -0.00426"
         clip-rule="evenodd"
         id="path92" /></clipPath><clipPath
       clipPathUnits="userSpaceOnUse"
       id="clipPath106"><path
         d="M -0.00426,-0.00212 V 212.60056 H 425.20111 V -0.00212 H -0.00426"
         clip-rule="evenodd"
         id="path104" /></clipPath><clipPath
       clipPathUnits="userSpaceOnUse"
       id="clipPath118"><path
         d="M -0.00426,-0.00212 V 212.60056 H 425.20111 V -0.00212 H -0.00426"
         clip-rule="evenodd"
         id="path116" /></clipPath><clipPath
       clipPathUnits="userSpaceOnUse"
       id="clipPath130"><path
         d="M -0.00426,-0.00212 V 212.60056 H 425.20111 V -0.00212 H -0.00426"
         clip-rule="evenodd"
         id="path128" /></clipPath><clipPath
       clipPathUnits="userSpaceOnUse"
       id="clipPath142"><path
         d="M -0.00426,-0.00212 V 212.60056 H 425.20111 V -0.00212 H -0.00426"
         clip-rule="evenodd"
         id="path140" /></clipPath><clipPath
       clipPathUnits="userSpaceOnUse"
       id="clipPath154"><path
         d="M -0.00426,-0.00212 V 212.60056 H 425.20111 V -0.00212 H -0.00426"
         clip-rule="evenodd"
         id="path152" /></clipPath><clipPath
       clipPathUnits="userSpaceOnUse"
       id="clipPath166"><path
         d="M -0.00426,-0.00212 V 212.60056 H 425.20111 V -0.00212 H -0.00426"
         clip-rule="evenodd"
         id="path164" /></clipPath><clipPath
       clipPathUnits="userSpaceOnUse"
       id="clipPath178"><path
         d="M -0.00426,-0.00212 V 212.60056 H 425.20111 V -0.00212 H -0.00426"
         clip-rule="evenodd"
         id="path176" /></clipPath><clipPath
       clipPathUnits="userSpaceOnUse"
       id="clipPath190"><path
         d="M -0.00426,-0.00212 V 212.60056 H 425.20111 V -0.00212 H -0.00426"
         clip-rule="evenodd"
         id="path188" /></clipPath><clipPath
       clipPathUnits="userSpaceOnUse"
       id="clipPath202"><path
         d="M -0.00426,-0.00212 V 212.60056 H 425.20111 V -0.00212 H -0.00426"
         clip-rule="evenodd"
         id="path200" /></clipPath><clipPath
       clipPathUnits="userSpaceOnUse"
       id="clipPath214"><path
         d="M -0.00426,-0.00212 V 212.60056 H 425.20111 V -0.00212 H -0.00426"
         clip-rule="evenodd"
         id="path212" /></clipPath><clipPath
       clipPathUnits="userSpaceOnUse"
       id="clipPath226"><path
         d="M -0.00426,-0.00212 V 212.60056 H 425.20111 V -0.00212 H -0.00426"
         clip-rule="evenodd"
         id="path224" /></clipPath><clipPath
       clipPathUnits="userSpaceOnUse"
       id="clipPath238"><path
         d="M -0.00426,-0.00212 V 212.60056 H 425.20111 V -0.00212 H -0.00426"
         clip-rule="evenodd"
         id="path236" /></clipPath><clipPath
       clipPathUnits="userSpaceOnUse"
       id="clipPath250"><path
         d="M -0.00426,-0.00212 V 212.60056 H 425.20111 V -0.00212 H -0.00426"
         clip-rule="evenodd"
         id="path248" /></clipPath><clipPath
       clipPathUnits="userSpaceOnUse"
       id="clipPath262"><path
         d="M -0.00426,-0.00212 V 212.60056 H 425.20111 V -0.00212 H -0.00426"
         clip-rule="evenodd"
         id="path260" /></clipPath><clipPath
       clipPathUnits="userSpaceOnUse"
       id="clipPath274"><path
         d="M -0.00426,-0.00212 V 212.60056 H 425.20111 V -0.00212 H -0.00426"
         clip-rule="evenodd"
         id="path272" /></clipPath><clipPath
       clipPathUnits="userSpaceOnUse"
       id="clipPath286"><path
         d="M -0.00426,-0.00212 V 212.60056 H 425.20111 V -0.00212 H -0.00426"
         clip-rule="evenodd"
         id="path284" /></clipPath><clipPath
       clipPathUnits="userSpaceOnUse"
       id="clipPath298"><path
         d="M -0.00426,-0.00212 V 212.60056 H 425.20111 V -0.00212 H -0.00426"
         clip-rule="evenodd"
         id="path296" /></clipPath><clipPath
       clipPathUnits="userSpaceOnUse"
       id="clipPath310"><path
         d="M -0.00426,-0.00212 V 212.60056 H 425.20111 V -0.00212 H -0.00426"
         clip-rule="evenodd"
         id="path308" /></clipPath><clipPath
       clipPathUnits="userSpaceOnUse"
       id="clipPath324"><path
         d="M -0.00426,-0.00212 V 212.60056 H 425.20111 V -0.00212 H -0.00426"
         clip-rule="evenodd"
         id="path322" /></clipPath><clipPath
       clipPathUnits="userSpaceOnUse"
       id="clipPath336"><path
         d="M -0.00426,-0.00212 V 212.60056 H 425.20111 V -0.00212 H -0.00426"
         clip-rule="evenodd"
         id="path334" /></clipPath><clipPath
       clipPathUnits="userSpaceOnUse"
       id="clipPath352"><path
         d="M -0.00426,-0.00212 V 212.60056 H 425.20111 V -0.00212 H -0.00426"
         clip-rule="evenodd"
         id="path350" /></clipPath><clipPath
       clipPathUnits="userSpaceOnUse"
       id="clipPath364"><path
         d="M -0.00426,-0.00212 V 212.60056 H 425.20111 V -0.00212 H -0.00426"
         clip-rule="evenodd"
         id="path362" /></clipPath><clipPath
       clipPathUnits="userSpaceOnUse"
       id="clipPath376"><path
         d="M -0.00426,-0.00212 V 212.60056 H 425.20111 V -0.00212 H -0.00426"
         clip-rule="evenodd"
         id="path374" /></clipPath><clipPath
       clipPathUnits="userSpaceOnUse"
       id="clipPath388"><path
         d="M -0.00426,-0.00212 V 212.60056 H 425.20111 V -0.00212 H -0.00426"
         clip-rule="evenodd"
         id="path386" /></clipPath><clipPath
       clipPathUnits="userSpaceOnUse"
       id="clipPath400"><path
         d="M -0.00426,-0.00212 V 212.60056 H 425.20111 V -0.00212 H -0.00426"
         clip-rule="evenodd"
         id="path398" /></clipPath><clipPath
       clipPathUnits="userSpaceOnUse"
       id="clipPath412"><path
         d="M -0.00426,-0.00212 V 212.60056 H 425.20111 V -0.00212 H -0.00426"
         clip-rule="evenodd"
         id="path410" /></clipPath></defs><g
     id="g10"
     transform="matrix(1.3333333,0,0,-1.3333333,0,283.464)"><path
       d="m 269.12985,96.20416 10.29044,10.29042 m -14.17325,5.87075 14.17325,14.17321 m -14.17325,5.87076 9.1492,9.1492 m 4.75562,-45.35434 0.26843,0.26844 m -14.17325,5.87074 14.17325,14.17323 m -14.17325,5.87074 14.17325,14.17324"
       style="fill:none;stroke:#000000;stroke-width:0.3685;stroke-linecap:round;stroke-linejoin:round;stroke-miterlimit:10;stroke-dasharray:none;stroke-opacity:1"
       id="path12" /><path
       d="m 52.85684,106.29921 -6.0132,-6.01318 m 6.0132,6.01318 6.0132,-6.01318 m -12.0264,0 h 12.0264 M 44.79649,98.05475 H 60.6705"
       style="fill:none;stroke:#000000;stroke-width:0.28346;stroke-linecap:round;stroke-linejoin:round;stroke-miterlimit:10;stroke-dasharray:none;stroke-opacity:1"
       id="path14" /><path
       d="M 52.85684,106.29921 H 222.93558"
       style="fill:none;stroke:#000000;stroke-width:0.85039;stroke-linecap:round;stroke-linejoin:round;stroke-miterlimit:10;stroke-dasharray:none;stroke-opacity:1"
       id="path16" /><path
       d="m 222.93558,106.29921 -6.01319,-6.01318 m 6.01319,6.01318 6.01318,-6.01318 m -12.02637,0 h 12.02637 M 137.89621,14.74016 v 7.08661 m 0,7.65355 v 7.08661 m 0,7.65354 v 7.08661 m 0,7.65355 v 7.08661 m 0,7.65355 v 7.08661 m 0,7.65355 v 7.08661 m 0,7.65355 v 7.08661 m 0,7.65354 v 7.08661 m 0,7.65357 v 7.08661 m 0,7.65353 v 7.08661 m 0,7.65356 v 7.08661 m 0,7.65354 v 7.08661 m 0,7.65353 v 7.08664 m 0,-187.93703 v 0.28346 m 0,14.4567 v 0.28346 m 0,14.4567 v 0.28346 m 0,14.4567 v 0.28346 m 0,14.45669 v 0.28347 m 0,14.45669 v 0.28347 m 0,14.45669 v 0.28346 m 0,14.4567 v 0.28346 m 0,14.45671 v 0.28345 m 0,14.45669 v 0.28348 m 0,14.4567 v 0.28345 m 0,14.45669 v 0.28348 m 0,14.45669 v 0.28345 m 0,14.4567 v 0.28348 m 0,-195.59058 v 0 m 0,198.4252 v 0"
       style="fill:none;stroke:#000000;stroke-width:0.28346;stroke-linecap:round;stroke-linejoin:round;stroke-miterlimit:10;stroke-dasharray:none;stroke-opacity:1"
       id="path18" /><path
       d="m 143.56552,184.48849 c 0,3.13105 -2.53824,5.66929 -5.66931,5.66929 m 0,0 c -3.13104,0 -5.66928,-2.53824 -5.66928,-5.66929 m 0,0 c 0,-3.13107 2.53824,-5.66931 5.66928,-5.66931 m 0,0 c 3.13107,0 5.66931,2.53824 5.66931,5.66931"
       style="fill:none;stroke:#000000;stroke-width:0.85039;stroke-linecap:round;stroke-linejoin:round;stroke-miterlimit:10;stroke-dasharray:none;stroke-opacity:1"
       id="path20" /><path
       d="m 143.56552,91.55905 c 0,3.13107 -2.53824,5.6693 -5.66931,5.6693 m 0,0 c -3.13104,0 -5.66928,-2.53823 -5.66928,-5.6693 m 0,0 c 0,-3.13106 2.53824,-5.66928 5.66928,-5.66928 m 0,0 c 3.13107,0 5.66931,2.53822 5.66931,5.66928"
       style="fill:none;stroke:#000000;stroke-width:0.85039;stroke-linecap:round;stroke-linejoin:round;stroke-miterlimit:10;stroke-dasharray:none;stroke-opacity:1"
       id="path22" /><path
       d="m 52.85684,106.29921 21.25984,-7.4941 21.25985,-6.53739 10.62992,-2.61098 10.62992,-2.01303 10.62993,-1.29553 10.62991,-0.45841 10.62991,0.45841 10.62995,1.29553 10.62991,2.01303 10.62991,2.61098 21.25986,6.53739 21.25983,7.4941 m -170.07874,0 10.62993,-8.14241 10.62991,-7.88663 10.62993,-7.37506 10.62992,-6.60771 5.31495,-2.93617 5.31497,-2.64841 5.31496,-2.32869 5.31496,-1.97697 5.31495,-1.59333 5.31498,-1.17766 5.31497,-0.73005 5.31494,-0.25044 5.31497,0.25044 5.31494,0.73005 5.31497,1.17766 5.31498,1.59333 5.31494,1.97697 5.31497,2.32869 5.31497,2.64841 5.31494,2.93617 10.62992,6.60771 10.62994,7.37506 10.62991,7.88663 10.62992,8.14241"
       style="fill:none;stroke:#000000;stroke-width:0.28346;stroke-linecap:round;stroke-linejoin:round;stroke-miterlimit:10;stroke-dasharray:none;stroke-opacity:1"
       id="path24" /><path
       d="m 143.56552,68.31496 c 0,3.13107 -2.53824,5.66929 -5.66931,5.66929 m 0,0 c -3.13104,0 -5.66928,-2.53822 -5.66928,-5.66929 m 0,0 c 0,-3.13106 2.53824,-5.66928 5.66928,-5.66928 m 0,0 c 3.13107,0 5.66931,2.53822 5.66931,5.66928"
       style="fill:none;stroke:#000000;stroke-width:0.85039;stroke-linecap:round;stroke-linejoin:round;stroke-miterlimit:10;stroke-dasharray:none;stroke-opacity:1"
       id="path26" /><path
       d="M 52.85684,106.29921 63.48677,94.87869 74.11668,83.81693 84.74661,73.47269 l 10.62992,-9.26796 5.31495,-4.11827 5.31497,-3.71466 5.31496,-3.26621 5.31496,-2.77292 5.31495,-2.23477 5.31498,-1.65179 5.31497,-1.02396 5.31494,-0.35129 5.31497,0.35129 5.31494,1.02396 5.31497,1.65179 5.31498,2.23477 5.31494,2.77292 5.31497,3.26621 5.31497,3.71466 5.31494,4.11827 10.62992,9.26796 10.62994,10.34424 10.62991,11.06176 10.62992,11.42052"
       style="fill:none;stroke:#000000;stroke-width:0.28346;stroke-linecap:round;stroke-linejoin:round;stroke-miterlimit:10;stroke-dasharray:none;stroke-opacity:1"
       id="path28" /><path
       d="m 143.56552,50.74016 c 0,3.13106 -2.53824,5.66929 -5.66931,5.66929 m 0,0 c -3.13104,0 -5.66928,-2.53823 -5.66928,-5.66929 m 0,0 c 0,-3.13106 2.53824,-5.6693 5.66928,-5.6693 m 0,0 c 3.13107,0 5.66931,2.53824 5.66931,5.6693"
       style="fill:none;stroke:#000000;stroke-width:0.85039;stroke-linecap:round;stroke-linejoin:round;stroke-miterlimit:10;stroke-dasharray:none;stroke-opacity:1"
       id="path30" /><path
       d="m 128.82535,178.81918 h 21.5433 21.54331 21.5433 21.54331 M 250.14819,7.08661 v 153.63782 m 0,-4.96064 v -0.35434 m 0,5.31498 v 0 l -0.70868,-4.96064 h 1.41733 l -0.70865,4.96064"
       style="fill:none;stroke:#000000;stroke-width:0.28346;stroke-linecap:round;stroke-linejoin:round;stroke-miterlimit:10;stroke-dasharray:none;stroke-opacity:1"
       id="path32" /><path
       d="m 250.85684,155.76379 -0.70865,4.96064 -0.70868,-4.96064 z"
       style="fill:#000000;fill-opacity:1;fill-rule:nonzero;stroke:none"
       id="path34" /><path
       d="m 252.41589,62.64568 c 0,1.25242 -1.01529,2.26771 -2.2677,2.26771 m 0,0 c -1.25244,0 -2.26773,-1.01529 -2.26773,-2.26771 m 0,0 c 0,-1.25243 1.01529,-2.26772 2.26773,-2.26772 m 0,0 c 1.25241,0 2.2677,1.01529 2.2677,2.26772"
       style="fill:none;stroke:#000000;stroke-width:0.28346;stroke-linecap:round;stroke-linejoin:round;stroke-miterlimit:10;stroke-dasharray:none;stroke-opacity:1"
       id="path36" /><path
       d="M 137.89621,45.07086 H 420.2269 M 250.14819,80.22047 H 420.2269 M 137.89621,62.64568 H 420.2269 m -4.96063,0 h -0.35431 m 5.31494,0 v 0 l -4.96063,0.70864 v -1.41731 l 4.96063,0.70867"
       style="fill:none;stroke:#000000;stroke-width:0.28346;stroke-linecap:round;stroke-linejoin:round;stroke-miterlimit:10;stroke-dasharray:none;stroke-opacity:1"
       id="path38" /><path
       d="m 415.26627,61.93701 4.96063,0.70867 -4.96063,0.70864 z"
       style="fill:#000000;fill-opacity:1;fill-rule:nonzero;stroke:none"
       id="path40" /><path
       d="m 250.14819,45.07086 3.71588,7.69766 3.67588,7.34958 3.59598,6.65345 3.47601,5.60923 1.68054,2.30428 1.63556,1.91269 1.5856,1.47761 1.53061,0.99901 1.47067,0.47691 1.4057,-0.08869 1.33573,-0.69782 1.26077,-1.35045 1.80118,-3.36056 1.65579,-4.50237 1.55624,-5.12126 1.50254,-5.21727 1.49466,-4.79036 1.53259,-3.84058 0.79486,-1.40069 0.8215,-0.96716 0.85392,-0.46827 0.89205,0.096 1.83185,1.82989 1.95536,3.5275 2.03994,4.59073 2.08561,5.0196 2.09234,4.81414 2.06015,3.97427 1.00583,1.47397 0.98322,1.02611 0.95565,0.49897 0.92331,-0.10745 1.43576,-1.55052 1.36478,-2.89717 1.32239,-3.75668 1.30868,-4.12906 1.32355,-4.01427 1.36707,-3.41237 0.70877,-1.32823 0.73037,-0.99507 0.75559,-0.60101 0.7843,-0.14609 1.50516,0.96483 1.59454,2.23252 1.66635,3.06214 1.72058,3.45358 1.7573,3.40692 1.77639,2.92212 0.8899,1.14235 0.88809,0.85686"
       style="fill:none;stroke:#000000;stroke-width:0.85039;stroke-linecap:round;stroke-linejoin:round;stroke-miterlimit:10;stroke-dasharray:none;stroke-opacity:1"
       id="path42" /><path
       d="m 328.25528,69.70038 0.88409,0.51658 0.8779,0.12157 1.53998,-0.81686 1.52213,-1.87924 1.51284,-2.58637 1.51218,-2.9382 1.52005,-2.93479 1.53653,-2.57609 1.56162,-1.86211 1.59524,-0.79289 1.46823,0.40402 1.50809,1.28411 1.55377,1.89553 1.60532,2.23833 1.66266,2.31249 1.7258,2.11798 1.7948,1.65484 1.86959,0.92305 2.21271,-0.0605 2.28949,-1.03145 2.3393,-1.68612 2.36218,-2.02452 2.35803,-2.04663 2.327,-1.75249 2.26898,-1.14205 2.18399,-0.21531 1.60943,0.60898 1.55976,1.16212 1.52655,1.53348 1.50982,1.72301 1.50965,1.73072 1.52594,1.55666 1.55871,1.20074 1.60801,0.66306 1.44039,0.03706 1.48551,-0.39546 1.52655,-0.72247 1.56345,-0.94402 3.22143,-2.13075 3.32016,-1.75116 1.71799,-0.49974 1.73297,-0.22232 1.74585,0.01546 1.75653,0.21362 3.53662,0.86319 3.55374,1.18024"
       style="fill:none;stroke:#000000;stroke-width:0.85039;stroke-linecap:round;stroke-linejoin:round;stroke-miterlimit:10;stroke-dasharray:none;stroke-opacity:1"
       id="path44" /><path
       d="m 279.42029,118.88133 h 14.17322 m 28.34646,0 h 14.17322 m -14.17322,0 -0.76721,-2.15379 -0.74377,-1.85921 -0.69696,-1.27002 -0.32361,-0.32202 -0.3031,-0.0643 -0.2594,0.19076 -0.24109,0.40915 -0.4335,1.34551 -0.7165,3.90364 -0.59991,3.81376 -0.28775,1.23314 -0.14636,0.33612 -0.15012,0.10649 -0.15512,-0.14431 -0.16003,-0.37308 -0.3331,-1.30078 -0.70652,-3.89922 -0.73782,-3.87517 -0.37219,-1.27072 -0.18543,-0.35353 -0.18444,-0.12176 -0.18311,0.13186 -0.18179,0.36338 -0.36011,1.28875 -0.70938,3.89795 -0.70084,3.89163 -0.34946,1.28084 -0.17486,0.35823 -0.17511,0.12593 -0.17545,-0.12845 -0.17578,-0.36068 -0.35244,-1.28537 -0.70795,-3.89731 -0.71082,-3.89606 -0.35602,-1.28378 -0.17807,-0.35967 -0.17813,-0.12725 -0.1781,0.12725 -0.17807,0.35967 -0.35602,1.28378 -0.71081,3.89606 -0.70795,3.89731 -0.35244,1.28537 -0.17579,0.36068 -0.17544,0.12845 -0.17511,-0.12593 -0.17487,-0.35823 -0.34945,-1.28084"
       style="fill:none;stroke:#000000;stroke-width:0.28346;stroke-linecap:round;stroke-linejoin:round;stroke-miterlimit:10;stroke-dasharray:none;stroke-opacity:1"
       id="path46" /><path
       d="m 304.23267,122.78561 -0.70084,-3.89163 -0.70938,-3.89795 -0.36011,-1.28875 -0.18179,-0.36338 -0.18311,-0.13186 -0.18445,0.12176 -0.18542,0.35353 -0.37219,1.27072 -0.73783,3.87517 -0.70651,3.89922 -0.3331,1.30078 -0.16003,0.37308 -0.15512,0.14431 -0.15012,-0.10649 -0.14636,-0.33612 -0.28775,-1.23314 -0.59992,-3.81376 -0.71649,-3.90364 -0.4335,-1.34551 -0.24109,-0.40915 -0.2594,-0.19076 -0.3031,0.0643 -0.32361,0.32202 -0.69696,1.27002 -0.74377,1.85921 -0.76721,2.15379"
       style="fill:none;stroke:#000000;stroke-width:0.28346;stroke-linecap:round;stroke-linejoin:round;stroke-miterlimit:10;stroke-dasharray:none;stroke-opacity:1"
       id="path48" /><path
       d="m 386.00296,118.88133 c 0,3.13106 -2.53824,5.66928 -5.66928,5.66928 m 0,0 c -3.13107,0 -5.66931,-2.53822 -5.66931,-5.66928 m 0,0 c 0,-3.13107 2.53824,-5.66929 5.66931,-5.66929 m 0,0 c 3.13104,0 5.66928,2.53822 5.66928,5.66929"
       style="fill:none;stroke:#000000;stroke-width:0.85039;stroke-linecap:round;stroke-linejoin:round;stroke-miterlimit:10;stroke-dasharray:none;stroke-opacity:1"
       id="path50" /><path
       d="m 374.66437,118.88133 h -13.6063 m 4.96064,0 h 0.35434 m -5.31498,0 v 0 l 4.96064,-0.70866 v 1.41731 l -4.96064,-0.70865"
       style="fill:none;stroke:#000000;stroke-width:0.28346;stroke-linecap:round;stroke-linejoin:round;stroke-miterlimit:10;stroke-dasharray:none;stroke-opacity:1"
       id="path52" /><path
       d="m 366.01871,119.58998 -4.96064,-0.70865 4.96064,-0.70866 z"
       style="fill:#000000;fill-opacity:1;fill-rule:nonzero;stroke:none"
       id="path54" /><path
       d="m 336.11319,135.88919 v -34.01573 h 2.83466 v 34.01573 h -2.83466"
       style="fill:none;stroke:#000000;stroke-width:0.85039;stroke-linecap:round;stroke-linejoin:round;stroke-miterlimit:10;stroke-dasharray:none;stroke-opacity:1"
       id="path56" /><path
       d="M 279.42029,141.5585 V 96.20416 M 34.30977,45.07086 v 14.74016 m 0,-2.26772 v -0.56692 m 0,2.83464 v 0 L 33.00583,57.5433 h 2.60788 l -1.30394,2.26772"
       style="fill:none;stroke:#000000;stroke-width:0.28346;stroke-linecap:round;stroke-linejoin:round;stroke-miterlimit:10;stroke-dasharray:none;stroke-opacity:1"
       id="path58" /><path
       d="M 35.61371,57.5433 34.30977,59.81102 33.00583,57.5433 Z"
       style="fill:#000000;fill-opacity:1;fill-rule:nonzero;stroke:none"
       id="path60" /><path
       d="m 36.57748,45.07086 c 0,1.25243 -1.01529,2.26772 -2.26771,2.26772 m 0,0 c -1.25243,0 -2.26772,-1.01529 -2.26772,-2.26772 m 0,0 c 0,-1.25242 1.01529,-2.26771 2.26772,-2.26771 m 0,0 c 1.25242,0 2.26771,1.01529 2.26771,2.26771"
       style="fill:none;stroke:#000000;stroke-width:0.28346;stroke-linecap:round;stroke-linejoin:round;stroke-miterlimit:10;stroke-dasharray:none;stroke-opacity:1"
       id="path62" /><g
       id="g64"><g
         id="g66"
         clip-path="url(#clipPath70)"><text
           transform="matrix(1,0,0,-1,118.40802,94.22273)"
           style="font-style:italic;font-variant:normal;font-weight:normal;font-stretch:normal;font-size:11.0078px;font-family:'Palatino Linotype';-inkscape-font-specification:PalatinoLinotype-Italic;writing-mode:lr-tb;fill:#000000;fill-opacity:1;fill-rule:nonzero;stroke:none"
           id="text74"><tspan
             x="0"
             y="0"
             id="tspan72">t</tspan></text></g></g><g
       id="g76"><g
         id="g78"
         clip-path="url(#clipPath82)"><text
           transform="matrix(1,0,0,-1,122.1011,89.67548)"
           style="font-style:italic;font-variant:normal;font-weight:normal;font-stretch:normal;font-size:6.6047px;font-family:'Palatino Linotype';-inkscape-font-specification:PalatinoLinotype-Italic;writing-mode:lr-tb;fill:#000000;fill-opacity:1;fill-rule:nonzero;stroke:none"
           id="text86"><tspan
             x="0"
             y="0"
             id="tspan84">2</tspan></text></g></g><g
       id="g88"><g
         id="g90"
         clip-path="url(#clipPath94)"><text
           transform="matrix(1,0,0,-1,118.40802,70.97863)"
           style="font-style:italic;font-variant:normal;font-weight:normal;font-stretch:normal;font-size:11.0078px;font-family:'Palatino Linotype';-inkscape-font-specification:PalatinoLinotype-Italic;writing-mode:lr-tb;fill:#000000;fill-opacity:1;fill-rule:nonzero;stroke:none"
           id="text98"><tspan
             x="0"
             y="0"
             id="tspan96">t</tspan></text></g></g><g
       id="g100"><g
         id="g102"
         clip-path="url(#clipPath106)"><text
           transform="matrix(1,0,0,-1,122.1011,66.43139)"
           style="font-style:italic;font-variant:normal;font-weight:normal;font-stretch:normal;font-size:6.6047px;font-family:'Palatino Linotype';-inkscape-font-specification:PalatinoLinotype-Italic;writing-mode:lr-tb;fill:#000000;fill-opacity:1;fill-rule:nonzero;stroke:none"
           id="text110"><tspan
             x="0"
             y="0"
             id="tspan108">4</tspan></text></g></g><g
       id="g112"><g
         id="g114"
         clip-path="url(#clipPath118)"><text
           transform="matrix(1,0,0,-1,118.40802,53.40383)"
           style="font-style:italic;font-variant:normal;font-weight:normal;font-stretch:normal;font-size:11.0078px;font-family:'Palatino Linotype';-inkscape-font-specification:PalatinoLinotype-Italic;writing-mode:lr-tb;fill:#000000;fill-opacity:1;fill-rule:nonzero;stroke:none"
           id="text122"><tspan
             x="0"
             y="0"
             id="tspan120">t</tspan></text></g></g><g
       id="g124"><g
         id="g126"
         clip-path="url(#clipPath130)"><text
           transform="matrix(1,0,0,-1,122.1011,48.85659)"
           style="font-style:italic;font-variant:normal;font-weight:normal;font-stretch:normal;font-size:6.6047px;font-family:'Palatino Linotype';-inkscape-font-specification:PalatinoLinotype-Italic;writing-mode:lr-tb;fill:#000000;fill-opacity:1;fill-rule:nonzero;stroke:none"
           id="text134"><tspan
             x="0"
             y="0"
             id="tspan132">3</tspan></text></g></g><g
       id="g136"><g
         id="g138"
         clip-path="url(#clipPath142)"><text
           transform="matrix(1,0,0,-1,118.40802,174.72666)"
           style="font-style:italic;font-variant:normal;font-weight:normal;font-stretch:normal;font-size:11.0078px;font-family:'Palatino Linotype';-inkscape-font-specification:PalatinoLinotype-Italic;writing-mode:lr-tb;fill:#000000;fill-opacity:1;fill-rule:nonzero;stroke:none"
           id="text146"><tspan
             x="0"
             y="0"
             id="tspan144">t</tspan></text></g></g><g
       id="g148"><g
         id="g150"
         clip-path="url(#clipPath154)"><text
           transform="matrix(1,0,0,-1,122.1011,170.17942)"
           style="font-style:italic;font-variant:normal;font-weight:normal;font-stretch:normal;font-size:6.6047px;font-family:'Palatino Linotype';-inkscape-font-specification:PalatinoLinotype-Italic;writing-mode:lr-tb;fill:#000000;fill-opacity:1;fill-rule:nonzero;stroke:none"
           id="text158"><tspan
             x="0"
             y="0"
             id="tspan156">1</tspan></text></g></g><g
       id="g160"><g
         id="g162"
         clip-path="url(#clipPath166)"><text
           transform="matrix(1,0,0,-1,173.79915,32.84152)"
           style="font-style:italic;font-variant:normal;font-weight:normal;font-stretch:normal;font-size:11.0078px;font-family:'Palatino Linotype';-inkscape-font-specification:PalatinoLinotype-Italic;writing-mode:lr-tb;fill:#000000;fill-opacity:1;fill-rule:nonzero;stroke:none"
           id="text170"><tspan
             x="0 4.8874807 7.639441 10.391401"
             y="0"
             id="tspan168">k, m</tspan></text></g></g><g
       id="g172"><g
         id="g174"
         clip-path="url(#clipPath178)"><text
           transform="matrix(1,0,0,-1,195.75308,28.29428)"
           style="font-style:italic;font-variant:normal;font-weight:normal;font-stretch:normal;font-size:6.6047px;font-family:'Palatino Linotype';-inkscape-font-specification:PalatinoLinotype-Italic;writing-mode:lr-tb;fill:#000000;fill-opacity:1;fill-rule:nonzero;stroke:none"
           id="text182"><tspan
             x="0"
             y="0"
             id="tspan180">k</tspan></text></g></g><g
       id="g184"><g
         id="g186"
         clip-path="url(#clipPath190)"><text
           transform="matrix(1,0,0,-1,148.55025,188.5734)"
           style="font-style:italic;font-variant:normal;font-weight:normal;font-stretch:normal;font-size:11.0078px;font-family:'Palatino Linotype';-inkscape-font-specification:PalatinoLinotype-Italic;writing-mode:lr-tb;fill:#000000;fill-opacity:1;fill-rule:nonzero;stroke:none"
           id="text194"><tspan
             x="0"
             y="0"
             id="tspan192">m</tspan></text></g></g><g
       id="g196"><g
         id="g198"
         clip-path="url(#clipPath202)"><text
           transform="matrix(1,0,0,-1,158.5459,184.02616)"
           style="font-style:italic;font-variant:normal;font-weight:normal;font-stretch:normal;font-size:6.6047px;font-family:'Palatino Linotype';-inkscape-font-specification:PalatinoLinotype-Italic;writing-mode:lr-tb;fill:#000000;fill-opacity:1;fill-rule:nonzero;stroke:none"
           id="text206"><tspan
             x="0"
             y="0"
             id="tspan204">s</tspan></text></g></g><g
       id="g208"><g
         id="g210"
         clip-path="url(#clipPath214)"><text
           transform="matrix(1,0,0,-1,415.14462,52.88182)"
           style="font-style:italic;font-variant:normal;font-weight:normal;font-stretch:normal;font-size:11.0078px;font-family:'Palatino Linotype';-inkscape-font-specification:PalatinoLinotype-Italic;writing-mode:lr-tb;fill:#000000;fill-opacity:1;fill-rule:nonzero;stroke:none"
           id="text218"><tspan
             x="0"
             y="0"
             id="tspan216">t</tspan></text></g></g><g
       id="g220"><g
         id="g222"
         clip-path="url(#clipPath226)"><text
           transform="matrix(1,0,0,-1,231.06806,159.95151)"
           style="font-style:italic;font-variant:normal;font-weight:normal;font-stretch:normal;font-size:11.0078px;font-family:'Palatino Linotype';-inkscape-font-specification:PalatinoLinotype-Italic;writing-mode:lr-tb;fill:#000000;fill-opacity:1;fill-rule:nonzero;stroke:none"
           id="text230"><tspan
             x="0 6.1203589 9.7859697 13.45158"
             y="0"
             id="tspan228">u(t)</tspan></text></g></g><g
       id="g232"><g
         id="g234"
         clip-path="url(#clipPath238)"><text
           transform="matrix(1,0,0,-1,359.70945,108.23376)"
           style="font-style:italic;font-variant:normal;font-weight:normal;font-stretch:normal;font-size:11.0078px;font-family:'Palatino Linotype';-inkscape-font-specification:PalatinoLinotype-Italic;writing-mode:lr-tb;fill:#000000;fill-opacity:1;fill-rule:nonzero;stroke:none"
           id="text242"><tspan
             x="0"
             y="0"
             id="tspan240">v</tspan></text></g></g><g
       id="g244"><g
         id="g246"
         clip-path="url(#clipPath250)"><text
           transform="matrix(1,0,0,-1,379.43062,102.52454)"
           style="font-style:italic;font-variant:normal;font-weight:normal;font-stretch:normal;font-size:11.0078px;font-family:'Palatino Linotype';-inkscape-font-specification:PalatinoLinotype-Italic;writing-mode:lr-tb;fill:#000000;fill-opacity:1;fill-rule:nonzero;stroke:none"
           id="text254"><tspan
             x="0"
             y="0"
             id="tspan252">m</tspan></text></g></g><g
       id="g256"><g
         id="g258"
         clip-path="url(#clipPath262)"><text
           transform="matrix(1,0,0,-1,389.42627,97.9773)"
           style="font-style:italic;font-variant:normal;font-weight:normal;font-stretch:normal;font-size:6.6047px;font-family:'Palatino Linotype';-inkscape-font-specification:PalatinoLinotype-Italic;writing-mode:lr-tb;fill:#000000;fill-opacity:1;fill-rule:nonzero;stroke:none"
           id="text266"><tspan
             x="0"
             y="0"
             id="tspan264">s</tspan></text></g></g><g
       id="g268"><g
         id="g270"
         clip-path="url(#clipPath274)"><text
           transform="matrix(1,0,0,-1,304.9875,94.7783)"
           style="font-style:italic;font-variant:normal;font-weight:normal;font-stretch:normal;font-size:11.0078px;font-family:'Palatino Linotype';-inkscape-font-specification:PalatinoLinotype-Italic;writing-mode:lr-tb;fill:#000000;fill-opacity:1;fill-rule:nonzero;stroke:none"
           id="text278"><tspan
             x="0"
             y="0"
             id="tspan276">k</tspan></text></g></g><g
       id="g280"><g
         id="g282"
         clip-path="url(#clipPath286)"><text
           transform="matrix(1,0,0,-1,393.0778,134.04367)"
           style="font-style:italic;font-variant:normal;font-weight:normal;font-stretch:normal;font-size:11.0078px;font-family:'Palatino Linotype';-inkscape-font-specification:PalatinoLinotype-Italic;writing-mode:lr-tb;fill:#000000;fill-opacity:1;fill-rule:nonzero;stroke:none"
           id="text290"><tspan
             x="0"
             y="0"
             id="tspan288">m</tspan></text></g></g><g
       id="g292"><g
         id="g294"
         clip-path="url(#clipPath298)"><text
           transform="matrix(1,0,0,-1,401.86609,129.49642)"
           style="font-style:italic;font-variant:normal;font-weight:normal;font-stretch:normal;font-size:6.6047px;font-family:'Palatino Linotype';-inkscape-font-specification:PalatinoLinotype-Italic;writing-mode:lr-tb;fill:#000000;fill-opacity:1;fill-rule:nonzero;stroke:none"
           id="text302"><tspan
             x="0"
             y="0"
             id="tspan300">k</tspan></text></g></g><g
       id="g304"><g
         id="g306"
         clip-path="url(#clipPath310)"><text
           transform="matrix(1,0,0,-1,404.87495,134.04367)"
           style="font-variant:normal;font-weight:normal;font-stretch:normal;font-size:11.1008px;font-family:'Palatino Linotype';-inkscape-font-specification:PalatinoLinotype-Roman;writing-mode:lr-tb;fill:#000000;fill-opacity:1;fill-rule:nonzero;stroke:none"
           id="text314"><tspan
             x="0 5.550385 8.3255777"
             y="0"
             id="tspan312">= 0</tspan></text></g></g><path
       d="m 265.24707,148.82602 h 37.89801 v -0.66132 h -37.89801 z"
       style="fill:#000000;fill-opacity:1;fill-rule:nonzero;stroke:none"
       id="path316" /><g
       id="g318"><g
         id="g320"
         clip-path="url(#clipPath324)"><text
           transform="matrix(1,0,0,-1,265.24705,149.94432)"
           style="font-variant:normal;font-weight:normal;font-stretch:normal;font-size:11.1008px;font-family:'Palatino Linotype';-inkscape-font-specification:PalatinoLinotype-Roman;writing-mode:lr-tb;fill:#000000;fill-opacity:1;fill-rule:nonzero;stroke:none"
           id="text328"><tspan
             x="0 10.501328 16.562349 23.344919 28.662188 31.892511 35.122837"
             y="0"
             id="tspan326">Modell:</tspan></text></g></g><g
       id="g330"><g
         id="g332"
         clip-path="url(#clipPath336)"><text
           transform="matrix(1,0,0,-1,37.29491,53.20865)"
           style="font-style:italic;font-variant:normal;font-weight:normal;font-stretch:normal;font-size:11.0078px;font-family:'Palatino Linotype';-inkscape-font-specification:PalatinoLinotype-Italic;writing-mode:lr-tb;fill:#000000;fill-opacity:1;fill-rule:nonzero;stroke:none"
           id="text340"><tspan
             x="0"
             y="0"
             id="tspan338">z</tspan></text></g></g><path
       d="m 21.42421,45.07086 -0.4252,2.97638 h 0.85039 l -0.42519,-2.97638 m 0,17.57482 -0.4252,-2.97638 h 0.85039 l -0.42519,2.97638 -0.4252,2.97638 h 0.85039 l -0.42519,-2.97638 m 0,23.24409 -0.4252,-2.97638 h 0.85039 l -0.42519,2.97638 -0.4252,2.97638 h 0.85039 l -0.42519,-2.97638 m 0,20.40944 -0.4252,-2.97638 h 0.85039 l -0.42519,2.97638 -0.4252,2.97638 h 0.85039 l -0.42519,-2.97638 m 0,72.51997 -0.4252,-2.97638 h 0.85039 l -0.42519,2.97638"
       style="fill:none;stroke:#000000;stroke-width:0.56693;stroke-linecap:round;stroke-linejoin:round;stroke-miterlimit:10;stroke-dasharray:none;stroke-opacity:1"
       id="path342" /><path
       d="m 21.42421,45.07086 h -2.12599 m 2.12599,0 h 2.12598 m -2.12598,17.57482 h -2.12599 m 2.12599,0 h 2.12598 m -2.12598,0 h -2.12599 m 2.12599,0 h 2.12598 m -2.12598,23.24409 h -2.12599 m 2.12599,0 h 2.12598 m -2.12598,0 h -2.12599 m 2.12599,0 h 2.12598 m -2.12598,20.40944 h -2.12599 m 2.12599,0 h 2.12598 m -2.12598,0 h -2.12599 m 2.12599,0 h 2.12598 m -2.12598,72.51997 h -2.12599 m 2.12599,0 h 2.12598 M 21.42421,45.07086 H 40.6998 M 21.42421,62.64568 H 40.6998 M 21.42421,85.88977 H 40.6998 M 21.42421,106.29921 H 40.6998 M 21.42421,178.81918 H 40.6998 M 21.42421,45.07086 v 0 m 0,133.74832 v 0 m 0,-133.74832 v 17.57482 23.24409 20.40944 72.51997"
       style="fill:none;stroke:#000000;stroke-width:0.28346;stroke-linecap:round;stroke-linejoin:round;stroke-miterlimit:10;stroke-dasharray:none;stroke-opacity:1"
       id="path344" /><g
       id="g346"><g
         id="g348"
         clip-path="url(#clipPath352)"><text
           transform="matrix(0,1,1,0,14.25339,140.25387)"
           style="font-style:italic;font-variant:normal;font-weight:normal;font-stretch:normal;font-size:11.0078px;font-family:'Palatino Linotype';-inkscape-font-specification:PalatinoLinotype-Italic;writing-mode:lr-tb;fill:#000000;fill-opacity:1;fill-rule:nonzero;stroke:none"
           id="text356"><tspan
             x="0"
             y="0"
             id="tspan354">ū</tspan></text></g></g><g
       id="g358"><g
         id="g360"
         clip-path="url(#clipPath364)"><text
           transform="matrix(0,1,1,0,14.44828,66.55308)"
           style="font-style:italic;font-variant:normal;font-weight:normal;font-stretch:normal;font-size:11.0078px;font-family:'Palatino Linotype';-inkscape-font-specification:PalatinoLinotype-Italic;writing-mode:lr-tb;fill:#000000;fill-opacity:1;fill-rule:nonzero;stroke:none"
           id="text368"><tspan
             x="0"
             y="0"
             id="tspan366">u</tspan></text></g></g><g
       id="g370"><g
         id="g372"
         clip-path="url(#clipPath376)"><text
           transform="matrix(0,1,1,0,18.99552,73.38086)"
           style="font-style:italic;font-variant:normal;font-weight:normal;font-stretch:normal;font-size:6.6047px;font-family:'Palatino Linotype';-inkscape-font-specification:PalatinoLinotype-Italic;writing-mode:lr-tb;fill:#000000;fill-opacity:1;fill-rule:nonzero;stroke:none"
           id="text380"><tspan
             x="0 2.5692284 4.7685933 7.7010803"
             y="0"
             id="tspan378">stat</tspan></text></g></g><g
       id="g382"><g
         id="g384"
         clip-path="url(#clipPath388)"><text
           transform="matrix(0,1,1,0,14.44828,90.93104)"
           style="font-style:italic;font-variant:normal;font-weight:normal;font-stretch:normal;font-size:11.0078px;font-family:'Palatino Linotype';-inkscape-font-specification:PalatinoLinotype-Italic;writing-mode:lr-tb;fill:#000000;fill-opacity:1;fill-rule:nonzero;stroke:none"
           id="text392"><tspan
             x="0"
             y="0"
             id="tspan390">u</tspan></text></g></g><g
       id="g394"><g
         id="g396"
         clip-path="url(#clipPath400)"><text
           transform="matrix(0,1,1,0,18.99552,97.75881)"
           style="font-style:italic;font-variant:normal;font-weight:normal;font-stretch:normal;font-size:6.6047px;font-family:'Palatino Linotype';-inkscape-font-specification:PalatinoLinotype-Italic;writing-mode:lr-tb;fill:#000000;fill-opacity:1;fill-rule:nonzero;stroke:none"
           id="text404"><tspan
             x="0"
             y="0"
             id="tspan402">0</tspan></text></g></g><g
       id="g406"><g
         id="g408"
         clip-path="url(#clipPath412)"><text
           transform="matrix(0,1,1,0,14.25339,52.37986)"
           style="font-style:italic;font-variant:normal;font-weight:normal;font-stretch:normal;font-size:11.0078px;font-family:'Palatino Linotype';-inkscape-font-specification:PalatinoLinotype-Italic;writing-mode:lr-tb;fill:#000000;fill-opacity:1;fill-rule:nonzero;stroke:none"
           id="text416"><tspan
             x="0"
             y="0"
             id="tspan414">û</tspan></text></g></g><path
       d="m 173.79916,36.66121 -18.70868,0.02481 v 11.9055 m 0,1.27559 v 0 m 0,-2.55116 v 0 m -1.27557,1.27557 v 0 m 2.55118,0 v 0"
       style="fill:none;stroke:#000000;stroke-width:0.28346;stroke-linecap:round;stroke-linejoin:round;stroke-miterlimit:10;stroke-dasharray:none;stroke-opacity:1"
       id="path418" /><path
       d="m 155.09048,49.86711 c -0.70446,0 -1.27557,-0.57109 -1.27557,-1.27559 m 0,0 c 0,-0.70448 0.57111,-1.27559 1.27557,-1.27559 m 0,0 c 0.7045,0 1.27561,0.57111 1.27561,1.27559 m 0,0 c 0,0.7045 -0.57111,1.27559 -1.27561,1.27559 m 0,0 c 0,0 0,0 0,0"
       style="fill:none;stroke:#000000;stroke-width:0.28346;stroke-linecap:round;stroke-linejoin:round;stroke-miterlimit:10;stroke-dasharray:none;stroke-opacity:1"
       id="path420" /><path
       d="m 155.72827,47.49452 h -1.27557 l 0.63778,-0.17857 z"
       style="fill:#000000;fill-opacity:1;fill-rule:nonzero;stroke:none"
       id="path422" /><path
       d="m 154.4527,47.49452 h 1.27557 l 0.45923,0.45922 z"
       style="fill:#000000;fill-opacity:1;fill-rule:nonzero;stroke:none"
       id="path424" /><path
       d="m 154.4527,47.49452 1.7348,0.45922 h -2.194 z"
       style="fill:#000000;fill-opacity:1;fill-rule:nonzero;stroke:none"
       id="path426" /><path
       d="m 153.9935,47.95374 h 2.194 l 0.17859,0.63778 z"
       style="fill:#000000;fill-opacity:1;fill-rule:nonzero;stroke:none"
       id="path428" /><path
       d="m 153.9935,47.95374 2.37259,0.63778 h -2.55118 z"
       style="fill:#000000;fill-opacity:1;fill-rule:nonzero;stroke:none"
       id="path430" /><path
       d="m 153.81491,48.59152 h 2.55118 l -0.17859,0.6378 z"
       style="fill:#000000;fill-opacity:1;fill-rule:nonzero;stroke:none"
       id="path432" /><path
       d="m 153.81491,48.59152 2.37259,0.6378 h -2.194 z"
       style="fill:#000000;fill-opacity:1;fill-rule:nonzero;stroke:none"
       id="path434" /><path
       d="m 153.9935,49.22932 h 2.194 l -0.45923,0.45922 z"
       style="fill:#000000;fill-opacity:1;fill-rule:nonzero;stroke:none"
       id="path436" /><path
       d="m 153.9935,49.22932 1.73477,0.45922 h -1.27557 z"
       style="fill:#000000;fill-opacity:1;fill-rule:nonzero;stroke:none"
       id="path438" /><path
       d="m 154.4527,49.68854 h 1.27557 l -0.63779,0.17857 z"
       style="fill:#000000;fill-opacity:1;fill-rule:nonzero;stroke:none"
       id="path440" /></g></svg>
