<?xml version="1.0" encoding="utf-8" standalone="no"?>
<!DOCTYPE svg PUBLIC "-//W3C//DTD SVG 1.1//EN"
  "http://www.w3.org/Graphics/SVG/1.1/DTD/svg11.dtd">
<svg xmlns:xlink="http://www.w3.org/1999/xlink" width="424.8pt" height="216pt" viewBox="0 0 424.8 216" xmlns="http://www.w3.org/2000/svg" version="1.1">
 <metadata>
  <rdf:RDF xmlns:dc="http://purl.org/dc/elements/1.1/" xmlns:cc="http://creativecommons.org/ns#" xmlns:rdf="http://www.w3.org/1999/02/22-rdf-syntax-ns#">
   <cc:Work>
    <dc:type rdf:resource="http://purl.org/dc/dcmitype/StillImage"/>
    <dc:date>2023-08-07T10:04:01.643770</dc:date>
    <dc:format>image/svg+xml</dc:format>
    <dc:creator>
     <cc:Agent>
      <dc:title>Matplotlib v3.7.1, https://matplotlib.org/</dc:title>
     </cc:Agent>
    </dc:creator>
   </cc:Work>
  </rdf:RDF>
 </metadata>
 <defs>
  <style type="text/css">*{stroke-linejoin: round; stroke-linecap: butt}</style>
 </defs>
 <g id="figure_1">
  <g id="patch_1">
   <path d="M 0 216 
L 424.8 216 
L 424.8 0 
L 0 0 
z
" style="fill: #ffffff"/>
  </g>
  <g id="axes_1">
   <g id="patch_2">
    <path d="M 53.1 192.24 
L 382.32 192.24 
L 382.32 25.92 
L 53.1 25.92 
z
" style="fill: #ffffff"/>
   </g>
   <g id="matplotlib.axis_1">
    <g id="xtick_1">
     <g id="line2d_1">
      <defs>
       <path id="m56635cd215" d="M 0 0 
L 0 3.5 
" style="stroke: #000000; stroke-width: 0.8"/>
      </defs>
      <g>
       <use xlink:href="#m56635cd215" x="68.064545" y="108.903423" style="stroke: #000000; stroke-width: 0.8"/>
      </g>
     </g>
     <g id="text_1">
      <!-- 0 -->
      <g transform="translate(64.883295 123.50186) scale(0.1 -0.1)">
       <defs>
        <path id="DejaVuSans-30" d="M 2034 4250 
Q 1547 4250 1301 3770 
Q 1056 3291 1056 2328 
Q 1056 1369 1301 889 
Q 1547 409 2034 409 
Q 2525 409 2770 889 
Q 3016 1369 3016 2328 
Q 3016 3291 2770 3770 
Q 2525 4250 2034 4250 
z
M 2034 4750 
Q 2819 4750 3233 4129 
Q 3647 3509 3647 2328 
Q 3647 1150 3233 529 
Q 2819 -91 2034 -91 
Q 1250 -91 836 529 
Q 422 1150 422 2328 
Q 422 3509 836 4129 
Q 1250 4750 2034 4750 
z
" transform="scale(0.015625)"/>
       </defs>
       <use xlink:href="#DejaVuSans-30"/>
      </g>
     </g>
    </g>
    <g id="xtick_2">
     <g id="line2d_2">
      <g>
       <use xlink:href="#m56635cd215" x="117.946364" y="108.903423" style="stroke: #000000; stroke-width: 0.8"/>
      </g>
     </g>
     <g id="text_2">
      <!-- 1 -->
      <g transform="translate(114.765114 123.50186) scale(0.1 -0.1)">
       <defs>
        <path id="DejaVuSans-31" d="M 794 531 
L 1825 531 
L 1825 4091 
L 703 3866 
L 703 4441 
L 1819 4666 
L 2450 4666 
L 2450 531 
L 3481 531 
L 3481 0 
L 794 0 
L 794 531 
z
" transform="scale(0.015625)"/>
       </defs>
       <use xlink:href="#DejaVuSans-31"/>
      </g>
     </g>
    </g>
    <g id="xtick_3">
     <g id="line2d_3">
      <g>
       <use xlink:href="#m56635cd215" x="167.828182" y="108.903423" style="stroke: #000000; stroke-width: 0.8"/>
      </g>
     </g>
     <g id="text_3">
      <!-- 2 -->
      <g transform="translate(164.646932 123.50186) scale(0.1 -0.1)">
       <defs>
        <path id="DejaVuSans-32" d="M 1228 531 
L 3431 531 
L 3431 0 
L 469 0 
L 469 531 
Q 828 903 1448 1529 
Q 2069 2156 2228 2338 
Q 2531 2678 2651 2914 
Q 2772 3150 2772 3378 
Q 2772 3750 2511 3984 
Q 2250 4219 1831 4219 
Q 1534 4219 1204 4116 
Q 875 4013 500 3803 
L 500 4441 
Q 881 4594 1212 4672 
Q 1544 4750 1819 4750 
Q 2544 4750 2975 4387 
Q 3406 4025 3406 3419 
Q 3406 3131 3298 2873 
Q 3191 2616 2906 2266 
Q 2828 2175 2409 1742 
Q 1991 1309 1228 531 
z
" transform="scale(0.015625)"/>
       </defs>
       <use xlink:href="#DejaVuSans-32"/>
      </g>
     </g>
    </g>
    <g id="xtick_4">
     <g id="line2d_4">
      <g>
       <use xlink:href="#m56635cd215" x="217.71" y="108.903423" style="stroke: #000000; stroke-width: 0.8"/>
      </g>
     </g>
     <g id="text_4">
      <!-- 3 -->
      <g transform="translate(214.52875 123.50186) scale(0.1 -0.1)">
       <defs>
        <path id="DejaVuSans-33" d="M 2597 2516 
Q 3050 2419 3304 2112 
Q 3559 1806 3559 1356 
Q 3559 666 3084 287 
Q 2609 -91 1734 -91 
Q 1441 -91 1130 -33 
Q 819 25 488 141 
L 488 750 
Q 750 597 1062 519 
Q 1375 441 1716 441 
Q 2309 441 2620 675 
Q 2931 909 2931 1356 
Q 2931 1769 2642 2001 
Q 2353 2234 1838 2234 
L 1294 2234 
L 1294 2753 
L 1863 2753 
Q 2328 2753 2575 2939 
Q 2822 3125 2822 3475 
Q 2822 3834 2567 4026 
Q 2313 4219 1838 4219 
Q 1578 4219 1281 4162 
Q 984 4106 628 3988 
L 628 4550 
Q 988 4650 1302 4700 
Q 1616 4750 1894 4750 
Q 2613 4750 3031 4423 
Q 3450 4097 3450 3541 
Q 3450 3153 3228 2886 
Q 3006 2619 2597 2516 
z
" transform="scale(0.015625)"/>
       </defs>
       <use xlink:href="#DejaVuSans-33"/>
      </g>
     </g>
    </g>
    <g id="xtick_5">
     <g id="line2d_5">
      <g>
       <use xlink:href="#m56635cd215" x="267.591818" y="108.903423" style="stroke: #000000; stroke-width: 0.8"/>
      </g>
     </g>
     <g id="text_5">
      <!-- 4 -->
      <g transform="translate(264.410568 123.50186) scale(0.1 -0.1)">
       <defs>
        <path id="DejaVuSans-34" d="M 2419 4116 
L 825 1625 
L 2419 1625 
L 2419 4116 
z
M 2253 4666 
L 3047 4666 
L 3047 1625 
L 3713 1625 
L 3713 1100 
L 3047 1100 
L 3047 0 
L 2419 0 
L 2419 1100 
L 313 1100 
L 313 1709 
L 2253 4666 
z
" transform="scale(0.015625)"/>
       </defs>
       <use xlink:href="#DejaVuSans-34"/>
      </g>
     </g>
    </g>
    <g id="xtick_6">
     <g id="line2d_6">
      <g>
       <use xlink:href="#m56635cd215" x="317.473636" y="108.903423" style="stroke: #000000; stroke-width: 0.8"/>
      </g>
     </g>
     <g id="text_6">
      <!-- 5 -->
      <g transform="translate(314.292386 123.50186) scale(0.1 -0.1)">
       <defs>
        <path id="DejaVuSans-35" d="M 691 4666 
L 3169 4666 
L 3169 4134 
L 1269 4134 
L 1269 2991 
Q 1406 3038 1543 3061 
Q 1681 3084 1819 3084 
Q 2600 3084 3056 2656 
Q 3513 2228 3513 1497 
Q 3513 744 3044 326 
Q 2575 -91 1722 -91 
Q 1428 -91 1123 -41 
Q 819 9 494 109 
L 494 744 
Q 775 591 1075 516 
Q 1375 441 1709 441 
Q 2250 441 2565 725 
Q 2881 1009 2881 1497 
Q 2881 1984 2565 2268 
Q 2250 2553 1709 2553 
Q 1456 2553 1204 2497 
Q 953 2441 691 2322 
L 691 4666 
z
" transform="scale(0.015625)"/>
       </defs>
       <use xlink:href="#DejaVuSans-35"/>
      </g>
     </g>
    </g>
    <g id="xtick_7">
     <g id="line2d_7">
      <g>
       <use xlink:href="#m56635cd215" x="367.355455" y="108.903423" style="stroke: #000000; stroke-width: 0.8"/>
      </g>
     </g>
     <g id="text_7">
      <!-- 6 -->
      <g transform="translate(364.174205 123.50186) scale(0.1 -0.1)">
       <defs>
        <path id="DejaVuSans-36" d="M 2113 2584 
Q 1688 2584 1439 2293 
Q 1191 2003 1191 1497 
Q 1191 994 1439 701 
Q 1688 409 2113 409 
Q 2538 409 2786 701 
Q 3034 994 3034 1497 
Q 3034 2003 2786 2293 
Q 2538 2584 2113 2584 
z
M 3366 4563 
L 3366 3988 
Q 3128 4100 2886 4159 
Q 2644 4219 2406 4219 
Q 1781 4219 1451 3797 
Q 1122 3375 1075 2522 
Q 1259 2794 1537 2939 
Q 1816 3084 2150 3084 
Q 2853 3084 3261 2657 
Q 3669 2231 3669 1497 
Q 3669 778 3244 343 
Q 2819 -91 2113 -91 
Q 1303 -91 875 529 
Q 447 1150 447 2328 
Q 447 3434 972 4092 
Q 1497 4750 2381 4750 
Q 2619 4750 2861 4703 
Q 3103 4656 3366 4563 
z
" transform="scale(0.015625)"/>
       </defs>
       <use xlink:href="#DejaVuSans-36"/>
      </g>
     </g>
    </g>
    <g id="text_8">
     <!-- $t [s]$ -->
     <g transform="translate(209.21 137.179985) scale(0.1 -0.1)">
      <defs>
       <path id="DejaVuSans-Oblique-74" d="M 2706 3500 
L 2619 3053 
L 1472 3053 
L 1100 1153 
Q 1081 1047 1072 975 
Q 1063 903 1063 863 
Q 1063 663 1183 572 
Q 1303 481 1569 481 
L 2150 481 
L 2053 0 
L 1503 0 
Q 991 0 739 200 
Q 488 400 488 806 
Q 488 878 497 964 
Q 506 1050 525 1153 
L 897 3053 
L 409 3053 
L 500 3500 
L 978 3500 
L 1172 4494 
L 1747 4494 
L 1556 3500 
L 2706 3500 
z
" transform="scale(0.015625)"/>
       <path id="DejaVuSans-5b" d="M 550 4863 
L 1875 4863 
L 1875 4416 
L 1125 4416 
L 1125 -397 
L 1875 -397 
L 1875 -844 
L 550 -844 
L 550 4863 
z
" transform="scale(0.015625)"/>
       <path id="DejaVuSans-Oblique-73" d="M 3200 3397 
L 3091 2853 
Q 2863 2978 2609 3040 
Q 2356 3103 2088 3103 
Q 1634 3103 1373 2948 
Q 1113 2794 1113 2528 
Q 1113 2219 1719 2053 
Q 1766 2041 1788 2034 
L 1972 1978 
Q 2547 1819 2739 1644 
Q 2931 1469 2931 1166 
Q 2931 609 2489 259 
Q 2047 -91 1331 -91 
Q 1053 -91 747 -37 
Q 441 16 72 128 
L 184 722 
Q 500 559 806 475 
Q 1113 391 1394 391 
Q 1816 391 2080 572 
Q 2344 753 2344 1031 
Q 2344 1331 1650 1516 
L 1591 1531 
L 1394 1581 
Q 956 1697 753 1886 
Q 550 2075 550 2369 
Q 550 2928 970 3256 
Q 1391 3584 2113 3584 
Q 2397 3584 2667 3537 
Q 2938 3491 3200 3397 
z
" transform="scale(0.015625)"/>
       <path id="DejaVuSans-5d" d="M 1947 4863 
L 1947 -844 
L 622 -844 
L 622 -397 
L 1369 -397 
L 1369 4416 
L 622 4416 
L 622 4863 
L 1947 4863 
z
" transform="scale(0.015625)"/>
      </defs>
      <use xlink:href="#DejaVuSans-Oblique-74" transform="translate(0 0.015625)"/>
      <use xlink:href="#DejaVuSans-5b" transform="translate(39.208984 0.015625)"/>
      <use xlink:href="#DejaVuSans-Oblique-73" transform="translate(78.222656 0.015625)"/>
      <use xlink:href="#DejaVuSans-5d" transform="translate(130.322266 0.015625)"/>
     </g>
    </g>
   </g>
   <g id="matplotlib.axis_2">
    <g id="ytick_1">
     <g id="line2d_8">
      <defs>
       <path id="m217eae476a" d="M 0 0 
L -3.5 0 
" style="stroke: #000000; stroke-width: 0.8"/>
      </defs>
      <g>
       <use xlink:href="#m217eae476a" x="68.064545" y="189.269917" style="stroke: #000000; stroke-width: 0.8"/>
      </g>
     </g>
     <g id="text_9">
      <!-- −0.02 -->
      <g transform="translate(30.419233 193.069136) scale(0.1 -0.1)">
       <defs>
        <path id="DejaVuSans-2212" d="M 678 2272 
L 4684 2272 
L 4684 1741 
L 678 1741 
L 678 2272 
z
" transform="scale(0.015625)"/>
        <path id="DejaVuSans-2e" d="M 684 794 
L 1344 794 
L 1344 0 
L 684 0 
L 684 794 
z
" transform="scale(0.015625)"/>
       </defs>
       <use xlink:href="#DejaVuSans-2212"/>
       <use xlink:href="#DejaVuSans-30" x="83.789062"/>
       <use xlink:href="#DejaVuSans-2e" x="147.412109"/>
       <use xlink:href="#DejaVuSans-30" x="179.199219"/>
       <use xlink:href="#DejaVuSans-32" x="242.822266"/>
      </g>
     </g>
    </g>
    <g id="ytick_2">
     <g id="line2d_9">
      <g>
       <use xlink:href="#m217eae476a" x="68.064545" y="149.08667" style="stroke: #000000; stroke-width: 0.8"/>
      </g>
     </g>
     <g id="text_10">
      <!-- −0.01 -->
      <g transform="translate(30.419233 152.885889) scale(0.1 -0.1)">
       <use xlink:href="#DejaVuSans-2212"/>
       <use xlink:href="#DejaVuSans-30" x="83.789062"/>
       <use xlink:href="#DejaVuSans-2e" x="147.412109"/>
       <use xlink:href="#DejaVuSans-30" x="179.199219"/>
       <use xlink:href="#DejaVuSans-31" x="242.822266"/>
      </g>
     </g>
    </g>
    <g id="ytick_3">
     <g id="line2d_10">
      <g>
       <use xlink:href="#m217eae476a" x="68.064545" y="108.903423" style="stroke: #000000; stroke-width: 0.8"/>
      </g>
     </g>
     <g id="text_11">
      <!-- 0.00 -->
      <g transform="translate(38.79892 112.702642) scale(0.1 -0.1)">
       <use xlink:href="#DejaVuSans-30"/>
       <use xlink:href="#DejaVuSans-2e" x="63.623047"/>
       <use xlink:href="#DejaVuSans-30" x="95.410156"/>
       <use xlink:href="#DejaVuSans-30" x="159.033203"/>
      </g>
     </g>
    </g>
    <g id="ytick_4">
     <g id="line2d_11">
      <g>
       <use xlink:href="#m217eae476a" x="68.064545" y="68.720176" style="stroke: #000000; stroke-width: 0.8"/>
      </g>
     </g>
     <g id="text_12">
      <!-- 0.01 -->
      <g transform="translate(38.79892 72.519394) scale(0.1 -0.1)">
       <use xlink:href="#DejaVuSans-30"/>
       <use xlink:href="#DejaVuSans-2e" x="63.623047"/>
       <use xlink:href="#DejaVuSans-30" x="95.410156"/>
       <use xlink:href="#DejaVuSans-31" x="159.033203"/>
      </g>
     </g>
    </g>
    <g id="ytick_5">
     <g id="line2d_12">
      <g>
       <use xlink:href="#m217eae476a" x="68.064545" y="28.536928" style="stroke: #000000; stroke-width: 0.8"/>
      </g>
     </g>
     <g id="text_13">
      <!-- 0.02 -->
      <g transform="translate(38.79892 32.336147) scale(0.1 -0.1)">
       <use xlink:href="#DejaVuSans-30"/>
       <use xlink:href="#DejaVuSans-2e" x="63.623047"/>
       <use xlink:href="#DejaVuSans-30" x="95.410156"/>
       <use xlink:href="#DejaVuSans-32" x="159.033203"/>
      </g>
     </g>
    </g>
    <g id="text_14">
     <!-- $u(t)$ [m] -->
     <g transform="translate(24.339545 128.48) rotate(-90) scale(0.1 -0.1)">
      <defs>
       <path id="DejaVuSans-Oblique-75" d="M 428 1388 
L 838 3500 
L 1416 3500 
L 1006 1409 
Q 975 1256 961 1147 
Q 947 1038 947 966 
Q 947 700 1109 554 
Q 1272 409 1569 409 
Q 2031 409 2368 721 
Q 2706 1034 2809 1563 
L 3194 3500 
L 3769 3500 
L 3091 0 
L 2516 0 
L 2631 550 
Q 2388 244 2052 76 
Q 1716 -91 1338 -91 
Q 878 -91 622 161 
Q 366 413 366 863 
Q 366 956 381 1097 
Q 397 1238 428 1388 
z
" transform="scale(0.015625)"/>
       <path id="DejaVuSans-28" d="M 1984 4856 
Q 1566 4138 1362 3434 
Q 1159 2731 1159 2009 
Q 1159 1288 1364 580 
Q 1569 -128 1984 -844 
L 1484 -844 
Q 1016 -109 783 600 
Q 550 1309 550 2009 
Q 550 2706 781 3412 
Q 1013 4119 1484 4856 
L 1984 4856 
z
" transform="scale(0.015625)"/>
       <path id="DejaVuSans-29" d="M 513 4856 
L 1013 4856 
Q 1481 4119 1714 3412 
Q 1947 2706 1947 2009 
Q 1947 1309 1714 600 
Q 1481 -109 1013 -844 
L 513 -844 
Q 928 -128 1133 580 
Q 1338 1288 1338 2009 
Q 1338 2731 1133 3434 
Q 928 4138 513 4856 
z
" transform="scale(0.015625)"/>
       <path id="DejaVuSans-20" transform="scale(0.015625)"/>
       <path id="DejaVuSans-6d" d="M 3328 2828 
Q 3544 3216 3844 3400 
Q 4144 3584 4550 3584 
Q 5097 3584 5394 3201 
Q 5691 2819 5691 2113 
L 5691 0 
L 5113 0 
L 5113 2094 
Q 5113 2597 4934 2840 
Q 4756 3084 4391 3084 
Q 3944 3084 3684 2787 
Q 3425 2491 3425 1978 
L 3425 0 
L 2847 0 
L 2847 2094 
Q 2847 2600 2669 2842 
Q 2491 3084 2119 3084 
Q 1678 3084 1418 2786 
Q 1159 2488 1159 1978 
L 1159 0 
L 581 0 
L 581 3500 
L 1159 3500 
L 1159 2956 
Q 1356 3278 1631 3431 
Q 1906 3584 2284 3584 
Q 2666 3584 2933 3390 
Q 3200 3197 3328 2828 
z
" transform="scale(0.015625)"/>
      </defs>
      <use xlink:href="#DejaVuSans-Oblique-75" transform="translate(0 0.015625)"/>
      <use xlink:href="#DejaVuSans-28" transform="translate(63.378906 0.015625)"/>
      <use xlink:href="#DejaVuSans-Oblique-74" transform="translate(102.392578 0.015625)"/>
      <use xlink:href="#DejaVuSans-29" transform="translate(141.601562 0.015625)"/>
      <use xlink:href="#DejaVuSans-20" transform="translate(180.615234 0.015625)"/>
      <use xlink:href="#DejaVuSans-5b" transform="translate(212.402344 0.015625)"/>
      <use xlink:href="#DejaVuSans-6d" transform="translate(251.416016 0.015625)"/>
      <use xlink:href="#DejaVuSans-5d" transform="translate(348.828125 0.015625)"/>
     </g>
    </g>
   </g>
   <g id="line2d_13">
    <path d="M 68.064545 146.801225 
L 68.664327 145.558723 
L 69.264108 141.912689 
L 69.86389 136.102199 
L 71.063452 119.628794 
L 72.862797 91.289084 
L 73.462578 83.344759 
L 74.062359 77.076346 
L 74.662141 72.894873 
L 75.261922 71.074523 
L 75.861703 71.734659 
L 76.461485 74.831995 
L 77.061266 80.163435 
L 77.661048 87.37939 
L 78.86061 105.479667 
L 80.060173 124.463222 
L 80.659954 132.729038 
L 81.259736 139.43258 
L 81.859517 144.134288 
L 82.459299 146.525867 
L 83.05908 146.450498 
L 83.658861 143.913122 
L 84.258643 139.080118 
L 84.858424 132.268393 
L 86.057987 114.595848 
L 87.857331 86.897491 
L 88.457112 79.783196 
L 89.056894 74.578349 
L 89.656675 71.624237 
L 90.256457 71.114566 
L 90.856238 73.082756 
L 91.456019 77.399749 
L 92.055801 83.782475 
L 93.255363 100.963027 
L 95.054708 129.009653 
L 95.654489 136.508832 
L 96.25427 142.197893 
L 96.854052 145.703795 
L 97.453833 146.796653 
L 98.053615 145.404807 
L 98.653396 141.619522 
L 99.253177 135.689003 
L 100.45274 119.062916 
L 102.252084 90.770005 
L 102.851866 82.913209 
L 103.451647 76.760623 
L 104.051428 72.715678 
L 104.65121 71.043606 
L 105.250991 71.854048 
L 105.850772 75.093862 
L 106.450554 80.550608 
L 107.050335 87.866482 
L 108.249898 106.066322 
L 109.449461 124.998092 
L 110.049242 133.183934 
L 110.649024 139.777675 
L 111.248805 144.346955 
L 111.848586 146.592159 
L 112.448368 146.366069 
L 113.048149 143.683508 
L 113.64793 138.720376 
L 114.247712 131.80211 
L 115.447275 114.013191 
L 117.246619 86.420902 
L 117.8464 79.409983 
L 118.446181 74.332984 
L 119.045963 71.52281 
L 119.645744 71.163727 
L 120.245526 73.279281 
L 120.845307 77.730752 
L 121.445088 84.226253 
L 122.644651 101.539568 
L 124.443995 129.506202 
L 125.043777 136.908805 
L 125.643558 142.475063 
L 126.243339 145.839988 
L 126.843121 146.782939 
L 127.442902 145.242084 
L 128.042684 141.318461 
L 128.642465 135.269344 
L 129.842028 118.494588 
L 131.641372 90.255302 
L 132.241153 82.48793 
L 132.840935 76.452655 
L 133.440716 72.545214 
L 134.040497 71.021825 
L 134.640279 71.982377 
L 135.24006 75.363886 
L 135.839842 80.944622 
L 137.039404 97.119823 
L 139.43853 133.632973 
L 140.038311 140.115322 
L 140.638093 144.551069 
L 141.237874 146.649358 
L 141.837655 146.272601 
L 142.437437 143.445503 
L 143.037218 138.353439 
L 143.636999 131.330303 
L 144.836562 113.4293 
L 146.635906 85.949737 
L 147.235688 79.043886 
L 147.835469 74.095961 
L 148.435251 71.430402 
L 149.035032 71.221994 
L 149.634813 73.484402 
L 150.234595 78.069277 
L 150.834376 84.675984 
L 152.033939 102.117886 
L 153.833283 129.99778 
L 154.433064 137.302022 
L 155.032846 142.744133 
L 155.632627 145.967269 
L 156.232408 146.760085 
L 156.83219 145.070594 
L 157.431971 141.009578 
L 158.031753 134.843324 
L 159.231315 117.923945 
L 161.03066 89.745098 
L 161.630441 82.069025 
L 162.230222 76.152516 
L 162.830004 72.383523 
L 163.429785 71.009183 
L 164.029566 72.119613 
L 164.629348 75.642002 
L 165.229129 81.345381 
L 166.428692 97.680716 
L 168.228036 126.056053 
L 168.827817 134.076044 
L 169.427599 140.445437 
L 170.02738 144.746583 
L 170.627162 146.69745 
L 171.226943 146.170118 
L 171.826724 143.199164 
L 172.426506 137.979397 
L 173.026287 130.853085 
L 174.22585 112.844318 
L 176.025194 85.48411 
L 176.624975 78.684994 
L 177.224757 73.867336 
L 177.824538 71.347035 
L 178.42432 71.289352 
L 179.024101 73.698068 
L 179.623882 78.415241 
L 180.223664 85.131561 
L 181.423226 102.697841 
L 183.222571 130.484269 
L 183.822352 137.688386 
L 184.422133 143.005039 
L 185.021915 146.085608 
L 185.621696 146.728097 
L 186.221478 144.890377 
L 186.821259 140.69295 
L 187.42104 134.411046 
L 188.620603 117.351126 
L 190.419947 89.239516 
L 191.019729 81.656594 
L 191.61951 75.860279 
L 192.219291 72.230642 
L 192.819073 71.005684 
L 193.418854 72.265725 
L 194.018635 75.928143 
L 194.618417 81.75279 
L 195.81798 98.244316 
L 197.617324 126.578889 
L 198.217105 134.513043 
L 198.816887 140.767943 
L 199.416668 144.933449 
L 200.016449 146.736423 
L 200.616231 146.058642 
L 201.216012 142.94455 
L 201.815793 137.59834 
L 202.415575 130.37057 
L 203.615138 112.258385 
L 204.8147 93.280669 
L 205.414482 85.024134 
L 206.014263 78.333392 
L 206.614044 73.647164 
L 207.213826 71.27273 
L 207.813607 71.365786 
L 208.413389 73.920229 
L 209.01317 78.768562 
L 209.612951 85.592873 
L 210.812514 103.279294 
L 212.611858 130.965551 
L 213.21164 138.067805 
L 213.811421 143.257716 
L 214.411202 146.194975 
L 215.010984 146.686983 
L 215.610765 144.701478 
L 216.210547 140.368652 
L 216.810328 133.972613 
L 218.009891 116.776268 
L 219.809235 88.738678 
L 220.409016 81.250737 
L 221.008798 75.576015 
L 221.608579 72.08661 
L 222.20836 71.011328 
L 222.808142 72.420676 
L 223.407923 76.222241 
L 224.007704 82.166749 
L 225.207267 98.810488 
L 227.006611 127.097461 
L 227.606393 134.943862 
L 228.206174 141.08276 
L 228.805956 145.111622 
L 229.405737 146.766268 
L 230.005518 145.938203 
L 230.6053 142.681723 
L 231.205081 137.21036 
L 231.804862 129.882877 
L 233.004425 111.671643 
L 234.203988 92.746249 
L 234.803769 84.569919 
L 235.403551 77.989166 
L 236.003332 73.435498 
L 236.603113 71.207504 
L 237.202895 71.451276 
L 237.802676 74.15083 
L 238.402458 79.129153 
L 239.002239 86.05981 
L 240.201802 103.862103 
L 242.001146 131.44151 
L 242.600927 138.440188 
L 243.200709 143.502105 
L 243.80049 146.295345 
L 244.400271 146.636753 
L 245.000053 144.503941 
L 245.599834 140.036761 
L 246.199616 133.528131 
L 247.399178 116.199511 
L 249.198522 88.242706 
L 249.798304 80.851552 
L 250.398085 75.299791 
L 250.997867 71.951461 
L 251.597648 71.026115 
L 252.197429 72.58443 
L 252.797211 76.524223 
L 253.396992 82.58716 
L 254.596555 99.379096 
L 256.395899 127.611643 
L 256.99568 135.368398 
L 257.595462 141.389814 
L 258.195243 145.281058 
L 258.795025 146.786978 
L 259.394806 145.808827 
L 259.994587 142.410746 
L 260.594369 136.815549 
L 261.793931 120.621356 
L 264.193057 84.121575 
L 264.792838 77.652399 
L 265.39262 73.23239 
L 265.992401 71.151373 
L 266.592183 71.545802 
L 267.191964 74.389816 
L 267.791745 79.496927 
L 268.391527 86.532258 
L 269.591089 104.446129 
L 271.390434 131.912031 
L 271.990215 138.805444 
L 272.589996 143.738146 
L 273.189778 146.386694 
L 273.789559 146.577419 
L 274.38934 144.297815 
L 274.989122 139.697359 
L 275.588903 133.077708 
L 276.788466 115.620994 
L 278.58781 87.751719 
L 279.187592 80.459134 
L 279.787373 75.031676 
L 280.387154 71.825228 
L 280.986936 71.050041 
L 281.586717 72.756946 
L 282.186498 76.834018 
L 282.78628 83.013919 
L 283.985843 99.950001 
L 285.785187 128.121311 
L 286.384968 135.786549 
L 286.984749 141.689029 
L 287.584531 145.441718 
L 288.184312 146.798547 
L 288.784094 145.670548 
L 289.383875 142.131684 
L 289.983656 136.414004 
L 291.183219 120.060139 
L 292.982563 91.689231 
L 293.582345 83.679211 
L 294.182126 77.323172 
L 294.781907 73.037888 
L 295.381689 71.10435 
L 295.98147 71.649342 
L 296.581252 74.637129 
L 297.181033 79.871797 
L 297.780814 87.010103 
L 298.980377 105.03123 
L 300.779721 132.377 
L 301.379503 139.163485 
L 301.979284 143.965782 
L 302.579065 146.468998 
L 303.178847 146.508995 
L 303.778628 144.08315 
L 304.37841 139.350528 
L 304.978191 132.621453 
L 306.177754 115.040856 
L 307.977098 87.265835 
L 308.576879 80.07358 
L 309.176661 74.771733 
L 309.776442 71.70794 
L 310.376223 71.0831 
L 310.976005 72.938184 
L 311.575786 77.151551 
L 312.175567 83.446926 
L 313.37513 100.523066 
L 315.174474 128.626342 
L 315.774256 136.198214 
L 316.374037 141.980334 
L 316.973819 145.593562 
L 317.5736 146.800973 
L 318.173381 145.523397 
L 318.773163 141.844606 
L 319.372944 136.005822 
L 320.572507 119.49623 
L 322.371851 91.166888 
L 322.971632 83.242932 
L 323.571414 77.001565 
L 324.171195 72.85204 
L 324.770976 71.066448 
L 325.370758 71.761871 
L 325.970539 74.89271 
L 326.570321 80.253671 
L 327.170102 87.493231 
L 328.369665 105.617265 
L 329.569228 124.589079 
L 330.169009 132.836306 
L 330.76879 139.514226 
L 331.368572 144.184959 
L 331.968353 146.542239 
L 332.568134 146.431498 
L 333.167916 143.859996 
L 333.767697 138.99635 
L 334.367479 132.159475 
L 335.567041 114.459237 
L 337.366385 86.785172 
L 337.966167 79.694982 
L 338.565948 74.520024 
L 339.16573 71.599627 
L 339.765511 71.125284 
L 340.365292 73.128099 
L 340.965074 77.476744 
L 341.564855 83.886074 
L 342.764418 101.098154 
L 344.563762 129.126615 
L 345.163543 136.603294 
L 345.763325 142.263659 
L 346.363106 145.736553 
L 346.962888 146.794256 
L 347.562669 145.367411 
L 348.16245 141.54958 
L 348.762232 135.591101 
L 349.961794 118.929765 
L 351.761139 90.648825 
L 352.36092 82.812845 
L 352.960701 76.687654 
L 353.560483 72.67489 
L 354.160264 71.037674 
L 354.760046 71.883361 
L 355.359827 75.156496 
L 355.959608 80.642458 
L 356.55939 87.981525 
L 357.758952 106.204093 
L 358.958515 125.123049 
L 359.558297 133.289838 
L 360.158078 139.857581 
L 360.757859 144.395623 
L 361.357641 146.606399 
L 361.957422 146.344946 
L 362.557203 143.628408 
L 363.156985 138.634912 
L 363.756766 131.691886 
L 364.956329 113.876278 
L 366.755673 86.309845 
L 367.355455 79.323431 
L 367.355455 79.323431 
" clip-path="url(#pe82c3ea684)" style="fill: none; stroke: #808080; stroke-width: 1.5; stroke-linecap: square"/>
   </g>
   <g id="line2d_14">
    <path d="M 68.064545 71.005621 
L 68.664327 71.67958 
L 69.264108 73.677488 
L 69.86389 76.928283 
L 70.463671 81.316345 
L 71.663234 92.845085 
L 75.261922 133.192508 
L 75.861703 138.222456 
L 76.461485 142.209609 
L 77.061266 145.012153 
L 77.661048 146.53041 
L 78.260829 146.710381 
L 78.86061 145.545664 
L 79.460392 143.077685 
L 80.060173 139.394223 
L 80.659954 134.626289 
L 81.859517 122.547871 
L 84.858424 88.259465 
L 86.057987 77.992993 
L 86.657768 74.425866 
L 87.25755 72.085008 
L 87.857331 71.053679 
L 88.457112 71.36856 
L 89.056894 73.01845 
L 89.656675 75.944669 
L 90.256457 80.043138 
L 91.456019 91.137236 
L 93.255363 111.882797 
L 95.054708 131.697125 
L 95.654489 136.97633 
L 96.25427 141.25706 
L 96.854052 144.387061 
L 97.453833 146.255009 
L 98.053615 146.794465 
L 98.653396 145.986243 
L 99.253177 143.859089 
L 99.852959 140.488659 
L 100.45274 135.994831 
L 101.652303 124.310582 
L 105.250991 84.069252 
L 105.850772 79.136099 
L 106.450554 75.261686 
L 107.050335 72.583816 
L 107.650117 71.197733 
L 108.249898 71.152736 
L 108.849679 72.450425 
L 109.449461 75.044646 
L 110.049242 78.843128 
L 111.248805 89.474446 
L 113.048149 109.976962 
L 114.847493 130.143932 
L 116.047056 140.222455 
L 116.646837 143.671976 
L 117.246619 145.884876 
L 117.8464 146.78245 
L 118.446181 146.332772 
L 119.045963 144.551837 
L 119.645744 141.502988 
L 120.245526 137.294663 
L 121.445088 126.034216 
L 125.643558 80.354701 
L 126.243339 76.18283 
L 126.843121 73.174739 
L 127.442902 71.437417 
L 128.042684 71.032656 
L 128.642465 71.974853 
L 129.242246 74.230495 
L 129.842028 77.719357 
L 130.441809 82.317349 
L 131.641372 94.152939 
L 135.24006 134.273821 
L 135.839842 139.108419 
L 136.439623 142.86871 
L 137.039404 145.42095 
L 137.639186 146.674364 
L 138.238967 146.584372 
L 138.838748 145.154173 
L 139.43853 142.434637 
L 140.038311 138.522489 
L 141.237874 127.714404 
L 143.037218 107.114617 
L 144.836562 87.073939 
L 146.036125 77.18696 
L 146.635906 73.856277 
L 147.235688 71.772123 
L 147.835469 71.008625 
L 148.435251 71.592939 
L 149.035032 73.504283 
L 149.634813 76.674676 
L 150.234595 80.991355 
L 151.434157 92.414133 
L 155.032846 132.824292 
L 155.632627 137.917776 
L 156.232408 141.9793 
L 156.83219 144.864408 
L 157.431971 146.470484 
L 158.031753 146.740404 
L 158.631534 145.664569 
L 159.231315 143.281243 
L 159.831097 139.675194 
L 160.430878 134.974679 
L 161.630441 122.991969 
L 165.229129 83.005848 
L 165.828911 78.27153 
L 166.428692 74.626702 
L 167.028473 72.201001 
L 167.628255 71.080703 
L 168.228036 71.305654 
L 168.827817 72.867851 
L 169.427599 75.711734 
L 170.02738 79.736152 
L 171.226943 90.717148 
L 173.026287 111.406858 
L 174.825631 131.314095 
L 176.025194 141.006002 
L 176.624975 144.21666 
L 177.224757 146.171324 
L 177.824538 146.800474 
L 178.42432 146.081731 
L 179.024101 144.04066 
L 179.623882 140.749855 
L 180.223664 136.326362 
L 181.423226 124.745326 
L 185.021915 84.43167 
L 185.621696 79.433789 
L 186.221478 75.484061 
L 186.821259 72.722966 
L 187.42104 71.248708 
L 188.020822 71.113724 
L 188.620603 72.322813 
L 189.220384 74.832973 
L 189.820166 78.554923 
L 190.419947 83.356285 
L 191.61951 95.481839 
L 194.618417 129.74706 
L 195.81798 139.951286 
L 196.417761 143.47935 
L 197.017542 145.777646 
L 197.617324 146.764428 
L 198.217105 146.404601 
L 198.816887 144.710961 
L 199.416668 141.743747 
L 200.016449 137.608495 
L 201.216012 126.458505 
L 203.015356 105.686252 
L 204.214919 91.985796 
L 205.414482 80.67079 
L 206.014263 76.426178 
L 206.614044 73.336691 
L 207.213826 71.512214 
L 207.813607 71.017637 
L 208.413389 71.870552 
L 209.01317 74.040622 
L 209.612951 77.450665 
L 210.212733 81.979394 
L 211.412296 93.714557 
L 215.010984 133.91733 
L 215.610765 138.817825 
L 216.210547 142.654349 
L 216.810328 145.290446 
L 217.410109 146.632359 
L 218.009891 146.632359 
L 218.609672 145.290446 
L 219.209453 142.654349 
L 219.809235 138.817825 
L 221.008798 128.12716 
L 222.808142 107.591406 
L 224.607486 87.465736 
L 225.807049 77.450665 
L 226.40683 74.040622 
L 227.006611 71.870552 
L 227.606393 71.017637 
L 228.206174 71.512214 
L 228.805956 73.336691 
L 229.405737 76.426178 
L 230.005518 80.67079 
L 231.205081 91.985796 
L 235.403551 137.608495 
L 236.003332 141.743747 
L 236.603113 144.710961 
L 237.202895 146.404601 
L 237.802676 146.764428 
L 238.402458 145.777646 
L 239.002239 143.47935 
L 239.60202 139.951286 
L 240.201802 135.318936 
L 241.401365 123.433834 
L 245.000053 83.356285 
L 245.599834 78.554923 
L 246.199616 74.832973 
L 246.799397 72.322813 
L 247.399178 71.113724 
L 247.99896 71.248708 
L 248.598741 72.722966 
L 249.198522 75.484061 
L 249.798304 79.433789 
L 250.997867 90.299942 
L 252.797211 110.930522 
L 254.596555 130.927512 
L 255.796118 140.749855 
L 256.395899 144.04066 
L 256.99568 146.081731 
L 257.595462 146.800474 
L 258.195243 146.171324 
L 258.795025 144.21666 
L 259.394806 141.006002 
L 259.994587 136.653546 
L 261.19415 125.177559 
L 264.792838 84.797968 
L 265.39262 79.736152 
L 265.992401 75.711734 
L 266.592183 72.867851 
L 267.191964 71.305654 
L 267.791745 71.080703 
L 268.391527 72.201001 
L 268.991308 74.626702 
L 269.591089 78.27153 
L 270.190871 83.005848 
L 271.390434 95.036651 
L 274.989122 134.974679 
L 275.588903 139.675194 
L 276.188685 143.281243 
L 276.788466 145.664569 
L 277.388247 146.740404 
L 277.988029 146.470484 
L 278.58781 144.864408 
L 279.187592 141.9793 
L 279.787373 137.917776 
L 280.986936 126.88001 
L 282.78628 106.161964 
L 284.585624 86.300788 
L 285.185405 80.991355 
L 285.785187 76.674676 
L 286.384968 73.504283 
L 286.984749 71.592939 
L 287.584531 71.008625 
L 288.184312 71.772123 
L 288.784094 73.856277 
L 289.383875 77.18696 
L 289.983656 81.645709 
L 291.183219 93.278582 
L 294.781907 133.556873 
L 295.381689 138.522489 
L 295.98147 142.434637 
L 296.581252 145.154173 
L 297.181033 146.584372 
L 297.780814 146.674364 
L 298.380596 145.42095 
L 298.980377 142.86871 
L 299.580158 139.108419 
L 300.779721 128.536868 
L 302.579065 108.068404 
L 304.37841 87.860933 
L 305.577972 77.719357 
L 306.177754 74.230495 
L 306.777535 71.974853 
L 307.377316 71.032656 
L 307.977098 71.437417 
L 308.576879 73.174739 
L 309.176661 76.18283 
L 309.776442 80.354701 
L 310.976005 91.560141 
L 312.775349 112.358263 
L 313.974912 126.034216 
L 315.174474 137.294663 
L 315.774256 141.502988 
L 316.374037 144.551837 
L 316.973819 146.332772 
L 317.5736 146.78245 
L 318.173381 145.884876 
L 318.773163 143.671976 
L 319.372944 140.222455 
L 319.972725 135.659004 
L 321.172288 123.873394 
L 324.770976 83.710771 
L 325.370758 78.843128 
L 325.970539 75.044646 
L 326.570321 72.450425 
L 327.170102 71.152736 
L 327.769883 71.197733 
L 328.369665 72.583816 
L 328.969446 75.261686 
L 329.569228 79.136099 
L 330.76879 89.885687 
L 332.568134 110.453865 
L 334.367479 130.537437 
L 335.567041 140.488659 
L 336.166823 143.859089 
L 336.766604 145.986243 
L 337.366385 146.794465 
L 337.966167 146.255009 
L 338.565948 144.387061 
L 339.16573 141.25706 
L 339.765511 136.97633 
L 340.965074 125.607212 
L 345.163543 80.043138 
L 345.763325 75.944669 
L 346.363106 73.01845 
L 346.962888 71.36856 
L 347.562669 71.053679 
L 348.16245 72.085008 
L 348.762232 74.425866 
L 349.362013 77.992993 
L 349.961794 82.659518 
L 351.161357 94.593661 
L 354.760046 134.626289 
L 355.359827 139.394223 
L 355.959608 143.077685 
L 356.55939 145.545664 
L 357.159171 146.710381 
L 357.758952 146.53041 
L 358.358734 145.012153 
L 358.958515 142.209609 
L 359.558297 138.222456 
L 360.757859 127.298665 
L 362.557203 106.638111 
L 364.356548 86.685602 
L 365.55611 76.928283 
L 366.155892 73.677488 
L 366.755673 71.67958 
L 367.355455 71.005621 
L 367.355455 71.005621 
" clip-path="url(#pe82c3ea684)" style="fill: none; stroke: #cccccc; stroke-width: 1.5; stroke-linecap: square"/>
   </g>
   <g id="line2d_15">
    <path d="M 68.064545 108.903423 
L 68.664327 108.33488 
L 69.264108 106.686754 
L 69.86389 104.127059 
L 72.263015 91.060696 
L 72.862797 89.023772 
L 73.462578 88.222411 
L 74.062359 88.923478 
L 74.662141 91.290115 
L 75.261922 95.363608 
L 75.861703 101.053692 
L 77.061266 116.272165 
L 78.86061 142.121909 
L 79.460392 149.351395 
L 80.060173 154.954023 
L 80.659954 158.451904 
L 81.259736 159.472621 
L 81.859517 157.778736 
L 82.459299 153.289427 
L 83.05908 146.092609 
L 83.658861 136.446513 
L 84.858424 111.624435 
L 86.657768 70.416281 
L 87.25755 58.636327 
L 87.857331 49.047748 
L 88.457112 42.248333 
L 89.056894 38.693376 
L 89.656675 38.665483 
L 90.256457 42.254282 
L 90.856238 49.34742 
L 91.456019 59.633562 
L 92.655582 87.645423 
L 95.054708 151.803355 
L 95.654489 164.581739 
L 96.25427 174.55153 
L 96.854052 181.187434 
L 97.453833 184.148239 
L 98.053615 183.29585 
L 98.653396 178.702342 
L 99.253177 170.644669 
L 99.852959 159.587358 
L 101.052521 131.091555 
L 102.851866 84.463651 
L 104.051428 60.190785 
L 104.65121 52.02587 
L 105.250991 47.019877 
L 105.850772 45.326537 
L 106.450554 46.908871 
L 107.050335 51.546876 
L 107.650117 58.856084 
L 108.849679 79.303904 
L 111.248805 124.917978 
L 111.848586 133.617892 
L 112.448368 140.30797 
L 113.048149 144.757047 
L 113.64793 146.887369 
L 114.247712 146.772082 
L 114.847493 144.62286 
L 115.447275 140.768772 
L 116.646837 129.67458 
L 118.446181 111.762334 
L 119.045963 107.171224 
L 119.645744 103.763292 
L 120.245526 101.670521 
L 120.845307 100.903871 
L 121.445088 101.357046 
L 122.04487 102.819039 
L 123.244433 107.529756 
L 124.443995 112.16292 
L 125.043777 113.547353 
L 125.643558 113.926341 
L 126.243339 113.119395 
L 126.843121 111.054254 
L 127.442902 107.776078 
L 128.642465 98.340774 
L 130.441809 82.282814 
L 131.04159 78.202962 
L 131.641372 75.504818 
L 132.241153 74.554087 
L 132.840935 75.617636 
L 133.440716 78.838719 
L 134.040497 84.220011 
L 134.640279 91.615822 
L 135.839842 111.149618 
L 138.238967 154.015968 
L 138.838748 161.779828 
L 139.43853 167.164187 
L 140.038311 169.734388 
L 140.638093 169.20452 
L 141.237874 165.460339 
L 141.837655 158.572059 
L 142.437437 148.795979 
L 143.636999 122.465838 
L 146.036125 62.644225 
L 146.635906 50.902591 
L 147.235688 41.912586 
L 147.835469 36.201163 
L 148.435251 34.119919 
L 149.035032 35.822854 
L 149.634813 41.255655 
L 150.234595 50.157209 
L 150.834376 62.073349 
L 152.033939 92.32842 
L 153.833283 141.390708 
L 155.032846 166.665003 
L 155.632627 174.981622 
L 156.232408 179.835962 
L 156.83219 181.031578 
L 157.431971 178.576639 
L 158.031753 172.680306 
L 158.631534 163.737306 
L 159.831097 139.052014 
L 162.230222 83.385059 
L 162.830004 72.50282 
L 163.429785 64.010993 
L 164.029566 58.252841 
L 164.629348 55.39985 
L 165.229129 55.447807 
L 165.828911 58.223882 
L 166.428692 63.403995 
L 167.028473 70.539122 
L 168.228036 88.458283 
L 170.02738 115.579312 
L 170.627162 122.591995 
L 171.226943 127.983842 
L 171.826724 131.578903 
L 172.426506 133.338452 
L 173.026287 133.35652 
L 173.626069 131.846282 
L 174.22585 129.118455 
L 175.425413 121.568982 
L 176.624975 113.998231 
L 177.224757 111.135237 
L 177.824538 109.244086 
L 178.42432 108.46766 
L 179.024101 108.835305 
L 179.623882 110.261674 
L 180.223664 112.5545 
L 182.622789 123.892169 
L 183.222571 125.370103 
L 183.822352 125.614852 
L 184.422133 124.401558 
L 185.021915 121.613855 
L 185.621696 117.258463 
L 186.221478 111.471015 
L 187.42104 96.756331 
L 189.220384 73.621299 
L 189.820166 67.763324 
L 190.419947 63.692377 
L 191.019729 61.819457 
L 191.61951 62.438696 
L 192.219291 65.70198 
L 192.819073 71.602149 
L 193.418854 79.966103 
L 194.618417 102.596427 
L 197.017542 154.359957 
L 197.617324 164.439894 
L 198.217105 172.01422 
L 198.816887 176.575481 
L 199.416668 177.773773 
L 200.016449 175.441495 
L 200.616231 169.607503 
L 201.216012 160.499632 
L 201.815793 148.535259 
L 203.015356 118.518004 
L 204.8147 70.296803 
L 205.414482 56.791501 
L 206.014263 45.856148 
L 206.614044 38.080432 
L 207.213826 33.881521 
L 207.813607 33.48 
L 208.413389 36.887358 
L 209.01317 43.905761 
L 209.612951 54.140115 
L 210.812514 81.841607 
L 213.21164 143.890257 
L 213.811421 156.007549 
L 214.411202 165.418713 
L 215.010984 171.70089 
L 215.610765 174.61588 
L 216.210547 174.119577 
L 216.810328 170.359636 
L 217.410109 163.661693 
L 218.009891 154.505204 
L 219.209453 131.299772 
L 221.008798 94.799752 
L 221.608579 84.836443 
L 222.20836 76.833781 
L 222.808142 71.10866 
L 223.407923 67.82242 
L 224.007704 66.977883 
L 224.607486 68.426727 
L 225.207267 71.88646 
L 225.807049 76.965611 
L 227.006611 90.06459 
L 228.206174 103.691552 
L 228.805956 109.54489 
L 229.405737 114.289023 
L 230.005518 117.70557 
L 230.6053 119.697857 
L 231.205081 120.292733 
L 231.804862 119.633202 
L 232.404644 117.962575 
L 233.604207 112.918942 
L 234.803769 108.11878 
L 235.403551 106.694238 
L 236.003332 106.275822 
L 236.603113 107.015042 
L 237.202895 108.952454 
L 237.802676 112.011835 
L 239.002239 120.635737 
L 240.201802 130.277616 
L 240.801583 134.410059 
L 241.401365 137.495393 
L 242.001146 139.141888 
L 242.600927 139.036653 
L 243.200709 136.973443 
L 243.80049 132.873762 
L 244.400271 126.799616 
L 245.599834 109.688262 
L 247.99896 68.861065 
L 248.598741 60.808152 
L 249.198522 54.823344 
L 249.798304 51.381918 
L 250.398085 50.828038 
L 250.997867 53.347981 
L 251.597648 58.952581 
L 252.197429 67.470264 
L 253.396992 91.683425 
L 256.395899 162.74888 
L 256.99568 172.546707 
L 257.595462 179.286865 
L 258.195243 182.54896 
L 258.795025 182.100215 
L 259.394806 177.911407 
L 259.994587 170.160869 
L 260.594369 159.226221 
L 261.793931 130.180131 
L 264.193057 65.9353 
L 264.792838 53.546944 
L 265.39262 44.065119 
L 265.992401 37.959684 
L 266.592183 35.510231 
L 267.191964 36.792046 
L 267.791745 41.674208 
L 268.391527 49.829836 
L 268.991308 60.757771 
L 270.190871 88.252461 
L 271.990215 131.807254 
L 272.589996 143.857444 
L 273.189778 153.619236 
L 273.789559 160.665965 
L 274.38934 164.741275 
L 274.989122 165.768616 
L 275.588903 163.84948 
L 276.188685 159.250741 
L 276.788466 152.38214 
L 277.988029 133.998307 
L 279.787373 104.046029 
L 280.387154 95.746097 
L 280.986936 89.026629 
L 281.586717 84.149874 
L 282.186498 81.238073 
L 282.78628 80.272461 
L 283.386061 81.10196 
L 283.985843 83.460711 
L 284.585624 86.993027 
L 286.984749 104.378546 
L 287.584531 107.54692 
L 288.184312 109.667247 
L 288.784094 110.623402 
L 289.383875 110.415221 
L 289.983656 109.15629 
L 290.583438 107.062939 
L 292.982563 97.039707 
L 293.582345 95.978668 
L 294.182126 96.134153 
L 294.781907 97.691339 
L 295.381689 100.723416 
L 295.98147 105.180556 
L 297.181033 117.552746 
L 298.980377 138.996517 
L 299.580158 144.937379 
L 300.17994 149.421722 
L 300.779721 152.010446 
L 301.379503 152.361672 
L 301.979284 150.259287 
L 302.579065 145.63398 
L 303.178847 138.575152 
L 303.778628 129.332666 
L 304.978191 106.035379 
L 306.777535 68.413544 
L 307.377316 58.006126 
L 307.977098 49.799829 
L 308.576879 44.344896 
L 309.176661 42.05114 
L 309.776442 43.159219 
L 310.376223 47.721648 
L 310.976005 55.594902 
L 311.575786 66.443292 
L 312.775349 94.866354 
L 315.174474 157.017582 
L 315.774256 168.797779 
L 316.374037 177.628748 
L 316.973819 183.022911 
L 317.5736 184.68 
L 318.173381 182.504851 
L 318.773163 176.613159 
L 319.372944 167.324855 
L 320.572507 140.736739 
L 323.571414 64.027298 
L 324.171195 53.423064 
L 324.770976 45.873796 
L 325.370758 41.701576 
L 325.970539 41.033932 
L 326.570321 43.800674 
L 327.170102 49.742545 
L 327.769883 58.430993 
L 328.969446 81.671588 
L 330.76879 120.49649 
L 331.968353 140.955664 
L 332.568134 147.98194 
L 333.167916 152.49231 
L 333.767697 154.403509 
L 334.367479 153.793489 
L 334.96726 150.889081 
L 335.567041 146.044473 
L 336.766604 132.408502 
L 338.565948 110.003663 
L 339.16573 103.953264 
L 339.765511 99.198191 
L 340.365292 95.921801 
L 340.965074 94.180533 
L 341.564855 93.905843 
L 342.164637 94.915195 
L 342.764418 96.931164 
L 345.163543 107.743009 
L 345.763325 109.304905 
L 346.363106 109.851581 
L 346.962888 109.259393 
L 347.562669 107.517668 
L 348.16245 104.731165 
L 349.362013 96.972249 
L 350.561576 88.675454 
L 351.161357 85.372019 
L 351.761139 83.182216 
L 352.36092 82.454956 
L 352.960701 83.451215 
L 353.560483 86.319339 
L 354.160264 91.077716 
L 354.760046 97.606227 
L 355.959608 114.816721 
L 357.758952 143.831081 
L 358.358734 152.001449 
L 358.958515 158.429234 
L 359.558297 162.608871 
L 360.158078 164.146666 
L 360.757859 162.790865 
L 361.357641 158.453531 
L 361.957422 151.222599 
L 362.557203 141.363096 
L 363.756766 115.633548 
L 366.155892 59.551812 
L 366.755673 49.086002 
L 367.355455 41.425629 
L 367.355455 41.425629 
" clip-path="url(#pe82c3ea684)" style="fill: none; stroke: #1f77b4; stroke-width: 1.5; stroke-linecap: square"/>
   </g>
   <g id="patch_3">
    <path d="M 68.064545 192.24 
L 68.064545 25.92 
" style="fill: none; stroke: #000000; stroke-width: 0.8; stroke-linejoin: miter; stroke-linecap: square"/>
   </g>
   <g id="patch_4">
    <path d="M 382.32 192.24 
L 382.32 25.92 
" style="fill: none"/>
   </g>
   <g id="patch_5">
    <path d="M 53.1 108.903423 
L 382.32 108.903423 
" style="fill: none; stroke: #000000; stroke-width: 0.8; stroke-linejoin: miter; stroke-linecap: square"/>
   </g>
   <g id="patch_6">
    <path d="M 53.1 25.92 
L 382.32 25.92 
" style="fill: none"/>
   </g>
   <g id="legend_1">
    <g id="patch_7">
     <path d="M 255.462187 77.954375 
L 375.32 77.954375 
Q 377.32 77.954375 377.32 75.954375 
L 377.32 32.92 
Q 377.32 30.92 375.32 30.92 
L 255.462187 30.92 
Q 253.462187 30.92 253.462187 32.92 
L 253.462187 75.954375 
Q 253.462187 77.954375 255.462187 77.954375 
z
" style="fill: #ffffff; opacity: 0.8; stroke: #cccccc; stroke-linejoin: miter"/>
    </g>
    <g id="line2d_16">
     <path d="M 257.462187 39.018438 
L 267.462187 39.018438 
L 277.462187 39.018438 
" style="fill: none; stroke: #808080; stroke-width: 1.5; stroke-linecap: square"/>
    </g>
    <g id="text_15">
     <!-- Transienter Anteil -->
     <g transform="translate(285.462187 42.518438) scale(0.1 -0.1)">
      <defs>
       <path id="DejaVuSans-54" d="M -19 4666 
L 3928 4666 
L 3928 4134 
L 2272 4134 
L 2272 0 
L 1638 0 
L 1638 4134 
L -19 4134 
L -19 4666 
z
" transform="scale(0.015625)"/>
       <path id="DejaVuSans-72" d="M 2631 2963 
Q 2534 3019 2420 3045 
Q 2306 3072 2169 3072 
Q 1681 3072 1420 2755 
Q 1159 2438 1159 1844 
L 1159 0 
L 581 0 
L 581 3500 
L 1159 3500 
L 1159 2956 
Q 1341 3275 1631 3429 
Q 1922 3584 2338 3584 
Q 2397 3584 2469 3576 
Q 2541 3569 2628 3553 
L 2631 2963 
z
" transform="scale(0.015625)"/>
       <path id="DejaVuSans-61" d="M 2194 1759 
Q 1497 1759 1228 1600 
Q 959 1441 959 1056 
Q 959 750 1161 570 
Q 1363 391 1709 391 
Q 2188 391 2477 730 
Q 2766 1069 2766 1631 
L 2766 1759 
L 2194 1759 
z
M 3341 1997 
L 3341 0 
L 2766 0 
L 2766 531 
Q 2569 213 2275 61 
Q 1981 -91 1556 -91 
Q 1019 -91 701 211 
Q 384 513 384 1019 
Q 384 1609 779 1909 
Q 1175 2209 1959 2209 
L 2766 2209 
L 2766 2266 
Q 2766 2663 2505 2880 
Q 2244 3097 1772 3097 
Q 1472 3097 1187 3025 
Q 903 2953 641 2809 
L 641 3341 
Q 956 3463 1253 3523 
Q 1550 3584 1831 3584 
Q 2591 3584 2966 3190 
Q 3341 2797 3341 1997 
z
" transform="scale(0.015625)"/>
       <path id="DejaVuSans-6e" d="M 3513 2113 
L 3513 0 
L 2938 0 
L 2938 2094 
Q 2938 2591 2744 2837 
Q 2550 3084 2163 3084 
Q 1697 3084 1428 2787 
Q 1159 2491 1159 1978 
L 1159 0 
L 581 0 
L 581 3500 
L 1159 3500 
L 1159 2956 
Q 1366 3272 1645 3428 
Q 1925 3584 2291 3584 
Q 2894 3584 3203 3211 
Q 3513 2838 3513 2113 
z
" transform="scale(0.015625)"/>
       <path id="DejaVuSans-73" d="M 2834 3397 
L 2834 2853 
Q 2591 2978 2328 3040 
Q 2066 3103 1784 3103 
Q 1356 3103 1142 2972 
Q 928 2841 928 2578 
Q 928 2378 1081 2264 
Q 1234 2150 1697 2047 
L 1894 2003 
Q 2506 1872 2764 1633 
Q 3022 1394 3022 966 
Q 3022 478 2636 193 
Q 2250 -91 1575 -91 
Q 1294 -91 989 -36 
Q 684 19 347 128 
L 347 722 
Q 666 556 975 473 
Q 1284 391 1588 391 
Q 1994 391 2212 530 
Q 2431 669 2431 922 
Q 2431 1156 2273 1281 
Q 2116 1406 1581 1522 
L 1381 1569 
Q 847 1681 609 1914 
Q 372 2147 372 2553 
Q 372 3047 722 3315 
Q 1072 3584 1716 3584 
Q 2034 3584 2315 3537 
Q 2597 3491 2834 3397 
z
" transform="scale(0.015625)"/>
       <path id="DejaVuSans-69" d="M 603 3500 
L 1178 3500 
L 1178 0 
L 603 0 
L 603 3500 
z
M 603 4863 
L 1178 4863 
L 1178 4134 
L 603 4134 
L 603 4863 
z
" transform="scale(0.015625)"/>
       <path id="DejaVuSans-65" d="M 3597 1894 
L 3597 1613 
L 953 1613 
Q 991 1019 1311 708 
Q 1631 397 2203 397 
Q 2534 397 2845 478 
Q 3156 559 3463 722 
L 3463 178 
Q 3153 47 2828 -22 
Q 2503 -91 2169 -91 
Q 1331 -91 842 396 
Q 353 884 353 1716 
Q 353 2575 817 3079 
Q 1281 3584 2069 3584 
Q 2775 3584 3186 3129 
Q 3597 2675 3597 1894 
z
M 3022 2063 
Q 3016 2534 2758 2815 
Q 2500 3097 2075 3097 
Q 1594 3097 1305 2825 
Q 1016 2553 972 2059 
L 3022 2063 
z
" transform="scale(0.015625)"/>
       <path id="DejaVuSans-74" d="M 1172 4494 
L 1172 3500 
L 2356 3500 
L 2356 3053 
L 1172 3053 
L 1172 1153 
Q 1172 725 1289 603 
Q 1406 481 1766 481 
L 2356 481 
L 2356 0 
L 1766 0 
Q 1100 0 847 248 
Q 594 497 594 1153 
L 594 3053 
L 172 3053 
L 172 3500 
L 594 3500 
L 594 4494 
L 1172 4494 
z
" transform="scale(0.015625)"/>
       <path id="DejaVuSans-41" d="M 2188 4044 
L 1331 1722 
L 3047 1722 
L 2188 4044 
z
M 1831 4666 
L 2547 4666 
L 4325 0 
L 3669 0 
L 3244 1197 
L 1141 1197 
L 716 0 
L 50 0 
L 1831 4666 
z
" transform="scale(0.015625)"/>
       <path id="DejaVuSans-6c" d="M 603 4863 
L 1178 4863 
L 1178 0 
L 603 0 
L 603 4863 
z
" transform="scale(0.015625)"/>
      </defs>
      <use xlink:href="#DejaVuSans-54"/>
      <use xlink:href="#DejaVuSans-72" x="46.333984"/>
      <use xlink:href="#DejaVuSans-61" x="87.447266"/>
      <use xlink:href="#DejaVuSans-6e" x="148.726562"/>
      <use xlink:href="#DejaVuSans-73" x="212.105469"/>
      <use xlink:href="#DejaVuSans-69" x="264.205078"/>
      <use xlink:href="#DejaVuSans-65" x="291.988281"/>
      <use xlink:href="#DejaVuSans-6e" x="353.511719"/>
      <use xlink:href="#DejaVuSans-74" x="416.890625"/>
      <use xlink:href="#DejaVuSans-65" x="456.099609"/>
      <use xlink:href="#DejaVuSans-72" x="517.623047"/>
      <use xlink:href="#DejaVuSans-20" x="558.736328"/>
      <use xlink:href="#DejaVuSans-41" x="590.523438"/>
      <use xlink:href="#DejaVuSans-6e" x="658.931641"/>
      <use xlink:href="#DejaVuSans-74" x="722.310547"/>
      <use xlink:href="#DejaVuSans-65" x="761.519531"/>
      <use xlink:href="#DejaVuSans-69" x="823.042969"/>
      <use xlink:href="#DejaVuSans-6c" x="850.826172"/>
     </g>
    </g>
    <g id="line2d_17">
     <path d="M 257.462187 53.696562 
L 267.462187 53.696562 
L 277.462187 53.696562 
" style="fill: none; stroke: #cccccc; stroke-width: 1.5; stroke-linecap: square"/>
    </g>
    <g id="text_16">
     <!-- Stationärer Anteil -->
     <g transform="translate(285.462187 57.196562) scale(0.1 -0.1)">
      <defs>
       <path id="DejaVuSans-53" d="M 3425 4513 
L 3425 3897 
Q 3066 4069 2747 4153 
Q 2428 4238 2131 4238 
Q 1616 4238 1336 4038 
Q 1056 3838 1056 3469 
Q 1056 3159 1242 3001 
Q 1428 2844 1947 2747 
L 2328 2669 
Q 3034 2534 3370 2195 
Q 3706 1856 3706 1288 
Q 3706 609 3251 259 
Q 2797 -91 1919 -91 
Q 1588 -91 1214 -16 
Q 841 59 441 206 
L 441 856 
Q 825 641 1194 531 
Q 1563 422 1919 422 
Q 2459 422 2753 634 
Q 3047 847 3047 1241 
Q 3047 1584 2836 1778 
Q 2625 1972 2144 2069 
L 1759 2144 
Q 1053 2284 737 2584 
Q 422 2884 422 3419 
Q 422 4038 858 4394 
Q 1294 4750 2059 4750 
Q 2388 4750 2728 4690 
Q 3069 4631 3425 4513 
z
" transform="scale(0.015625)"/>
       <path id="DejaVuSans-6f" d="M 1959 3097 
Q 1497 3097 1228 2736 
Q 959 2375 959 1747 
Q 959 1119 1226 758 
Q 1494 397 1959 397 
Q 2419 397 2687 759 
Q 2956 1122 2956 1747 
Q 2956 2369 2687 2733 
Q 2419 3097 1959 3097 
z
M 1959 3584 
Q 2709 3584 3137 3096 
Q 3566 2609 3566 1747 
Q 3566 888 3137 398 
Q 2709 -91 1959 -91 
Q 1206 -91 779 398 
Q 353 888 353 1747 
Q 353 2609 779 3096 
Q 1206 3584 1959 3584 
z
" transform="scale(0.015625)"/>
       <path id="DejaVuSans-e4" d="M 2194 1759 
Q 1497 1759 1228 1600 
Q 959 1441 959 1056 
Q 959 750 1161 570 
Q 1363 391 1709 391 
Q 2188 391 2477 730 
Q 2766 1069 2766 1631 
L 2766 1759 
L 2194 1759 
z
M 3341 1997 
L 3341 0 
L 2766 0 
L 2766 531 
Q 2569 213 2275 61 
Q 1981 -91 1556 -91 
Q 1019 -91 701 211 
Q 384 513 384 1019 
Q 384 1609 779 1909 
Q 1175 2209 1959 2209 
L 2766 2209 
L 2766 2266 
Q 2766 2663 2505 2880 
Q 2244 3097 1772 3097 
Q 1472 3097 1187 3025 
Q 903 2953 641 2809 
L 641 3341 
Q 956 3463 1253 3523 
Q 1550 3584 1831 3584 
Q 2591 3584 2966 3190 
Q 3341 2797 3341 1997 
z
M 2150 4850 
L 2784 4850 
L 2784 4219 
L 2150 4219 
L 2150 4850 
z
M 928 4850 
L 1563 4850 
L 1563 4219 
L 928 4219 
L 928 4850 
z
" transform="scale(0.015625)"/>
      </defs>
      <use xlink:href="#DejaVuSans-53"/>
      <use xlink:href="#DejaVuSans-74" x="63.476562"/>
      <use xlink:href="#DejaVuSans-61" x="102.685547"/>
      <use xlink:href="#DejaVuSans-74" x="163.964844"/>
      <use xlink:href="#DejaVuSans-69" x="203.173828"/>
      <use xlink:href="#DejaVuSans-6f" x="230.957031"/>
      <use xlink:href="#DejaVuSans-6e" x="292.138672"/>
      <use xlink:href="#DejaVuSans-e4" x="355.517578"/>
      <use xlink:href="#DejaVuSans-72" x="416.796875"/>
      <use xlink:href="#DejaVuSans-65" x="455.660156"/>
      <use xlink:href="#DejaVuSans-72" x="517.183594"/>
      <use xlink:href="#DejaVuSans-20" x="558.296875"/>
      <use xlink:href="#DejaVuSans-41" x="590.083984"/>
      <use xlink:href="#DejaVuSans-6e" x="658.492188"/>
      <use xlink:href="#DejaVuSans-74" x="721.871094"/>
      <use xlink:href="#DejaVuSans-65" x="761.080078"/>
      <use xlink:href="#DejaVuSans-69" x="822.603516"/>
      <use xlink:href="#DejaVuSans-6c" x="850.386719"/>
     </g>
    </g>
    <g id="line2d_18">
     <path d="M 257.462187 68.374687 
L 267.462187 68.374687 
L 277.462187 68.374687 
" style="fill: none; stroke: #1f77b4; stroke-width: 1.5; stroke-linecap: square"/>
    </g>
    <g id="text_17">
     <!-- Gesamtantwort -->
     <g transform="translate(285.462187 71.874687) scale(0.1 -0.1)">
      <defs>
       <path id="DejaVuSans-47" d="M 3809 666 
L 3809 1919 
L 2778 1919 
L 2778 2438 
L 4434 2438 
L 4434 434 
Q 4069 175 3628 42 
Q 3188 -91 2688 -91 
Q 1594 -91 976 548 
Q 359 1188 359 2328 
Q 359 3472 976 4111 
Q 1594 4750 2688 4750 
Q 3144 4750 3555 4637 
Q 3966 4525 4313 4306 
L 4313 3634 
Q 3963 3931 3569 4081 
Q 3175 4231 2741 4231 
Q 1884 4231 1454 3753 
Q 1025 3275 1025 2328 
Q 1025 1384 1454 906 
Q 1884 428 2741 428 
Q 3075 428 3337 486 
Q 3600 544 3809 666 
z
" transform="scale(0.015625)"/>
       <path id="DejaVuSans-77" d="M 269 3500 
L 844 3500 
L 1563 769 
L 2278 3500 
L 2956 3500 
L 3675 769 
L 4391 3500 
L 4966 3500 
L 4050 0 
L 3372 0 
L 2619 2869 
L 1863 0 
L 1184 0 
L 269 3500 
z
" transform="scale(0.015625)"/>
      </defs>
      <use xlink:href="#DejaVuSans-47"/>
      <use xlink:href="#DejaVuSans-65" x="77.490234"/>
      <use xlink:href="#DejaVuSans-73" x="139.013672"/>
      <use xlink:href="#DejaVuSans-61" x="191.113281"/>
      <use xlink:href="#DejaVuSans-6d" x="252.392578"/>
      <use xlink:href="#DejaVuSans-74" x="349.804688"/>
      <use xlink:href="#DejaVuSans-61" x="389.013672"/>
      <use xlink:href="#DejaVuSans-6e" x="450.292969"/>
      <use xlink:href="#DejaVuSans-74" x="513.671875"/>
      <use xlink:href="#DejaVuSans-77" x="552.880859"/>
      <use xlink:href="#DejaVuSans-6f" x="634.667969"/>
      <use xlink:href="#DejaVuSans-72" x="695.849609"/>
      <use xlink:href="#DejaVuSans-74" x="736.962891"/>
     </g>
    </g>
   </g>
  </g>
 </g>
 <defs>
  <clipPath id="pe82c3ea684">
   <rect x="53.1" y="25.92" width="329.22" height="166.32"/>
  </clipPath>
 </defs>
</svg>
