<?xml version="1.0" encoding="utf-8" standalone="no"?>
<!DOCTYPE svg PUBLIC "-//W3C//DTD SVG 1.1//EN"
  "http://www.w3.org/Graphics/SVG/1.1/DTD/svg11.dtd">
<svg xmlns:xlink="http://www.w3.org/1999/xlink" width="327.6pt" height="327.6pt" viewBox="0 0 327.6 327.6" xmlns="http://www.w3.org/2000/svg" version="1.1">
 <metadata>
  <rdf:RDF xmlns:dc="http://purl.org/dc/elements/1.1/" xmlns:cc="http://creativecommons.org/ns#" xmlns:rdf="http://www.w3.org/1999/02/22-rdf-syntax-ns#">
   <cc:Work>
    <dc:type rdf:resource="http://purl.org/dc/dcmitype/StillImage"/>
    <dc:date>2023-09-11T08:35:48.778183</dc:date>
    <dc:format>image/svg+xml</dc:format>
    <dc:creator>
     <cc:Agent>
      <dc:title>Matplotlib v3.7.2, https://matplotlib.org/</dc:title>
     </cc:Agent>
    </dc:creator>
   </cc:Work>
  </rdf:RDF>
 </metadata>
 <defs>
  <style type="text/css">*{stroke-linejoin: round; stroke-linecap: butt}</style>
 </defs>
 <g id="figure_1">
  <g id="patch_1">
   <path d="M 0 327.6 
L 327.6 327.6 
L 327.6 0 
L 0 0 
L 0 327.6 
z
" style="fill: none"/>
  </g>
  <g id="axes_1">
   <g id="PathCollection_1">
    <defs>
     <path id="me198a80717" d="M -3 0 
L 3 0 
M 0 3 
L 0 -3 
" style="stroke: #ff0000; stroke-width: 1.5"/>
    </defs>
    <g clip-path="url(#p30ceed93ea)">
     <use xlink:href="#me198a80717" x="82.934598" y="59.5915" style="fill: #ff0000; stroke: #ff0000; stroke-width: 1.5"/>
     <use xlink:href="#me198a80717" x="203.295167" y="271.992504" style="fill: #ff0000; stroke: #ff0000; stroke-width: 1.5"/>
     <use xlink:href="#me198a80717" x="54.614465" y="165.792002" style="fill: #ff0000; stroke: #ff0000; stroke-width: 1.5"/>
     <use xlink:href="#me198a80717" x="281.175535" y="80.8316" style="fill: #ff0000; stroke: #ff0000; stroke-width: 1.5"/>
    </g>
   </g>
   <g id="patch_2">
    <path d="M 58.862485 59.5915 
L 68.774532 57.46749 
L 68.774532 59.58442 
L 82.934598 59.58442 
L 82.934598 59.59858 
L 68.774532 59.59858 
L 68.774532 61.71551 
z
" clip-path="url(#p30ceed93ea)" style="fill: #ffa500; stroke: #ffa500; stroke-width: 3; stroke-linejoin: miter"/>
   </g>
   <g id="patch_3">
    <path d="M 227.367281 271.992504 
L 217.455234 274.116514 
L 217.455234 271.999584 
L 203.295167 271.999584 
L 203.295167 271.985424 
L 217.455234 271.985424 
L 217.455234 269.868494 
z
" clip-path="url(#p30ceed93ea)" style="fill: #ffa500; stroke: #ffa500; stroke-width: 3; stroke-linejoin: miter"/>
   </g>
   <g id="patch_4">
    <path d="M 54.614465 141.719888 
L 56.738475 151.631935 
L 54.621545 151.631935 
L 54.621545 165.792002 
L 54.607385 165.792002 
L 54.607385 151.631935 
L 52.490455 151.631935 
z
" clip-path="url(#p30ceed93ea)" style="fill: #ffa500; stroke: #ffa500; stroke-width: 3; stroke-linejoin: miter"/>
   </g>
   <g id="patch_5">
    <path d="M 281.175535 56.759486 
L 283.299545 66.671533 
L 281.182615 66.671533 
L 281.182615 80.8316 
L 281.168455 80.8316 
L 281.168455 66.671533 
L 279.051525 66.671533 
z
" clip-path="url(#p30ceed93ea)" style="fill: #ffa500; stroke: #ffa500; stroke-width: 3; stroke-linejoin: miter"/>
   </g>
   <g id="patch_6">
    <path d="M 128.009265 167.780371 
Q 127.044988 173.86081 129.802058 176.170822 
L 130.990175 174.752768 
Q 131.851239 177.155952 137.612382 177.505372 
Q 132.525917 179.576169 128.421272 177.818831 
L 129.60939 176.400777 
Q 126.722077 173.981641 127.712968 167.733383 
L 128.009265 167.780371 
z
" clip-path="url(#p30ceed93ea)" style="fill: #ff0000; stroke: #ff0000; stroke-linecap: round"/>
   </g>
   <g id="patch_7">
    <path d="M 139.574866 141.719888 
L 141.698876 151.631935 
L 139.581946 151.631935 
L 139.581946 165.792002 
L 139.567786 165.792002 
L 139.567786 151.631935 
L 137.450856 151.631935 
z
" clip-path="url(#p30ceed93ea)" style="fill: #ff0000; stroke: #ff0000; stroke-width: 3; stroke-linejoin: miter"/>
   </g>
   <g id="text_1">
    <!-- 39.464 kN -->
    <g style="fill: #ffa500" transform="translate(68.774532 52.511466) scale(0.12 -0.12)">
     <defs>
      <path id="URWPalladioL-Roma-33" d="M 275 3196 
L 474 3196 
L 589 3553 
C 659 3770 1062 3987 1395 3987 
C 1811 3987 2150 3649 2150 3247 
C 2150 2769 1773 2368 1318 2368 
C 1267 2368 1197 2374 1114 2380 
L 1018 2387 
L 941 2047 
L 986 2008 
C 1229 2118 1350 2150 1523 2150 
C 2054 2150 2362 1808 2362 1222 
C 2362 565 1971 134 1376 134 
C 1082 134 819 231 627 411 
C 474 553 390 701 269 1048 
L 96 984 
C 230 591 282 359 320 38 
C 659 -77 941 -128 1178 -128 
C 1690 -128 2278 160 2630 591 
C 2848 855 2957 1139 2957 1441 
C 2957 1750 2829 2021 2598 2182 
C 2438 2297 2291 2348 1971 2406 
C 2483 2801 2675 3094 2675 3470 
C 2675 4038 2202 4416 1491 4416 
C 1056 4416 768 4294 461 3987 
L 275 3196 
z
" transform="scale(0.015625)"/>
      <path id="URWPalladioL-Roma-39" d="M 614 -128 
C 1325 103 1632 252 1978 550 
C 2598 1087 2925 1830 2925 2684 
C 2925 3759 2406 4416 1562 4416 
C 742 4416 128 3778 128 2925 
C 128 2194 608 1657 1274 1657 
C 1491 1657 1741 1727 1856 1823 
L 2304 2194 
C 2253 1113 1555 317 397 32 
L 397 -20 
L 614 -128 
z
M 1536 4204 
C 1824 4204 2035 4083 2176 3829 
C 2291 3625 2368 3314 2368 3027 
C 2368 2442 2029 2048 1536 2048 
C 1024 2048 678 2499 678 3161 
C 678 3803 1011 4204 1536 4204 
z
" transform="scale(0.015625)"/>
      <path id="URWPalladioL-Roma-2e" d="M 794 678 
C 602 678 429 499 429 307 
C 429 115 602 -64 787 -64 
C 992 -64 1171 108 1171 307 
C 1171 499 992 678 794 678 
z
" transform="scale(0.015625)"/>
      <path id="URWPalladioL-Roma-34" d="M 1792 1152 
L 1792 684 
C 1792 310 1722 223 1408 210 
L 1011 192 
L 1011 0 
C 1862 0 1862 0 2016 0 
C 2170 19 2170 19 3021 0 
L 3021 192 
L 2714 210 
C 2400 229 2330 310 2330 684 
L 2330 1152 
C 2707 1152 2842 1145 3021 1127 
L 3021 1580 
C 2720 1555 2598 1555 2502 1561 
L 2483 1561 
L 2330 1561 
L 2330 2445 
C 2330 3576 2342 4122 2374 4383 
L 2298 4416 
L 1824 4243 
L 13 1299 
L 83 1152 
L 1792 1152 
z
M 1792 1561 
L 416 1561 
L 1792 3798 
L 1792 1561 
z
" transform="scale(0.015625)"/>
      <path id="URWPalladioL-Roma-36" d="M 2662 4287 
L 2426 4396 
C 1811 4193 1549 4066 1222 3788 
C 563 3237 205 2463 205 1585 
C 205 526 717 -128 1542 -128 
C 2374 -128 2995 532 2995 1405 
C 2995 2143 2554 2624 1875 2624 
C 1555 2624 1363 2540 986 2239 
C 915 2182 909 2175 838 2124 
C 973 3275 1510 3895 2662 4237 
L 2662 4287 
z
M 1632 2239 
C 2118 2239 2445 1816 2445 1180 
C 2445 513 2118 83 1626 83 
C 1082 83 787 551 787 1411 
C 787 1636 813 1758 883 1867 
C 1024 2085 1325 2239 1632 2239 
z
" transform="scale(0.015625)"/>
      <path id="URWPalladioL-Roma-6b" d="M 147 4249 
L 506 4249 
C 621 4249 666 4179 666 3987 
L 666 672 
C 666 268 646 224 429 211 
L 134 192 
L 134 0 
C 774 0 774 0 941 0 
C 1120 19 1152 19 1722 0 
L 1722 192 
L 1440 211 
C 1222 224 1203 268 1203 672 
L 1203 1555 
L 2899 -64 
L 3514 121 
L 3514 268 
C 3360 268 3174 377 2970 576 
L 2163 1376 
C 1933 1600 1862 1683 1754 1811 
L 2579 2457 
C 2880 2688 3053 2764 3270 2758 
L 3270 2950 
L 2630 2950 
C 2221 2540 1920 2259 1670 2060 
L 1203 1683 
L 1203 4608 
L 1146 4659 
C 864 4550 653 4499 147 4422 
L 147 4249 
z
" transform="scale(0.015625)"/>
      <path id="URWPalladioL-Roma-4e" d="M 877 4396 
C 518 4403 461 4403 109 4416 
L 109 4223 
L 390 4204 
C 685 4185 717 4128 717 3633 
L 717 782 
C 717 287 685 230 390 211 
L 109 192 
L 109 0 
C 742 0 742 0 851 0 
C 947 19 947 19 1619 0 
L 1619 192 
L 1338 211 
C 1043 230 1011 287 1011 782 
L 1011 3722 
L 4038 -7 
L 4614 -109 
C 4614 -84 4614 -77 4608 -33 
C 4602 38 4595 89 4595 128 
L 4595 3633 
C 4595 4128 4627 4185 4922 4204 
L 5203 4223 
L 5203 4416 
C 4531 4396 4531 4396 4435 4396 
C 4326 4396 4326 4396 3693 4416 
L 3693 4223 
L 3974 4204 
C 4269 4185 4301 4128 4301 3633 
L 4301 642 
L 1222 4416 
L 877 4396 
z
" transform="scale(0.015625)"/>
     </defs>
     <use xlink:href="#URWPalladioL-Roma-33" transform="scale(0.996264)"/>
     <use xlink:href="#URWPalladioL-Roma-39" transform="translate(49.8132 0) scale(0.996264)"/>
     <use xlink:href="#URWPalladioL-Roma-2e" transform="translate(99.626401 0) scale(0.996264)"/>
     <use xlink:href="#URWPalladioL-Roma-34" transform="translate(124.533001 0) scale(0.996264)"/>
     <use xlink:href="#URWPalladioL-Roma-36" transform="translate(174.346202 0) scale(0.996264)"/>
     <use xlink:href="#URWPalladioL-Roma-34" transform="translate(224.159402 0) scale(0.996264)"/>
     <use xlink:href="#URWPalladioL-Roma-6b" transform="translate(298.879203 0) scale(0.996264)"/>
     <use xlink:href="#URWPalladioL-Roma-4e" transform="translate(354.27088 0) scale(0.996264)"/>
    </g>
   </g>
   <g id="text_2">
    <!-- 39.384 kN -->
    <g style="fill: #ffa500" transform="translate(217.455234 264.91247) scale(0.12 -0.12)">
     <defs>
      <path id="URWPalladioL-Roma-38" d="M 1075 2211 
C 813 2089 704 2019 563 1884 
C 320 1640 192 1352 192 1019 
C 192 358 723 -128 1446 -128 
C 2278 -128 2970 525 2970 1320 
C 2970 1833 2733 2108 2003 2442 
C 2586 2839 2790 3108 2790 3493 
C 2790 4044 2336 4416 1658 4416 
C 896 4416 339 3929 339 3256 
C 339 2820 512 2576 1075 2211 
z
M 1818 1890 
C 2221 1711 2464 1397 2464 1051 
C 2464 512 2061 89 1542 89 
C 998 89 646 474 646 1070 
C 646 1538 832 1833 1306 2121 
L 1818 1890 
z
M 1427 2711 
C 1024 2910 819 3166 819 3486 
C 819 3910 1126 4198 1581 4198 
C 2048 4198 2355 3890 2355 3422 
C 2355 3057 2195 2807 1779 2538 
L 1427 2711 
z
" transform="scale(0.015625)"/>
     </defs>
     <use xlink:href="#URWPalladioL-Roma-33" transform="scale(0.996264)"/>
     <use xlink:href="#URWPalladioL-Roma-39" transform="translate(49.8132 0) scale(0.996264)"/>
     <use xlink:href="#URWPalladioL-Roma-2e" transform="translate(99.626401 0) scale(0.996264)"/>
     <use xlink:href="#URWPalladioL-Roma-33" transform="translate(124.533001 0) scale(0.996264)"/>
     <use xlink:href="#URWPalladioL-Roma-38" transform="translate(174.346202 0) scale(0.996264)"/>
     <use xlink:href="#URWPalladioL-Roma-34" transform="translate(224.159402 0) scale(0.996264)"/>
     <use xlink:href="#URWPalladioL-Roma-6b" transform="translate(298.879203 0) scale(0.996264)"/>
     <use xlink:href="#URWPalladioL-Roma-4e" transform="translate(354.27088 0) scale(0.996264)"/>
    </g>
   </g>
   <g id="text_3">
    <!-- 148.352 kN -->
    <g style="fill: #ffa500" transform="translate(61.694498 151.631935) scale(0.12 -0.12)">
     <defs>
      <path id="URWPalladioL-Roma-31" d="M 429 3571 
L 493 3571 
L 1318 3942 
C 1325 3949 1331 3949 1338 3949 
C 1376 3949 1389 3891 1389 3737 
L 1389 633 
C 1389 300 1318 230 973 211 
L 614 192 
L 614 0 
C 1600 0 1600 0 1670 0 
C 1754 0 1894 0 2112 -7 
C 2189 6 2413 6 2675 0 
L 2675 192 
L 2342 211 
C 1990 229 1926 299 1926 628 
L 1926 4383 
L 1837 4416 
C 1421 4199 966 4009 384 3807 
L 429 3571 
z
" transform="scale(0.015625)"/>
      <path id="URWPalladioL-Roma-35" d="M 813 3891 
C 1638 3865 1997 3859 2765 3859 
L 2797 3891 
C 2784 4006 2784 4057 2784 4140 
C 2784 4230 2784 4281 2797 4396 
L 2765 4428 
C 2285 4403 1997 4396 1651 4396 
C 1299 4396 1018 4403 538 4428 
L 506 4396 
C 512 4006 518 3724 518 3520 
C 518 2976 499 2360 480 2076 
L 608 2038 
C 909 2341 1082 2432 1395 2432 
C 2010 2432 2394 1992 2394 1295 
C 2394 579 1984 160 1286 160 
C 941 160 621 276 531 443 
L 237 973 
L 83 882 
C 230 514 307 308 397 25 
C 576 -71 832 -128 1107 -128 
C 1536 -128 1990 57 2342 366 
C 2733 715 2938 1153 2938 1631 
C 2938 2360 2419 2873 1690 2873 
C 1382 2873 1152 2790 755 2553 
L 813 3891 
z
" transform="scale(0.015625)"/>
      <path id="URWPalladioL-Roma-32" d="M 102 166 
L 102 0 
C 1299 0 1299 0 1530 0 
C 1760 19 1760 19 2995 0 
C 2982 134 2982 198 2982 287 
C 2982 370 2982 434 2995 574 
C 2259 542 1965 536 781 510 
L 1946 1741 
C 2566 2398 2758 2749 2758 3228 
C 2758 3961 2259 4416 1446 4416 
C 986 4416 672 4287 358 3967 
L 250 3100 
L 435 3100 
L 518 3394 
C 621 3763 851 3923 1280 3923 
C 1830 3923 2182 3578 2182 3036 
C 2182 2558 1914 2086 1190 1320 
L 102 166 
z
" transform="scale(0.015625)"/>
     </defs>
     <use xlink:href="#URWPalladioL-Roma-31" transform="scale(0.996264)"/>
     <use xlink:href="#URWPalladioL-Roma-34" transform="translate(49.8132 0) scale(0.996264)"/>
     <use xlink:href="#URWPalladioL-Roma-38" transform="translate(99.626401 0) scale(0.996264)"/>
     <use xlink:href="#URWPalladioL-Roma-2e" transform="translate(149.439601 0) scale(0.996264)"/>
     <use xlink:href="#URWPalladioL-Roma-33" transform="translate(174.346202 0) scale(0.996264)"/>
     <use xlink:href="#URWPalladioL-Roma-35" transform="translate(224.159402 0) scale(0.996264)"/>
     <use xlink:href="#URWPalladioL-Roma-32" transform="translate(273.972603 0) scale(0.996264)"/>
     <use xlink:href="#URWPalladioL-Roma-6b" transform="translate(348.692403 0) scale(0.996264)"/>
     <use xlink:href="#URWPalladioL-Roma-4e" transform="translate(404.08408 0) scale(0.996264)"/>
    </g>
   </g>
   <g id="text_4">
    <!-- 91.824 kN -->
    <g style="fill: #ffa500" transform="translate(288.255569 66.671533) scale(0.12 -0.12)">
     <use xlink:href="#URWPalladioL-Roma-39" transform="scale(0.996264)"/>
     <use xlink:href="#URWPalladioL-Roma-31" transform="translate(49.8132 0) scale(0.996264)"/>
     <use xlink:href="#URWPalladioL-Roma-2e" transform="translate(99.626401 0) scale(0.996264)"/>
     <use xlink:href="#URWPalladioL-Roma-38" transform="translate(124.533001 0) scale(0.996264)"/>
     <use xlink:href="#URWPalladioL-Roma-32" transform="translate(174.346202 0) scale(0.996264)"/>
     <use xlink:href="#URWPalladioL-Roma-34" transform="translate(224.159402 0) scale(0.996264)"/>
     <use xlink:href="#URWPalladioL-Roma-6b" transform="translate(298.879203 0) scale(0.996264)"/>
     <use xlink:href="#URWPalladioL-Roma-4e" transform="translate(354.27088 0) scale(0.996264)"/>
    </g>
   </g>
   <g id="text_5">
    <!-- 1380.9 kNm -->
    <g style="fill: #ff0000" transform="translate(111.254732 194.112136) scale(0.12 -0.12)">
     <defs>
      <path id="URWPalladioL-Roma-30" d="M 1683 4416 
C 691 4416 186 3628 186 2076 
C 186 1326 320 679 544 365 
C 768 51 1126 -128 1523 -128 
C 2490 -128 2976 704 2976 2345 
C 2976 3749 2560 4416 1683 4416 
z
M 1568 4191 
C 2189 4191 2438 3563 2438 2025 
C 2438 660 2195 96 1606 96 
C 986 96 723 743 723 2307 
C 723 3660 960 4191 1568 4191 
z
" transform="scale(0.015625)"/>
      <path id="URWPalladioL-Roma-6d" d="M 115 2579 
L 352 2579 
C 608 2579 634 2534 634 2112 
L 634 672 
C 634 268 614 224 397 211 
L 102 192 
L 102 0 
C 717 0 736 0 915 0 
C 1094 19 1261 12 1677 0 
L 1677 192 
L 1408 211 
C 1190 223 1171 268 1171 670 
L 1171 2023 
C 1171 2311 1594 2624 1978 2624 
C 2323 2624 2560 2298 2560 1813 
L 2560 670 
C 2560 268 2541 223 2323 211 
L 2029 192 
L 2029 0 
C 2669 0 2669 0 2829 0 
C 2989 19 2989 19 3629 0 
L 3629 192 
L 3334 211 
C 3117 223 3098 268 3098 670 
L 3098 2023 
C 3098 2311 3520 2624 3904 2624 
C 4250 2624 4486 2298 4486 1813 
L 4486 0 
C 4877 0 4883 0 4992 0 
C 5075 19 5075 19 5562 0 
L 5562 192 
L 5261 211 
C 5043 223 5024 268 5024 670 
L 5024 1985 
C 5024 2617 4653 3014 4064 3014 
C 3840 3014 3654 2956 3539 2854 
L 3053 2419 
C 2848 2841 2586 3014 2144 3014 
C 1907 3014 1728 2956 1613 2854 
L 1171 2445 
L 1171 2988 
L 1114 3008 
C 787 2873 454 2783 115 2745 
L 115 2579 
z
" transform="scale(0.015625)"/>
     </defs>
     <use xlink:href="#URWPalladioL-Roma-31" transform="scale(0.996264)"/>
     <use xlink:href="#URWPalladioL-Roma-33" transform="translate(49.8132 0) scale(0.996264)"/>
     <use xlink:href="#URWPalladioL-Roma-38" transform="translate(99.626401 0) scale(0.996264)"/>
     <use xlink:href="#URWPalladioL-Roma-30" transform="translate(149.439601 0) scale(0.996264)"/>
     <use xlink:href="#URWPalladioL-Roma-2e" transform="translate(199.252802 0) scale(0.996264)"/>
     <use xlink:href="#URWPalladioL-Roma-39" transform="translate(224.159402 0) scale(0.996264)"/>
     <use xlink:href="#URWPalladioL-Roma-6b" transform="translate(298.879203 0) scale(0.996264)"/>
     <use xlink:href="#URWPalladioL-Roma-4e" transform="translate(354.27088 0) scale(0.996264)"/>
     <use xlink:href="#URWPalladioL-Roma-6d" transform="translate(437.059787 0) scale(0.996264)"/>
    </g>
   </g>
   <g id="text_6">
    <!-- 241.4 kN -->
    <g style="fill: #ff0000" transform="translate(153.734933 151.631935) scale(0.12 -0.12)">
     <use xlink:href="#URWPalladioL-Roma-32" transform="scale(0.996264)"/>
     <use xlink:href="#URWPalladioL-Roma-34" transform="translate(49.8132 0) scale(0.996264)"/>
     <use xlink:href="#URWPalladioL-Roma-31" transform="translate(99.626401 0) scale(0.996264)"/>
     <use xlink:href="#URWPalladioL-Roma-2e" transform="translate(149.439601 0) scale(0.996264)"/>
     <use xlink:href="#URWPalladioL-Roma-34" transform="translate(174.346202 0) scale(0.996264)"/>
     <use xlink:href="#URWPalladioL-Roma-6b" transform="translate(249.066002 0) scale(0.996264)"/>
     <use xlink:href="#URWPalladioL-Roma-4e" transform="translate(304.457679 0) scale(0.996264)"/>
    </g>
   </g>
  </g>
 </g>
 <defs>
  <clipPath id="p30ceed93ea">
   <rect x="40.95" y="45.891635" width="253.89" height="239.09273"/>
  </clipPath>
 </defs>
</svg>
