<?xml version="1.0" encoding="utf-8" standalone="no"?>
<!DOCTYPE svg PUBLIC "-//W3C//DTD SVG 1.1//EN"
  "http://www.w3.org/Graphics/SVG/1.1/DTD/svg11.dtd">
<svg xmlns:xlink="http://www.w3.org/1999/xlink" width="430.918968pt" height="322.475297pt" viewBox="0 0 430.918968 322.475297" xmlns="http://www.w3.org/2000/svg" version="1.1">
 <metadata>
  <rdf:RDF xmlns:dc="http://purl.org/dc/elements/1.1/" xmlns:cc="http://creativecommons.org/ns#" xmlns:rdf="http://www.w3.org/1999/02/22-rdf-syntax-ns#">
   <cc:Work>
    <dc:type rdf:resource="http://purl.org/dc/dcmitype/StillImage"/>
    <dc:date>2023-09-04T15:08:00.059227</dc:date>
    <dc:format>image/svg+xml</dc:format>
    <dc:creator>
     <cc:Agent>
      <dc:title>Matplotlib v3.7.2, https://matplotlib.org/</dc:title>
     </cc:Agent>
    </dc:creator>
   </cc:Work>
  </rdf:RDF>
 </metadata>
 <defs>
  <style type="text/css">*{stroke-linejoin: round; stroke-linecap: butt}</style>
 </defs>
 <g id="figure_1">
  <g id="patch_1">
   <path d="M 0 322.475297 
L 430.918968 322.475297 
L 430.918968 0 
L 0 0 
z
" style="fill: #ffffff"/>
  </g>
  <g id="axes_1">
   <g id="patch_2">
    <path d="M 33.118968 284.4 
L 423.718968 284.4 
L 423.718968 7.2 
L 33.118968 7.2 
z
" style="fill: #ffffff"/>
   </g>
   <g id="matplotlib.axis_1">
    <g id="xtick_1">
     <g id="line2d_1">
      <defs>
       <path id="ma4324c6b7e" d="M 0 0 
L 0 3.5 
" style="stroke: #000000; stroke-width: 0.8"/>
      </defs>
      <g>
       <use xlink:href="#ma4324c6b7e" x="50.873514" y="284.4" style="stroke: #000000; stroke-width: 0.8"/>
      </g>
     </g>
     <g id="text_1">
      <!-- $\mathdefault{0.000}$ -->
      <g transform="translate(39.665544 298.528237) scale(0.1 -0.1)">
       <defs>
        <path id="URWPalladioL-Roma-30" d="M 1683 4416 
C 691 4416 186 3628 186 2076 
C 186 1326 320 679 544 365 
C 768 51 1126 -128 1523 -128 
C 2490 -128 2976 704 2976 2345 
C 2976 3749 2560 4416 1683 4416 
z
M 1568 4191 
C 2189 4191 2438 3563 2438 2025 
C 2438 660 2195 96 1606 96 
C 986 96 723 743 723 2307 
C 723 3660 960 4191 1568 4191 
z
" transform="scale(0.015625)"/>
        <path id="URWPalladioL-Roma-2e" d="M 794 678 
C 602 678 429 499 429 307 
C 429 115 602 -64 787 -64 
C 992 -64 1171 108 1171 307 
C 1171 499 992 678 794 678 
z
" transform="scale(0.015625)"/>
       </defs>
       <use xlink:href="#URWPalladioL-Roma-30" transform="scale(0.996264)"/>
       <use xlink:href="#URWPalladioL-Roma-2e" transform="translate(49.8132 0) scale(0.996264)"/>
       <use xlink:href="#URWPalladioL-Roma-30" transform="translate(74.719801 0) scale(0.996264)"/>
       <use xlink:href="#URWPalladioL-Roma-30" transform="translate(124.533001 0) scale(0.996264)"/>
       <use xlink:href="#URWPalladioL-Roma-30" transform="translate(174.346202 0) scale(0.996264)"/>
      </g>
     </g>
    </g>
    <g id="xtick_2">
     <g id="line2d_2">
      <g>
       <use xlink:href="#ma4324c6b7e" x="99.703508" y="284.4" style="stroke: #000000; stroke-width: 0.8"/>
      </g>
     </g>
     <g id="text_2">
      <!-- $\mathdefault{0.005}$ -->
      <g transform="translate(88.495537 298.528237) scale(0.1 -0.1)">
       <defs>
        <path id="URWPalladioL-Roma-35" d="M 813 3891 
C 1638 3865 1997 3859 2765 3859 
L 2797 3891 
C 2784 4006 2784 4057 2784 4140 
C 2784 4230 2784 4281 2797 4396 
L 2765 4428 
C 2285 4403 1997 4396 1651 4396 
C 1299 4396 1018 4403 538 4428 
L 506 4396 
C 512 4006 518 3724 518 3520 
C 518 2976 499 2360 480 2076 
L 608 2038 
C 909 2341 1082 2432 1395 2432 
C 2010 2432 2394 1992 2394 1295 
C 2394 579 1984 160 1286 160 
C 941 160 621 276 531 443 
L 237 973 
L 83 882 
C 230 514 307 308 397 25 
C 576 -71 832 -128 1107 -128 
C 1536 -128 1990 57 2342 366 
C 2733 715 2938 1153 2938 1631 
C 2938 2360 2419 2873 1690 2873 
C 1382 2873 1152 2790 755 2553 
L 813 3891 
z
" transform="scale(0.015625)"/>
       </defs>
       <use xlink:href="#URWPalladioL-Roma-30" transform="scale(0.996264)"/>
       <use xlink:href="#URWPalladioL-Roma-2e" transform="translate(49.8132 0) scale(0.996264)"/>
       <use xlink:href="#URWPalladioL-Roma-30" transform="translate(74.719801 0) scale(0.996264)"/>
       <use xlink:href="#URWPalladioL-Roma-30" transform="translate(124.533001 0) scale(0.996264)"/>
       <use xlink:href="#URWPalladioL-Roma-35" transform="translate(174.346202 0) scale(0.996264)"/>
      </g>
     </g>
    </g>
    <g id="xtick_3">
     <g id="line2d_3">
      <g>
       <use xlink:href="#ma4324c6b7e" x="148.533501" y="284.4" style="stroke: #000000; stroke-width: 0.8"/>
      </g>
     </g>
     <g id="text_3">
      <!-- $\mathdefault{0.010}$ -->
      <g transform="translate(137.325531 298.528237) scale(0.1 -0.1)">
       <defs>
        <path id="URWPalladioL-Roma-31" d="M 429 3571 
L 493 3571 
L 1318 3942 
C 1325 3949 1331 3949 1338 3949 
C 1376 3949 1389 3891 1389 3737 
L 1389 633 
C 1389 300 1318 230 973 211 
L 614 192 
L 614 0 
C 1600 0 1600 0 1670 0 
C 1754 0 1894 0 2112 -7 
C 2189 6 2413 6 2675 0 
L 2675 192 
L 2342 211 
C 1990 229 1926 299 1926 628 
L 1926 4383 
L 1837 4416 
C 1421 4199 966 4009 384 3807 
L 429 3571 
z
" transform="scale(0.015625)"/>
       </defs>
       <use xlink:href="#URWPalladioL-Roma-30" transform="scale(0.996264)"/>
       <use xlink:href="#URWPalladioL-Roma-2e" transform="translate(49.8132 0) scale(0.996264)"/>
       <use xlink:href="#URWPalladioL-Roma-30" transform="translate(74.719801 0) scale(0.996264)"/>
       <use xlink:href="#URWPalladioL-Roma-31" transform="translate(124.533001 0) scale(0.996264)"/>
       <use xlink:href="#URWPalladioL-Roma-30" transform="translate(174.346202 0) scale(0.996264)"/>
      </g>
     </g>
    </g>
    <g id="xtick_4">
     <g id="line2d_4">
      <g>
       <use xlink:href="#ma4324c6b7e" x="197.363495" y="284.4" style="stroke: #000000; stroke-width: 0.8"/>
      </g>
     </g>
     <g id="text_4">
      <!-- $\mathdefault{0.015}$ -->
      <g transform="translate(186.155525 298.528237) scale(0.1 -0.1)">
       <use xlink:href="#URWPalladioL-Roma-30" transform="scale(0.996264)"/>
       <use xlink:href="#URWPalladioL-Roma-2e" transform="translate(49.8132 0) scale(0.996264)"/>
       <use xlink:href="#URWPalladioL-Roma-30" transform="translate(74.719801 0) scale(0.996264)"/>
       <use xlink:href="#URWPalladioL-Roma-31" transform="translate(124.533001 0) scale(0.996264)"/>
       <use xlink:href="#URWPalladioL-Roma-35" transform="translate(174.346202 0) scale(0.996264)"/>
      </g>
     </g>
    </g>
    <g id="xtick_5">
     <g id="line2d_5">
      <g>
       <use xlink:href="#ma4324c6b7e" x="246.193489" y="284.4" style="stroke: #000000; stroke-width: 0.8"/>
      </g>
     </g>
     <g id="text_5">
      <!-- $\mathdefault{0.020}$ -->
      <g transform="translate(234.985519 298.528237) scale(0.1 -0.1)">
       <defs>
        <path id="URWPalladioL-Roma-32" d="M 102 166 
L 102 0 
C 1299 0 1299 0 1530 0 
C 1760 19 1760 19 2995 0 
C 2982 134 2982 198 2982 287 
C 2982 370 2982 434 2995 574 
C 2259 542 1965 536 781 510 
L 1946 1741 
C 2566 2398 2758 2749 2758 3228 
C 2758 3961 2259 4416 1446 4416 
C 986 4416 672 4287 358 3967 
L 250 3100 
L 435 3100 
L 518 3394 
C 621 3763 851 3923 1280 3923 
C 1830 3923 2182 3578 2182 3036 
C 2182 2558 1914 2086 1190 1320 
L 102 166 
z
" transform="scale(0.015625)"/>
       </defs>
       <use xlink:href="#URWPalladioL-Roma-30" transform="scale(0.996264)"/>
       <use xlink:href="#URWPalladioL-Roma-2e" transform="translate(49.8132 0) scale(0.996264)"/>
       <use xlink:href="#URWPalladioL-Roma-30" transform="translate(74.719801 0) scale(0.996264)"/>
       <use xlink:href="#URWPalladioL-Roma-32" transform="translate(124.533001 0) scale(0.996264)"/>
       <use xlink:href="#URWPalladioL-Roma-30" transform="translate(174.346202 0) scale(0.996264)"/>
      </g>
     </g>
    </g>
    <g id="xtick_6">
     <g id="line2d_6">
      <g>
       <use xlink:href="#ma4324c6b7e" x="295.023482" y="284.4" style="stroke: #000000; stroke-width: 0.8"/>
      </g>
     </g>
     <g id="text_6">
      <!-- $\mathdefault{0.025}$ -->
      <g transform="translate(283.815512 298.528237) scale(0.1 -0.1)">
       <use xlink:href="#URWPalladioL-Roma-30" transform="scale(0.996264)"/>
       <use xlink:href="#URWPalladioL-Roma-2e" transform="translate(49.8132 0) scale(0.996264)"/>
       <use xlink:href="#URWPalladioL-Roma-30" transform="translate(74.719801 0) scale(0.996264)"/>
       <use xlink:href="#URWPalladioL-Roma-32" transform="translate(124.533001 0) scale(0.996264)"/>
       <use xlink:href="#URWPalladioL-Roma-35" transform="translate(174.346202 0) scale(0.996264)"/>
      </g>
     </g>
    </g>
    <g id="xtick_7">
     <g id="line2d_7">
      <g>
       <use xlink:href="#ma4324c6b7e" x="343.853476" y="284.4" style="stroke: #000000; stroke-width: 0.8"/>
      </g>
     </g>
     <g id="text_7">
      <!-- $\mathdefault{0.030}$ -->
      <g transform="translate(332.645506 298.528237) scale(0.1 -0.1)">
       <defs>
        <path id="URWPalladioL-Roma-33" d="M 275 3196 
L 474 3196 
L 589 3553 
C 659 3770 1062 3987 1395 3987 
C 1811 3987 2150 3649 2150 3247 
C 2150 2769 1773 2368 1318 2368 
C 1267 2368 1197 2374 1114 2380 
L 1018 2387 
L 941 2047 
L 986 2008 
C 1229 2118 1350 2150 1523 2150 
C 2054 2150 2362 1808 2362 1222 
C 2362 565 1971 134 1376 134 
C 1082 134 819 231 627 411 
C 474 553 390 701 269 1048 
L 96 984 
C 230 591 282 359 320 38 
C 659 -77 941 -128 1178 -128 
C 1690 -128 2278 160 2630 591 
C 2848 855 2957 1139 2957 1441 
C 2957 1750 2829 2021 2598 2182 
C 2438 2297 2291 2348 1971 2406 
C 2483 2801 2675 3094 2675 3470 
C 2675 4038 2202 4416 1491 4416 
C 1056 4416 768 4294 461 3987 
L 275 3196 
z
" transform="scale(0.015625)"/>
       </defs>
       <use xlink:href="#URWPalladioL-Roma-30" transform="scale(0.996264)"/>
       <use xlink:href="#URWPalladioL-Roma-2e" transform="translate(49.8132 0) scale(0.996264)"/>
       <use xlink:href="#URWPalladioL-Roma-30" transform="translate(74.719801 0) scale(0.996264)"/>
       <use xlink:href="#URWPalladioL-Roma-33" transform="translate(124.533001 0) scale(0.996264)"/>
       <use xlink:href="#URWPalladioL-Roma-30" transform="translate(174.346202 0) scale(0.996264)"/>
      </g>
     </g>
    </g>
    <g id="xtick_8">
     <g id="line2d_8">
      <g>
       <use xlink:href="#ma4324c6b7e" x="392.68347" y="284.4" style="stroke: #000000; stroke-width: 0.8"/>
      </g>
     </g>
     <g id="text_8">
      <!-- $\mathdefault{0.035}$ -->
      <g transform="translate(381.4755 298.528237) scale(0.1 -0.1)">
       <use xlink:href="#URWPalladioL-Roma-30" transform="scale(0.996264)"/>
       <use xlink:href="#URWPalladioL-Roma-2e" transform="translate(49.8132 0) scale(0.996264)"/>
       <use xlink:href="#URWPalladioL-Roma-30" transform="translate(74.719801 0) scale(0.996264)"/>
       <use xlink:href="#URWPalladioL-Roma-33" transform="translate(124.533001 0) scale(0.996264)"/>
       <use xlink:href="#URWPalladioL-Roma-35" transform="translate(174.346202 0) scale(0.996264)"/>
      </g>
     </g>
    </g>
    <g id="text_9">
     <!-- $u$ [m] -->
     <g transform="translate(216.625752 312.465886) scale(0.1 -0.1)">
      <defs>
       <path id="URWPalladioL-Ital-75" d="M 2131 613 
C 2086 459 2061 287 2061 191 
C 2061 32 2131 -64 2253 -64 
C 2419 -64 2650 70 3277 536 
L 3213 651 
L 3046 542 
C 2893 440 2726 370 2656 370 
C 2605 370 2573 415 2573 479 
C 2573 530 2586 600 2605 696 
L 2611 734 
C 2758 1430 2957 2279 3149 3014 
L 3104 3072 
L 2669 2963 
L 2605 2637 
C 2509 2139 2349 1705 2150 1405 
C 1773 823 1274 370 1018 370 
C 966 370 934 427 934 536 
C 934 625 947 708 979 868 
L 1344 2599 
C 1363 2701 1376 2790 1376 2873 
C 1376 2995 1318 3072 1229 3072 
C 1101 3072 858 2937 384 2599 
L 205 2471 
L 250 2343 
L 454 2477 
C 634 2592 704 2624 762 2624 
C 819 2624 870 2567 870 2496 
C 870 2471 864 2407 858 2382 
L 454 485 
C 442 427 429 274 429 185 
C 429 51 525 -64 653 -64 
C 1056 -64 1830 652 2368 1536 
L 2131 613 
z
" transform="scale(0.015625)"/>
       <path id="URWPalladioL-Roma-5b" d="M 563 -1178 
C 1018 -1166 1030 -1166 1184 -1166 
C 1338 -1166 1370 -1166 1805 -1178 
L 1843 -1140 
L 1843 -974 
L 1818 -942 
L 1574 -942 
C 1402 -942 1261 -903 1184 -839 
C 1126 -782 1107 -692 1107 -481 
C 1107 -474 1107 -340 1101 -148 
L 1101 89 
L 1101 3379 
L 1101 3615 
C 1107 3795 1107 3935 1107 3942 
C 1107 4153 1126 4249 1184 4307 
C 1261 4371 1402 4409 1574 4409 
L 1818 4409 
L 1843 4441 
L 1843 4608 
L 1805 4646 
C 1357 4633 1338 4633 1184 4633 
C 1037 4633 1005 4633 563 4646 
L 506 4563 
C 544 4403 557 4191 557 3699 
C 557 3603 557 3526 563 3462 
L 563 3379 
L 563 89 
L 563 6 
C 557 -97 557 -103 557 -212 
L 557 -282 
C 557 -718 544 -897 506 -1095 
L 563 -1178 
z
" transform="scale(0.015625)"/>
       <path id="URWPalladioL-Roma-6d" d="M 115 2579 
L 352 2579 
C 608 2579 634 2534 634 2112 
L 634 672 
C 634 268 614 224 397 211 
L 102 192 
L 102 0 
C 717 0 736 0 915 0 
C 1094 19 1261 12 1677 0 
L 1677 192 
L 1408 211 
C 1190 223 1171 268 1171 670 
L 1171 2023 
C 1171 2311 1594 2624 1978 2624 
C 2323 2624 2560 2298 2560 1813 
L 2560 670 
C 2560 268 2541 223 2323 211 
L 2029 192 
L 2029 0 
C 2669 0 2669 0 2829 0 
C 2989 19 2989 19 3629 0 
L 3629 192 
L 3334 211 
C 3117 223 3098 268 3098 670 
L 3098 2023 
C 3098 2311 3520 2624 3904 2624 
C 4250 2624 4486 2298 4486 1813 
L 4486 0 
C 4877 0 4883 0 4992 0 
C 5075 19 5075 19 5562 0 
L 5562 192 
L 5261 211 
C 5043 223 5024 268 5024 670 
L 5024 1985 
C 5024 2617 4653 3014 4064 3014 
C 3840 3014 3654 2956 3539 2854 
L 3053 2419 
C 2848 2841 2586 3014 2144 3014 
C 1907 3014 1728 2956 1613 2854 
L 1171 2445 
L 1171 2988 
L 1114 3008 
C 787 2873 454 2783 115 2745 
L 115 2579 
z
" transform="scale(0.015625)"/>
       <path id="URWPalladioL-Roma-5d" d="M 1568 4646 
C 1114 4633 1094 4633 947 4633 
C 794 4633 762 4633 326 4646 
L 288 4608 
L 288 4441 
L 314 4409 
L 557 4409 
C 730 4409 864 4371 941 4307 
C 1005 4249 1024 4159 1024 3942 
C 1024 3923 1024 3795 1030 3615 
L 1030 3379 
L 1030 89 
L 1030 -148 
C 1024 -334 1024 -449 1024 -468 
C 1024 -686 1005 -782 941 -839 
C 864 -903 730 -942 557 -942 
L 314 -942 
L 288 -974 
L 288 -1140 
L 326 -1178 
C 774 -1166 787 -1166 947 -1166 
C 1094 -1166 1126 -1166 1568 -1178 
L 1626 -1095 
C 1587 -942 1581 -743 1574 -250 
C 1574 -161 1574 -78 1568 6 
L 1568 89 
L 1568 3379 
L 1568 3462 
C 1574 3532 1574 3615 1574 3705 
C 1574 4198 1587 4409 1626 4563 
L 1568 4646 
z
" transform="scale(0.015625)"/>
      </defs>
      <use xlink:href="#URWPalladioL-Ital-75" transform="scale(0.996264)"/>
      <use xlink:href="#URWPalladioL-Roma-5b" transform="translate(81.544261 0) scale(0.996264)"/>
      <use xlink:href="#URWPalladioL-Roma-6d" transform="translate(114.719491 0) scale(0.996264)"/>
      <use xlink:href="#URWPalladioL-Roma-5d" transform="translate(202.689165 0) scale(0.996264)"/>
     </g>
    </g>
   </g>
   <g id="matplotlib.axis_2">
    <g id="ytick_1">
     <g id="line2d_9">
      <defs>
       <path id="med841f3f2b" d="M 0 0 
L -3.5 0 
" style="stroke: #000000; stroke-width: 0.8"/>
      </defs>
      <g>
       <use xlink:href="#med841f3f2b" x="33.118968" y="271.8" style="stroke: #000000; stroke-width: 0.8"/>
      </g>
     </g>
     <g id="text_10">
      <!-- $\mathdefault{0}$ -->
      <g transform="translate(21.137648 275.364119) scale(0.1 -0.1)">
       <use xlink:href="#URWPalladioL-Roma-30" transform="scale(0.996264)"/>
      </g>
     </g>
    </g>
    <g id="ytick_2">
     <g id="line2d_10">
      <g>
       <use xlink:href="#med841f3f2b" x="33.118968" y="234.795595" style="stroke: #000000; stroke-width: 0.8"/>
      </g>
     </g>
     <g id="text_11">
      <!-- $\mathdefault{1}$ -->
      <g transform="translate(21.137648 238.359713) scale(0.1 -0.1)">
       <use xlink:href="#URWPalladioL-Roma-31" transform="scale(0.996264)"/>
      </g>
     </g>
    </g>
    <g id="ytick_3">
     <g id="line2d_11">
      <g>
       <use xlink:href="#med841f3f2b" x="33.118968" y="197.791189" style="stroke: #000000; stroke-width: 0.8"/>
      </g>
     </g>
     <g id="text_12">
      <!-- $\mathdefault{2}$ -->
      <g transform="translate(21.137648 201.355308) scale(0.1 -0.1)">
       <use xlink:href="#URWPalladioL-Roma-32" transform="scale(0.996264)"/>
      </g>
     </g>
    </g>
    <g id="ytick_4">
     <g id="line2d_12">
      <g>
       <use xlink:href="#med841f3f2b" x="33.118968" y="160.786784" style="stroke: #000000; stroke-width: 0.8"/>
      </g>
     </g>
     <g id="text_13">
      <!-- $\mathdefault{3}$ -->
      <g transform="translate(21.137648 164.350903) scale(0.1 -0.1)">
       <use xlink:href="#URWPalladioL-Roma-33" transform="scale(0.996264)"/>
      </g>
     </g>
    </g>
    <g id="ytick_5">
     <g id="line2d_13">
      <g>
       <use xlink:href="#med841f3f2b" x="33.118968" y="123.782379" style="stroke: #000000; stroke-width: 0.8"/>
      </g>
     </g>
     <g id="text_14">
      <!-- $\mathdefault{4}$ -->
      <g transform="translate(21.137648 127.346498) scale(0.1 -0.1)">
       <defs>
        <path id="URWPalladioL-Roma-34" d="M 1792 1152 
L 1792 684 
C 1792 310 1722 223 1408 210 
L 1011 192 
L 1011 0 
C 1862 0 1862 0 2016 0 
C 2170 19 2170 19 3021 0 
L 3021 192 
L 2714 210 
C 2400 229 2330 310 2330 684 
L 2330 1152 
C 2707 1152 2842 1145 3021 1127 
L 3021 1580 
C 2720 1555 2598 1555 2502 1561 
L 2483 1561 
L 2330 1561 
L 2330 2445 
C 2330 3576 2342 4122 2374 4383 
L 2298 4416 
L 1824 4243 
L 13 1299 
L 83 1152 
L 1792 1152 
z
M 1792 1561 
L 416 1561 
L 1792 3798 
L 1792 1561 
z
" transform="scale(0.015625)"/>
       </defs>
       <use xlink:href="#URWPalladioL-Roma-34" transform="scale(0.996264)"/>
      </g>
     </g>
    </g>
    <g id="ytick_6">
     <g id="line2d_14">
      <g>
       <use xlink:href="#med841f3f2b" x="33.118968" y="86.777974" style="stroke: #000000; stroke-width: 0.8"/>
      </g>
     </g>
     <g id="text_15">
      <!-- $\mathdefault{5}$ -->
      <g transform="translate(21.137648 90.342092) scale(0.1 -0.1)">
       <use xlink:href="#URWPalladioL-Roma-35" transform="scale(0.996264)"/>
      </g>
     </g>
    </g>
    <g id="ytick_7">
     <g id="line2d_15">
      <g>
       <use xlink:href="#med841f3f2b" x="33.118968" y="49.773568" style="stroke: #000000; stroke-width: 0.8"/>
      </g>
     </g>
     <g id="text_16">
      <!-- $\mathdefault{6}$ -->
      <g transform="translate(21.137648 53.337687) scale(0.1 -0.1)">
       <defs>
        <path id="URWPalladioL-Roma-36" d="M 2662 4287 
L 2426 4396 
C 1811 4193 1549 4066 1222 3788 
C 563 3237 205 2463 205 1585 
C 205 526 717 -128 1542 -128 
C 2374 -128 2995 532 2995 1405 
C 2995 2143 2554 2624 1875 2624 
C 1555 2624 1363 2540 986 2239 
C 915 2182 909 2175 838 2124 
C 973 3275 1510 3895 2662 4237 
L 2662 4287 
z
M 1632 2239 
C 2118 2239 2445 1816 2445 1180 
C 2445 513 2118 83 1626 83 
C 1082 83 787 551 787 1411 
C 787 1636 813 1758 883 1867 
C 1024 2085 1325 2239 1632 2239 
z
" transform="scale(0.015625)"/>
       </defs>
       <use xlink:href="#URWPalladioL-Roma-36" transform="scale(0.996264)"/>
      </g>
     </g>
    </g>
    <g id="ytick_8">
     <g id="line2d_16">
      <g>
       <use xlink:href="#med841f3f2b" x="33.118968" y="12.769163" style="stroke: #000000; stroke-width: 0.8"/>
      </g>
     </g>
     <g id="text_17">
      <!-- $\mathdefault{7}$ -->
      <g transform="translate(21.137648 16.333282) scale(0.1 -0.1)">
       <defs>
        <path id="URWPalladioL-Roma-37" d="M 358 83 
L 416 0 
C 666 0 666 0 710 0 
C 755 19 755 19 1005 0 
C 1274 700 1587 1369 2010 2141 
L 3181 4255 
L 3181 4448 
C 2490 4422 2266 4416 1747 4416 
C 1280 4416 966 4422 346 4448 
L 282 4416 
C 301 3807 301 3807 301 3743 
C 301 3672 301 3672 282 3087 
L 474 3087 
L 518 3447 
C 570 3846 614 3897 909 3897 
L 2618 3897 
C 2362 3370 2163 2996 1920 2604 
L 358 83 
z
" transform="scale(0.015625)"/>
       </defs>
       <use xlink:href="#URWPalladioL-Roma-37" transform="scale(0.996264)"/>
      </g>
     </g>
    </g>
    <g id="text_18">
     <!-- $H$ [m] -->
     <g transform="translate(14.328237 158.833552) rotate(-90) scale(0.1 -0.1)">
      <defs>
       <path id="URWPalladioL-Ital-48" d="M 1414 2444 
L 1683 3909 
C 1728 4159 1773 4197 2010 4217 
L 2278 4236 
L 2298 4416 
L 2144 4416 
L 1568 4396 
C 1466 4396 1350 4396 1075 4403 
L 666 4416 
L 646 4236 
L 947 4223 
C 1101 4217 1171 4165 1171 4050 
C 1171 3960 1146 3761 1114 3562 
L 640 806 
C 531 228 525 222 269 197 
L 6 178 
L -19 0 
L 250 6 
C 557 -7 704 0 826 0 
L 1446 0 
L 1613 0 
L 1632 178 
L 1318 197 
C 1146 209 1088 253 1088 385 
C 1088 442 1094 486 1114 605 
L 1382 2157 
L 1773 2163 
C 2170 2169 2438 2176 2560 2176 
C 2682 2176 2944 2169 3347 2163 
L 3738 2157 
L 3482 806 
C 3424 498 3379 322 3347 285 
C 3322 234 3251 209 3110 197 
L 2790 178 
L 2765 0 
L 3123 6 
C 3405 -7 3597 0 3667 0 
C 3770 0 3968 -7 4243 -13 
L 4512 0 
L 4531 178 
L 4160 197 
C 3994 203 3930 253 3930 385 
C 3930 442 3936 498 3955 605 
L 4544 3909 
C 4589 4159 4627 4191 4870 4217 
L 5101 4236 
L 5120 4416 
L 5018 4416 
L 4435 4396 
C 4339 4396 4205 4396 3923 4403 
L 3520 4416 
L 3501 4236 
L 3808 4223 
C 3962 4217 4032 4165 4032 4050 
C 4032 3960 4006 3754 3974 3562 
L 3782 2444 
L 1414 2444 
z
" transform="scale(0.015625)"/>
      </defs>
      <use xlink:href="#URWPalladioL-Ital-48" transform="scale(0.996264)"/>
      <use xlink:href="#URWPalladioL-Roma-5b" transform="translate(106.351183 0) scale(0.996264)"/>
      <use xlink:href="#URWPalladioL-Roma-6d" transform="translate(139.526413 0) scale(0.996264)"/>
      <use xlink:href="#URWPalladioL-Roma-5d" transform="translate(227.496087 0) scale(0.996264)"/>
     </g>
    </g>
   </g>
   <g id="line2d_17">
    <path d="M 50.873514 271.8 
L 50.983089 270.034234 
L 51.308126 268.268468 
L 51.843087 266.502703 
L 52.704421 264.484685 
L 53.82445 262.466667 
L 55.19491 260.448649 
L 57.025732 258.178378 
L 59.151283 255.908108 
L 61.844366 253.385586 
L 64.870647 250.863063 
L 68.565139 248.088288 
L 72.621792 245.313514 
L 77.435033 242.286486 
L 83.074558 239.007207 
L 89.602756 235.475676 
L 97.071564 231.691892 
L 106.062064 227.403604 
L 116.105669 222.863063 
L 128.38137 217.565766 
L 143.581072 211.259459 
L 166.732969 201.926126 
L 197.953415 189.313514 
L 212.97037 183.007207 
L 225.029515 177.70991 
L 234.841684 173.169369 
L 243.574772 168.881081 
L 250.785124 165.097297 
L 257.045597 161.565766 
L 262.413612 158.286486 
L 266.956649 155.259459 
L 270.749102 152.484685 
L 274.163599 149.70991 
L 276.921633 147.187387 
L 279.333416 144.664865 
L 281.194636 142.394595 
L 282.750555 140.124324 
L 283.867779 138.106306 
L 284.726219 136.088288 
L 285.258572 134.322523 
L 285.580931 132.556757 
L 285.687791 130.790991 
L 285.808159 128.772973 
L 286.158231 126.754955 
L 286.729338 124.736937 
L 287.625243 122.466667 
L 288.777578 120.196396 
L 290.173998 117.926126 
L 291.996834 115.403604 
L 294.088836 112.881081 
L 296.680716 110.106306 
L 299.829818 107.079279 
L 303.587017 103.8 
L 307.993671 100.268468 
L 313.078314 96.484685 
L 319.224529 92.196396 
L 326.868608 87.151351 
L 336.855088 80.845045 
L 367.920838 61.421622 
L 375.397827 56.376577 
L 381.358942 52.088288 
L 386.247391 48.304505 
L 390.443128 44.772973 
L 393.98044 41.493694 
L 396.906025 38.466667 
L 399.275688 35.691892 
L 401.151295 33.169369 
L 402.74404 30.646847 
L 403.921668 28.376577 
L 404.844117 26.106306 
L 405.439869 24.088288 
L 405.815574 22.07027 
L 405.962563 20.052252 
L 405.964423 19.8 
L 405.964423 19.8 
" clip-path="url(#pba4b9d38cf)" style="fill: none; stroke: #1f77b4; stroke-width: 1.5; stroke-linecap: square"/>
   </g>
   <g id="line2d_18">
    <path d="M 33.118968 130.813216 
L 423.718968 130.813216 
" clip-path="url(#pba4b9d38cf)" style="fill: none; stroke-dasharray: 3.7,1.6; stroke-dashoffset: 0; stroke: #808080"/>
   </g>
   <g id="line2d_19">
    <path d="M 33.118968 19.8 
L 423.718968 19.8 
" clip-path="url(#pba4b9d38cf)" style="fill: none; stroke-dasharray: 3.7,1.6; stroke-dashoffset: 0; stroke: #808080"/>
   </g>
   <g id="line2d_20">
    <path d="M 405.964423 284.4 
L 405.964423 7.2 
" clip-path="url(#pba4b9d38cf)" style="fill: none; stroke-dasharray: 3.7,1.6; stroke-dashoffset: 0; stroke: #808080"/>
   </g>
   <g id="line2d_21">
    <path d="M 285.687777 284.4 
L 285.687777 7.2 
" clip-path="url(#pba4b9d38cf)" style="fill: none; stroke-dasharray: 3.7,1.6; stroke-dashoffset: 0; stroke: #808080"/>
   </g>
   <g id="line2d_22">
    <path d="M 50.873514 284.4 
L 50.873514 7.2 
" clip-path="url(#pba4b9d38cf)" style="fill: none; stroke-dasharray: 5.55,2.4; stroke-dashoffset: 0; stroke: #000000; stroke-width: 1.5"/>
   </g>
   <g id="patch_3">
    <path d="M 33.118968 284.4 
L 33.118968 7.2 
" style="fill: none; stroke: #000000; stroke-width: 0.8; stroke-linejoin: miter; stroke-linecap: square"/>
   </g>
   <g id="patch_4">
    <path d="M 423.718968 284.4 
L 423.718968 7.2 
" style="fill: none; stroke: #000000; stroke-width: 0.8; stroke-linejoin: miter; stroke-linecap: square"/>
   </g>
   <g id="patch_5">
    <path d="M 33.118968 284.4 
L 423.718968 284.4 
" style="fill: none; stroke: #000000; stroke-width: 0.8; stroke-linejoin: miter; stroke-linecap: square"/>
   </g>
   <g id="patch_6">
    <path d="M 33.118968 7.2 
L 423.718968 7.2 
" style="fill: none; stroke: #000000; stroke-width: 0.8; stroke-linejoin: miter; stroke-linecap: square"/>
   </g>
  </g>
 </g>
 <defs>
  <clipPath id="pba4b9d38cf">
   <rect x="33.118968" y="7.2" width="390.6" height="277.2"/>
  </clipPath>
 </defs>
</svg>
