<?xml version="1.0" encoding="utf-8" standalone="no"?>
<!DOCTYPE svg PUBLIC "-//W3C//DTD SVG 1.1//EN"
  "http://www.w3.org/Graphics/SVG/1.1/DTD/svg11.dtd">
<svg xmlns:xlink="http://www.w3.org/1999/xlink" width="416.146725pt" height="208.8pt" viewBox="0 0 416.146725 208.8" xmlns="http://www.w3.org/2000/svg" version="1.1">
 <metadata>
  <rdf:RDF xmlns:dc="http://purl.org/dc/elements/1.1/" xmlns:cc="http://creativecommons.org/ns#" xmlns:rdf="http://www.w3.org/1999/02/22-rdf-syntax-ns#">
   <cc:Work>
    <dc:type rdf:resource="http://purl.org/dc/dcmitype/StillImage"/>
    <dc:date>2023-08-10T16:28:45.079571</dc:date>
    <dc:format>image/svg+xml</dc:format>
    <dc:creator>
     <cc:Agent>
      <dc:title>Matplotlib v3.7.1, https://matplotlib.org/</dc:title>
     </cc:Agent>
    </dc:creator>
   </cc:Work>
  </rdf:RDF>
 </metadata>
 <defs>
  <style type="text/css">*{stroke-linejoin: round; stroke-linecap: butt}</style>
 </defs>
 <g id="figure_1">
  <g id="patch_1">
   <path d="M 0 208.8 
L 416.146725 208.8 
L 416.146725 0 
L 0 0 
z
" style="fill: #ffffff"/>
  </g>
  <g id="axes_1">
   <g id="patch_2">
    <path d="M 47.754664 201.6 
L 408.946725 201.6 
L 408.946725 7.2 
L 47.754664 7.2 
z
" style="fill: #ffffff"/>
   </g>
   <g id="matplotlib.axis_1">
    <g id="xtick_1">
     <g id="line2d_1">
      <defs>
       <path id="m9703a05efd" d="M 0 0 
L 0 3.5 
" style="stroke: #000000; stroke-width: 0.8"/>
      </defs>
      <g>
       <use xlink:href="#m9703a05efd" x="64.172485" y="104.352333" style="stroke: #000000; stroke-width: 0.8"/>
      </g>
     </g>
     <g id="text_1">
      <!-- $\mathdefault{0}$ -->
      <g transform="translate(61.681825 118.48057) scale(0.1 -0.1)">
       <defs>
        <path id="URWPalladioL-Roma-30" d="M 1683 4416 
C 691 4416 186 3628 186 2076 
C 186 1326 320 679 544 365 
C 768 51 1126 -128 1523 -128 
C 2490 -128 2976 704 2976 2345 
C 2976 3749 2560 4416 1683 4416 
z
M 1568 4191 
C 2189 4191 2438 3563 2438 2025 
C 2438 660 2195 96 1606 96 
C 986 96 723 743 723 2307 
C 723 3660 960 4191 1568 4191 
z
" transform="scale(0.015625)"/>
       </defs>
       <use xlink:href="#URWPalladioL-Roma-30" transform="scale(0.996264)"/>
      </g>
     </g>
    </g>
    <g id="xtick_2">
     <g id="line2d_2">
      <g>
       <use xlink:href="#m9703a05efd" x="118.898555" y="104.352333" style="stroke: #000000; stroke-width: 0.8"/>
      </g>
     </g>
     <g id="text_2">
      <!-- $\mathdefault{1}$ -->
      <g transform="translate(116.407895 118.48057) scale(0.1 -0.1)">
       <defs>
        <path id="URWPalladioL-Roma-31" d="M 429 3571 
L 493 3571 
L 1318 3942 
C 1325 3949 1331 3949 1338 3949 
C 1376 3949 1389 3891 1389 3737 
L 1389 633 
C 1389 300 1318 230 973 211 
L 614 192 
L 614 0 
C 1600 0 1600 0 1670 0 
C 1754 0 1894 0 2112 -7 
C 2189 6 2413 6 2675 0 
L 2675 192 
L 2342 211 
C 1990 229 1926 299 1926 628 
L 1926 4383 
L 1837 4416 
C 1421 4199 966 4009 384 3807 
L 429 3571 
z
" transform="scale(0.015625)"/>
       </defs>
       <use xlink:href="#URWPalladioL-Roma-31" transform="scale(0.996264)"/>
      </g>
     </g>
    </g>
    <g id="xtick_3">
     <g id="line2d_3">
      <g>
       <use xlink:href="#m9703a05efd" x="173.624625" y="104.352333" style="stroke: #000000; stroke-width: 0.8"/>
      </g>
     </g>
     <g id="text_3">
      <!-- $\mathdefault{2}$ -->
      <g transform="translate(171.133965 118.48057) scale(0.1 -0.1)">
       <defs>
        <path id="URWPalladioL-Roma-32" d="M 102 166 
L 102 0 
C 1299 0 1299 0 1530 0 
C 1760 19 1760 19 2995 0 
C 2982 134 2982 198 2982 287 
C 2982 370 2982 434 2995 574 
C 2259 542 1965 536 781 510 
L 1946 1741 
C 2566 2398 2758 2749 2758 3228 
C 2758 3961 2259 4416 1446 4416 
C 986 4416 672 4287 358 3967 
L 250 3100 
L 435 3100 
L 518 3394 
C 621 3763 851 3923 1280 3923 
C 1830 3923 2182 3578 2182 3036 
C 2182 2558 1914 2086 1190 1320 
L 102 166 
z
" transform="scale(0.015625)"/>
       </defs>
       <use xlink:href="#URWPalladioL-Roma-32" transform="scale(0.996264)"/>
      </g>
     </g>
    </g>
    <g id="xtick_4">
     <g id="line2d_4">
      <g>
       <use xlink:href="#m9703a05efd" x="228.350695" y="104.352333" style="stroke: #000000; stroke-width: 0.8"/>
      </g>
     </g>
     <g id="text_4">
      <!-- $\mathdefault{3}$ -->
      <g transform="translate(225.860034 118.48057) scale(0.1 -0.1)">
       <defs>
        <path id="URWPalladioL-Roma-33" d="M 275 3196 
L 474 3196 
L 589 3553 
C 659 3770 1062 3987 1395 3987 
C 1811 3987 2150 3649 2150 3247 
C 2150 2769 1773 2368 1318 2368 
C 1267 2368 1197 2374 1114 2380 
L 1018 2387 
L 941 2047 
L 986 2008 
C 1229 2118 1350 2150 1523 2150 
C 2054 2150 2362 1808 2362 1222 
C 2362 565 1971 134 1376 134 
C 1082 134 819 231 627 411 
C 474 553 390 701 269 1048 
L 96 984 
C 230 591 282 359 320 38 
C 659 -77 941 -128 1178 -128 
C 1690 -128 2278 160 2630 591 
C 2848 855 2957 1139 2957 1441 
C 2957 1750 2829 2021 2598 2182 
C 2438 2297 2291 2348 1971 2406 
C 2483 2801 2675 3094 2675 3470 
C 2675 4038 2202 4416 1491 4416 
C 1056 4416 768 4294 461 3987 
L 275 3196 
z
" transform="scale(0.015625)"/>
       </defs>
       <use xlink:href="#URWPalladioL-Roma-33" transform="scale(0.996264)"/>
      </g>
     </g>
    </g>
    <g id="xtick_5">
     <g id="line2d_5">
      <g>
       <use xlink:href="#m9703a05efd" x="283.076764" y="104.352333" style="stroke: #000000; stroke-width: 0.8"/>
      </g>
     </g>
     <g id="text_5">
      <!-- $\mathdefault{4}$ -->
      <g transform="translate(280.586104 118.48057) scale(0.1 -0.1)">
       <defs>
        <path id="URWPalladioL-Roma-34" d="M 1792 1152 
L 1792 684 
C 1792 310 1722 223 1408 210 
L 1011 192 
L 1011 0 
C 1862 0 1862 0 2016 0 
C 2170 19 2170 19 3021 0 
L 3021 192 
L 2714 210 
C 2400 229 2330 310 2330 684 
L 2330 1152 
C 2707 1152 2842 1145 3021 1127 
L 3021 1580 
C 2720 1555 2598 1555 2502 1561 
L 2483 1561 
L 2330 1561 
L 2330 2445 
C 2330 3576 2342 4122 2374 4383 
L 2298 4416 
L 1824 4243 
L 13 1299 
L 83 1152 
L 1792 1152 
z
M 1792 1561 
L 416 1561 
L 1792 3798 
L 1792 1561 
z
" transform="scale(0.015625)"/>
       </defs>
       <use xlink:href="#URWPalladioL-Roma-34" transform="scale(0.996264)"/>
      </g>
     </g>
    </g>
    <g id="xtick_6">
     <g id="line2d_6">
      <g>
       <use xlink:href="#m9703a05efd" x="337.802834" y="104.352333" style="stroke: #000000; stroke-width: 0.8"/>
      </g>
     </g>
     <g id="text_6">
      <!-- $\mathdefault{5}$ -->
      <g transform="translate(335.312174 118.48057) scale(0.1 -0.1)">
       <defs>
        <path id="URWPalladioL-Roma-35" d="M 813 3891 
C 1638 3865 1997 3859 2765 3859 
L 2797 3891 
C 2784 4006 2784 4057 2784 4140 
C 2784 4230 2784 4281 2797 4396 
L 2765 4428 
C 2285 4403 1997 4396 1651 4396 
C 1299 4396 1018 4403 538 4428 
L 506 4396 
C 512 4006 518 3724 518 3520 
C 518 2976 499 2360 480 2076 
L 608 2038 
C 909 2341 1082 2432 1395 2432 
C 2010 2432 2394 1992 2394 1295 
C 2394 579 1984 160 1286 160 
C 941 160 621 276 531 443 
L 237 973 
L 83 882 
C 230 514 307 308 397 25 
C 576 -71 832 -128 1107 -128 
C 1536 -128 1990 57 2342 366 
C 2733 715 2938 1153 2938 1631 
C 2938 2360 2419 2873 1690 2873 
C 1382 2873 1152 2790 755 2553 
L 813 3891 
z
" transform="scale(0.015625)"/>
       </defs>
       <use xlink:href="#URWPalladioL-Roma-35" transform="scale(0.996264)"/>
      </g>
     </g>
    </g>
    <g id="xtick_7">
     <g id="line2d_7">
      <g>
       <use xlink:href="#m9703a05efd" x="392.528904" y="104.352333" style="stroke: #000000; stroke-width: 0.8"/>
      </g>
     </g>
     <g id="text_7">
      <!-- $\mathdefault{6}$ -->
      <g transform="translate(390.038244 118.48057) scale(0.1 -0.1)">
       <defs>
        <path id="URWPalladioL-Roma-36" d="M 2662 4287 
L 2426 4396 
C 1811 4193 1549 4066 1222 3788 
C 563 3237 205 2463 205 1585 
C 205 526 717 -128 1542 -128 
C 2374 -128 2995 532 2995 1405 
C 2995 2143 2554 2624 1875 2624 
C 1555 2624 1363 2540 986 2239 
C 915 2182 909 2175 838 2124 
C 973 3275 1510 3895 2662 4237 
L 2662 4287 
z
M 1632 2239 
C 2118 2239 2445 1816 2445 1180 
C 2445 513 2118 83 1626 83 
C 1082 83 787 551 787 1411 
C 787 1636 813 1758 883 1867 
C 1024 2085 1325 2239 1632 2239 
z
" transform="scale(0.015625)"/>
       </defs>
       <use xlink:href="#URWPalladioL-Roma-36" transform="scale(0.996264)"/>
      </g>
     </g>
    </g>
    <g id="text_8">
     <!-- $t [s]$ -->
     <g transform="translate(221.499228 132.861624) scale(0.1 -0.1)">
      <defs>
       <path id="URWPalladioL-Ital-74" d="M 800 2489 
L 442 678 
C 435 633 429 620 410 544 
C 371 364 358 268 358 192 
C 358 32 429 -64 550 -64 
C 774 -64 998 64 1498 467 
L 1594 544 
L 1696 627 
L 1632 742 
L 1344 544 
C 1158 416 1030 352 960 352 
C 902 352 870 403 870 480 
C 870 646 960 1164 1146 2092 
L 1229 2489 
L 1914 2489 
L 1984 2809 
C 1741 2784 1523 2771 1280 2771 
C 1382 3373 1453 3686 1568 4032 
L 1498 4128 
C 1370 4051 1197 3974 998 3897 
L 838 2809 
C 557 2675 390 2604 275 2572 
L 262 2489 
L 800 2489 
z
" transform="scale(0.015625)"/>
       <path id="CMR10-5b" d="M 1632 -1601 
L 1632 -1344 
L 1011 -1344 
L 1011 4544 
L 1632 4544 
L 1632 4800 
L 755 4800 
L 755 -1601 
L 1632 -1601 
z
" transform="scale(0.015625)"/>
       <path id="URWPalladioL-Ital-73" d="M 198 948 
C 166 624 128 401 58 108 
C 301 -7 518 -64 742 -64 
C 1056 -64 1350 51 1677 306 
C 2003 560 2138 795 2138 1113 
C 2138 1456 1933 1640 1459 1729 
L 1184 1780 
C 800 1850 678 1958 678 2218 
C 678 2555 966 2815 1331 2815 
C 1594 2815 1837 2701 1939 2530 
L 1939 2180 
L 2086 2180 
C 2112 2403 2138 2574 2208 2899 
C 1958 3020 1779 3072 1568 3072 
C 1235 3072 845 2879 538 2574 
C 371 2403 301 2244 301 2015 
C 301 1659 499 1456 922 1373 
L 1325 1297 
C 1606 1246 1709 1132 1709 884 
C 1709 471 1414 192 960 192 
C 736 192 538 261 358 414 
L 358 948 
L 198 948 
z
" transform="scale(0.015625)"/>
       <path id="CMR10-5d" d="M 1018 4800 
L 141 4800 
L 141 4544 
L 762 4544 
L 762 -1344 
L 141 -1344 
L 141 -1601 
L 1018 -1601 
L 1018 4800 
z
" transform="scale(0.015625)"/>
      </defs>
      <use xlink:href="#URWPalladioL-Ital-74" transform="scale(0.996264)"/>
      <use xlink:href="#CMR10-5b" transform="translate(35.665282 0) scale(1.038107)"/>
      <use xlink:href="#URWPalladioL-Ital-73" transform="translate(66.947981 0) scale(0.996264)"/>
      <use xlink:href="#CMR10-5d" transform="translate(108.193259 0) scale(1.038107)"/>
     </g>
    </g>
   </g>
   <g id="matplotlib.axis_2">
    <g id="ytick_1">
     <g id="line2d_8">
      <defs>
       <path id="me3035c33cd" d="M 0 0 
L -3.5 0 
" style="stroke: #000000; stroke-width: 0.8"/>
      </defs>
      <g>
       <use xlink:href="#me3035c33cd" x="64.172485" y="181.915856" style="stroke: #000000; stroke-width: 0.8"/>
      </g>
     </g>
     <g id="text_9">
      <!-- $\mathdefault{−0.0075}$ -->
      <g transform="translate(21.581054 185.479975) scale(0.1 -0.1)">
       <defs>
        <path id="CMSY10-0" d="M 4218 1472 
C 4326 1472 4442 1472 4442 1600 
C 4442 1728 4326 1728 4218 1728 
L 755 1728 
C 646 1728 531 1728 531 1600 
C 531 1472 646 1472 755 1472 
L 4218 1472 
z
" transform="scale(0.015625)"/>
        <path id="URWPalladioL-Roma-2e" d="M 794 678 
C 602 678 429 499 429 307 
C 429 115 602 -64 787 -64 
C 992 -64 1171 108 1171 307 
C 1171 499 992 678 794 678 
z
" transform="scale(0.015625)"/>
        <path id="URWPalladioL-Roma-37" d="M 358 83 
L 416 0 
C 666 0 666 0 710 0 
C 755 19 755 19 1005 0 
C 1274 700 1587 1369 2010 2141 
L 3181 4255 
L 3181 4448 
C 2490 4422 2266 4416 1747 4416 
C 1280 4416 966 4422 346 4448 
L 282 4416 
C 301 3807 301 3807 301 3743 
C 301 3672 301 3672 282 3087 
L 474 3087 
L 518 3447 
C 570 3846 614 3897 909 3897 
L 2618 3897 
C 2362 3370 2163 2996 1920 2604 
L 358 83 
z
" transform="scale(0.015625)"/>
       </defs>
       <use xlink:href="#CMSY10-0" transform="scale(1.038107)"/>
       <use xlink:href="#URWPalladioL-Roma-30" transform="translate(81.941696 0) scale(0.996264)"/>
       <use xlink:href="#URWPalladioL-Roma-2e" transform="translate(131.754897 0) scale(0.996264)"/>
       <use xlink:href="#URWPalladioL-Roma-30" transform="translate(156.661497 0) scale(0.996264)"/>
       <use xlink:href="#URWPalladioL-Roma-30" transform="translate(206.474698 0) scale(0.996264)"/>
       <use xlink:href="#URWPalladioL-Roma-37" transform="translate(256.287898 0) scale(0.996264)"/>
       <use xlink:href="#URWPalladioL-Roma-35" transform="translate(306.101099 0) scale(0.996264)"/>
      </g>
     </g>
    </g>
    <g id="ytick_2">
     <g id="line2d_9">
      <g>
       <use xlink:href="#me3035c33cd" x="64.172485" y="156.061348" style="stroke: #000000; stroke-width: 0.8"/>
      </g>
     </g>
     <g id="text_10">
      <!-- $\mathdefault{−0.0050}$ -->
      <g transform="translate(21.581054 159.625467) scale(0.1 -0.1)">
       <use xlink:href="#CMSY10-0" transform="scale(1.038107)"/>
       <use xlink:href="#URWPalladioL-Roma-30" transform="translate(81.941696 0) scale(0.996264)"/>
       <use xlink:href="#URWPalladioL-Roma-2e" transform="translate(131.754897 0) scale(0.996264)"/>
       <use xlink:href="#URWPalladioL-Roma-30" transform="translate(156.661497 0) scale(0.996264)"/>
       <use xlink:href="#URWPalladioL-Roma-30" transform="translate(206.474698 0) scale(0.996264)"/>
       <use xlink:href="#URWPalladioL-Roma-35" transform="translate(256.287898 0) scale(0.996264)"/>
       <use xlink:href="#URWPalladioL-Roma-30" transform="translate(306.101099 0) scale(0.996264)"/>
      </g>
     </g>
    </g>
    <g id="ytick_3">
     <g id="line2d_10">
      <g>
       <use xlink:href="#me3035c33cd" x="64.172485" y="130.206841" style="stroke: #000000; stroke-width: 0.8"/>
      </g>
     </g>
     <g id="text_11">
      <!-- $\mathdefault{−0.0025}$ -->
      <g transform="translate(21.581054 133.770959) scale(0.1 -0.1)">
       <use xlink:href="#CMSY10-0" transform="scale(1.038107)"/>
       <use xlink:href="#URWPalladioL-Roma-30" transform="translate(81.941696 0) scale(0.996264)"/>
       <use xlink:href="#URWPalladioL-Roma-2e" transform="translate(131.754897 0) scale(0.996264)"/>
       <use xlink:href="#URWPalladioL-Roma-30" transform="translate(156.661497 0) scale(0.996264)"/>
       <use xlink:href="#URWPalladioL-Roma-30" transform="translate(206.474698 0) scale(0.996264)"/>
       <use xlink:href="#URWPalladioL-Roma-32" transform="translate(256.287898 0) scale(0.996264)"/>
       <use xlink:href="#URWPalladioL-Roma-35" transform="translate(306.101099 0) scale(0.996264)"/>
      </g>
     </g>
    </g>
    <g id="ytick_4">
     <g id="line2d_11">
      <g>
       <use xlink:href="#me3035c33cd" x="64.172485" y="104.352333" style="stroke: #000000; stroke-width: 0.8"/>
      </g>
     </g>
     <g id="text_12">
      <!-- $\mathdefault{0.0000}$ -->
      <g transform="translate(29.775225 107.916452) scale(0.1 -0.1)">
       <use xlink:href="#URWPalladioL-Roma-30" transform="scale(0.996264)"/>
       <use xlink:href="#URWPalladioL-Roma-2e" transform="translate(49.8132 0) scale(0.996264)"/>
       <use xlink:href="#URWPalladioL-Roma-30" transform="translate(74.719801 0) scale(0.996264)"/>
       <use xlink:href="#URWPalladioL-Roma-30" transform="translate(124.533001 0) scale(0.996264)"/>
       <use xlink:href="#URWPalladioL-Roma-30" transform="translate(174.346202 0) scale(0.996264)"/>
       <use xlink:href="#URWPalladioL-Roma-30" transform="translate(224.159402 0) scale(0.996264)"/>
      </g>
     </g>
    </g>
    <g id="ytick_5">
     <g id="line2d_12">
      <g>
       <use xlink:href="#me3035c33cd" x="64.172485" y="78.497825" style="stroke: #000000; stroke-width: 0.8"/>
      </g>
     </g>
     <g id="text_13">
      <!-- $\mathdefault{0.0025}$ -->
      <g transform="translate(29.775225 82.061944) scale(0.1 -0.1)">
       <use xlink:href="#URWPalladioL-Roma-30" transform="scale(0.996264)"/>
       <use xlink:href="#URWPalladioL-Roma-2e" transform="translate(49.8132 0) scale(0.996264)"/>
       <use xlink:href="#URWPalladioL-Roma-30" transform="translate(74.719801 0) scale(0.996264)"/>
       <use xlink:href="#URWPalladioL-Roma-30" transform="translate(124.533001 0) scale(0.996264)"/>
       <use xlink:href="#URWPalladioL-Roma-32" transform="translate(174.346202 0) scale(0.996264)"/>
       <use xlink:href="#URWPalladioL-Roma-35" transform="translate(224.159402 0) scale(0.996264)"/>
      </g>
     </g>
    </g>
    <g id="ytick_6">
     <g id="line2d_13">
      <g>
       <use xlink:href="#me3035c33cd" x="64.172485" y="52.643317" style="stroke: #000000; stroke-width: 0.8"/>
      </g>
     </g>
     <g id="text_14">
      <!-- $\mathdefault{0.0050}$ -->
      <g transform="translate(29.775225 56.207436) scale(0.1 -0.1)">
       <use xlink:href="#URWPalladioL-Roma-30" transform="scale(0.996264)"/>
       <use xlink:href="#URWPalladioL-Roma-2e" transform="translate(49.8132 0) scale(0.996264)"/>
       <use xlink:href="#URWPalladioL-Roma-30" transform="translate(74.719801 0) scale(0.996264)"/>
       <use xlink:href="#URWPalladioL-Roma-30" transform="translate(124.533001 0) scale(0.996264)"/>
       <use xlink:href="#URWPalladioL-Roma-35" transform="translate(174.346202 0) scale(0.996264)"/>
       <use xlink:href="#URWPalladioL-Roma-30" transform="translate(224.159402 0) scale(0.996264)"/>
      </g>
     </g>
    </g>
    <g id="ytick_7">
     <g id="line2d_14">
      <g>
       <use xlink:href="#me3035c33cd" x="64.172485" y="26.78881" style="stroke: #000000; stroke-width: 0.8"/>
      </g>
     </g>
     <g id="text_15">
      <!-- $\mathdefault{0.0075}$ -->
      <g transform="translate(29.775225 30.352928) scale(0.1 -0.1)">
       <use xlink:href="#URWPalladioL-Roma-30" transform="scale(0.996264)"/>
       <use xlink:href="#URWPalladioL-Roma-2e" transform="translate(49.8132 0) scale(0.996264)"/>
       <use xlink:href="#URWPalladioL-Roma-30" transform="translate(74.719801 0) scale(0.996264)"/>
       <use xlink:href="#URWPalladioL-Roma-30" transform="translate(124.533001 0) scale(0.996264)"/>
       <use xlink:href="#URWPalladioL-Roma-37" transform="translate(174.346202 0) scale(0.996264)"/>
       <use xlink:href="#URWPalladioL-Roma-35" transform="translate(224.159402 0) scale(0.996264)"/>
      </g>
     </g>
    </g>
    <g id="text_16">
     <!-- $u(t)$ [m] -->
     <g transform="translate(14.771643 122.250442) rotate(-90) scale(0.1 -0.1)">
      <defs>
       <path id="URWPalladioL-Ital-75" d="M 2131 613 
C 2086 459 2061 287 2061 191 
C 2061 32 2131 -64 2253 -64 
C 2419 -64 2650 70 3277 536 
L 3213 651 
L 3046 542 
C 2893 440 2726 370 2656 370 
C 2605 370 2573 415 2573 479 
C 2573 530 2586 600 2605 696 
L 2611 734 
C 2758 1430 2957 2279 3149 3014 
L 3104 3072 
L 2669 2963 
L 2605 2637 
C 2509 2139 2349 1705 2150 1405 
C 1773 823 1274 370 1018 370 
C 966 370 934 427 934 536 
C 934 625 947 708 979 868 
L 1344 2599 
C 1363 2701 1376 2790 1376 2873 
C 1376 2995 1318 3072 1229 3072 
C 1101 3072 858 2937 384 2599 
L 205 2471 
L 250 2343 
L 454 2477 
C 634 2592 704 2624 762 2624 
C 819 2624 870 2567 870 2496 
C 870 2471 864 2407 858 2382 
L 454 485 
C 442 427 429 274 429 185 
C 429 51 525 -64 653 -64 
C 1056 -64 1830 652 2368 1536 
L 2131 613 
z
" transform="scale(0.015625)"/>
       <path id="CMR10-28" d="M 2118 -1536 
C 2118 -1517 2118 -1504 2010 -1396 
C 1210 -589 1005 620 1005 1600 
C 1005 2713 1248 3827 2035 4627 
C 2118 4704 2118 4716 2118 4736 
C 2118 4780 2093 4800 2054 4800 
C 1990 4800 1414 4365 1037 3552 
C 710 2848 634 2137 634 1600 
C 634 1100 704 326 1056 -397 
C 1440 -1184 1990 -1600 2054 -1600 
C 2093 -1600 2118 -1581 2118 -1536 
z
" transform="scale(0.015625)"/>
       <path id="CMR10-29" d="M 1850 1600 
C 1850 2099 1779 2873 1427 3597 
C 1043 4384 493 4800 429 4800 
C 390 4800 365 4774 365 4736 
C 365 4716 365 4704 486 4589 
C 1114 3955 1478 2937 1478 1600 
C 1478 505 1242 -621 448 -1428 
C 365 -1504 365 -1517 365 -1536 
C 365 -1575 390 -1600 429 -1600 
C 493 -1600 1069 -1165 1446 -352 
C 1773 352 1850 1062 1850 1600 
z
" transform="scale(0.015625)"/>
       <path id="URWPalladioL-Roma-5b" d="M 563 -1178 
C 1018 -1166 1030 -1166 1184 -1166 
C 1338 -1166 1370 -1166 1805 -1178 
L 1843 -1140 
L 1843 -974 
L 1818 -942 
L 1574 -942 
C 1402 -942 1261 -903 1184 -839 
C 1126 -782 1107 -692 1107 -481 
C 1107 -474 1107 -340 1101 -148 
L 1101 89 
L 1101 3379 
L 1101 3615 
C 1107 3795 1107 3935 1107 3942 
C 1107 4153 1126 4249 1184 4307 
C 1261 4371 1402 4409 1574 4409 
L 1818 4409 
L 1843 4441 
L 1843 4608 
L 1805 4646 
C 1357 4633 1338 4633 1184 4633 
C 1037 4633 1005 4633 563 4646 
L 506 4563 
C 544 4403 557 4191 557 3699 
C 557 3603 557 3526 563 3462 
L 563 3379 
L 563 89 
L 563 6 
C 557 -97 557 -103 557 -212 
L 557 -282 
C 557 -718 544 -897 506 -1095 
L 563 -1178 
z
" transform="scale(0.015625)"/>
       <path id="URWPalladioL-Roma-6d" d="M 115 2579 
L 352 2579 
C 608 2579 634 2534 634 2112 
L 634 672 
C 634 268 614 224 397 211 
L 102 192 
L 102 0 
C 717 0 736 0 915 0 
C 1094 19 1261 12 1677 0 
L 1677 192 
L 1408 211 
C 1190 223 1171 268 1171 670 
L 1171 2023 
C 1171 2311 1594 2624 1978 2624 
C 2323 2624 2560 2298 2560 1813 
L 2560 670 
C 2560 268 2541 223 2323 211 
L 2029 192 
L 2029 0 
C 2669 0 2669 0 2829 0 
C 2989 19 2989 19 3629 0 
L 3629 192 
L 3334 211 
C 3117 223 3098 268 3098 670 
L 3098 2023 
C 3098 2311 3520 2624 3904 2624 
C 4250 2624 4486 2298 4486 1813 
L 4486 0 
C 4877 0 4883 0 4992 0 
C 5075 19 5075 19 5562 0 
L 5562 192 
L 5261 211 
C 5043 223 5024 268 5024 670 
L 5024 1985 
C 5024 2617 4653 3014 4064 3014 
C 3840 3014 3654 2956 3539 2854 
L 3053 2419 
C 2848 2841 2586 3014 2144 3014 
C 1907 3014 1728 2956 1613 2854 
L 1171 2445 
L 1171 2988 
L 1114 3008 
C 787 2873 454 2783 115 2745 
L 115 2579 
z
" transform="scale(0.015625)"/>
       <path id="URWPalladioL-Roma-5d" d="M 1568 4646 
C 1114 4633 1094 4633 947 4633 
C 794 4633 762 4633 326 4646 
L 288 4608 
L 288 4441 
L 314 4409 
L 557 4409 
C 730 4409 864 4371 941 4307 
C 1005 4249 1024 4159 1024 3942 
C 1024 3923 1024 3795 1030 3615 
L 1030 3379 
L 1030 89 
L 1030 -148 
C 1024 -334 1024 -449 1024 -468 
C 1024 -686 1005 -782 941 -839 
C 864 -903 730 -942 557 -942 
L 314 -942 
L 288 -974 
L 288 -1140 
L 326 -1178 
C 774 -1166 787 -1166 947 -1166 
C 1094 -1166 1126 -1166 1568 -1178 
L 1626 -1095 
C 1587 -942 1581 -743 1574 -250 
C 1574 -161 1574 -78 1568 6 
L 1568 89 
L 1568 3379 
L 1568 3462 
C 1574 3532 1574 3615 1574 3705 
C 1574 4198 1587 4409 1626 4563 
L 1568 4646 
z
" transform="scale(0.015625)"/>
      </defs>
      <use xlink:href="#URWPalladioL-Ital-75" transform="scale(0.996264)"/>
      <use xlink:href="#CMR10-28" transform="translate(57.88296 0) scale(1.038107)"/>
      <use xlink:href="#URWPalladioL-Ital-74" transform="translate(100.622665 0) scale(0.996264)"/>
      <use xlink:href="#CMR10-29" transform="translate(136.287947 0) scale(1.038107)"/>
      <use xlink:href="#URWPalladioL-Roma-5b" transform="translate(202.688952 0) scale(0.996264)"/>
      <use xlink:href="#URWPalladioL-Roma-6d" transform="translate(235.864182 0) scale(0.996264)"/>
      <use xlink:href="#URWPalladioL-Roma-5d" transform="translate(323.833856 0) scale(0.996264)"/>
     </g>
    </g>
   </g>
   <g id="line2d_15">
    <path d="M 64.172485 186.463532 
L 64.830514 183.861217 
L 65.488543 176.55822 
L 66.146572 165.468475 
L 67.46263 136.237878 
L 69.436717 91.114477 
L 70.094745 79.41017 
L 70.752774 70.402632 
L 71.410803 64.389946 
L 72.068832 61.454469 
L 72.726861 61.478761 
L 73.38489 64.172401 
L 74.042919 69.106976 
L 74.700948 75.756241 
L 77.991092 114.647834 
L 78.649121 120.110041 
L 79.30715 124.057115 
L 79.965179 126.390984 
L 80.623208 127.123677 
L 81.281237 126.365826 
L 81.939266 124.310151 
L 82.597294 121.211436 
L 83.913352 113.082368 
L 85.887439 100.589491 
L 86.545468 97.361202 
L 87.203497 94.88369 
L 87.861526 93.23806 
L 88.519554 92.445662 
L 89.177583 92.472589 
L 89.835612 93.237189 
L 90.493641 94.619809 
L 91.809699 98.638086 
L 93.783786 105.383687 
L 94.441815 107.251285 
L 95.099843 108.755934 
L 95.757872 109.839297 
L 96.415901 110.474985 
L 97.07393 110.667082 
L 97.731959 110.446917 
L 98.389988 109.868451 
L 99.048017 109.002706 
L 100.364075 106.742133 
L 102.338161 103.283496 
L 102.99619 102.39312 
L 103.654219 101.711745 
L 104.312248 101.261431 
L 104.970277 101.047686 
L 105.628306 101.060738 
L 106.286335 101.277636 
L 106.944364 101.664966 
L 108.260421 102.78373 
L 110.234508 104.652721 
L 111.550566 105.582801 
L 112.208595 105.880117 
L 112.866624 106.053206 
L 113.524652 106.103408 
L 114.84071 105.876856 
L 116.156768 105.33683 
L 119.446913 103.803376 
L 120.76297 103.492797 
L 122.079028 103.440349 
L 123.395086 103.610329 
L 129.317346 104.824812 
L 131.291433 104.773655 
L 138.52975 104.099665 
L 141.819895 104.28352 
L 145.768068 104.483574 
L 149.716242 104.401302 
L 154.980473 104.282333 
L 179.985571 104.36224 
L 258.291009 104.352337 
L 392.528904 104.352333 
L 392.528904 104.352333 
" clip-path="url(#p194d36a298)" style="fill: none; stroke: #808080; stroke-width: 1.5; stroke-linecap: square"/>
   </g>
   <g id="line2d_16">
    <path d="M 64.172485 22.241133 
L 64.830514 23.701366 
L 65.488543 28.030129 
L 66.146572 35.073458 
L 66.804601 44.580844 
L 68.120659 69.559566 
L 72.068832 156.978233 
L 72.726861 167.87636 
L 73.38489 176.515116 
L 74.042919 182.587243 
L 74.700948 185.876773 
L 75.358977 186.266706 
L 76.017005 183.743175 
L 76.675034 178.395933 
L 77.333063 170.415167 
L 77.991092 160.084731 
L 79.30715 133.91505 
L 82.597294 59.624143 
L 83.913352 37.38031 
L 84.571381 29.6516 
L 85.22941 24.579787 
L 85.887439 22.345259 
L 86.545468 23.027494 
L 87.203497 26.602227 
L 87.861526 32.942313 
L 88.519554 41.822254 
L 89.835612 65.859259 
L 91.809699 110.807587 
L 93.125757 140.543565 
L 94.441815 165.176443 
L 95.099843 174.451278 
L 95.757872 181.23289 
L 96.415901 185.280075 
L 97.07393 186.448887 
L 97.731959 184.697754 
L 98.389988 180.088959 
L 99.048017 172.786424 
L 99.706046 163.04988 
L 101.022103 137.734224 
L 104.970277 50.545424 
L 105.628306 39.857018 
L 106.286335 31.462529 
L 106.944364 25.660528 
L 107.602392 22.657373 
L 108.260421 22.55988 
L 108.91845 25.371516 
L 109.576479 30.992279 
L 110.234508 39.222253 
L 110.892537 49.768723 
L 112.208595 76.241663 
L 115.498739 150.373041 
L 116.156768 162.322262 
L 116.814797 172.209654 
L 117.472826 179.683551 
L 118.130855 184.478127 
L 118.788884 186.422853 
L 119.446913 185.44856 
L 120.104941 181.589901 
L 120.76297 174.984117 
L 121.420999 165.866158 
L 122.737057 141.468734 
L 124.711144 96.35226 
L 126.027201 66.775545 
L 127.343259 42.4973 
L 128.001288 33.458323 
L 128.659317 26.940848 
L 129.317346 23.176684 
L 129.975375 22.29971 
L 130.633404 24.341118 
L 131.291433 29.228302 
L 131.949461 36.787437 
L 132.60749 46.749667 
L 133.923548 72.393226 
L 137.871722 159.321056 
L 138.52975 169.795929 
L 139.187779 177.943156 
L 139.845808 183.472963 
L 140.503837 186.18867 
L 141.161866 185.993688 
L 141.819895 182.894951 
L 142.477924 177.002672 
L 143.135953 168.526425 
L 143.793982 157.767684 
L 145.110039 131.000928 
L 148.400184 57.055523 
L 149.058213 45.29446 
L 149.716242 35.63392 
L 150.374271 28.417502 
L 151.032299 23.901873 
L 151.690328 22.247643 
L 152.348357 23.513646 
L 153.006386 27.654856 
L 153.664415 34.52398 
L 154.322444 43.876704 
L 155.638502 68.625845 
L 159.586675 156.180438 
L 160.244704 167.216224 
L 160.902733 176.016118 
L 161.560762 182.267131 
L 162.218791 185.746932 
L 162.87682 186.331755 
L 163.534848 184.0008 
L 164.192877 178.836971 
L 164.850906 171.023931 
L 165.508935 160.83957 
L 166.824993 134.877254 
L 170.773166 48.241403 
L 171.431195 37.983801 
L 172.089224 30.086742 
L 172.747253 24.831103 
L 173.405282 22.403811 
L 174.063311 22.891199 
L 174.72134 26.275932 
L 175.379369 32.437624 
L 176.037397 41.157121 
L 176.695426 52.124295 
L 178.011484 79.175318 
L 181.301629 152.908372 
L 181.959657 164.477083 
L 182.617686 173.907325 
L 183.275715 180.86369 
L 183.933744 185.09876 
L 184.591773 186.461905 
L 185.249802 184.904642 
L 185.907831 180.482359 
L 186.56586 173.352344 
L 187.223889 163.768192 
L 188.539946 138.676162 
L 192.48812 51.330657 
L 193.146149 40.502008 
L 193.804178 31.944337 
L 194.462206 25.962015 
L 195.120235 22.767819 
L 195.778264 22.475355 
L 196.436293 25.095026 
L 197.094322 30.533659 
L 197.752351 38.597815 
L 198.41038 49.000675 
L 199.726438 75.272485 
L 203.016582 149.513158 
L 204.33264 171.622125 
L 204.990669 179.266199 
L 205.648698 184.245797 
L 206.306727 186.383807 
L 206.964755 185.604187 
L 207.622784 181.934666 
L 208.280813 175.505758 
L 208.938842 166.546122 
L 210.2549 142.388018 
L 212.228987 97.381856 
L 213.545044 67.69779 
L 214.861102 43.182153 
L 215.519131 33.985574 
L 216.17716 27.291743 
L 216.835189 23.338743 
L 217.493218 22.267169 
L 218.151247 24.115135 
L 218.809276 28.816914 
L 219.467304 36.205276 
L 220.125333 46.017439 
L 221.441391 71.443405 
L 225.389564 158.548666 
L 226.047593 169.166315 
L 226.705622 177.478711 
L 227.363651 183.190206 
L 228.02168 186.097659 
L 228.679709 186.097659 
L 229.337738 183.190206 
L 229.995767 177.478711 
L 230.653796 169.166315 
L 231.311825 158.548666 
L 232.627882 131.976733 
L 235.918027 57.904411 
L 236.576056 46.017439 
L 237.234085 36.205276 
L 237.892113 28.816914 
L 238.550142 24.115135 
L 239.208171 22.267169 
L 239.8662 23.338743 
L 240.524229 27.291743 
L 241.182258 33.985574 
L 241.840287 43.182153 
L 243.156345 67.69779 
L 245.130431 112.866738 
L 246.446489 142.388018 
L 247.762547 166.546122 
L 248.420576 175.505758 
L 249.078605 181.934666 
L 249.736634 185.604187 
L 250.394662 186.383807 
L 251.052691 184.245797 
L 251.71072 179.266199 
L 252.368749 171.622125 
L 253.026778 161.585453 
L 254.342836 135.834619 
L 258.291009 49.000675 
L 258.949038 38.597815 
L 259.607067 30.533659 
L 260.265096 25.095026 
L 260.923125 22.475355 
L 261.581154 22.767819 
L 262.239183 25.962015 
L 262.897211 31.944337 
L 263.55524 40.502008 
L 264.213269 51.330657 
L 265.529327 78.193234 
L 268.819472 152.070783 
L 269.4775 163.768192 
L 270.135529 173.352344 
L 270.793558 180.482359 
L 271.451587 184.904642 
L 272.109616 186.461905 
L 272.767645 185.09876 
L 273.425674 180.86369 
L 274.083703 173.907325 
L 274.741732 164.477083 
L 276.057789 139.612659 
L 280.005963 52.124295 
L 280.663992 41.157121 
L 281.32202 32.437624 
L 281.980049 26.275932 
L 282.638078 22.891199 
L 283.296107 22.403811 
L 283.954136 24.831103 
L 284.612165 30.086742 
L 285.270194 37.983801 
L 285.928223 48.241403 
L 287.244281 74.307918 
L 290.534425 148.646115 
L 291.850483 171.023931 
L 292.508512 178.836971 
L 293.166541 184.0008 
L 293.824569 186.331755 
L 294.482598 185.746932 
L 295.140627 182.267131 
L 295.798656 176.016118 
L 296.456685 167.216224 
L 297.772743 143.301271 
L 299.74683 98.412557 
L 301.062887 68.625845 
L 302.378945 43.876704 
L 303.036974 34.52398 
L 303.695003 27.654856 
L 304.353032 23.513646 
L 305.011061 22.247643 
L 305.66909 23.901873 
L 306.327118 28.417502 
L 306.985147 35.63392 
L 307.643176 45.29446 
L 308.959234 70.498802 
L 312.907407 157.767684 
L 313.565436 168.526425 
L 314.223465 177.002672 
L 314.881494 182.894951 
L 315.539523 185.993688 
L 316.197552 186.18867 
L 316.855581 183.472963 
L 317.51361 177.943156 
L 318.171639 169.795929 
L 318.829667 159.321056 
L 320.145725 132.948158 
L 323.43587 58.760663 
L 324.093899 46.749667 
L 324.751928 36.787437 
L 325.409956 29.228302 
L 326.067985 24.341118 
L 326.726014 22.29971 
L 327.384043 23.176684 
L 328.042072 26.940848 
L 328.700101 33.458323 
L 329.35813 42.4973 
L 330.674188 66.775545 
L 332.648274 111.837756 
L 333.964332 141.468734 
L 335.28039 165.866158 
L 335.938419 174.984117 
L 336.596448 181.589901 
L 337.254477 185.44856 
L 337.912505 186.422853 
L 338.570534 184.478127 
L 339.228563 179.683551 
L 339.886592 172.209654 
L 340.544621 162.322262 
L 341.860679 136.786993 
L 345.808852 49.768723 
L 346.466881 39.222253 
L 347.12491 30.992279 
L 347.782939 25.371516 
L 348.440968 22.55988 
L 349.098997 22.657373 
L 349.757026 25.660528 
L 350.415054 31.462529 
L 351.073083 39.857018 
L 351.731112 50.545424 
L 353.04717 77.215297 
L 356.337314 151.225628 
L 356.995343 163.04988 
L 357.653372 172.786424 
L 358.311401 180.088959 
L 358.96943 184.697754 
L 359.627459 186.448887 
L 360.285488 185.280075 
L 360.943517 181.23289 
L 361.601546 174.451278 
L 362.259574 165.176443 
L 363.575632 140.543565 
L 365.549719 95.323933 
L 366.865777 65.859259 
L 368.181835 41.822254 
L 368.839863 32.942313 
L 369.497892 26.602227 
L 370.155921 23.027494 
L 370.81395 22.345259 
L 371.471979 24.579787 
L 372.130008 29.6516 
L 372.788037 37.38031 
L 373.446066 47.491028 
L 374.762123 73.348115 
L 378.710297 160.084731 
L 379.368326 170.415167 
L 380.026355 178.395933 
L 380.684384 183.743175 
L 381.342412 186.266706 
L 382.000441 185.876773 
L 382.65847 182.587243 
L 383.316499 176.515116 
L 383.974528 167.87636 
L 384.632557 156.978233 
L 385.948615 130.020899 
L 389.238759 56.214134 
L 389.896788 44.580844 
L 390.554817 35.073458 
L 391.212846 28.030129 
L 391.870875 23.701366 
L 392.528904 22.241133 
L 392.528904 22.241133 
" clip-path="url(#p194d36a298)" style="fill: none; stroke: #cccccc; stroke-width: 1.5; stroke-linecap: square"/>
   </g>
   <g id="line2d_17">
    <path d="M 64.172485 104.352333 
L 64.830514 103.21025 
L 65.488543 100.236016 
L 67.46263 88.099679 
L 68.120659 85.547972 
L 68.778688 84.789142 
L 69.436717 86.206343 
L 70.094745 89.978326 
L 70.752774 96.071198 
L 71.410803 104.245963 
L 72.726861 125.002788 
L 74.700948 157.280681 
L 75.358977 165.45284 
L 76.017005 171.248946 
L 76.675034 174.187849 
L 77.333063 173.946642 
L 77.991092 170.380232 
L 78.649121 163.529757 
L 79.30715 153.619832 
L 80.623208 126.348258 
L 83.913352 46.110345 
L 84.571381 33.97338 
L 85.22941 24.654286 
L 85.887439 18.582418 
L 86.545468 16.036364 
L 87.203497 17.133584 
L 87.861526 21.82804 
L 88.519554 29.915582 
L 89.177583 41.04647 
L 90.493641 70.42887 
L 93.783786 154.769617 
L 94.441815 168.075395 
L 95.099843 178.854879 
L 95.757872 186.719854 
L 96.415901 191.402727 
L 97.07393 192.763636 
L 97.731959 190.792338 
L 98.389988 185.605077 
L 99.048017 177.436797 
L 99.706046 166.629219 
L 101.022103 138.901673 
L 104.312248 60.05669 
L 105.628306 36.565423 
L 106.286335 28.387833 
L 106.944364 22.973161 
L 107.602392 20.486995 
L 108.260421 20.991277 
L 108.91845 24.443697 
L 109.576479 30.700515 
L 110.234508 39.522641 
L 111.550566 63.487047 
L 113.524652 108.429389 
L 114.84071 138.311516 
L 116.156768 163.306759 
L 116.814797 172.863731 
L 117.472826 179.9987 
L 118.130855 184.467794 
L 118.788884 186.119451 
L 119.446913 184.899603 
L 120.104941 180.853566 
L 120.76297 174.124581 
L 121.420999 164.94901 
L 122.737057 140.618241 
L 124.711144 95.92172 
L 126.027201 66.69904 
L 127.343259 42.72693 
L 128.001288 33.802104 
L 128.659317 27.366213 
L 129.317346 23.649163 
L 129.975375 22.785261 
L 130.633404 24.808207 
L 131.291433 29.649624 
L 131.949461 37.141205 
L 132.60749 47.020428 
L 133.923548 72.478239 
L 137.871722 159.066529 
L 138.52975 169.543261 
L 139.187779 177.707911 
L 139.845808 183.2681 
L 140.503837 186.02399 
L 141.161866 185.87553 
L 141.819895 182.826138 
L 142.477924 176.982676 
L 143.135953 168.551726 
L 143.793982 157.832284 
L 145.110039 131.11935 
L 148.400184 57.153088 
L 149.058213 45.368919 
L 149.716242 35.682889 
L 150.374271 28.440417 
L 151.032299 23.89985 
L 151.690328 22.223241 
L 152.348357 23.470571 
L 153.006386 27.597614 
L 153.664415 34.457523 
L 154.322444 43.806071 
L 155.638502 68.56078 
L 159.586675 156.187758 
L 160.244704 167.234393 
L 160.902733 176.042943 
L 161.560762 182.300097 
L 162.218791 185.783386 
L 162.87682 186.369084 
L 163.534848 184.036591 
L 164.192877 178.869145 
L 164.850906 171.050837 
L 165.508935 160.860044 
L 166.824993 134.883426 
L 170.773166 48.221803 
L 171.431195 37.964409 
L 172.089224 30.068747 
L 172.747253 24.815489 
L 173.405282 22.391319 
L 174.063311 22.882303 
L 174.72134 26.270835 
L 175.379369 32.436273 
L 176.037397 41.159235 
L 176.695426 52.129404 
L 178.011484 79.184495 
L 181.301629 152.915792 
L 181.959657 164.482713 
L 182.617686 173.910988 
L 183.275715 180.865351 
L 183.933744 185.09851 
L 184.591773 186.459947 
L 185.249802 184.901265 
L 185.907831 180.477911 
L 186.56586 173.347207 
L 187.223889 163.762753 
L 188.539946 138.671185 
L 192.48812 51.331266 
L 193.146149 40.503444 
L 193.804178 31.946429 
L 194.462206 25.96457 
L 195.120235 22.770631 
L 195.778264 22.478224 
L 196.436293 25.097769 
L 197.094322 30.536115 
L 197.752351 38.599861 
L 198.41038 49.002223 
L 199.726438 75.272932 
L 203.016582 149.51173 
L 204.33264 171.620637 
L 204.990669 179.264823 
L 205.648698 184.244607 
L 206.306727 186.38286 
L 206.964755 185.603518 
L 207.622784 181.934289 
L 208.280813 175.505668 
L 208.938842 166.546297 
L 210.2549 142.388602 
L 212.228987 97.382651 
L 213.545044 67.698468 
L 214.861102 43.182578 
L 215.519131 33.985848 
L 216.17716 27.291863 
L 216.835189 23.338716 
L 217.493218 22.267012 
L 218.151247 24.11487 
L 218.809276 28.816568 
L 219.467304 36.204879 
L 220.125333 46.01702 
L 221.441391 71.443025 
L 225.389564 158.548717 
L 226.047593 169.166428 
L 226.705622 177.478874 
L 227.363651 183.190404 
L 228.02168 186.097876 
L 228.679709 186.09788 
L 229.337738 183.190416 
L 229.995767 177.478898 
L 230.653796 169.16647 
L 231.311825 158.548783 
L 232.627882 131.976766 
L 235.918027 57.9043 
L 236.576056 46.017323 
L 237.234085 36.205162 
L 237.892113 28.816809 
L 238.550142 24.115044 
L 239.208171 22.267097 
L 239.8662 23.338692 
L 240.524229 27.291716 
L 241.182258 33.985568 
L 241.840287 43.182167 
L 243.156345 67.697835 
L 245.130431 112.866799 
L 246.446489 142.388069 
L 247.762547 166.546154 
L 248.420576 175.505778 
L 249.078605 181.934674 
L 249.736634 185.604184 
L 250.394662 186.383794 
L 251.052691 184.245776 
L 251.71072 179.266173 
L 252.368749 171.622095 
L 253.026778 161.58542 
L 254.342836 135.83459 
L 258.291009 49.000679 
L 258.949038 38.597824 
L 259.607067 30.533671 
L 260.265096 25.095042 
L 260.923125 22.475372 
L 261.581154 22.767836 
L 262.239183 25.962032 
L 262.897211 31.944351 
L 263.55524 40.50202 
L 264.213269 51.330665 
L 265.529327 78.193236 
L 268.819472 152.070774 
L 269.4775 163.768183 
L 270.135529 173.352335 
L 270.793558 180.482351 
L 271.451587 184.904636 
L 272.109616 186.4619 
L 272.767645 185.098756 
L 273.425674 180.863688 
L 274.083703 173.907324 
L 274.741732 164.477084 
L 276.057789 139.612663 
L 280.005963 52.124299 
L 280.663992 41.157123 
L 281.32202 32.437625 
L 281.980049 26.275932 
L 282.638078 22.891199 
L 283.296107 22.40381 
L 283.954136 24.831101 
L 284.612165 30.08674 
L 285.270194 37.983799 
L 285.928223 48.241401 
L 287.244281 74.307916 
L 290.534425 148.646115 
L 291.850483 171.023932 
L 292.508512 178.836972 
L 293.166541 184.000801 
L 293.824569 186.331757 
L 294.482598 185.746933 
L 295.140627 182.267132 
L 295.798656 176.016119 
L 296.456685 167.216225 
L 297.772743 143.301271 
L 299.74683 98.412557 
L 301.062887 68.625845 
L 302.378945 43.876704 
L 303.036974 34.52398 
L 303.695003 27.654855 
L 304.353032 23.513646 
L 305.011061 22.247642 
L 305.66909 23.901873 
L 306.327118 28.417501 
L 306.985147 35.63392 
L 307.643176 45.29446 
L 308.959234 70.498802 
L 312.907407 157.767684 
L 313.565436 168.526425 
L 314.223465 177.002673 
L 314.881494 182.894951 
L 315.539523 185.993688 
L 316.197552 186.18867 
L 316.855581 183.472962 
L 317.51361 177.943155 
L 318.171639 169.795929 
L 318.829667 159.321056 
L 320.145725 132.948158 
L 323.43587 58.760663 
L 324.093899 46.749667 
L 324.751928 36.787437 
L 325.409956 29.228302 
L 326.067985 24.341118 
L 326.726014 22.29971 
L 327.384043 23.176684 
L 328.042072 26.940848 
L 328.700101 33.458323 
L 329.35813 42.4973 
L 330.674188 66.775545 
L 332.648274 111.837756 
L 333.964332 141.468734 
L 335.28039 165.866158 
L 335.938419 174.984117 
L 336.596448 181.589901 
L 337.254477 185.44856 
L 337.912505 186.422853 
L 338.570534 184.478127 
L 339.228563 179.683551 
L 339.886592 172.209654 
L 340.544621 162.322262 
L 341.860679 136.786993 
L 345.808852 49.768723 
L 346.466881 39.222253 
L 347.12491 30.992279 
L 347.782939 25.371516 
L 348.440968 22.55988 
L 349.098997 22.657373 
L 349.757026 25.660528 
L 350.415054 31.462529 
L 351.073083 39.857018 
L 351.731112 50.545424 
L 353.04717 77.215297 
L 356.337314 151.225628 
L 356.995343 163.04988 
L 357.653372 172.786424 
L 358.311401 180.088959 
L 358.96943 184.697754 
L 359.627459 186.448887 
L 360.285488 185.280075 
L 360.943517 181.23289 
L 361.601546 174.451278 
L 362.259574 165.176443 
L 363.575632 140.543565 
L 365.549719 95.323933 
L 366.865777 65.859259 
L 368.181835 41.822254 
L 368.839863 32.942313 
L 369.497892 26.602227 
L 370.155921 23.027494 
L 370.81395 22.345259 
L 371.471979 24.579787 
L 372.130008 29.6516 
L 372.788037 37.38031 
L 373.446066 47.491028 
L 374.762123 73.348115 
L 378.710297 160.084731 
L 379.368326 170.415167 
L 380.026355 178.395933 
L 380.684384 183.743175 
L 381.342412 186.266706 
L 382.000441 185.876773 
L 382.65847 182.587243 
L 383.316499 176.515116 
L 383.974528 167.87636 
L 384.632557 156.978233 
L 385.948615 130.020899 
L 389.238759 56.214134 
L 389.896788 44.580844 
L 390.554817 35.073458 
L 391.212846 28.030129 
L 391.870875 23.701366 
L 392.528904 22.241133 
L 392.528904 22.241133 
" clip-path="url(#p194d36a298)" style="fill: none; stroke: #1f77b4; stroke-width: 1.5; stroke-linecap: square"/>
   </g>
   <g id="patch_3">
    <path d="M 64.172485 201.6 
L 64.172485 7.2 
" style="fill: none; stroke: #000000; stroke-width: 0.8; stroke-linejoin: miter; stroke-linecap: square"/>
   </g>
   <g id="patch_4">
    <path d="M 408.946725 201.6 
L 408.946725 7.2 
" style="fill: none"/>
   </g>
   <g id="patch_5">
    <path d="M 47.754664 104.352333 
L 408.946725 104.352333 
" style="fill: none; stroke: #000000; stroke-width: 0.8; stroke-linejoin: miter; stroke-linecap: square"/>
   </g>
   <g id="patch_6">
    <path d="M 47.754664 7.2 
L 408.946725 7.2 
" style="fill: none"/>
   </g>
   <g id="legend_1">
    <g id="patch_7">
     <path d="M 54.754664 60.012945 
L 166.185574 60.012945 
Q 168.185574 60.012945 168.185574 58.012945 
L 168.185574 14.2 
Q 168.185574 12.2 166.185574 12.2 
L 54.754664 12.2 
Q 52.754664 12.2 52.754664 14.2 
L 52.754664 58.012945 
Q 52.754664 60.012945 54.754664 60.012945 
z
" style="fill: #ffffff; opacity: 0.8; stroke: #cccccc; stroke-linejoin: miter"/>
    </g>
    <g id="line2d_18">
     <path d="M 56.754664 19.828237 
L 66.754664 19.828237 
L 76.754664 19.828237 
" style="fill: none; stroke: #808080; stroke-width: 1.5; stroke-linecap: square"/>
    </g>
    <g id="text_17">
     <!-- Transienter Anteil -->
     <g transform="translate(84.754664 23.328237) scale(0.1 -0.1)">
      <defs>
       <path id="URWPalladioL-Roma-54" d="M 1632 4096 
C 1651 3880 1658 3734 1658 3462 
L 1658 781 
C 1658 280 1626 230 1331 211 
L 1024 192 
L 1024 0 
C 1402 -7 1626 0 1958 0 
C 2291 19 2522 12 2899 0 
L 2899 192 
L 2592 211 
C 2298 230 2266 280 2266 781 
L 2266 3462 
C 2266 3747 2272 3887 2291 4096 
L 3283 4096 
C 3462 4096 3533 4039 3539 3887 
L 3565 3386 
L 3763 3386 
C 3763 3801 3776 4051 3808 4416 
C 3347 4409 3136 4409 2957 4403 
C 2707 4390 2522 4390 2426 4390 
L 1414 4390 
C 1350 4390 1005 4396 550 4403 
L 115 4416 
C 147 4051 160 3801 160 3385 
L 358 3385 
L 384 3891 
C 390 4038 461 4096 640 4096 
L 1632 4096 
z
" transform="scale(0.015625)"/>
       <path id="URWPalladioL-Roma-72" d="M 147 2579 
L 384 2579 
C 640 2579 666 2534 666 2112 
L 666 672 
C 666 268 646 224 429 211 
L 134 192 
L 134 0 
C 595 -7 762 0 922 0 
C 1050 19 1050 19 1837 0 
L 1837 192 
L 1504 211 
C 1216 230 1203 249 1203 669 
L 1203 1763 
C 1203 2145 1459 2463 1773 2463 
C 1965 2463 2099 2374 2202 2171 
L 2336 2171 
L 2394 2937 
C 2323 2982 2208 3008 2093 3008 
C 1901 3008 1696 2905 1562 2745 
L 1203 2324 
L 1203 2982 
L 1146 3008 
C 819 2873 486 2783 147 2745 
L 147 2579 
z
" transform="scale(0.015625)"/>
       <path id="URWPalladioL-Roma-61" d="M 2074 544 
L 2042 0 
C 2458 0 2458 0 2541 0 
C 2573 19 2733 12 3014 0 
L 3014 192 
L 2765 204 
C 2611 211 2586 262 2586 576 
L 2586 1751 
C 2586 2688 2317 3027 1574 3027 
C 1299 3027 1043 2956 800 2809 
L 461 2604 
L 461 2187 
L 627 2142 
L 710 2341 
C 845 2642 909 2688 1203 2688 
C 1805 2688 2054 2450 2074 1866 
L 1440 1751 
C 570 1590 205 1289 205 730 
C 205 224 506 -64 1011 -64 
C 1126 -64 1235 -45 1280 -13 
L 2074 544 
z
M 2074 806 
C 1888 544 1485 300 1235 300 
C 979 300 755 537 755 812 
C 755 1049 883 1273 1075 1395 
C 1235 1491 1587 1580 2074 1651 
L 2074 806 
z
" transform="scale(0.015625)"/>
       <path id="URWPalladioL-Roma-6e" d="M 2624 0 
C 3014 0 3021 0 3130 0 
C 3219 19 3219 19 3661 0 
L 3661 192 
L 3398 211 
C 3181 223 3162 262 3162 670 
L 3162 1902 
C 3162 2649 2810 3014 2093 3014 
C 1856 3014 1722 2969 1587 2854 
L 1101 2432 
L 1101 2988 
L 1043 3008 
C 717 2873 384 2784 45 2746 
L 45 2568 
L 282 2568 
C 538 2568 563 2523 563 2103 
L 563 669 
C 563 268 544 223 326 211 
L 38 192 
L 38 0 
C 474 -7 646 0 832 0 
C 1018 19 1190 12 1626 0 
L 1626 192 
L 1338 211 
C 1120 223 1101 268 1101 670 
L 1101 2023 
C 1101 2311 1523 2624 1914 2624 
C 2342 2624 2624 2304 2624 1813 
L 2624 0 
z
" transform="scale(0.015625)"/>
       <path id="URWPalladioL-Roma-73" d="M 262 917 
C 262 474 243 282 192 25 
C 525 -84 774 -128 1069 -128 
C 1907 -128 2502 320 2502 949 
C 2502 1148 2445 1295 2323 1423 
C 2157 1584 1946 1661 1382 1770 
C 858 1872 685 2001 685 2296 
C 685 2617 909 2796 1299 2796 
C 1728 2796 2054 2572 2054 2270 
L 2054 2123 
L 2234 2123 
C 2240 2495 2246 2649 2266 2847 
C 1926 2963 1696 3008 1434 3008 
C 691 3008 237 2655 237 2078 
C 237 1770 378 1552 672 1417 
C 845 1340 1184 1237 1619 1141 
C 1907 1077 2029 942 2029 698 
C 2029 352 1709 108 1254 108 
C 787 108 454 333 454 654 
L 454 917 
L 262 917 
z
" transform="scale(0.015625)"/>
       <path id="URWPalladioL-Roma-69" d="M 1203 2982 
L 1146 3008 
C 819 2873 486 2784 147 2746 
L 147 2568 
L 384 2568 
C 640 2568 666 2523 666 2103 
L 666 669 
C 666 268 646 223 429 211 
L 134 192 
L 134 0 
C 774 0 774 0 934 0 
C 1094 19 1094 19 1734 0 
L 1734 192 
L 1440 211 
C 1222 224 1203 268 1203 671 
L 1203 2982 
z
M 909 4416 
C 717 4416 550 4249 550 4057 
C 550 3871 717 3705 902 3705 
C 1088 3705 1261 3871 1261 4057 
C 1261 4236 1088 4416 909 4416 
z
" transform="scale(0.015625)"/>
       <path id="URWPalladioL-Roma-65" d="M 2797 447 
L 2714 511 
C 2304 268 2157 211 1882 211 
C 1466 211 1120 396 941 710 
C 819 921 774 1100 762 1472 
L 1696 1472 
C 2138 1472 2413 1491 2854 1561 
C 2861 1651 2867 1708 2867 1786 
C 2867 2526 2394 3008 1677 3008 
C 1440 3008 1165 2924 902 2771 
C 378 2468 166 2069 166 1401 
C 166 998 262 652 435 409 
C 691 70 1120 -128 1600 -128 
C 1837 -128 2074 -77 2336 38 
C 2509 108 2643 192 2669 230 
L 2797 447 
z
M 2298 1708 
C 1965 1696 1811 1689 1581 1689 
C 1286 1689 1120 1696 774 1728 
C 774 2030 800 2172 883 2339 
C 1018 2623 1293 2796 1600 2796 
C 1811 2796 1978 2713 2093 2539 
C 2234 2326 2278 2140 2298 1708 
z
" transform="scale(0.015625)"/>
       <path id="URWPalladioL-Roma-74" d="M 627 2457 
L 627 614 
C 627 140 838 -64 1331 -64 
C 1478 -64 1632 -32 1670 12 
L 1978 352 
L 1894 460 
C 1734 371 1638 339 1517 339 
C 1267 339 1165 467 1165 780 
L 1165 2457 
L 1984 2457 
L 2042 2803 
L 1165 2764 
L 1165 3008 
C 1165 3277 1184 3507 1235 3917 
L 1158 3987 
C 1005 3891 813 3808 614 3744 
C 634 3552 640 3430 640 3238 
L 640 2790 
L 141 2566 
L 141 2432 
L 627 2457 
z
" transform="scale(0.015625)"/>
       <path id="URWPalladioL-Roma-41" d="M 2611 4480 
L 2406 4480 
C 2291 4205 2195 3969 2157 3874 
L 1818 3103 
L 678 523 
C 602 338 474 223 333 210 
L 96 191 
L 96 0 
C 691 0 691 0 794 0 
C 877 19 877 19 1568 0 
L 1568 191 
L 1331 210 
C 1107 229 1024 273 1024 375 
C 1024 457 1114 730 1248 1047 
L 1427 1472 
L 3270 1472 
L 3565 742 
C 3674 476 3699 394 3699 337 
C 3699 267 3597 223 3437 210 
L 3136 191 
L 3136 0 
C 3923 0 3923 0 4026 0 
C 4147 19 4147 19 4838 0 
L 4838 191 
L 4621 210 
C 4454 235 4384 343 4160 857 
L 2611 4480 
z
M 1536 1728 
L 2349 3630 
L 3155 1728 
L 1536 1728 
z
" transform="scale(0.015625)"/>
       <path id="URWPalladioL-Roma-6c" d="M 147 4249 
L 506 4249 
C 621 4249 666 4179 666 3987 
L 666 672 
C 666 268 646 224 429 211 
L 134 192 
L 134 0 
C 774 0 774 0 934 0 
C 1094 19 1094 19 1734 0 
L 1734 192 
L 1440 211 
C 1222 224 1203 268 1203 672 
L 1203 4614 
L 1146 4665 
C 864 4557 653 4505 147 4429 
L 147 4249 
z
" transform="scale(0.015625)"/>
      </defs>
      <use xlink:href="#URWPalladioL-Roma-54" transform="scale(0.996264)"/>
      <use xlink:href="#URWPalladioL-Roma-72" transform="translate(52.104474 0) scale(0.996264)"/>
      <use xlink:href="#URWPalladioL-Roma-61" transform="translate(91.45637 0) scale(0.996264)"/>
      <use xlink:href="#URWPalladioL-Roma-6e" transform="translate(141.269571 0) scale(0.996264)"/>
      <use xlink:href="#URWPalladioL-Roma-73" transform="translate(199.251631 0) scale(0.996264)"/>
      <use xlink:href="#URWPalladioL-Roma-69" transform="translate(241.493098 0) scale(0.996264)"/>
      <use xlink:href="#URWPalladioL-Roma-65" transform="translate(270.483459 0) scale(0.996264)"/>
      <use xlink:href="#URWPalladioL-Roma-6e" transform="translate(318.203754 0) scale(0.996264)"/>
      <use xlink:href="#URWPalladioL-Roma-74" transform="translate(376.185815 0) scale(0.996264)"/>
      <use xlink:href="#URWPalladioL-Roma-65" transform="translate(408.662903 0) scale(0.996264)"/>
      <use xlink:href="#URWPalladioL-Roma-72" transform="translate(456.383198 0) scale(0.996264)"/>
      <use xlink:href="#URWPalladioL-Roma-41" transform="translate(520.641695 0) scale(0.996264)"/>
      <use xlink:href="#URWPalladioL-Roma-6e" transform="translate(598.150065 0) scale(0.996264)"/>
      <use xlink:href="#URWPalladioL-Roma-74" transform="translate(656.132125 0) scale(0.996264)"/>
      <use xlink:href="#URWPalladioL-Roma-65" transform="translate(688.609213 0) scale(0.996264)"/>
      <use xlink:href="#URWPalladioL-Roma-69" transform="translate(736.329508 0) scale(0.996264)"/>
      <use xlink:href="#URWPalladioL-Roma-6c" transform="translate(765.31987 0) scale(0.996264)"/>
     </g>
    </g>
    <g id="line2d_19">
     <path d="M 56.754664 34.765886 
L 66.754664 34.765886 
L 76.754664 34.765886 
" style="fill: none; stroke: #cccccc; stroke-width: 1.5; stroke-linecap: square"/>
    </g>
    <g id="text_18">
     <!-- Stationärer Anteil -->
     <g transform="translate(84.754664 38.265886) scale(0.1 -0.1)">
      <defs>
       <path id="URWPalladioL-Roma-53" d="M 2861 3371 
C 2861 3711 2886 3929 2950 4275 
C 2438 4479 2150 4544 1798 4544 
C 845 4544 154 3942 154 3102 
C 154 2788 237 2557 422 2384 
C 640 2185 934 2083 1555 1999 
C 2048 1929 2272 1858 2438 1711 
C 2605 1576 2682 1390 2682 1147 
C 2682 570 2202 153 1536 153 
C 1024 153 525 403 493 666 
L 442 1095 
L 237 1095 
C 243 980 243 877 243 839 
C 243 544 230 403 192 115 
C 557 -45 928 -128 1299 -128 
C 2413 -128 3219 544 3219 1474 
C 3219 1775 3136 1986 2957 2153 
C 2733 2365 2464 2448 1747 2544 
C 966 2647 691 2858 691 3352 
C 691 3890 1094 4275 1658 4275 
C 1907 4275 2144 4224 2317 4127 
C 2528 4018 2598 3922 2618 3736 
L 2656 3371 
L 2861 3371 
z
" transform="scale(0.015625)"/>
       <path id="URWPalladioL-Roma-6f" d="M 1786 3008 
C 851 3008 205 2347 205 1391 
C 205 487 774 -128 1600 -128 
C 2586 -128 3290 557 3290 1520 
C 3290 2386 2662 3008 1786 3008 
z
M 1670 2796 
C 2259 2796 2694 2155 2694 1282 
C 2694 545 2368 83 1850 83 
C 1222 83 800 699 800 1609 
C 800 2379 1107 2796 1670 2796 
z
" transform="scale(0.015625)"/>
       <path id="URWPalladioL-Roma-a8" d="M 435 4077 
C 237 4077 109 3949 109 3757 
C 109 3565 237 3437 429 3437 
C 621 3437 749 3565 749 3757 
C 749 3942 621 4077 435 4077 
z
M 1709 4077 
C 1510 4077 1382 3949 1382 3757 
C 1382 3565 1510 3437 1702 3437 
C 1894 3437 2022 3565 2022 3757 
C 2022 3942 1894 4077 1709 4077 
z
" transform="scale(0.015625)"/>
      </defs>
      <use xlink:href="#URWPalladioL-Roma-53" transform="scale(0.996264)"/>
      <use xlink:href="#URWPalladioL-Roma-74" transform="translate(52.303815 0) scale(0.996264)"/>
      <use xlink:href="#URWPalladioL-Roma-61" transform="translate(84.780903 0) scale(0.996264)"/>
      <use xlink:href="#URWPalladioL-Roma-74" transform="translate(134.594103 0) scale(0.996264)"/>
      <use xlink:href="#URWPalladioL-Roma-69" transform="translate(167.071191 0) scale(0.996264)"/>
      <use xlink:href="#URWPalladioL-Roma-6f" transform="translate(196.061553 0) scale(0.996264)"/>
      <use xlink:href="#URWPalladioL-Roma-6e" transform="translate(250.457133 0) scale(0.996264)"/>
      <use xlink:href="#URWPalladioL-Roma-a8" transform="translate(316.758186 0.249309) scale(0.996264)"/>
      <use xlink:href="#URWPalladioL-Roma-61" transform="translate(308.439193 0) scale(0.996264)"/>
      <use xlink:href="#URWPalladioL-Roma-72" transform="translate(358.252394 0) scale(0.996264)"/>
      <use xlink:href="#URWPalladioL-Roma-65" transform="translate(395.811711 0) scale(0.996264)"/>
      <use xlink:href="#URWPalladioL-Roma-72" transform="translate(443.532006 0) scale(0.996264)"/>
      <use xlink:href="#URWPalladioL-Roma-41" transform="translate(507.790503 0) scale(0.996264)"/>
      <use xlink:href="#URWPalladioL-Roma-6e" transform="translate(585.298873 0) scale(0.996264)"/>
      <use xlink:href="#URWPalladioL-Roma-74" transform="translate(643.280934 0) scale(0.996264)"/>
      <use xlink:href="#URWPalladioL-Roma-65" transform="translate(675.758022 0) scale(0.996264)"/>
      <use xlink:href="#URWPalladioL-Roma-69" transform="translate(723.478317 0) scale(0.996264)"/>
      <use xlink:href="#URWPalladioL-Roma-6c" transform="translate(752.468678 0) scale(0.996264)"/>
     </g>
    </g>
    <g id="line2d_20">
     <path d="M 56.754664 49.703534 
L 66.754664 49.703534 
L 76.754664 49.703534 
" style="fill: none; stroke: #1f77b4; stroke-width: 1.5; stroke-linecap: square"/>
    </g>
    <g id="text_19">
     <!-- Gesamtantwort -->
     <g transform="translate(84.754664 53.203534) scale(0.1 -0.1)">
      <defs>
       <path id="URWPalladioL-Roma-47" d="M 4102 3307 
L 4301 3307 
C 4301 3634 4339 3935 4429 4281 
C 3718 4486 3392 4544 2880 4544 
C 1229 4544 141 3608 141 2185 
C 141 1538 358 961 762 570 
C 1203 128 1894 -128 2637 -128 
C 3091 -128 3533 -45 4403 198 
L 4403 1275 
C 4403 1474 4410 1486 4474 1512 
L 4659 1576 
L 4634 1736 
C 4064 1724 4045 1724 3846 1724 
C 3661 1724 3622 1724 3066 1736 
L 3066 1544 
L 3597 1499 
C 3757 1486 3814 1429 3814 1275 
L 3814 627 
C 3814 474 3802 397 3776 352 
C 3706 230 3322 140 2899 140 
C 1632 140 826 986 826 2320 
C 826 3557 1517 4275 2714 4275 
C 3046 4275 3328 4236 3571 4159 
C 3942 4038 4102 3890 4102 3647 
L 4102 3307 
z
" transform="scale(0.015625)"/>
       <path id="URWPalladioL-Roma-77" d="M 2643 3008 
C 2118 1775 2022 1556 1626 651 
L 1088 2434 
C 1069 2492 1062 2544 1062 2595 
C 1062 2692 1146 2744 1306 2750 
L 1562 2763 
L 1562 2943 
C 928 2924 928 2924 800 2924 
C 672 2924 672 2924 38 2943 
L 38 2763 
L 218 2750 
C 397 2738 480 2608 640 2105 
L 1293 -64 
L 1594 -64 
L 2221 1420 
C 2253 1497 2323 1652 2426 1872 
L 2554 2143 
L 3424 -64 
L 3718 -64 
C 3763 70 3814 219 3866 361 
C 3994 742 4134 1142 4160 1181 
L 4595 2189 
C 4787 2621 4864 2731 5005 2750 
L 5171 2763 
L 5171 2943 
C 4646 2924 4646 2924 4544 2924 
C 4442 2924 4442 2924 3917 2943 
L 3917 2763 
L 4134 2750 
C 4294 2744 4384 2666 4384 2550 
C 4384 2479 4371 2402 4339 2318 
L 4019 1413 
C 3968 1271 3917 1142 3712 613 
L 2976 2486 
C 2886 2705 2842 2834 2790 3008 
L 2643 3008 
z
" transform="scale(0.015625)"/>
      </defs>
      <use xlink:href="#URWPalladioL-Roma-47" transform="scale(0.996264)"/>
      <use xlink:href="#URWPalladioL-Roma-65" transform="translate(76.013746 0) scale(0.996264)"/>
      <use xlink:href="#URWPalladioL-Roma-73" transform="translate(123.734041 0) scale(0.996264)"/>
      <use xlink:href="#URWPalladioL-Roma-61" transform="translate(165.975507 0) scale(0.996264)"/>
      <use xlink:href="#URWPalladioL-Roma-6d" transform="translate(215.788708 0) scale(0.996264)"/>
      <use xlink:href="#URWPalladioL-Roma-74" transform="translate(303.758382 0) scale(0.996264)"/>
      <use xlink:href="#URWPalladioL-Roma-61" transform="translate(336.23547 0) scale(0.996264)"/>
      <use xlink:href="#URWPalladioL-Roma-6e" transform="translate(386.048671 0) scale(0.996264)"/>
      <use xlink:href="#URWPalladioL-Roma-74" transform="translate(444.030731 0) scale(0.996264)"/>
      <use xlink:href="#URWPalladioL-Roma-77" transform="translate(476.507819 0) scale(0.996264)"/>
      <use xlink:href="#URWPalladioL-Roma-6f" transform="translate(559.595912 0) scale(0.996264)"/>
      <use xlink:href="#URWPalladioL-Roma-72" transform="translate(613.991492 0) scale(0.996264)"/>
      <use xlink:href="#URWPalladioL-Roma-74" transform="translate(653.343389 0) scale(0.996264)"/>
     </g>
    </g>
   </g>
  </g>
 </g>
 <defs>
  <clipPath id="p194d36a298">
   <rect x="47.754664" y="7.2" width="361.19206" height="194.4"/>
  </clipPath>
 </defs>
</svg>
