<?xml version="1.0" encoding="utf-8" standalone="no"?>
<!DOCTYPE svg PUBLIC "-//W3C//DTD SVG 1.1//EN"
  "http://www.w3.org/Graphics/SVG/1.1/DTD/svg11.dtd">
<svg xmlns:xlink="http://www.w3.org/1999/xlink" width="415.467454pt" height="208.8pt" viewBox="0 0 415.467454 208.8" xmlns="http://www.w3.org/2000/svg" version="1.1">
 <metadata>
  <rdf:RDF xmlns:dc="http://purl.org/dc/elements/1.1/" xmlns:cc="http://creativecommons.org/ns#" xmlns:rdf="http://www.w3.org/1999/02/22-rdf-syntax-ns#">
   <cc:Work>
    <dc:type rdf:resource="http://purl.org/dc/dcmitype/StillImage"/>
    <dc:date>2023-09-04T15:05:54.791411</dc:date>
    <dc:format>image/svg+xml</dc:format>
    <dc:creator>
     <cc:Agent>
      <dc:title>Matplotlib v3.7.2, https://matplotlib.org/</dc:title>
     </cc:Agent>
    </dc:creator>
   </cc:Work>
  </rdf:RDF>
 </metadata>
 <defs>
  <style type="text/css">*{stroke-linejoin: round; stroke-linecap: butt}</style>
 </defs>
 <g id="figure_1">
  <g id="patch_1">
   <path d="M 0 208.8 
L 415.467454 208.8 
L 415.467454 0 
L 0 0 
z
" style="fill: #ffffff"/>
  </g>
  <g id="axes_1">
   <g id="patch_2">
    <path d="M 32.131433 201.6 
L 408.267454 201.6 
L 408.267454 7.2 
L 32.131433 7.2 
z
" style="fill: #ffffff"/>
   </g>
   <g id="matplotlib.axis_1">
    <g id="xtick_1">
     <g id="line2d_1">
      <defs>
       <path id="m5de20419dd" d="M 0 0 
L 0 3.5 
" style="stroke: #000000; stroke-width: 0.8"/>
      </defs>
      <g>
       <use xlink:href="#m5de20419dd" x="49.228525" y="104.395769" style="stroke: #000000; stroke-width: 0.8"/>
      </g>
     </g>
     <g id="text_1">
      <!-- $\mathdefault{0}$ -->
      <g transform="translate(46.737865 118.524007) scale(0.1 -0.1)">
       <defs>
        <path id="URWPalladioL-Roma-30" d="M 1683 4416 
C 691 4416 186 3628 186 2076 
C 186 1326 320 679 544 365 
C 768 51 1126 -128 1523 -128 
C 2490 -128 2976 704 2976 2345 
C 2976 3749 2560 4416 1683 4416 
z
M 1568 4191 
C 2189 4191 2438 3563 2438 2025 
C 2438 660 2195 96 1606 96 
C 986 96 723 743 723 2307 
C 723 3660 960 4191 1568 4191 
z
" transform="scale(0.015625)"/>
       </defs>
       <use xlink:href="#URWPalladioL-Roma-30" transform="scale(0.996264)"/>
      </g>
     </g>
    </g>
    <g id="xtick_2">
     <g id="line2d_2">
      <g>
       <use xlink:href="#m5de20419dd" x="106.218831" y="104.395769" style="stroke: #000000; stroke-width: 0.8"/>
      </g>
     </g>
     <g id="text_2">
      <!-- $\mathdefault{1}$ -->
      <g transform="translate(103.728171 118.524007) scale(0.1 -0.1)">
       <defs>
        <path id="URWPalladioL-Roma-31" d="M 429 3571 
L 493 3571 
L 1318 3942 
C 1325 3949 1331 3949 1338 3949 
C 1376 3949 1389 3891 1389 3737 
L 1389 633 
C 1389 300 1318 230 973 211 
L 614 192 
L 614 0 
C 1600 0 1600 0 1670 0 
C 1754 0 1894 0 2112 -7 
C 2189 6 2413 6 2675 0 
L 2675 192 
L 2342 211 
C 1990 229 1926 299 1926 628 
L 1926 4383 
L 1837 4416 
C 1421 4199 966 4009 384 3807 
L 429 3571 
z
" transform="scale(0.015625)"/>
       </defs>
       <use xlink:href="#URWPalladioL-Roma-31" transform="scale(0.996264)"/>
      </g>
     </g>
    </g>
    <g id="xtick_3">
     <g id="line2d_3">
      <g>
       <use xlink:href="#m5de20419dd" x="163.209137" y="104.395769" style="stroke: #000000; stroke-width: 0.8"/>
      </g>
     </g>
     <g id="text_3">
      <!-- $\mathdefault{2}$ -->
      <g transform="translate(160.718477 118.524007) scale(0.1 -0.1)">
       <defs>
        <path id="URWPalladioL-Roma-32" d="M 102 166 
L 102 0 
C 1299 0 1299 0 1530 0 
C 1760 19 1760 19 2995 0 
C 2982 134 2982 198 2982 287 
C 2982 370 2982 434 2995 574 
C 2259 542 1965 536 781 510 
L 1946 1741 
C 2566 2398 2758 2749 2758 3228 
C 2758 3961 2259 4416 1446 4416 
C 986 4416 672 4287 358 3967 
L 250 3100 
L 435 3100 
L 518 3394 
C 621 3763 851 3923 1280 3923 
C 1830 3923 2182 3578 2182 3036 
C 2182 2558 1914 2086 1190 1320 
L 102 166 
z
" transform="scale(0.015625)"/>
       </defs>
       <use xlink:href="#URWPalladioL-Roma-32" transform="scale(0.996264)"/>
      </g>
     </g>
    </g>
    <g id="xtick_4">
     <g id="line2d_4">
      <g>
       <use xlink:href="#m5de20419dd" x="220.199444" y="104.395769" style="stroke: #000000; stroke-width: 0.8"/>
      </g>
     </g>
     <g id="text_4">
      <!-- $\mathdefault{3}$ -->
      <g transform="translate(217.708783 118.524007) scale(0.1 -0.1)">
       <defs>
        <path id="URWPalladioL-Roma-33" d="M 275 3196 
L 474 3196 
L 589 3553 
C 659 3770 1062 3987 1395 3987 
C 1811 3987 2150 3649 2150 3247 
C 2150 2769 1773 2368 1318 2368 
C 1267 2368 1197 2374 1114 2380 
L 1018 2387 
L 941 2047 
L 986 2008 
C 1229 2118 1350 2150 1523 2150 
C 2054 2150 2362 1808 2362 1222 
C 2362 565 1971 134 1376 134 
C 1082 134 819 231 627 411 
C 474 553 390 701 269 1048 
L 96 984 
C 230 591 282 359 320 38 
C 659 -77 941 -128 1178 -128 
C 1690 -128 2278 160 2630 591 
C 2848 855 2957 1139 2957 1441 
C 2957 1750 2829 2021 2598 2182 
C 2438 2297 2291 2348 1971 2406 
C 2483 2801 2675 3094 2675 3470 
C 2675 4038 2202 4416 1491 4416 
C 1056 4416 768 4294 461 3987 
L 275 3196 
z
" transform="scale(0.015625)"/>
       </defs>
       <use xlink:href="#URWPalladioL-Roma-33" transform="scale(0.996264)"/>
      </g>
     </g>
    </g>
    <g id="xtick_5">
     <g id="line2d_5">
      <g>
       <use xlink:href="#m5de20419dd" x="277.18975" y="104.395769" style="stroke: #000000; stroke-width: 0.8"/>
      </g>
     </g>
     <g id="text_5">
      <!-- $\mathdefault{4}$ -->
      <g transform="translate(274.69909 118.524007) scale(0.1 -0.1)">
       <defs>
        <path id="URWPalladioL-Roma-34" d="M 1792 1152 
L 1792 684 
C 1792 310 1722 223 1408 210 
L 1011 192 
L 1011 0 
C 1862 0 1862 0 2016 0 
C 2170 19 2170 19 3021 0 
L 3021 192 
L 2714 210 
C 2400 229 2330 310 2330 684 
L 2330 1152 
C 2707 1152 2842 1145 3021 1127 
L 3021 1580 
C 2720 1555 2598 1555 2502 1561 
L 2483 1561 
L 2330 1561 
L 2330 2445 
C 2330 3576 2342 4122 2374 4383 
L 2298 4416 
L 1824 4243 
L 13 1299 
L 83 1152 
L 1792 1152 
z
M 1792 1561 
L 416 1561 
L 1792 3798 
L 1792 1561 
z
" transform="scale(0.015625)"/>
       </defs>
       <use xlink:href="#URWPalladioL-Roma-34" transform="scale(0.996264)"/>
      </g>
     </g>
    </g>
    <g id="xtick_6">
     <g id="line2d_6">
      <g>
       <use xlink:href="#m5de20419dd" x="334.180056" y="104.395769" style="stroke: #000000; stroke-width: 0.8"/>
      </g>
     </g>
     <g id="text_6">
      <!-- $\mathdefault{5}$ -->
      <g transform="translate(331.689396 118.524007) scale(0.1 -0.1)">
       <defs>
        <path id="URWPalladioL-Roma-35" d="M 813 3891 
C 1638 3865 1997 3859 2765 3859 
L 2797 3891 
C 2784 4006 2784 4057 2784 4140 
C 2784 4230 2784 4281 2797 4396 
L 2765 4428 
C 2285 4403 1997 4396 1651 4396 
C 1299 4396 1018 4403 538 4428 
L 506 4396 
C 512 4006 518 3724 518 3520 
C 518 2976 499 2360 480 2076 
L 608 2038 
C 909 2341 1082 2432 1395 2432 
C 2010 2432 2394 1992 2394 1295 
C 2394 579 1984 160 1286 160 
C 941 160 621 276 531 443 
L 237 973 
L 83 882 
C 230 514 307 308 397 25 
C 576 -71 832 -128 1107 -128 
C 1536 -128 1990 57 2342 366 
C 2733 715 2938 1153 2938 1631 
C 2938 2360 2419 2873 1690 2873 
C 1382 2873 1152 2790 755 2553 
L 813 3891 
z
" transform="scale(0.015625)"/>
       </defs>
       <use xlink:href="#URWPalladioL-Roma-35" transform="scale(0.996264)"/>
      </g>
     </g>
    </g>
    <g id="xtick_7">
     <g id="line2d_7">
      <g>
       <use xlink:href="#m5de20419dd" x="391.170362" y="104.395769" style="stroke: #000000; stroke-width: 0.8"/>
      </g>
     </g>
     <g id="text_7">
      <!-- $\mathdefault{6}$ -->
      <g transform="translate(388.679702 118.524007) scale(0.1 -0.1)">
       <defs>
        <path id="URWPalladioL-Roma-36" d="M 2662 4287 
L 2426 4396 
C 1811 4193 1549 4066 1222 3788 
C 563 3237 205 2463 205 1585 
C 205 526 717 -128 1542 -128 
C 2374 -128 2995 532 2995 1405 
C 2995 2143 2554 2624 1875 2624 
C 1555 2624 1363 2540 986 2239 
C 915 2182 909 2175 838 2124 
C 973 3275 1510 3895 2662 4237 
L 2662 4287 
z
M 1632 2239 
C 2118 2239 2445 1816 2445 1180 
C 2445 513 2118 83 1626 83 
C 1082 83 787 551 787 1411 
C 787 1636 813 1758 883 1867 
C 1024 2085 1325 2239 1632 2239 
z
" transform="scale(0.015625)"/>
       </defs>
       <use xlink:href="#URWPalladioL-Roma-36" transform="scale(0.996264)"/>
      </g>
     </g>
    </g>
    <g id="text_8">
     <!-- $t [s]$ -->
     <g transform="translate(213.347977 132.905061) scale(0.1 -0.1)">
      <defs>
       <path id="URWPalladioL-Ital-74" d="M 800 2489 
L 442 678 
C 435 633 429 620 410 544 
C 371 364 358 268 358 192 
C 358 32 429 -64 550 -64 
C 774 -64 998 64 1498 467 
L 1594 544 
L 1696 627 
L 1632 742 
L 1344 544 
C 1158 416 1030 352 960 352 
C 902 352 870 403 870 480 
C 870 646 960 1164 1146 2092 
L 1229 2489 
L 1914 2489 
L 1984 2809 
C 1741 2784 1523 2771 1280 2771 
C 1382 3373 1453 3686 1568 4032 
L 1498 4128 
C 1370 4051 1197 3974 998 3897 
L 838 2809 
C 557 2675 390 2604 275 2572 
L 262 2489 
L 800 2489 
z
" transform="scale(0.015625)"/>
       <path id="CMR10-5b" d="M 1632 -1601 
L 1632 -1344 
L 1011 -1344 
L 1011 4544 
L 1632 4544 
L 1632 4800 
L 755 4800 
L 755 -1601 
L 1632 -1601 
z
" transform="scale(0.015625)"/>
       <path id="URWPalladioL-Ital-73" d="M 198 948 
C 166 624 128 401 58 108 
C 301 -7 518 -64 742 -64 
C 1056 -64 1350 51 1677 306 
C 2003 560 2138 795 2138 1113 
C 2138 1456 1933 1640 1459 1729 
L 1184 1780 
C 800 1850 678 1958 678 2218 
C 678 2555 966 2815 1331 2815 
C 1594 2815 1837 2701 1939 2530 
L 1939 2180 
L 2086 2180 
C 2112 2403 2138 2574 2208 2899 
C 1958 3020 1779 3072 1568 3072 
C 1235 3072 845 2879 538 2574 
C 371 2403 301 2244 301 2015 
C 301 1659 499 1456 922 1373 
L 1325 1297 
C 1606 1246 1709 1132 1709 884 
C 1709 471 1414 192 960 192 
C 736 192 538 261 358 414 
L 358 948 
L 198 948 
z
" transform="scale(0.015625)"/>
       <path id="CMR10-5d" d="M 1018 4800 
L 141 4800 
L 141 4544 
L 762 4544 
L 762 -1344 
L 141 -1344 
L 141 -1601 
L 1018 -1601 
L 1018 4800 
z
" transform="scale(0.015625)"/>
      </defs>
      <use xlink:href="#URWPalladioL-Ital-74" transform="scale(0.996264)"/>
      <use xlink:href="#CMR10-5b" transform="translate(35.665282 0) scale(1.038107)"/>
      <use xlink:href="#URWPalladioL-Ital-73" transform="translate(66.947981 0) scale(0.996264)"/>
      <use xlink:href="#CMR10-5d" transform="translate(108.193259 0) scale(1.038107)"/>
     </g>
    </g>
   </g>
   <g id="matplotlib.axis_2">
    <g id="ytick_1">
     <g id="line2d_8">
      <defs>
       <path id="m0aa1cee405" d="M 0 0 
L -3.5 0 
" style="stroke: #000000; stroke-width: 0.8"/>
      </defs>
      <g>
       <use xlink:href="#m0aa1cee405" x="49.228525" y="175.199672" style="stroke: #000000; stroke-width: 0.8"/>
      </g>
     </g>
     <g id="text_9">
      <!-- $\mathdefault{−0.4}$ -->
      <g transform="translate(21.581054 178.763791) scale(0.1 -0.1)">
       <defs>
        <path id="CMSY10-0" d="M 4218 1472 
C 4326 1472 4442 1472 4442 1600 
C 4442 1728 4326 1728 4218 1728 
L 755 1728 
C 646 1728 531 1728 531 1600 
C 531 1472 646 1472 755 1472 
L 4218 1472 
z
" transform="scale(0.015625)"/>
        <path id="URWPalladioL-Roma-2e" d="M 794 678 
C 602 678 429 499 429 307 
C 429 115 602 -64 787 -64 
C 992 -64 1171 108 1171 307 
C 1171 499 992 678 794 678 
z
" transform="scale(0.015625)"/>
       </defs>
       <use xlink:href="#CMSY10-0" transform="scale(1.038107)"/>
       <use xlink:href="#URWPalladioL-Roma-30" transform="translate(81.941696 0) scale(0.996264)"/>
       <use xlink:href="#URWPalladioL-Roma-2e" transform="translate(131.754897 0) scale(0.996264)"/>
       <use xlink:href="#URWPalladioL-Roma-34" transform="translate(156.661497 0) scale(0.996264)"/>
      </g>
     </g>
    </g>
    <g id="ytick_2">
     <g id="line2d_9">
      <g>
       <use xlink:href="#m0aa1cee405" x="49.228525" y="139.797721" style="stroke: #000000; stroke-width: 0.8"/>
      </g>
     </g>
     <g id="text_10">
      <!-- $\mathdefault{−0.2}$ -->
      <g transform="translate(21.581054 143.361839) scale(0.1 -0.1)">
       <use xlink:href="#CMSY10-0" transform="scale(1.038107)"/>
       <use xlink:href="#URWPalladioL-Roma-30" transform="translate(81.941696 0) scale(0.996264)"/>
       <use xlink:href="#URWPalladioL-Roma-2e" transform="translate(131.754897 0) scale(0.996264)"/>
       <use xlink:href="#URWPalladioL-Roma-32" transform="translate(156.661497 0) scale(0.996264)"/>
      </g>
     </g>
    </g>
    <g id="ytick_3">
     <g id="line2d_10">
      <g>
       <use xlink:href="#m0aa1cee405" x="49.228525" y="104.395769" style="stroke: #000000; stroke-width: 0.8"/>
      </g>
     </g>
     <g id="text_11">
      <!-- $\mathdefault{0.0}$ -->
      <g transform="translate(29.775225 107.959888) scale(0.1 -0.1)">
       <use xlink:href="#URWPalladioL-Roma-30" transform="scale(0.996264)"/>
       <use xlink:href="#URWPalladioL-Roma-2e" transform="translate(49.8132 0) scale(0.996264)"/>
       <use xlink:href="#URWPalladioL-Roma-30" transform="translate(74.719801 0) scale(0.996264)"/>
      </g>
     </g>
    </g>
    <g id="ytick_4">
     <g id="line2d_11">
      <g>
       <use xlink:href="#m0aa1cee405" x="49.228525" y="68.993818" style="stroke: #000000; stroke-width: 0.8"/>
      </g>
     </g>
     <g id="text_12">
      <!-- $\mathdefault{0.2}$ -->
      <g transform="translate(29.775225 72.557937) scale(0.1 -0.1)">
       <use xlink:href="#URWPalladioL-Roma-30" transform="scale(0.996264)"/>
       <use xlink:href="#URWPalladioL-Roma-2e" transform="translate(49.8132 0) scale(0.996264)"/>
       <use xlink:href="#URWPalladioL-Roma-32" transform="translate(74.719801 0) scale(0.996264)"/>
      </g>
     </g>
    </g>
    <g id="ytick_5">
     <g id="line2d_12">
      <g>
       <use xlink:href="#m0aa1cee405" x="49.228525" y="33.591867" style="stroke: #000000; stroke-width: 0.8"/>
      </g>
     </g>
     <g id="text_13">
      <!-- $\mathdefault{0.4}$ -->
      <g transform="translate(29.775225 37.155986) scale(0.1 -0.1)">
       <use xlink:href="#URWPalladioL-Roma-30" transform="scale(0.996264)"/>
       <use xlink:href="#URWPalladioL-Roma-2e" transform="translate(49.8132 0) scale(0.996264)"/>
       <use xlink:href="#URWPalladioL-Roma-34" transform="translate(74.719801 0) scale(0.996264)"/>
      </g>
     </g>
    </g>
    <g id="text_14">
     <!-- $u(t)$ [mm] -->
     <g transform="translate(14.771643 126.648926) rotate(-90) scale(0.1 -0.1)">
      <defs>
       <path id="URWPalladioL-Ital-75" d="M 2131 613 
C 2086 459 2061 287 2061 191 
C 2061 32 2131 -64 2253 -64 
C 2419 -64 2650 70 3277 536 
L 3213 651 
L 3046 542 
C 2893 440 2726 370 2656 370 
C 2605 370 2573 415 2573 479 
C 2573 530 2586 600 2605 696 
L 2611 734 
C 2758 1430 2957 2279 3149 3014 
L 3104 3072 
L 2669 2963 
L 2605 2637 
C 2509 2139 2349 1705 2150 1405 
C 1773 823 1274 370 1018 370 
C 966 370 934 427 934 536 
C 934 625 947 708 979 868 
L 1344 2599 
C 1363 2701 1376 2790 1376 2873 
C 1376 2995 1318 3072 1229 3072 
C 1101 3072 858 2937 384 2599 
L 205 2471 
L 250 2343 
L 454 2477 
C 634 2592 704 2624 762 2624 
C 819 2624 870 2567 870 2496 
C 870 2471 864 2407 858 2382 
L 454 485 
C 442 427 429 274 429 185 
C 429 51 525 -64 653 -64 
C 1056 -64 1830 652 2368 1536 
L 2131 613 
z
" transform="scale(0.015625)"/>
       <path id="CMR10-28" d="M 2118 -1536 
C 2118 -1517 2118 -1504 2010 -1396 
C 1210 -589 1005 620 1005 1600 
C 1005 2713 1248 3827 2035 4627 
C 2118 4704 2118 4716 2118 4736 
C 2118 4780 2093 4800 2054 4800 
C 1990 4800 1414 4365 1037 3552 
C 710 2848 634 2137 634 1600 
C 634 1100 704 326 1056 -397 
C 1440 -1184 1990 -1600 2054 -1600 
C 2093 -1600 2118 -1581 2118 -1536 
z
" transform="scale(0.015625)"/>
       <path id="CMR10-29" d="M 1850 1600 
C 1850 2099 1779 2873 1427 3597 
C 1043 4384 493 4800 429 4800 
C 390 4800 365 4774 365 4736 
C 365 4716 365 4704 486 4589 
C 1114 3955 1478 2937 1478 1600 
C 1478 505 1242 -621 448 -1428 
C 365 -1504 365 -1517 365 -1536 
C 365 -1575 390 -1600 429 -1600 
C 493 -1600 1069 -1165 1446 -352 
C 1773 352 1850 1062 1850 1600 
z
" transform="scale(0.015625)"/>
       <path id="URWPalladioL-Roma-5b" d="M 563 -1178 
C 1018 -1166 1030 -1166 1184 -1166 
C 1338 -1166 1370 -1166 1805 -1178 
L 1843 -1140 
L 1843 -974 
L 1818 -942 
L 1574 -942 
C 1402 -942 1261 -903 1184 -839 
C 1126 -782 1107 -692 1107 -481 
C 1107 -474 1107 -340 1101 -148 
L 1101 89 
L 1101 3379 
L 1101 3615 
C 1107 3795 1107 3935 1107 3942 
C 1107 4153 1126 4249 1184 4307 
C 1261 4371 1402 4409 1574 4409 
L 1818 4409 
L 1843 4441 
L 1843 4608 
L 1805 4646 
C 1357 4633 1338 4633 1184 4633 
C 1037 4633 1005 4633 563 4646 
L 506 4563 
C 544 4403 557 4191 557 3699 
C 557 3603 557 3526 563 3462 
L 563 3379 
L 563 89 
L 563 6 
C 557 -97 557 -103 557 -212 
L 557 -282 
C 557 -718 544 -897 506 -1095 
L 563 -1178 
z
" transform="scale(0.015625)"/>
       <path id="URWPalladioL-Roma-6d" d="M 115 2579 
L 352 2579 
C 608 2579 634 2534 634 2112 
L 634 672 
C 634 268 614 224 397 211 
L 102 192 
L 102 0 
C 717 0 736 0 915 0 
C 1094 19 1261 12 1677 0 
L 1677 192 
L 1408 211 
C 1190 223 1171 268 1171 670 
L 1171 2023 
C 1171 2311 1594 2624 1978 2624 
C 2323 2624 2560 2298 2560 1813 
L 2560 670 
C 2560 268 2541 223 2323 211 
L 2029 192 
L 2029 0 
C 2669 0 2669 0 2829 0 
C 2989 19 2989 19 3629 0 
L 3629 192 
L 3334 211 
C 3117 223 3098 268 3098 670 
L 3098 2023 
C 3098 2311 3520 2624 3904 2624 
C 4250 2624 4486 2298 4486 1813 
L 4486 0 
C 4877 0 4883 0 4992 0 
C 5075 19 5075 19 5562 0 
L 5562 192 
L 5261 211 
C 5043 223 5024 268 5024 670 
L 5024 1985 
C 5024 2617 4653 3014 4064 3014 
C 3840 3014 3654 2956 3539 2854 
L 3053 2419 
C 2848 2841 2586 3014 2144 3014 
C 1907 3014 1728 2956 1613 2854 
L 1171 2445 
L 1171 2988 
L 1114 3008 
C 787 2873 454 2783 115 2745 
L 115 2579 
z
" transform="scale(0.015625)"/>
       <path id="URWPalladioL-Roma-5d" d="M 1568 4646 
C 1114 4633 1094 4633 947 4633 
C 794 4633 762 4633 326 4646 
L 288 4608 
L 288 4441 
L 314 4409 
L 557 4409 
C 730 4409 864 4371 941 4307 
C 1005 4249 1024 4159 1024 3942 
C 1024 3923 1024 3795 1030 3615 
L 1030 3379 
L 1030 89 
L 1030 -148 
C 1024 -334 1024 -449 1024 -468 
C 1024 -686 1005 -782 941 -839 
C 864 -903 730 -942 557 -942 
L 314 -942 
L 288 -974 
L 288 -1140 
L 326 -1178 
C 774 -1166 787 -1166 947 -1166 
C 1094 -1166 1126 -1166 1568 -1178 
L 1626 -1095 
C 1587 -942 1581 -743 1574 -250 
C 1574 -161 1574 -78 1568 6 
L 1568 89 
L 1568 3379 
L 1568 3462 
C 1574 3532 1574 3615 1574 3705 
C 1574 4198 1587 4409 1626 4563 
L 1568 4646 
z
" transform="scale(0.015625)"/>
      </defs>
      <use xlink:href="#URWPalladioL-Ital-75" transform="scale(0.996264)"/>
      <use xlink:href="#CMR10-28" transform="translate(57.88296 0) scale(1.038107)"/>
      <use xlink:href="#URWPalladioL-Ital-74" transform="translate(100.622665 0) scale(0.996264)"/>
      <use xlink:href="#CMR10-29" transform="translate(136.287947 0) scale(1.038107)"/>
      <use xlink:href="#URWPalladioL-Roma-5b" transform="translate(202.688952 0) scale(0.996264)"/>
      <use xlink:href="#URWPalladioL-Roma-6d" transform="translate(235.864182 0) scale(0.996264)"/>
      <use xlink:href="#URWPalladioL-Roma-6d" transform="translate(323.833856 0) scale(0.996264)"/>
      <use xlink:href="#URWPalladioL-Roma-5d" transform="translate(411.80353 0) scale(0.996264)"/>
     </g>
    </g>
   </g>
   <g id="line2d_13">
    <path d="M 49.228525 104.395769 
L 51.284288 65.600382 
L 52.654796 43.676578 
L 53.34005 34.682267 
L 54.025305 27.285042 
L 54.710559 21.654369 
L 55.395813 17.919243 
L 56.081067 16.165233 
L 56.766321 16.432521 
L 57.451575 18.714986 
L 58.13683 22.960336 
L 58.822084 29.071314 
L 59.507338 36.907923 
L 60.877846 57.004484 
L 62.248355 81.418975 
L 65.674626 146.332842 
L 67.045134 167.632017 
L 67.730388 176.223566 
L 68.415642 183.169591 
L 69.100896 188.310964 
L 69.786151 191.529899 
L 70.471405 192.752653 
L 71.156659 191.951214 
L 71.841913 189.143941 
L 72.527167 184.395148 
L 73.212422 177.813626 
L 73.897676 169.550153 
L 75.268184 148.768791 
L 77.323947 110.714163 
L 80.064963 59.384004 
L 81.435472 38.74348 
L 82.120726 30.568418 
L 82.80598 24.084689 
L 83.491234 19.440829 
L 84.176488 16.743227 
L 84.861743 16.053682 
L 85.546997 17.387992 
L 86.232251 20.715588 
L 86.917505 25.960238 
L 87.602759 33.00179 
L 88.288014 41.678928 
L 89.658522 63.111895 
L 91.714284 101.604551 
L 93.770047 140.663955 
L 95.140555 163.056716 
L 95.82581 172.359226 
L 96.511064 180.104741 
L 97.196318 186.115818 
L 97.881572 190.254746 
L 98.566826 192.426706 
L 99.25208 192.58194 
L 99.937335 190.716891 
L 100.622589 186.874287 
L 101.307843 181.142158 
L 101.993097 173.651824 
L 103.363606 154.119281 
L 104.734114 130.056313 
L 108.845639 53.455123 
L 110.216147 34.229713 
L 110.901402 26.926116 
L 111.586656 21.397295 
L 112.27191 17.769909 
L 112.957164 16.127061 
L 113.642418 16.506386 
L 114.327672 18.899194 
L 115.012927 23.250669 
L 115.698181 29.46112 
L 116.383435 37.38827 
L 117.753943 57.631081 
L 119.124452 82.134731 
L 122.550723 146.983095 
L 123.921231 168.146984 
L 124.606485 176.652341 
L 125.291739 183.502352 
L 125.976994 188.540086 
L 126.662248 191.650134 
L 127.347502 192.761247 
L 128.032756 191.847969 
L 128.71801 188.931223 
L 129.403264 184.07783 
L 130.088519 177.398978 
L 130.773773 169.047673 
L 132.144281 148.126931 
L 134.200044 109.97542 
L 136.255806 70.69098 
L 137.626315 47.851608 
L 138.996823 30.164107 
L 139.682077 23.778625 
L 140.367331 19.240025 
L 141.052586 16.652282 
L 141.73784 16.074681 
L 142.423094 17.520453 
L 143.108348 20.956476 
L 143.793602 26.304035 
L 144.478856 33.44062 
L 145.849365 52.389653 
L 147.219873 76.077083 
L 151.331398 153.030224 
L 152.701907 172.830064 
L 153.387161 180.483943 
L 154.072415 186.394696 
L 154.757669 190.426912 
L 155.442923 192.488215 
L 156.128178 192.531383 
L 156.813432 190.555427 
L 157.498686 186.605614 
L 158.18394 180.772431 
L 158.869194 173.189514 
L 160.239703 153.505456 
L 161.610211 129.346901 
L 165.721736 52.8519 
L 167.092244 33.782085 
L 167.777499 26.57263 
L 168.462753 21.146048 
L 169.148007 17.626657 
L 169.833261 16.095086 
L 170.518515 16.586421 
L 171.20377 19.089405 
L 171.889024 23.546698 
L 172.574278 29.856186 
L 173.259532 37.873322 
L 174.63004 58.260961 
L 176.000549 82.85205 
L 179.42682 147.630359 
L 180.797328 168.657475 
L 181.482582 177.076043 
L 182.167836 183.829558 
L 182.853091 188.763301 
L 183.538345 191.764244 
L 184.223599 192.763636 
L 184.908853 191.738584 
L 185.594107 188.71257 
L 186.279362 183.754918 
L 186.964616 176.979204 
L 187.64987 168.540655 
L 189.020378 147.482002 
L 191.076141 109.236286 
L 193.131903 70.00772 
L 194.502412 47.284597 
L 195.87292 29.765007 
L 196.558174 23.478221 
L 197.243428 19.045199 
L 197.928683 16.567498 
L 198.613937 16.10188 
L 199.299191 17.659012 
L 199.984445 21.203222 
L 200.669699 26.653315 
L 201.354954 33.884432 
L 202.725462 52.990093 
L 204.09597 76.779444 
L 208.207495 153.646709 
L 209.578004 173.296098 
L 210.263258 180.857803 
L 210.948512 186.667817 
L 211.633766 190.593038 
L 212.31902 192.543539 
L 213.004275 192.474638 
L 213.689529 190.387913 
L 214.374783 186.331169 
L 215.060037 180.397343 
L 215.745291 172.722374 
L 217.1158 152.888184 
L 218.486308 128.635737 
L 221.912579 63.617085 
L 223.283087 42.082073 
L 223.968342 33.339415 
L 224.653596 26.224607 
L 225.33885 20.900645 
L 226.024104 17.489497 
L 226.709358 16.069311 
L 227.394612 16.67262 
L 228.079867 19.285605 
L 228.765121 23.848403 
L 229.450375 30.256485 
L 230.135629 38.363044 
L 231.506138 58.89408 
L 232.876646 83.570881 
L 236.302917 148.274588 
L 237.673425 169.163455 
L 238.358679 177.494643 
L 239.043934 184.151188 
L 239.729188 188.980593 
L 240.414442 191.872219 
L 241.099696 192.759822 
L 241.78495 191.623067 
L 242.470204 188.487997 
L 243.155459 183.426434 
L 243.840713 176.554334 
L 244.525967 168.029133 
L 245.896475 146.834047 
L 247.952238 108.496812 
L 250.008 69.326874 
L 251.378509 46.721596 
L 252.063763 37.277556 
L 252.749017 29.371147 
L 253.434271 23.183498 
L 254.119525 18.856365 
L 254.80478 16.488879 
L 255.490034 16.135278 
L 256.175288 17.803662 
L 256.860542 21.455809 
L 257.545796 27.008052 
L 258.231051 34.333193 
L 259.601559 53.594141 
L 260.972067 77.483744 
L 265.083592 154.259736 
L 266.454101 173.757294 
L 267.139355 181.226295 
L 267.824609 186.935163 
L 268.509863 190.753112 
L 269.195117 192.592675 
L 269.880372 192.41171 
L 270.565626 190.214362 
L 271.25088 186.050972 
L 271.936134 180.016918 
L 272.621388 172.250438 
L 273.991897 152.267507 
L 275.362405 127.922871 
L 278.788676 62.96165 
L 280.159184 41.559272 
L 280.844439 32.901733 
L 281.529693 25.882072 
L 282.214947 20.661104 
L 282.900201 17.358438 
L 283.585455 16.049736 
L 284.270709 16.764978 
L 284.955964 19.48778 
L 285.641218 24.155763 
L 286.326472 30.661988 
L 287.011726 38.857402 
L 288.382235 59.530394 
L 289.752743 84.291174 
L 293.179014 148.915736 
L 294.549522 169.664888 
L 295.234776 177.908111 
L 295.920031 184.467218 
L 296.605285 189.191946 
L 297.290539 191.974053 
L 297.975793 192.749804 
L 298.661047 191.501427 
L 299.346301 188.257521 
L 300.031556 183.092402 
L 300.71681 176.124398 
L 301.402064 167.513143 
L 302.772572 146.183114 
L 304.828335 107.75705 
L 306.884097 68.648489 
L 308.254606 46.162644 
L 308.93986 36.798293 
L 309.625114 28.982553 
L 310.310368 22.894477 
L 310.995623 18.673537 
L 311.680877 16.416432 
L 312.366131 16.174872 
L 313.051385 17.95439 
L 313.736639 21.714219 
L 314.421893 27.368223 
L 315.107148 34.786874 
L 316.477656 54.201757 
L 317.848164 78.189934 
L 321.959689 154.869262 
L 323.330198 174.213621 
L 324.015452 181.589393 
L 324.700706 187.196713 
L 325.38596 190.907123 
L 326.071215 192.635619 
L 326.756469 192.342603 
L 327.441723 190.034787 
L 328.126977 185.765042 
L 328.812231 179.631184 
L 329.497485 171.773737 
L 330.867994 151.643469 
L 332.238502 127.208353 
L 335.664773 62.309125 
L 337.035281 41.040881 
L 337.720536 32.469071 
L 338.40579 25.545049 
L 339.091044 20.427442 
L 339.776298 17.23349 
L 340.461552 16.036364 
L 341.146807 16.863489 
L 341.832061 19.695916 
L 342.517315 24.468757 
L 343.202569 31.072669 
L 343.887823 39.356361 
L 345.258332 60.169857 
L 347.314094 98.246968 
L 349.369857 137.572572 
L 350.740365 160.500407 
L 352.110873 178.316418 
L 352.796128 184.777628 
L 353.481382 189.397346 
L 354.166636 192.069739 
L 354.85189 192.733584 
L 355.537144 191.373671 
L 356.222399 188.021157 
L 356.907653 182.752845 
L 357.592907 175.689427 
L 358.278161 166.992722 
L 359.648669 145.529246 
L 361.704432 107.017052 
L 363.760195 67.972615 
L 365.130703 45.607779 
L 365.815957 36.323777 
L 366.501211 28.599255 
L 367.186465 22.611177 
L 367.87172 18.496726 
L 368.556974 16.350162 
L 369.242228 16.22066 
L 369.927482 18.111187 
L 370.612736 21.978433 
L 371.297991 27.733801 
L 371.983245 35.245441 
L 373.353753 54.812896 
L 374.724261 78.897962 
L 378.835787 155.475245 
L 380.206295 174.665047 
L 380.891549 181.947072 
L 381.576803 187.452451 
L 382.262057 191.055061 
L 382.947312 192.672368 
L 383.632566 192.267321 
L 384.31782 189.849199 
L 385.003074 185.473399 
L 385.688328 179.240169 
L 386.373583 171.292306 
L 387.744091 151.016114 
L 389.114599 126.492234 
L 391.170362 86.685964 
L 391.170362 86.685964 
" clip-path="url(#p35031f83c9)" style="fill: none; stroke: #cccccc; stroke-width: 1.5; stroke-linecap: square"/>
   </g>
   <g id="patch_3">
    <path d="M 49.228525 201.6 
L 49.228525 7.2 
" style="fill: none; stroke: #000000; stroke-width: 0.8; stroke-linejoin: miter; stroke-linecap: square"/>
   </g>
   <g id="patch_4">
    <path d="M 408.267454 201.6 
L 408.267454 7.2 
" style="fill: none"/>
   </g>
   <g id="patch_5">
    <path d="M 32.131433 104.395769 
L 408.267454 104.395769 
" style="fill: none; stroke: #000000; stroke-width: 0.8; stroke-linejoin: miter; stroke-linecap: square"/>
   </g>
   <g id="patch_6">
    <path d="M 32.131433 7.2 
L 408.267454 7.2 
" style="fill: none"/>
   </g>
  </g>
 </g>
 <defs>
  <clipPath id="p35031f83c9">
   <rect x="32.131433" y="7.2" width="376.13602" height="194.4"/>
  </clipPath>
 </defs>
</svg>
