<?xml version="1.0" encoding="utf-8" standalone="no"?>
<!DOCTYPE svg PUBLIC "-//W3C//DTD SVG 1.1//EN"
  "http://www.w3.org/Graphics/SVG/1.1/DTD/svg11.dtd">
<svg xmlns:xlink="http://www.w3.org/1999/xlink" width="387.69578pt" height="183.875297pt" viewBox="0 0 387.69578 183.875297" xmlns="http://www.w3.org/2000/svg" version="1.1">
 <metadata>
  <rdf:RDF xmlns:dc="http://purl.org/dc/elements/1.1/" xmlns:cc="http://creativecommons.org/ns#" xmlns:rdf="http://www.w3.org/1999/02/22-rdf-syntax-ns#">
   <cc:Work>
    <dc:type rdf:resource="http://purl.org/dc/dcmitype/StillImage"/>
    <dc:date>2023-09-04T15:03:44.069782</dc:date>
    <dc:format>image/svg+xml</dc:format>
    <dc:creator>
     <cc:Agent>
      <dc:title>Matplotlib v3.7.2, https://matplotlib.org/</dc:title>
     </cc:Agent>
    </dc:creator>
   </cc:Work>
  </rdf:RDF>
 </metadata>
 <defs>
  <style type="text/css">*{stroke-linejoin: round; stroke-linecap: butt}</style>
 </defs>
 <g id="figure_1">
  <g id="patch_1">
   <path d="M -0 183.875297 
L 387.69578 183.875297 
L 387.69578 0 
L -0 0 
z
" style="fill: #ffffff"/>
  </g>
  <g id="axes_1">
   <g id="patch_2">
    <path d="M 46.29446 145.8 
L 375.51446 145.8 
L 375.51446 7.2 
L 46.29446 7.2 
z
" style="fill: #ffffff"/>
   </g>
   <g id="matplotlib.axis_1">
    <g id="xtick_1">
     <g id="line2d_1">
      <path d="M 46.29446 145.8 
L 46.29446 7.2 
" clip-path="url(#p94cb0d755b)" style="fill: none; stroke: #b0b0b0; stroke-width: 0.8; stroke-linecap: square"/>
     </g>
     <g id="line2d_2">
      <defs>
       <path id="m272851e1bc" d="M 0 0 
L 0 3.5 
" style="stroke: #000000; stroke-width: 0.8"/>
      </defs>
      <g>
       <use xlink:href="#m272851e1bc" x="46.29446" y="145.8" style="stroke: #000000; stroke-width: 0.8"/>
      </g>
     </g>
     <g id="text_1">
      <!-- $\mathdefault{0}$ -->
      <g transform="translate(43.8038 159.928237) scale(0.1 -0.1)">
       <defs>
        <path id="URWPalladioL-Roma-30" d="M 1683 4416 
C 691 4416 186 3628 186 2076 
C 186 1326 320 679 544 365 
C 768 51 1126 -128 1523 -128 
C 2490 -128 2976 704 2976 2345 
C 2976 3749 2560 4416 1683 4416 
z
M 1568 4191 
C 2189 4191 2438 3563 2438 2025 
C 2438 660 2195 96 1606 96 
C 986 96 723 743 723 2307 
C 723 3660 960 4191 1568 4191 
z
" transform="scale(0.015625)"/>
       </defs>
       <use xlink:href="#URWPalladioL-Roma-30" transform="scale(0.996264)"/>
      </g>
     </g>
    </g>
    <g id="xtick_2">
     <g id="line2d_3">
      <path d="M 112.13846 145.8 
L 112.13846 7.2 
" clip-path="url(#p94cb0d755b)" style="fill: none; stroke: #b0b0b0; stroke-width: 0.8; stroke-linecap: square"/>
     </g>
     <g id="line2d_4">
      <g>
       <use xlink:href="#m272851e1bc" x="112.13846" y="145.8" style="stroke: #000000; stroke-width: 0.8"/>
      </g>
     </g>
     <g id="text_2">
      <!-- $\mathdefault{2}$ -->
      <g transform="translate(109.6478 159.928237) scale(0.1 -0.1)">
       <defs>
        <path id="URWPalladioL-Roma-32" d="M 102 166 
L 102 0 
C 1299 0 1299 0 1530 0 
C 1760 19 1760 19 2995 0 
C 2982 134 2982 198 2982 287 
C 2982 370 2982 434 2995 574 
C 2259 542 1965 536 781 510 
L 1946 1741 
C 2566 2398 2758 2749 2758 3228 
C 2758 3961 2259 4416 1446 4416 
C 986 4416 672 4287 358 3967 
L 250 3100 
L 435 3100 
L 518 3394 
C 621 3763 851 3923 1280 3923 
C 1830 3923 2182 3578 2182 3036 
C 2182 2558 1914 2086 1190 1320 
L 102 166 
z
" transform="scale(0.015625)"/>
       </defs>
       <use xlink:href="#URWPalladioL-Roma-32" transform="scale(0.996264)"/>
      </g>
     </g>
    </g>
    <g id="xtick_3">
     <g id="line2d_5">
      <path d="M 177.98246 145.8 
L 177.98246 7.2 
" clip-path="url(#p94cb0d755b)" style="fill: none; stroke: #b0b0b0; stroke-width: 0.8; stroke-linecap: square"/>
     </g>
     <g id="line2d_6">
      <g>
       <use xlink:href="#m272851e1bc" x="177.98246" y="145.8" style="stroke: #000000; stroke-width: 0.8"/>
      </g>
     </g>
     <g id="text_3">
      <!-- $\mathdefault{4}$ -->
      <g transform="translate(175.4918 159.928237) scale(0.1 -0.1)">
       <defs>
        <path id="URWPalladioL-Roma-34" d="M 1792 1152 
L 1792 684 
C 1792 310 1722 223 1408 210 
L 1011 192 
L 1011 0 
C 1862 0 1862 0 2016 0 
C 2170 19 2170 19 3021 0 
L 3021 192 
L 2714 210 
C 2400 229 2330 310 2330 684 
L 2330 1152 
C 2707 1152 2842 1145 3021 1127 
L 3021 1580 
C 2720 1555 2598 1555 2502 1561 
L 2483 1561 
L 2330 1561 
L 2330 2445 
C 2330 3576 2342 4122 2374 4383 
L 2298 4416 
L 1824 4243 
L 13 1299 
L 83 1152 
L 1792 1152 
z
M 1792 1561 
L 416 1561 
L 1792 3798 
L 1792 1561 
z
" transform="scale(0.015625)"/>
       </defs>
       <use xlink:href="#URWPalladioL-Roma-34" transform="scale(0.996264)"/>
      </g>
     </g>
    </g>
    <g id="xtick_4">
     <g id="line2d_7">
      <path d="M 243.82646 145.8 
L 243.82646 7.2 
" clip-path="url(#p94cb0d755b)" style="fill: none; stroke: #b0b0b0; stroke-width: 0.8; stroke-linecap: square"/>
     </g>
     <g id="line2d_8">
      <g>
       <use xlink:href="#m272851e1bc" x="243.82646" y="145.8" style="stroke: #000000; stroke-width: 0.8"/>
      </g>
     </g>
     <g id="text_4">
      <!-- $\mathdefault{6}$ -->
      <g transform="translate(241.3358 159.928237) scale(0.1 -0.1)">
       <defs>
        <path id="URWPalladioL-Roma-36" d="M 2662 4287 
L 2426 4396 
C 1811 4193 1549 4066 1222 3788 
C 563 3237 205 2463 205 1585 
C 205 526 717 -128 1542 -128 
C 2374 -128 2995 532 2995 1405 
C 2995 2143 2554 2624 1875 2624 
C 1555 2624 1363 2540 986 2239 
C 915 2182 909 2175 838 2124 
C 973 3275 1510 3895 2662 4237 
L 2662 4287 
z
M 1632 2239 
C 2118 2239 2445 1816 2445 1180 
C 2445 513 2118 83 1626 83 
C 1082 83 787 551 787 1411 
C 787 1636 813 1758 883 1867 
C 1024 2085 1325 2239 1632 2239 
z
" transform="scale(0.015625)"/>
       </defs>
       <use xlink:href="#URWPalladioL-Roma-36" transform="scale(0.996264)"/>
      </g>
     </g>
    </g>
    <g id="xtick_5">
     <g id="line2d_9">
      <path d="M 309.67046 145.8 
L 309.67046 7.2 
" clip-path="url(#p94cb0d755b)" style="fill: none; stroke: #b0b0b0; stroke-width: 0.8; stroke-linecap: square"/>
     </g>
     <g id="line2d_10">
      <g>
       <use xlink:href="#m272851e1bc" x="309.67046" y="145.8" style="stroke: #000000; stroke-width: 0.8"/>
      </g>
     </g>
     <g id="text_5">
      <!-- $\mathdefault{8}$ -->
      <g transform="translate(307.1798 159.928237) scale(0.1 -0.1)">
       <defs>
        <path id="URWPalladioL-Roma-38" d="M 1075 2211 
C 813 2089 704 2019 563 1884 
C 320 1640 192 1352 192 1019 
C 192 358 723 -128 1446 -128 
C 2278 -128 2970 525 2970 1320 
C 2970 1833 2733 2108 2003 2442 
C 2586 2839 2790 3108 2790 3493 
C 2790 4044 2336 4416 1658 4416 
C 896 4416 339 3929 339 3256 
C 339 2820 512 2576 1075 2211 
z
M 1818 1890 
C 2221 1711 2464 1397 2464 1051 
C 2464 512 2061 89 1542 89 
C 998 89 646 474 646 1070 
C 646 1538 832 1833 1306 2121 
L 1818 1890 
z
M 1427 2711 
C 1024 2910 819 3166 819 3486 
C 819 3910 1126 4198 1581 4198 
C 2048 4198 2355 3890 2355 3422 
C 2355 3057 2195 2807 1779 2538 
L 1427 2711 
z
" transform="scale(0.015625)"/>
       </defs>
       <use xlink:href="#URWPalladioL-Roma-38" transform="scale(0.996264)"/>
      </g>
     </g>
    </g>
    <g id="xtick_6">
     <g id="line2d_11">
      <path d="M 375.51446 145.8 
L 375.51446 7.2 
" clip-path="url(#p94cb0d755b)" style="fill: none; stroke: #b0b0b0; stroke-width: 0.8; stroke-linecap: square"/>
     </g>
     <g id="line2d_12">
      <g>
       <use xlink:href="#m272851e1bc" x="375.51446" y="145.8" style="stroke: #000000; stroke-width: 0.8"/>
      </g>
     </g>
     <g id="text_6">
      <!-- $\mathdefault{10}$ -->
      <g transform="translate(370.53314 159.928237) scale(0.1 -0.1)">
       <defs>
        <path id="URWPalladioL-Roma-31" d="M 429 3571 
L 493 3571 
L 1318 3942 
C 1325 3949 1331 3949 1338 3949 
C 1376 3949 1389 3891 1389 3737 
L 1389 633 
C 1389 300 1318 230 973 211 
L 614 192 
L 614 0 
C 1600 0 1600 0 1670 0 
C 1754 0 1894 0 2112 -7 
C 2189 6 2413 6 2675 0 
L 2675 192 
L 2342 211 
C 1990 229 1926 299 1926 628 
L 1926 4383 
L 1837 4416 
C 1421 4199 966 4009 384 3807 
L 429 3571 
z
" transform="scale(0.015625)"/>
       </defs>
       <use xlink:href="#URWPalladioL-Roma-31" transform="scale(0.996264)"/>
       <use xlink:href="#URWPalladioL-Roma-30" transform="translate(49.8132 0) scale(0.996264)"/>
      </g>
     </g>
    </g>
    <g id="text_7">
     <!-- Zeit [s] -->
     <g transform="translate(195.447667 173.865886) scale(0.1 -0.1)">
      <defs>
       <path id="URWPalladioL-Roma-5a" d="M 4077 4230 
L 4051 4416 
L 3053 4416 
L 2733 4416 
L 1568 4428 
L 512 4416 
C 525 4179 531 4063 531 3897 
C 531 3731 525 3615 512 3379 
L 730 3379 
L 768 3833 
C 787 4102 960 4153 1741 4153 
L 3200 4153 
C 3104 3994 3040 3898 2912 3739 
C 2829 3624 2739 3515 2650 3400 
L 717 925 
C 627 804 506 663 96 179 
L 96 0 
L 2093 0 
L 2272 0 
L 4045 0 
C 4045 550 4051 774 4083 1126 
L 3866 1126 
L 3827 761 
C 3782 320 3693 281 2714 281 
L 966 281 
L 4077 4230 
z
" transform="scale(0.015625)"/>
       <path id="URWPalladioL-Roma-65" d="M 2797 447 
L 2714 511 
C 2304 268 2157 211 1882 211 
C 1466 211 1120 396 941 710 
C 819 921 774 1100 762 1472 
L 1696 1472 
C 2138 1472 2413 1491 2854 1561 
C 2861 1651 2867 1708 2867 1786 
C 2867 2526 2394 3008 1677 3008 
C 1440 3008 1165 2924 902 2771 
C 378 2468 166 2069 166 1401 
C 166 998 262 652 435 409 
C 691 70 1120 -128 1600 -128 
C 1837 -128 2074 -77 2336 38 
C 2509 108 2643 192 2669 230 
L 2797 447 
z
M 2298 1708 
C 1965 1696 1811 1689 1581 1689 
C 1286 1689 1120 1696 774 1728 
C 774 2030 800 2172 883 2339 
C 1018 2623 1293 2796 1600 2796 
C 1811 2796 1978 2713 2093 2539 
C 2234 2326 2278 2140 2298 1708 
z
" transform="scale(0.015625)"/>
       <path id="URWPalladioL-Roma-69" d="M 1203 2982 
L 1146 3008 
C 819 2873 486 2784 147 2746 
L 147 2568 
L 384 2568 
C 640 2568 666 2523 666 2103 
L 666 669 
C 666 268 646 223 429 211 
L 134 192 
L 134 0 
C 774 0 774 0 934 0 
C 1094 19 1094 19 1734 0 
L 1734 192 
L 1440 211 
C 1222 224 1203 268 1203 671 
L 1203 2982 
z
M 909 4416 
C 717 4416 550 4249 550 4057 
C 550 3871 717 3705 902 3705 
C 1088 3705 1261 3871 1261 4057 
C 1261 4236 1088 4416 909 4416 
z
" transform="scale(0.015625)"/>
       <path id="URWPalladioL-Roma-74" d="M 627 2457 
L 627 614 
C 627 140 838 -64 1331 -64 
C 1478 -64 1632 -32 1670 12 
L 1978 352 
L 1894 460 
C 1734 371 1638 339 1517 339 
C 1267 339 1165 467 1165 780 
L 1165 2457 
L 1984 2457 
L 2042 2803 
L 1165 2764 
L 1165 3008 
C 1165 3277 1184 3507 1235 3917 
L 1158 3987 
C 1005 3891 813 3808 614 3744 
C 634 3552 640 3430 640 3238 
L 640 2790 
L 141 2566 
L 141 2432 
L 627 2457 
z
" transform="scale(0.015625)"/>
       <path id="URWPalladioL-Roma-5b" d="M 563 -1178 
C 1018 -1166 1030 -1166 1184 -1166 
C 1338 -1166 1370 -1166 1805 -1178 
L 1843 -1140 
L 1843 -974 
L 1818 -942 
L 1574 -942 
C 1402 -942 1261 -903 1184 -839 
C 1126 -782 1107 -692 1107 -481 
C 1107 -474 1107 -340 1101 -148 
L 1101 89 
L 1101 3379 
L 1101 3615 
C 1107 3795 1107 3935 1107 3942 
C 1107 4153 1126 4249 1184 4307 
C 1261 4371 1402 4409 1574 4409 
L 1818 4409 
L 1843 4441 
L 1843 4608 
L 1805 4646 
C 1357 4633 1338 4633 1184 4633 
C 1037 4633 1005 4633 563 4646 
L 506 4563 
C 544 4403 557 4191 557 3699 
C 557 3603 557 3526 563 3462 
L 563 3379 
L 563 89 
L 563 6 
C 557 -97 557 -103 557 -212 
L 557 -282 
C 557 -718 544 -897 506 -1095 
L 563 -1178 
z
" transform="scale(0.015625)"/>
       <path id="URWPalladioL-Roma-73" d="M 262 917 
C 262 474 243 282 192 25 
C 525 -84 774 -128 1069 -128 
C 1907 -128 2502 320 2502 949 
C 2502 1148 2445 1295 2323 1423 
C 2157 1584 1946 1661 1382 1770 
C 858 1872 685 2001 685 2296 
C 685 2617 909 2796 1299 2796 
C 1728 2796 2054 2572 2054 2270 
L 2054 2123 
L 2234 2123 
C 2240 2495 2246 2649 2266 2847 
C 1926 2963 1696 3008 1434 3008 
C 691 3008 237 2655 237 2078 
C 237 1770 378 1552 672 1417 
C 845 1340 1184 1237 1619 1141 
C 1907 1077 2029 942 2029 698 
C 2029 352 1709 108 1254 108 
C 787 108 454 333 454 654 
L 454 917 
L 262 917 
z
" transform="scale(0.015625)"/>
       <path id="URWPalladioL-Roma-5d" d="M 1568 4646 
C 1114 4633 1094 4633 947 4633 
C 794 4633 762 4633 326 4646 
L 288 4608 
L 288 4441 
L 314 4409 
L 557 4409 
C 730 4409 864 4371 941 4307 
C 1005 4249 1024 4159 1024 3942 
C 1024 3923 1024 3795 1030 3615 
L 1030 3379 
L 1030 89 
L 1030 -148 
C 1024 -334 1024 -449 1024 -468 
C 1024 -686 1005 -782 941 -839 
C 864 -903 730 -942 557 -942 
L 314 -942 
L 288 -974 
L 288 -1140 
L 326 -1178 
C 774 -1166 787 -1166 947 -1166 
C 1094 -1166 1126 -1166 1568 -1178 
L 1626 -1095 
C 1587 -942 1581 -743 1574 -250 
C 1574 -161 1574 -78 1568 6 
L 1568 89 
L 1568 3379 
L 1568 3462 
C 1574 3532 1574 3615 1574 3705 
C 1574 4198 1587 4409 1626 4563 
L 1568 4646 
z
" transform="scale(0.015625)"/>
      </defs>
      <use xlink:href="#URWPalladioL-Roma-5a" transform="scale(0.996264)"/>
      <use xlink:href="#URWPalladioL-Roma-65" transform="translate(66.450031 0) scale(0.996264)"/>
      <use xlink:href="#URWPalladioL-Roma-69" transform="translate(114.170326 0) scale(0.996264)"/>
      <use xlink:href="#URWPalladioL-Roma-74" transform="translate(143.160688 0) scale(0.996264)"/>
      <use xlink:href="#URWPalladioL-Roma-5b" transform="translate(200.544376 0) scale(0.996264)"/>
      <use xlink:href="#URWPalladioL-Roma-73" transform="translate(233.719606 0) scale(0.996264)"/>
      <use xlink:href="#URWPalladioL-Roma-5d" transform="translate(275.961072 0) scale(0.996264)"/>
     </g>
    </g>
   </g>
   <g id="matplotlib.axis_2">
    <g id="ytick_1">
     <g id="line2d_13">
      <path d="M 46.29446 115.468345 
L 375.51446 115.468345 
" clip-path="url(#p94cb0d755b)" style="fill: none; stroke: #b0b0b0; stroke-width: 0.8; stroke-linecap: square"/>
     </g>
     <g id="line2d_14">
      <defs>
       <path id="m890df0b51f" d="M 0 0 
L -3.5 0 
" style="stroke: #000000; stroke-width: 0.8"/>
      </defs>
      <g>
       <use xlink:href="#m890df0b51f" x="46.29446" y="115.468345" style="stroke: #000000; stroke-width: 0.8"/>
      </g>
     </g>
     <g id="text_8">
      <!-- $\mathdefault{−10}$ -->
      <g transform="translate(21.137648 119.032463) scale(0.1 -0.1)">
       <defs>
        <path id="CMSY10-0" d="M 4218 1472 
C 4326 1472 4442 1472 4442 1600 
C 4442 1728 4326 1728 4218 1728 
L 755 1728 
C 646 1728 531 1728 531 1600 
C 531 1472 646 1472 755 1472 
L 4218 1472 
z
" transform="scale(0.015625)"/>
       </defs>
       <use xlink:href="#CMSY10-0" transform="scale(1.038107)"/>
       <use xlink:href="#URWPalladioL-Roma-31" transform="translate(81.941696 0) scale(0.996264)"/>
       <use xlink:href="#URWPalladioL-Roma-30" transform="translate(131.754897 0) scale(0.996264)"/>
      </g>
     </g>
    </g>
    <g id="ytick_2">
     <g id="line2d_15">
      <path d="M 46.29446 81.478896 
L 375.51446 81.478896 
" clip-path="url(#p94cb0d755b)" style="fill: none; stroke: #b0b0b0; stroke-width: 0.8; stroke-linecap: square"/>
     </g>
     <g id="line2d_16">
      <g>
       <use xlink:href="#m890df0b51f" x="46.29446" y="81.478896" style="stroke: #000000; stroke-width: 0.8"/>
      </g>
     </g>
     <g id="text_9">
      <!-- $\mathdefault{0}$ -->
      <g transform="translate(34.31314 85.043015) scale(0.1 -0.1)">
       <use xlink:href="#URWPalladioL-Roma-30" transform="scale(0.996264)"/>
      </g>
     </g>
    </g>
    <g id="ytick_3">
     <g id="line2d_17">
      <path d="M 46.29446 47.489448 
L 375.51446 47.489448 
" clip-path="url(#p94cb0d755b)" style="fill: none; stroke: #b0b0b0; stroke-width: 0.8; stroke-linecap: square"/>
     </g>
     <g id="line2d_18">
      <g>
       <use xlink:href="#m890df0b51f" x="46.29446" y="47.489448" style="stroke: #000000; stroke-width: 0.8"/>
      </g>
     </g>
     <g id="text_10">
      <!-- $\mathdefault{10}$ -->
      <g transform="translate(29.33182 51.053567) scale(0.1 -0.1)">
       <use xlink:href="#URWPalladioL-Roma-31" transform="scale(0.996264)"/>
       <use xlink:href="#URWPalladioL-Roma-30" transform="translate(49.8132 0) scale(0.996264)"/>
      </g>
     </g>
    </g>
    <g id="ytick_4">
     <g id="line2d_19">
      <path d="M 46.29446 13.5 
L 375.51446 13.5 
" clip-path="url(#p94cb0d755b)" style="fill: none; stroke: #b0b0b0; stroke-width: 0.8; stroke-linecap: square"/>
     </g>
     <g id="line2d_20">
      <g>
       <use xlink:href="#m890df0b51f" x="46.29446" y="13.5" style="stroke: #000000; stroke-width: 0.8"/>
      </g>
     </g>
     <g id="text_11">
      <!-- $\mathdefault{20}$ -->
      <g transform="translate(29.33182 17.064119) scale(0.1 -0.1)">
       <use xlink:href="#URWPalladioL-Roma-32" transform="scale(0.996264)"/>
       <use xlink:href="#URWPalladioL-Roma-30" transform="translate(49.8132 0) scale(0.996264)"/>
      </g>
     </g>
    </g>
    <g id="text_12">
     <!-- Verschiebung -->
     <g transform="translate(14.328237 106.382524) rotate(-90) scale(0.1 -0.1)">
      <defs>
       <path id="URWPalladioL-Roma-56" d="M 1754 4224 
L 1754 4416 
C 1050 4396 1050 4396 902 4396 
C 755 4396 755 4396 51 4416 
L 51 4224 
L 282 4205 
C 416 4192 480 4134 563 3943 
L 1766 990 
C 1965 504 2042 281 2138 -64 
L 2458 -64 
C 2579 332 2656 543 2867 1054 
L 3981 3745 
C 4128 4090 4198 4185 4326 4205 
L 4518 4224 
L 4518 4416 
L 3827 4396 
C 3712 4396 3565 4403 3379 4409 
C 3347 4409 3238 4409 3136 4416 
L 3136 4224 
L 3469 4205 
C 3610 4198 3693 4134 3693 4038 
C 3693 3975 3674 3885 3635 3789 
L 2464 766 
L 1203 4007 
C 1197 4032 1190 4051 1190 4077 
C 1190 4154 1267 4198 1395 4205 
L 1754 4224 
z
" transform="scale(0.015625)"/>
       <path id="URWPalladioL-Roma-72" d="M 147 2579 
L 384 2579 
C 640 2579 666 2534 666 2112 
L 666 672 
C 666 268 646 224 429 211 
L 134 192 
L 134 0 
C 595 -7 762 0 922 0 
C 1050 19 1050 19 1837 0 
L 1837 192 
L 1504 211 
C 1216 230 1203 249 1203 669 
L 1203 1763 
C 1203 2145 1459 2463 1773 2463 
C 1965 2463 2099 2374 2202 2171 
L 2336 2171 
L 2394 2937 
C 2323 2982 2208 3008 2093 3008 
C 1901 3008 1696 2905 1562 2745 
L 1203 2324 
L 1203 2982 
L 1146 3008 
C 819 2873 486 2783 147 2745 
L 147 2579 
z
" transform="scale(0.015625)"/>
       <path id="URWPalladioL-Roma-63" d="M 2554 1995 
C 2554 2290 2586 2553 2643 2783 
C 2387 2937 2163 3008 1901 3008 
C 1594 3008 1235 2886 851 2643 
C 403 2360 166 1911 166 1347 
C 166 480 774 -128 1632 -128 
C 1965 -128 2445 -7 2509 89 
L 2643 294 
L 2579 390 
C 2342 262 2138 204 1907 204 
C 1197 204 730 756 730 1603 
C 730 2290 1050 2675 1626 2675 
C 1907 2675 2214 2547 2330 2386 
L 2374 1995 
L 2554 1995 
z
" transform="scale(0.015625)"/>
       <path id="URWPalladioL-Roma-68" d="M 45 4249 
L 403 4249 
C 518 4249 563 4179 563 3987 
L 563 672 
C 563 268 544 224 326 211 
L 38 192 
L 38 0 
C 474 -7 646 0 832 0 
C 1018 19 1190 12 1626 0 
L 1626 192 
L 1338 211 
C 1120 223 1101 268 1101 670 
L 1101 2023 
C 1101 2311 1523 2624 1914 2624 
C 2342 2624 2624 2304 2624 1813 
L 2624 0 
C 3014 0 3021 0 3130 0 
C 3219 19 3219 19 3661 0 
L 3661 192 
L 3398 211 
C 3181 223 3162 262 3162 670 
L 3162 1902 
C 3162 2649 2810 3014 2093 3014 
C 1856 3014 1722 2969 1587 2854 
L 1101 2432 
L 1101 4608 
L 1043 4659 
C 762 4550 550 4499 45 4422 
L 45 4249 
z
" transform="scale(0.015625)"/>
       <path id="URWPalladioL-Roma-62" d="M 960 4601 
L 902 4652 
C 621 4544 410 4492 -96 4416 
L -96 4236 
L 262 4236 
C 378 4236 422 4166 422 3974 
L 422 990 
C 422 594 416 421 371 -26 
L 474 -64 
L 730 166 
C 986 0 1216 -64 1555 -64 
C 1805 -64 1971 -20 2106 76 
L 2746 536 
C 3027 741 3251 1270 3251 1736 
C 3251 2477 2771 3008 2093 3008 
C 1792 3008 1478 2892 1312 2726 
L 960 2368 
L 960 4601 
z
M 960 1979 
C 960 2068 1024 2183 1126 2298 
C 1306 2483 1555 2591 1818 2591 
C 2355 2591 2694 2158 2694 1475 
C 2694 760 2310 262 1766 262 
C 1434 262 960 466 960 607 
L 960 1979 
z
" transform="scale(0.015625)"/>
       <path id="URWPalladioL-Roma-75" d="M 3219 2982 
L 3162 3008 
C 2835 2873 2502 2784 2163 2745 
L 2163 2567 
L 2400 2567 
C 2656 2567 2682 2522 2682 2101 
L 2682 1060 
C 2682 920 2592 741 2445 594 
C 2266 415 2061 326 1811 326 
C 1587 326 1408 396 1306 517 
C 1216 620 1171 817 1171 1098 
L 1171 2982 
L 1114 3008 
C 787 2873 454 2784 115 2745 
L 115 2567 
L 352 2567 
C 608 2567 634 2522 634 2101 
L 634 1028 
C 634 581 672 383 787 224 
C 928 32 1171 -64 1536 -64 
C 1824 -58 2080 32 2253 192 
L 2682 588 
C 2682 403 2675 300 2656 0 
C 3085 0 3091 0 3187 0 
C 3277 19 3277 19 3718 0 
L 3718 192 
L 3456 211 
C 3238 224 3219 262 3219 672 
L 3219 2982 
z
" transform="scale(0.015625)"/>
       <path id="URWPalladioL-Roma-6e" d="M 2624 0 
C 3014 0 3021 0 3130 0 
C 3219 19 3219 19 3661 0 
L 3661 192 
L 3398 211 
C 3181 223 3162 262 3162 670 
L 3162 1902 
C 3162 2649 2810 3014 2093 3014 
C 1856 3014 1722 2969 1587 2854 
L 1101 2432 
L 1101 2988 
L 1043 3008 
C 717 2873 384 2784 45 2746 
L 45 2568 
L 282 2568 
C 538 2568 563 2523 563 2103 
L 563 669 
C 563 268 544 223 326 211 
L 38 192 
L 38 0 
C 474 -7 646 0 832 0 
C 1018 19 1190 12 1626 0 
L 1626 192 
L 1338 211 
C 1120 223 1101 268 1101 670 
L 1101 2023 
C 1101 2311 1523 2624 1914 2624 
C 2342 2624 2624 2304 2624 1813 
L 2624 0 
z
" transform="scale(0.015625)"/>
       <path id="URWPalladioL-Roma-67" d="M 3322 2452 
L 3482 2713 
L 3456 2790 
L 2547 2764 
C 2310 2956 2080 3033 1766 3033 
C 1485 3033 1158 2944 896 2790 
C 538 2586 352 2274 352 1885 
C 352 1413 646 1087 1120 1036 
L 614 638 
C 550 540 518 455 518 358 
C 518 179 634 76 941 -13 
L 384 -315 
C 294 -367 205 -604 205 -804 
C 205 -1388 774 -1792 1587 -1792 
C 2554 -1792 3315 -1183 3315 -399 
C 3315 64 3008 384 2560 384 
L 1536 384 
C 1203 384 1050 462 1050 638 
C 1050 723 1101 795 1267 939 
C 1306 972 1318 985 1344 1011 
C 1408 1004 1446 998 1498 998 
C 1773 998 2112 1119 2374 1305 
C 2662 1515 2803 1770 2803 2108 
C 2803 2235 2784 2318 2733 2452 
L 3322 2452 
z
M 1536 2816 
C 1971 2816 2266 2458 2266 1917 
C 2266 1502 1997 1216 1606 1216 
C 1178 1216 890 1547 890 2038 
C 890 2529 1126 2816 1536 2816 
z
M 1837 -64 
C 2560 -64 2810 -212 2810 -630 
C 2810 -1183 2304 -1594 1632 -1594 
C 1075 -1594 691 -1266 691 -791 
C 691 -502 858 -238 1114 -129 
C 1216 -77 1395 -64 1837 -64 
z
" transform="scale(0.015625)"/>
      </defs>
      <use xlink:href="#URWPalladioL-Roma-56" transform="scale(0.996264)"/>
      <use xlink:href="#URWPalladioL-Roma-65" transform="translate(60.871539 0) scale(0.996264)"/>
      <use xlink:href="#URWPalladioL-Roma-72" transform="translate(108.591835 0) scale(0.996264)"/>
      <use xlink:href="#URWPalladioL-Roma-73" transform="translate(147.943731 0) scale(0.996264)"/>
      <use xlink:href="#URWPalladioL-Roma-63" transform="translate(190.185197 0) scale(0.996264)"/>
      <use xlink:href="#URWPalladioL-Roma-68" transform="translate(234.418766 0) scale(0.996264)"/>
      <use xlink:href="#URWPalladioL-Roma-69" transform="translate(292.400827 0) scale(0.996264)"/>
      <use xlink:href="#URWPalladioL-Roma-65" transform="translate(321.391188 0) scale(0.996264)"/>
      <use xlink:href="#URWPalladioL-Roma-62" transform="translate(369.111483 0) scale(0.996264)"/>
      <use xlink:href="#URWPalladioL-Roma-75" transform="translate(424.203883 0) scale(0.996264)"/>
      <use xlink:href="#URWPalladioL-Roma-6e" transform="translate(484.277617 0) scale(0.996264)"/>
      <use xlink:href="#URWPalladioL-Roma-67" transform="translate(542.259678 0) scale(0.996264)"/>
     </g>
    </g>
   </g>
   <g id="line2d_21">
    <path d="M 46.29446 13.5 
L 46.624009 13.805361 
L 46.953559 14.781826 
L 47.283108 16.412984 
L 47.942207 21.542227 
L 48.601306 28.940252 
L 49.589955 43.533334 
L 50.908153 67.245457 
L 53.215 109.435989 
L 54.203649 123.663981 
L 54.862748 130.905359 
L 55.521847 136.048427 
L 56.180946 138.931372 
L 56.510496 139.5 
L 56.840045 139.484974 
L 57.169595 138.892257 
L 57.499144 137.733508 
L 58.158243 133.791931 
L 58.817343 127.85954 
L 59.805991 115.845195 
L 61.124189 95.899434 
L 63.431036 59.539473 
L 64.419685 46.955626 
L 65.078784 40.413145 
L 65.737883 35.62446 
L 66.396982 32.744199 
L 66.726532 32.046634 
L 67.056081 31.848447 
L 67.385631 32.146638 
L 67.71518 32.933295 
L 68.04473 34.195714 
L 68.703829 38.074187 
L 69.362928 43.592409 
L 70.351577 54.381763 
L 71.669775 71.783406 
L 73.976622 102.478998 
L 74.96527 112.731838 
L 75.62437 117.907799 
L 76.283469 121.540434 
L 76.613018 122.740038 
L 76.942568 123.516663 
L 77.272117 123.866784 
L 77.601667 123.791161 
L 77.931216 123.294788 
L 78.260766 122.3868 
L 78.919865 119.3924 
L 79.578964 114.957902 
L 80.567613 106.064605 
L 81.885811 91.415933 
L 84.192658 64.944837 
L 85.181306 55.867402 
L 85.840406 51.18297 
L 86.499505 47.789568 
L 87.158604 45.795813 
L 87.488153 45.342061 
L 87.817703 45.252814 
L 88.147252 45.52533 
L 88.476802 46.153291 
L 89.135901 48.433021 
L 89.795 51.974503 
L 90.783649 59.280215 
L 92.101847 71.585275 
L 94.738243 97.236627 
L 95.726892 104.622056 
L 96.385991 108.319249 
L 97.04509 110.881646 
L 97.37464 111.710731 
L 97.704189 112.230397 
L 98.033739 112.43855 
L 98.363288 112.336217 
L 98.692838 111.927512 
L 99.022388 111.219557 
L 99.681487 108.94881 
L 100.340586 105.636657 
L 101.329234 99.056504 
L 102.647433 88.3011 
L 104.954279 69.033949 
L 105.942928 62.488269 
L 106.602027 59.1362 
L 107.261126 56.734208 
L 107.920225 55.358459 
L 108.249775 55.067742 
L 108.579324 55.043021 
L 108.908874 55.281894 
L 109.238424 55.779355 
L 109.897523 57.51749 
L 110.556622 60.168829 
L 111.54527 65.581067 
L 112.863469 74.622719 
L 115.499865 93.29118 
L 116.488514 98.609003 
L 117.147613 101.24808 
L 117.806712 103.052993 
L 118.136261 103.624088 
L 118.465811 103.968892 
L 118.795361 104.086221 
L 119.12491 103.977174 
L 119.45446 103.645092 
L 120.113559 102.336051 
L 120.772658 100.228071 
L 121.431757 97.420359 
L 122.420406 92.17574 
L 124.397703 79.87765 
L 125.715901 72.122715 
L 126.70455 67.404426 
L 127.363649 65.007247 
L 128.022748 63.309024 
L 128.681847 62.363065 
L 129.011397 62.180436 
L 129.340946 62.191873 
L 129.670496 62.395327 
L 130.000045 62.78686 
L 130.659144 64.10931 
L 131.318243 66.092501 
L 132.306892 70.100168 
L 133.62509 76.742027 
L 135.931937 88.826586 
L 136.920586 93.000577 
L 137.579685 95.167193 
L 138.238784 96.749504 
L 138.897883 97.69651 
L 139.227433 97.922965 
L 139.556982 97.983352 
L 139.886532 97.878725 
L 140.216081 97.61177 
L 140.87518 96.609511 
L 141.534279 95.028713 
L 142.522928 91.739764 
L 143.841126 86.163932 
L 146.477523 74.452609 
L 147.466171 71.052847 
L 148.12527 69.339647 
L 148.78437 68.140502 
L 149.443469 67.492648 
L 149.773018 67.380937 
L 150.102568 67.41078 
L 150.432117 67.580468 
L 151.091216 68.325715 
L 151.750315 69.57639 
L 152.409415 71.273009 
L 153.398063 74.484279 
L 155.045811 80.826227 
L 156.693559 87.014742 
L 157.682207 90.025439 
L 158.341306 91.576542 
L 159.000406 92.697547 
L 159.659505 93.352644 
L 160.318604 93.525159 
L 160.648153 93.430555 
L 161.307252 92.890292 
L 161.966352 91.909425 
L 162.625451 90.535481 
L 163.614099 87.876779 
L 165.261847 82.510131 
L 167.239144 76.207791 
L 168.227793 73.759052 
L 168.886892 72.535494 
L 169.545991 71.689892 
L 170.20509 71.248199 
L 170.864189 71.219877 
L 171.523288 71.597852 
L 172.182388 72.359123 
L 172.841487 73.465985 
L 173.830135 75.660532 
L 175.148333 79.24161 
L 177.45518 85.644557 
L 178.443829 87.815376 
L 179.102928 88.925161 
L 179.762027 89.718455 
L 180.421126 90.170158 
L 181.080225 90.269175 
L 181.739324 90.01858 
L 182.398424 89.435214 
L 183.057523 88.548746 
L 184.046171 86.743227 
L 185.36437 83.732249 
L 188.000766 77.52841 
L 188.989415 75.76537 
L 189.648514 74.892123 
L 190.307613 74.296687 
L 190.966712 73.997103 
L 191.625811 73.999357 
L 192.28491 74.297376 
L 192.944009 74.873511 
L 193.932658 76.194689 
L 194.921306 77.942711 
L 199.205451 86.174543 
L 200.194099 87.278872 
L 200.853198 87.715956 
L 201.512297 87.897706 
L 202.171397 87.821994 
L 202.830496 87.496918 
L 203.489595 86.940278 
L 204.478243 85.731442 
L 205.796442 83.616838 
L 208.762388 78.520918 
L 209.751036 77.25209 
L 210.739685 76.393493 
L 211.398784 76.082168 
L 212.057883 75.990451 
L 212.716982 76.117614 
L 213.376081 76.454292 
L 214.36473 77.311925 
L 215.353379 78.511605 
L 217.001126 80.948548 
L 218.978424 83.829659 
L 219.967072 84.956973 
L 220.955721 85.74426 
L 221.61482 86.049405 
L 222.273919 86.167741 
L 222.933018 86.098292 
L 223.592117 85.847526 
L 224.580766 85.162728 
L 225.569415 84.173371 
L 227.217162 82.116385 
L 229.19446 79.625523 
L 230.183108 78.626988 
L 231.171757 77.909457 
L 232.160406 77.527886 
L 232.819505 77.473196 
L 233.478604 77.578013 
L 234.467252 78.016706 
L 235.455901 78.747696 
L 236.774099 80.048055 
L 240.069595 83.536942 
L 241.058243 84.271393 
L 242.046892 84.737891 
L 243.035541 84.903229 
L 244.024189 84.761739 
L 245.012838 84.334973 
L 246.001487 83.669 
L 247.649234 82.212446 
L 250.285631 79.82484 
L 251.603829 78.997283 
L 252.592478 78.64661 
L 253.581126 78.556045 
L 254.569775 78.725879 
L 255.558424 79.133434 
L 256.876622 79.969967 
L 261.819865 83.540041 
L 262.808514 83.869888 
L 263.797162 83.979154 
L 264.785811 83.86473 
L 265.77446 83.543322 
L 267.092658 82.8545 
L 269.399505 81.28661 
L 271.047252 80.243525 
L 272.365451 79.649654 
L 273.354099 79.402991 
L 274.342748 79.346666 
L 275.331397 79.480014 
L 276.649595 79.920668 
L 278.297343 80.774276 
L 281.592838 82.62146 
L 282.911036 83.094563 
L 284.229234 83.298564 
L 285.547433 83.212392 
L 286.865631 82.860797 
L 288.513379 82.149912 
L 292.138424 80.431957 
L 293.456622 80.05822 
L 294.77482 79.919449 
L 296.093018 80.02794 
L 297.411216 80.357166 
L 299.388514 81.127706 
L 302.35446 82.329377 
L 304.002207 82.722895 
L 305.320406 82.810883 
L 306.638604 82.688873 
L 308.286352 82.285151 
L 311.252297 81.220137 
L 313.229595 80.619976 
L 314.877343 80.364549 
L 316.195541 80.36111 
L 317.843288 80.59737 
L 319.820586 81.13452 
L 323.445631 82.184296 
L 325.093379 82.421619 
L 326.741126 82.421783 
L 328.388874 82.196328 
L 330.695721 81.632617 
L 333.991216 80.843323 
L 335.638964 80.662756 
L 337.286712 80.686288 
L 339.264009 80.958699 
L 345.855 82.16982 
L 347.832297 82.142816 
L 350.139144 81.834358 
L 355.741487 80.914939 
L 357.718784 80.886834 
L 360.025631 81.106115 
L 366.616622 81.985149 
L 368.923469 81.939548 
L 371.559865 81.641328 
L 375.51446 81.131328 
L 375.51446 81.131328 
" clip-path="url(#p94cb0d755b)" style="fill: none; stroke: #1f77b4; stroke-width: 1.5; stroke-linecap: square"/>
   </g>
   <g id="patch_3">
    <path d="M 46.29446 145.8 
L 46.29446 7.2 
" style="fill: none; stroke: #000000; stroke-width: 0.8; stroke-linejoin: miter; stroke-linecap: square"/>
   </g>
   <g id="patch_4">
    <path d="M 375.51446 145.8 
L 375.51446 7.2 
" style="fill: none; stroke: #000000; stroke-width: 0.8; stroke-linejoin: miter; stroke-linecap: square"/>
   </g>
   <g id="patch_5">
    <path d="M 46.29446 145.8 
L 375.51446 145.8 
" style="fill: none; stroke: #000000; stroke-width: 0.8; stroke-linejoin: miter; stroke-linecap: square"/>
   </g>
   <g id="patch_6">
    <path d="M 46.29446 7.2 
L 375.51446 7.2 
" style="fill: none; stroke: #000000; stroke-width: 0.8; stroke-linejoin: miter; stroke-linecap: square"/>
   </g>
   <g id="patch_7">
    <path d="M 107.375978 30.494724 
Q 98.146079 30.494724 88.916179 30.494724 
" style="fill: none; stroke: #000000; stroke-linecap: round"/>
    <path d="M 103.375978 28.494724 
L 107.375978 30.494724 
L 103.375978 32.494724 
" style="fill: none; stroke: #000000; stroke-linecap: round"/>
    <path d="M 92.916179 32.494724 
L 88.916179 30.494724 
L 92.916179 28.494724 
" style="fill: none; stroke: #000000; stroke-linecap: round"/>
   </g>
   <g id="patch_8">
    <path d="M 108.494012 30.494724 
Q 98.146079 30.494724 87.798145 30.494724 
" style="fill: none; stroke: #000000; stroke-linecap: round"/>
    <path d="M 108.494012 40.494724 
L 108.494012 40.494724 
L 108.494012 20.494724 
L 108.494012 20.494724 
" style="fill: none; stroke: #000000; stroke-linecap: round"/>
    <path d="M 87.798145 20.494724 
L 87.798145 20.494724 
L 87.798145 40.494724 
L 87.798145 40.494724 
" style="fill: none; stroke: #000000; stroke-linecap: round"/>
   </g>
   <g id="text_13">
    <g id="patch_9">
     <path d="M 89.474182 29.266714 
L 106.819037 29.266714 
L 106.819037 11.329065 
L 89.474182 11.329065 
z
" style="fill: #ffffff"/>
    </g>
    <!-- $T_d$ -->
    <g transform="translate(93.474182 22.457303) scale(0.1 -0.1)">
     <defs>
      <path id="URWPalladioL-Ital-54" d="M 2496 4123 
L 2963 4123 
C 3462 4123 3693 4091 3712 4015 
C 3731 3964 3744 3843 3738 3780 
L 3712 3373 
L 3891 3373 
L 4064 4416 
L 3482 4409 
C 2918 4403 2483 4396 2259 4396 
C 2022 4396 1613 4403 1062 4409 
L 454 4416 
L 339 3373 
L 525 3373 
L 621 3754 
C 653 3894 698 3996 736 4040 
C 774 4085 1018 4123 1254 4123 
L 1971 4123 
L 1421 813 
C 1318 235 1306 216 1050 197 
L 723 178 
L 698 0 
L 1062 6 
C 1318 -7 1504 0 1606 0 
C 1728 0 1926 -7 2176 -13 
L 2458 0 
L 2477 179 
L 2099 198 
C 1933 204 1869 256 1869 390 
C 1869 448 1875 492 1894 614 
L 2496 4123 
z
" transform="scale(0.015625)"/>
      <path id="URWPalladioL-Ital-64" d="M 3091 4608 
L 3014 4678 
C 2682 4512 2451 4454 1990 4409 
L 1965 4275 
L 2272 4275 
C 2426 4275 2490 4230 2490 4121 
C 2490 4070 2483 4012 2477 3968 
L 2298 2982 
C 2106 3039 1933 3072 1773 3072 
C 1331 3072 730 2612 435 2059 
C 237 1690 109 1087 109 553 
C 109 140 205 -64 390 -64 
C 563 -64 800 44 1018 216 
C 1363 496 1574 743 2003 1385 
L 1856 807 
C 1786 527 1754 324 1754 159 
C 1754 12 1811 -64 1920 -64 
C 2029 -64 2182 12 2400 172 
L 2918 555 
L 2854 676 
L 2573 479 
C 2483 415 2381 370 2323 370 
C 2272 370 2234 427 2234 517 
C 2234 568 2240 625 2285 811 
L 3091 4608 
z
M 2157 2234 
C 2042 1672 1728 1111 1331 734 
C 1107 523 851 370 730 370 
C 627 370 570 459 570 619 
C 570 1423 864 2419 1178 2662 
C 1261 2726 1382 2758 1555 2758 
C 1837 2758 2022 2720 2234 2611 
L 2157 2234 
z
" transform="scale(0.015625)"/>
     </defs>
     <use xlink:href="#URWPalladioL-Ital-54" transform="scale(0.996264)"/>
     <use xlink:href="#URWPalladioL-Ital-64" transform="translate(55.590562 -20.849366) scale(0.757155)"/>
    </g>
   </g>
   <g id="text_14">
    <!-- $u_0$ -->
    <g style="fill: #ff0000" transform="translate(92.38526 50.888393) scale(0.1 -0.1)">
     <defs>
      <path id="URWPalladioL-Ital-75" d="M 2131 613 
C 2086 459 2061 287 2061 191 
C 2061 32 2131 -64 2253 -64 
C 2419 -64 2650 70 3277 536 
L 3213 651 
L 3046 542 
C 2893 440 2726 370 2656 370 
C 2605 370 2573 415 2573 479 
C 2573 530 2586 600 2605 696 
L 2611 734 
C 2758 1430 2957 2279 3149 3014 
L 3104 3072 
L 2669 2963 
L 2605 2637 
C 2509 2139 2349 1705 2150 1405 
C 1773 823 1274 370 1018 370 
C 966 370 934 427 934 536 
C 934 625 947 708 979 868 
L 1344 2599 
C 1363 2701 1376 2790 1376 2873 
C 1376 2995 1318 3072 1229 3072 
C 1101 3072 858 2937 384 2599 
L 205 2471 
L 250 2343 
L 454 2477 
C 634 2592 704 2624 762 2624 
C 819 2624 870 2567 870 2496 
C 870 2471 864 2407 858 2382 
L 454 485 
C 442 427 429 274 429 185 
C 429 51 525 -64 653 -64 
C 1056 -64 1830 652 2368 1536 
L 2131 613 
z
" transform="scale(0.015625)"/>
     </defs>
     <use xlink:href="#URWPalladioL-Ital-75" transform="scale(0.996264)"/>
     <use xlink:href="#URWPalladioL-Roma-30" transform="translate(56.637661 -17.441431) scale(0.757155)"/>
    </g>
   </g>
   <g id="text_15">
    <!-- $u_1$ -->
    <g style="fill: #0000ff" transform="translate(113.78456 57.686283) scale(0.1 -0.1)">
     <use xlink:href="#URWPalladioL-Ital-75" transform="scale(0.996264)"/>
     <use xlink:href="#URWPalladioL-Roma-31" transform="translate(56.637661 -18.577338) scale(0.757155)"/>
    </g>
   </g>
   <g id="legend_1">
    <g id="patch_10">
     <path d="M 267.93247 30.137648 
L 368.51446 30.137648 
Q 370.51446 30.137648 370.51446 28.137648 
L 370.51446 14.2 
Q 370.51446 12.2 368.51446 12.2 
L 267.93247 12.2 
Q 265.93247 12.2 265.93247 14.2 
L 265.93247 28.137648 
Q 265.93247 30.137648 267.93247 30.137648 
z
" style="fill: #ffffff; opacity: 0.8; stroke: #cccccc; stroke-linejoin: miter"/>
    </g>
    <g id="line2d_22">
     <path d="M 269.93247 19.828237 
L 279.93247 19.828237 
L 289.93247 19.828237 
" style="fill: none; stroke: #1f77b4; stroke-width: 1.5; stroke-linecap: square"/>
    </g>
    <g id="text_16">
     <!-- Gesamtantwort -->
     <g transform="translate(297.93247 23.328237) scale(0.1 -0.1)">
      <defs>
       <path id="URWPalladioL-Roma-47" d="M 4102 3307 
L 4301 3307 
C 4301 3634 4339 3935 4429 4281 
C 3718 4486 3392 4544 2880 4544 
C 1229 4544 141 3608 141 2185 
C 141 1538 358 961 762 570 
C 1203 128 1894 -128 2637 -128 
C 3091 -128 3533 -45 4403 198 
L 4403 1275 
C 4403 1474 4410 1486 4474 1512 
L 4659 1576 
L 4634 1736 
C 4064 1724 4045 1724 3846 1724 
C 3661 1724 3622 1724 3066 1736 
L 3066 1544 
L 3597 1499 
C 3757 1486 3814 1429 3814 1275 
L 3814 627 
C 3814 474 3802 397 3776 352 
C 3706 230 3322 140 2899 140 
C 1632 140 826 986 826 2320 
C 826 3557 1517 4275 2714 4275 
C 3046 4275 3328 4236 3571 4159 
C 3942 4038 4102 3890 4102 3647 
L 4102 3307 
z
" transform="scale(0.015625)"/>
       <path id="URWPalladioL-Roma-61" d="M 2074 544 
L 2042 0 
C 2458 0 2458 0 2541 0 
C 2573 19 2733 12 3014 0 
L 3014 192 
L 2765 204 
C 2611 211 2586 262 2586 576 
L 2586 1751 
C 2586 2688 2317 3027 1574 3027 
C 1299 3027 1043 2956 800 2809 
L 461 2604 
L 461 2187 
L 627 2142 
L 710 2341 
C 845 2642 909 2688 1203 2688 
C 1805 2688 2054 2450 2074 1866 
L 1440 1751 
C 570 1590 205 1289 205 730 
C 205 224 506 -64 1011 -64 
C 1126 -64 1235 -45 1280 -13 
L 2074 544 
z
M 2074 806 
C 1888 544 1485 300 1235 300 
C 979 300 755 537 755 812 
C 755 1049 883 1273 1075 1395 
C 1235 1491 1587 1580 2074 1651 
L 2074 806 
z
" transform="scale(0.015625)"/>
       <path id="URWPalladioL-Roma-6d" d="M 115 2579 
L 352 2579 
C 608 2579 634 2534 634 2112 
L 634 672 
C 634 268 614 224 397 211 
L 102 192 
L 102 0 
C 717 0 736 0 915 0 
C 1094 19 1261 12 1677 0 
L 1677 192 
L 1408 211 
C 1190 223 1171 268 1171 670 
L 1171 2023 
C 1171 2311 1594 2624 1978 2624 
C 2323 2624 2560 2298 2560 1813 
L 2560 670 
C 2560 268 2541 223 2323 211 
L 2029 192 
L 2029 0 
C 2669 0 2669 0 2829 0 
C 2989 19 2989 19 3629 0 
L 3629 192 
L 3334 211 
C 3117 223 3098 268 3098 670 
L 3098 2023 
C 3098 2311 3520 2624 3904 2624 
C 4250 2624 4486 2298 4486 1813 
L 4486 0 
C 4877 0 4883 0 4992 0 
C 5075 19 5075 19 5562 0 
L 5562 192 
L 5261 211 
C 5043 223 5024 268 5024 670 
L 5024 1985 
C 5024 2617 4653 3014 4064 3014 
C 3840 3014 3654 2956 3539 2854 
L 3053 2419 
C 2848 2841 2586 3014 2144 3014 
C 1907 3014 1728 2956 1613 2854 
L 1171 2445 
L 1171 2988 
L 1114 3008 
C 787 2873 454 2783 115 2745 
L 115 2579 
z
" transform="scale(0.015625)"/>
       <path id="URWPalladioL-Roma-77" d="M 2643 3008 
C 2118 1775 2022 1556 1626 651 
L 1088 2434 
C 1069 2492 1062 2544 1062 2595 
C 1062 2692 1146 2744 1306 2750 
L 1562 2763 
L 1562 2943 
C 928 2924 928 2924 800 2924 
C 672 2924 672 2924 38 2943 
L 38 2763 
L 218 2750 
C 397 2738 480 2608 640 2105 
L 1293 -64 
L 1594 -64 
L 2221 1420 
C 2253 1497 2323 1652 2426 1872 
L 2554 2143 
L 3424 -64 
L 3718 -64 
C 3763 70 3814 219 3866 361 
C 3994 742 4134 1142 4160 1181 
L 4595 2189 
C 4787 2621 4864 2731 5005 2750 
L 5171 2763 
L 5171 2943 
C 4646 2924 4646 2924 4544 2924 
C 4442 2924 4442 2924 3917 2943 
L 3917 2763 
L 4134 2750 
C 4294 2744 4384 2666 4384 2550 
C 4384 2479 4371 2402 4339 2318 
L 4019 1413 
C 3968 1271 3917 1142 3712 613 
L 2976 2486 
C 2886 2705 2842 2834 2790 3008 
L 2643 3008 
z
" transform="scale(0.015625)"/>
       <path id="URWPalladioL-Roma-6f" d="M 1786 3008 
C 851 3008 205 2347 205 1391 
C 205 487 774 -128 1600 -128 
C 2586 -128 3290 557 3290 1520 
C 3290 2386 2662 3008 1786 3008 
z
M 1670 2796 
C 2259 2796 2694 2155 2694 1282 
C 2694 545 2368 83 1850 83 
C 1222 83 800 699 800 1609 
C 800 2379 1107 2796 1670 2796 
z
" transform="scale(0.015625)"/>
      </defs>
      <use xlink:href="#URWPalladioL-Roma-47" transform="scale(0.996264)"/>
      <use xlink:href="#URWPalladioL-Roma-65" transform="translate(76.013746 0) scale(0.996264)"/>
      <use xlink:href="#URWPalladioL-Roma-73" transform="translate(123.734041 0) scale(0.996264)"/>
      <use xlink:href="#URWPalladioL-Roma-61" transform="translate(165.975507 0) scale(0.996264)"/>
      <use xlink:href="#URWPalladioL-Roma-6d" transform="translate(215.788708 0) scale(0.996264)"/>
      <use xlink:href="#URWPalladioL-Roma-74" transform="translate(303.758382 0) scale(0.996264)"/>
      <use xlink:href="#URWPalladioL-Roma-61" transform="translate(336.23547 0) scale(0.996264)"/>
      <use xlink:href="#URWPalladioL-Roma-6e" transform="translate(386.048671 0) scale(0.996264)"/>
      <use xlink:href="#URWPalladioL-Roma-74" transform="translate(444.030731 0) scale(0.996264)"/>
      <use xlink:href="#URWPalladioL-Roma-77" transform="translate(476.507819 0) scale(0.996264)"/>
      <use xlink:href="#URWPalladioL-Roma-6f" transform="translate(559.595912 0) scale(0.996264)"/>
      <use xlink:href="#URWPalladioL-Roma-72" transform="translate(613.991492 0) scale(0.996264)"/>
      <use xlink:href="#URWPalladioL-Roma-74" transform="translate(653.343389 0) scale(0.996264)"/>
     </g>
    </g>
   </g>
  </g>
 </g>
 <defs>
  <clipPath id="p94cb0d755b">
   <rect x="46.29446" y="7.2" width="329.22" height="138.6"/>
  </clipPath>
 </defs>
</svg>
